<?xml version="1.0" encoding="utf-8"?>
<svg xmlns="http://www.w3.org/2000/svg" xmlns:xlink="http://www.w3.org/1999/xlink" width="600" height="400" viewBox="0 0 2400 1600">
<defs>
  <clipPath id="clip920">
    <rect x="0" y="0" width="2400" height="1600"/>
  </clipPath>
</defs>
<path clip-path="url(#clip920)" d="M0 1600 L2400 1600 L2400 0 L0 0  Z" fill="#ffffff" fill-rule="evenodd" fill-opacity="1"/>
<defs>
  <clipPath id="clip921">
    <rect x="480" y="0" width="1681" height="1600"/>
  </clipPath>
</defs>
<path clip-path="url(#clip920)" d="M232.389 1423.18 L2352.76 1423.18 L2352.76 47.2441 L232.389 47.2441  Z" fill="#ffffff" fill-rule="evenodd" fill-opacity="1"/>
<defs>
  <clipPath id="clip922">
    <rect x="232" y="47" width="2121" height="1377"/>
  </clipPath>
</defs>
<polyline clip-path="url(#clip922)" style="stroke:#000000; stroke-linecap:round; stroke-linejoin:round; stroke-width:2; stroke-opacity:0.1; fill:none" points="292.4,1423.18 292.4,47.2441 "/>
<polyline clip-path="url(#clip922)" style="stroke:#000000; stroke-linecap:round; stroke-linejoin:round; stroke-width:2; stroke-opacity:0.1; fill:none" points="625.791,1423.18 625.791,47.2441 "/>
<polyline clip-path="url(#clip922)" style="stroke:#000000; stroke-linecap:round; stroke-linejoin:round; stroke-width:2; stroke-opacity:0.1; fill:none" points="959.182,1423.18 959.182,47.2441 "/>
<polyline clip-path="url(#clip922)" style="stroke:#000000; stroke-linecap:round; stroke-linejoin:round; stroke-width:2; stroke-opacity:0.1; fill:none" points="1292.57,1423.18 1292.57,47.2441 "/>
<polyline clip-path="url(#clip922)" style="stroke:#000000; stroke-linecap:round; stroke-linejoin:round; stroke-width:2; stroke-opacity:0.1; fill:none" points="1625.96,1423.18 1625.96,47.2441 "/>
<polyline clip-path="url(#clip922)" style="stroke:#000000; stroke-linecap:round; stroke-linejoin:round; stroke-width:2; stroke-opacity:0.1; fill:none" points="1959.35,1423.18 1959.35,47.2441 "/>
<polyline clip-path="url(#clip922)" style="stroke:#000000; stroke-linecap:round; stroke-linejoin:round; stroke-width:2; stroke-opacity:0.1; fill:none" points="2292.75,1423.18 2292.75,47.2441 "/>
<polyline clip-path="url(#clip922)" style="stroke:#000000; stroke-linecap:round; stroke-linejoin:round; stroke-width:2; stroke-opacity:0.1; fill:none" points="232.389,1384.24 2352.76,1384.24 "/>
<polyline clip-path="url(#clip922)" style="stroke:#000000; stroke-linecap:round; stroke-linejoin:round; stroke-width:2; stroke-opacity:0.1; fill:none" points="232.389,1070.09 2352.76,1070.09 "/>
<polyline clip-path="url(#clip922)" style="stroke:#000000; stroke-linecap:round; stroke-linejoin:round; stroke-width:2; stroke-opacity:0.1; fill:none" points="232.389,755.944 2352.76,755.944 "/>
<polyline clip-path="url(#clip922)" style="stroke:#000000; stroke-linecap:round; stroke-linejoin:round; stroke-width:2; stroke-opacity:0.1; fill:none" points="232.389,441.797 2352.76,441.797 "/>
<polyline clip-path="url(#clip922)" style="stroke:#000000; stroke-linecap:round; stroke-linejoin:round; stroke-width:2; stroke-opacity:0.1; fill:none" points="232.389,127.65 2352.76,127.65 "/>
<polyline clip-path="url(#clip920)" style="stroke:#000000; stroke-linecap:round; stroke-linejoin:round; stroke-width:4; stroke-opacity:1; fill:none" points="232.389,1423.18 2352.76,1423.18 "/>
<polyline clip-path="url(#clip920)" style="stroke:#000000; stroke-linecap:round; stroke-linejoin:round; stroke-width:4; stroke-opacity:1; fill:none" points="292.4,1423.18 292.4,1404.28 "/>
<polyline clip-path="url(#clip920)" style="stroke:#000000; stroke-linecap:round; stroke-linejoin:round; stroke-width:4; stroke-opacity:1; fill:none" points="625.791,1423.18 625.791,1404.28 "/>
<polyline clip-path="url(#clip920)" style="stroke:#000000; stroke-linecap:round; stroke-linejoin:round; stroke-width:4; stroke-opacity:1; fill:none" points="959.182,1423.18 959.182,1404.28 "/>
<polyline clip-path="url(#clip920)" style="stroke:#000000; stroke-linecap:round; stroke-linejoin:round; stroke-width:4; stroke-opacity:1; fill:none" points="1292.57,1423.18 1292.57,1404.28 "/>
<polyline clip-path="url(#clip920)" style="stroke:#000000; stroke-linecap:round; stroke-linejoin:round; stroke-width:4; stroke-opacity:1; fill:none" points="1625.96,1423.18 1625.96,1404.28 "/>
<polyline clip-path="url(#clip920)" style="stroke:#000000; stroke-linecap:round; stroke-linejoin:round; stroke-width:4; stroke-opacity:1; fill:none" points="1959.35,1423.18 1959.35,1404.28 "/>
<polyline clip-path="url(#clip920)" style="stroke:#000000; stroke-linecap:round; stroke-linejoin:round; stroke-width:4; stroke-opacity:1; fill:none" points="2292.75,1423.18 2292.75,1404.28 "/>
<path clip-path="url(#clip920)" d="M292.4 1454.1 Q288.789 1454.1 286.96 1457.66 Q285.154 1461.2 285.154 1468.33 Q285.154 1475.44 286.96 1479.01 Q288.789 1482.55 292.4 1482.55 Q296.034 1482.55 297.84 1479.01 Q299.668 1475.44 299.668 1468.33 Q299.668 1461.2 297.84 1457.66 Q296.034 1454.1 292.4 1454.1 M292.4 1450.39 Q298.21 1450.39 301.265 1455 Q304.344 1459.58 304.344 1468.33 Q304.344 1477.06 301.265 1481.67 Q298.21 1486.25 292.4 1486.25 Q286.59 1486.25 283.511 1481.67 Q280.455 1477.06 280.455 1468.33 Q280.455 1459.58 283.511 1455 Q286.59 1450.39 292.4 1450.39 Z" fill="#000000" fill-rule="nonzero" fill-opacity="1" /><path clip-path="url(#clip920)" d="M616.173 1481.64 L623.812 1481.64 L623.812 1455.28 L615.501 1456.95 L615.501 1452.69 L623.765 1451.02 L628.441 1451.02 L628.441 1481.64 L636.08 1481.64 L636.08 1485.58 L616.173 1485.58 L616.173 1481.64 Z" fill="#000000" fill-rule="nonzero" fill-opacity="1" /><path clip-path="url(#clip920)" d="M953.834 1481.64 L970.154 1481.64 L970.154 1485.58 L948.209 1485.58 L948.209 1481.64 Q950.872 1478.89 955.455 1474.26 Q960.061 1469.61 961.242 1468.27 Q963.487 1465.74 964.367 1464.01 Q965.27 1462.25 965.27 1460.56 Q965.27 1457.8 963.325 1456.07 Q961.404 1454.33 958.302 1454.33 Q956.103 1454.33 953.649 1455.09 Q951.219 1455.86 948.441 1457.41 L948.441 1452.69 Q951.265 1451.55 953.719 1450.97 Q956.172 1450.39 958.209 1450.39 Q963.58 1450.39 966.774 1453.08 Q969.969 1455.77 969.969 1460.26 Q969.969 1462.39 969.158 1464.31 Q968.371 1466.2 966.265 1468.8 Q965.686 1469.47 962.584 1472.69 Q959.483 1475.88 953.834 1481.64 Z" fill="#000000" fill-rule="nonzero" fill-opacity="1" /><path clip-path="url(#clip920)" d="M1296.82 1466.95 Q1300.18 1467.66 1302.05 1469.93 Q1303.95 1472.2 1303.95 1475.53 Q1303.95 1480.65 1300.43 1483.45 Q1296.91 1486.25 1290.43 1486.25 Q1288.26 1486.25 1285.94 1485.81 Q1283.65 1485.39 1281.2 1484.54 L1281.2 1480.02 Q1283.14 1481.16 1285.45 1481.74 Q1287.77 1482.32 1290.29 1482.32 Q1294.69 1482.32 1296.98 1480.58 Q1299.3 1478.84 1299.3 1475.53 Q1299.3 1472.48 1297.14 1470.77 Q1295.01 1469.03 1291.2 1469.03 L1287.17 1469.03 L1287.17 1465.19 L1291.38 1465.19 Q1294.83 1465.19 1296.66 1463.82 Q1298.49 1462.43 1298.49 1459.84 Q1298.49 1457.18 1296.59 1455.77 Q1294.71 1454.33 1291.2 1454.33 Q1289.27 1454.33 1287.07 1454.75 Q1284.88 1455.16 1282.24 1456.04 L1282.24 1451.88 Q1284.9 1451.14 1287.21 1450.77 Q1289.55 1450.39 1291.61 1450.39 Q1296.94 1450.39 1300.04 1452.83 Q1303.14 1455.23 1303.14 1459.35 Q1303.14 1462.22 1301.5 1464.21 Q1299.85 1466.18 1296.82 1466.95 Z" fill="#000000" fill-rule="nonzero" fill-opacity="1" /><path clip-path="url(#clip920)" d="M1628.97 1455.09 L1617.17 1473.54 L1628.97 1473.54 L1628.97 1455.09 M1627.75 1451.02 L1633.63 1451.02 L1633.63 1473.54 L1638.56 1473.54 L1638.56 1477.43 L1633.63 1477.43 L1633.63 1485.58 L1628.97 1485.58 L1628.97 1477.43 L1613.37 1477.43 L1613.37 1472.92 L1627.75 1451.02 Z" fill="#000000" fill-rule="nonzero" fill-opacity="1" /><path clip-path="url(#clip920)" d="M1949.63 1451.02 L1967.99 1451.02 L1967.99 1454.96 L1953.91 1454.96 L1953.91 1463.43 Q1954.93 1463.08 1955.95 1462.92 Q1956.97 1462.73 1957.99 1462.73 Q1963.78 1462.73 1967.16 1465.9 Q1970.54 1469.08 1970.54 1474.49 Q1970.54 1480.07 1967.06 1483.17 Q1963.59 1486.25 1957.27 1486.25 Q1955.1 1486.25 1952.83 1485.88 Q1950.58 1485.51 1948.17 1484.77 L1948.17 1480.07 Q1950.26 1481.2 1952.48 1481.76 Q1954.7 1482.32 1957.18 1482.32 Q1961.18 1482.32 1963.52 1480.21 Q1965.86 1478.1 1965.86 1474.49 Q1965.86 1470.88 1963.52 1468.77 Q1961.18 1466.67 1957.18 1466.67 Q1955.3 1466.67 1953.43 1467.08 Q1951.58 1467.5 1949.63 1468.38 L1949.63 1451.02 Z" fill="#000000" fill-rule="nonzero" fill-opacity="1" /><path clip-path="url(#clip920)" d="M2293.15 1466.44 Q2290 1466.44 2288.15 1468.59 Q2286.32 1470.74 2286.32 1474.49 Q2286.32 1478.22 2288.15 1480.39 Q2290 1482.55 2293.15 1482.55 Q2296.3 1482.55 2298.13 1480.39 Q2299.98 1478.22 2299.98 1474.49 Q2299.98 1470.74 2298.13 1468.59 Q2296.3 1466.44 2293.15 1466.44 M2302.43 1451.78 L2302.43 1456.04 Q2300.67 1455.21 2298.87 1454.77 Q2297.09 1454.33 2295.33 1454.33 Q2290.7 1454.33 2288.24 1457.45 Q2285.81 1460.58 2285.47 1466.9 Q2286.83 1464.89 2288.89 1463.82 Q2290.95 1462.73 2293.43 1462.73 Q2298.64 1462.73 2301.65 1465.9 Q2304.68 1469.05 2304.68 1474.49 Q2304.68 1479.82 2301.53 1483.03 Q2298.38 1486.25 2293.15 1486.25 Q2287.16 1486.25 2283.98 1481.67 Q2280.81 1477.06 2280.81 1468.33 Q2280.81 1460.14 2284.7 1455.28 Q2288.59 1450.39 2295.14 1450.39 Q2296.9 1450.39 2298.68 1450.74 Q2300.49 1451.09 2302.43 1451.78 Z" fill="#000000" fill-rule="nonzero" fill-opacity="1" /><path clip-path="url(#clip920)" d="M1162.74 1520.52 L1202.94 1520.52 L1202.94 1525.93 L1186.07 1525.93 L1186.07 1568.04 L1179.61 1568.04 L1179.61 1525.93 L1162.74 1525.93 L1162.74 1520.52 Z" fill="#000000" fill-rule="nonzero" fill-opacity="1" /><path clip-path="url(#clip920)" d="M1206.89 1532.4 L1212.75 1532.4 L1212.75 1568.04 L1206.89 1568.04 L1206.89 1532.4 M1206.89 1518.52 L1212.75 1518.52 L1212.75 1525.93 L1206.89 1525.93 L1206.89 1518.52 Z" fill="#000000" fill-rule="nonzero" fill-opacity="1" /><path clip-path="url(#clip920)" d="M1252.76 1539.24 Q1254.95 1535.29 1258.01 1533.41 Q1261.06 1531.54 1265.2 1531.54 Q1270.77 1531.54 1273.79 1535.45 Q1276.82 1539.33 1276.82 1546.53 L1276.82 1568.04 L1270.93 1568.04 L1270.93 1546.72 Q1270.93 1541.59 1269.11 1539.11 Q1267.3 1536.63 1263.58 1536.63 Q1259.03 1536.63 1256.38 1539.65 Q1253.74 1542.68 1253.74 1547.9 L1253.74 1568.04 L1247.85 1568.04 L1247.85 1546.72 Q1247.85 1541.56 1246.04 1539.11 Q1244.23 1536.63 1240.44 1536.63 Q1235.95 1536.63 1233.31 1539.68 Q1230.67 1542.71 1230.67 1547.9 L1230.67 1568.04 L1224.78 1568.04 L1224.78 1532.4 L1230.67 1532.4 L1230.67 1537.93 Q1232.67 1534.66 1235.47 1533.1 Q1238.27 1531.54 1242.12 1531.54 Q1246.01 1531.54 1248.71 1533.51 Q1251.45 1535.48 1252.76 1539.24 Z" fill="#000000" fill-rule="nonzero" fill-opacity="1" /><path clip-path="url(#clip920)" d="M1318.99 1548.76 L1318.99 1551.62 L1292.06 1551.62 Q1292.45 1557.67 1295.69 1560.85 Q1298.97 1564 1304.79 1564 Q1308.17 1564 1311.32 1563.17 Q1314.5 1562.35 1317.62 1560.69 L1317.62 1566.23 Q1314.47 1567.57 1311.16 1568.27 Q1307.85 1568.97 1304.44 1568.97 Q1295.91 1568.97 1290.92 1564 Q1285.95 1559.04 1285.95 1550.57 Q1285.95 1541.82 1290.66 1536.69 Q1295.41 1531.54 1303.43 1531.54 Q1310.62 1531.54 1314.79 1536.18 Q1318.99 1540.8 1318.99 1548.76 M1313.13 1547.04 Q1313.07 1542.23 1310.43 1539.37 Q1307.82 1536.5 1303.49 1536.5 Q1298.59 1536.5 1295.63 1539.27 Q1292.7 1542.04 1292.25 1547.07 L1313.13 1547.04 Z" fill="#000000" fill-rule="nonzero" fill-opacity="1" /><path clip-path="url(#clip920)" d="M1363.39 1518.58 Q1359.13 1525.9 1357.06 1533.06 Q1354.99 1540.23 1354.99 1547.58 Q1354.99 1554.93 1357.06 1562.16 Q1359.16 1569.35 1363.39 1576.64 L1358.3 1576.64 Q1353.52 1569.16 1351.14 1561.93 Q1348.78 1554.71 1348.78 1547.58 Q1348.78 1540.48 1351.14 1533.29 Q1353.49 1526.09 1358.3 1518.58 L1363.39 1518.58 Z" fill="#000000" fill-rule="nonzero" fill-opacity="1" /><path clip-path="url(#clip920)" d="M1397.48 1533.45 L1397.48 1538.98 Q1395 1537.71 1392.32 1537.07 Q1389.65 1536.44 1386.79 1536.44 Q1382.42 1536.44 1380.23 1537.77 Q1378.06 1539.11 1378.06 1541.79 Q1378.06 1543.82 1379.62 1545 Q1381.18 1546.15 1385.89 1547.2 L1387.9 1547.64 Q1394.14 1548.98 1396.75 1551.43 Q1399.39 1553.85 1399.39 1558.21 Q1399.39 1563.17 1395.44 1566.07 Q1391.53 1568.97 1384.65 1568.97 Q1381.79 1568.97 1378.67 1568.39 Q1375.58 1567.85 1372.14 1566.74 L1372.14 1560.69 Q1375.39 1562.38 1378.54 1563.24 Q1381.69 1564.07 1384.78 1564.07 Q1388.92 1564.07 1391.15 1562.66 Q1393.37 1561.23 1393.37 1558.65 Q1393.37 1556.27 1391.75 1554.99 Q1390.16 1553.72 1384.72 1552.54 L1382.68 1552.07 Q1377.24 1550.92 1374.82 1548.56 Q1372.4 1546.18 1372.4 1542.04 Q1372.4 1537.01 1375.96 1534.27 Q1379.53 1531.54 1386.08 1531.54 Q1389.33 1531.54 1392.2 1532.01 Q1395.06 1532.49 1397.48 1533.45 Z" fill="#000000" fill-rule="nonzero" fill-opacity="1" /><path clip-path="url(#clip920)" d="M1407.79 1518.58 L1412.88 1518.58 Q1417.66 1526.09 1420.01 1533.29 Q1422.4 1540.48 1422.4 1547.58 Q1422.4 1554.71 1420.01 1561.93 Q1417.66 1569.16 1412.88 1576.64 L1407.79 1576.64 Q1412.03 1569.35 1414.09 1562.16 Q1416.19 1554.93 1416.19 1547.58 Q1416.19 1540.23 1414.09 1533.06 Q1412.03 1525.9 1407.79 1518.58 Z" fill="#000000" fill-rule="nonzero" fill-opacity="1" /><polyline clip-path="url(#clip920)" style="stroke:#000000; stroke-linecap:round; stroke-linejoin:round; stroke-width:4; stroke-opacity:1; fill:none" points="232.389,1423.18 232.389,47.2441 "/>
<polyline clip-path="url(#clip920)" style="stroke:#000000; stroke-linecap:round; stroke-linejoin:round; stroke-width:4; stroke-opacity:1; fill:none" points="232.389,1384.24 251.287,1384.24 "/>
<polyline clip-path="url(#clip920)" style="stroke:#000000; stroke-linecap:round; stroke-linejoin:round; stroke-width:4; stroke-opacity:1; fill:none" points="232.389,1070.09 251.287,1070.09 "/>
<polyline clip-path="url(#clip920)" style="stroke:#000000; stroke-linecap:round; stroke-linejoin:round; stroke-width:4; stroke-opacity:1; fill:none" points="232.389,755.944 251.287,755.944 "/>
<polyline clip-path="url(#clip920)" style="stroke:#000000; stroke-linecap:round; stroke-linejoin:round; stroke-width:4; stroke-opacity:1; fill:none" points="232.389,441.797 251.287,441.797 "/>
<polyline clip-path="url(#clip920)" style="stroke:#000000; stroke-linecap:round; stroke-linejoin:round; stroke-width:4; stroke-opacity:1; fill:none" points="232.389,127.65 251.287,127.65 "/>
<path clip-path="url(#clip920)" d="M184.445 1370.04 Q180.834 1370.04 179.005 1373.6 Q177.2 1377.14 177.2 1384.27 Q177.2 1391.38 179.005 1394.94 Q180.834 1398.49 184.445 1398.49 Q188.079 1398.49 189.885 1394.94 Q191.713 1391.38 191.713 1384.27 Q191.713 1377.14 189.885 1373.6 Q188.079 1370.04 184.445 1370.04 M184.445 1366.33 Q190.255 1366.33 193.311 1370.94 Q196.389 1375.52 196.389 1384.27 Q196.389 1393 193.311 1397.61 Q190.255 1402.19 184.445 1402.19 Q178.635 1402.19 175.556 1397.61 Q172.501 1393 172.501 1384.27 Q172.501 1375.52 175.556 1370.94 Q178.635 1366.33 184.445 1366.33 Z" fill="#000000" fill-rule="nonzero" fill-opacity="1" /><path clip-path="url(#clip920)" d="M149.306 1083.44 L165.626 1083.44 L165.626 1087.37 L143.681 1087.37 L143.681 1083.44 Q146.343 1080.68 150.927 1076.05 Q155.533 1071.4 156.714 1070.06 Q158.959 1067.53 159.839 1065.8 Q160.741 1064.04 160.741 1062.35 Q160.741 1059.59 158.797 1057.86 Q156.876 1056.12 153.774 1056.12 Q151.575 1056.12 149.121 1056.89 Q146.691 1057.65 143.913 1059.2 L143.913 1054.48 Q146.737 1053.34 149.191 1052.76 Q151.644 1052.19 153.681 1052.19 Q159.052 1052.19 162.246 1054.87 Q165.44 1057.56 165.44 1062.05 Q165.44 1064.18 164.63 1066.1 Q163.843 1068 161.737 1070.59 Q161.158 1071.26 158.056 1074.48 Q154.954 1077.67 149.306 1083.44 Z" fill="#000000" fill-rule="nonzero" fill-opacity="1" /><path clip-path="url(#clip920)" d="M175.487 1052.81 L193.843 1052.81 L193.843 1056.75 L179.769 1056.75 L179.769 1065.22 Q180.788 1064.87 181.806 1064.71 Q182.825 1064.52 183.843 1064.52 Q189.63 1064.52 193.01 1067.7 Q196.389 1070.87 196.389 1076.28 Q196.389 1081.86 192.917 1084.96 Q189.445 1088.04 183.126 1088.04 Q180.95 1088.04 178.681 1087.67 Q176.436 1087.3 174.028 1086.56 L174.028 1081.86 Q176.112 1083 178.334 1083.55 Q180.556 1084.11 183.033 1084.11 Q187.038 1084.11 189.375 1082 Q191.713 1079.89 191.713 1076.28 Q191.713 1072.67 189.375 1070.57 Q187.038 1068.46 183.033 1068.46 Q181.158 1068.46 179.283 1068.88 Q177.431 1069.29 175.487 1070.17 L175.487 1052.81 Z" fill="#000000" fill-rule="nonzero" fill-opacity="1" /><path clip-path="url(#clip920)" d="M144.329 738.664 L162.686 738.664 L162.686 742.599 L148.612 742.599 L148.612 751.072 Q149.63 750.724 150.649 750.562 Q151.667 750.377 152.686 750.377 Q158.473 750.377 161.852 753.548 Q165.232 756.72 165.232 762.136 Q165.232 767.715 161.76 770.817 Q158.288 773.896 151.968 773.896 Q149.792 773.896 147.524 773.525 Q145.279 773.155 142.871 772.414 L142.871 767.715 Q144.954 768.849 147.177 769.405 Q149.399 769.96 151.876 769.96 Q155.88 769.96 158.218 767.854 Q160.556 765.747 160.556 762.136 Q160.556 758.525 158.218 756.419 Q155.88 754.312 151.876 754.312 Q150.001 754.312 148.126 754.729 Q146.274 755.146 144.329 756.025 L144.329 738.664 Z" fill="#000000" fill-rule="nonzero" fill-opacity="1" /><path clip-path="url(#clip920)" d="M184.445 741.743 Q180.834 741.743 179.005 745.308 Q177.2 748.849 177.2 755.979 Q177.2 763.085 179.005 766.65 Q180.834 770.192 184.445 770.192 Q188.079 770.192 189.885 766.65 Q191.713 763.085 191.713 755.979 Q191.713 748.849 189.885 745.308 Q188.079 741.743 184.445 741.743 M184.445 738.039 Q190.255 738.039 193.311 742.646 Q196.389 747.229 196.389 755.979 Q196.389 764.706 193.311 769.312 Q190.255 773.896 184.445 773.896 Q178.635 773.896 175.556 769.312 Q172.501 764.706 172.501 755.979 Q172.501 747.229 175.556 742.646 Q178.635 738.039 184.445 738.039 Z" fill="#000000" fill-rule="nonzero" fill-opacity="1" /><path clip-path="url(#clip920)" d="M144.098 424.517 L166.32 424.517 L166.32 426.508 L153.774 459.077 L148.89 459.077 L160.695 428.452 L144.098 428.452 L144.098 424.517 Z" fill="#000000" fill-rule="nonzero" fill-opacity="1" /><path clip-path="url(#clip920)" d="M175.487 424.517 L193.843 424.517 L193.843 428.452 L179.769 428.452 L179.769 436.925 Q180.788 436.577 181.806 436.415 Q182.825 436.23 183.843 436.23 Q189.63 436.23 193.01 439.401 Q196.389 442.573 196.389 447.989 Q196.389 453.568 192.917 456.67 Q189.445 459.748 183.126 459.748 Q180.95 459.748 178.681 459.378 Q176.436 459.008 174.028 458.267 L174.028 453.568 Q176.112 454.702 178.334 455.258 Q180.556 455.813 183.033 455.813 Q187.038 455.813 189.375 453.707 Q191.713 451.6 191.713 447.989 Q191.713 444.378 189.375 442.272 Q187.038 440.165 183.033 440.165 Q181.158 440.165 179.283 440.582 Q177.431 440.999 175.487 441.878 L175.487 424.517 Z" fill="#000000" fill-rule="nonzero" fill-opacity="1" /><path clip-path="url(#clip920)" d="M114.931 140.995 L122.57 140.995 L122.57 114.629 L114.26 116.296 L114.26 112.037 L122.524 110.37 L127.2 110.37 L127.2 140.995 L134.839 140.995 L134.839 144.93 L114.931 144.93 L114.931 140.995 Z" fill="#000000" fill-rule="nonzero" fill-opacity="1" /><path clip-path="url(#clip920)" d="M154.283 113.449 Q150.672 113.449 148.843 117.014 Q147.038 120.555 147.038 127.685 Q147.038 134.791 148.843 138.356 Q150.672 141.898 154.283 141.898 Q157.917 141.898 159.723 138.356 Q161.552 134.791 161.552 127.685 Q161.552 120.555 159.723 117.014 Q157.917 113.449 154.283 113.449 M154.283 109.745 Q160.093 109.745 163.149 114.352 Q166.227 118.935 166.227 127.685 Q166.227 136.412 163.149 141.018 Q160.093 145.601 154.283 145.601 Q148.473 145.601 145.394 141.018 Q142.339 136.412 142.339 127.685 Q142.339 118.935 145.394 114.352 Q148.473 109.745 154.283 109.745 Z" fill="#000000" fill-rule="nonzero" fill-opacity="1" /><path clip-path="url(#clip920)" d="M184.445 113.449 Q180.834 113.449 179.005 117.014 Q177.2 120.555 177.2 127.685 Q177.2 134.791 179.005 138.356 Q180.834 141.898 184.445 141.898 Q188.079 141.898 189.885 138.356 Q191.713 134.791 191.713 127.685 Q191.713 120.555 189.885 117.014 Q188.079 113.449 184.445 113.449 M184.445 109.745 Q190.255 109.745 193.311 114.352 Q196.389 118.935 196.389 127.685 Q196.389 136.412 193.311 141.018 Q190.255 145.601 184.445 145.601 Q178.635 145.601 175.556 141.018 Q172.501 136.412 172.501 127.685 Q172.501 118.935 175.556 114.352 Q178.635 109.745 184.445 109.745 Z" fill="#000000" fill-rule="nonzero" fill-opacity="1" /><path clip-path="url(#clip920)" d="M67.3143 733.525 Q73.68 736.008 75.6216 738.363 Q77.5631 740.718 77.5631 744.665 L77.5631 749.344 L72.6615 749.344 L72.6615 745.906 Q72.6615 743.487 71.5157 742.151 Q70.3699 740.814 66.1048 739.191 L63.4312 738.14 L28.3562 752.559 L28.3562 746.352 L56.238 735.212 L28.3562 724.072 L28.3562 717.865 L67.3143 733.525 Z" fill="#000000" fill-rule="nonzero" fill-opacity="1" /><polyline clip-path="url(#clip922)" style="stroke:#009af9; stroke-linecap:round; stroke-linejoin:round; stroke-width:4; stroke-opacity:1; fill:none" points="292.4,1384.24 302.401,1347.1 312.403,1311.06 322.405,1276.09 332.407,1242.14 342.408,1209.21 352.41,1177.24 362.412,1146.22 372.414,1116.12 382.415,1086.9 392.417,1058.55 402.419,1031.04 412.42,1004.34 422.422,978.432 432.424,953.287 442.426,928.886 452.427,905.206 462.429,882.226 472.431,859.925 482.433,838.283 492.434,817.28 502.436,796.899 512.438,777.119 522.439,757.925 532.441,739.297 542.443,721.22 552.445,703.678 562.446,686.654 572.448,670.132 582.45,654.1 592.452,638.541 602.453,623.442 612.455,608.789 622.457,594.569 632.459,580.769 642.46,567.378 652.462,554.382 662.464,541.77 672.465,529.531 682.467,517.654 692.469,506.127 702.471,494.942 712.472,484.086 722.474,473.552 732.476,463.329 742.478,453.408 752.479,443.781 762.481,434.438 772.483,425.371 782.484,416.572 792.486,408.033 802.488,399.746 812.49,391.705 822.491,383.901 832.493,376.327 842.495,368.978 852.497,361.845 862.498,354.924 872.5,348.207 882.502,341.689 892.503,335.363 902.505,329.224 912.507,323.267 922.509,317.485 932.51,311.875 942.512,306.43 952.514,301.146 962.516,296.019 972.517,291.043 982.519,286.214 992.521,281.527 1002.52,276.98 1012.52,272.566 1022.53,268.283 1032.53,264.127 1042.53,260.094 1052.53,256.179 1062.53,252.381 1072.53,248.694 1082.54,245.117 1092.54,241.645 1102.54,238.276 1112.54,235.007 1122.54,231.834 1132.54,228.755 1142.55,225.767 1152.55,222.867 1162.55,220.053 1172.55,217.322 1182.55,214.672 1192.56,212.1 1202.56,209.604 1212.56,207.182 1222.56,204.831 1232.56,202.55 1242.56,200.337 1252.57,198.188 1262.57,196.104 1272.57,194.081 1282.57,192.117 1292.57,190.212 1302.57,188.363 1312.58,186.569 1322.58,184.827 1332.58,183.138 1342.58,181.498 1352.58,179.906 1362.58,178.362 1372.59,176.863 1382.59,175.409 1392.59,173.997 1402.59,172.627 1412.59,171.298 1422.6,170.008 1432.6,168.756 1442.6,167.541 1452.6,166.362 1462.6,165.218 1472.6,164.108 1482.61,163.03 1492.61,161.985 1502.61,160.97 1512.61,159.985 1522.61,159.03 1532.61,158.102 1542.62,157.202 1552.62,156.329 1562.62,155.481 1572.62,154.659 1582.62,153.861 1592.62,153.086 1602.63,152.334 1612.63,151.605 1622.63,150.897 1632.63,150.21 1642.63,149.543 1652.63,148.896 1662.64,148.268 1672.64,147.659 1682.64,147.067 1692.64,146.493 1702.64,145.937 1712.65,145.396 1722.65,144.872 1732.65,144.363 1742.65,143.869 1752.65,143.389 1762.65,142.924 1772.66,142.473 1782.66,142.035 1792.66,141.61 1802.66,141.197 1812.66,140.797 1822.66,140.408 1832.67,140.031 1842.67,139.665 1852.67,139.31 1862.67,138.965 1872.67,138.631 1882.67,138.307 1892.68,137.992 1902.68,137.686 1912.68,137.389 1922.68,137.102 1932.68,136.822 1942.69,136.551 1952.69,136.288 1962.69,136.033 1972.69,135.785 1982.69,135.545 1992.69,135.311 2002.7,135.085 2012.7,134.865 2022.7,134.652 2032.7,134.445 2042.7,134.244 2052.7,134.049 2062.71,133.86 2072.71,133.677 2082.71,133.498 2092.71,133.326 2102.71,133.158 2112.71,132.995 2122.72,132.837 2132.72,132.684 2142.72,132.535 2152.72,132.391 2162.72,132.251 2172.72,132.115 2182.73,131.983 2192.73,131.855 2202.73,131.73 2212.73,131.61 2222.73,131.493 2232.74,131.379 2242.74,131.269 2252.74,131.162 2262.74,131.058 2272.74,130.958 2282.74,130.86 2292.75,130.765 "/>
<polyline clip-path="url(#clip922)" style="stroke:#e26f46; stroke-linecap:round; stroke-linejoin:round; stroke-width:4; stroke-opacity:1; fill:none" points="292.4,1384.24 293.1,1384.24 293.8,1384.22 294.5,1384.16 295.2,1384.07 295.9,1383.92 296.6,1383.72 297.301,1383.44 298.001,1383.1 298.701,1382.67 299.401,1382.17 300.101,1381.6 300.801,1380.94 301.501,1380.2 302.201,1379.38 302.902,1378.49 303.602,1377.51 304.302,1376.46 305.002,1375.34 305.702,1374.15 306.402,1372.88 307.102,1371.55 307.802,1370.16 308.503,1368.7 309.203,1367.19 309.903,1365.62 310.603,1364 311.303,1362.32 312.003,1360.6 312.703,1358.83 313.403,1357.01 314.103,1355.16 314.804,1353.27 315.504,1351.34 316.204,1349.37 316.904,1347.37 317.604,1345.35 318.304,1343.29 319.004,1341.21 319.704,1339.11 320.405,1336.98 321.105,1334.83 321.805,1332.66 322.505,1330.47 323.205,1328.26 323.905,1326.04 324.605,1323.81 325.305,1321.56 326.006,1319.3 326.706,1317.02 327.406,1314.74 328.106,1312.45 328.806,1310.15 329.506,1307.84 330.206,1305.53 330.906,1303.21 331.606,1300.88 332.307,1298.55 333.007,1296.22 333.707,1293.88 334.407,1291.54 335.107,1289.2 335.807,1286.86 336.507,1284.51 337.207,1282.17 337.908,1279.82 338.608,1277.47 339.308,1275.12 340.008,1272.78 340.708,1270.43 341.408,1268.09 342.108,1265.74 342.808,1263.4 343.509,1261.06 344.209,1258.72 344.909,1256.39 345.609,1254.05 346.309,1251.72 347.009,1249.39 347.709,1247.07 348.409,1244.75 349.11,1242.43 349.81,1240.11 350.51,1237.8 351.21,1235.49 351.91,1233.18 352.61,1230.88 353.31,1228.58 354.01,1226.28 354.71,1223.99 355.411,1221.7 356.111,1219.42 356.811,1217.14 357.511,1214.86 358.211,1212.59 358.911,1210.32 359.611,1208.06 360.311,1205.8 361.012,1203.55 361.712,1201.3 362.412,1199.05 363.112,1196.81 363.812,1194.57 364.512,1192.34 365.212,1190.11 365.912,1187.88 366.613,1185.66 367.313,1183.44 368.013,1181.23 368.713,1179.03 369.413,1176.82 370.113,1174.62 370.813,1172.43 371.513,1170.24 372.214,1168.06 372.914,1165.88 373.614,1163.7 374.314,1161.53 375.014,1159.36 375.714,1157.2 376.414,1155.04 377.114,1152.88 377.814,1150.73 378.515,1148.59 379.215,1146.45 379.915,1144.31 380.615,1142.18 381.315,1140.05 382.015,1137.93 382.715,1135.81 383.415,1133.7 384.116,1131.59 384.816,1129.48 385.516,1127.38 386.216,1125.28 386.916,1123.19 387.616,1121.1 388.316,1119.02 389.016,1116.94 389.717,1114.86 390.417,1112.79 391.117,1110.73 391.817,1108.67 392.517,1106.61 393.217,1104.55 393.917,1102.51 394.617,1100.46 395.318,1098.42 396.018,1096.38 396.718,1094.35 397.418,1092.32 398.118,1090.3 398.818,1088.28 399.518,1086.27 400.218,1084.25 400.918,1082.25 401.619,1080.25 402.319,1078.25 403.019,1076.25 403.719,1074.26 404.419,1072.28 405.119,1070.3 405.819,1068.32 406.519,1066.35 407.22,1064.38 407.92,1062.41 408.62,1060.45 409.32,1058.49 410.02,1056.54 410.72,1054.59 411.42,1052.65 412.12,1050.71 412.821,1048.77 413.521,1046.84 414.221,1044.91 414.921,1042.99 415.621,1041.07 416.321,1039.15 417.021,1037.24 417.721,1035.33 418.422,1033.43 419.122,1031.53 419.822,1029.63 420.522,1027.74 421.222,1025.85 421.922,1023.96 422.622,1022.08 423.322,1020.21 424.022,1018.34 424.723,1016.47 425.423,1014.6 426.123,1012.74 426.823,1010.88 427.523,1009.03 428.223,1007.18 428.923,1005.34 429.623,1003.5 430.324,1001.66 431.024,999.826 431.724,997.996 432.424,996.171 433.124,994.349 433.824,992.53 434.524,990.716 435.224,988.906 435.925,987.099 436.625,985.296 437.325,983.497 438.025,981.701 438.725,979.91 439.425,978.122 440.125,976.338 440.825,974.557 441.526,972.781 442.226,971.008 442.926,969.239 443.626,967.473 444.326,965.711 445.026,963.953 445.726,962.199 446.426,960.448 447.126,958.701 447.827,956.958 448.527,955.218 449.227,953.482 449.927,951.75 450.627,950.021 451.327,948.296 452.027,946.574 452.727,944.856 453.428,943.142 454.128,941.431 454.828,939.724 455.528,938.02 456.228,936.32 456.928,934.624 457.628,932.931 458.328,931.242 459.029,929.556 459.729,927.874 460.429,926.195 461.129,924.52 461.829,922.848 462.529,921.18 463.229,919.515 463.929,917.854 464.629,916.196 465.33,914.542 466.03,912.891 466.73,911.244 467.43,909.6 468.13,907.96 468.83,906.323 469.53,904.69 470.23,903.06 470.931,901.433 471.631,899.81 472.331,898.19 473.031,896.573 473.731,894.96 474.431,893.351 475.131,891.744 475.831,890.141 476.532,888.542 477.232,886.946 477.932,885.353 478.632,883.763 479.332,882.177 480.032,880.594 480.732,879.015 481.432,877.439 482.133,875.866 482.833,874.296 483.533,872.73 484.233,871.167 484.933,869.607 485.633,868.051 486.333,866.497 487.033,864.947 487.733,863.401 488.434,861.857 489.134,860.317 489.834,858.78 490.534,857.246 491.234,855.716 491.934,854.188 492.634,852.664 493.334,851.143 494.035,849.626 494.735,848.111 495.435,846.6 496.135,845.091 496.835,843.586 497.535,842.085 498.235,840.586 498.935,839.09 499.636,837.598 500.336,836.108 501.036,834.622 501.736,833.139 502.436,831.659 503.136,830.182 503.836,828.708 504.536,827.238 505.237,825.77 505.937,824.306 506.637,822.844 507.337,821.386 508.037,819.931 508.737,818.478 509.437,817.029 510.137,815.583 510.837,814.14 511.538,812.7 512.238,811.263 512.938,809.828 513.638,808.397 514.338,806.969 515.038,805.544 515.738,804.122 516.438,802.703 517.139,801.287 517.839,799.874 518.539,798.464 519.239,797.056 519.939,795.652 520.639,794.251 521.339,792.852 522.039,791.457 522.74,790.064 523.44,788.675 524.14,787.288 524.84,785.904 525.54,784.523 526.24,783.145 526.94,781.77 527.64,780.398 528.341,779.029 529.041,777.662 529.741,776.299 530.441,774.938 531.141,773.58 531.841,772.225 532.541,770.873 533.241,769.524 533.941,768.177 534.642,766.833 535.342,765.492 536.042,764.154 536.742,762.819 537.442,761.487 538.142,760.157 538.842,758.83 539.542,757.506 540.243,756.185 540.943,754.866 541.643,753.55 542.343,752.237 543.043,750.927 543.743,749.62 544.443,748.315 545.143,747.013 545.844,745.714 546.544,744.417 547.244,743.123 547.944,741.832 548.644,740.544 549.344,739.258 550.044,737.975 550.744,736.695 551.445,735.417 552.145,734.142 552.845,732.87 553.545,731.6 554.245,730.333 554.945,729.069 555.645,727.807 556.345,726.548 557.045,725.292 557.746,724.038 558.446,722.787 559.146,721.538 559.846,720.293 560.546,719.049 561.246,717.809 561.946,716.571 562.646,715.335 563.347,714.102 564.047,712.872 564.747,711.644 565.447,710.419 566.147,709.197 566.847,707.977 567.547,706.759 568.247,705.545 568.948,704.332 569.648,703.122 570.348,701.915 571.048,700.711 571.748,699.508 572.448,698.309 573.148,697.112 573.848,695.917 574.548,694.725 575.249,693.535 575.949,692.348 576.649,691.164 577.349,689.981 578.049,688.802 578.749,687.625 579.449,686.45 580.149,685.278 580.85,684.108 581.55,682.94 582.25,681.776 582.95,680.613 583.65,679.453 584.35,678.296 585.05,677.14 585.75,675.988 586.451,674.837 587.151,673.69 587.851,672.544 588.551,671.401 589.251,670.26 589.951,669.122 590.651,667.986 591.351,666.853 592.052,665.721 592.752,664.593 593.452,663.466 594.152,662.342 594.852,661.221 595.552,660.101 596.252,658.984 596.952,657.87 597.652,656.757 598.353,655.647 599.053,654.54 599.753,653.434 600.453,652.331 601.153,651.231 601.853,650.132 602.553,649.036 603.253,647.943 603.954,646.851 604.654,645.762 605.354,644.675 606.054,643.59 606.754,642.508 607.454,641.428 608.154,640.35 608.854,639.275 609.555,638.201 610.255,637.13 610.955,636.062 611.655,634.995 612.355,633.931 613.055,632.869 613.755,631.809 614.455,630.751 615.156,629.696 615.856,628.643 616.556,627.592 617.256,626.543 617.956,625.496 618.656,624.452 619.356,623.41 620.056,622.37 620.756,621.332 621.457,620.296 622.157,619.263 622.857,618.232 623.557,617.202 624.257,616.175 624.957,615.151 625.657,614.128 626.357,613.107 627.058,612.089 627.758,611.073 628.458,610.059 629.158,609.047 629.858,608.037 630.558,607.029 631.258,606.023 631.958,605.02 632.659,604.018 633.359,603.019 634.059,602.022 634.759,601.027 635.459,600.034 636.159,599.043 636.859,598.054 637.559,597.067 638.26,596.082 638.96,595.1 639.66,594.119 640.36,593.14 641.06,592.164 641.76,591.189 642.46,590.217 643.16,589.247 643.86,588.278 644.561,587.312 645.261,586.348 645.961,585.385 646.661,584.425 647.361,583.467 648.061,582.511 648.761,581.557 649.461,580.604 650.162,579.654 650.862,578.706 651.562,577.76 652.262,576.816 652.962,575.873 653.662,574.933 654.362,573.995 655.062,573.058 655.763,572.124 656.463,571.192 657.163,570.261 657.863,569.333 658.563,568.406 659.263,567.481 659.963,566.559 660.663,565.638 661.364,564.719 662.064,563.802 662.764,562.887 663.464,561.974 664.164,561.063 664.864,560.154 665.564,559.247 666.264,558.341 666.964,557.438 667.665,556.536 668.365,555.636 669.065,554.739 669.765,553.843 670.465,552.949 671.165,552.056 671.865,551.166 672.565,550.278 673.266,549.391 673.966,548.506 674.666,547.623 675.366,546.742 676.066,545.863 676.766,544.986 677.466,544.11 678.166,543.237 678.867,542.365 679.567,541.495 680.267,540.627 680.967,539.76 681.667,538.896 682.367,538.033 683.067,537.172 683.767,536.313 684.468,535.456 685.168,534.6 685.868,533.747 686.568,532.895 687.268,532.045 687.968,531.196 688.668,530.35 689.368,529.505 690.068,528.662 690.769,527.821 691.469,526.981 692.169,526.144 692.869,525.308 693.569,524.473 694.269,523.641 694.969,522.81 695.669,521.981 696.37,521.154 697.07,520.329 697.77,519.505 698.47,518.683 699.17,517.863 699.87,517.044 700.57,516.227 701.27,515.412 701.971,514.598 702.671,513.787 703.371,512.977 704.071,512.168 704.771,511.362 705.471,510.557 706.171,509.754 706.871,508.952 707.571,508.152 708.272,507.354 708.972,506.557 709.672,505.762 710.372,504.969 711.072,504.178 711.772,503.388 712.472,502.6 713.172,501.813 713.873,501.028 714.573,500.245 715.273,499.463 715.973,498.683 716.673,497.905 717.373,497.128 718.073,496.353 718.773,495.58 719.474,494.808 720.174,494.038 720.874,493.269 721.574,492.502 722.274,491.737 722.974,490.973 723.674,490.211 724.374,489.45 725.075,488.691 725.775,487.934 726.475,487.178 727.175,486.424 727.875,485.671 728.575,484.92 729.275,484.17 729.975,483.423 730.675,482.676 731.376,481.931 732.076,481.188 732.776,480.447 733.476,479.706 734.176,478.968 734.876,478.231 735.576,477.495 736.276,476.762 736.977,476.029 737.677,475.298 738.377,474.569 739.077,473.841 739.777,473.115 740.477,472.39 741.177,471.667 741.877,470.945 742.578,470.225 743.278,469.507 743.978,468.79 744.678,468.074 745.378,467.36 746.078,466.647 746.778,465.936 747.478,465.226 748.179,464.518 748.879,463.811 749.579,463.106 750.279,462.403 750.979,461.7 751.679,461 752.379,460.3 753.079,459.602 753.779,458.906 754.48,458.211 755.18,457.518 755.88,456.826 756.58,456.135 757.28,455.446 757.98,454.758 758.68,454.072 759.38,453.387 760.081,452.704 760.781,452.022 761.481,451.342 762.181,450.663 762.881,449.985 763.581,449.309 764.281,448.634 764.981,447.961 765.682,447.289 766.382,446.618 767.082,445.949 767.782,445.281 768.482,444.615 769.182,443.95 769.882,443.287 770.582,442.624 771.283,441.964 771.983,441.304 772.683,440.646 773.383,439.99 774.083,439.335 774.783,438.681 775.483,438.028 776.183,437.377 776.883,436.727 777.584,436.079 778.284,435.432 778.984,434.786 779.684,434.142 780.384,433.499 781.084,432.857 781.784,432.217 782.484,431.578 783.185,430.941 783.885,430.304 784.585,429.67 785.285,429.036 785.985,428.404 786.685,427.773 787.385,427.143 788.085,426.515 788.786,425.888 789.486,425.262 790.186,424.638 790.886,424.015 791.586,423.393 792.286,422.773 792.986,422.154 793.686,421.536 794.387,420.919 795.087,420.304 795.787,419.69 796.487,419.078 797.187,418.466 797.887,417.856 798.587,417.247 799.287,416.64 799.987,416.034 800.688,415.429 801.388,414.825 802.088,414.223 802.788,413.621 803.488,413.021 804.188,412.423 804.888,411.825 805.588,411.229 806.289,410.634 806.989,410.041 807.689,409.448 808.389,408.857 809.089,408.267 809.789,407.679 810.489,407.091 811.189,406.505 811.89,405.92 812.59,405.336 813.29,404.754 813.99,404.172 814.69,403.592 815.39,403.013 816.09,402.436 816.79,401.859 817.49,401.284 818.191,400.71 818.891,400.137 819.591,399.566 820.291,398.995 820.991,398.426 821.691,397.858 822.391,397.291 823.091,396.725 823.792,396.161 824.492,395.598 825.192,395.036 825.892,394.475 826.592,393.915 827.292,393.356 827.992,392.799 828.692,392.243 829.393,391.688 830.093,391.134 830.793,390.581 831.493,390.029 832.193,389.479 832.893,388.93 833.593,388.382 834.293,387.835 834.994,387.289 835.694,386.744 836.394,386.201 837.094,385.658 837.794,385.117 838.494,384.577 839.194,384.038 839.894,383.5 840.594,382.963 841.295,382.428 841.995,381.893 842.695,381.36 843.395,380.828 844.095,380.297 844.795,379.767 845.495,379.238 846.195,378.71 846.896,378.183 847.596,377.658 848.296,377.133 848.996,376.61 849.696,376.088 850.396,375.566 851.096,375.046 851.796,374.527 852.497,374.009 853.197,373.493 853.897,372.977 854.597,372.462 855.297,371.949 855.997,371.436 856.697,370.925 857.397,370.414 858.098,369.905 858.798,369.397 859.498,368.89 860.198,368.384 860.898,367.879 861.598,367.375 862.298,366.872 862.998,366.37 863.698,365.869 864.399,365.37 865.099,364.871 865.799,364.373 866.499,363.877 867.199,363.381 867.899,362.887 868.599,362.393 869.299,361.901 870,361.409 870.7,360.919 871.4,360.43 872.1,359.941 872.8,359.454 873.5,358.968 874.2,358.482 874.9,357.998 875.601,357.515 876.301,357.033 877.001,356.552 877.701,356.071 878.401,355.592 879.101,355.114 879.801,354.637 880.501,354.161 881.202,353.685 881.902,353.211 882.602,352.738 883.302,352.266 884.002,351.795 884.702,351.324 885.402,350.855 886.102,350.387 886.802,349.92 887.503,349.454 888.203,348.988 888.903,348.524 889.603,348.061 890.303,347.598 891.003,347.137 891.703,346.676 892.403,346.217 893.104,345.758 893.804,345.301 894.504,344.844 895.204,344.389 895.904,343.934 896.604,343.48 897.304,343.027 898.004,342.576 898.705,342.125 899.405,341.675 900.105,341.226 900.805,340.778 901.505,340.331 902.205,339.885 902.905,339.439 903.605,338.995 904.306,338.552 905.006,338.109 905.706,337.668 906.406,337.227 907.106,336.787 907.806,336.349 908.506,335.911 909.206,335.474 909.906,335.038 910.607,334.603 911.307,334.169 912.007,333.736 912.707,333.303 913.407,332.872 914.107,332.441 914.807,332.012 915.507,331.583 916.208,331.155 916.908,330.728 917.608,330.302 918.308,329.877 919.008,329.453 919.708,329.03 920.408,328.607 921.108,328.186 921.809,327.765 922.509,327.345 923.209,326.926 923.909,326.508 924.609,326.091 925.309,325.675 926.009,325.259 926.709,324.845 927.409,324.431 928.11,324.018 928.81,323.606 929.51,323.195 930.21,322.785 930.91,322.376 931.61,321.967 932.31,321.56 933.01,321.153 933.711,320.747 934.411,320.342 935.111,319.938 935.811,319.534 936.511,319.132 937.211,318.73 937.911,318.329 938.611,317.929 939.312,317.53 940.012,317.132 940.712,316.734 941.412,316.337 942.112,315.942 942.812,315.547 943.512,315.152 944.212,314.759 944.913,314.367 945.613,313.975 946.313,313.584 947.013,313.194 947.713,312.805 948.413,312.416 949.113,312.029 949.813,311.642 950.513,311.256 951.214,310.871 951.914,310.486 952.614,310.103 953.314,309.72 954.014,309.338 954.714,308.957 955.414,308.577 956.114,308.197 956.815,307.818 957.515,307.44 958.215,307.063 958.915,306.687 959.615,306.311 960.315,305.937 961.015,305.563 961.715,305.189 962.416,304.817 963.116,304.445 963.816,304.074 964.516,303.704 965.216,303.335 965.916,302.966 966.616,302.599 967.316,302.232 968.017,301.865 968.717,301.5 969.417,301.135 970.117,300.771 970.817,300.408 971.517,300.046 972.217,299.684 972.917,299.323 973.617,298.963 974.318,298.604 975.018,298.245 975.718,297.887 976.418,297.53 977.118,297.174 977.818,296.818 978.518,296.463 979.218,296.109 979.919,295.756 980.619,295.403 981.319,295.051 982.019,294.7 982.719,294.349 983.419,294 984.119,293.651 984.819,293.302 985.52,292.955 986.22,292.608 986.92,292.262 987.62,291.917 988.32,291.572 989.02,291.228 989.72,290.885 990.42,290.543 991.121,290.201 991.821,289.86 992.521,289.52 993.221,289.18 993.921,288.841 994.621,288.503 995.321,288.166 996.021,287.829 996.721,287.493 997.422,287.158 998.122,286.823 998.822,286.489 999.522,286.156 1000.22,285.823 1000.92,285.492 1001.62,285.161 1002.32,284.83 1003.02,284.5 1003.72,284.171 1004.42,283.843 1005.12,283.515 1005.82,283.188 1006.52,282.862 1007.22,282.536 1007.92,282.212 1008.62,281.887 1009.32,281.564 1010.02,281.241 1010.72,280.919 1011.42,280.597 1012.12,280.276 1012.82,279.956 1013.52,279.637 1014.22,279.318 1014.92,279 1015.62,278.682 1016.32,278.365 1017.02,278.049 1017.73,277.734 1018.43,277.419 1019.13,277.105 1019.83,276.791 1020.53,276.478 1021.23,276.166 1021.93,275.854 1022.63,275.543 1023.33,275.233 1024.03,274.924 1024.73,274.615 1025.43,274.306 1026.13,273.999 1026.83,273.692 1027.53,273.385 1028.23,273.08 1028.93,272.775 1029.63,272.47 1030.33,272.166 1031.03,271.863 1031.73,271.561 1032.43,271.259 1033.13,270.957 1033.83,270.657 1034.53,270.357 1035.23,270.057 1035.93,269.759 1036.63,269.461 1037.33,269.163 1038.03,268.866 1038.73,268.57 1039.43,268.274 1040.13,267.979 1040.83,267.685 1041.53,267.391 1042.23,267.098 1042.93,266.806 1043.63,266.514 1044.33,266.222 1045.03,265.932 1045.73,265.642 1046.43,265.352 1047.13,265.063 1047.83,264.775 1048.53,264.487 1049.23,264.2 1049.93,263.914 1050.63,263.628 1051.33,263.343 1052.03,263.058 1052.73,262.774 1053.43,262.49 1054.13,262.208 1054.83,261.925 1055.53,261.644 1056.23,261.363 1056.93,261.082 1057.63,260.802 1058.33,260.523 1059.03,260.244 1059.73,259.966 1060.43,259.688 1061.13,259.411 1061.83,259.135 1062.53,258.859 1063.23,258.584 1063.93,258.309 1064.63,258.035 1065.33,257.762 1066.03,257.489 1066.73,257.216 1067.43,256.944 1068.13,256.673 1068.83,256.403 1069.53,256.132 1070.23,255.863 1070.93,255.594 1071.63,255.326 1072.33,255.058 1073.03,254.79 1073.73,254.524 1074.43,254.258 1075.14,253.992 1075.84,253.727 1076.54,253.462 1077.24,253.199 1077.94,252.935 1078.64,252.672 1079.34,252.41 1080.04,252.148 1080.74,251.887 1081.44,251.627 1082.14,251.366 1082.84,251.107 1083.54,250.848 1084.24,250.59 1084.94,250.332 1085.64,250.074 1086.34,249.817 1087.04,249.561 1087.74,249.305 1088.44,249.05 1089.14,248.796 1089.84,248.541 1090.54,248.288 1091.24,248.035 1091.94,247.782 1092.64,247.53 1093.34,247.279 1094.04,247.028 1094.74,246.777 1095.44,246.527 1096.14,246.278 1096.84,246.029 1097.54,245.781 1098.24,245.533 1098.94,245.286 1099.64,245.039 1100.34,244.793 1101.04,244.547 1101.74,244.302 1102.44,244.057 1103.14,243.813 1103.84,243.569 1104.54,243.326 1105.24,243.083 1105.94,242.841 1106.64,242.599 1107.34,242.358 1108.04,242.118 1108.74,241.878 1109.44,241.638 1110.14,241.399 1110.84,241.16 1111.54,240.922 1112.24,240.684 1112.94,240.447 1113.64,240.211 1114.34,239.975 1115.04,239.739 1115.74,239.504 1116.44,239.269 1117.14,239.035 1117.84,238.801 1118.54,238.568 1119.24,238.335 1119.94,238.103 1120.64,237.872 1121.34,237.64 1122.04,237.41 1122.74,237.179 1123.44,236.95 1124.14,236.72 1124.84,236.491 1125.54,236.263 1126.24,236.035 1126.94,235.808 1127.64,235.581 1128.34,235.355 1129.04,235.129 1129.74,234.903 1130.44,234.678 1131.14,234.454 1131.84,234.23 1132.54,234.006 1133.25,233.783 1133.95,233.56 1134.65,233.338 1135.35,233.116 1136.05,232.895 1136.75,232.674 1137.45,232.454 1138.15,232.234 1138.85,232.015 1139.55,231.796 1140.25,231.577 1140.95,231.359 1141.65,231.142 1142.35,230.925 1143.05,230.708 1143.75,230.492 1144.45,230.276 1145.15,230.061 1145.85,229.846 1146.55,229.632 1147.25,229.418 1147.95,229.204 1148.65,228.991 1149.35,228.779 1150.05,228.566 1150.75,228.355 1151.45,228.143 1152.15,227.933 1152.85,227.722 1153.55,227.512 1154.25,227.303 1154.95,227.094 1155.65,226.885 1156.35,226.677 1157.05,226.469 1157.75,226.262 1158.45,226.055 1159.15,225.849 1159.85,225.643 1160.55,225.437 1161.25,225.232 1161.95,225.027 1162.65,224.823 1163.35,224.619 1164.05,224.416 1164.75,224.213 1165.45,224.01 1166.15,223.808 1166.85,223.606 1167.55,223.405 1168.25,223.204 1168.95,223.004 1169.65,222.804 1170.35,222.604 1171.05,222.405 1171.75,222.206 1172.45,222.008 1173.15,221.81 1173.85,221.612 1174.55,221.415 1175.25,221.218 1175.95,221.022 1176.65,220.826 1177.35,220.631 1178.05,220.436 1178.75,220.241 1179.45,220.047 1180.15,219.853 1180.85,219.66 1181.55,219.467 1182.25,219.274 1182.95,219.082 1183.65,218.89 1184.35,218.699 1185.05,218.508 1185.75,218.317 1186.45,218.127 1187.15,217.937 1187.85,217.748 1188.55,217.559 1189.25,217.37 1189.95,217.182 1190.66,216.994 1191.36,216.806 1192.06,216.619 1192.76,216.433 1193.46,216.247 1194.16,216.061 1194.86,215.875 1195.56,215.69 1196.26,215.505 1196.96,215.321 1197.66,215.137 1198.36,214.954 1199.06,214.771 1199.76,214.588 1200.46,214.405 1201.16,214.223 1201.86,214.042 1202.56,213.861 1203.26,213.68 1203.96,213.499 1204.66,213.319 1205.36,213.139 1206.06,212.96 1206.76,212.781 1207.46,212.603 1208.16,212.424 1208.86,212.247 1209.56,212.069 1210.26,211.892 1210.96,211.715 1211.66,211.539 1212.36,211.363 1213.06,211.187 1213.76,211.012 1214.46,210.837 1215.16,210.663 1215.86,210.489 1216.56,210.315 1217.26,210.141 1217.96,209.968 1218.66,209.796 1219.36,209.623 1220.06,209.451 1220.76,209.28 1221.46,209.108 1222.16,208.938 1222.86,208.767 1223.56,208.597 1224.26,208.427 1224.96,208.258 1225.66,208.089 1226.36,207.92 1227.06,207.751 1227.76,207.583 1228.46,207.416 1229.16,207.248 1229.86,207.081 1230.56,206.915 1231.26,206.748 1231.96,206.583 1232.66,206.417 1233.36,206.252 1234.06,206.087 1234.76,205.922 1235.46,205.758 1236.16,205.594 1236.86,205.431 1237.56,205.268 1238.26,205.105 1238.96,204.942 1239.66,204.78 1240.36,204.618 1241.06,204.457 1241.76,204.296 1242.46,204.135 1243.16,203.974 1243.86,203.814 1244.56,203.655 1245.26,203.495 1245.96,203.336 1246.66,203.177 1247.36,203.019 1248.06,202.861 1248.77,202.703 1249.47,202.545 1250.17,202.388 1250.87,202.232 1251.57,202.075 1252.27,201.919 1252.97,201.763 1253.67,201.608 1254.37,201.453 1255.07,201.298 1255.77,201.143 1256.47,200.989 1257.17,200.835 1257.87,200.682 1258.57,200.528 1259.27,200.376 1259.97,200.223 1260.67,200.071 1261.37,199.919 1262.07,199.767 1262.77,199.616 1263.47,199.465 1264.17,199.314 1264.87,199.164 1265.57,199.014 1266.27,198.864 1266.97,198.715 1267.67,198.566 1268.37,198.417 1269.07,198.269 1269.77,198.12 1270.47,197.973 1271.17,197.825 1271.87,197.678 1272.57,197.531 1273.27,197.384 1273.97,197.238 1274.67,197.092 1275.37,196.946 1276.07,196.801 1276.77,196.656 1277.47,196.511 1278.17,196.367 1278.87,196.223 1279.57,196.079 1280.27,195.935 1280.97,195.792 1281.67,195.649 1282.37,195.506 1283.07,195.364 1283.77,195.222 1284.47,195.08 1285.17,194.939 1285.87,194.798 1286.57,194.657 1287.27,194.516 1287.97,194.376 1288.67,194.236 1289.37,194.096 1290.07,193.957 1290.77,193.818 1291.47,193.679 1292.17,193.54 1292.87,193.402 1293.57,193.264 1294.27,193.127 1294.97,192.989 1295.67,192.852 1296.37,192.715 1297.07,192.579 1297.77,192.443 1298.47,192.307 1299.17,192.171 1299.87,192.036 1300.57,191.901 1301.27,191.766 1301.97,191.631 1302.67,191.497 1303.37,191.363 1304.07,191.23 1304.77,191.096 1305.47,190.963 1306.17,190.83 1306.88,190.698 1307.58,190.566 1308.28,190.434 1308.98,190.302 1309.68,190.17 1310.38,190.039 1311.08,189.908 1311.78,189.778 1312.48,189.647 1313.18,189.517 1313.88,189.388 1314.58,189.258 1315.28,189.129 1315.98,189 1316.68,188.871 1317.38,188.743 1318.08,188.615 1318.78,188.487 1319.48,188.359 1320.18,188.232 1320.88,188.105 1321.58,187.978 1322.28,187.851 1322.98,187.725 1323.68,187.599 1324.38,187.473 1325.08,187.348 1325.78,187.222 1326.48,187.098 1327.18,186.973 1327.88,186.848 1328.58,186.724 1329.28,186.6 1329.98,186.477 1330.68,186.353 1331.38,186.23 1332.08,186.107 1332.78,185.985 1333.48,185.862 1334.18,185.74 1334.88,185.618 1335.58,185.497 1336.28,185.375 1336.98,185.254 1337.68,185.133 1338.38,185.013 1339.08,184.892 1339.78,184.772 1340.48,184.652 1341.18,184.533 1341.88,184.414 1342.58,184.294 1343.28,184.176 1343.98,184.057 1344.68,183.939 1345.38,183.821 1346.08,183.703 1346.78,183.585 1347.48,183.468 1348.18,183.351 1348.88,183.234 1349.58,183.117 1350.28,183.001 1350.98,182.885 1351.68,182.769 1352.38,182.653 1353.08,182.538 1353.78,182.423 1354.48,182.308 1355.18,182.193 1355.88,182.079 1356.58,181.965 1357.28,181.851 1357.98,181.737 1358.68,181.624 1359.38,181.51 1360.08,181.397 1360.78,181.285 1361.48,181.172 1362.18,181.06 1362.88,180.948 1363.58,180.836 1364.29,180.724 1364.99,180.613 1365.69,180.502 1366.39,180.391 1367.09,180.28 1367.79,180.17 1368.49,180.06 1369.19,179.95 1369.89,179.84 1370.59,179.731 1371.29,179.621 1371.99,179.512 1372.69,179.404 1373.39,179.295 1374.09,179.187 1374.79,179.079 1375.49,178.971 1376.19,178.863 1376.89,178.756 1377.59,178.648 1378.29,178.541 1378.99,178.435 1379.69,178.328 1380.39,178.222 1381.09,178.116 1381.79,178.01 1382.49,177.904 1383.19,177.799 1383.89,177.694 1384.59,177.589 1385.29,177.484 1385.99,177.379 1386.69,177.275 1387.39,177.171 1388.09,177.067 1388.79,176.963 1389.49,176.86 1390.19,176.757 1390.89,176.654 1391.59,176.551 1392.29,176.448 1392.99,176.346 1393.69,176.244 1394.39,176.142 1395.09,176.04 1395.79,175.939 1396.49,175.837 1397.19,175.736 1397.89,175.635 1398.59,175.535 1399.29,175.434 1399.99,175.334 1400.69,175.234 1401.39,175.134 1402.09,175.034 1402.79,174.935 1403.49,174.836 1404.19,174.737 1404.89,174.638 1405.59,174.54 1406.29,174.441 1406.99,174.343 1407.69,174.245 1408.39,174.147 1409.09,174.05 1409.79,173.952 1410.49,173.855 1411.19,173.758 1411.89,173.662 1412.59,173.565 1413.29,173.469 1413.99,173.373 1414.69,173.277 1415.39,173.181 1416.09,173.086 1416.79,172.99 1417.49,172.895 1418.19,172.8 1418.89,172.705 1419.59,172.611 1420.29,172.517 1420.99,172.423 1421.69,172.329 1422.4,172.235 1423.1,172.141 1423.8,172.048 1424.5,171.955 1425.2,171.862 1425.9,171.769 1426.6,171.677 1427.3,171.584 1428,171.492 1428.7,171.4 1429.4,171.308 1430.1,171.217 1430.8,171.125 1431.5,171.034 1432.2,170.943 1432.9,170.852 1433.6,170.762 1434.3,170.671 1435,170.581 1435.7,170.491 1436.4,170.401 1437.1,170.311 1437.8,170.222 1438.5,170.133 1439.2,170.044 1439.9,169.955 1440.6,169.866 1441.3,169.777 1442,169.689 1442.7,169.601 1443.4,169.513 1444.1,169.425 1444.8,169.337 1445.5,169.25 1446.2,169.163 1446.9,169.075 1447.6,168.989 1448.3,168.902 1449,168.815 1449.7,168.729 1450.4,168.643 1451.1,168.557 1451.8,168.471 1452.5,168.385 1453.2,168.3 1453.9,168.215 1454.6,168.129 1455.3,168.045 1456,167.96 1456.7,167.875 1457.4,167.791 1458.1,167.707 1458.8,167.623 1459.5,167.539 1460.2,167.455 1460.9,167.372 1461.6,167.288 1462.3,167.205 1463,167.122 1463.7,167.039 1464.4,166.957 1465.1,166.874 1465.8,166.792 1466.5,166.71 1467.2,166.628 1467.9,166.546 1468.6,166.465 1469.3,166.383 1470,166.302 1470.7,166.221 1471.4,166.14 1472.1,166.059 1472.8,165.979 1473.5,165.898 1474.2,165.818 1474.9,165.738 1475.6,165.658 1476.3,165.578 1477,165.499 1477.7,165.419 1478.4,165.34 1479.1,165.261 1479.8,165.182 1480.51,165.103 1481.21,165.025 1481.91,164.946 1482.61,164.868 1483.31,164.79 1484.01,164.712 1484.71,164.634 1485.41,164.557 1486.11,164.479 1486.81,164.402 1487.51,164.325 1488.21,164.248 1488.91,164.171 1489.61,164.095 1490.31,164.018 1491.01,163.942 1491.71,163.866 1492.41,163.79 1493.11,163.714 1493.81,163.638 1494.51,163.563 1495.21,163.488 1495.91,163.412 1496.61,163.337 1497.31,163.262 1498.01,163.188 1498.71,163.113 1499.41,163.039 1500.11,162.965 1500.81,162.89 1501.51,162.817 1502.21,162.743 1502.91,162.669 1503.61,162.596 1504.31,162.522 1505.01,162.449 1505.71,162.376 1506.41,162.303 1507.11,162.231 1507.81,162.158 1508.51,162.086 1509.21,162.014 1509.91,161.941 1510.61,161.87 1511.31,161.798 1512.01,161.726 1512.71,161.655 1513.41,161.583 1514.11,161.512 1514.81,161.441 1515.51,161.37 1516.21,161.299 1516.91,161.229 1517.61,161.158 1518.31,161.088 1519.01,161.018 1519.71,160.948 1520.41,160.878 1521.11,160.808 1521.81,160.739 1522.51,160.669 1523.21,160.6 1523.91,160.531 1524.61,160.462 1525.31,160.393 1526.01,160.325 1526.71,160.256 1527.41,160.188 1528.11,160.119 1528.81,160.051 1529.51,159.983 1530.21,159.915 1530.91,159.848 1531.61,159.78 1532.31,159.713 1533.01,159.646 1533.71,159.578 1534.41,159.511 1535.11,159.445 1535.81,159.378 1536.51,159.311 1537.21,159.245 1537.92,159.179 1538.62,159.113 1539.32,159.047 1540.02,158.981 1540.72,158.915 1541.42,158.849 1542.12,158.784 1542.82,158.719 1543.52,158.653 1544.22,158.588 1544.92,158.523 1545.62,158.459 1546.32,158.394 1547.02,158.33 1547.72,158.265 1548.42,158.201 1549.12,158.137 1549.82,158.073 1550.52,158.009 1551.22,157.945 1551.92,157.882 1552.62,157.818 1553.32,157.755 1554.02,157.692 1554.72,157.629 1555.42,157.566 1556.12,157.503 1556.82,157.441 1557.52,157.378 1558.22,157.316 1558.92,157.254 1559.62,157.192 1560.32,157.13 1561.02,157.068 1561.72,157.006 1562.42,156.944 1563.12,156.883 1563.82,156.822 1564.52,156.76 1565.22,156.699 1565.92,156.638 1566.62,156.578 1567.32,156.517 1568.02,156.456 1568.72,156.396 1569.42,156.336 1570.12,156.275 1570.82,156.215 1571.52,156.156 1572.22,156.096 1572.92,156.036 1573.62,155.976 1574.32,155.917 1575.02,155.858 1575.72,155.799 1576.42,155.74 1577.12,155.681 1577.82,155.622 1578.52,155.563 1579.22,155.505 1579.92,155.446 1580.62,155.388 1581.32,155.33 1582.02,155.272 1582.72,155.214 1583.42,155.156 1584.12,155.098 1584.82,155.041 1585.52,154.983 1586.22,154.926 1586.92,154.869 1587.62,154.811 1588.32,154.754 1589.02,154.698 1589.72,154.641 1590.42,154.584 1591.12,154.528 1591.82,154.471 1592.52,154.415 1593.22,154.359 1593.92,154.303 1594.62,154.247 1595.32,154.191 1596.03,154.136 1596.73,154.08 1597.43,154.025 1598.13,153.969 1598.83,153.914 1599.53,153.859 1600.23,153.804 1600.93,153.749 1601.63,153.694 1602.33,153.64 1603.03,153.585 1603.73,153.531 1604.43,153.476 1605.13,153.422 1605.83,153.368 1606.53,153.314 1607.23,153.26 1607.93,153.207 1608.63,153.153 1609.33,153.1 1610.03,153.046 1610.73,152.993 1611.43,152.94 1612.13,152.887 1612.83,152.834 1613.53,152.781 1614.23,152.728 1614.93,152.676 1615.63,152.623 1616.33,152.571 1617.03,152.518 1617.73,152.466 1618.43,152.414 1619.13,152.362 1619.83,152.31 1620.53,152.259 1621.23,152.207 1621.93,152.156 1622.63,152.104 1623.33,152.053 1624.03,152.002 1624.73,151.951 1625.43,151.9 1626.13,151.849 1626.83,151.798 1627.53,151.747 1628.23,151.697 1628.93,151.646 1629.63,151.596 1630.33,151.546 1631.03,151.496 1631.73,151.446 1632.43,151.396 1633.13,151.346 1633.83,151.296 1634.53,151.247 1635.23,151.197 1635.93,151.148 1636.63,151.098 1637.33,151.049 1638.03,151 1638.73,150.951 1639.43,150.902 1640.13,150.853 1640.83,150.805 1641.53,150.756 1642.23,150.708 1642.93,150.659 1643.63,150.611 1644.33,150.563 1645.03,150.515 1645.73,150.467 1646.43,150.419 1647.13,150.371 1647.83,150.324 1648.53,150.276 1649.23,150.229 1649.93,150.181 1650.63,150.134 1651.33,150.087 1652.03,150.04 1652.73,149.993 1653.44,149.946 1654.14,149.899 1654.84,149.852 1655.54,149.806 1656.24,149.759 1656.94,149.713 1657.64,149.667 1658.34,149.62 1659.04,149.574 1659.74,149.528 1660.44,149.482 1661.14,149.437 1661.84,149.391 1662.54,149.345 1663.24,149.3 1663.94,149.254 1664.64,149.209 1665.34,149.164 1666.04,149.119 1666.74,149.074 1667.44,149.029 1668.14,148.984 1668.84,148.939 1669.54,148.895 1670.24,148.85 1670.94,148.805 1671.64,148.761 1672.34,148.717 1673.04,148.673 1673.74,148.629 1674.44,148.585 1675.14,148.541 1675.84,148.497 1676.54,148.453 1677.24,148.409 1677.94,148.366 1678.64,148.322 1679.34,148.279 1680.04,148.236 1680.74,148.193 1681.44,148.149 1682.14,148.106 1682.84,148.064 1683.54,148.021 1684.24,147.978 1684.94,147.935 1685.64,147.893 1686.34,147.85 1687.04,147.808 1687.74,147.766 1688.44,147.723 1689.14,147.681 1689.84,147.639 1690.54,147.597 1691.24,147.556 1691.94,147.514 1692.64,147.472 1693.34,147.431 1694.04,147.389 1694.74,147.348 1695.44,147.306 1696.14,147.265 1696.84,147.224 1697.54,147.183 1698.24,147.142 1698.94,147.101 1699.64,147.06 1700.34,147.02 1701.04,146.979 1701.74,146.938 1702.44,146.898 1703.14,146.857 1703.84,146.817 1704.54,146.777 1705.24,146.737 1705.94,146.697 1706.64,146.657 1707.34,146.617 1708.04,146.577 1708.74,146.537 1709.44,146.498 1710.14,146.458 1710.84,146.419 1711.55,146.38 1712.25,146.34 1712.95,146.301 1713.65,146.262 1714.35,146.223 1715.05,146.184 1715.75,146.145 1716.45,146.106 1717.15,146.067 1717.85,146.029 1718.55,145.99 1719.25,145.952 1719.95,145.913 1720.65,145.875 1721.35,145.837 1722.05,145.799 1722.75,145.761 1723.45,145.723 1724.15,145.685 1724.85,145.647 1725.55,145.609 1726.25,145.571 1726.95,145.534 1727.65,145.496 1728.35,145.459 1729.05,145.422 1729.75,145.384 1730.45,145.347 1731.15,145.31 1731.85,145.273 1732.55,145.236 1733.25,145.199 1733.95,145.162 1734.65,145.126 1735.35,145.089 1736.05,145.052 1736.75,145.016 1737.45,144.979 1738.15,144.943 1738.85,144.907 1739.55,144.871 1740.25,144.834 1740.95,144.798 1741.65,144.762 1742.35,144.726 1743.05,144.691 1743.75,144.655 1744.45,144.619 1745.15,144.584 1745.85,144.548 1746.55,144.513 1747.25,144.477 1747.95,144.442 1748.65,144.407 1749.35,144.372 1750.05,144.337 1750.75,144.302 1751.45,144.267 1752.15,144.232 1752.85,144.197 1753.55,144.162 1754.25,144.128 1754.95,144.093 1755.65,144.059 1756.35,144.024 1757.05,143.99 1757.75,143.955 1758.45,143.921 1759.15,143.887 1759.85,143.853 1760.55,143.819 1761.25,143.785 1761.95,143.751 1762.65,143.718 1763.35,143.684 1764.05,143.65 1764.75,143.617 1765.45,143.583 1766.15,143.55 1766.85,143.516 1767.55,143.483 1768.25,143.45 1768.95,143.417 1769.66,143.384 1770.36,143.351 1771.06,143.318 1771.76,143.285 1772.46,143.252 1773.16,143.219 1773.86,143.187 1774.56,143.154 1775.26,143.122 1775.96,143.089 1776.66,143.057 1777.36,143.024 1778.06,142.992 1778.76,142.96 1779.46,142.928 1780.16,142.896 1780.86,142.864 1781.56,142.832 1782.26,142.8 1782.96,142.768 1783.66,142.737 1784.36,142.705 1785.06,142.673 1785.76,142.642 1786.46,142.61 1787.16,142.579 1787.86,142.548 1788.56,142.516 1789.26,142.485 1789.96,142.454 1790.66,142.423 1791.36,142.392 1792.06,142.361 1792.76,142.33 1793.46,142.299 1794.16,142.269 1794.86,142.238 1795.56,142.207 1796.26,142.177 1796.96,142.146 1797.66,142.116 1798.36,142.086 1799.06,142.055 1799.76,142.025 1800.46,141.995 1801.16,141.965 1801.86,141.935 1802.56,141.905 1803.26,141.875 1803.96,141.845 1804.66,141.815 1805.36,141.786 1806.06,141.756 1806.76,141.726 1807.46,141.697 1808.16,141.667 1808.86,141.638 1809.56,141.609 1810.26,141.579 1810.96,141.55 1811.66,141.521 1812.36,141.492 1813.06,141.463 1813.76,141.434 1814.46,141.405 1815.16,141.376 1815.86,141.347 1816.56,141.319 1817.26,141.29 1817.96,141.261 1818.66,141.233 1819.36,141.204 1820.06,141.176 1820.76,141.147 1821.46,141.119 1822.16,141.091 1822.86,141.063 1823.56,141.035 1824.26,141.007 1824.96,140.978 1825.66,140.951 1826.36,140.923 1827.07,140.895 1827.77,140.867 1828.47,140.839 1829.17,140.812 1829.87,140.784 1830.57,140.756 1831.27,140.729 1831.97,140.702 1832.67,140.674 1833.37,140.647 1834.07,140.62 1834.77,140.592 1835.47,140.565 1836.17,140.538 1836.87,140.511 1837.57,140.484 1838.27,140.457 1838.97,140.43 1839.67,140.403 1840.37,140.377 1841.07,140.35 1841.77,140.323 1842.47,140.297 1843.17,140.27 1843.87,140.244 1844.57,140.217 1845.27,140.191 1845.97,140.165 1846.67,140.138 1847.37,140.112 1848.07,140.086 1848.77,140.06 1849.47,140.034 1850.17,140.008 1850.87,139.982 1851.57,139.956 1852.27,139.93 1852.97,139.905 1853.67,139.879 1854.37,139.853 1855.07,139.828 1855.77,139.802 1856.47,139.777 1857.17,139.751 1857.87,139.726 1858.57,139.7 1859.27,139.675 1859.97,139.65 1860.67,139.625 1861.37,139.6 1862.07,139.575 1862.77,139.55 1863.47,139.525 1864.17,139.5 1864.87,139.475 1865.57,139.45 1866.27,139.425 1866.97,139.401 1867.67,139.376 1868.37,139.351 1869.07,139.327 1869.77,139.302 1870.47,139.278 1871.17,139.253 1871.87,139.229 1872.57,139.205 1873.27,139.181 1873.97,139.156 1874.67,139.132 1875.37,139.108 1876.07,139.084 1876.77,139.06 1877.47,139.036 1878.17,139.012 1878.87,138.989 1879.57,138.965 1880.27,138.941 1880.97,138.917 1881.67,138.894 1882.37,138.87 1883.07,138.847 1883.77,138.823 1884.47,138.8 1885.18,138.776 1885.88,138.753 1886.58,138.73 1887.28,138.706 1887.98,138.683 1888.68,138.66 1889.38,138.637 1890.08,138.614 1890.78,138.591 1891.48,138.568 1892.18,138.545 1892.88,138.522 1893.58,138.499 1894.28,138.477 1894.98,138.454 1895.68,138.431 1896.38,138.409 1897.08,138.386 1897.78,138.364 1898.48,138.341 1899.18,138.319 1899.88,138.296 1900.58,138.274 1901.28,138.252 1901.98,138.229 1902.68,138.207 1903.38,138.185 1904.08,138.163 1904.78,138.141 1905.48,138.119 1906.18,138.097 1906.88,138.075 1907.58,138.053 1908.28,138.031 1908.98,138.01 1909.68,137.988 1910.38,137.966 1911.08,137.944 1911.78,137.923 1912.48,137.901 1913.18,137.88 1913.88,137.858 1914.58,137.837 1915.28,137.816 1915.98,137.794 1916.68,137.773 1917.38,137.752 1918.08,137.731 1918.78,137.709 1919.48,137.688 1920.18,137.667 1920.88,137.646 1921.58,137.625 1922.28,137.604 1922.98,137.583 1923.68,137.563 1924.38,137.542 1925.08,137.521 1925.78,137.5 1926.48,137.48 1927.18,137.459 1927.88,137.439 1928.58,137.418 1929.28,137.397 1929.98,137.377 1930.68,137.357 1931.38,137.336 1932.08,137.316 1932.78,137.296 1933.48,137.275 1934.18,137.255 1934.88,137.235 1935.58,137.215 1936.28,137.195 1936.98,137.175 1937.68,137.155 1938.38,137.135 1939.08,137.115 1939.78,137.095 1940.48,137.075 1941.18,137.056 1941.88,137.036 1942.58,137.016 1943.29,136.997 1943.99,136.977 1944.69,136.957 1945.39,136.938 1946.09,136.918 1946.79,136.899 1947.49,136.88 1948.19,136.86 1948.89,136.841 1949.59,136.822 1950.29,136.802 1950.99,136.783 1951.69,136.764 1952.39,136.745 1953.09,136.726 1953.79,136.707 1954.49,136.688 1955.19,136.669 1955.89,136.65 1956.59,136.631 1957.29,136.612 1957.99,136.593 1958.69,136.575 1959.39,136.556 1960.09,136.537 1960.79,136.519 1961.49,136.5 1962.19,136.481 1962.89,136.463 1963.59,136.444 1964.29,136.426 1964.99,136.408 1965.69,136.389 1966.39,136.371 1967.09,136.353 1967.79,136.334 1968.49,136.316 1969.19,136.298 1969.89,136.28 1970.59,136.262 1971.29,136.244 1971.99,136.226 1972.69,136.208 1973.39,136.19 1974.09,136.172 1974.79,136.154 1975.49,136.136 1976.19,136.118 1976.89,136.1 1977.59,136.083 1978.29,136.065 1978.99,136.047 1979.69,136.03 1980.39,136.012 1981.09,135.995 1981.79,135.977 1982.49,135.96 1983.19,135.942 1983.89,135.925 1984.59,135.907 1985.29,135.89 1985.99,135.873 1986.69,135.856 1987.39,135.838 1988.09,135.821 1988.79,135.804 1989.49,135.787 1990.19,135.77 1990.89,135.753 1991.59,135.736 1992.29,135.719 1992.99,135.702 1993.69,135.685 1994.39,135.668 1995.09,135.651 1995.79,135.635 1996.49,135.618 1997.19,135.601 1997.89,135.584 1998.59,135.568 1999.29,135.551 1999.99,135.535 2000.7,135.518 2001.4,135.502 2002.1,135.485 2002.8,135.469 2003.5,135.452 2004.2,135.436 2004.9,135.42 2005.6,135.403 2006.3,135.387 2007,135.371 2007.7,135.355 2008.4,135.338 2009.1,135.322 2009.8,135.306 2010.5,135.29 2011.2,135.274 2011.9,135.258 2012.6,135.242 2013.3,135.226 2014,135.21 2014.7,135.194 2015.4,135.179 2016.1,135.163 2016.8,135.147 2017.5,135.131 2018.2,135.116 2018.9,135.1 2019.6,135.084 2020.3,135.069 2021,135.053 2021.7,135.038 2022.4,135.022 2023.1,135.007 2023.8,134.991 2024.5,134.976 2025.2,134.961 2025.9,134.945 2026.6,134.93 2027.3,134.915 2028,134.899 2028.7,134.884 2029.4,134.869 2030.1,134.854 2030.8,134.839 2031.5,134.824 2032.2,134.809 2032.9,134.794 2033.6,134.779 2034.3,134.764 2035,134.749 2035.7,134.734 2036.4,134.719 2037.1,134.704 2037.8,134.689 2038.5,134.675 2039.2,134.66 2039.9,134.645 2040.6,134.63 2041.3,134.616 2042,134.601 2042.7,134.587 2043.4,134.572 2044.1,134.558 2044.8,134.543 2045.5,134.529 2046.2,134.514 2046.9,134.5 2047.6,134.485 2048.3,134.471 2049,134.457 2049.7,134.442 2050.4,134.428 2051.1,134.414 2051.8,134.4 2052.5,134.386 2053.2,134.372 2053.9,134.357 2054.6,134.343 2055.3,134.329 2056,134.315 2056.7,134.301 2057.4,134.287 2058.1,134.273 2058.81,134.26 2059.51,134.246 2060.21,134.232 2060.91,134.218 2061.61,134.204 2062.31,134.191 2063.01,134.177 2063.71,134.163 2064.41,134.149 2065.11,134.136 2065.81,134.122 2066.51,134.109 2067.21,134.095 2067.91,134.082 2068.61,134.068 2069.31,134.055 2070.01,134.041 2070.71,134.028 2071.41,134.014 2072.11,134.001 2072.81,133.988 2073.51,133.974 2074.21,133.961 2074.91,133.948 2075.61,133.935 2076.31,133.922 2077.01,133.908 2077.71,133.895 2078.41,133.882 2079.11,133.869 2079.81,133.856 2080.51,133.843 2081.21,133.83 2081.91,133.817 2082.61,133.804 2083.31,133.791 2084.01,133.778 2084.71,133.765 2085.41,133.753 2086.11,133.74 2086.81,133.727 2087.51,133.714 2088.21,133.702 2088.91,133.689 2089.61,133.676 2090.31,133.664 2091.01,133.651 2091.71,133.638 2092.41,133.626 2093.11,133.613 2093.81,133.601 2094.51,133.588 2095.21,133.576 2095.91,133.563 2096.61,133.551 2097.31,133.539 2098.01,133.526 2098.71,133.514 2099.41,133.502 2100.11,133.489 2100.81,133.477 2101.51,133.465 2102.21,133.453 2102.91,133.441 2103.61,133.428 2104.31,133.416 2105.01,133.404 2105.71,133.392 2106.41,133.38 2107.11,133.368 2107.81,133.356 2108.51,133.344 2109.21,133.332 2109.91,133.32 2110.61,133.308 2111.31,133.296 2112.01,133.285 2112.71,133.273 2113.41,133.261 2114.11,133.249 2114.81,133.237 2115.51,133.226 2116.22,133.214 2116.92,133.202 2117.62,133.191 2118.32,133.179 2119.02,133.167 2119.72,133.156 2120.42,133.144 2121.12,133.133 2121.82,133.121 2122.52,133.11 2123.22,133.098 2123.92,133.087 2124.62,133.076 2125.32,133.064 2126.02,133.053 2126.72,133.041 2127.42,133.03 2128.12,133.019 2128.82,133.008 2129.52,132.996 2130.22,132.985 2130.92,132.974 2131.62,132.963 2132.32,132.952 2133.02,132.941 2133.72,132.929 2134.42,132.918 2135.12,132.907 2135.82,132.896 2136.52,132.885 2137.22,132.874 2137.92,132.863 2138.62,132.852 2139.32,132.842 2140.02,132.831 2140.72,132.82 2141.42,132.809 2142.12,132.798 2142.82,132.787 2143.52,132.777 2144.22,132.766 2144.92,132.755 2145.62,132.744 2146.32,132.734 2147.02,132.723 2147.72,132.712 2148.42,132.702 2149.12,132.691 2149.82,132.681 2150.52,132.67 2151.22,132.659 2151.92,132.649 2152.62,132.638 2153.32,132.628 2154.02,132.618 2154.72,132.607 2155.42,132.597 2156.12,132.586 2156.82,132.576 2157.52,132.566 2158.22,132.555 2158.92,132.545 2159.62,132.535 2160.32,132.525 2161.02,132.514 2161.72,132.504 2162.42,132.494 2163.12,132.484 2163.82,132.474 2164.52,132.464 2165.22,132.453 2165.92,132.443 2166.62,132.433 2167.32,132.423 2168.02,132.413 2168.72,132.403 2169.42,132.393 2170.12,132.383 2170.82,132.373 2171.52,132.363 2172.22,132.354 2172.92,132.344 2173.62,132.334 2174.33,132.324 2175.03,132.314 2175.73,132.304 2176.43,132.295 2177.13,132.285 2177.83,132.275 2178.53,132.266 2179.23,132.256 2179.93,132.246 2180.63,132.237 2181.33,132.227 2182.03,132.217 2182.73,132.208 2183.43,132.198 2184.13,132.189 2184.83,132.179 2185.53,132.17 2186.23,132.16 2186.93,132.151 2187.63,132.141 2188.33,132.132 2189.03,132.122 2189.73,132.113 2190.43,132.104 2191.13,132.094 2191.83,132.085 2192.53,132.076 2193.23,132.066 2193.93,132.057 2194.63,132.048 2195.33,132.039 2196.03,132.029 2196.73,132.02 2197.43,132.011 2198.13,132.002 2198.83,131.993 2199.53,131.984 2200.23,131.975 2200.93,131.966 2201.63,131.957 2202.33,131.947 2203.03,131.938 2203.73,131.929 2204.43,131.921 2205.13,131.912 2205.83,131.903 2206.53,131.894 2207.23,131.885 2207.93,131.876 2208.63,131.867 2209.33,131.858 2210.03,131.849 2210.73,131.841 2211.43,131.832 2212.13,131.823 2212.83,131.814 2213.53,131.805 2214.23,131.797 2214.93,131.788 2215.63,131.779 2216.33,131.771 2217.03,131.762 2217.73,131.753 2218.43,131.745 2219.13,131.736 2219.83,131.728 2220.53,131.719 2221.23,131.711 2221.93,131.702 2222.63,131.694 2223.33,131.685 2224.03,131.677 2224.73,131.668 2225.43,131.66 2226.13,131.651 2226.83,131.643 2227.53,131.635 2228.23,131.626 2228.93,131.618 2229.63,131.61 2230.33,131.601 2231.03,131.593 2231.73,131.585 2232.44,131.576 2233.14,131.568 2233.84,131.56 2234.54,131.552 2235.24,131.544 2235.94,131.535 2236.64,131.527 2237.34,131.519 2238.04,131.511 2238.74,131.503 2239.44,131.495 2240.14,131.487 2240.84,131.479 2241.54,131.471 2242.24,131.463 2242.94,131.455 2243.64,131.447 2244.34,131.439 2245.04,131.431 2245.74,131.423 2246.44,131.415 2247.14,131.407 2247.84,131.399 2248.54,131.391 2249.24,131.383 2249.94,131.376 2250.64,131.368 2251.34,131.36 2252.04,131.352 2252.74,131.344 2253.44,131.337 2254.14,131.329 2254.84,131.321 2255.54,131.314 2256.24,131.306 2256.94,131.298 2257.64,131.291 2258.34,131.283 2259.04,131.275 2259.74,131.268 2260.44,131.26 2261.14,131.253 2261.84,131.245 2262.54,131.237 2263.24,131.23 2263.94,131.222 2264.64,131.215 2265.34,131.207 2266.04,131.2 2266.74,131.193 2267.44,131.185 2268.14,131.178 2268.84,131.17 2269.54,131.163 2270.24,131.156 2270.94,131.148 2271.64,131.141 2272.34,131.134 2273.04,131.126 2273.74,131.119 2274.44,131.112 2275.14,131.104 2275.84,131.097 2276.54,131.09 2277.24,131.083 2277.94,131.075 2278.64,131.068 2279.34,131.061 2280.04,131.054 2280.74,131.047 2281.44,131.04 2282.14,131.033 2282.84,131.025 2283.54,131.018 2284.24,131.011 2284.94,131.004 2285.64,130.997 2286.34,130.99 2287.04,130.983 2287.74,130.976 2288.44,130.969 2289.14,130.962 2289.85,130.955 2290.55,130.948 2291.25,130.942 2291.95,130.935 2292.65,130.928 "/>
<circle clip-path="url(#clip922)" cx="292.4" cy="1343.55" r="14.4" fill="#3da44d" fill-rule="evenodd" fill-opacity="1" stroke="#000000" stroke-opacity="1" stroke-width="3.2"/>
<circle clip-path="url(#clip922)" cx="325.739" cy="1233.53" r="14.4" fill="#3da44d" fill-rule="evenodd" fill-opacity="1" stroke="#000000" stroke-opacity="1" stroke-width="3.2"/>
<circle clip-path="url(#clip922)" cx="359.078" cy="1148.6" r="14.4" fill="#3da44d" fill-rule="evenodd" fill-opacity="1" stroke="#000000" stroke-opacity="1" stroke-width="3.2"/>
<circle clip-path="url(#clip922)" cx="392.417" cy="1045.67" r="14.4" fill="#3da44d" fill-rule="evenodd" fill-opacity="1" stroke="#000000" stroke-opacity="1" stroke-width="3.2"/>
<circle clip-path="url(#clip922)" cx="425.756" cy="953.048" r="14.4" fill="#3da44d" fill-rule="evenodd" fill-opacity="1" stroke="#000000" stroke-opacity="1" stroke-width="3.2"/>
<circle clip-path="url(#clip922)" cx="459.095" cy="898.494" r="14.4" fill="#3da44d" fill-rule="evenodd" fill-opacity="1" stroke="#000000" stroke-opacity="1" stroke-width="3.2"/>
<circle clip-path="url(#clip922)" cx="492.434" cy="825.541" r="14.4" fill="#3da44d" fill-rule="evenodd" fill-opacity="1" stroke="#000000" stroke-opacity="1" stroke-width="3.2"/>
<circle clip-path="url(#clip922)" cx="525.773" cy="771.323" r="14.4" fill="#3da44d" fill-rule="evenodd" fill-opacity="1" stroke="#000000" stroke-opacity="1" stroke-width="3.2"/>
<circle clip-path="url(#clip922)" cx="559.112" cy="661.162" r="14.4" fill="#3da44d" fill-rule="evenodd" fill-opacity="1" stroke="#000000" stroke-opacity="1" stroke-width="3.2"/>
<circle clip-path="url(#clip922)" cx="592.452" cy="639.415" r="14.4" fill="#3da44d" fill-rule="evenodd" fill-opacity="1" stroke="#000000" stroke-opacity="1" stroke-width="3.2"/>
<circle clip-path="url(#clip922)" cx="625.791" cy="603.747" r="14.4" fill="#3da44d" fill-rule="evenodd" fill-opacity="1" stroke="#000000" stroke-opacity="1" stroke-width="3.2"/>
<circle clip-path="url(#clip922)" cx="659.13" cy="504.608" r="14.4" fill="#3da44d" fill-rule="evenodd" fill-opacity="1" stroke="#000000" stroke-opacity="1" stroke-width="3.2"/>
<circle clip-path="url(#clip922)" cx="692.469" cy="478.719" r="14.4" fill="#3da44d" fill-rule="evenodd" fill-opacity="1" stroke="#000000" stroke-opacity="1" stroke-width="3.2"/>
<circle clip-path="url(#clip922)" cx="725.808" cy="485.344" r="14.4" fill="#3da44d" fill-rule="evenodd" fill-opacity="1" stroke="#000000" stroke-opacity="1" stroke-width="3.2"/>
<circle clip-path="url(#clip922)" cx="759.147" cy="454.9" r="14.4" fill="#3da44d" fill-rule="evenodd" fill-opacity="1" stroke="#000000" stroke-opacity="1" stroke-width="3.2"/>
<circle clip-path="url(#clip922)" cx="792.486" cy="442.96" r="14.4" fill="#3da44d" fill-rule="evenodd" fill-opacity="1" stroke="#000000" stroke-opacity="1" stroke-width="3.2"/>
<circle clip-path="url(#clip922)" cx="825.825" cy="367.757" r="14.4" fill="#3da44d" fill-rule="evenodd" fill-opacity="1" stroke="#000000" stroke-opacity="1" stroke-width="3.2"/>
<circle clip-path="url(#clip922)" cx="859.164" cy="348.829" r="14.4" fill="#3da44d" fill-rule="evenodd" fill-opacity="1" stroke="#000000" stroke-opacity="1" stroke-width="3.2"/>
<circle clip-path="url(#clip922)" cx="892.503" cy="343.489" r="14.4" fill="#3da44d" fill-rule="evenodd" fill-opacity="1" stroke="#000000" stroke-opacity="1" stroke-width="3.2"/>
<circle clip-path="url(#clip922)" cx="925.843" cy="305.455" r="14.4" fill="#3da44d" fill-rule="evenodd" fill-opacity="1" stroke="#000000" stroke-opacity="1" stroke-width="3.2"/>
<circle clip-path="url(#clip922)" cx="959.182" cy="313.567" r="14.4" fill="#3da44d" fill-rule="evenodd" fill-opacity="1" stroke="#000000" stroke-opacity="1" stroke-width="3.2"/>
<circle clip-path="url(#clip922)" cx="992.521" cy="350.229" r="14.4" fill="#3da44d" fill-rule="evenodd" fill-opacity="1" stroke="#000000" stroke-opacity="1" stroke-width="3.2"/>
<circle clip-path="url(#clip922)" cx="1025.86" cy="276.349" r="14.4" fill="#3da44d" fill-rule="evenodd" fill-opacity="1" stroke="#000000" stroke-opacity="1" stroke-width="3.2"/>
<circle clip-path="url(#clip922)" cx="1059.2" cy="254.729" r="14.4" fill="#3da44d" fill-rule="evenodd" fill-opacity="1" stroke="#000000" stroke-opacity="1" stroke-width="3.2"/>
<circle clip-path="url(#clip922)" cx="1092.54" cy="260.176" r="14.4" fill="#3da44d" fill-rule="evenodd" fill-opacity="1" stroke="#000000" stroke-opacity="1" stroke-width="3.2"/>
<circle clip-path="url(#clip922)" cx="1125.88" cy="206.781" r="14.4" fill="#3da44d" fill-rule="evenodd" fill-opacity="1" stroke="#000000" stroke-opacity="1" stroke-width="3.2"/>
<circle clip-path="url(#clip922)" cx="1159.22" cy="210.851" r="14.4" fill="#3da44d" fill-rule="evenodd" fill-opacity="1" stroke="#000000" stroke-opacity="1" stroke-width="3.2"/>
<circle clip-path="url(#clip922)" cx="1192.56" cy="225.987" r="14.4" fill="#3da44d" fill-rule="evenodd" fill-opacity="1" stroke="#000000" stroke-opacity="1" stroke-width="3.2"/>
<circle clip-path="url(#clip922)" cx="1225.89" cy="220.518" r="14.4" fill="#3da44d" fill-rule="evenodd" fill-opacity="1" stroke="#000000" stroke-opacity="1" stroke-width="3.2"/>
<circle clip-path="url(#clip922)" cx="1259.23" cy="182.571" r="14.4" fill="#3da44d" fill-rule="evenodd" fill-opacity="1" stroke="#000000" stroke-opacity="1" stroke-width="3.2"/>
<circle clip-path="url(#clip922)" cx="1292.57" cy="165.763" r="14.4" fill="#3da44d" fill-rule="evenodd" fill-opacity="1" stroke="#000000" stroke-opacity="1" stroke-width="3.2"/>
<circle clip-path="url(#clip922)" cx="1325.91" cy="233.36" r="14.4" fill="#3da44d" fill-rule="evenodd" fill-opacity="1" stroke="#000000" stroke-opacity="1" stroke-width="3.2"/>
<circle clip-path="url(#clip922)" cx="1359.25" cy="156.346" r="14.4" fill="#3da44d" fill-rule="evenodd" fill-opacity="1" stroke="#000000" stroke-opacity="1" stroke-width="3.2"/>
<circle clip-path="url(#clip922)" cx="1392.59" cy="172.067" r="14.4" fill="#3da44d" fill-rule="evenodd" fill-opacity="1" stroke="#000000" stroke-opacity="1" stroke-width="3.2"/>
<circle clip-path="url(#clip922)" cx="1425.93" cy="184.4" r="14.4" fill="#3da44d" fill-rule="evenodd" fill-opacity="1" stroke="#000000" stroke-opacity="1" stroke-width="3.2"/>
<circle clip-path="url(#clip922)" cx="1459.27" cy="161.487" r="14.4" fill="#3da44d" fill-rule="evenodd" fill-opacity="1" stroke="#000000" stroke-opacity="1" stroke-width="3.2"/>
<circle clip-path="url(#clip922)" cx="1492.61" cy="186.084" r="14.4" fill="#3da44d" fill-rule="evenodd" fill-opacity="1" stroke="#000000" stroke-opacity="1" stroke-width="3.2"/>
<circle clip-path="url(#clip922)" cx="1525.95" cy="118.867" r="14.4" fill="#3da44d" fill-rule="evenodd" fill-opacity="1" stroke="#000000" stroke-opacity="1" stroke-width="3.2"/>
<circle clip-path="url(#clip922)" cx="1559.29" cy="160.485" r="14.4" fill="#3da44d" fill-rule="evenodd" fill-opacity="1" stroke="#000000" stroke-opacity="1" stroke-width="3.2"/>
<circle clip-path="url(#clip922)" cx="1592.62" cy="161.751" r="14.4" fill="#3da44d" fill-rule="evenodd" fill-opacity="1" stroke="#000000" stroke-opacity="1" stroke-width="3.2"/>
<circle clip-path="url(#clip922)" cx="1625.96" cy="173.275" r="14.4" fill="#3da44d" fill-rule="evenodd" fill-opacity="1" stroke="#000000" stroke-opacity="1" stroke-width="3.2"/>
<circle clip-path="url(#clip922)" cx="1659.3" cy="178.318" r="14.4" fill="#3da44d" fill-rule="evenodd" fill-opacity="1" stroke="#000000" stroke-opacity="1" stroke-width="3.2"/>
<circle clip-path="url(#clip922)" cx="1692.64" cy="149.724" r="14.4" fill="#3da44d" fill-rule="evenodd" fill-opacity="1" stroke="#000000" stroke-opacity="1" stroke-width="3.2"/>
<circle clip-path="url(#clip922)" cx="1725.98" cy="136.132" r="14.4" fill="#3da44d" fill-rule="evenodd" fill-opacity="1" stroke="#000000" stroke-opacity="1" stroke-width="3.2"/>
<circle clip-path="url(#clip922)" cx="1759.32" cy="86.1857" r="14.4" fill="#3da44d" fill-rule="evenodd" fill-opacity="1" stroke="#000000" stroke-opacity="1" stroke-width="3.2"/>
<circle clip-path="url(#clip922)" cx="1792.66" cy="145.101" r="14.4" fill="#3da44d" fill-rule="evenodd" fill-opacity="1" stroke="#000000" stroke-opacity="1" stroke-width="3.2"/>
<circle clip-path="url(#clip922)" cx="1826" cy="157.646" r="14.4" fill="#3da44d" fill-rule="evenodd" fill-opacity="1" stroke="#000000" stroke-opacity="1" stroke-width="3.2"/>
<circle clip-path="url(#clip922)" cx="1859.34" cy="177.919" r="14.4" fill="#3da44d" fill-rule="evenodd" fill-opacity="1" stroke="#000000" stroke-opacity="1" stroke-width="3.2"/>
<circle clip-path="url(#clip922)" cx="1892.68" cy="157.588" r="14.4" fill="#3da44d" fill-rule="evenodd" fill-opacity="1" stroke="#000000" stroke-opacity="1" stroke-width="3.2"/>
<circle clip-path="url(#clip922)" cx="1926.02" cy="145.851" r="14.4" fill="#3da44d" fill-rule="evenodd" fill-opacity="1" stroke="#000000" stroke-opacity="1" stroke-width="3.2"/>
<circle clip-path="url(#clip922)" cx="1959.35" cy="136.954" r="14.4" fill="#3da44d" fill-rule="evenodd" fill-opacity="1" stroke="#000000" stroke-opacity="1" stroke-width="3.2"/>
<circle clip-path="url(#clip922)" cx="1992.69" cy="140.852" r="14.4" fill="#3da44d" fill-rule="evenodd" fill-opacity="1" stroke="#000000" stroke-opacity="1" stroke-width="3.2"/>
<circle clip-path="url(#clip922)" cx="2026.03" cy="143.697" r="14.4" fill="#3da44d" fill-rule="evenodd" fill-opacity="1" stroke="#000000" stroke-opacity="1" stroke-width="3.2"/>
<circle clip-path="url(#clip922)" cx="2059.37" cy="167.767" r="14.4" fill="#3da44d" fill-rule="evenodd" fill-opacity="1" stroke="#000000" stroke-opacity="1" stroke-width="3.2"/>
<circle clip-path="url(#clip922)" cx="2092.71" cy="148.036" r="14.4" fill="#3da44d" fill-rule="evenodd" fill-opacity="1" stroke="#000000" stroke-opacity="1" stroke-width="3.2"/>
<circle clip-path="url(#clip922)" cx="2126.05" cy="150.905" r="14.4" fill="#3da44d" fill-rule="evenodd" fill-opacity="1" stroke="#000000" stroke-opacity="1" stroke-width="3.2"/>
<circle clip-path="url(#clip922)" cx="2159.39" cy="143.64" r="14.4" fill="#3da44d" fill-rule="evenodd" fill-opacity="1" stroke="#000000" stroke-opacity="1" stroke-width="3.2"/>
<circle clip-path="url(#clip922)" cx="2192.73" cy="129.049" r="14.4" fill="#3da44d" fill-rule="evenodd" fill-opacity="1" stroke="#000000" stroke-opacity="1" stroke-width="3.2"/>
<circle clip-path="url(#clip922)" cx="2226.07" cy="135.161" r="14.4" fill="#3da44d" fill-rule="evenodd" fill-opacity="1" stroke="#000000" stroke-opacity="1" stroke-width="3.2"/>
<circle clip-path="url(#clip922)" cx="2259.41" cy="136.062" r="14.4" fill="#3da44d" fill-rule="evenodd" fill-opacity="1" stroke="#000000" stroke-opacity="1" stroke-width="3.2"/>
<circle clip-path="url(#clip922)" cx="2292.75" cy="135.54" r="14.4" fill="#3da44d" fill-rule="evenodd" fill-opacity="1" stroke="#000000" stroke-opacity="1" stroke-width="3.2"/>
<path clip-path="url(#clip920)" d="M303.068 300.469 L993.227 300.469 L993.227 93.1086 L303.068 93.1086  Z" fill="#ffffff" fill-rule="evenodd" fill-opacity="1"/>
<polyline clip-path="url(#clip920)" style="stroke:#000000; stroke-linecap:round; stroke-linejoin:round; stroke-width:4; stroke-opacity:1; fill:none" points="303.068,300.469 993.227,300.469 993.227,93.1086 303.068,93.1086 303.068,300.469 "/>
<polyline clip-path="url(#clip920)" style="stroke:#009af9; stroke-linecap:round; stroke-linejoin:round; stroke-width:4; stroke-opacity:1; fill:none" points="326.628,144.949 467.986,144.949 "/>
<path clip-path="url(#clip920)" d="M496.221 131.511 L496.221 144.497 L502.101 144.497 Q505.365 144.497 507.147 142.807 Q508.929 141.118 508.929 137.993 Q508.929 134.891 507.147 133.201 Q505.365 131.511 502.101 131.511 L496.221 131.511 M491.545 127.669 L502.101 127.669 Q507.911 127.669 510.874 130.307 Q513.86 132.923 513.86 137.993 Q513.86 143.108 510.874 145.724 Q507.911 148.34 502.101 148.34 L496.221 148.34 L496.221 162.229 L491.545 162.229 L491.545 127.669 Z" fill="#000000" fill-rule="nonzero" fill-opacity="1" /><path clip-path="url(#clip920)" d="M521.36 158.293 L528.999 158.293 L528.999 131.928 L520.689 133.595 L520.689 129.335 L528.952 127.669 L533.628 127.669 L533.628 158.293 L541.267 158.293 L541.267 162.229 L521.36 162.229 L521.36 158.293 Z" fill="#000000" fill-rule="nonzero" fill-opacity="1" /><polyline clip-path="url(#clip920)" style="stroke:#e26f46; stroke-linecap:round; stroke-linejoin:round; stroke-width:4; stroke-opacity:1; fill:none" points="326.628,196.789 467.986,196.789 "/>
<path clip-path="url(#clip920)" d="M496.221 183.351 L496.221 196.337 L502.101 196.337 Q505.365 196.337 507.147 194.647 Q508.929 192.958 508.929 189.833 Q508.929 186.731 507.147 185.041 Q505.365 183.351 502.101 183.351 L496.221 183.351 M491.545 179.509 L502.101 179.509 Q507.911 179.509 510.874 182.147 Q513.86 184.763 513.86 189.833 Q513.86 194.948 510.874 197.564 Q507.911 200.18 502.101 200.18 L496.221 200.18 L496.221 214.069 L491.545 214.069 L491.545 179.509 Z" fill="#000000" fill-rule="nonzero" fill-opacity="1" /><path clip-path="url(#clip920)" d="M524.577 210.133 L540.897 210.133 L540.897 214.069 L518.953 214.069 L518.953 210.133 Q521.615 207.379 526.198 202.749 Q530.804 198.096 531.985 196.754 Q534.23 194.231 535.11 192.495 Q536.013 190.735 536.013 189.046 Q536.013 186.291 534.068 184.555 Q532.147 182.819 529.045 182.819 Q526.846 182.819 524.392 183.583 Q521.962 184.347 519.184 185.897 L519.184 181.175 Q522.008 180.041 524.462 179.462 Q526.915 178.884 528.952 178.884 Q534.323 178.884 537.517 181.569 Q540.712 184.254 540.712 188.745 Q540.712 190.874 539.901 192.796 Q539.114 194.694 537.008 197.286 Q536.429 197.958 533.327 201.175 Q530.226 204.37 524.577 210.133 Z" fill="#000000" fill-rule="nonzero" fill-opacity="1" /><circle clip-path="url(#clip920)" cx="397.307" cy="248.629" r="20.48" fill="#3da44d" fill-rule="evenodd" fill-opacity="1" stroke="#000000" stroke-opacity="1" stroke-width="4.55111"/>
<path clip-path="url(#clip920)" d="M491.545 231.349 L497.842 231.349 L513.166 260.261 L513.166 231.349 L517.703 231.349 L517.703 265.909 L511.406 265.909 L496.082 236.997 L496.082 265.909 L491.545 265.909 L491.545 231.349 Z" fill="#000000" fill-rule="nonzero" fill-opacity="1" /><path clip-path="url(#clip920)" d="M536.869 242.969 Q533.443 242.969 531.452 245.654 Q529.462 248.316 529.462 252.969 Q529.462 257.622 531.429 260.307 Q533.42 262.969 536.869 262.969 Q540.272 262.969 542.263 260.284 Q544.253 257.598 544.253 252.969 Q544.253 248.362 542.263 245.677 Q540.272 242.969 536.869 242.969 M536.869 239.358 Q542.425 239.358 545.596 242.969 Q548.767 246.58 548.767 252.969 Q548.767 259.335 545.596 262.969 Q542.425 266.58 536.869 266.58 Q531.29 266.58 528.119 262.969 Q524.971 259.335 524.971 252.969 Q524.971 246.58 528.119 242.969 Q531.29 239.358 536.869 239.358 Z" fill="#000000" fill-rule="nonzero" fill-opacity="1" /><path clip-path="url(#clip920)" d="M555.827 239.983 L560.087 239.983 L560.087 265.909 L555.827 265.909 L555.827 239.983 M555.827 229.89 L560.087 229.89 L560.087 235.284 L555.827 235.284 L555.827 229.89 Z" fill="#000000" fill-rule="nonzero" fill-opacity="1" /><path clip-path="url(#clip920)" d="M585.526 240.747 L585.526 244.774 Q583.721 243.849 581.776 243.386 Q579.832 242.923 577.749 242.923 Q574.577 242.923 572.98 243.895 Q571.406 244.867 571.406 246.811 Q571.406 248.293 572.54 249.149 Q573.674 249.983 577.1 250.747 L578.559 251.071 Q583.096 252.043 584.994 253.825 Q586.915 255.585 586.915 258.756 Q586.915 262.367 584.045 264.473 Q581.198 266.58 576.198 266.58 Q574.114 266.58 571.846 266.163 Q569.6 265.77 567.1 264.96 L567.1 260.561 Q569.462 261.788 571.753 262.413 Q574.045 263.015 576.29 263.015 Q579.299 263.015 580.92 261.997 Q582.54 260.955 582.54 259.08 Q582.54 257.344 581.36 256.418 Q580.202 255.492 576.244 254.636 L574.762 254.288 Q570.804 253.455 569.045 251.742 Q567.286 250.006 567.286 246.997 Q567.286 243.339 569.878 241.349 Q572.471 239.358 577.239 239.358 Q579.6 239.358 581.684 239.705 Q583.767 240.052 585.526 240.747 Z" fill="#000000" fill-rule="nonzero" fill-opacity="1" /><path clip-path="url(#clip920)" d="M604.484 268.316 Q602.679 272.946 600.966 274.358 Q599.253 275.77 596.383 275.77 L592.98 275.77 L592.98 272.205 L595.48 272.205 Q597.239 272.205 598.211 271.372 Q599.184 270.538 600.364 267.436 L601.128 265.492 L590.642 239.983 L595.156 239.983 L603.258 260.261 L611.359 239.983 L615.873 239.983 L604.484 268.316 Z" fill="#000000" fill-rule="nonzero" fill-opacity="1" /><path clip-path="url(#clip920)" d="M646.869 242.969 Q643.443 242.969 641.452 245.654 Q639.461 248.316 639.461 252.969 Q639.461 257.622 641.429 260.307 Q643.419 262.969 646.869 262.969 Q650.271 262.969 652.262 260.284 Q654.253 257.598 654.253 252.969 Q654.253 248.362 652.262 245.677 Q650.271 242.969 646.869 242.969 M646.869 239.358 Q652.424 239.358 655.595 242.969 Q658.767 246.58 658.767 252.969 Q658.767 259.335 655.595 262.969 Q652.424 266.58 646.869 266.58 Q641.29 266.58 638.119 262.969 Q634.97 259.335 634.97 252.969 Q634.97 246.58 638.119 242.969 Q641.29 239.358 646.869 239.358 Z" fill="#000000" fill-rule="nonzero" fill-opacity="1" /><path clip-path="url(#clip920)" d="M684.438 252.969 Q684.438 248.27 682.493 245.608 Q680.572 242.923 677.192 242.923 Q673.813 242.923 671.868 245.608 Q669.947 248.27 669.947 252.969 Q669.947 257.668 671.868 260.353 Q673.813 263.015 677.192 263.015 Q680.572 263.015 682.493 260.353 Q684.438 257.668 684.438 252.969 M669.947 243.918 Q671.29 241.603 673.327 240.492 Q675.387 239.358 678.234 239.358 Q682.956 239.358 685.896 243.108 Q688.859 246.858 688.859 252.969 Q688.859 259.08 685.896 262.83 Q682.956 266.58 678.234 266.58 Q675.387 266.58 673.327 265.469 Q671.29 264.335 669.947 262.02 L669.947 265.909 L665.665 265.909 L665.665 229.89 L669.947 229.89 L669.947 243.918 Z" fill="#000000" fill-rule="nonzero" fill-opacity="1" /><path clip-path="url(#clip920)" d="M712.447 240.747 L712.447 244.774 Q710.641 243.849 708.697 243.386 Q706.752 242.923 704.669 242.923 Q701.498 242.923 699.901 243.895 Q698.327 244.867 698.327 246.811 Q698.327 248.293 699.461 249.149 Q700.595 249.983 704.021 250.747 L705.479 251.071 Q710.016 252.043 711.914 253.825 Q713.836 255.585 713.836 258.756 Q713.836 262.367 710.965 264.473 Q708.118 266.58 703.118 266.58 Q701.035 266.58 698.766 266.163 Q696.521 265.77 694.021 264.96 L694.021 260.561 Q696.382 261.788 698.674 262.413 Q700.965 263.015 703.211 263.015 Q706.22 263.015 707.84 261.997 Q709.461 260.955 709.461 259.08 Q709.461 257.344 708.28 256.418 Q707.123 255.492 703.164 254.636 L701.683 254.288 Q697.725 253.455 695.965 251.742 Q694.206 250.006 694.206 246.997 Q694.206 243.339 696.799 241.349 Q699.391 239.358 704.16 239.358 Q706.521 239.358 708.604 239.705 Q710.688 240.052 712.447 240.747 Z" fill="#000000" fill-rule="nonzero" fill-opacity="1" /><path clip-path="url(#clip920)" d="M742.794 251.881 L742.794 253.964 L723.211 253.964 Q723.488 258.362 725.85 260.677 Q728.234 262.969 732.47 262.969 Q734.924 262.969 737.215 262.367 Q739.53 261.765 741.799 260.561 L741.799 264.589 Q739.507 265.561 737.099 266.071 Q734.692 266.58 732.215 266.58 Q726.012 266.58 722.377 262.969 Q718.766 259.358 718.766 253.2 Q718.766 246.835 722.192 243.108 Q725.641 239.358 731.475 239.358 Q736.706 239.358 739.738 242.737 Q742.794 246.094 742.794 251.881 M738.535 250.631 Q738.488 247.136 736.567 245.052 Q734.669 242.969 731.521 242.969 Q727.956 242.969 725.803 244.983 Q723.674 246.997 723.35 250.654 L738.535 250.631 Z" fill="#000000" fill-rule="nonzero" fill-opacity="1" /><path clip-path="url(#clip920)" d="M764.808 243.964 Q764.09 243.548 763.234 243.362 Q762.4 243.154 761.382 243.154 Q757.771 243.154 755.826 245.515 Q753.905 247.853 753.905 252.251 L753.905 265.909 L749.623 265.909 L749.623 239.983 L753.905 239.983 L753.905 244.011 Q755.248 241.649 757.4 240.515 Q759.553 239.358 762.632 239.358 Q763.072 239.358 763.604 239.427 Q764.136 239.474 764.785 239.589 L764.808 243.964 Z" fill="#000000" fill-rule="nonzero" fill-opacity="1" /><path clip-path="url(#clip920)" d="M766.22 239.983 L770.734 239.983 L778.835 261.742 L786.937 239.983 L791.451 239.983 L781.729 265.909 L775.942 265.909 L766.22 239.983 Z" fill="#000000" fill-rule="nonzero" fill-opacity="1" /><path clip-path="url(#clip920)" d="M819.506 251.881 L819.506 253.964 L799.923 253.964 Q800.201 258.362 802.562 260.677 Q804.946 262.969 809.182 262.969 Q811.636 262.969 813.928 262.367 Q816.243 261.765 818.511 260.561 L818.511 264.589 Q816.219 265.561 813.812 266.071 Q811.405 266.58 808.928 266.58 Q802.724 266.58 799.09 262.969 Q795.479 259.358 795.479 253.2 Q795.479 246.835 798.905 243.108 Q802.354 239.358 808.187 239.358 Q813.419 239.358 816.451 242.737 Q819.506 246.094 819.506 251.881 M815.247 250.631 Q815.201 247.136 813.28 245.052 Q811.382 242.969 808.233 242.969 Q804.669 242.969 802.516 244.983 Q800.386 246.997 800.062 250.654 L815.247 250.631 Z" fill="#000000" fill-rule="nonzero" fill-opacity="1" /><path clip-path="url(#clip920)" d="M843.557 243.918 L843.557 229.89 L847.816 229.89 L847.816 265.909 L843.557 265.909 L843.557 262.02 Q842.215 264.335 840.155 265.469 Q838.117 266.58 835.247 266.58 Q830.548 266.58 827.585 262.83 Q824.645 259.08 824.645 252.969 Q824.645 246.858 827.585 243.108 Q830.548 239.358 835.247 239.358 Q838.117 239.358 840.155 240.492 Q842.215 241.603 843.557 243.918 M829.043 252.969 Q829.043 257.668 830.965 260.353 Q832.909 263.015 836.289 263.015 Q839.668 263.015 841.613 260.353 Q843.557 257.668 843.557 252.969 Q843.557 248.27 841.613 245.608 Q839.668 242.923 836.289 242.923 Q832.909 242.923 830.965 245.608 Q829.043 248.27 829.043 252.969 Z" fill="#000000" fill-rule="nonzero" fill-opacity="1" /><path clip-path="url(#clip920)" d="M888.719 243.918 L888.719 229.89 L892.978 229.89 L892.978 265.909 L888.719 265.909 L888.719 262.02 Q887.376 264.335 885.316 265.469 Q883.279 266.58 880.409 266.58 Q875.71 266.58 872.747 262.83 Q869.807 259.08 869.807 252.969 Q869.807 246.858 872.747 243.108 Q875.71 239.358 880.409 239.358 Q883.279 239.358 885.316 240.492 Q887.376 241.603 888.719 243.918 M874.205 252.969 Q874.205 257.668 876.127 260.353 Q878.071 263.015 881.451 263.015 Q884.83 263.015 886.775 260.353 Q888.719 257.668 888.719 252.969 Q888.719 248.27 886.775 245.608 Q884.83 242.923 881.451 242.923 Q878.071 242.923 876.127 245.608 Q874.205 248.27 874.205 252.969 Z" fill="#000000" fill-rule="nonzero" fill-opacity="1" /><path clip-path="url(#clip920)" d="M913.534 252.876 Q908.372 252.876 906.381 254.057 Q904.39 255.237 904.39 258.085 Q904.39 260.353 905.872 261.696 Q907.376 263.015 909.946 263.015 Q913.487 263.015 915.617 260.515 Q917.77 257.992 917.77 253.825 L917.77 252.876 L913.534 252.876 M922.029 251.117 L922.029 265.909 L917.77 265.909 L917.77 261.973 Q916.312 264.335 914.136 265.469 Q911.96 266.58 908.812 266.58 Q904.83 266.58 902.469 264.358 Q900.131 262.112 900.131 258.362 Q900.131 253.987 903.048 251.765 Q905.987 249.543 911.798 249.543 L917.77 249.543 L917.77 249.126 Q917.77 246.187 915.825 244.589 Q913.904 242.969 910.409 242.969 Q908.187 242.969 906.08 243.501 Q903.974 244.034 902.029 245.099 L902.029 241.163 Q904.367 240.261 906.566 239.821 Q908.765 239.358 910.849 239.358 Q916.474 239.358 919.251 242.274 Q922.029 245.191 922.029 251.117 Z" fill="#000000" fill-rule="nonzero" fill-opacity="1" /><path clip-path="url(#clip920)" d="M935.015 232.622 L935.015 239.983 L943.788 239.983 L943.788 243.293 L935.015 243.293 L935.015 257.367 Q935.015 260.538 935.872 261.441 Q936.751 262.344 939.413 262.344 L943.788 262.344 L943.788 265.909 L939.413 265.909 Q934.483 265.909 932.608 264.08 Q930.733 262.228 930.733 257.367 L930.733 243.293 L927.608 243.293 L927.608 239.983 L930.733 239.983 L930.733 232.622 L935.015 232.622 Z" fill="#000000" fill-rule="nonzero" fill-opacity="1" /><path clip-path="url(#clip920)" d="M961.172 252.876 Q956.01 252.876 954.02 254.057 Q952.029 255.237 952.029 258.085 Q952.029 260.353 953.51 261.696 Q955.015 263.015 957.584 263.015 Q961.126 263.015 963.256 260.515 Q965.408 257.992 965.408 253.825 L965.408 252.876 L961.172 252.876 M969.668 251.117 L969.668 265.909 L965.408 265.909 L965.408 261.973 Q963.95 264.335 961.774 265.469 Q959.598 266.58 956.45 266.58 Q952.469 266.58 950.108 264.358 Q947.77 262.112 947.77 258.362 Q947.77 253.987 950.686 251.765 Q953.626 249.543 959.436 249.543 L965.408 249.543 L965.408 249.126 Q965.408 246.187 963.464 244.589 Q961.543 242.969 958.047 242.969 Q955.825 242.969 953.719 243.501 Q951.612 244.034 949.668 245.099 L949.668 241.163 Q952.006 240.261 954.205 239.821 Q956.404 239.358 958.487 239.358 Q964.112 239.358 966.89 242.274 Q969.668 245.191 969.668 251.117 Z" fill="#000000" fill-rule="nonzero" fill-opacity="1" /></svg>
