<?xml version="1.0" encoding="utf-8"?>
<svg xmlns="http://www.w3.org/2000/svg" xmlns:xlink="http://www.w3.org/1999/xlink" width="600" height="400" viewBox="0 0 2400 1600">
<defs>
  <clipPath id="clip090">
    <rect x="0" y="0" width="2400" height="1600"/>
  </clipPath>
</defs>
<path clip-path="url(#clip090)" d="M0 1600 L2400 1600 L2400 0 L0 0  Z" fill="#ffffff" fill-rule="evenodd" fill-opacity="1"/>
<defs>
  <clipPath id="clip091">
    <rect x="480" y="0" width="1681" height="1600"/>
  </clipPath>
</defs>
<path clip-path="url(#clip090)" d="M232.389 1423.18 L2352.76 1423.18 L2352.76 47.2441 L232.389 47.2441  Z" fill="#ffffff" fill-rule="evenodd" fill-opacity="1"/>
<defs>
  <clipPath id="clip092">
    <rect x="232" y="47" width="2121" height="1377"/>
  </clipPath>
</defs>
<polyline clip-path="url(#clip092)" style="stroke:#000000; stroke-linecap:round; stroke-linejoin:round; stroke-width:2; stroke-opacity:0.1; fill:none" points="292.4,1423.18 292.4,47.2441 "/>
<polyline clip-path="url(#clip092)" style="stroke:#000000; stroke-linecap:round; stroke-linejoin:round; stroke-width:2; stroke-opacity:0.1; fill:none" points="625.791,1423.18 625.791,47.2441 "/>
<polyline clip-path="url(#clip092)" style="stroke:#000000; stroke-linecap:round; stroke-linejoin:round; stroke-width:2; stroke-opacity:0.1; fill:none" points="959.182,1423.18 959.182,47.2441 "/>
<polyline clip-path="url(#clip092)" style="stroke:#000000; stroke-linecap:round; stroke-linejoin:round; stroke-width:2; stroke-opacity:0.1; fill:none" points="1292.57,1423.18 1292.57,47.2441 "/>
<polyline clip-path="url(#clip092)" style="stroke:#000000; stroke-linecap:round; stroke-linejoin:round; stroke-width:2; stroke-opacity:0.1; fill:none" points="1625.96,1423.18 1625.96,47.2441 "/>
<polyline clip-path="url(#clip092)" style="stroke:#000000; stroke-linecap:round; stroke-linejoin:round; stroke-width:2; stroke-opacity:0.1; fill:none" points="1959.35,1423.18 1959.35,47.2441 "/>
<polyline clip-path="url(#clip092)" style="stroke:#000000; stroke-linecap:round; stroke-linejoin:round; stroke-width:2; stroke-opacity:0.1; fill:none" points="2292.75,1423.18 2292.75,47.2441 "/>
<polyline clip-path="url(#clip092)" style="stroke:#000000; stroke-linecap:round; stroke-linejoin:round; stroke-width:2; stroke-opacity:0.1; fill:none" points="232.389,1321.74 2352.76,1321.74 "/>
<polyline clip-path="url(#clip092)" style="stroke:#000000; stroke-linecap:round; stroke-linejoin:round; stroke-width:2; stroke-opacity:0.1; fill:none" points="232.389,1020.26 2352.76,1020.26 "/>
<polyline clip-path="url(#clip092)" style="stroke:#000000; stroke-linecap:round; stroke-linejoin:round; stroke-width:2; stroke-opacity:0.1; fill:none" points="232.389,718.771 2352.76,718.771 "/>
<polyline clip-path="url(#clip092)" style="stroke:#000000; stroke-linecap:round; stroke-linejoin:round; stroke-width:2; stroke-opacity:0.1; fill:none" points="232.389,417.285 2352.76,417.285 "/>
<polyline clip-path="url(#clip092)" style="stroke:#000000; stroke-linecap:round; stroke-linejoin:round; stroke-width:2; stroke-opacity:0.1; fill:none" points="232.389,115.798 2352.76,115.798 "/>
<polyline clip-path="url(#clip090)" style="stroke:#000000; stroke-linecap:round; stroke-linejoin:round; stroke-width:4; stroke-opacity:1; fill:none" points="232.389,1423.18 2352.76,1423.18 "/>
<polyline clip-path="url(#clip090)" style="stroke:#000000; stroke-linecap:round; stroke-linejoin:round; stroke-width:4; stroke-opacity:1; fill:none" points="292.4,1423.18 292.4,1404.28 "/>
<polyline clip-path="url(#clip090)" style="stroke:#000000; stroke-linecap:round; stroke-linejoin:round; stroke-width:4; stroke-opacity:1; fill:none" points="625.791,1423.18 625.791,1404.28 "/>
<polyline clip-path="url(#clip090)" style="stroke:#000000; stroke-linecap:round; stroke-linejoin:round; stroke-width:4; stroke-opacity:1; fill:none" points="959.182,1423.18 959.182,1404.28 "/>
<polyline clip-path="url(#clip090)" style="stroke:#000000; stroke-linecap:round; stroke-linejoin:round; stroke-width:4; stroke-opacity:1; fill:none" points="1292.57,1423.18 1292.57,1404.28 "/>
<polyline clip-path="url(#clip090)" style="stroke:#000000; stroke-linecap:round; stroke-linejoin:round; stroke-width:4; stroke-opacity:1; fill:none" points="1625.96,1423.18 1625.96,1404.28 "/>
<polyline clip-path="url(#clip090)" style="stroke:#000000; stroke-linecap:round; stroke-linejoin:round; stroke-width:4; stroke-opacity:1; fill:none" points="1959.35,1423.18 1959.35,1404.28 "/>
<polyline clip-path="url(#clip090)" style="stroke:#000000; stroke-linecap:round; stroke-linejoin:round; stroke-width:4; stroke-opacity:1; fill:none" points="2292.75,1423.18 2292.75,1404.28 "/>
<path clip-path="url(#clip090)" d="M292.4 1454.1 Q288.789 1454.1 286.96 1457.66 Q285.154 1461.2 285.154 1468.33 Q285.154 1475.44 286.96 1479.01 Q288.789 1482.55 292.4 1482.55 Q296.034 1482.55 297.84 1479.01 Q299.668 1475.44 299.668 1468.33 Q299.668 1461.2 297.84 1457.66 Q296.034 1454.1 292.4 1454.1 M292.4 1450.39 Q298.21 1450.39 301.265 1455 Q304.344 1459.58 304.344 1468.33 Q304.344 1477.06 301.265 1481.67 Q298.21 1486.25 292.4 1486.25 Q286.59 1486.25 283.511 1481.67 Q280.455 1477.06 280.455 1468.33 Q280.455 1459.58 283.511 1455 Q286.59 1450.39 292.4 1450.39 Z" fill="#000000" fill-rule="nonzero" fill-opacity="1" /><path clip-path="url(#clip090)" d="M616.173 1481.64 L623.812 1481.64 L623.812 1455.28 L615.501 1456.95 L615.501 1452.69 L623.765 1451.02 L628.441 1451.02 L628.441 1481.64 L636.08 1481.64 L636.08 1485.58 L616.173 1485.58 L616.173 1481.64 Z" fill="#000000" fill-rule="nonzero" fill-opacity="1" /><path clip-path="url(#clip090)" d="M953.834 1481.64 L970.154 1481.64 L970.154 1485.58 L948.209 1485.58 L948.209 1481.64 Q950.872 1478.89 955.455 1474.26 Q960.061 1469.61 961.242 1468.27 Q963.487 1465.74 964.367 1464.01 Q965.27 1462.25 965.27 1460.56 Q965.27 1457.8 963.325 1456.07 Q961.404 1454.33 958.302 1454.33 Q956.103 1454.33 953.649 1455.09 Q951.219 1455.86 948.441 1457.41 L948.441 1452.69 Q951.265 1451.55 953.719 1450.97 Q956.172 1450.39 958.209 1450.39 Q963.58 1450.39 966.774 1453.08 Q969.969 1455.77 969.969 1460.26 Q969.969 1462.39 969.158 1464.31 Q968.371 1466.2 966.265 1468.8 Q965.686 1469.47 962.584 1472.69 Q959.483 1475.88 953.834 1481.64 Z" fill="#000000" fill-rule="nonzero" fill-opacity="1" /><path clip-path="url(#clip090)" d="M1296.82 1466.95 Q1300.18 1467.66 1302.05 1469.93 Q1303.95 1472.2 1303.95 1475.53 Q1303.95 1480.65 1300.43 1483.45 Q1296.91 1486.25 1290.43 1486.25 Q1288.26 1486.25 1285.94 1485.81 Q1283.65 1485.39 1281.2 1484.54 L1281.2 1480.02 Q1283.14 1481.16 1285.45 1481.74 Q1287.77 1482.32 1290.29 1482.32 Q1294.69 1482.32 1296.98 1480.58 Q1299.3 1478.84 1299.3 1475.53 Q1299.3 1472.48 1297.14 1470.77 Q1295.01 1469.03 1291.2 1469.03 L1287.17 1469.03 L1287.17 1465.19 L1291.38 1465.19 Q1294.83 1465.19 1296.66 1463.82 Q1298.49 1462.43 1298.49 1459.84 Q1298.49 1457.18 1296.59 1455.77 Q1294.71 1454.33 1291.2 1454.33 Q1289.27 1454.33 1287.07 1454.75 Q1284.88 1455.16 1282.24 1456.04 L1282.24 1451.88 Q1284.9 1451.14 1287.21 1450.77 Q1289.55 1450.39 1291.61 1450.39 Q1296.94 1450.39 1300.04 1452.83 Q1303.14 1455.23 1303.14 1459.35 Q1303.14 1462.22 1301.5 1464.21 Q1299.85 1466.18 1296.82 1466.95 Z" fill="#000000" fill-rule="nonzero" fill-opacity="1" /><path clip-path="url(#clip090)" d="M1628.97 1455.09 L1617.17 1473.54 L1628.97 1473.54 L1628.97 1455.09 M1627.75 1451.02 L1633.63 1451.02 L1633.63 1473.54 L1638.56 1473.54 L1638.56 1477.43 L1633.63 1477.43 L1633.63 1485.58 L1628.97 1485.58 L1628.97 1477.43 L1613.37 1477.43 L1613.37 1472.92 L1627.75 1451.02 Z" fill="#000000" fill-rule="nonzero" fill-opacity="1" /><path clip-path="url(#clip090)" d="M1949.63 1451.02 L1967.99 1451.02 L1967.99 1454.96 L1953.91 1454.96 L1953.91 1463.43 Q1954.93 1463.08 1955.95 1462.92 Q1956.97 1462.73 1957.99 1462.73 Q1963.78 1462.73 1967.16 1465.9 Q1970.54 1469.08 1970.54 1474.49 Q1970.54 1480.07 1967.06 1483.17 Q1963.59 1486.25 1957.27 1486.25 Q1955.1 1486.25 1952.83 1485.88 Q1950.58 1485.51 1948.17 1484.77 L1948.17 1480.07 Q1950.26 1481.2 1952.48 1481.76 Q1954.7 1482.32 1957.18 1482.32 Q1961.18 1482.32 1963.52 1480.21 Q1965.86 1478.1 1965.86 1474.49 Q1965.86 1470.88 1963.52 1468.77 Q1961.18 1466.67 1957.18 1466.67 Q1955.3 1466.67 1953.43 1467.08 Q1951.58 1467.5 1949.63 1468.38 L1949.63 1451.02 Z" fill="#000000" fill-rule="nonzero" fill-opacity="1" /><path clip-path="url(#clip090)" d="M2293.15 1466.44 Q2290 1466.44 2288.15 1468.59 Q2286.32 1470.74 2286.32 1474.49 Q2286.32 1478.22 2288.15 1480.39 Q2290 1482.55 2293.15 1482.55 Q2296.3 1482.55 2298.13 1480.39 Q2299.98 1478.22 2299.98 1474.49 Q2299.98 1470.74 2298.13 1468.59 Q2296.3 1466.44 2293.15 1466.44 M2302.43 1451.78 L2302.43 1456.04 Q2300.67 1455.21 2298.87 1454.77 Q2297.09 1454.33 2295.33 1454.33 Q2290.7 1454.33 2288.24 1457.45 Q2285.81 1460.58 2285.47 1466.9 Q2286.83 1464.89 2288.89 1463.82 Q2290.95 1462.73 2293.43 1462.73 Q2298.64 1462.73 2301.65 1465.9 Q2304.68 1469.05 2304.68 1474.49 Q2304.68 1479.82 2301.53 1483.03 Q2298.38 1486.25 2293.15 1486.25 Q2287.16 1486.25 2283.98 1481.67 Q2280.81 1477.06 2280.81 1468.33 Q2280.81 1460.14 2284.7 1455.28 Q2288.59 1450.39 2295.14 1450.39 Q2296.9 1450.39 2298.68 1450.74 Q2300.49 1451.09 2302.43 1451.78 Z" fill="#000000" fill-rule="nonzero" fill-opacity="1" /><path clip-path="url(#clip090)" d="M1162.74 1520.52 L1202.94 1520.52 L1202.94 1525.93 L1186.07 1525.93 L1186.07 1568.04 L1179.61 1568.04 L1179.61 1525.93 L1162.74 1525.93 L1162.74 1520.52 Z" fill="#000000" fill-rule="nonzero" fill-opacity="1" /><path clip-path="url(#clip090)" d="M1206.89 1532.4 L1212.75 1532.4 L1212.75 1568.04 L1206.89 1568.04 L1206.89 1532.4 M1206.89 1518.52 L1212.75 1518.52 L1212.75 1525.93 L1206.89 1525.93 L1206.89 1518.52 Z" fill="#000000" fill-rule="nonzero" fill-opacity="1" /><path clip-path="url(#clip090)" d="M1252.76 1539.24 Q1254.95 1535.29 1258.01 1533.41 Q1261.06 1531.54 1265.2 1531.54 Q1270.77 1531.54 1273.79 1535.45 Q1276.82 1539.33 1276.82 1546.53 L1276.82 1568.04 L1270.93 1568.04 L1270.93 1546.72 Q1270.93 1541.59 1269.11 1539.11 Q1267.3 1536.63 1263.58 1536.63 Q1259.03 1536.63 1256.38 1539.65 Q1253.74 1542.68 1253.74 1547.9 L1253.74 1568.04 L1247.85 1568.04 L1247.85 1546.72 Q1247.85 1541.56 1246.04 1539.11 Q1244.23 1536.63 1240.44 1536.63 Q1235.95 1536.63 1233.31 1539.68 Q1230.67 1542.71 1230.67 1547.9 L1230.67 1568.04 L1224.78 1568.04 L1224.78 1532.4 L1230.67 1532.4 L1230.67 1537.93 Q1232.67 1534.66 1235.47 1533.1 Q1238.27 1531.54 1242.12 1531.54 Q1246.01 1531.54 1248.71 1533.51 Q1251.45 1535.48 1252.76 1539.24 Z" fill="#000000" fill-rule="nonzero" fill-opacity="1" /><path clip-path="url(#clip090)" d="M1318.99 1548.76 L1318.99 1551.62 L1292.06 1551.62 Q1292.45 1557.67 1295.69 1560.85 Q1298.97 1564 1304.79 1564 Q1308.17 1564 1311.32 1563.17 Q1314.5 1562.35 1317.62 1560.69 L1317.62 1566.23 Q1314.47 1567.57 1311.16 1568.27 Q1307.85 1568.97 1304.44 1568.97 Q1295.91 1568.97 1290.92 1564 Q1285.95 1559.04 1285.95 1550.57 Q1285.95 1541.82 1290.66 1536.69 Q1295.41 1531.54 1303.43 1531.54 Q1310.62 1531.54 1314.79 1536.18 Q1318.99 1540.8 1318.99 1548.76 M1313.13 1547.04 Q1313.07 1542.23 1310.43 1539.37 Q1307.82 1536.5 1303.49 1536.5 Q1298.59 1536.5 1295.63 1539.27 Q1292.7 1542.04 1292.25 1547.07 L1313.13 1547.04 Z" fill="#000000" fill-rule="nonzero" fill-opacity="1" /><path clip-path="url(#clip090)" d="M1363.39 1518.58 Q1359.13 1525.9 1357.06 1533.06 Q1354.99 1540.23 1354.99 1547.58 Q1354.99 1554.93 1357.06 1562.16 Q1359.16 1569.35 1363.39 1576.64 L1358.3 1576.64 Q1353.52 1569.16 1351.14 1561.93 Q1348.78 1554.71 1348.78 1547.58 Q1348.78 1540.48 1351.14 1533.29 Q1353.49 1526.09 1358.3 1518.58 L1363.39 1518.58 Z" fill="#000000" fill-rule="nonzero" fill-opacity="1" /><path clip-path="url(#clip090)" d="M1397.48 1533.45 L1397.48 1538.98 Q1395 1537.71 1392.32 1537.07 Q1389.65 1536.44 1386.79 1536.44 Q1382.42 1536.44 1380.23 1537.77 Q1378.06 1539.11 1378.06 1541.79 Q1378.06 1543.82 1379.62 1545 Q1381.18 1546.15 1385.89 1547.2 L1387.9 1547.64 Q1394.14 1548.98 1396.75 1551.43 Q1399.39 1553.85 1399.39 1558.21 Q1399.39 1563.17 1395.44 1566.07 Q1391.53 1568.97 1384.65 1568.97 Q1381.79 1568.97 1378.67 1568.39 Q1375.58 1567.85 1372.14 1566.74 L1372.14 1560.69 Q1375.39 1562.38 1378.54 1563.24 Q1381.69 1564.07 1384.78 1564.07 Q1388.92 1564.07 1391.15 1562.66 Q1393.37 1561.23 1393.37 1558.65 Q1393.37 1556.27 1391.75 1554.99 Q1390.16 1553.72 1384.72 1552.54 L1382.68 1552.07 Q1377.24 1550.92 1374.82 1548.56 Q1372.4 1546.18 1372.4 1542.04 Q1372.4 1537.01 1375.96 1534.27 Q1379.53 1531.54 1386.08 1531.54 Q1389.33 1531.54 1392.2 1532.01 Q1395.06 1532.49 1397.48 1533.45 Z" fill="#000000" fill-rule="nonzero" fill-opacity="1" /><path clip-path="url(#clip090)" d="M1407.79 1518.58 L1412.88 1518.58 Q1417.66 1526.09 1420.01 1533.29 Q1422.4 1540.48 1422.4 1547.58 Q1422.4 1554.71 1420.01 1561.93 Q1417.66 1569.16 1412.88 1576.64 L1407.79 1576.64 Q1412.03 1569.35 1414.09 1562.16 Q1416.19 1554.93 1416.19 1547.58 Q1416.19 1540.23 1414.09 1533.06 Q1412.03 1525.9 1407.79 1518.58 Z" fill="#000000" fill-rule="nonzero" fill-opacity="1" /><polyline clip-path="url(#clip090)" style="stroke:#000000; stroke-linecap:round; stroke-linejoin:round; stroke-width:4; stroke-opacity:1; fill:none" points="232.389,1423.18 232.389,47.2441 "/>
<polyline clip-path="url(#clip090)" style="stroke:#000000; stroke-linecap:round; stroke-linejoin:round; stroke-width:4; stroke-opacity:1; fill:none" points="232.389,1321.74 251.287,1321.74 "/>
<polyline clip-path="url(#clip090)" style="stroke:#000000; stroke-linecap:round; stroke-linejoin:round; stroke-width:4; stroke-opacity:1; fill:none" points="232.389,1020.26 251.287,1020.26 "/>
<polyline clip-path="url(#clip090)" style="stroke:#000000; stroke-linecap:round; stroke-linejoin:round; stroke-width:4; stroke-opacity:1; fill:none" points="232.389,718.771 251.287,718.771 "/>
<polyline clip-path="url(#clip090)" style="stroke:#000000; stroke-linecap:round; stroke-linejoin:round; stroke-width:4; stroke-opacity:1; fill:none" points="232.389,417.285 251.287,417.285 "/>
<polyline clip-path="url(#clip090)" style="stroke:#000000; stroke-linecap:round; stroke-linejoin:round; stroke-width:4; stroke-opacity:1; fill:none" points="232.389,115.798 251.287,115.798 "/>
<path clip-path="url(#clip090)" d="M184.445 1307.54 Q180.834 1307.54 179.005 1311.11 Q177.2 1314.65 177.2 1321.78 Q177.2 1328.88 179.005 1332.45 Q180.834 1335.99 184.445 1335.99 Q188.079 1335.99 189.885 1332.45 Q191.713 1328.88 191.713 1321.78 Q191.713 1314.65 189.885 1311.11 Q188.079 1307.54 184.445 1307.54 M184.445 1303.84 Q190.255 1303.84 193.311 1308.44 Q196.389 1313.03 196.389 1321.78 Q196.389 1330.5 193.311 1335.11 Q190.255 1339.69 184.445 1339.69 Q178.635 1339.69 175.556 1335.11 Q172.501 1330.5 172.501 1321.78 Q172.501 1313.03 175.556 1308.44 Q178.635 1303.84 184.445 1303.84 Z" fill="#000000" fill-rule="nonzero" fill-opacity="1" /><path clip-path="url(#clip090)" d="M149.306 1033.6 L165.626 1033.6 L165.626 1037.54 L143.681 1037.54 L143.681 1033.6 Q146.343 1030.85 150.927 1026.22 Q155.533 1021.56 156.714 1020.22 Q158.959 1017.7 159.839 1015.96 Q160.741 1014.2 160.741 1012.51 Q160.741 1009.76 158.797 1008.02 Q156.876 1006.29 153.774 1006.29 Q151.575 1006.29 149.121 1007.05 Q146.691 1007.81 143.913 1009.37 L143.913 1004.64 Q146.737 1003.51 149.191 1002.93 Q151.644 1002.35 153.681 1002.35 Q159.052 1002.35 162.246 1005.04 Q165.44 1007.72 165.44 1012.21 Q165.44 1014.34 164.63 1016.26 Q163.843 1018.16 161.737 1020.75 Q161.158 1021.43 158.056 1024.64 Q154.954 1027.84 149.306 1033.6 Z" fill="#000000" fill-rule="nonzero" fill-opacity="1" /><path clip-path="url(#clip090)" d="M175.487 1002.98 L193.843 1002.98 L193.843 1006.91 L179.769 1006.91 L179.769 1015.38 Q180.788 1015.04 181.806 1014.88 Q182.825 1014.69 183.843 1014.69 Q189.63 1014.69 193.01 1017.86 Q196.389 1021.03 196.389 1026.45 Q196.389 1032.03 192.917 1035.13 Q189.445 1038.21 183.126 1038.21 Q180.95 1038.21 178.681 1037.84 Q176.436 1037.47 174.028 1036.73 L174.028 1032.03 Q176.112 1033.16 178.334 1033.72 Q180.556 1034.27 183.033 1034.27 Q187.038 1034.27 189.375 1032.17 Q191.713 1030.06 191.713 1026.45 Q191.713 1022.84 189.375 1020.73 Q187.038 1018.63 183.033 1018.63 Q181.158 1018.63 179.283 1019.04 Q177.431 1019.46 175.487 1020.34 L175.487 1002.98 Z" fill="#000000" fill-rule="nonzero" fill-opacity="1" /><path clip-path="url(#clip090)" d="M144.329 701.491 L162.686 701.491 L162.686 705.426 L148.612 705.426 L148.612 713.898 Q149.63 713.551 150.649 713.389 Q151.667 713.204 152.686 713.204 Q158.473 713.204 161.852 716.375 Q165.232 719.546 165.232 724.963 Q165.232 730.542 161.76 733.643 Q158.288 736.722 151.968 736.722 Q149.792 736.722 147.524 736.352 Q145.279 735.981 142.871 735.241 L142.871 730.542 Q144.954 731.676 147.177 732.231 Q149.399 732.787 151.876 732.787 Q155.88 732.787 158.218 730.68 Q160.556 728.574 160.556 724.963 Q160.556 721.352 158.218 719.245 Q155.88 717.139 151.876 717.139 Q150.001 717.139 148.126 717.555 Q146.274 717.972 144.329 718.852 L144.329 701.491 Z" fill="#000000" fill-rule="nonzero" fill-opacity="1" /><path clip-path="url(#clip090)" d="M184.445 704.569 Q180.834 704.569 179.005 708.134 Q177.2 711.676 177.2 718.805 Q177.2 725.912 179.005 729.477 Q180.834 733.018 184.445 733.018 Q188.079 733.018 189.885 729.477 Q191.713 725.912 191.713 718.805 Q191.713 711.676 189.885 708.134 Q188.079 704.569 184.445 704.569 M184.445 700.866 Q190.255 700.866 193.311 705.472 Q196.389 710.056 196.389 718.805 Q196.389 727.532 193.311 732.139 Q190.255 736.722 184.445 736.722 Q178.635 736.722 175.556 732.139 Q172.501 727.532 172.501 718.805 Q172.501 710.056 175.556 705.472 Q178.635 700.866 184.445 700.866 Z" fill="#000000" fill-rule="nonzero" fill-opacity="1" /><path clip-path="url(#clip090)" d="M144.098 400.005 L166.32 400.005 L166.32 401.995 L153.774 434.565 L148.89 434.565 L160.695 403.94 L144.098 403.94 L144.098 400.005 Z" fill="#000000" fill-rule="nonzero" fill-opacity="1" /><path clip-path="url(#clip090)" d="M175.487 400.005 L193.843 400.005 L193.843 403.94 L179.769 403.94 L179.769 412.412 Q180.788 412.065 181.806 411.903 Q182.825 411.717 183.843 411.717 Q189.63 411.717 193.01 414.889 Q196.389 418.06 196.389 423.477 Q196.389 429.055 192.917 432.157 Q189.445 435.236 183.126 435.236 Q180.95 435.236 178.681 434.865 Q176.436 434.495 174.028 433.754 L174.028 429.055 Q176.112 430.19 178.334 430.745 Q180.556 431.301 183.033 431.301 Q187.038 431.301 189.375 429.194 Q191.713 427.088 191.713 423.477 Q191.713 419.866 189.375 417.759 Q187.038 415.653 183.033 415.653 Q181.158 415.653 179.283 416.069 Q177.431 416.486 175.487 417.366 L175.487 400.005 Z" fill="#000000" fill-rule="nonzero" fill-opacity="1" /><path clip-path="url(#clip090)" d="M114.931 129.143 L122.57 129.143 L122.57 102.778 L114.26 104.444 L114.26 100.185 L122.524 98.5183 L127.2 98.5183 L127.2 129.143 L134.839 129.143 L134.839 133.078 L114.931 133.078 L114.931 129.143 Z" fill="#000000" fill-rule="nonzero" fill-opacity="1" /><path clip-path="url(#clip090)" d="M154.283 101.597 Q150.672 101.597 148.843 105.162 Q147.038 108.703 147.038 115.833 Q147.038 122.939 148.843 126.504 Q150.672 130.046 154.283 130.046 Q157.917 130.046 159.723 126.504 Q161.552 122.939 161.552 115.833 Q161.552 108.703 159.723 105.162 Q157.917 101.597 154.283 101.597 M154.283 97.8933 Q160.093 97.8933 163.149 102.5 Q166.227 107.083 166.227 115.833 Q166.227 124.56 163.149 129.166 Q160.093 133.75 154.283 133.75 Q148.473 133.75 145.394 129.166 Q142.339 124.56 142.339 115.833 Q142.339 107.083 145.394 102.5 Q148.473 97.8933 154.283 97.8933 Z" fill="#000000" fill-rule="nonzero" fill-opacity="1" /><path clip-path="url(#clip090)" d="M184.445 101.597 Q180.834 101.597 179.005 105.162 Q177.2 108.703 177.2 115.833 Q177.2 122.939 179.005 126.504 Q180.834 130.046 184.445 130.046 Q188.079 130.046 189.885 126.504 Q191.713 122.939 191.713 115.833 Q191.713 108.703 189.885 105.162 Q188.079 101.597 184.445 101.597 M184.445 97.8933 Q190.255 97.8933 193.311 102.5 Q196.389 107.083 196.389 115.833 Q196.389 124.56 193.311 129.166 Q190.255 133.75 184.445 133.75 Q178.635 133.75 175.556 129.166 Q172.501 124.56 172.501 115.833 Q172.501 107.083 175.556 102.5 Q178.635 97.8933 184.445 97.8933 Z" fill="#000000" fill-rule="nonzero" fill-opacity="1" /><path clip-path="url(#clip090)" d="M67.3143 733.525 Q73.68 736.008 75.6216 738.363 Q77.5631 740.718 77.5631 744.665 L77.5631 749.344 L72.6615 749.344 L72.6615 745.906 Q72.6615 743.487 71.5157 742.151 Q70.3699 740.814 66.1048 739.191 L63.4312 738.14 L28.3562 752.559 L28.3562 746.352 L56.238 735.212 L28.3562 724.072 L28.3562 717.865 L67.3143 733.525 Z" fill="#000000" fill-rule="nonzero" fill-opacity="1" /><polyline clip-path="url(#clip092)" style="stroke:#009af9; stroke-linecap:round; stroke-linejoin:round; stroke-width:4; stroke-opacity:1; fill:none" points="292.4,1321.74 302.401,1286.1 312.403,1251.51 322.405,1217.95 332.407,1185.38 342.408,1153.76 352.41,1123.09 362.412,1093.32 372.414,1064.43 382.415,1036.39 392.417,1009.18 402.419,982.781 412.42,957.157 422.422,932.292 432.424,908.161 442.426,884.743 452.427,862.017 462.429,839.963 472.431,818.561 482.433,797.791 492.434,777.635 502.436,758.075 512.438,739.093 522.439,720.671 532.441,702.795 542.443,685.446 552.445,668.611 562.446,652.273 572.448,636.417 582.45,621.031 592.452,606.099 602.453,591.608 612.455,577.546 622.457,563.899 632.459,550.656 642.46,537.804 652.462,525.332 662.464,513.228 672.465,501.482 682.467,490.084 692.469,479.022 702.471,468.287 712.472,457.869 722.474,447.76 732.476,437.949 742.478,428.428 752.479,419.188 762.481,410.222 772.483,401.52 782.484,393.076 792.486,384.881 802.488,376.928 812.49,369.211 822.491,361.721 832.493,354.453 842.495,347.4 852.497,340.555 862.498,333.912 872.5,327.466 882.502,321.211 892.503,315.14 902.505,309.248 912.507,303.531 922.509,297.983 932.51,292.598 942.512,287.373 952.514,282.302 962.516,277.381 972.517,272.606 982.519,267.971 992.521,263.474 1002.52,259.11 1012.52,254.874 1022.53,250.764 1032.53,246.775 1042.53,242.904 1052.53,239.147 1062.53,235.502 1072.53,231.964 1082.54,228.531 1092.54,225.199 1102.54,221.966 1112.54,218.828 1122.54,215.783 1132.54,212.828 1142.55,209.96 1152.55,207.178 1162.55,204.477 1172.55,201.856 1182.55,199.313 1192.56,196.844 1202.56,194.449 1212.56,192.125 1222.56,189.869 1232.56,187.68 1242.56,185.555 1252.57,183.494 1262.57,181.493 1272.57,179.551 1282.57,177.667 1292.57,175.839 1302.57,174.064 1312.58,172.342 1322.58,170.671 1332.58,169.049 1342.58,167.476 1352.58,165.948 1362.58,164.466 1372.59,163.028 1382.59,161.632 1392.59,160.277 1402.59,158.963 1412.59,157.687 1422.6,156.449 1432.6,155.248 1442.6,154.082 1452.6,152.95 1462.6,151.852 1472.6,150.787 1482.61,149.753 1492.61,148.749 1502.61,147.775 1512.61,146.83 1522.61,145.913 1532.61,145.023 1542.62,144.159 1552.62,143.321 1562.62,142.508 1572.62,141.718 1582.62,140.952 1592.62,140.209 1602.63,139.487 1612.63,138.787 1622.63,138.108 1632.63,137.449 1642.63,136.809 1652.63,136.188 1662.64,135.585 1672.64,135 1682.64,134.433 1692.64,133.882 1702.64,133.348 1712.65,132.829 1722.65,132.326 1732.65,131.837 1742.65,131.363 1752.65,130.903 1762.65,130.457 1772.66,130.024 1782.66,129.603 1792.66,129.195 1802.66,128.799 1812.66,128.415 1822.66,128.042 1832.67,127.68 1842.67,127.329 1852.67,126.988 1862.67,126.658 1872.67,126.337 1882.67,126.025 1892.68,125.723 1902.68,125.43 1912.68,125.145 1922.68,124.869 1932.68,124.601 1942.69,124.341 1952.69,124.088 1962.69,123.843 1972.69,123.605 1982.69,123.375 1992.69,123.151 2002.7,122.933 2012.7,122.722 2022.7,122.518 2032.7,122.319 2042.7,122.127 2052.7,121.94 2062.71,121.758 2072.71,121.582 2082.71,121.411 2092.71,121.245 2102.71,121.084 2112.71,120.928 2122.72,120.776 2132.72,120.629 2142.72,120.486 2152.72,120.348 2162.72,120.213 2172.72,120.083 2182.73,119.956 2192.73,119.833 2202.73,119.714 2212.73,119.598 2222.73,119.486 2232.74,119.377 2242.74,119.271 2252.74,119.169 2262.74,119.069 2272.74,118.972 2282.74,118.879 2292.75,118.788 "/>
<polyline clip-path="url(#clip092)" style="stroke:#e26f46; stroke-linecap:round; stroke-linejoin:round; stroke-width:4; stroke-opacity:1; fill:none" points="292.4,1321.74 293.1,1321.74 293.8,1321.72 294.5,1321.67 295.2,1321.58 295.9,1321.44 296.6,1321.24 297.301,1320.98 298.001,1320.65 298.701,1320.24 299.401,1319.76 300.101,1319.21 300.801,1318.58 301.501,1317.87 302.201,1317.08 302.902,1316.22 303.602,1315.29 304.302,1314.28 305.002,1313.2 305.702,1312.06 306.402,1310.85 307.102,1309.57 307.802,1308.23 308.503,1306.84 309.203,1305.38 309.903,1303.87 310.603,1302.32 311.303,1300.71 312.003,1299.05 312.703,1297.36 313.403,1295.61 314.103,1293.84 314.804,1292.02 315.504,1290.17 316.204,1288.28 316.904,1286.37 317.604,1284.42 318.304,1282.45 319.004,1280.45 319.704,1278.43 320.405,1276.39 321.105,1274.32 321.805,1272.24 322.505,1270.14 323.205,1268.02 323.905,1265.89 324.605,1263.75 325.305,1261.59 326.006,1259.42 326.706,1257.24 327.406,1255.05 328.106,1252.85 328.806,1250.64 329.506,1248.43 330.206,1246.2 330.906,1243.98 331.606,1241.75 332.307,1239.51 333.007,1237.27 333.707,1235.03 334.407,1232.78 335.107,1230.54 335.807,1228.29 336.507,1226.04 337.207,1223.78 337.908,1221.53 338.608,1219.28 339.308,1217.03 340.008,1214.78 340.708,1212.52 341.408,1210.27 342.108,1208.02 342.808,1205.78 343.509,1203.53 344.209,1201.29 344.909,1199.04 345.609,1196.81 346.309,1194.57 347.009,1192.33 347.709,1190.1 348.409,1187.87 349.11,1185.65 349.81,1183.42 350.51,1181.2 351.21,1178.99 351.91,1176.77 352.61,1174.56 353.31,1172.36 354.01,1170.15 354.71,1167.95 355.411,1165.76 356.111,1163.57 356.811,1161.38 357.511,1159.19 358.211,1157.01 358.911,1154.84 359.611,1152.67 360.311,1150.5 361.012,1148.33 361.712,1146.17 362.412,1144.02 363.112,1141.87 363.812,1139.72 364.512,1137.57 365.212,1135.44 365.912,1133.3 366.613,1131.17 367.313,1129.04 368.013,1126.92 368.713,1124.8 369.413,1122.69 370.113,1120.58 370.813,1118.47 371.513,1116.37 372.214,1114.27 372.914,1112.18 373.614,1110.09 374.314,1108.01 375.014,1105.93 375.714,1103.85 376.414,1101.78 377.114,1099.71 377.814,1097.65 378.515,1095.59 379.215,1093.54 379.915,1091.49 380.615,1089.44 381.315,1087.4 382.015,1085.36 382.715,1083.33 383.415,1081.3 384.116,1079.27 384.816,1077.25 385.516,1075.24 386.216,1073.22 386.916,1071.22 387.616,1069.21 388.316,1067.21 389.016,1065.22 389.717,1063.23 390.417,1061.24 391.117,1059.26 391.817,1057.28 392.517,1055.3 393.217,1053.33 393.917,1051.36 394.617,1049.4 395.318,1047.44 396.018,1045.49 396.718,1043.54 397.418,1041.59 398.118,1039.65 398.818,1037.71 399.518,1035.78 400.218,1033.85 400.918,1031.92 401.619,1030 402.319,1028.08 403.019,1026.17 403.719,1024.26 404.419,1022.35 405.119,1020.45 405.819,1018.56 406.519,1016.66 407.22,1014.77 407.92,1012.89 408.62,1011 409.32,1009.13 410.02,1007.25 410.72,1005.38 411.42,1003.52 412.12,1001.65 412.821,999.796 413.521,997.941 414.221,996.091 414.921,994.244 415.621,992.401 416.321,990.562 417.021,988.727 417.721,986.896 418.422,985.069 419.122,983.245 419.822,981.425 420.522,979.609 421.222,977.797 421.922,975.989 422.622,974.185 423.322,972.384 424.022,970.587 424.723,968.794 425.423,967.004 426.123,965.219 426.823,963.437 427.523,961.659 428.223,959.884 428.923,958.113 429.623,956.346 430.324,954.583 431.024,952.824 431.724,951.068 432.424,949.315 433.124,947.567 433.824,945.822 434.524,944.081 435.224,942.343 435.925,940.609 436.625,938.879 437.325,937.152 438.025,935.429 438.725,933.71 439.425,931.994 440.125,930.282 440.825,928.573 441.526,926.868 442.226,925.167 442.926,923.469 443.626,921.775 444.326,920.084 445.026,918.397 445.726,916.713 446.426,915.033 447.126,913.356 447.827,911.683 448.527,910.013 449.227,908.347 449.927,906.685 450.627,905.026 451.327,903.37 452.027,901.718 452.727,900.069 453.428,898.424 454.128,896.782 454.828,895.144 455.528,893.509 456.228,891.877 456.928,890.249 457.628,888.625 458.328,887.003 459.029,885.386 459.729,883.771 460.429,882.16 461.129,880.552 461.829,878.948 462.529,877.347 463.229,875.75 463.929,874.155 464.629,872.564 465.33,870.977 466.03,869.393 466.73,867.812 467.43,866.234 468.13,864.66 468.83,863.089 469.53,861.521 470.23,859.957 470.931,858.396 471.631,856.838 472.331,855.284 473.031,853.732 473.731,852.184 474.431,850.639 475.131,849.098 475.831,847.56 476.532,846.024 477.232,844.493 477.932,842.964 478.632,841.438 479.332,839.916 480.032,838.397 480.732,836.881 481.432,835.369 482.133,833.859 482.833,832.353 483.533,830.85 484.233,829.35 484.933,827.853 485.633,826.359 486.333,824.868 487.033,823.381 487.733,821.896 488.434,820.415 489.134,818.937 489.834,817.462 490.534,815.99 491.234,814.521 491.934,813.055 492.634,811.593 493.334,810.133 494.035,808.677 494.735,807.223 495.435,805.773 496.135,804.325 496.835,802.881 497.535,801.439 498.235,800.001 498.935,798.566 499.636,797.133 500.336,795.704 501.036,794.278 501.736,792.855 502.436,791.434 503.136,790.017 503.836,788.602 504.536,787.191 505.237,785.783 505.937,784.377 506.637,782.975 507.337,781.575 508.037,780.178 508.737,778.785 509.437,777.394 510.137,776.006 510.837,774.621 511.538,773.239 512.238,771.86 512.938,770.483 513.638,769.11 514.338,767.739 515.038,766.372 515.738,765.007 516.438,763.645 517.139,762.286 517.839,760.93 518.539,759.577 519.239,758.226 519.939,756.878 520.639,755.533 521.339,754.191 522.039,752.852 522.74,751.516 523.44,750.182 524.14,748.851 524.84,747.523 525.54,746.198 526.24,744.876 526.94,743.556 527.64,742.239 528.341,740.925 529.041,739.614 529.741,738.305 530.441,736.999 531.141,735.696 531.841,734.395 532.541,733.098 533.241,731.803 533.941,730.511 534.642,729.221 535.342,727.934 536.042,726.65 536.742,725.369 537.442,724.09 538.142,722.814 538.842,721.54 539.542,720.27 540.243,719.002 540.943,717.736 541.643,716.473 542.343,715.213 543.043,713.956 543.743,712.701 544.443,711.449 545.143,710.199 545.844,708.952 546.544,707.708 547.244,706.466 547.944,705.227 548.644,703.991 549.344,702.757 550.044,701.526 550.744,700.297 551.445,699.071 552.145,697.847 552.845,696.626 553.545,695.408 554.245,694.192 554.945,692.978 555.645,691.768 556.345,690.559 557.045,689.354 557.746,688.15 558.446,686.95 559.146,685.752 559.846,684.556 560.546,683.363 561.246,682.172 561.946,680.984 562.646,679.798 563.347,678.615 564.047,677.434 564.747,676.256 565.447,675.081 566.147,673.907 566.847,672.737 567.547,671.568 568.247,670.402 568.948,669.239 569.648,668.078 570.348,666.919 571.048,665.763 571.748,664.609 572.448,663.458 573.148,662.309 573.848,661.163 574.548,660.019 575.249,658.877 575.949,657.738 576.649,656.601 577.349,655.466 578.049,654.334 578.749,653.205 579.449,652.077 580.149,650.952 580.85,649.83 581.55,648.709 582.25,647.591 582.95,646.476 583.65,645.362 584.35,644.252 585.05,643.143 585.75,642.037 586.451,640.933 587.151,639.831 587.851,638.732 588.551,637.635 589.251,636.54 589.951,635.448 590.651,634.358 591.351,633.27 592.052,632.184 592.752,631.101 593.452,630.02 594.152,628.941 594.852,627.865 595.552,626.79 596.252,625.719 596.952,624.649 597.652,623.581 598.353,622.516 599.053,621.453 599.753,620.392 600.453,619.334 601.153,618.278 601.853,617.223 602.553,616.172 603.253,615.122 603.954,614.074 604.654,613.029 605.354,611.986 606.054,610.945 606.754,609.906 607.454,608.87 608.154,607.835 608.854,606.803 609.555,605.773 610.255,604.745 610.955,603.72 611.655,602.696 612.355,601.675 613.055,600.655 613.755,599.638 614.455,598.623 615.156,597.61 615.856,596.6 616.556,595.591 617.256,594.585 617.956,593.58 618.656,592.578 619.356,591.578 620.056,590.58 620.756,589.584 621.457,588.59 622.157,587.598 622.857,586.608 623.557,585.62 624.257,584.635 624.957,583.651 625.657,582.67 626.357,581.691 627.058,580.713 627.758,579.738 628.458,578.765 629.158,577.793 629.858,576.824 630.558,575.857 631.258,574.892 631.958,573.929 632.659,572.968 633.359,572.009 634.059,571.052 634.759,570.097 635.459,569.144 636.159,568.193 636.859,567.244 637.559,566.297 638.26,565.352 638.96,564.408 639.66,563.467 640.36,562.528 641.06,561.591 641.76,560.656 642.46,559.723 643.16,558.791 643.86,557.862 644.561,556.935 645.261,556.009 645.961,555.086 646.661,554.164 647.361,553.245 648.061,552.327 648.761,551.411 649.461,550.497 650.162,549.586 650.862,548.676 651.562,547.768 652.262,546.861 652.962,545.957 653.662,545.055 654.362,544.154 655.062,543.256 655.763,542.359 656.463,541.464 657.163,540.571 657.863,539.68 658.563,538.791 659.263,537.903 659.963,537.018 660.663,536.134 661.364,535.252 662.064,534.373 662.764,533.494 663.464,532.618 664.164,531.744 664.864,530.871 665.564,530.001 666.264,529.132 666.964,528.265 667.665,527.399 668.365,526.536 669.065,525.674 669.765,524.814 670.465,523.956 671.165,523.1 671.865,522.246 672.565,521.393 673.266,520.542 673.966,519.693 674.666,518.846 675.366,518 676.066,517.157 676.766,516.315 677.466,515.474 678.166,514.636 678.867,513.799 679.567,512.964 680.267,512.131 680.967,511.3 681.667,510.47 682.367,509.642 683.067,508.816 683.767,507.991 684.468,507.169 685.168,506.348 685.868,505.528 686.568,504.711 687.268,503.895 687.968,503.081 688.668,502.268 689.368,501.458 690.068,500.649 690.769,499.841 691.469,499.036 692.169,498.232 692.869,497.429 693.569,496.629 694.269,495.83 694.969,495.033 695.669,494.237 696.37,493.443 697.07,492.651 697.77,491.86 698.47,491.072 699.17,490.284 699.87,489.499 700.57,488.715 701.27,487.932 701.971,487.152 702.671,486.373 703.371,485.595 704.071,484.82 704.771,484.045 705.471,483.273 706.171,482.502 706.871,481.733 707.571,480.965 708.272,480.199 708.972,479.435 709.672,478.672 710.372,477.911 711.072,477.151 711.772,476.393 712.472,475.636 713.172,474.882 713.873,474.128 714.573,473.377 715.273,472.626 715.973,471.878 716.673,471.131 717.373,470.386 718.073,469.642 718.773,468.899 719.474,468.159 720.174,467.419 720.874,466.682 721.574,465.946 722.274,465.211 722.974,464.478 723.674,463.747 724.374,463.017 725.075,462.288 725.775,461.562 726.475,460.836 727.175,460.112 727.875,459.39 728.575,458.669 729.275,457.95 729.975,457.232 730.675,456.516 731.376,455.801 732.076,455.088 732.776,454.376 733.476,453.666 734.176,452.957 734.876,452.25 735.576,451.544 736.276,450.84 736.977,450.137 737.677,449.436 738.377,448.736 739.077,448.037 739.777,447.34 740.477,446.645 741.177,445.951 741.877,445.258 742.578,444.567 743.278,443.877 743.978,443.189 744.678,442.502 745.378,441.817 746.078,441.133 746.778,440.45 747.478,439.769 748.179,439.09 748.879,438.412 749.579,437.735 750.279,437.059 750.979,436.385 751.679,435.713 752.379,435.042 753.079,434.372 753.779,433.704 754.48,433.037 755.18,432.371 755.88,431.707 756.58,431.045 757.28,430.383 757.98,429.723 758.68,429.065 759.38,428.408 760.081,427.752 760.781,427.097 761.481,426.444 762.181,425.793 762.881,425.142 763.581,424.493 764.281,423.846 764.981,423.2 765.682,422.555 766.382,421.911 767.082,421.269 767.782,420.628 768.482,419.989 769.182,419.351 769.882,418.714 770.582,418.078 771.283,417.444 771.983,416.812 772.683,416.18 773.383,415.55 774.083,414.921 774.783,414.294 775.483,413.667 776.183,413.043 776.883,412.419 777.584,411.797 778.284,411.176 778.984,410.556 779.684,409.938 780.384,409.321 781.084,408.705 781.784,408.091 782.484,407.477 783.185,406.866 783.885,406.255 784.585,405.646 785.285,405.038 785.985,404.431 786.685,403.825 787.385,403.221 788.085,402.618 788.786,402.016 789.486,401.416 790.186,400.817 790.886,400.219 791.586,399.622 792.286,399.027 792.986,398.433 793.686,397.84 794.387,397.248 795.087,396.658 795.787,396.069 796.487,395.481 797.187,394.894 797.887,394.308 798.587,393.724 799.287,393.141 799.987,392.559 800.688,391.979 801.388,391.399 802.088,390.821 802.788,390.244 803.488,389.669 804.188,389.094 804.888,388.521 805.588,387.949 806.289,387.378 806.989,386.808 807.689,386.239 808.389,385.672 809.089,385.106 809.789,384.541 810.489,383.977 811.189,383.415 811.89,382.853 812.59,382.293 813.29,381.734 813.99,381.176 814.69,380.619 815.39,380.064 816.09,379.509 816.79,378.956 817.49,378.404 818.191,377.853 818.891,377.304 819.591,376.755 820.291,376.208 820.991,375.661 821.691,375.116 822.391,374.572 823.091,374.029 823.792,373.488 824.492,372.947 825.192,372.408 825.892,371.869 826.592,371.332 827.292,370.796 827.992,370.261 828.692,369.727 829.393,369.195 830.093,368.663 830.793,368.132 831.493,367.603 832.193,367.075 832.893,366.548 833.593,366.022 834.293,365.497 834.994,364.973 835.694,364.45 836.394,363.929 837.094,363.408 837.794,362.889 838.494,362.37 839.194,361.853 839.894,361.337 840.594,360.822 841.295,360.308 841.995,359.795 842.695,359.283 843.395,358.772 844.095,358.263 844.795,357.754 845.495,357.246 846.195,356.74 846.896,356.234 847.596,355.73 848.296,355.227 848.996,354.724 849.696,354.223 850.396,353.723 851.096,353.224 851.796,352.726 852.497,352.229 853.197,351.733 853.897,351.238 854.597,350.744 855.297,350.251 855.997,349.759 856.697,349.268 857.397,348.779 858.098,348.29 858.798,347.802 859.498,347.316 860.198,346.83 860.898,346.345 861.598,345.862 862.298,345.379 862.998,344.897 863.698,344.417 864.399,343.937 865.099,343.459 865.799,342.981 866.499,342.504 867.199,342.029 867.899,341.554 868.599,341.081 869.299,340.608 870,340.136 870.7,339.666 871.4,339.196 872.1,338.728 872.8,338.26 873.5,337.793 874.2,337.327 874.9,336.863 875.601,336.399 876.301,335.936 877.001,335.474 877.701,335.014 878.401,334.554 879.101,334.095 879.801,333.637 880.501,333.18 881.202,332.724 881.902,332.269 882.602,331.815 883.302,331.362 884.002,330.909 884.702,330.458 885.402,330.008 886.102,329.558 886.802,329.11 887.503,328.662 888.203,328.216 888.903,327.77 889.603,327.326 890.303,326.882 891.003,326.439 891.703,325.997 892.403,325.556 893.104,325.116 893.804,324.677 894.504,324.239 895.204,323.802 895.904,323.365 896.604,322.93 897.304,322.495 898.004,322.062 898.705,321.629 899.405,321.197 900.105,320.766 900.805,320.336 901.505,319.907 902.205,319.479 902.905,319.052 903.605,318.625 904.306,318.2 905.006,317.775 905.706,317.352 906.406,316.929 907.106,316.507 907.806,316.086 908.506,315.666 909.206,315.246 909.906,314.828 910.607,314.411 911.307,313.994 912.007,313.578 912.707,313.163 913.407,312.749 914.107,312.336 914.807,311.924 915.507,311.512 916.208,311.102 916.908,310.692 917.608,310.283 918.308,309.875 919.008,309.468 919.708,309.062 920.408,308.656 921.108,308.252 921.809,307.848 922.509,307.445 923.209,307.043 923.909,306.642 924.609,306.242 925.309,305.842 926.009,305.443 926.709,305.046 927.409,304.649 928.11,304.252 928.81,303.857 929.51,303.463 930.21,303.069 930.91,302.676 931.61,302.284 932.31,301.893 933.01,301.502 933.711,301.113 934.411,300.724 935.111,300.336 935.811,299.949 936.511,299.563 937.211,299.177 937.911,298.792 938.611,298.409 939.312,298.026 940.012,297.643 940.712,297.262 941.412,296.881 942.112,296.501 942.812,296.122 943.512,295.744 944.212,295.366 944.913,294.99 945.613,294.614 946.313,294.239 947.013,293.864 947.713,293.491 948.413,293.118 949.113,292.746 949.813,292.375 950.513,292.004 951.214,291.635 951.914,291.266 952.614,290.898 953.314,290.53 954.014,290.164 954.714,289.798 955.414,289.433 956.114,289.069 956.815,288.705 957.515,288.343 958.215,287.981 958.915,287.619 959.615,287.259 960.315,286.899 961.015,286.54 961.715,286.182 962.416,285.825 963.116,285.468 963.816,285.112 964.516,284.757 965.216,284.403 965.916,284.049 966.616,283.696 967.316,283.344 968.017,282.992 968.717,282.641 969.417,282.291 970.117,281.942 970.817,281.594 971.517,281.246 972.217,280.899 972.917,280.552 973.617,280.207 974.318,279.862 975.018,279.518 975.718,279.174 976.418,278.832 977.118,278.49 977.818,278.148 978.518,277.808 979.218,277.468 979.919,277.129 980.619,276.79 981.319,276.453 982.019,276.115 982.719,275.779 983.419,275.444 984.119,275.109 984.819,274.774 985.52,274.441 986.22,274.108 986.92,273.776 987.62,273.445 988.32,273.114 989.02,272.784 989.72,272.455 990.42,272.126 991.121,271.798 991.821,271.471 992.521,271.144 993.221,270.818 993.921,270.493 994.621,270.169 995.321,269.845 996.021,269.522 996.721,269.199 997.422,268.877 998.122,268.556 998.822,268.236 999.522,267.916 1000.22,267.597 1000.92,267.278 1001.62,266.961 1002.32,266.644 1003.02,266.327 1003.72,266.011 1004.42,265.696 1005.12,265.382 1005.82,265.068 1006.52,264.755 1007.22,264.442 1007.92,264.13 1008.62,263.819 1009.32,263.509 1010.02,263.199 1010.72,262.89 1011.42,262.581 1012.12,262.273 1012.82,261.966 1013.52,261.659 1014.22,261.353 1014.92,261.048 1015.62,260.743 1016.32,260.439 1017.02,260.136 1017.73,259.833 1018.43,259.531 1019.13,259.229 1019.83,258.928 1020.53,258.628 1021.23,258.329 1021.93,258.03 1022.63,257.731 1023.33,257.433 1024.03,257.136 1024.73,256.84 1025.43,256.544 1026.13,256.249 1026.83,255.954 1027.53,255.66 1028.23,255.367 1028.93,255.074 1029.63,254.782 1030.33,254.49 1031.03,254.199 1031.73,253.909 1032.43,253.619 1033.13,253.33 1033.83,253.041 1034.53,252.754 1035.23,252.466 1035.93,252.18 1036.63,251.893 1037.33,251.608 1038.03,251.323 1038.73,251.039 1039.43,250.755 1040.13,250.472 1040.83,250.189 1041.53,249.907 1042.23,249.626 1042.93,249.345 1043.63,249.065 1044.33,248.786 1045.03,248.507 1045.73,248.228 1046.43,247.951 1047.13,247.673 1047.83,247.397 1048.53,247.121 1049.23,246.845 1049.93,246.57 1050.63,246.296 1051.33,246.022 1052.03,245.749 1052.73,245.476 1053.43,245.204 1054.13,244.933 1054.83,244.662 1055.53,244.392 1056.23,244.122 1056.93,243.853 1057.63,243.584 1058.33,243.316 1059.03,243.048 1059.73,242.781 1060.43,242.515 1061.13,242.249 1061.83,241.984 1062.53,241.719 1063.23,241.455 1063.93,241.191 1064.63,240.928 1065.33,240.666 1066.03,240.404 1066.73,240.143 1067.43,239.882 1068.13,239.621 1068.83,239.362 1069.53,239.102 1070.23,238.844 1070.93,238.586 1071.63,238.328 1072.33,238.071 1073.03,237.815 1073.73,237.559 1074.43,237.303 1075.14,237.048 1075.84,236.794 1076.54,236.54 1077.24,236.287 1077.94,236.034 1078.64,235.782 1079.34,235.53 1080.04,235.279 1080.74,235.028 1081.44,234.778 1082.14,234.529 1082.84,234.28 1083.54,234.031 1084.24,233.783 1084.94,233.535 1085.64,233.288 1086.34,233.042 1087.04,232.796 1087.74,232.551 1088.44,232.306 1089.14,232.061 1089.84,231.817 1090.54,231.574 1091.24,231.331 1091.94,231.089 1092.64,230.847 1093.34,230.606 1094.04,230.365 1094.74,230.124 1095.44,229.885 1096.14,229.645 1096.84,229.406 1097.54,229.168 1098.24,228.93 1098.94,228.693 1099.64,228.456 1100.34,228.22 1101.04,227.984 1101.74,227.749 1102.44,227.514 1103.14,227.279 1103.84,227.045 1104.54,226.812 1105.24,226.579 1105.94,226.347 1106.64,226.115 1107.34,225.883 1108.04,225.653 1108.74,225.422 1109.44,225.192 1110.14,224.963 1110.84,224.734 1111.54,224.505 1112.24,224.277 1112.94,224.049 1113.64,223.822 1114.34,223.596 1115.04,223.37 1115.74,223.144 1116.44,222.919 1117.14,222.694 1117.84,222.47 1118.54,222.246 1119.24,222.023 1119.94,221.8 1120.64,221.578 1121.34,221.356 1122.04,221.134 1122.74,220.913 1123.44,220.693 1124.14,220.473 1124.84,220.253 1125.54,220.034 1126.24,219.815 1126.94,219.597 1127.64,219.379 1128.34,219.162 1129.04,218.945 1129.74,218.729 1130.44,218.513 1131.14,218.297 1131.84,218.082 1132.54,217.868 1133.25,217.654 1133.95,217.44 1134.65,217.227 1135.35,217.014 1136.05,216.802 1136.75,216.59 1137.45,216.378 1138.15,216.167 1138.85,215.957 1139.55,215.747 1140.25,215.537 1140.95,215.328 1141.65,215.119 1142.35,214.911 1143.05,214.703 1143.75,214.495 1144.45,214.288 1145.15,214.082 1145.85,213.875 1146.55,213.67 1147.25,213.464 1147.95,213.26 1148.65,213.055 1149.35,212.851 1150.05,212.647 1150.75,212.444 1151.45,212.242 1152.15,212.039 1152.85,211.837 1153.55,211.636 1154.25,211.435 1154.95,211.234 1155.65,211.034 1156.35,210.834 1157.05,210.635 1157.75,210.436 1158.45,210.237 1159.15,210.039 1159.85,209.842 1160.55,209.644 1161.25,209.447 1161.95,209.251 1162.65,209.055 1163.35,208.859 1164.05,208.664 1164.75,208.469 1165.45,208.275 1166.15,208.081 1166.85,207.887 1167.55,207.694 1168.25,207.501 1168.95,207.309 1169.65,207.117 1170.35,206.925 1171.05,206.734 1171.75,206.543 1172.45,206.353 1173.15,206.163 1173.85,205.973 1174.55,205.784 1175.25,205.596 1175.95,205.407 1176.65,205.219 1177.35,205.032 1178.05,204.844 1178.75,204.658 1179.45,204.471 1180.15,204.285 1180.85,204.1 1181.55,203.914 1182.25,203.729 1182.95,203.545 1183.65,203.361 1184.35,203.177 1185.05,202.994 1185.75,202.811 1186.45,202.628 1187.15,202.446 1187.85,202.265 1188.55,202.083 1189.25,201.902 1189.95,201.722 1190.66,201.541 1191.36,201.361 1192.06,201.182 1192.76,201.003 1193.46,200.824 1194.16,200.646 1194.86,200.468 1195.56,200.29 1196.26,200.113 1196.96,199.936 1197.66,199.759 1198.36,199.583 1199.06,199.408 1199.76,199.232 1200.46,199.057 1201.16,198.882 1201.86,198.708 1202.56,198.534 1203.26,198.361 1203.96,198.188 1204.66,198.015 1205.36,197.842 1206.06,197.67 1206.76,197.498 1207.46,197.327 1208.16,197.156 1208.86,196.985 1209.56,196.815 1210.26,196.645 1210.96,196.475 1211.66,196.306 1212.36,196.137 1213.06,195.969 1213.76,195.801 1214.46,195.633 1215.16,195.465 1215.86,195.298 1216.56,195.131 1217.26,194.965 1217.96,194.799 1218.66,194.633 1219.36,194.468 1220.06,194.303 1220.76,194.138 1221.46,193.974 1222.16,193.81 1222.86,193.646 1223.56,193.483 1224.26,193.32 1224.96,193.157 1225.66,192.995 1226.36,192.833 1227.06,192.671 1227.76,192.51 1228.46,192.349 1229.16,192.189 1229.86,192.028 1230.56,191.868 1231.26,191.709 1231.96,191.55 1232.66,191.391 1233.36,191.232 1234.06,191.074 1234.76,190.916 1235.46,190.758 1236.16,190.601 1236.86,190.444 1237.56,190.288 1238.26,190.131 1238.96,189.975 1239.66,189.82 1240.36,189.664 1241.06,189.509 1241.76,189.355 1242.46,189.201 1243.16,189.047 1243.86,188.893 1244.56,188.74 1245.26,188.587 1245.96,188.434 1246.66,188.281 1247.36,188.129 1248.06,187.978 1248.77,187.826 1249.47,187.675 1250.17,187.524 1250.87,187.374 1251.57,187.224 1252.27,187.074 1252.97,186.924 1253.67,186.775 1254.37,186.626 1255.07,186.478 1255.77,186.329 1256.47,186.181 1257.17,186.034 1257.87,185.886 1258.57,185.739 1259.27,185.593 1259.97,185.446 1260.67,185.3 1261.37,185.154 1262.07,185.009 1262.77,184.864 1263.47,184.719 1264.17,184.574 1264.87,184.43 1265.57,184.286 1266.27,184.142 1266.97,183.999 1267.67,183.856 1268.37,183.713 1269.07,183.571 1269.77,183.428 1270.47,183.287 1271.17,183.145 1271.87,183.004 1272.57,182.863 1273.27,182.722 1273.97,182.582 1274.67,182.442 1275.37,182.302 1276.07,182.162 1276.77,182.023 1277.47,181.884 1278.17,181.746 1278.87,181.607 1279.57,181.469 1280.27,181.331 1280.97,181.194 1281.67,181.057 1282.37,180.92 1283.07,180.783 1283.77,180.647 1284.47,180.511 1285.17,180.375 1285.87,180.24 1286.57,180.104 1287.27,179.969 1287.97,179.835 1288.67,179.701 1289.37,179.566 1290.07,179.433 1290.77,179.299 1291.47,179.166 1292.17,179.033 1292.87,178.9 1293.57,178.768 1294.27,178.636 1294.97,178.504 1295.67,178.373 1296.37,178.241 1297.07,178.11 1297.77,177.98 1298.47,177.849 1299.17,177.719 1299.87,177.589 1300.57,177.459 1301.27,177.33 1301.97,177.201 1302.67,177.072 1303.37,176.944 1304.07,176.815 1304.77,176.687 1305.47,176.56 1306.17,176.432 1306.88,176.305 1307.58,176.178 1308.28,176.051 1308.98,175.925 1309.68,175.799 1310.38,175.673 1311.08,175.547 1311.78,175.422 1312.48,175.297 1313.18,175.172 1313.88,175.048 1314.58,174.923 1315.28,174.799 1315.98,174.676 1316.68,174.552 1317.38,174.429 1318.08,174.306 1318.78,174.183 1319.48,174.061 1320.18,173.938 1320.88,173.816 1321.58,173.695 1322.28,173.573 1322.98,173.452 1323.68,173.331 1324.38,173.21 1325.08,173.09 1325.78,172.97 1326.48,172.85 1327.18,172.73 1327.88,172.611 1328.58,172.492 1329.28,172.373 1329.98,172.254 1330.68,172.135 1331.38,172.017 1332.08,171.899 1332.78,171.782 1333.48,171.664 1334.18,171.547 1334.88,171.43 1335.58,171.313 1336.28,171.197 1336.98,171.081 1337.68,170.965 1338.38,170.849 1339.08,170.734 1339.78,170.618 1340.48,170.503 1341.18,170.389 1341.88,170.274 1342.58,170.16 1343.28,170.046 1343.98,169.932 1344.68,169.818 1345.38,169.705 1346.08,169.592 1346.78,169.479 1347.48,169.366 1348.18,169.254 1348.88,169.142 1349.58,169.03 1350.28,168.918 1350.98,168.807 1351.68,168.696 1352.38,168.585 1353.08,168.474 1353.78,168.364 1354.48,168.253 1355.18,168.143 1355.88,168.033 1356.58,167.924 1357.28,167.814 1357.98,167.705 1358.68,167.596 1359.38,167.488 1360.08,167.379 1360.78,167.271 1361.48,167.163 1362.18,167.055 1362.88,166.948 1363.58,166.841 1364.29,166.734 1364.99,166.627 1365.69,166.52 1366.39,166.414 1367.09,166.307 1367.79,166.201 1368.49,166.096 1369.19,165.99 1369.89,165.885 1370.59,165.78 1371.29,165.675 1371.99,165.57 1372.69,165.466 1373.39,165.362 1374.09,165.258 1374.79,165.154 1375.49,165.051 1376.19,164.947 1376.89,164.844 1377.59,164.741 1378.29,164.639 1378.99,164.536 1379.69,164.434 1380.39,164.332 1381.09,164.23 1381.79,164.128 1382.49,164.027 1383.19,163.926 1383.89,163.825 1384.59,163.724 1385.29,163.624 1385.99,163.523 1386.69,163.423 1387.39,163.323 1388.09,163.224 1388.79,163.124 1389.49,163.025 1390.19,162.926 1390.89,162.827 1391.59,162.728 1392.29,162.63 1392.99,162.531 1393.69,162.433 1394.39,162.336 1395.09,162.238 1395.79,162.141 1396.49,162.043 1397.19,161.946 1397.89,161.85 1398.59,161.753 1399.29,161.657 1399.99,161.56 1400.69,161.464 1401.39,161.369 1402.09,161.273 1402.79,161.178 1403.49,161.082 1404.19,160.987 1404.89,160.893 1405.59,160.798 1406.29,160.704 1406.99,160.609 1407.69,160.515 1408.39,160.422 1409.09,160.328 1409.79,160.235 1410.49,160.141 1411.19,160.048 1411.89,159.955 1412.59,159.863 1413.29,159.77 1413.99,159.678 1414.69,159.586 1415.39,159.494 1416.09,159.403 1416.79,159.311 1417.49,159.22 1418.19,159.129 1418.89,159.038 1419.59,158.947 1420.29,158.857 1420.99,158.766 1421.69,158.676 1422.4,158.586 1423.1,158.496 1423.8,158.407 1424.5,158.317 1425.2,158.228 1425.9,158.139 1426.6,158.05 1427.3,157.962 1428,157.873 1428.7,157.785 1429.4,157.697 1430.1,157.609 1430.8,157.521 1431.5,157.434 1432.2,157.347 1432.9,157.259 1433.6,157.172 1434.3,157.086 1435,156.999 1435.7,156.913 1436.4,156.826 1437.1,156.74 1437.8,156.654 1438.5,156.569 1439.2,156.483 1439.9,156.398 1440.6,156.313 1441.3,156.228 1442,156.143 1442.7,156.058 1443.4,155.974 1444.1,155.889 1444.8,155.805 1445.5,155.721 1446.2,155.638 1446.9,155.554 1447.6,155.471 1448.3,155.387 1449,155.304 1449.7,155.222 1450.4,155.139 1451.1,155.056 1451.8,154.974 1452.5,154.892 1453.2,154.81 1453.9,154.728 1454.6,154.646 1455.3,154.565 1456,154.483 1456.7,154.402 1457.4,154.321 1458.1,154.24 1458.8,154.16 1459.5,154.079 1460.2,153.999 1460.9,153.919 1461.6,153.839 1462.3,153.759 1463,153.679 1463.7,153.6 1464.4,153.521 1465.1,153.442 1465.8,153.363 1466.5,153.284 1467.2,153.205 1467.9,153.127 1468.6,153.048 1469.3,152.97 1470,152.892 1470.7,152.814 1471.4,152.737 1472.1,152.659 1472.8,152.582 1473.5,152.505 1474.2,152.428 1474.9,152.351 1475.6,152.274 1476.3,152.198 1477,152.121 1477.7,152.045 1478.4,151.969 1479.1,151.893 1479.8,151.818 1480.51,151.742 1481.21,151.667 1481.91,151.591 1482.61,151.516 1483.31,151.441 1484.01,151.367 1484.71,151.292 1485.41,151.218 1486.11,151.143 1486.81,151.069 1487.51,150.995 1488.21,150.921 1488.91,150.848 1489.61,150.774 1490.31,150.701 1491.01,150.627 1491.71,150.554 1492.41,150.481 1493.11,150.409 1493.81,150.336 1494.51,150.264 1495.21,150.191 1495.91,150.119 1496.61,150.047 1497.31,149.975 1498.01,149.904 1498.71,149.832 1499.41,149.761 1500.11,149.689 1500.81,149.618 1501.51,149.547 1502.21,149.477 1502.91,149.406 1503.61,149.335 1504.31,149.265 1505.01,149.195 1505.71,149.125 1506.41,149.055 1507.11,148.985 1507.81,148.916 1508.51,148.846 1509.21,148.777 1509.91,148.708 1510.61,148.639 1511.31,148.57 1512.01,148.501 1512.71,148.432 1513.41,148.364 1514.11,148.296 1514.81,148.227 1515.51,148.159 1516.21,148.091 1516.91,148.024 1517.61,147.956 1518.31,147.889 1519.01,147.821 1519.71,147.754 1520.41,147.687 1521.11,147.62 1521.81,147.553 1522.51,147.487 1523.21,147.42 1523.91,147.354 1524.61,147.288 1525.31,147.222 1526.01,147.156 1526.71,147.09 1527.41,147.024 1528.11,146.959 1528.81,146.894 1529.51,146.828 1530.21,146.763 1530.91,146.698 1531.61,146.633 1532.31,146.569 1533.01,146.504 1533.71,146.44 1534.41,146.376 1535.11,146.311 1535.81,146.247 1536.51,146.183 1537.21,146.12 1537.92,146.056 1538.62,145.993 1539.32,145.929 1540.02,145.866 1540.72,145.803 1541.42,145.74 1542.12,145.677 1542.82,145.615 1543.52,145.552 1544.22,145.49 1544.92,145.427 1545.62,145.365 1546.32,145.303 1547.02,145.241 1547.72,145.179 1548.42,145.118 1549.12,145.056 1549.82,144.995 1550.52,144.934 1551.22,144.873 1551.92,144.812 1552.62,144.751 1553.32,144.69 1554.02,144.629 1554.72,144.569 1555.42,144.509 1556.12,144.448 1556.82,144.388 1557.52,144.328 1558.22,144.268 1558.92,144.209 1559.62,144.149 1560.32,144.09 1561.02,144.03 1561.72,143.971 1562.42,143.912 1563.12,143.853 1563.82,143.794 1564.52,143.735 1565.22,143.677 1565.92,143.618 1566.62,143.56 1567.32,143.502 1568.02,143.444 1568.72,143.386 1569.42,143.328 1570.12,143.27 1570.82,143.212 1571.52,143.155 1572.22,143.097 1572.92,143.04 1573.62,142.983 1574.32,142.926 1575.02,142.869 1575.72,142.812 1576.42,142.756 1577.12,142.699 1577.82,142.643 1578.52,142.586 1579.22,142.53 1579.92,142.474 1580.62,142.418 1581.32,142.362 1582.02,142.307 1582.72,142.251 1583.42,142.195 1584.12,142.14 1584.82,142.085 1585.52,142.03 1586.22,141.975 1586.92,141.92 1587.62,141.865 1588.32,141.81 1589.02,141.756 1589.72,141.701 1590.42,141.647 1591.12,141.593 1591.82,141.539 1592.52,141.485 1593.22,141.431 1593.92,141.377 1594.62,141.323 1595.32,141.27 1596.03,141.216 1596.73,141.163 1597.43,141.11 1598.13,141.057 1598.83,141.004 1599.53,140.951 1600.23,140.898 1600.93,140.845 1601.63,140.793 1602.33,140.74 1603.03,140.688 1603.73,140.636 1604.43,140.584 1605.13,140.532 1605.83,140.48 1606.53,140.428 1607.23,140.376 1607.93,140.325 1608.63,140.273 1609.33,140.222 1610.03,140.171 1610.73,140.12 1611.43,140.069 1612.13,140.018 1612.83,139.967 1613.53,139.916 1614.23,139.866 1614.93,139.815 1615.63,139.765 1616.33,139.714 1617.03,139.664 1617.73,139.614 1618.43,139.564 1619.13,139.514 1619.83,139.465 1620.53,139.415 1621.23,139.365 1621.93,139.316 1622.63,139.267 1623.33,139.217 1624.03,139.168 1624.73,139.119 1625.43,139.07 1626.13,139.022 1626.83,138.973 1627.53,138.924 1628.23,138.876 1628.93,138.827 1629.63,138.779 1630.33,138.731 1631.03,138.683 1631.73,138.635 1632.43,138.587 1633.13,138.539 1633.83,138.491 1634.53,138.444 1635.23,138.396 1635.93,138.349 1636.63,138.301 1637.33,138.254 1638.03,138.207 1638.73,138.16 1639.43,138.113 1640.13,138.066 1640.83,138.02 1641.53,137.973 1642.23,137.927 1642.93,137.88 1643.63,137.834 1644.33,137.788 1645.03,137.741 1645.73,137.695 1646.43,137.649 1647.13,137.604 1647.83,137.558 1648.53,137.512 1649.23,137.467 1649.93,137.421 1650.63,137.376 1651.33,137.331 1652.03,137.285 1652.73,137.24 1653.44,137.195 1654.14,137.151 1654.84,137.106 1655.54,137.061 1656.24,137.016 1656.94,136.972 1657.64,136.927 1658.34,136.883 1659.04,136.839 1659.74,136.795 1660.44,136.751 1661.14,136.707 1661.84,136.663 1662.54,136.619 1663.24,136.575 1663.94,136.532 1664.64,136.488 1665.34,136.445 1666.04,136.402 1666.74,136.358 1667.44,136.315 1668.14,136.272 1668.84,136.229 1669.54,136.186 1670.24,136.144 1670.94,136.101 1671.64,136.058 1672.34,136.016 1673.04,135.974 1673.74,135.931 1674.44,135.889 1675.14,135.847 1675.84,135.805 1676.54,135.763 1677.24,135.721 1677.94,135.679 1678.64,135.637 1679.34,135.596 1680.04,135.554 1680.74,135.513 1681.44,135.471 1682.14,135.43 1682.84,135.389 1683.54,135.348 1684.24,135.307 1684.94,135.266 1685.64,135.225 1686.34,135.184 1687.04,135.144 1687.74,135.103 1688.44,135.063 1689.14,135.022 1689.84,134.982 1690.54,134.942 1691.24,134.901 1691.94,134.861 1692.64,134.821 1693.34,134.782 1694.04,134.742 1694.74,134.702 1695.44,134.662 1696.14,134.623 1696.84,134.583 1697.54,134.544 1698.24,134.504 1698.94,134.465 1699.64,134.426 1700.34,134.387 1701.04,134.348 1701.74,134.309 1702.44,134.27 1703.14,134.232 1703.84,134.193 1704.54,134.154 1705.24,134.116 1705.94,134.077 1706.64,134.039 1707.34,134.001 1708.04,133.963 1708.74,133.924 1709.44,133.886 1710.14,133.848 1710.84,133.811 1711.55,133.773 1712.25,133.735 1712.95,133.697 1713.65,133.66 1714.35,133.622 1715.05,133.585 1715.75,133.548 1716.45,133.511 1717.15,133.473 1717.85,133.436 1718.55,133.399 1719.25,133.362 1719.95,133.326 1720.65,133.289 1721.35,133.252 1722.05,133.215 1722.75,133.179 1723.45,133.142 1724.15,133.106 1724.85,133.07 1725.55,133.034 1726.25,132.997 1726.95,132.961 1727.65,132.925 1728.35,132.889 1729.05,132.853 1729.75,132.818 1730.45,132.782 1731.15,132.746 1731.85,132.711 1732.55,132.675 1733.25,132.64 1733.95,132.605 1734.65,132.569 1735.35,132.534 1736.05,132.499 1736.75,132.464 1737.45,132.429 1738.15,132.394 1738.85,132.359 1739.55,132.325 1740.25,132.29 1740.95,132.255 1741.65,132.221 1742.35,132.186 1743.05,132.152 1743.75,132.118 1744.45,132.083 1745.15,132.049 1745.85,132.015 1746.55,131.981 1747.25,131.947 1747.95,131.913 1748.65,131.88 1749.35,131.846 1750.05,131.812 1750.75,131.779 1751.45,131.745 1752.15,131.712 1752.85,131.678 1753.55,131.645 1754.25,131.612 1754.95,131.578 1755.65,131.545 1756.35,131.512 1757.05,131.479 1757.75,131.446 1758.45,131.414 1759.15,131.381 1759.85,131.348 1760.55,131.316 1761.25,131.283 1761.95,131.251 1762.65,131.218 1763.35,131.186 1764.05,131.154 1764.75,131.121 1765.45,131.089 1766.15,131.057 1766.85,131.025 1767.55,130.993 1768.25,130.961 1768.95,130.929 1769.66,130.898 1770.36,130.866 1771.06,130.834 1771.76,130.803 1772.46,130.771 1773.16,130.74 1773.86,130.709 1774.56,130.677 1775.26,130.646 1775.96,130.615 1776.66,130.584 1777.36,130.553 1778.06,130.522 1778.76,130.491 1779.46,130.46 1780.16,130.429 1780.86,130.399 1781.56,130.368 1782.26,130.338 1782.96,130.307 1783.66,130.277 1784.36,130.246 1785.06,130.216 1785.76,130.186 1786.46,130.156 1787.16,130.125 1787.86,130.095 1788.56,130.065 1789.26,130.035 1789.96,130.006 1790.66,129.976 1791.36,129.946 1792.06,129.916 1792.76,129.887 1793.46,129.857 1794.16,129.828 1794.86,129.798 1795.56,129.769 1796.26,129.74 1796.96,129.71 1797.66,129.681 1798.36,129.652 1799.06,129.623 1799.76,129.594 1800.46,129.565 1801.16,129.536 1801.86,129.507 1802.56,129.479 1803.26,129.45 1803.96,129.421 1804.66,129.393 1805.36,129.364 1806.06,129.336 1806.76,129.307 1807.46,129.279 1808.16,129.251 1808.86,129.222 1809.56,129.194 1810.26,129.166 1810.96,129.138 1811.66,129.11 1812.36,129.082 1813.06,129.054 1813.76,129.027 1814.46,128.999 1815.16,128.971 1815.86,128.943 1816.56,128.916 1817.26,128.888 1817.96,128.861 1818.66,128.834 1819.36,128.806 1820.06,128.779 1820.76,128.752 1821.46,128.724 1822.16,128.697 1822.86,128.67 1823.56,128.643 1824.26,128.616 1824.96,128.589 1825.66,128.563 1826.36,128.536 1827.07,128.509 1827.77,128.482 1828.47,128.456 1829.17,128.429 1829.87,128.403 1830.57,128.376 1831.27,128.35 1831.97,128.324 1832.67,128.297 1833.37,128.271 1834.07,128.245 1834.77,128.219 1835.47,128.193 1836.17,128.167 1836.87,128.141 1837.57,128.115 1838.27,128.089 1838.97,128.063 1839.67,128.038 1840.37,128.012 1841.07,127.986 1841.77,127.961 1842.47,127.935 1843.17,127.91 1843.87,127.884 1844.57,127.859 1845.27,127.834 1845.97,127.808 1846.67,127.783 1847.37,127.758 1848.07,127.733 1848.77,127.708 1849.47,127.683 1850.17,127.658 1850.87,127.633 1851.57,127.608 1852.27,127.584 1852.97,127.559 1853.67,127.534 1854.37,127.51 1855.07,127.485 1855.77,127.461 1856.47,127.436 1857.17,127.412 1857.87,127.387 1858.57,127.363 1859.27,127.339 1859.97,127.315 1860.67,127.29 1861.37,127.266 1862.07,127.242 1862.77,127.218 1863.47,127.194 1864.17,127.17 1864.87,127.146 1865.57,127.123 1866.27,127.099 1866.97,127.075 1867.67,127.052 1868.37,127.028 1869.07,127.004 1869.77,126.981 1870.47,126.957 1871.17,126.934 1871.87,126.911 1872.57,126.887 1873.27,126.864 1873.97,126.841 1874.67,126.818 1875.37,126.795 1876.07,126.771 1876.77,126.748 1877.47,126.726 1878.17,126.703 1878.87,126.68 1879.57,126.657 1880.27,126.634 1880.97,126.611 1881.67,126.589 1882.37,126.566 1883.07,126.543 1883.77,126.521 1884.47,126.498 1885.18,126.476 1885.88,126.454 1886.58,126.431 1887.28,126.409 1887.98,126.387 1888.68,126.364 1889.38,126.342 1890.08,126.32 1890.78,126.298 1891.48,126.276 1892.18,126.254 1892.88,126.232 1893.58,126.21 1894.28,126.188 1894.98,126.167 1895.68,126.145 1896.38,126.123 1897.08,126.102 1897.78,126.08 1898.48,126.058 1899.18,126.037 1899.88,126.015 1900.58,125.994 1901.28,125.973 1901.98,125.951 1902.68,125.93 1903.38,125.909 1904.08,125.887 1904.78,125.866 1905.48,125.845 1906.18,125.824 1906.88,125.803 1907.58,125.782 1908.28,125.761 1908.98,125.74 1909.68,125.719 1910.38,125.699 1911.08,125.678 1911.78,125.657 1912.48,125.636 1913.18,125.616 1913.88,125.595 1914.58,125.575 1915.28,125.554 1915.98,125.534 1916.68,125.513 1917.38,125.493 1918.08,125.472 1918.78,125.452 1919.48,125.432 1920.18,125.412 1920.88,125.392 1921.58,125.371 1922.28,125.351 1922.98,125.331 1923.68,125.311 1924.38,125.291 1925.08,125.271 1925.78,125.252 1926.48,125.232 1927.18,125.212 1927.88,125.192 1928.58,125.172 1929.28,125.153 1929.98,125.133 1930.68,125.114 1931.38,125.094 1932.08,125.075 1932.78,125.055 1933.48,125.036 1934.18,125.016 1934.88,124.997 1935.58,124.978 1936.28,124.958 1936.98,124.939 1937.68,124.92 1938.38,124.901 1939.08,124.882 1939.78,124.863 1940.48,124.844 1941.18,124.825 1941.88,124.806 1942.58,124.787 1943.29,124.768 1943.99,124.749 1944.69,124.73 1945.39,124.712 1946.09,124.693 1946.79,124.674 1947.49,124.656 1948.19,124.637 1948.89,124.619 1949.59,124.6 1950.29,124.582 1950.99,124.563 1951.69,124.545 1952.39,124.526 1953.09,124.508 1953.79,124.49 1954.49,124.472 1955.19,124.453 1955.89,124.435 1956.59,124.417 1957.29,124.399 1957.99,124.381 1958.69,124.363 1959.39,124.345 1960.09,124.327 1960.79,124.309 1961.49,124.291 1962.19,124.274 1962.89,124.256 1963.59,124.238 1964.29,124.22 1964.99,124.203 1965.69,124.185 1966.39,124.167 1967.09,124.15 1967.79,124.132 1968.49,124.115 1969.19,124.097 1969.89,124.08 1970.59,124.063 1971.29,124.045 1971.99,124.028 1972.69,124.011 1973.39,123.994 1974.09,123.976 1974.79,123.959 1975.49,123.942 1976.19,123.925 1976.89,123.908 1977.59,123.891 1978.29,123.874 1978.99,123.857 1979.69,123.84 1980.39,123.823 1981.09,123.806 1981.79,123.79 1982.49,123.773 1983.19,123.756 1983.89,123.739 1984.59,123.723 1985.29,123.706 1985.99,123.69 1986.69,123.673 1987.39,123.656 1988.09,123.64 1988.79,123.624 1989.49,123.607 1990.19,123.591 1990.89,123.574 1991.59,123.558 1992.29,123.542 1992.99,123.526 1993.69,123.509 1994.39,123.493 1995.09,123.477 1995.79,123.461 1996.49,123.445 1997.19,123.429 1997.89,123.413 1998.59,123.397 1999.29,123.381 1999.99,123.365 2000.7,123.349 2001.4,123.333 2002.1,123.317 2002.8,123.302 2003.5,123.286 2004.2,123.27 2004.9,123.255 2005.6,123.239 2006.3,123.223 2007,123.208 2007.7,123.192 2008.4,123.177 2009.1,123.161 2009.8,123.146 2010.5,123.13 2011.2,123.115 2011.9,123.1 2012.6,123.084 2013.3,123.069 2014,123.054 2014.7,123.039 2015.4,123.023 2016.1,123.008 2016.8,122.993 2017.5,122.978 2018.2,122.963 2018.9,122.948 2019.6,122.933 2020.3,122.918 2021,122.903 2021.7,122.888 2022.4,122.873 2023.1,122.858 2023.8,122.844 2024.5,122.829 2025.2,122.814 2025.9,122.799 2026.6,122.785 2027.3,122.77 2028,122.755 2028.7,122.741 2029.4,122.726 2030.1,122.712 2030.8,122.697 2031.5,122.683 2032.2,122.668 2032.9,122.654 2033.6,122.639 2034.3,122.625 2035,122.611 2035.7,122.596 2036.4,122.582 2037.1,122.568 2037.8,122.554 2038.5,122.54 2039.2,122.525 2039.9,122.511 2040.6,122.497 2041.3,122.483 2042,122.469 2042.7,122.455 2043.4,122.441 2044.1,122.427 2044.8,122.413 2045.5,122.4 2046.2,122.386 2046.9,122.372 2047.6,122.358 2048.3,122.344 2049,122.331 2049.7,122.317 2050.4,122.303 2051.1,122.29 2051.8,122.276 2052.5,122.262 2053.2,122.249 2053.9,122.235 2054.6,122.222 2055.3,122.208 2056,122.195 2056.7,122.181 2057.4,122.168 2058.1,122.155 2058.81,122.141 2059.51,122.128 2060.21,122.115 2060.91,122.101 2061.61,122.088 2062.31,122.075 2063.01,122.062 2063.71,122.049 2064.41,122.036 2065.11,122.023 2065.81,122.01 2066.51,121.996 2067.21,121.983 2067.91,121.971 2068.61,121.958 2069.31,121.945 2070.01,121.932 2070.71,121.919 2071.41,121.906 2072.11,121.893 2072.81,121.88 2073.51,121.868 2074.21,121.855 2074.91,121.842 2075.61,121.83 2076.31,121.817 2077.01,121.804 2077.71,121.792 2078.41,121.779 2079.11,121.767 2079.81,121.754 2080.51,121.742 2081.21,121.729 2081.91,121.717 2082.61,121.704 2083.31,121.692 2084.01,121.679 2084.71,121.667 2085.41,121.655 2086.11,121.643 2086.81,121.63 2087.51,121.618 2088.21,121.606 2088.91,121.594 2089.61,121.581 2090.31,121.569 2091.01,121.557 2091.71,121.545 2092.41,121.533 2093.11,121.521 2093.81,121.509 2094.51,121.497 2095.21,121.485 2095.91,121.473 2096.61,121.461 2097.31,121.449 2098.01,121.438 2098.71,121.426 2099.41,121.414 2100.11,121.402 2100.81,121.39 2101.51,121.379 2102.21,121.367 2102.91,121.355 2103.61,121.344 2104.31,121.332 2105.01,121.32 2105.71,121.309 2106.41,121.297 2107.11,121.286 2107.81,121.274 2108.51,121.263 2109.21,121.251 2109.91,121.24 2110.61,121.228 2111.31,121.217 2112.01,121.206 2112.71,121.194 2113.41,121.183 2114.11,121.172 2114.81,121.16 2115.51,121.149 2116.22,121.138 2116.92,121.127 2117.62,121.116 2118.32,121.104 2119.02,121.093 2119.72,121.082 2120.42,121.071 2121.12,121.06 2121.82,121.049 2122.52,121.038 2123.22,121.027 2123.92,121.016 2124.62,121.005 2125.32,120.994 2126.02,120.983 2126.72,120.972 2127.42,120.961 2128.12,120.951 2128.82,120.94 2129.52,120.929 2130.22,120.918 2130.92,120.908 2131.62,120.897 2132.32,120.886 2133.02,120.875 2133.72,120.865 2134.42,120.854 2135.12,120.844 2135.82,120.833 2136.52,120.822 2137.22,120.812 2137.92,120.801 2138.62,120.791 2139.32,120.78 2140.02,120.77 2140.72,120.76 2141.42,120.749 2142.12,120.739 2142.82,120.728 2143.52,120.718 2144.22,120.708 2144.92,120.697 2145.62,120.687 2146.32,120.677 2147.02,120.667 2147.72,120.656 2148.42,120.646 2149.12,120.636 2149.82,120.626 2150.52,120.616 2151.22,120.606 2151.92,120.596 2152.62,120.586 2153.32,120.576 2154.02,120.565 2154.72,120.555 2155.42,120.546 2156.12,120.536 2156.82,120.526 2157.52,120.516 2158.22,120.506 2158.92,120.496 2159.62,120.486 2160.32,120.476 2161.02,120.466 2161.72,120.457 2162.42,120.447 2163.12,120.437 2163.82,120.427 2164.52,120.418 2165.22,120.408 2165.92,120.398 2166.62,120.389 2167.32,120.379 2168.02,120.369 2168.72,120.36 2169.42,120.35 2170.12,120.341 2170.82,120.331 2171.52,120.322 2172.22,120.312 2172.92,120.303 2173.62,120.293 2174.33,120.284 2175.03,120.274 2175.73,120.265 2176.43,120.256 2177.13,120.246 2177.83,120.237 2178.53,120.228 2179.23,120.218 2179.93,120.209 2180.63,120.2 2181.33,120.191 2182.03,120.181 2182.73,120.172 2183.43,120.163 2184.13,120.154 2184.83,120.145 2185.53,120.136 2186.23,120.127 2186.93,120.117 2187.63,120.108 2188.33,120.099 2189.03,120.09 2189.73,120.081 2190.43,120.072 2191.13,120.063 2191.83,120.054 2192.53,120.045 2193.23,120.037 2193.93,120.028 2194.63,120.019 2195.33,120.01 2196.03,120.001 2196.73,119.992 2197.43,119.984 2198.13,119.975 2198.83,119.966 2199.53,119.957 2200.23,119.949 2200.93,119.94 2201.63,119.931 2202.33,119.922 2203.03,119.914 2203.73,119.905 2204.43,119.897 2205.13,119.888 2205.83,119.879 2206.53,119.871 2207.23,119.862 2207.93,119.854 2208.63,119.845 2209.33,119.837 2210.03,119.828 2210.73,119.82 2211.43,119.811 2212.13,119.803 2212.83,119.795 2213.53,119.786 2214.23,119.778 2214.93,119.769 2215.63,119.761 2216.33,119.753 2217.03,119.745 2217.73,119.736 2218.43,119.728 2219.13,119.72 2219.83,119.712 2220.53,119.703 2221.23,119.695 2221.93,119.687 2222.63,119.679 2223.33,119.671 2224.03,119.663 2224.73,119.654 2225.43,119.646 2226.13,119.638 2226.83,119.63 2227.53,119.622 2228.23,119.614 2228.93,119.606 2229.63,119.598 2230.33,119.59 2231.03,119.582 2231.73,119.574 2232.44,119.566 2233.14,119.558 2233.84,119.551 2234.54,119.543 2235.24,119.535 2235.94,119.527 2236.64,119.519 2237.34,119.511 2238.04,119.504 2238.74,119.496 2239.44,119.488 2240.14,119.48 2240.84,119.473 2241.54,119.465 2242.24,119.457 2242.94,119.45 2243.64,119.442 2244.34,119.434 2245.04,119.427 2245.74,119.419 2246.44,119.411 2247.14,119.404 2247.84,119.396 2248.54,119.389 2249.24,119.381 2249.94,119.374 2250.64,119.366 2251.34,119.359 2252.04,119.351 2252.74,119.344 2253.44,119.336 2254.14,119.329 2254.84,119.321 2255.54,119.314 2256.24,119.307 2256.94,119.299 2257.64,119.292 2258.34,119.285 2259.04,119.277 2259.74,119.27 2260.44,119.263 2261.14,119.255 2261.84,119.248 2262.54,119.241 2263.24,119.234 2263.94,119.227 2264.64,119.219 2265.34,119.212 2266.04,119.205 2266.74,119.198 2267.44,119.191 2268.14,119.184 2268.84,119.177 2269.54,119.169 2270.24,119.162 2270.94,119.155 2271.64,119.148 2272.34,119.141 2273.04,119.134 2273.74,119.127 2274.44,119.12 2275.14,119.113 2275.84,119.106 2276.54,119.099 2277.24,119.092 2277.94,119.086 2278.64,119.079 2279.34,119.072 2280.04,119.065 2280.74,119.058 2281.44,119.051 2282.14,119.044 2282.84,119.038 2283.54,119.031 2284.24,119.024 2284.94,119.017 2285.64,119.011 2286.34,119.004 2287.04,118.997 2287.74,118.99 2288.44,118.984 2289.14,118.977 2289.85,118.97 2290.55,118.964 2291.25,118.957 2291.95,118.95 2292.65,118.944 "/>
<circle clip-path="url(#clip092)" cx="292.4" cy="1384.24" r="14.4" fill="#3da44d" fill-rule="evenodd" fill-opacity="1" stroke="#000000" stroke-opacity="1" stroke-width="3.2"/>
<circle clip-path="url(#clip092)" cx="325.739" cy="1170.11" r="14.4" fill="#3da44d" fill-rule="evenodd" fill-opacity="1" stroke="#000000" stroke-opacity="1" stroke-width="3.2"/>
<circle clip-path="url(#clip092)" cx="359.078" cy="1095.22" r="14.4" fill="#3da44d" fill-rule="evenodd" fill-opacity="1" stroke="#000000" stroke-opacity="1" stroke-width="3.2"/>
<circle clip-path="url(#clip092)" cx="392.417" cy="1039.97" r="14.4" fill="#3da44d" fill-rule="evenodd" fill-opacity="1" stroke="#000000" stroke-opacity="1" stroke-width="3.2"/>
<circle clip-path="url(#clip092)" cx="425.756" cy="906.074" r="14.4" fill="#3da44d" fill-rule="evenodd" fill-opacity="1" stroke="#000000" stroke-opacity="1" stroke-width="3.2"/>
<circle clip-path="url(#clip092)" cx="459.095" cy="790.358" r="14.4" fill="#3da44d" fill-rule="evenodd" fill-opacity="1" stroke="#000000" stroke-opacity="1" stroke-width="3.2"/>
<circle clip-path="url(#clip092)" cx="492.434" cy="761.031" r="14.4" fill="#3da44d" fill-rule="evenodd" fill-opacity="1" stroke="#000000" stroke-opacity="1" stroke-width="3.2"/>
<circle clip-path="url(#clip092)" cx="525.773" cy="686.166" r="14.4" fill="#3da44d" fill-rule="evenodd" fill-opacity="1" stroke="#000000" stroke-opacity="1" stroke-width="3.2"/>
<circle clip-path="url(#clip092)" cx="559.112" cy="687.71" r="14.4" fill="#3da44d" fill-rule="evenodd" fill-opacity="1" stroke="#000000" stroke-opacity="1" stroke-width="3.2"/>
<circle clip-path="url(#clip092)" cx="592.452" cy="584.123" r="14.4" fill="#3da44d" fill-rule="evenodd" fill-opacity="1" stroke="#000000" stroke-opacity="1" stroke-width="3.2"/>
<circle clip-path="url(#clip092)" cx="625.791" cy="571.572" r="14.4" fill="#3da44d" fill-rule="evenodd" fill-opacity="1" stroke="#000000" stroke-opacity="1" stroke-width="3.2"/>
<circle clip-path="url(#clip092)" cx="659.13" cy="527.609" r="14.4" fill="#3da44d" fill-rule="evenodd" fill-opacity="1" stroke="#000000" stroke-opacity="1" stroke-width="3.2"/>
<circle clip-path="url(#clip092)" cx="692.469" cy="435.8" r="14.4" fill="#3da44d" fill-rule="evenodd" fill-opacity="1" stroke="#000000" stroke-opacity="1" stroke-width="3.2"/>
<circle clip-path="url(#clip092)" cx="725.808" cy="448.48" r="14.4" fill="#3da44d" fill-rule="evenodd" fill-opacity="1" stroke="#000000" stroke-opacity="1" stroke-width="3.2"/>
<circle clip-path="url(#clip092)" cx="759.147" cy="384.017" r="14.4" fill="#3da44d" fill-rule="evenodd" fill-opacity="1" stroke="#000000" stroke-opacity="1" stroke-width="3.2"/>
<circle clip-path="url(#clip092)" cx="792.486" cy="369.783" r="14.4" fill="#3da44d" fill-rule="evenodd" fill-opacity="1" stroke="#000000" stroke-opacity="1" stroke-width="3.2"/>
<circle clip-path="url(#clip092)" cx="825.825" cy="369.726" r="14.4" fill="#3da44d" fill-rule="evenodd" fill-opacity="1" stroke="#000000" stroke-opacity="1" stroke-width="3.2"/>
<circle clip-path="url(#clip092)" cx="859.164" cy="325.023" r="14.4" fill="#3da44d" fill-rule="evenodd" fill-opacity="1" stroke="#000000" stroke-opacity="1" stroke-width="3.2"/>
<circle clip-path="url(#clip092)" cx="892.503" cy="332.979" r="14.4" fill="#3da44d" fill-rule="evenodd" fill-opacity="1" stroke="#000000" stroke-opacity="1" stroke-width="3.2"/>
<circle clip-path="url(#clip092)" cx="925.843" cy="292.235" r="14.4" fill="#3da44d" fill-rule="evenodd" fill-opacity="1" stroke="#000000" stroke-opacity="1" stroke-width="3.2"/>
<circle clip-path="url(#clip092)" cx="959.182" cy="298.467" r="14.4" fill="#3da44d" fill-rule="evenodd" fill-opacity="1" stroke="#000000" stroke-opacity="1" stroke-width="3.2"/>
<circle clip-path="url(#clip092)" cx="992.521" cy="276.493" r="14.4" fill="#3da44d" fill-rule="evenodd" fill-opacity="1" stroke="#000000" stroke-opacity="1" stroke-width="3.2"/>
<circle clip-path="url(#clip092)" cx="1025.86" cy="224.168" r="14.4" fill="#3da44d" fill-rule="evenodd" fill-opacity="1" stroke="#000000" stroke-opacity="1" stroke-width="3.2"/>
<circle clip-path="url(#clip092)" cx="1059.2" cy="233.54" r="14.4" fill="#3da44d" fill-rule="evenodd" fill-opacity="1" stroke="#000000" stroke-opacity="1" stroke-width="3.2"/>
<circle clip-path="url(#clip092)" cx="1092.54" cy="250.879" r="14.4" fill="#3da44d" fill-rule="evenodd" fill-opacity="1" stroke="#000000" stroke-opacity="1" stroke-width="3.2"/>
<circle clip-path="url(#clip092)" cx="1125.88" cy="211.258" r="14.4" fill="#3da44d" fill-rule="evenodd" fill-opacity="1" stroke="#000000" stroke-opacity="1" stroke-width="3.2"/>
<circle clip-path="url(#clip092)" cx="1159.22" cy="199.94" r="14.4" fill="#3da44d" fill-rule="evenodd" fill-opacity="1" stroke="#000000" stroke-opacity="1" stroke-width="3.2"/>
<circle clip-path="url(#clip092)" cx="1192.56" cy="203.679" r="14.4" fill="#3da44d" fill-rule="evenodd" fill-opacity="1" stroke="#000000" stroke-opacity="1" stroke-width="3.2"/>
<circle clip-path="url(#clip092)" cx="1225.89" cy="182.357" r="14.4" fill="#3da44d" fill-rule="evenodd" fill-opacity="1" stroke="#000000" stroke-opacity="1" stroke-width="3.2"/>
<circle clip-path="url(#clip092)" cx="1259.23" cy="177.622" r="14.4" fill="#3da44d" fill-rule="evenodd" fill-opacity="1" stroke="#000000" stroke-opacity="1" stroke-width="3.2"/>
<circle clip-path="url(#clip092)" cx="1292.57" cy="185.078" r="14.4" fill="#3da44d" fill-rule="evenodd" fill-opacity="1" stroke="#000000" stroke-opacity="1" stroke-width="3.2"/>
<circle clip-path="url(#clip092)" cx="1325.91" cy="148.057" r="14.4" fill="#3da44d" fill-rule="evenodd" fill-opacity="1" stroke="#000000" stroke-opacity="1" stroke-width="3.2"/>
<circle clip-path="url(#clip092)" cx="1359.25" cy="209.798" r="14.4" fill="#3da44d" fill-rule="evenodd" fill-opacity="1" stroke="#000000" stroke-opacity="1" stroke-width="3.2"/>
<circle clip-path="url(#clip092)" cx="1392.59" cy="175.519" r="14.4" fill="#3da44d" fill-rule="evenodd" fill-opacity="1" stroke="#000000" stroke-opacity="1" stroke-width="3.2"/>
<circle clip-path="url(#clip092)" cx="1425.93" cy="187.286" r="14.4" fill="#3da44d" fill-rule="evenodd" fill-opacity="1" stroke="#000000" stroke-opacity="1" stroke-width="3.2"/>
<circle clip-path="url(#clip092)" cx="1459.27" cy="192.347" r="14.4" fill="#3da44d" fill-rule="evenodd" fill-opacity="1" stroke="#000000" stroke-opacity="1" stroke-width="3.2"/>
<circle clip-path="url(#clip092)" cx="1492.61" cy="155.898" r="14.4" fill="#3da44d" fill-rule="evenodd" fill-opacity="1" stroke="#000000" stroke-opacity="1" stroke-width="3.2"/>
<circle clip-path="url(#clip092)" cx="1525.95" cy="156.444" r="14.4" fill="#3da44d" fill-rule="evenodd" fill-opacity="1" stroke="#000000" stroke-opacity="1" stroke-width="3.2"/>
<circle clip-path="url(#clip092)" cx="1559.29" cy="111.709" r="14.4" fill="#3da44d" fill-rule="evenodd" fill-opacity="1" stroke="#000000" stroke-opacity="1" stroke-width="3.2"/>
<circle clip-path="url(#clip092)" cx="1592.62" cy="151.624" r="14.4" fill="#3da44d" fill-rule="evenodd" fill-opacity="1" stroke="#000000" stroke-opacity="1" stroke-width="3.2"/>
<circle clip-path="url(#clip092)" cx="1625.96" cy="160.875" r="14.4" fill="#3da44d" fill-rule="evenodd" fill-opacity="1" stroke="#000000" stroke-opacity="1" stroke-width="3.2"/>
<circle clip-path="url(#clip092)" cx="1659.3" cy="145.237" r="14.4" fill="#3da44d" fill-rule="evenodd" fill-opacity="1" stroke="#000000" stroke-opacity="1" stroke-width="3.2"/>
<circle clip-path="url(#clip092)" cx="1692.64" cy="109.108" r="14.4" fill="#3da44d" fill-rule="evenodd" fill-opacity="1" stroke="#000000" stroke-opacity="1" stroke-width="3.2"/>
<circle clip-path="url(#clip092)" cx="1725.98" cy="108.334" r="14.4" fill="#3da44d" fill-rule="evenodd" fill-opacity="1" stroke="#000000" stroke-opacity="1" stroke-width="3.2"/>
<circle clip-path="url(#clip092)" cx="1759.32" cy="125.17" r="14.4" fill="#3da44d" fill-rule="evenodd" fill-opacity="1" stroke="#000000" stroke-opacity="1" stroke-width="3.2"/>
<circle clip-path="url(#clip092)" cx="1792.66" cy="134.818" r="14.4" fill="#3da44d" fill-rule="evenodd" fill-opacity="1" stroke="#000000" stroke-opacity="1" stroke-width="3.2"/>
<circle clip-path="url(#clip092)" cx="1826" cy="96.4512" r="14.4" fill="#3da44d" fill-rule="evenodd" fill-opacity="1" stroke="#000000" stroke-opacity="1" stroke-width="3.2"/>
<circle clip-path="url(#clip092)" cx="1859.34" cy="132.701" r="14.4" fill="#3da44d" fill-rule="evenodd" fill-opacity="1" stroke="#000000" stroke-opacity="1" stroke-width="3.2"/>
<circle clip-path="url(#clip092)" cx="1892.68" cy="97.5846" r="14.4" fill="#3da44d" fill-rule="evenodd" fill-opacity="1" stroke="#000000" stroke-opacity="1" stroke-width="3.2"/>
<circle clip-path="url(#clip092)" cx="1926.02" cy="128.413" r="14.4" fill="#3da44d" fill-rule="evenodd" fill-opacity="1" stroke="#000000" stroke-opacity="1" stroke-width="3.2"/>
<circle clip-path="url(#clip092)" cx="1959.35" cy="110.422" r="14.4" fill="#3da44d" fill-rule="evenodd" fill-opacity="1" stroke="#000000" stroke-opacity="1" stroke-width="3.2"/>
<circle clip-path="url(#clip092)" cx="1992.69" cy="122.293" r="14.4" fill="#3da44d" fill-rule="evenodd" fill-opacity="1" stroke="#000000" stroke-opacity="1" stroke-width="3.2"/>
<circle clip-path="url(#clip092)" cx="2026.03" cy="96.574" r="14.4" fill="#3da44d" fill-rule="evenodd" fill-opacity="1" stroke="#000000" stroke-opacity="1" stroke-width="3.2"/>
<circle clip-path="url(#clip092)" cx="2059.37" cy="130.327" r="14.4" fill="#3da44d" fill-rule="evenodd" fill-opacity="1" stroke="#000000" stroke-opacity="1" stroke-width="3.2"/>
<circle clip-path="url(#clip092)" cx="2092.71" cy="86.5468" r="14.4" fill="#3da44d" fill-rule="evenodd" fill-opacity="1" stroke="#000000" stroke-opacity="1" stroke-width="3.2"/>
<circle clip-path="url(#clip092)" cx="2126.05" cy="140.498" r="14.4" fill="#3da44d" fill-rule="evenodd" fill-opacity="1" stroke="#000000" stroke-opacity="1" stroke-width="3.2"/>
<circle clip-path="url(#clip092)" cx="2159.39" cy="109.593" r="14.4" fill="#3da44d" fill-rule="evenodd" fill-opacity="1" stroke="#000000" stroke-opacity="1" stroke-width="3.2"/>
<circle clip-path="url(#clip092)" cx="2192.73" cy="133.112" r="14.4" fill="#3da44d" fill-rule="evenodd" fill-opacity="1" stroke="#000000" stroke-opacity="1" stroke-width="3.2"/>
<circle clip-path="url(#clip092)" cx="2226.07" cy="100.639" r="14.4" fill="#3da44d" fill-rule="evenodd" fill-opacity="1" stroke="#000000" stroke-opacity="1" stroke-width="3.2"/>
<circle clip-path="url(#clip092)" cx="2259.41" cy="140.553" r="14.4" fill="#3da44d" fill-rule="evenodd" fill-opacity="1" stroke="#000000" stroke-opacity="1" stroke-width="3.2"/>
<circle clip-path="url(#clip092)" cx="2292.75" cy="86.1857" r="14.4" fill="#3da44d" fill-rule="evenodd" fill-opacity="1" stroke="#000000" stroke-opacity="1" stroke-width="3.2"/>
<path clip-path="url(#clip090)" d="M1591.92 1377.32 L2282.08 1377.32 L2282.08 1169.96 L1591.92 1169.96  Z" fill="#ffffff" fill-rule="evenodd" fill-opacity="1"/>
<polyline clip-path="url(#clip090)" style="stroke:#000000; stroke-linecap:round; stroke-linejoin:round; stroke-width:4; stroke-opacity:1; fill:none" points="1591.92,1377.32 2282.08,1377.32 2282.08,1169.96 1591.92,1169.96 1591.92,1377.32 "/>
<polyline clip-path="url(#clip090)" style="stroke:#009af9; stroke-linecap:round; stroke-linejoin:round; stroke-width:4; stroke-opacity:1; fill:none" points="1615.48,1221.8 1756.84,1221.8 "/>
<path clip-path="url(#clip090)" d="M1785.07 1208.36 L1785.07 1221.34 L1790.95 1221.34 Q1794.21 1221.34 1796 1219.65 Q1797.78 1217.96 1797.78 1214.84 Q1797.78 1211.74 1796 1210.05 Q1794.21 1208.36 1790.95 1208.36 L1785.07 1208.36 M1780.39 1204.52 L1790.95 1204.52 Q1796.76 1204.52 1799.72 1207.15 Q1802.71 1209.77 1802.71 1214.84 Q1802.71 1219.96 1799.72 1222.57 Q1796.76 1225.19 1790.95 1225.19 L1785.07 1225.19 L1785.07 1239.08 L1780.39 1239.08 L1780.39 1204.52 Z" fill="#000000" fill-rule="nonzero" fill-opacity="1" /><path clip-path="url(#clip090)" d="M1810.21 1235.14 L1817.85 1235.14 L1817.85 1208.77 L1809.54 1210.44 L1809.54 1206.18 L1817.8 1204.52 L1822.48 1204.52 L1822.48 1235.14 L1830.12 1235.14 L1830.12 1239.08 L1810.21 1239.08 L1810.21 1235.14 Z" fill="#000000" fill-rule="nonzero" fill-opacity="1" /><polyline clip-path="url(#clip090)" style="stroke:#e26f46; stroke-linecap:round; stroke-linejoin:round; stroke-width:4; stroke-opacity:1; fill:none" points="1615.48,1273.64 1756.84,1273.64 "/>
<path clip-path="url(#clip090)" d="M1785.07 1260.2 L1785.07 1273.18 L1790.95 1273.18 Q1794.21 1273.18 1796 1271.49 Q1797.78 1269.8 1797.78 1266.68 Q1797.78 1263.58 1796 1261.89 Q1794.21 1260.2 1790.95 1260.2 L1785.07 1260.2 M1780.39 1256.36 L1790.95 1256.36 Q1796.76 1256.36 1799.72 1258.99 Q1802.71 1261.61 1802.71 1266.68 Q1802.71 1271.8 1799.72 1274.41 Q1796.76 1277.03 1790.95 1277.03 L1785.07 1277.03 L1785.07 1290.92 L1780.39 1290.92 L1780.39 1256.36 Z" fill="#000000" fill-rule="nonzero" fill-opacity="1" /><path clip-path="url(#clip090)" d="M1813.43 1286.98 L1829.75 1286.98 L1829.75 1290.92 L1807.8 1290.92 L1807.8 1286.98 Q1810.46 1284.23 1815.05 1279.6 Q1819.65 1274.94 1820.83 1273.6 Q1823.08 1271.08 1823.96 1269.34 Q1824.86 1267.58 1824.86 1265.89 Q1824.86 1263.14 1822.92 1261.4 Q1821 1259.67 1817.89 1259.67 Q1815.7 1259.67 1813.24 1260.43 Q1810.81 1261.19 1808.03 1262.74 L1808.03 1258.02 Q1810.86 1256.89 1813.31 1256.31 Q1815.77 1255.73 1817.8 1255.73 Q1823.17 1255.73 1826.37 1258.42 Q1829.56 1261.1 1829.56 1265.59 Q1829.56 1267.72 1828.75 1269.64 Q1827.96 1271.54 1825.86 1274.13 Q1825.28 1274.8 1822.18 1278.02 Q1819.08 1281.22 1813.43 1286.98 Z" fill="#000000" fill-rule="nonzero" fill-opacity="1" /><circle clip-path="url(#clip090)" cx="1686.16" cy="1325.48" r="20.48" fill="#3da44d" fill-rule="evenodd" fill-opacity="1" stroke="#000000" stroke-opacity="1" stroke-width="4.55111"/>
<path clip-path="url(#clip090)" d="M1780.39 1308.2 L1786.69 1308.2 L1802.02 1337.11 L1802.02 1308.2 L1806.55 1308.2 L1806.55 1342.76 L1800.26 1342.76 L1784.93 1313.84 L1784.93 1342.76 L1780.39 1342.76 L1780.39 1308.2 Z" fill="#000000" fill-rule="nonzero" fill-opacity="1" /><path clip-path="url(#clip090)" d="M1825.72 1319.82 Q1822.29 1319.82 1820.3 1322.5 Q1818.31 1325.16 1818.31 1329.82 Q1818.31 1334.47 1820.28 1337.15 Q1822.27 1339.82 1825.72 1339.82 Q1829.12 1339.82 1831.11 1337.13 Q1833.1 1334.45 1833.1 1329.82 Q1833.1 1325.21 1831.11 1322.52 Q1829.12 1319.82 1825.72 1319.82 M1825.72 1316.2 Q1831.27 1316.2 1834.45 1319.82 Q1837.62 1323.43 1837.62 1329.82 Q1837.62 1336.18 1834.45 1339.82 Q1831.27 1343.43 1825.72 1343.43 Q1820.14 1343.43 1816.97 1339.82 Q1813.82 1336.18 1813.82 1329.82 Q1813.82 1323.43 1816.97 1319.82 Q1820.14 1316.2 1825.72 1316.2 Z" fill="#000000" fill-rule="nonzero" fill-opacity="1" /><path clip-path="url(#clip090)" d="M1844.68 1316.83 L1848.94 1316.83 L1848.94 1342.76 L1844.68 1342.76 L1844.68 1316.83 M1844.68 1306.74 L1848.94 1306.74 L1848.94 1312.13 L1844.68 1312.13 L1844.68 1306.74 Z" fill="#000000" fill-rule="nonzero" fill-opacity="1" /><path clip-path="url(#clip090)" d="M1874.38 1317.59 L1874.38 1321.62 Q1872.57 1320.7 1870.63 1320.23 Q1868.68 1319.77 1866.6 1319.77 Q1863.43 1319.77 1861.83 1320.74 Q1860.26 1321.71 1860.26 1323.66 Q1860.26 1325.14 1861.39 1326 Q1862.52 1326.83 1865.95 1327.59 L1867.41 1327.92 Q1871.95 1328.89 1873.84 1330.67 Q1875.76 1332.43 1875.76 1335.6 Q1875.76 1339.21 1872.89 1341.32 Q1870.05 1343.43 1865.05 1343.43 Q1862.96 1343.43 1860.7 1343.01 Q1858.45 1342.62 1855.95 1341.81 L1855.95 1337.41 Q1858.31 1338.63 1860.6 1339.26 Q1862.89 1339.86 1865.14 1339.86 Q1868.15 1339.86 1869.77 1338.84 Q1871.39 1337.8 1871.39 1335.93 Q1871.39 1334.19 1870.21 1333.26 Q1869.05 1332.34 1865.09 1331.48 L1863.61 1331.14 Q1859.65 1330.3 1857.89 1328.59 Q1856.14 1326.85 1856.14 1323.84 Q1856.14 1320.19 1858.73 1318.2 Q1861.32 1316.2 1866.09 1316.2 Q1868.45 1316.2 1870.53 1316.55 Q1872.62 1316.9 1874.38 1317.59 Z" fill="#000000" fill-rule="nonzero" fill-opacity="1" /><path clip-path="url(#clip090)" d="M1893.33 1345.16 Q1891.53 1349.79 1889.82 1351.2 Q1888.1 1352.62 1885.23 1352.62 L1881.83 1352.62 L1881.83 1349.05 L1884.33 1349.05 Q1886.09 1349.05 1887.06 1348.22 Q1888.03 1347.38 1889.21 1344.28 L1889.98 1342.34 L1879.49 1316.83 L1884.01 1316.83 L1892.11 1337.11 L1900.21 1316.83 L1904.72 1316.83 L1893.33 1345.16 Z" fill="#000000" fill-rule="nonzero" fill-opacity="1" /><path clip-path="url(#clip090)" d="M1935.72 1319.82 Q1932.29 1319.82 1930.3 1322.5 Q1928.31 1325.16 1928.31 1329.82 Q1928.31 1334.47 1930.28 1337.15 Q1932.27 1339.82 1935.72 1339.82 Q1939.12 1339.82 1941.11 1337.13 Q1943.1 1334.45 1943.1 1329.82 Q1943.1 1325.21 1941.11 1322.52 Q1939.12 1319.82 1935.72 1319.82 M1935.72 1316.2 Q1941.27 1316.2 1944.45 1319.82 Q1947.62 1323.43 1947.62 1329.82 Q1947.62 1336.18 1944.45 1339.82 Q1941.27 1343.43 1935.72 1343.43 Q1930.14 1343.43 1926.97 1339.82 Q1923.82 1336.18 1923.82 1329.82 Q1923.82 1323.43 1926.97 1319.82 Q1930.14 1316.2 1935.72 1316.2 Z" fill="#000000" fill-rule="nonzero" fill-opacity="1" /><path clip-path="url(#clip090)" d="M1973.29 1329.82 Q1973.29 1325.12 1971.34 1322.45 Q1969.42 1319.77 1966.04 1319.77 Q1962.66 1319.77 1960.72 1322.45 Q1958.8 1325.12 1958.8 1329.82 Q1958.8 1334.51 1960.72 1337.2 Q1962.66 1339.86 1966.04 1339.86 Q1969.42 1339.86 1971.34 1337.2 Q1973.29 1334.51 1973.29 1329.82 M1958.8 1320.76 Q1960.14 1318.45 1962.18 1317.34 Q1964.24 1316.2 1967.08 1316.2 Q1971.81 1316.2 1974.75 1319.95 Q1977.71 1323.7 1977.71 1329.82 Q1977.71 1335.93 1974.75 1339.68 Q1971.81 1343.43 1967.08 1343.43 Q1964.24 1343.43 1962.18 1342.32 Q1960.14 1341.18 1958.8 1338.87 L1958.8 1342.76 L1954.51 1342.76 L1954.51 1306.74 L1958.8 1306.74 L1958.8 1320.76 Z" fill="#000000" fill-rule="nonzero" fill-opacity="1" /><path clip-path="url(#clip090)" d="M2001.3 1317.59 L2001.3 1321.62 Q1999.49 1320.7 1997.55 1320.23 Q1995.6 1319.77 1993.52 1319.77 Q1990.35 1319.77 1988.75 1320.74 Q1987.18 1321.71 1987.18 1323.66 Q1987.18 1325.14 1988.31 1326 Q1989.44 1326.83 1992.87 1327.59 L1994.33 1327.92 Q1998.87 1328.89 2000.76 1330.67 Q2002.69 1332.43 2002.69 1335.6 Q2002.69 1339.21 1999.82 1341.32 Q1996.97 1343.43 1991.97 1343.43 Q1989.88 1343.43 1987.62 1343.01 Q1985.37 1342.62 1982.87 1341.81 L1982.87 1337.41 Q1985.23 1338.63 1987.52 1339.26 Q1989.82 1339.86 1992.06 1339.86 Q1995.07 1339.86 1996.69 1338.84 Q1998.31 1337.8 1998.31 1335.93 Q1998.31 1334.19 1997.13 1333.26 Q1995.97 1332.34 1992.01 1331.48 L1990.53 1331.14 Q1986.57 1330.3 1984.82 1328.59 Q1983.06 1326.85 1983.06 1323.84 Q1983.06 1320.19 1985.65 1318.2 Q1988.24 1316.2 1993.01 1316.2 Q1995.37 1316.2 1997.45 1316.55 Q1999.54 1316.9 2001.3 1317.59 Z" fill="#000000" fill-rule="nonzero" fill-opacity="1" /><path clip-path="url(#clip090)" d="M2031.64 1328.73 L2031.64 1330.81 L2012.06 1330.81 Q2012.34 1335.21 2014.7 1337.52 Q2017.08 1339.82 2021.32 1339.82 Q2023.77 1339.82 2026.06 1339.21 Q2028.38 1338.61 2030.65 1337.41 L2030.65 1341.44 Q2028.36 1342.41 2025.95 1342.92 Q2023.54 1343.43 2021.06 1343.43 Q2014.86 1343.43 2011.23 1339.82 Q2007.62 1336.2 2007.62 1330.05 Q2007.62 1323.68 2011.04 1319.95 Q2014.49 1316.2 2020.32 1316.2 Q2025.56 1316.2 2028.59 1319.58 Q2031.64 1322.94 2031.64 1328.73 M2027.38 1327.48 Q2027.34 1323.98 2025.42 1321.9 Q2023.52 1319.82 2020.37 1319.82 Q2016.81 1319.82 2014.65 1321.83 Q2012.52 1323.84 2012.2 1327.5 L2027.38 1327.48 Z" fill="#000000" fill-rule="nonzero" fill-opacity="1" /><path clip-path="url(#clip090)" d="M2053.66 1320.81 Q2052.94 1320.39 2052.08 1320.21 Q2051.25 1320 2050.23 1320 Q2046.62 1320 2044.68 1322.36 Q2042.75 1324.7 2042.75 1329.1 L2042.75 1342.76 L2038.47 1342.76 L2038.47 1316.83 L2042.75 1316.83 L2042.75 1320.86 Q2044.1 1318.5 2046.25 1317.36 Q2048.4 1316.2 2051.48 1316.2 Q2051.92 1316.2 2052.45 1316.27 Q2052.99 1316.32 2053.63 1316.44 L2053.66 1320.81 Z" fill="#000000" fill-rule="nonzero" fill-opacity="1" /><path clip-path="url(#clip090)" d="M2055.07 1316.83 L2059.58 1316.83 L2067.69 1338.59 L2075.79 1316.83 L2080.3 1316.83 L2070.58 1342.76 L2064.79 1342.76 L2055.07 1316.83 Z" fill="#000000" fill-rule="nonzero" fill-opacity="1" /><path clip-path="url(#clip090)" d="M2108.36 1328.73 L2108.36 1330.81 L2088.77 1330.81 Q2089.05 1335.21 2091.41 1337.52 Q2093.8 1339.82 2098.03 1339.82 Q2100.49 1339.82 2102.78 1339.21 Q2105.09 1338.61 2107.36 1337.41 L2107.36 1341.44 Q2105.07 1342.41 2102.66 1342.92 Q2100.25 1343.43 2097.78 1343.43 Q2091.57 1343.43 2087.94 1339.82 Q2084.33 1336.2 2084.33 1330.05 Q2084.33 1323.68 2087.75 1319.95 Q2091.2 1316.2 2097.04 1316.2 Q2102.27 1316.2 2105.3 1319.58 Q2108.36 1322.94 2108.36 1328.73 M2104.1 1327.48 Q2104.05 1323.98 2102.13 1321.9 Q2100.23 1319.82 2097.08 1319.82 Q2093.52 1319.82 2091.37 1321.83 Q2089.24 1323.84 2088.91 1327.5 L2104.1 1327.48 Z" fill="#000000" fill-rule="nonzero" fill-opacity="1" /><path clip-path="url(#clip090)" d="M2132.41 1320.76 L2132.41 1306.74 L2136.67 1306.74 L2136.67 1342.76 L2132.41 1342.76 L2132.41 1338.87 Q2131.06 1341.18 2129 1342.32 Q2126.97 1343.43 2124.1 1343.43 Q2119.4 1343.43 2116.43 1339.68 Q2113.5 1335.93 2113.5 1329.82 Q2113.5 1323.7 2116.43 1319.95 Q2119.4 1316.2 2124.1 1316.2 Q2126.97 1316.2 2129 1317.34 Q2131.06 1318.45 2132.41 1320.76 M2117.89 1329.82 Q2117.89 1334.51 2119.81 1337.2 Q2121.76 1339.86 2125.14 1339.86 Q2128.52 1339.86 2130.46 1337.2 Q2132.41 1334.51 2132.41 1329.82 Q2132.41 1325.12 2130.46 1322.45 Q2128.52 1319.77 2125.14 1319.77 Q2121.76 1319.77 2119.81 1322.45 Q2117.89 1325.12 2117.89 1329.82 Z" fill="#000000" fill-rule="nonzero" fill-opacity="1" /><path clip-path="url(#clip090)" d="M2177.57 1320.76 L2177.57 1306.74 L2181.83 1306.74 L2181.83 1342.76 L2177.57 1342.76 L2177.57 1338.87 Q2176.23 1341.18 2174.17 1342.32 Q2172.13 1343.43 2169.26 1343.43 Q2164.56 1343.43 2161.6 1339.68 Q2158.66 1335.93 2158.66 1329.82 Q2158.66 1323.7 2161.6 1319.95 Q2164.56 1316.2 2169.26 1316.2 Q2172.13 1316.2 2174.17 1317.34 Q2176.23 1318.45 2177.57 1320.76 M2163.05 1329.82 Q2163.05 1334.51 2164.98 1337.2 Q2166.92 1339.86 2170.3 1339.86 Q2173.68 1339.86 2175.62 1337.2 Q2177.57 1334.51 2177.57 1329.82 Q2177.57 1325.12 2175.62 1322.45 Q2173.68 1319.77 2170.3 1319.77 Q2166.92 1319.77 2164.98 1322.45 Q2163.05 1325.12 2163.05 1329.82 Z" fill="#000000" fill-rule="nonzero" fill-opacity="1" /><path clip-path="url(#clip090)" d="M2202.38 1329.72 Q2197.22 1329.72 2195.23 1330.9 Q2193.24 1332.08 2193.24 1334.93 Q2193.24 1337.2 2194.72 1338.54 Q2196.23 1339.86 2198.8 1339.86 Q2202.34 1339.86 2204.47 1337.36 Q2206.62 1334.84 2206.62 1330.67 L2206.62 1329.72 L2202.38 1329.72 M2210.88 1327.96 L2210.88 1342.76 L2206.62 1342.76 L2206.62 1338.82 Q2205.16 1341.18 2202.99 1342.32 Q2200.81 1343.43 2197.66 1343.43 Q2193.68 1343.43 2191.32 1341.2 Q2188.98 1338.96 2188.98 1335.21 Q2188.98 1330.83 2191.9 1328.61 Q2194.84 1326.39 2200.65 1326.39 L2206.62 1326.39 L2206.62 1325.97 Q2206.62 1323.03 2204.68 1321.44 Q2202.75 1319.82 2199.26 1319.82 Q2197.04 1319.82 2194.93 1320.35 Q2192.82 1320.88 2190.88 1321.95 L2190.88 1318.01 Q2193.22 1317.11 2195.42 1316.67 Q2197.61 1316.2 2199.7 1316.2 Q2205.32 1316.2 2208.1 1319.12 Q2210.88 1322.04 2210.88 1327.96 Z" fill="#000000" fill-rule="nonzero" fill-opacity="1" /><path clip-path="url(#clip090)" d="M2223.86 1309.47 L2223.86 1316.83 L2232.64 1316.83 L2232.64 1320.14 L2223.86 1320.14 L2223.86 1334.21 Q2223.86 1337.38 2224.72 1338.29 Q2225.6 1339.19 2228.26 1339.19 L2232.64 1339.19 L2232.64 1342.76 L2228.26 1342.76 Q2223.33 1342.76 2221.46 1340.93 Q2219.58 1339.07 2219.58 1334.21 L2219.58 1320.14 L2216.46 1320.14 L2216.46 1316.83 L2219.58 1316.83 L2219.58 1309.47 L2223.86 1309.47 Z" fill="#000000" fill-rule="nonzero" fill-opacity="1" /><path clip-path="url(#clip090)" d="M2250.02 1329.72 Q2244.86 1329.72 2242.87 1330.9 Q2240.88 1332.08 2240.88 1334.93 Q2240.88 1337.2 2242.36 1338.54 Q2243.86 1339.86 2246.43 1339.86 Q2249.98 1339.86 2252.11 1337.36 Q2254.26 1334.84 2254.26 1330.67 L2254.26 1329.72 L2250.02 1329.72 M2258.52 1327.96 L2258.52 1342.76 L2254.26 1342.76 L2254.26 1338.82 Q2252.8 1341.18 2250.62 1342.32 Q2248.45 1343.43 2245.3 1343.43 Q2241.32 1343.43 2238.96 1341.2 Q2236.62 1338.96 2236.62 1335.21 Q2236.62 1330.83 2239.54 1328.61 Q2242.48 1326.39 2248.29 1326.39 L2254.26 1326.39 L2254.26 1325.97 Q2254.26 1323.03 2252.31 1321.44 Q2250.39 1319.82 2246.9 1319.82 Q2244.67 1319.82 2242.57 1320.35 Q2240.46 1320.88 2238.52 1321.95 L2238.52 1318.01 Q2240.86 1317.11 2243.05 1316.67 Q2245.25 1316.2 2247.34 1316.2 Q2252.96 1316.2 2255.74 1319.12 Q2258.52 1322.04 2258.52 1327.96 Z" fill="#000000" fill-rule="nonzero" fill-opacity="1" /></svg>
