<?xml version="1.0" encoding="utf-8"?>
<svg xmlns="http://www.w3.org/2000/svg" xmlns:xlink="http://www.w3.org/1999/xlink" width="600" height="400" viewBox="0 0 2400 1600">
<defs>
  <clipPath id="clip680">
    <rect x="0" y="0" width="2400" height="1600"/>
  </clipPath>
</defs>
<path clip-path="url(#clip680)" d="M0 1600 L2400 1600 L2400 0 L0 0  Z" fill="#ffffff" fill-rule="evenodd" fill-opacity="1"/>
<defs>
  <clipPath id="clip681">
    <rect x="480" y="0" width="1681" height="1600"/>
  </clipPath>
</defs>
<path clip-path="url(#clip680)" d="M251.56 1410.9 L2352.76 1410.9 L2352.76 123.472 L251.56 123.472  Z" fill="#ffffff" fill-rule="evenodd" fill-opacity="1"/>
<defs>
  <clipPath id="clip682">
    <rect x="251" y="123" width="2102" height="1288"/>
  </clipPath>
</defs>
<polyline clip-path="url(#clip682)" style="stroke:#000000; stroke-linecap:round; stroke-linejoin:round; stroke-width:2; stroke-opacity:0.1; fill:none" points="1212.06,1410.9 1212.06,123.472 "/>
<polyline clip-path="url(#clip682)" style="stroke:#000000; stroke-linecap:round; stroke-linejoin:round; stroke-width:2; stroke-opacity:0.1; fill:none" points="2293.29,1410.9 2293.29,123.472 "/>
<polyline clip-path="url(#clip682)" style="stroke:#000000; stroke-linecap:round; stroke-linejoin:round; stroke-width:2; stroke-opacity:0.1; fill:none" points="251.56,1148.96 2352.76,1148.96 "/>
<polyline clip-path="url(#clip682)" style="stroke:#000000; stroke-linecap:round; stroke-linejoin:round; stroke-width:2; stroke-opacity:0.1; fill:none" points="251.56,305.806 2352.76,305.806 "/>
<polyline clip-path="url(#clip680)" style="stroke:#000000; stroke-linecap:round; stroke-linejoin:round; stroke-width:4; stroke-opacity:1; fill:none" points="251.56,1410.9 2352.76,1410.9 "/>
<polyline clip-path="url(#clip680)" style="stroke:#000000; stroke-linecap:round; stroke-linejoin:round; stroke-width:4; stroke-opacity:1; fill:none" points="1212.06,1410.9 1212.06,1392 "/>
<polyline clip-path="url(#clip680)" style="stroke:#000000; stroke-linecap:round; stroke-linejoin:round; stroke-width:4; stroke-opacity:1; fill:none" points="2293.29,1410.9 2293.29,1392 "/>
<path clip-path="url(#clip680)" d="M1177.04 1485.02 L1184.68 1485.02 L1184.68 1458.66 L1176.37 1460.32 L1176.37 1456.06 L1184.63 1454.4 L1189.31 1454.4 L1189.31 1485.02 L1196.95 1485.02 L1196.95 1488.96 L1177.04 1488.96 L1177.04 1485.02 Z" fill="#000000" fill-rule="nonzero" fill-opacity="1" /><path clip-path="url(#clip680)" d="M1216.39 1457.48 Q1212.78 1457.48 1210.95 1461.04 Q1209.14 1464.58 1209.14 1471.71 Q1209.14 1478.82 1210.95 1482.38 Q1212.78 1485.92 1216.39 1485.92 Q1220.02 1485.92 1221.83 1482.38 Q1223.66 1478.82 1223.66 1471.71 Q1223.66 1464.58 1221.83 1461.04 Q1220.02 1457.48 1216.39 1457.48 M1216.39 1453.77 Q1222.2 1453.77 1225.26 1458.38 Q1228.33 1462.96 1228.33 1471.71 Q1228.33 1480.44 1225.26 1485.04 Q1222.2 1489.63 1216.39 1489.63 Q1210.58 1489.63 1207.5 1485.04 Q1204.45 1480.44 1204.45 1471.71 Q1204.45 1462.96 1207.5 1458.38 Q1210.58 1453.77 1216.39 1453.77 Z" fill="#000000" fill-rule="nonzero" fill-opacity="1" /><path clip-path="url(#clip680)" d="M1238.04 1435.97 Q1235.1 1435.97 1233.62 1438.86 Q1232.15 1441.74 1232.15 1447.53 Q1232.15 1453.31 1233.62 1456.2 Q1235.1 1459.08 1238.04 1459.08 Q1240.99 1459.08 1242.46 1456.2 Q1243.94 1453.31 1243.94 1447.53 Q1243.94 1441.74 1242.46 1438.86 Q1240.99 1435.97 1238.04 1435.97 M1238.04 1432.96 Q1242.76 1432.96 1245.24 1436.7 Q1247.74 1440.43 1247.74 1447.53 Q1247.74 1454.62 1245.24 1458.37 Q1242.76 1462.09 1238.04 1462.09 Q1233.32 1462.09 1230.82 1458.37 Q1228.33 1454.62 1228.33 1447.53 Q1228.33 1440.43 1230.82 1436.7 Q1233.32 1432.96 1238.04 1432.96 Z" fill="#000000" fill-rule="nonzero" fill-opacity="1" /><path clip-path="url(#clip680)" d="M2258.73 1485.02 L2266.37 1485.02 L2266.37 1458.66 L2258.06 1460.32 L2258.06 1456.06 L2266.32 1454.4 L2271 1454.4 L2271 1485.02 L2278.64 1485.02 L2278.64 1488.96 L2258.73 1488.96 L2258.73 1485.02 Z" fill="#000000" fill-rule="nonzero" fill-opacity="1" /><path clip-path="url(#clip680)" d="M2298.08 1457.48 Q2294.47 1457.48 2292.64 1461.04 Q2290.84 1464.58 2290.84 1471.71 Q2290.84 1478.82 2292.64 1482.38 Q2294.47 1485.92 2298.08 1485.92 Q2301.72 1485.92 2303.52 1482.38 Q2305.35 1478.82 2305.35 1471.71 Q2305.35 1464.58 2303.52 1461.04 Q2301.72 1457.48 2298.08 1457.48 M2298.08 1453.77 Q2303.89 1453.77 2306.95 1458.38 Q2310.03 1462.96 2310.03 1471.71 Q2310.03 1480.44 2306.95 1485.04 Q2303.89 1489.63 2298.08 1489.63 Q2292.27 1489.63 2289.19 1485.04 Q2286.14 1480.44 2286.14 1471.71 Q2286.14 1462.96 2289.19 1458.38 Q2292.27 1453.77 2298.08 1453.77 Z" fill="#000000" fill-rule="nonzero" fill-opacity="1" /><path clip-path="url(#clip680)" d="M2322.72 1446.41 Q2325.45 1446.99 2326.97 1448.83 Q2328.52 1450.68 2328.52 1453.38 Q2328.52 1457.54 2325.66 1459.82 Q2322.8 1462.09 2317.53 1462.09 Q2315.76 1462.09 2313.88 1461.73 Q2312.02 1461.4 2310.03 1460.7 L2310.03 1457.03 Q2311.61 1457.95 2313.49 1458.42 Q2315.37 1458.89 2317.42 1458.89 Q2320.99 1458.89 2322.85 1457.48 Q2324.74 1456.07 2324.74 1453.38 Q2324.74 1450.9 2322.99 1449.51 Q2321.26 1448.1 2318.15 1448.1 L2314.88 1448.1 L2314.88 1444.98 L2318.3 1444.98 Q2321.11 1444.98 2322.59 1443.87 Q2324.08 1442.74 2324.08 1440.63 Q2324.08 1438.47 2322.53 1437.32 Q2321.01 1436.16 2318.15 1436.16 Q2316.59 1436.16 2314.8 1436.49 Q2313.02 1436.83 2310.87 1437.55 L2310.87 1434.16 Q2313.04 1433.56 2314.92 1433.26 Q2316.82 1432.96 2318.49 1432.96 Q2322.82 1432.96 2325.34 1434.93 Q2327.86 1436.89 2327.86 1440.24 Q2327.86 1442.57 2326.52 1444.19 Q2325.19 1445.79 2322.72 1446.41 Z" fill="#000000" fill-rule="nonzero" fill-opacity="1" /><path clip-path="url(#clip680)" d="M1021.97 1526.67 L1049.28 1526.67 L1049.28 1532.08 L1028.4 1532.08 L1028.4 1546.08 L1047.24 1546.08 L1047.24 1551.49 L1028.4 1551.49 L1028.4 1574.19 L1021.97 1574.19 L1021.97 1526.67 Z" fill="#000000" fill-rule="nonzero" fill-opacity="1" /><path clip-path="url(#clip680)" d="M1075.13 1544.01 Q1074.14 1543.44 1072.96 1543.18 Q1071.81 1542.9 1070.41 1542.9 Q1065.45 1542.9 1062.78 1546.14 Q1060.13 1549.36 1060.13 1555.41 L1060.13 1574.19 L1054.25 1574.19 L1054.25 1538.54 L1060.13 1538.54 L1060.13 1544.08 Q1061.98 1540.83 1064.94 1539.27 Q1067.9 1537.68 1072.13 1537.68 Q1072.74 1537.68 1073.47 1537.77 Q1074.2 1537.84 1075.09 1538 L1075.13 1544.01 Z" fill="#000000" fill-rule="nonzero" fill-opacity="1" /><path clip-path="url(#clip680)" d="M1110.33 1554.9 L1110.33 1557.76 L1083.4 1557.76 Q1083.78 1563.81 1087.03 1566.99 Q1090.31 1570.14 1096.13 1570.14 Q1099.51 1570.14 1102.66 1569.32 Q1105.84 1568.49 1108.96 1566.83 L1108.96 1572.37 Q1105.81 1573.71 1102.5 1574.41 Q1099.19 1575.11 1095.78 1575.11 Q1087.25 1575.11 1082.25 1570.14 Q1077.29 1565.18 1077.29 1556.71 Q1077.29 1547.96 1082 1542.83 Q1086.74 1537.68 1094.76 1537.68 Q1101.96 1537.68 1106.13 1542.33 Q1110.33 1546.94 1110.33 1554.9 M1104.47 1553.18 Q1104.41 1548.37 1101.77 1545.51 Q1099.16 1542.64 1094.83 1542.64 Q1089.93 1542.64 1086.97 1545.41 Q1084.04 1548.18 1083.59 1553.21 L1104.47 1553.18 Z" fill="#000000" fill-rule="nonzero" fill-opacity="1" /><path clip-path="url(#clip680)" d="M1123.44 1556.39 Q1123.44 1562.85 1126.08 1566.55 Q1128.76 1570.21 1133.4 1570.21 Q1138.05 1570.21 1140.72 1566.55 Q1143.4 1562.85 1143.4 1556.39 Q1143.4 1549.93 1140.72 1546.27 Q1138.05 1542.58 1133.4 1542.58 Q1128.76 1542.58 1126.08 1546.27 Q1123.44 1549.93 1123.44 1556.39 M1143.4 1568.84 Q1141.55 1572.02 1138.72 1573.58 Q1135.92 1575.11 1131.97 1575.11 Q1125.51 1575.11 1121.44 1569.95 Q1117.39 1564.8 1117.39 1556.39 Q1117.39 1547.99 1121.44 1542.83 Q1125.51 1537.68 1131.97 1537.68 Q1135.92 1537.68 1138.72 1539.24 Q1141.55 1540.77 1143.4 1543.95 L1143.4 1538.54 L1149.25 1538.54 L1149.25 1587.74 L1143.4 1587.74 L1143.4 1568.84 Z" fill="#000000" fill-rule="nonzero" fill-opacity="1" /><path clip-path="url(#clip680)" d="M1160.71 1560.12 L1160.71 1538.54 L1166.57 1538.54 L1166.57 1559.89 Q1166.57 1564.96 1168.54 1567.5 Q1170.52 1570.02 1174.46 1570.02 Q1179.2 1570.02 1181.94 1566.99 Q1184.71 1563.97 1184.71 1558.75 L1184.71 1538.54 L1190.57 1538.54 L1190.57 1574.19 L1184.71 1574.19 L1184.71 1568.71 Q1182.58 1571.96 1179.75 1573.55 Q1176.94 1575.11 1173.22 1575.11 Q1167.08 1575.11 1163.89 1571.29 Q1160.71 1567.47 1160.71 1560.12 M1175.45 1537.68 L1175.45 1537.68 Z" fill="#000000" fill-rule="nonzero" fill-opacity="1" /><path clip-path="url(#clip680)" d="M1233.12 1554.9 L1233.12 1557.76 L1206.2 1557.76 Q1206.58 1563.81 1209.82 1566.99 Q1213.1 1570.14 1218.93 1570.14 Q1222.3 1570.14 1225.45 1569.32 Q1228.63 1568.49 1231.75 1566.83 L1231.75 1572.37 Q1228.6 1573.71 1225.29 1574.41 Q1221.98 1575.11 1218.58 1575.11 Q1210.05 1575.11 1205.05 1570.14 Q1200.08 1565.18 1200.08 1556.71 Q1200.08 1547.96 1204.79 1542.83 Q1209.54 1537.68 1217.56 1537.68 Q1224.75 1537.68 1228.92 1542.33 Q1233.12 1546.94 1233.12 1554.9 M1227.27 1553.18 Q1227.2 1548.37 1224.56 1545.51 Q1221.95 1542.64 1217.62 1542.64 Q1212.72 1542.64 1209.76 1545.41 Q1206.83 1548.18 1206.39 1553.21 L1227.27 1553.18 Z" fill="#000000" fill-rule="nonzero" fill-opacity="1" /><path clip-path="url(#clip680)" d="M1272.37 1552.67 L1272.37 1574.19 L1266.51 1574.19 L1266.51 1552.86 Q1266.51 1547.8 1264.54 1545.29 Q1262.56 1542.77 1258.62 1542.77 Q1253.87 1542.77 1251.14 1545.79 Q1248.4 1548.82 1248.4 1554.04 L1248.4 1574.19 L1242.51 1574.19 L1242.51 1538.54 L1248.4 1538.54 L1248.4 1544.08 Q1250.5 1540.86 1253.33 1539.27 Q1256.2 1537.68 1259.92 1537.68 Q1266.06 1537.68 1269.22 1541.5 Q1272.37 1545.29 1272.37 1552.67 Z" fill="#000000" fill-rule="nonzero" fill-opacity="1" /><path clip-path="url(#clip680)" d="M1309.7 1539.91 L1309.7 1545.38 Q1307.22 1544.01 1304.7 1543.34 Q1302.22 1542.64 1299.68 1542.64 Q1293.98 1542.64 1290.83 1546.27 Q1287.68 1549.87 1287.68 1556.39 Q1287.68 1562.92 1290.83 1566.55 Q1293.98 1570.14 1299.68 1570.14 Q1302.22 1570.14 1304.7 1569.47 Q1307.22 1568.77 1309.7 1567.41 L1309.7 1572.82 Q1307.25 1573.96 1304.61 1574.54 Q1302 1575.11 1299.04 1575.11 Q1290.99 1575.11 1286.24 1570.05 Q1281.5 1564.99 1281.5 1556.39 Q1281.5 1547.67 1286.28 1542.68 Q1291.08 1537.68 1299.42 1537.68 Q1302.13 1537.68 1304.7 1538.25 Q1307.28 1538.79 1309.7 1539.91 Z" fill="#000000" fill-rule="nonzero" fill-opacity="1" /><path clip-path="url(#clip680)" d="M1334.72 1577.5 Q1332.24 1583.86 1329.88 1585.8 Q1327.53 1587.74 1323.58 1587.74 L1318.9 1587.74 L1318.9 1582.84 L1322.34 1582.84 Q1324.76 1582.84 1326.09 1581.7 Q1327.43 1580.55 1329.05 1576.29 L1330.1 1573.61 L1315.69 1538.54 L1321.89 1538.54 L1333.03 1566.42 L1344.17 1538.54 L1350.38 1538.54 L1334.72 1577.5 Z" fill="#000000" fill-rule="nonzero" fill-opacity="1" /><path clip-path="url(#clip680)" d="M1378.64 1524.66 L1392.14 1524.66 L1392.14 1529.21 L1384.5 1529.21 L1384.5 1578.23 L1392.14 1578.23 L1392.14 1582.78 L1378.64 1582.78 L1378.64 1524.66 Z" fill="#000000" fill-rule="nonzero" fill-opacity="1" /><path clip-path="url(#clip680)" d="M1425.27 1544.01 Q1424.28 1543.44 1423.11 1543.18 Q1421.96 1542.9 1420.56 1542.9 Q1415.59 1542.9 1412.92 1546.14 Q1410.28 1549.36 1410.28 1555.41 L1410.28 1574.19 L1404.39 1574.19 L1404.39 1538.54 L1410.28 1538.54 L1410.28 1544.08 Q1412.13 1540.83 1415.09 1539.27 Q1418.05 1537.68 1422.28 1537.68 Q1422.88 1537.68 1423.62 1537.77 Q1424.35 1537.84 1425.24 1538 L1425.27 1544.01 Z" fill="#000000" fill-rule="nonzero" fill-opacity="1" /><path clip-path="url(#clip680)" d="M1447.61 1556.27 Q1440.52 1556.27 1437.78 1557.89 Q1435.04 1559.51 1435.04 1563.43 Q1435.04 1566.55 1437.08 1568.39 Q1439.15 1570.21 1442.68 1570.21 Q1447.55 1570.21 1450.48 1566.77 Q1453.44 1563.3 1453.44 1557.57 L1453.44 1556.27 L1447.61 1556.27 M1459.3 1553.85 L1459.3 1574.19 L1453.44 1574.19 L1453.44 1568.77 Q1451.43 1572.02 1448.44 1573.58 Q1445.45 1575.11 1441.12 1575.11 Q1435.65 1575.11 1432.4 1572.05 Q1429.19 1568.97 1429.19 1563.81 Q1429.19 1557.79 1433.2 1554.74 Q1437.24 1551.68 1445.23 1551.68 L1453.44 1551.68 L1453.44 1551.11 Q1453.44 1547.07 1450.77 1544.87 Q1448.12 1542.64 1443.32 1542.64 Q1440.26 1542.64 1437.37 1543.38 Q1434.47 1544.11 1431.8 1545.57 L1431.8 1540.16 Q1435.01 1538.92 1438.03 1538.31 Q1441.06 1537.68 1443.92 1537.68 Q1451.66 1537.68 1455.48 1541.69 Q1459.3 1545.7 1459.3 1553.85 Z" fill="#000000" fill-rule="nonzero" fill-opacity="1" /><path clip-path="url(#clip680)" d="M1494.82 1543.95 L1494.82 1524.66 L1500.67 1524.66 L1500.67 1574.19 L1494.82 1574.19 L1494.82 1568.84 Q1492.97 1572.02 1490.14 1573.58 Q1487.34 1575.11 1483.39 1575.11 Q1476.93 1575.11 1472.85 1569.95 Q1468.81 1564.8 1468.81 1556.39 Q1468.81 1547.99 1472.85 1542.83 Q1476.93 1537.68 1483.39 1537.68 Q1487.34 1537.68 1490.14 1539.24 Q1492.97 1540.77 1494.82 1543.95 M1474.86 1556.39 Q1474.86 1562.85 1477.5 1566.55 Q1480.18 1570.21 1484.82 1570.21 Q1489.47 1570.21 1492.14 1566.55 Q1494.82 1562.85 1494.82 1556.39 Q1494.82 1549.93 1492.14 1546.27 Q1489.47 1542.58 1484.82 1542.58 Q1480.18 1542.58 1477.5 1546.27 Q1474.86 1549.93 1474.86 1556.39 Z" fill="#000000" fill-rule="nonzero" fill-opacity="1" /><path clip-path="url(#clip680)" d="M1523.14 1526.67 L1528.55 1526.67 L1512 1580.23 L1506.59 1580.23 L1523.14 1526.67 Z" fill="#000000" fill-rule="nonzero" fill-opacity="1" /><path clip-path="url(#clip680)" d="M1557.42 1539.59 L1557.42 1545.13 Q1554.94 1543.85 1552.27 1543.22 Q1549.59 1542.58 1546.73 1542.58 Q1542.37 1542.58 1540.17 1543.92 Q1538.01 1545.25 1538.01 1547.93 Q1538.01 1549.96 1539.57 1551.14 Q1541.13 1552.29 1545.84 1553.34 L1547.84 1553.78 Q1554.08 1555.12 1556.69 1557.57 Q1559.33 1559.99 1559.33 1564.35 Q1559.33 1569.32 1555.39 1572.21 Q1551.47 1575.11 1544.6 1575.11 Q1541.73 1575.11 1538.61 1574.54 Q1535.52 1573.99 1532.09 1572.88 L1532.09 1566.83 Q1535.33 1568.52 1538.48 1569.38 Q1541.64 1570.21 1544.72 1570.21 Q1548.86 1570.21 1551.09 1568.81 Q1553.32 1567.37 1553.32 1564.8 Q1553.32 1562.41 1551.69 1561.14 Q1550.1 1559.86 1544.66 1558.68 L1542.62 1558.21 Q1537.18 1557.06 1534.76 1554.71 Q1532.34 1552.32 1532.34 1548.18 Q1532.34 1543.15 1535.91 1540.42 Q1539.47 1537.68 1546.03 1537.68 Q1549.27 1537.68 1552.14 1538.16 Q1555 1538.63 1557.42 1539.59 Z" fill="#000000" fill-rule="nonzero" fill-opacity="1" /><path clip-path="url(#clip680)" d="M1582.34 1524.66 L1582.34 1582.78 L1568.85 1582.78 L1568.85 1578.23 L1576.46 1578.23 L1576.46 1529.21 L1568.85 1529.21 L1568.85 1524.66 L1582.34 1524.66 Z" fill="#000000" fill-rule="nonzero" fill-opacity="1" /><polyline clip-path="url(#clip680)" style="stroke:#000000; stroke-linecap:round; stroke-linejoin:round; stroke-width:4; stroke-opacity:1; fill:none" points="251.56,1410.9 251.56,123.472 "/>
<polyline clip-path="url(#clip680)" style="stroke:#000000; stroke-linecap:round; stroke-linejoin:round; stroke-width:4; stroke-opacity:1; fill:none" points="251.56,1148.96 270.458,1148.96 "/>
<polyline clip-path="url(#clip680)" style="stroke:#000000; stroke-linecap:round; stroke-linejoin:round; stroke-width:4; stroke-opacity:1; fill:none" points="251.56,305.806 270.458,305.806 "/>
<path clip-path="url(#clip680)" d="M114.931 1168.75 L122.57 1168.75 L122.57 1142.39 L114.26 1144.05 L114.26 1139.79 L122.524 1138.13 L127.2 1138.13 L127.2 1168.75 L134.839 1168.75 L134.839 1172.69 L114.931 1172.69 L114.931 1168.75 Z" fill="#000000" fill-rule="nonzero" fill-opacity="1" /><path clip-path="url(#clip680)" d="M154.283 1141.21 Q150.672 1141.21 148.843 1144.77 Q147.038 1148.31 147.038 1155.44 Q147.038 1162.55 148.843 1166.11 Q150.672 1169.66 154.283 1169.66 Q157.917 1169.66 159.723 1166.11 Q161.552 1162.55 161.552 1155.44 Q161.552 1148.31 159.723 1144.77 Q157.917 1141.21 154.283 1141.21 M154.283 1137.5 Q160.093 1137.5 163.149 1142.11 Q166.227 1146.69 166.227 1155.44 Q166.227 1164.17 163.149 1168.78 Q160.093 1173.36 154.283 1173.36 Q148.473 1173.36 145.394 1168.78 Q142.339 1164.17 142.339 1155.44 Q142.339 1146.69 145.394 1142.11 Q148.473 1137.5 154.283 1137.5 Z" fill="#000000" fill-rule="nonzero" fill-opacity="1" /><path clip-path="url(#clip680)" d="M166.227 1131.6 L190.339 1131.6 L190.339 1134.8 L166.227 1134.8 L166.227 1131.6 Z" fill="#000000" fill-rule="nonzero" fill-opacity="1" /><path clip-path="url(#clip680)" d="M198.577 1117.2 L213.491 1117.2 L213.491 1120.39 L202.056 1120.39 L202.056 1127.28 Q202.884 1127 203.711 1126.86 Q204.539 1126.71 205.366 1126.71 Q210.068 1126.71 212.814 1129.29 Q215.56 1131.87 215.56 1136.27 Q215.56 1140.8 212.739 1143.32 Q209.918 1145.82 204.783 1145.82 Q203.015 1145.82 201.172 1145.52 Q199.348 1145.22 197.392 1144.62 L197.392 1140.8 Q199.085 1141.72 200.89 1142.17 Q202.696 1142.63 204.708 1142.63 Q207.962 1142.63 209.861 1140.91 Q211.761 1139.2 211.761 1136.27 Q211.761 1133.33 209.861 1131.62 Q207.962 1129.91 204.708 1129.91 Q203.185 1129.91 201.661 1130.25 Q200.157 1130.59 198.577 1131.3 L198.577 1117.2 Z" fill="#000000" fill-rule="nonzero" fill-opacity="1" /><path clip-path="url(#clip680)" d="M144.855 325.598 L152.493 325.598 L152.493 299.233 L144.183 300.899 L144.183 296.64 L152.447 294.974 L157.123 294.974 L157.123 325.598 L164.762 325.598 L164.762 329.534 L144.855 329.534 L144.855 325.598 Z" fill="#000000" fill-rule="nonzero" fill-opacity="1" /><path clip-path="url(#clip680)" d="M184.206 298.052 Q180.595 298.052 178.766 301.617 Q176.961 305.159 176.961 312.288 Q176.961 319.395 178.766 322.959 Q180.595 326.501 184.206 326.501 Q187.84 326.501 189.646 322.959 Q191.475 319.395 191.475 312.288 Q191.475 305.159 189.646 301.617 Q187.84 298.052 184.206 298.052 M184.206 294.349 Q190.016 294.349 193.072 298.955 Q196.151 303.538 196.151 312.288 Q196.151 321.015 193.072 325.622 Q190.016 330.205 184.206 330.205 Q178.396 330.205 175.317 325.622 Q172.262 321.015 172.262 312.288 Q172.262 303.538 175.317 298.955 Q178.396 294.349 184.206 294.349 Z" fill="#000000" fill-rule="nonzero" fill-opacity="1" /><path clip-path="url(#clip680)" d="M205.855 276.545 Q202.921 276.545 201.436 279.441 Q199.969 282.319 199.969 288.111 Q199.969 293.885 201.436 296.782 Q202.921 299.659 205.855 299.659 Q208.808 299.659 210.275 296.782 Q211.761 293.885 211.761 288.111 Q211.761 282.319 210.275 279.441 Q208.808 276.545 205.855 276.545 M205.855 273.535 Q210.576 273.535 213.059 277.278 Q215.56 281.002 215.56 288.111 Q215.56 295.202 213.059 298.945 Q210.576 302.669 205.855 302.669 Q201.135 302.669 198.633 298.945 Q196.151 295.202 196.151 288.111 Q196.151 281.002 198.633 277.278 Q201.135 273.535 205.855 273.535 Z" fill="#000000" fill-rule="nonzero" fill-opacity="1" /><path clip-path="url(#clip680)" d="M18.0438 995.825 L24.314 995.825 Q22.5634 999.485 21.704 1002.73 Q20.8447 1005.98 20.8447 1009 Q20.8447 1014.25 22.8817 1017.12 Q24.9187 1019.95 28.6745 1019.95 Q31.8255 1019.95 33.4488 1018.07 Q35.0402 1016.16 36.0269 1010.88 L36.8226 1007 Q38.1912 999.803 41.6605 996.398 Q45.098 992.96 50.8908 992.96 Q57.7976 992.96 61.3624 997.607 Q64.9272 1002.22 64.9272 1011.17 Q64.9272 1014.54 64.1633 1018.36 Q63.3994 1022.15 61.9035 1026.22 L55.2831 1026.22 Q57.4793 1022.31 58.5933 1018.55 Q59.7073 1014.79 59.7073 1011.17 Q59.7073 1005.66 57.543 1002.67 Q55.3786 999.676 51.3682 999.676 Q47.8671 999.676 45.8937 1001.84 Q43.9204 1003.97 42.9337 1008.87 L42.1698 1012.79 Q40.7375 1019.98 37.682 1023.2 Q34.6264 1026.41 29.1837 1026.41 Q22.8817 1026.41 19.2532 1021.99 Q15.6248 1017.53 15.6248 1009.73 Q15.6248 1006.39 16.2295 1002.92 Q16.8343 999.453 18.0438 995.825 Z" fill="#000000" fill-rule="nonzero" fill-opacity="1" /><path clip-path="url(#clip680)" d="M28.3562 983.189 L28.3562 977.332 L64.0042 977.332 L64.0042 983.189 L28.3562 983.189 M14.479 983.189 L14.479 977.332 L21.895 977.332 L21.895 983.189 L14.479 983.189 Z" fill="#000000" fill-rule="nonzero" fill-opacity="1" /><path clip-path="url(#clip680)" d="M42.4881 935.446 L64.0042 935.446 L64.0042 941.302 L42.679 941.302 Q37.6183 941.302 35.1038 943.276 Q32.5894 945.249 32.5894 949.196 Q32.5894 953.938 35.6131 956.676 Q38.6368 959.413 43.8567 959.413 L64.0042 959.413 L64.0042 965.301 L28.3562 965.301 L28.3562 959.413 L33.8944 959.413 Q30.6797 957.312 29.0883 954.479 Q27.4968 951.615 27.4968 947.891 Q27.4968 941.748 31.3163 938.597 Q35.1038 935.446 42.4881 935.446 Z" fill="#000000" fill-rule="nonzero" fill-opacity="1" /><path clip-path="url(#clip680)" d="M45.7664 900.307 Q39.4007 900.307 35.8996 902.949 Q32.3984 905.559 32.3984 910.301 Q32.3984 915.012 35.8996 917.654 Q39.4007 920.264 45.7664 920.264 Q52.1003 920.264 55.6014 917.654 Q59.1026 915.012 59.1026 910.301 Q59.1026 905.559 55.6014 902.949 Q52.1003 900.307 45.7664 900.307 M59.58 894.451 Q68.683 894.451 73.1071 898.493 Q77.5631 902.535 77.5631 910.874 Q77.5631 913.962 77.0857 916.699 Q76.6401 919.436 75.6852 922.014 L69.9879 922.014 Q71.3884 919.436 72.0568 916.922 Q72.7252 914.407 72.7252 911.797 Q72.7252 906.036 69.7015 903.172 Q66.7096 900.307 60.6303 900.307 L57.7339 900.307 Q60.885 902.121 62.4446 904.954 Q64.0042 907.787 64.0042 911.734 Q64.0042 918.29 59.0071 922.301 Q54.01 926.311 45.7664 926.311 Q37.491 926.311 32.4939 922.301 Q27.4968 918.29 27.4968 911.734 Q27.4968 907.787 29.0564 904.954 Q30.616 902.121 33.7671 900.307 L28.3562 900.307 L28.3562 894.451 L59.58 894.451 Z" fill="#000000" fill-rule="nonzero" fill-opacity="1" /><path clip-path="url(#clip680)" d="M49.9359 882.993 L28.3562 882.993 L28.3562 877.136 L49.7131 877.136 Q54.7739 877.136 57.3202 875.163 Q59.8346 873.189 59.8346 869.243 Q59.8346 864.5 56.8109 861.763 Q53.7872 858.994 48.5673 858.994 L28.3562 858.994 L28.3562 853.137 L64.0042 853.137 L64.0042 858.994 L58.5296 858.994 Q61.7762 861.126 63.3676 863.959 Q64.9272 866.76 64.9272 870.484 Q64.9272 876.627 61.1078 879.81 Q57.2883 882.993 49.9359 882.993 M27.4968 868.256 L27.4968 868.256 Z" fill="#000000" fill-rule="nonzero" fill-opacity="1" /><path clip-path="url(#clip680)" d="M14.479 841.074 L14.479 835.218 L64.0042 835.218 L64.0042 841.074 L14.479 841.074 Z" fill="#000000" fill-rule="nonzero" fill-opacity="1" /><path clip-path="url(#clip680)" d="M46.0847 806.763 Q46.0847 813.861 47.7079 816.598 Q49.3312 819.335 53.2461 819.335 Q56.3653 819.335 58.2114 817.298 Q60.0256 815.23 60.0256 811.697 Q60.0256 806.827 56.5881 803.899 Q53.1188 800.939 47.3897 800.939 L46.0847 800.939 L46.0847 806.763 M43.6657 795.082 L64.0042 795.082 L64.0042 800.939 L58.5933 800.939 Q61.8398 802.944 63.3994 805.936 Q64.9272 808.928 64.9272 813.256 Q64.9272 818.731 61.8716 821.977 Q58.7843 825.192 53.6281 825.192 Q47.6125 825.192 44.5569 821.181 Q41.5014 817.139 41.5014 809.15 L41.5014 800.939 L40.9285 800.939 Q36.8862 800.939 34.6901 803.612 Q32.4621 806.254 32.4621 811.06 Q32.4621 814.116 33.1941 817.012 Q33.9262 819.908 35.3903 822.582 L29.9795 822.582 Q28.7381 819.367 28.1334 816.344 Q27.4968 813.32 27.4968 810.455 Q27.4968 802.721 31.5072 798.902 Q35.5176 795.082 43.6657 795.082 Z" fill="#000000" fill-rule="nonzero" fill-opacity="1" /><path clip-path="url(#clip680)" d="M33.8307 762.362 Q33.2578 763.349 33.0032 764.527 Q32.7167 765.673 32.7167 767.073 Q32.7167 772.038 35.9632 774.712 Q39.1779 777.354 45.2253 777.354 L64.0042 777.354 L64.0042 783.242 L28.3562 783.242 L28.3562 777.354 L33.8944 777.354 Q30.6479 775.508 29.0883 772.547 Q27.4968 769.587 27.4968 765.354 Q27.4968 764.75 27.5923 764.017 Q27.656 763.285 27.8151 762.394 L33.8307 762.362 Z" fill="#000000" fill-rule="nonzero" fill-opacity="1" /><path clip-path="url(#clip680)" d="M64.0042 722.99 L16.4842 741.133 L16.4842 734.417 L56.4926 719.362 L16.4842 704.275 L16.4842 697.591 L64.0042 715.702 L64.0042 722.99 Z" fill="#000000" fill-rule="nonzero" fill-opacity="1" /><path clip-path="url(#clip680)" d="M46.0847 679.767 Q46.0847 686.865 47.7079 689.602 Q49.3312 692.34 53.2461 692.34 Q56.3653 692.34 58.2114 690.303 Q60.0256 688.234 60.0256 684.701 Q60.0256 679.831 56.5881 676.903 Q53.1188 673.943 47.3897 673.943 L46.0847 673.943 L46.0847 679.767 M43.6657 668.086 L64.0042 668.086 L64.0042 673.943 L58.5933 673.943 Q61.8398 675.948 63.3994 678.94 Q64.9272 681.932 64.9272 686.26 Q64.9272 691.735 61.8716 694.981 Q58.7843 698.196 53.6281 698.196 Q47.6125 698.196 44.5569 694.186 Q41.5014 690.143 41.5014 682.154 L41.5014 673.943 L40.9285 673.943 Q36.8862 673.943 34.6901 676.616 Q32.4621 679.258 32.4621 684.064 Q32.4621 687.12 33.1941 690.016 Q33.9262 692.913 35.3903 695.586 L29.9795 695.586 Q28.7381 692.371 28.1334 689.348 Q27.4968 686.324 27.4968 683.459 Q27.4968 675.725 31.5072 671.906 Q35.5176 668.086 43.6657 668.086 Z" fill="#000000" fill-rule="nonzero" fill-opacity="1" /><path clip-path="url(#clip680)" d="M14.479 656.023 L14.479 650.167 L64.0042 650.167 L64.0042 656.023 L14.479 656.023 Z" fill="#000000" fill-rule="nonzero" fill-opacity="1" /><path clip-path="url(#clip680)" d="M49.9359 638.518 L28.3562 638.518 L28.3562 632.661 L49.7131 632.661 Q54.7739 632.661 57.3202 630.688 Q59.8346 628.714 59.8346 624.768 Q59.8346 620.025 56.8109 617.288 Q53.7872 614.519 48.5673 614.519 L28.3562 614.519 L28.3562 608.662 L64.0042 608.662 L64.0042 614.519 L58.5296 614.519 Q61.7762 616.651 63.3676 619.484 Q64.9272 622.285 64.9272 626.009 Q64.9272 632.152 61.1078 635.335 Q57.2883 638.518 49.9359 638.518 M27.4968 623.781 L27.4968 623.781 Z" fill="#000000" fill-rule="nonzero" fill-opacity="1" /><path clip-path="url(#clip680)" d="M44.7161 566.108 L47.5806 566.108 L47.5806 593.035 Q53.6281 592.653 56.8109 589.406 Q59.9619 586.128 59.9619 580.303 Q59.9619 576.929 59.1344 573.778 Q58.3069 570.595 56.6518 567.476 L62.1899 567.476 Q63.5267 570.627 64.227 573.937 Q64.9272 577.248 64.9272 580.653 Q64.9272 589.183 59.9619 594.18 Q54.9967 599.146 46.5303 599.146 Q37.7774 599.146 32.6531 594.435 Q27.4968 589.693 27.4968 581.672 Q27.4968 574.479 32.1438 570.309 Q36.7589 566.108 44.7161 566.108 M42.9973 571.964 Q38.1912 572.028 35.3266 574.67 Q32.4621 577.279 32.4621 581.608 Q32.4621 586.51 35.2312 589.47 Q38.0002 592.398 43.0292 592.844 L42.9973 571.964 Z" fill="#000000" fill-rule="nonzero" fill-opacity="1" /><path clip-path="url(#clip680)" d="M29.4065 533.77 L34.9447 533.77 Q33.6716 536.252 33.035 538.926 Q32.3984 541.6 32.3984 544.464 Q32.3984 548.825 33.7352 551.021 Q35.072 553.185 37.7456 553.185 Q39.7826 553.185 40.9603 551.626 Q42.1061 550.066 43.1565 545.355 L43.6021 543.35 Q44.9389 537.112 47.3897 534.502 Q49.8086 531.86 54.1691 531.86 Q59.1344 531.86 62.0308 535.807 Q64.9272 539.722 64.9272 546.597 Q64.9272 549.461 64.3543 552.58 Q63.8132 555.668 62.6992 559.105 L56.6518 559.105 Q58.3387 555.859 59.198 552.708 Q60.0256 549.557 60.0256 546.469 Q60.0256 542.332 58.6251 540.104 Q57.1929 537.876 54.6147 537.876 Q52.2276 537.876 50.9545 539.499 Q49.6813 541.09 48.5037 546.533 L48.0262 548.57 Q46.8804 554.013 44.5251 556.432 Q42.138 558.851 38.0002 558.851 Q32.9713 558.851 30.2341 555.286 Q27.4968 551.721 27.4968 545.164 Q27.4968 541.918 27.9743 539.053 Q28.4517 536.189 29.4065 533.77 Z" fill="#000000" fill-rule="nonzero" fill-opacity="1" /><path clip-path="url(#clip680)" d="M1123.43 14.0809 L1123.43 22.0612 Q1118.77 19.8332 1114.64 18.7395 Q1110.51 17.6457 1106.66 17.6457 Q1099.98 17.6457 1096.33 20.2383 Q1092.73 22.8309 1092.73 27.611 Q1092.73 31.6214 1095.12 33.6873 Q1097.55 35.7128 1104.27 36.9686 L1109.21 37.9813 Q1118.37 39.7232 1122.7 44.1387 Q1127.08 48.5136 1127.08 55.8863 Q1127.08 64.6767 1121.16 69.2137 Q1115.29 73.7508 1103.91 73.7508 Q1099.61 73.7508 1094.75 72.7785 Q1089.93 71.8063 1084.75 69.9024 L1084.75 61.4765 Q1089.73 64.2716 1094.51 65.6895 Q1099.29 67.1073 1103.91 67.1073 Q1110.91 67.1073 1114.72 64.3527 Q1118.53 61.598 1118.53 56.4939 Q1118.53 52.0379 1115.78 49.5264 Q1113.06 47.0148 1106.82 45.759 L1101.84 44.7868 Q1092.69 42.9639 1088.59 39.075 Q1084.5 35.1862 1084.5 28.2591 Q1084.5 20.2383 1090.13 15.6203 Q1095.81 11.0023 1105.73 11.0023 Q1109.98 11.0023 1114.4 11.7719 Q1118.81 12.5416 1123.43 14.0809 Z" fill="#000000" fill-rule="nonzero" fill-opacity="1" /><path clip-path="url(#clip680)" d="M1139.51 27.2059 L1146.97 27.2059 L1146.97 72.576 L1139.51 72.576 L1139.51 27.2059 M1139.51 9.54393 L1146.97 9.54393 L1146.97 18.9825 L1139.51 18.9825 L1139.51 9.54393 Z" fill="#000000" fill-rule="nonzero" fill-opacity="1" /><path clip-path="url(#clip680)" d="M1192.42 49.3643 Q1192.42 41.2625 1189.06 36.8065 Q1185.74 32.3505 1179.7 32.3505 Q1173.7 32.3505 1170.34 36.8065 Q1167.02 41.2625 1167.02 49.3643 Q1167.02 57.4256 1170.34 61.8816 Q1173.7 66.3376 1179.7 66.3376 Q1185.74 66.3376 1189.06 61.8816 Q1192.42 57.4256 1192.42 49.3643 M1199.87 66.9452 Q1199.87 78.5308 1194.73 84.1616 Q1189.58 89.8329 1178.97 89.8329 Q1175.04 89.8329 1171.56 89.2252 Q1168.07 88.6581 1164.79 87.4428 L1164.79 80.1917 Q1168.07 81.9741 1171.27 82.8248 Q1174.47 83.6755 1177.8 83.6755 Q1185.13 83.6755 1188.77 79.8271 Q1192.42 76.0193 1192.42 68.282 L1192.42 64.5957 Q1190.11 68.6061 1186.5 70.5911 Q1182.9 72.576 1177.88 72.576 Q1169.53 72.576 1164.43 66.2161 Q1159.32 59.8562 1159.32 49.3643 Q1159.32 38.832 1164.43 32.472 Q1169.53 26.1121 1177.88 26.1121 Q1182.9 26.1121 1186.5 28.0971 Q1190.11 30.082 1192.42 34.0924 L1192.42 27.2059 L1199.87 27.2059 L1199.87 66.9452 Z" fill="#000000" fill-rule="nonzero" fill-opacity="1" /><path clip-path="url(#clip680)" d="M1250.55 35.9153 Q1253.34 30.8922 1257.23 28.5022 Q1261.12 26.1121 1266.39 26.1121 Q1273.48 26.1121 1277.33 31.0947 Q1281.17 36.0368 1281.17 45.1919 L1281.17 72.576 L1273.68 72.576 L1273.68 45.4349 Q1273.68 38.913 1271.37 35.7533 Q1269.06 32.5936 1264.32 32.5936 Q1258.53 32.5936 1255.17 36.4419 Q1251.81 40.2903 1251.81 46.9338 L1251.81 72.576 L1244.31 72.576 L1244.31 45.4349 Q1244.31 38.8725 1242 35.7533 Q1239.69 32.5936 1234.87 32.5936 Q1229.16 32.5936 1225.8 36.4824 Q1222.44 40.3308 1222.44 46.9338 L1222.44 72.576 L1214.94 72.576 L1214.94 27.2059 L1222.44 27.2059 L1222.44 34.2544 Q1224.99 30.082 1228.55 28.0971 Q1232.12 26.1121 1237.02 26.1121 Q1241.96 26.1121 1245.4 28.6237 Q1248.89 31.1352 1250.55 35.9153 Z" fill="#000000" fill-rule="nonzero" fill-opacity="1" /><path clip-path="url(#clip680)" d="M1316.66 49.7694 Q1307.63 49.7694 1304.14 51.8354 Q1300.66 53.9013 1300.66 58.8839 Q1300.66 62.8538 1303.25 65.2034 Q1305.88 67.5124 1310.38 67.5124 Q1316.58 67.5124 1320.31 63.1374 Q1324.07 58.7219 1324.07 51.4303 L1324.07 49.7694 L1316.66 49.7694 M1331.53 46.6907 L1331.53 72.576 L1324.07 72.576 L1324.07 65.6895 Q1321.52 69.8214 1317.71 71.8063 Q1313.91 73.7508 1308.4 73.7508 Q1301.43 73.7508 1297.3 69.8619 Q1293.21 65.9325 1293.21 59.3701 Q1293.21 51.7138 1298.31 47.825 Q1303.45 43.9361 1313.62 43.9361 L1324.07 43.9361 L1324.07 43.2069 Q1324.07 38.0623 1320.67 35.2672 Q1317.31 32.4315 1311.19 32.4315 Q1307.3 32.4315 1303.62 33.3632 Q1299.93 34.295 1296.53 36.1584 L1296.53 29.2718 Q1300.62 27.692 1304.47 26.9223 Q1308.32 26.1121 1311.96 26.1121 Q1321.8 26.1121 1326.67 31.2163 Q1331.53 36.3204 1331.53 46.6907 Z" fill="#000000" fill-rule="nonzero" fill-opacity="1" /><path clip-path="url(#clip680)" d="M1381.76 18.8205 L1381.76 41.5461 L1392.05 41.5461 Q1397.76 41.5461 1400.88 38.5889 Q1404 35.6318 1404 30.163 Q1404 24.7348 1400.88 21.7777 Q1397.76 18.8205 1392.05 18.8205 L1381.76 18.8205 M1373.58 12.096 L1392.05 12.096 Q1402.22 12.096 1407.4 16.714 Q1412.63 21.2916 1412.63 30.163 Q1412.63 39.1155 1407.4 43.6931 Q1402.22 48.2706 1392.05 48.2706 L1381.76 48.2706 L1381.76 72.576 L1373.58 72.576 L1373.58 12.096 Z" fill="#000000" fill-rule="nonzero" fill-opacity="1" /><path clip-path="url(#clip680)" d="M1423.28 9.54393 L1430.73 9.54393 L1430.73 72.576 L1423.28 72.576 L1423.28 9.54393 Z" fill="#000000" fill-rule="nonzero" fill-opacity="1" /><path clip-path="url(#clip680)" d="M1463.91 32.4315 Q1457.92 32.4315 1454.43 37.1306 Q1450.95 41.7891 1450.95 49.9314 Q1450.95 58.0738 1454.39 62.7728 Q1457.87 67.4314 1463.91 67.4314 Q1469.87 67.4314 1473.35 62.7323 Q1476.83 58.0333 1476.83 49.9314 Q1476.83 41.8701 1473.35 37.1711 Q1469.87 32.4315 1463.91 32.4315 M1463.91 26.1121 Q1473.63 26.1121 1479.18 32.4315 Q1484.73 38.7509 1484.73 49.9314 Q1484.73 61.0714 1479.18 67.4314 Q1473.63 73.7508 1463.91 73.7508 Q1454.15 73.7508 1448.6 67.4314 Q1443.09 61.0714 1443.09 49.9314 Q1443.09 38.7509 1448.6 32.4315 Q1454.15 26.1121 1463.91 26.1121 Z" fill="#000000" fill-rule="nonzero" fill-opacity="1" /><path clip-path="url(#clip680)" d="M1504.46 14.324 L1504.46 27.2059 L1519.81 27.2059 L1519.81 32.9987 L1504.46 32.9987 L1504.46 57.6282 Q1504.46 63.1779 1505.96 64.7578 Q1507.5 66.3376 1512.16 66.3376 L1519.81 66.3376 L1519.81 72.576 L1512.16 72.576 Q1503.53 72.576 1500.25 69.3758 Q1496.97 66.1351 1496.97 57.6282 L1496.97 32.9987 L1491.5 32.9987 L1491.5 27.2059 L1496.97 27.2059 L1496.97 14.324 L1504.46 14.324 Z" fill="#000000" fill-rule="nonzero" fill-opacity="1" /><polyline clip-path="url(#clip682)" style="stroke:#009af9; stroke-linecap:round; stroke-linejoin:round; stroke-width:4; stroke-opacity:1; fill:none" points="311.028,177.62 315.001,177.62 318.973,177.62 322.945,177.62 326.918,177.62 330.89,177.62 334.863,177.62 338.835,177.62 342.808,177.62 346.78,177.62 350.753,177.62 354.725,177.62 358.698,177.62 362.67,177.62 366.643,177.62 370.615,177.62 374.587,177.62 378.56,177.62 382.532,177.62 386.505,177.62 390.477,177.62 394.45,177.62 398.422,177.62 402.395,177.62 406.367,177.62 410.34,177.62 414.312,177.62 418.285,177.62 422.257,177.62 426.23,177.62 430.202,177.62 434.174,177.62 438.147,177.62 442.119,177.62 446.092,177.62 450.064,177.62 454.037,177.62 458.009,177.62 461.982,177.62 465.954,177.62 469.927,177.62 473.899,177.62 477.872,177.62 481.844,177.62 485.817,177.62 489.789,177.62 493.761,177.62 497.734,177.62 501.706,177.62 505.679,177.62 509.651,177.62 513.624,177.62 517.596,177.62 521.569,177.62 525.541,177.62 529.514,177.62 533.486,177.62 537.459,177.62 541.431,177.62 545.403,177.62 549.376,177.62 553.348,177.62 557.321,177.62 561.293,177.62 565.266,177.62 569.238,177.62 573.211,177.62 577.183,177.62 581.156,177.62 585.128,177.62 589.101,177.62 593.073,177.62 597.046,177.62 601.018,177.62 604.99,177.62 608.963,177.62 612.935,177.62 616.908,177.62 620.88,177.62 624.853,177.62 628.825,177.62 632.798,177.62 636.77,177.62 640.743,177.62 644.715,177.62 648.688,177.62 652.66,177.62 656.633,177.62 660.605,177.62 664.577,177.62 668.55,177.62 672.522,177.62 676.495,177.62 680.467,177.62 684.44,177.62 688.412,177.62 692.385,177.62 696.357,177.62 700.33,177.62 704.302,177.62 708.275,177.62 712.247,177.619 716.219,177.619 720.192,177.619 724.164,177.619 728.137,177.619 732.109,177.619 736.082,177.619 740.054,177.619 744.027,177.619 747.999,177.619 751.972,177.619 755.944,177.619 759.917,177.619 763.889,177.619 767.862,177.618 771.834,177.618 775.806,177.618 779.779,177.618 783.751,177.618 787.724,177.618 791.696,177.618 795.669,177.618 799.641,177.618 803.614,177.617 807.586,177.617 811.559,177.617 815.531,177.617 819.504,177.617 823.476,177.616 827.449,177.616 831.421,177.616 835.393,177.616 839.366,177.616 843.338,177.615 847.311,177.615 851.283,177.615 855.256,177.614 859.228,177.614 863.201,177.614 867.173,177.614 871.146,177.613 875.118,177.613 879.091,177.612 883.063,177.612 887.035,177.612 891.008,177.611 894.98,177.611 898.953,177.61 902.925,177.609 906.898,177.609 910.87,177.608 914.843,177.608 918.815,177.607 922.788,177.606 926.76,177.606 930.733,177.605 934.705,177.604 938.678,177.603 942.65,177.602 946.622,177.601 950.595,177.6 954.567,177.599 958.54,177.598 962.512,177.597 966.485,177.596 970.457,177.594 974.43,177.593 978.402,177.592 982.375,177.59 986.347,177.588 990.32,177.587 994.292,177.585 998.265,177.583 1002.24,177.581 1006.21,177.579 1010.18,177.577 1014.15,177.575 1018.13,177.572 1022.1,177.57 1026.07,177.567 1030.04,177.564 1034.02,177.561 1037.99,177.558 1041.96,177.554 1045.93,177.551 1049.91,177.547 1053.88,177.543 1057.85,177.539 1061.82,177.535 1065.8,177.53 1069.77,177.525 1073.74,177.52 1077.71,177.515 1081.69,177.509 1085.66,177.503 1089.63,177.497 1093.6,177.49 1097.58,177.483 1101.55,177.476 1105.52,177.468 1109.49,177.459 1113.47,177.451 1117.44,177.441 1121.41,177.431 1125.38,177.421 1129.36,177.41 1133.33,177.398 1137.3,177.386 1141.27,177.373 1145.25,177.359 1149.22,177.344 1153.19,177.329 1157.16,177.312 1161.14,177.295 1165.11,177.276 1169.08,177.257 1173.05,177.236 1177.03,177.214 1181,177.19 1184.97,177.166 1188.94,177.139 1192.92,177.111 1196.89,177.081 1200.86,177.05 1204.83,177.016 1208.81,176.98 1212.78,176.942 1216.75,176.902 1220.72,176.859 1224.7,176.813 1228.67,176.764 1232.64,176.712 1236.61,176.657 1240.58,176.598 1244.56,176.536 1248.53,176.469 1252.5,176.398 1256.47,176.322 1260.45,176.242 1264.42,176.156 1268.39,176.064 1272.36,175.967 1276.34,175.864 1280.31,175.753 1284.28,175.636 1288.25,175.512 1292.23,175.379 1296.2,175.238 1300.17,175.089 1304.14,174.93 1308.12,174.762 1312.09,174.583 1316.06,174.395 1320.03,174.195 1324.01,173.983 1327.98,173.76 1331.95,173.525 1335.92,173.278 1339.9,173.017 1343.87,172.744 1347.84,172.457 1351.81,172.157 1355.79,171.843 1359.76,171.516 1363.73,171.176 1367.7,170.822 1371.68,170.456 1375.65,170.077 1379.62,169.687 1383.59,169.285 1387.57,168.873 1391.54,168.452 1395.51,168.023 1399.48,167.586 1403.46,167.144 1407.43,166.698 1411.4,166.249 1415.37,165.799 1419.35,165.351 1423.32,164.905 1427.29,164.465 1431.26,164.031 1435.24,163.607 1439.21,163.195 1443.18,162.797 1447.15,162.415 1451.13,162.051 1455.1,161.708 1459.07,161.389 1463.04,161.094 1467.02,160.828 1470.99,160.591 1474.96,160.386 1478.93,160.215 1482.91,160.08 1486.88,159.982 1490.85,159.925 1494.82,159.909 1498.8,159.936 1502.77,160.008 1506.74,160.126 1510.71,160.292 1514.68,160.508 1518.66,160.774 1522.63,161.093 1526.6,161.466 1530.57,161.893 1534.55,162.377 1538.52,162.919 1542.49,163.521 1546.46,164.183 1550.44,164.907 1554.41,165.695 1558.38,166.548 1562.35,167.469 1566.33,168.458 1570.3,169.517 1574.27,170.649 1578.24,171.855 1582.22,173.136 1586.19,174.494 1590.16,175.932 1594.13,177.45 1598.11,179.051 1602.08,180.734 1606.05,182.502 1610.02,184.355 1614,186.294 1617.97,188.318 1621.94,190.428 1625.91,192.621 1629.89,194.898 1633.86,197.256 1637.83,199.691 1641.8,202.203 1645.78,204.785 1649.75,207.434 1653.72,210.146 1657.69,212.913 1661.67,215.73 1665.64,218.591 1669.61,221.487 1673.58,224.412 1677.56,227.357 1681.53,230.314 1685.5,233.275 1689.47,236.231 1693.45,239.174 1697.42,242.095 1701.39,244.987 1705.36,247.84 1709.34,250.648 1713.31,253.404 1717.28,256.1 1721.25,258.73 1725.23,261.289 1729.2,263.772 1733.17,266.174 1737.14,268.491 1741.12,270.721 1745.09,272.862 1749.06,274.912 1753.03,276.869 1757.01,278.734 1760.98,280.507 1764.95,282.189 1768.92,283.781 1772.9,285.284 1776.87,286.702 1780.84,288.037 1784.81,289.291 1788.79,290.467 1792.76,291.568 1796.73,292.599 1800.7,293.562 1804.67,294.46 1808.65,295.297 1812.62,296.076 1816.59,296.801 1820.56,297.475 1824.54,298.1 1828.51,298.681 1832.48,299.219 1836.45,299.718 1840.43,300.18 1844.4,300.608 1848.37,301.004 1852.34,301.37 1856.32,301.709 1860.29,302.022 1864.26,302.311 1868.23,302.579 1872.21,302.826 1876.18,303.054 1880.15,303.265 1884.12,303.46 1888.1,303.64 1892.07,303.805 1896.04,303.959 1900.01,304.1 1903.99,304.231 1907.96,304.351 1911.93,304.462 1915.9,304.565 1919.88,304.66 1923.85,304.747 1927.82,304.828 1931.79,304.903 1935.77,304.972 1939.74,305.035 1943.71,305.094 1947.68,305.148 1951.66,305.198 1955.63,305.244 1959.6,305.287 1963.57,305.326 1967.55,305.363 1971.52,305.396 1975.49,305.427 1979.46,305.456 1983.44,305.482 1987.41,305.507 1991.38,305.529 1995.35,305.55 1999.33,305.57 2003.3,305.587 2007.27,305.604 2011.24,305.619 2015.22,305.633 2019.19,305.646 2023.16,305.658 2027.13,305.669 2031.11,305.68 2035.08,305.689 2039.05,305.698 2043.02,305.706 2047,305.713 2050.97,305.72 2054.94,305.727 2058.91,305.733 2062.89,305.738 2066.86,305.743 2070.83,305.748 2074.8,305.752 2078.77,305.756 2082.75,305.76 2086.72,305.763 2090.69,305.767 2094.66,305.769 2098.64,305.772 2102.61,305.775 2106.58,305.777 2110.55,305.779 2114.53,305.781 2118.5,305.783 2122.47,305.785 2126.44,305.786 2130.42,305.788 2134.39,305.789 2138.36,305.79 2142.33,305.792 2146.31,305.793 2150.28,305.794 2154.25,305.794 2158.22,305.795 2162.2,305.796 2166.17,305.797 2170.14,305.798 2174.11,305.798 2178.09,305.799 2182.06,305.799 2186.03,305.8 2190,305.8 2193.98,305.801 2197.95,305.801 2201.92,305.801 2205.89,305.802 2209.87,305.802 2213.84,305.802 2217.81,305.803 2221.78,305.803 2225.76,305.803 2229.73,305.803 2233.7,305.803 2237.67,305.804 2241.65,305.804 2245.62,305.804 2249.59,305.804 2253.56,305.804 2257.54,305.804 2261.51,305.804 2265.48,305.805 2269.45,305.805 2273.43,305.805 2277.4,305.805 2281.37,305.805 2285.34,305.805 2289.32,305.805 2293.29,305.805 "/>
<polyline clip-path="url(#clip682)" style="stroke:#009af9; stroke-linecap:round; stroke-linejoin:round; stroke-width:4; stroke-opacity:1; fill:none" points="311.028,1174.43 315.001,1172.57 318.973,1170.71 322.945,1168.85 326.918,1166.99 330.89,1165.12 334.863,1163.26 338.835,1161.4 342.808,1159.54 346.78,1157.67 350.753,1155.81 354.725,1153.95 358.698,1152.08 362.67,1150.22 366.643,1148.36 370.615,1146.49 374.587,1144.63 378.56,1142.76 382.532,1140.9 386.505,1139.03 390.477,1137.17 394.45,1135.3 398.422,1133.43 402.395,1131.57 406.367,1129.7 410.34,1127.83 414.312,1125.96 418.285,1124.09 422.257,1122.22 426.23,1120.35 430.202,1118.48 434.174,1116.61 438.147,1114.74 442.119,1112.87 446.092,1111 450.064,1109.12 454.037,1107.25 458.009,1105.37 461.982,1103.49 465.954,1101.62 469.927,1099.74 473.899,1097.86 477.872,1095.98 481.844,1094.1 485.817,1092.21 489.789,1090.33 493.761,1088.45 497.734,1086.56 501.706,1084.67 505.679,1082.78 509.651,1080.89 513.624,1079 517.596,1077.1 521.569,1075.21 525.541,1073.31 529.514,1071.41 533.486,1069.51 537.459,1067.6 541.431,1065.69 545.403,1063.79 549.376,1061.87 553.348,1059.96 557.321,1058.04 561.293,1056.12 565.266,1054.2 569.238,1052.27 573.211,1050.34 577.183,1048.41 581.156,1046.47 585.128,1044.53 589.101,1042.58 593.073,1040.63 597.046,1038.68 601.018,1036.72 604.99,1034.76 608.963,1032.79 612.935,1030.81 616.908,1028.83 620.88,1026.85 624.853,1024.85 628.825,1022.86 632.798,1020.85 636.77,1018.84 640.743,1016.82 644.715,1014.79 648.688,1012.76 652.66,1010.71 656.633,1008.66 660.605,1006.6 664.577,1004.53 668.55,1002.45 672.522,1000.36 676.495,998.258 680.467,996.147 684.44,994.024 688.412,991.89 692.385,989.743 696.357,987.584 700.33,985.412 704.302,983.226 708.275,981.026 712.247,978.813 716.219,976.584 720.192,974.34 724.164,972.08 728.137,969.804 732.109,967.512 736.082,965.202 740.054,962.875 744.027,960.53 747.999,958.166 751.972,955.784 755.944,953.382 759.917,950.961 763.889,948.519 767.862,946.057 771.834,943.574 775.806,941.07 779.779,938.545 783.751,935.997 787.724,933.428 791.696,930.836 795.669,928.221 799.641,925.584 803.614,922.924 807.586,920.24 811.559,917.533 815.531,914.803 819.504,912.049 823.476,909.272 827.449,906.471 831.421,903.647 835.393,900.799 839.366,897.928 843.338,895.034 847.311,892.117 851.283,889.176 855.256,886.213 859.228,883.228 863.201,880.22 867.173,877.19 871.146,874.138 875.118,871.065 879.091,867.971 883.063,864.857 887.035,861.722 891.008,858.567 894.98,855.392 898.953,852.199 902.925,848.987 906.898,845.757 910.87,842.509 914.843,839.243 918.815,835.961 922.788,832.663 926.76,829.348 930.733,826.019 934.705,822.674 938.678,819.315 942.65,815.941 946.622,812.555 950.595,809.155 954.567,805.742 958.54,802.318 962.512,798.881 966.485,795.434 970.457,791.976 974.43,788.507 978.402,785.028 982.375,781.54 986.347,778.042 990.32,774.536 994.292,771.021 998.265,767.499 1002.24,763.969 1006.21,760.431 1010.18,756.887 1014.15,753.336 1018.13,749.779 1022.1,746.216 1026.07,742.647 1030.04,739.073 1034.02,735.495 1037.99,731.911 1041.96,728.323 1045.93,724.732 1049.91,721.136 1053.88,717.537 1057.85,713.934 1061.82,710.329 1065.8,706.721 1069.77,703.11 1073.74,699.498 1077.71,695.883 1081.69,692.266 1085.66,688.648 1089.63,685.029 1093.6,681.409 1097.58,677.788 1101.55,674.167 1105.52,670.545 1109.49,666.923 1113.47,663.302 1117.44,659.681 1121.41,656.06 1125.38,652.441 1129.36,648.822 1133.33,645.205 1137.3,641.59 1141.27,637.977 1145.25,634.366 1149.22,630.757 1153.19,627.151 1157.16,623.548 1161.14,619.949 1165.11,616.353 1169.08,612.762 1173.05,609.174 1177.03,605.591 1181,602.014 1184.97,598.441 1188.94,594.875 1192.92,591.314 1196.89,587.761 1200.86,584.214 1204.83,580.675 1208.81,577.143 1212.78,573.62 1216.75,570.106 1220.72,566.602 1224.7,563.108 1228.67,559.624 1232.64,556.151 1236.61,552.691 1240.58,549.243 1244.56,545.808 1248.53,542.387 1252.5,538.981 1256.47,535.591 1260.45,532.217 1264.42,528.861 1268.39,525.522 1272.36,522.203 1276.34,518.903 1280.31,515.625 1284.28,512.369 1288.25,509.137 1292.23,505.928 1296.2,502.745 1300.17,499.589 1304.14,496.46 1308.12,493.361 1312.09,490.292 1316.06,487.255 1320.03,484.25 1324.01,481.28 1327.98,478.345 1331.95,475.446 1335.92,472.586 1339.9,469.765 1343.87,466.984 1347.84,464.245 1351.81,461.548 1355.79,458.896 1359.76,456.287 1363.73,453.725 1367.7,451.208 1371.68,448.739 1375.65,446.317 1379.62,443.944 1383.59,441.619 1387.57,439.342 1391.54,437.114 1395.51,434.934 1399.48,432.802 1403.46,430.719 1407.43,428.682 1411.4,426.692 1415.37,424.748 1419.35,422.848 1423.32,420.992 1427.29,419.178 1431.26,417.406 1435.24,415.673 1439.21,413.978 1443.18,412.319 1447.15,410.696 1451.13,409.106 1455.1,407.547 1459.07,406.019 1463.04,404.519 1467.02,403.045 1470.99,401.596 1474.96,400.171 1478.93,398.768 1482.91,397.385 1486.88,396.02 1490.85,394.674 1494.82,393.344 1498.8,392.029 1502.77,390.729 1506.74,389.441 1510.71,388.166 1514.68,386.902 1518.66,385.649 1522.63,384.406 1526.6,383.173 1530.57,381.948 1534.55,380.733 1538.52,379.525 1542.49,378.325 1546.46,377.132 1550.44,375.947 1554.41,374.769 1558.38,373.598 1562.35,372.433 1566.33,371.275 1570.3,370.123 1574.27,368.976 1578.24,367.835 1582.22,366.698 1586.19,365.566 1590.16,364.438 1594.13,363.313 1598.11,362.191 1602.08,361.07 1606.05,359.95 1610.02,358.83 1614,357.708 1617.97,356.585 1621.94,355.459 1625.91,354.328 1629.89,353.193 1633.86,352.053 1637.83,350.906 1641.8,349.753 1645.78,348.594 1649.75,347.427 1653.72,346.254 1657.69,345.076 1661.67,343.892 1665.64,342.704 1669.61,341.514 1673.58,340.323 1677.56,339.133 1681.53,337.946 1685.5,336.763 1689.47,335.588 1693.45,334.423 1697.42,333.269 1701.39,332.13 1705.36,331.008 1709.34,329.904 1713.31,328.822 1717.28,327.762 1721.25,326.728 1725.23,325.72 1729.2,324.74 1733.17,323.789 1737.14,322.869 1741.12,321.98 1745.09,321.122 1749.06,320.297 1753.03,319.504 1757.01,318.744 1760.98,318.015 1764.95,317.319 1768.92,316.655 1772.9,316.022 1776.87,315.42 1780.84,314.847 1784.81,314.303 1788.79,313.787 1792.76,313.299 1796.73,312.837 1800.7,312.4 1804.67,311.987 1808.65,311.598 1812.62,311.231 1816.59,310.885 1820.56,310.56 1824.54,310.253 1828.51,309.965 1832.48,309.695 1836.45,309.441 1840.43,309.202 1844.4,308.978 1848.37,308.769 1852.34,308.572 1856.32,308.388 1860.29,308.215 1864.26,308.054 1868.23,307.903 1872.21,307.761 1876.18,307.629 1880.15,307.506 1884.12,307.39 1888.1,307.282 1892.07,307.182 1896.04,307.087 1900.01,307 1903.99,306.918 1907.96,306.841 1911.93,306.77 1915.9,306.703 1919.88,306.641 1923.85,306.583 1927.82,306.529 1931.79,306.479 1935.77,306.432 1939.74,306.389 1943.71,306.348 1947.68,306.31 1951.66,306.275 1955.63,306.242 1959.6,306.211 1963.57,306.183 1967.55,306.156 1971.52,306.132 1975.49,306.109 1979.46,306.087 1983.44,306.067 1987.41,306.049 1991.38,306.032 1995.35,306.016 1999.33,306.001 2003.3,305.987 2007.27,305.974 2011.24,305.962 2015.22,305.951 2019.19,305.941 2023.16,305.931 2027.13,305.922 2031.11,305.914 2035.08,305.906 2039.05,305.899 2043.02,305.892 2047,305.886 2050.97,305.88 2054.94,305.875 2058.91,305.87 2062.89,305.866 2066.86,305.861 2070.83,305.857 2074.8,305.854 2078.77,305.85 2082.75,305.847 2086.72,305.844 2090.69,305.841 2094.66,305.839 2098.64,305.836 2102.61,305.834 2106.58,305.832 2110.55,305.83 2114.53,305.828 2118.5,305.827 2122.47,305.825 2126.44,305.824 2130.42,305.823 2134.39,305.821 2138.36,305.82 2142.33,305.819 2146.31,305.818 2150.28,305.817 2154.25,305.817 2158.22,305.816 2162.2,305.815 2166.17,305.814 2170.14,305.814 2174.11,305.813 2178.09,305.813 2182.06,305.812 2186.03,305.812 2190,305.811 2193.98,305.811 2197.95,305.811 2201.92,305.81 2205.89,305.81 2209.87,305.81 2213.84,305.809 2217.81,305.809 2221.78,305.809 2225.76,305.809 2229.73,305.808 2233.7,305.808 2237.67,305.808 2241.65,305.808 2245.62,305.808 2249.59,305.808 2253.56,305.808 2257.54,305.807 2261.51,305.807 2265.48,305.807 2269.45,305.807 2273.43,305.807 2277.4,305.807 2281.37,305.807 2285.34,305.807 2289.32,305.807 2293.29,305.807 "/>
<polyline clip-path="url(#clip682)" style="stroke:#e26f46; stroke-linecap:round; stroke-linejoin:round; stroke-width:4; stroke-opacity:1; fill:none" points="311.028,183.397 315.001,183.397 318.973,183.397 322.945,183.397 326.918,183.397 330.89,183.397 334.863,183.397 338.835,183.397 342.808,183.397 346.78,183.397 350.753,183.397 354.725,183.397 358.698,183.397 362.67,183.397 366.643,183.397 370.615,183.397 374.587,183.397 378.56,183.397 382.532,183.397 386.505,183.397 390.477,183.397 394.45,183.397 398.422,183.397 402.395,183.397 406.367,183.397 410.34,183.397 414.312,183.397 418.285,183.397 422.257,183.397 426.23,183.397 430.202,183.397 434.174,183.397 438.147,183.397 442.119,183.397 446.092,183.397 450.064,183.397 454.037,183.397 458.009,183.397 461.982,183.397 465.954,183.397 469.927,183.397 473.899,183.397 477.872,183.397 481.844,183.397 485.817,183.397 489.789,183.397 493.761,183.397 497.734,183.397 501.706,183.397 505.679,183.397 509.651,183.397 513.624,183.397 517.596,183.397 521.569,183.397 525.541,183.397 529.514,183.397 533.486,183.397 537.459,183.397 541.431,183.397 545.403,183.397 549.376,183.397 553.348,183.397 557.321,183.397 561.293,183.397 565.266,183.397 569.238,183.397 573.211,183.397 577.183,183.397 581.156,183.397 585.128,183.397 589.101,183.397 593.073,183.397 597.046,183.397 601.018,183.397 604.99,183.397 608.963,183.397 612.935,183.397 616.908,183.397 620.88,183.397 624.853,183.397 628.825,183.397 632.798,183.397 636.77,183.397 640.743,183.397 644.715,183.397 648.688,183.397 652.66,183.397 656.633,183.397 660.605,183.397 664.577,183.397 668.55,183.397 672.522,183.397 676.495,183.397 680.467,183.397 684.44,183.397 688.412,183.397 692.385,183.397 696.357,183.397 700.33,183.397 704.302,183.397 708.275,183.397 712.247,183.397 716.219,183.397 720.192,183.397 724.164,183.397 728.137,183.397 732.109,183.397 736.082,183.397 740.054,183.397 744.027,183.397 747.999,183.397 751.972,183.397 755.944,183.397 759.917,183.397 763.889,183.397 767.862,183.397 771.834,183.397 775.806,183.397 779.779,183.397 783.751,183.397 787.724,183.397 791.696,183.397 795.669,183.397 799.641,183.397 803.614,183.397 807.586,183.397 811.559,183.397 815.531,183.397 819.504,183.397 823.476,183.397 827.449,183.397 831.421,183.397 835.393,183.397 839.366,183.397 843.338,183.398 847.311,183.398 851.283,183.398 855.256,183.398 859.228,183.398 863.201,183.398 867.173,183.398 871.146,183.398 875.118,183.398 879.091,183.398 883.063,183.398 887.035,183.398 891.008,183.398 894.98,183.398 898.953,183.398 902.925,183.398 906.898,183.398 910.87,183.398 914.843,183.398 918.815,183.398 922.788,183.398 926.76,183.398 930.733,183.398 934.705,183.398 938.678,183.398 942.65,183.398 946.622,183.398 950.595,183.398 954.567,183.398 958.54,183.398 962.512,183.398 966.485,183.398 970.457,183.398 974.43,183.398 978.402,183.398 982.375,183.398 986.347,183.398 990.32,183.398 994.292,183.398 998.265,183.398 1002.24,183.398 1006.21,183.398 1010.18,183.398 1014.15,183.398 1018.13,183.398 1022.1,183.398 1026.07,183.398 1030.04,183.398 1034.02,183.398 1037.99,183.399 1041.96,183.399 1045.93,183.399 1049.91,183.399 1053.88,183.399 1057.85,183.399 1061.82,183.399 1065.8,183.399 1069.77,183.399 1073.74,183.4 1077.71,183.4 1081.69,183.4 1085.66,183.4 1089.63,183.4 1093.6,183.401 1097.58,183.401 1101.55,183.401 1105.52,183.402 1109.49,183.402 1113.47,183.402 1117.44,183.403 1121.41,183.403 1125.38,183.404 1129.36,183.404 1133.33,183.405 1137.3,183.405 1141.27,183.406 1145.25,183.407 1149.22,183.408 1153.19,183.409 1157.16,183.41 1161.14,183.411 1165.11,183.412 1169.08,183.413 1173.05,183.415 1177.03,183.416 1181,183.418 1184.97,183.42 1188.94,183.422 1192.92,183.424 1196.89,183.427 1200.86,183.43 1204.83,183.433 1208.81,183.436 1212.78,183.44 1216.75,183.444 1220.72,183.448 1224.7,183.453 1228.67,183.458 1232.64,183.464 1236.61,183.47 1240.58,183.477 1244.56,183.484 1248.53,183.492 1252.5,183.501 1256.47,183.511 1260.45,183.521 1264.42,183.533 1268.39,183.545 1272.36,183.559 1276.34,183.573 1280.31,183.59 1284.28,183.607 1288.25,183.626 1292.23,183.647 1296.2,183.669 1300.17,183.694 1304.14,183.72 1308.12,183.749 1312.09,183.78 1316.06,183.813 1320.03,183.85 1324.01,183.889 1327.98,183.931 1331.95,183.977 1335.92,184.026 1339.9,184.079 1343.87,184.135 1347.84,184.196 1351.81,184.262 1355.79,184.332 1359.76,184.407 1363.73,184.487 1367.7,184.573 1371.68,184.665 1375.65,184.763 1379.62,184.868 1383.59,184.979 1387.57,185.097 1391.54,185.223 1395.51,185.356 1399.48,185.497 1403.46,185.647 1407.43,185.806 1411.4,185.973 1415.37,186.15 1419.35,186.337 1423.32,186.533 1427.29,186.74 1431.26,186.958 1435.24,187.187 1439.21,187.427 1443.18,187.679 1447.15,187.942 1451.13,188.218 1455.1,188.507 1459.07,188.808 1463.04,189.122 1467.02,189.45 1470.99,189.791 1474.96,190.146 1478.93,190.515 1482.91,190.898 1486.88,191.295 1490.85,191.706 1494.82,192.132 1498.8,192.573 1502.77,193.027 1506.74,193.497 1510.71,193.98 1514.68,194.478 1518.66,194.991 1522.63,195.517 1526.6,196.057 1530.57,196.61 1534.55,197.176 1538.52,197.755 1542.49,198.347 1546.46,198.95 1550.44,199.565 1554.41,200.19 1558.38,200.825 1562.35,201.47 1566.33,202.123 1570.3,202.784 1574.27,203.452 1578.24,204.126 1582.22,204.805 1586.19,205.489 1590.16,206.176 1594.13,206.865 1598.11,207.555 1602.08,208.246 1606.05,208.935 1610.02,209.623 1614,210.307 1617.97,210.986 1621.94,211.66 1625.91,212.327 1629.89,212.986 1633.86,213.635 1637.83,214.274 1641.8,214.9 1645.78,215.512 1649.75,216.11 1653.72,216.692 1657.69,217.257 1661.67,217.805 1665.64,218.334 1669.61,218.844 1673.58,219.336 1677.56,219.81 1681.53,220.268 1685.5,220.71 1689.47,221.14 1693.45,221.56 1697.42,221.976 1701.39,222.39 1705.36,222.81 1709.34,223.241 1713.31,223.692 1717.28,224.168 1721.25,224.681 1725.23,225.237 1729.2,225.846 1733.17,226.518 1737.14,227.26 1741.12,228.082 1745.09,228.992 1749.06,229.996 1753.03,231.101 1757.01,232.311 1760.98,233.629 1764.95,235.058 1768.92,236.599 1772.9,238.25 1776.87,240.008 1780.84,241.871 1784.81,243.833 1788.79,245.887 1792.76,248.026 1796.73,250.24 1800.7,252.521 1804.67,254.857 1808.65,257.238 1812.62,259.65 1816.59,262.084 1820.56,264.525 1824.54,266.961 1828.51,269.379 1832.48,271.768 1836.45,274.114 1840.43,276.407 1844.4,278.636 1848.37,280.789 1852.34,282.86 1856.32,284.839 1860.29,286.719 1864.26,288.497 1868.23,290.167 1872.21,291.728 1876.18,293.178 1880.15,294.518 1884.12,295.749 1888.1,296.875 1892.07,297.898 1896.04,298.824 1900.01,299.657 1903.99,300.404 1907.96,301.07 1911.93,301.661 1915.9,302.184 1919.88,302.645 1923.85,303.05 1927.82,303.405 1931.79,303.714 1935.77,303.984 1939.74,304.219 1943.71,304.423 1947.68,304.6 1951.66,304.754 1955.63,304.887 1959.6,305.003 1963.57,305.103 1967.55,305.19 1971.52,305.265 1975.49,305.331 1979.46,305.388 1983.44,305.438 1987.41,305.482 1991.38,305.52 1995.35,305.553 1999.33,305.582 2003.3,305.608 2007.27,305.63 2011.24,305.65 2015.22,305.667 2019.19,305.683 2023.16,305.696 2027.13,305.708 2031.11,305.719 2035.08,305.728 2039.05,305.737 2043.02,305.744 2047,305.751 2050.97,305.756 2054.94,305.762 2058.91,305.766 2062.89,305.77 2066.86,305.774 2070.83,305.777 2074.8,305.78 2078.77,305.783 2082.75,305.785 2086.72,305.787 2090.69,305.789 2094.66,305.791 2098.64,305.793 2102.61,305.794 2106.58,305.795 2110.55,305.796 2114.53,305.797 2118.5,305.798 2122.47,305.799 2126.44,305.8 2130.42,305.8 2134.39,305.801 2138.36,305.801 2142.33,305.802 2146.31,305.802 2150.28,305.803 2154.25,305.803 2158.22,305.803 2162.2,305.803 2166.17,305.804 2170.14,305.804 2174.11,305.804 2178.09,305.804 2182.06,305.804 2186.03,305.805 2190,305.805 2193.98,305.805 2197.95,305.805 2201.92,305.805 2205.89,305.805 2209.87,305.805 2213.84,305.805 2217.81,305.805 2221.78,305.805 2225.76,305.805 2229.73,305.805 2233.7,305.806 2237.67,305.806 2241.65,305.806 2245.62,305.806 2249.59,305.806 2253.56,305.806 2257.54,305.806 2261.51,305.806 2265.48,305.806 2269.45,305.806 2273.43,305.806 2277.4,305.806 2281.37,305.806 2285.34,305.806 2289.32,305.806 2293.29,305.806 "/>
<polyline clip-path="url(#clip682)" style="stroke:#e26f46; stroke-linecap:round; stroke-linejoin:round; stroke-width:4; stroke-opacity:1; fill:none" points="311.028,1374.46 315.001,1372.6 318.973,1370.74 322.945,1368.88 326.918,1367.01 330.89,1365.15 334.863,1363.29 338.835,1361.43 342.808,1359.56 346.78,1357.7 350.753,1355.84 354.725,1353.98 358.698,1352.11 362.67,1350.25 366.643,1348.38 370.615,1346.52 374.587,1344.66 378.56,1342.79 382.532,1340.93 386.505,1339.06 390.477,1337.19 394.45,1335.33 398.422,1333.46 402.395,1331.59 406.367,1329.73 410.34,1327.86 414.312,1325.99 418.285,1324.12 422.257,1322.25 426.23,1320.38 430.202,1318.51 434.174,1316.64 438.147,1314.77 442.119,1312.9 446.092,1311.02 450.064,1309.15 454.037,1307.27 458.009,1305.4 461.982,1303.52 465.954,1301.65 469.927,1299.77 473.899,1297.89 477.872,1296.01 481.844,1294.13 485.817,1292.24 489.789,1290.36 493.761,1288.47 497.734,1286.59 501.706,1284.7 505.679,1282.81 509.651,1280.92 513.624,1279.03 517.596,1277.13 521.569,1275.23 525.541,1273.34 529.514,1271.44 533.486,1269.53 537.459,1267.63 541.431,1265.72 545.403,1263.81 549.376,1261.9 553.348,1259.99 557.321,1258.07 561.293,1256.15 565.266,1254.22 569.238,1252.3 573.211,1250.37 577.183,1248.43 581.156,1246.5 585.128,1244.55 589.101,1242.61 593.073,1240.66 597.046,1238.7 601.018,1236.75 604.99,1234.78 608.963,1232.81 612.935,1230.84 616.908,1228.86 620.88,1226.87 624.853,1224.88 628.825,1222.88 632.798,1220.87 636.77,1218.86 640.743,1216.84 644.715,1214.81 648.688,1212.78 652.66,1210.74 656.633,1208.68 660.605,1206.62 664.577,1204.55 668.55,1202.47 672.522,1200.38 676.495,1198.28 680.467,1196.17 684.44,1194.04 688.412,1191.91 692.385,1189.76 696.357,1187.6 700.33,1185.43 704.302,1183.24 708.275,1181.04 712.247,1178.83 716.219,1176.6 720.192,1174.35 724.164,1172.09 728.137,1169.82 732.109,1167.52 736.082,1165.21 740.054,1162.89 744.027,1160.54 747.999,1158.17 751.972,1155.79 755.944,1153.39 759.917,1150.97 763.889,1148.52 767.862,1146.06 771.834,1143.58 775.806,1141.07 779.779,1138.54 783.751,1135.99 787.724,1133.42 791.696,1130.83 795.669,1128.21 799.641,1125.57 803.614,1122.91 807.586,1120.23 811.559,1117.52 815.531,1114.78 819.504,1112.03 823.476,1109.25 827.449,1106.44 831.421,1103.62 835.393,1100.77 839.366,1097.89 843.338,1094.99 847.311,1092.07 851.283,1089.13 855.256,1086.16 859.228,1083.17 863.201,1080.16 867.173,1077.13 871.146,1074.07 875.118,1070.99 879.091,1067.89 883.063,1064.77 887.035,1061.63 891.008,1058.47 894.98,1055.29 898.953,1052.09 902.925,1048.87 906.898,1045.63 910.87,1042.37 914.843,1039.1 918.815,1035.81 922.788,1032.5 926.76,1029.18 930.733,1025.84 934.705,1022.48 938.678,1019.11 942.65,1015.73 946.622,1012.33 950.595,1008.91 954.567,1005.49 958.54,1002.05 962.512,998.594 966.485,995.13 970.457,991.654 974.43,988.167 978.402,984.668 982.375,981.16 986.347,977.641 990.32,974.112 994.292,970.573 998.265,967.025 1002.24,963.469 1006.21,959.903 1010.18,956.329 1014.15,952.747 1018.13,949.157 1022.1,945.56 1026.07,941.955 1030.04,938.343 1034.02,934.724 1037.99,931.097 1041.96,927.465 1045.93,923.825 1049.91,920.18 1053.88,916.528 1057.85,912.87 1061.82,909.206 1065.8,905.536 1069.77,901.86 1073.74,898.178 1077.71,894.491 1081.69,890.797 1085.66,887.098 1089.63,883.393 1093.6,879.683 1097.58,875.966 1101.55,872.244 1105.52,868.515 1109.49,864.781 1113.47,861.04 1117.44,857.293 1121.41,853.54 1125.38,849.78 1129.36,846.013 1133.33,842.239 1137.3,838.457 1141.27,834.668 1145.25,830.871 1149.22,827.066 1153.19,823.253 1157.16,819.43 1161.14,815.598 1165.11,811.756 1169.08,807.904 1173.05,804.041 1177.03,800.167 1181,796.282 1184.97,792.384 1188.94,788.472 1192.92,784.548 1196.89,780.609 1200.86,776.655 1204.83,772.685 1208.81,768.7 1212.78,764.697 1216.75,760.676 1220.72,756.637 1224.7,752.579 1228.67,748.501 1232.64,744.403 1236.61,740.283 1240.58,736.142 1244.56,731.978 1248.53,727.791 1252.5,723.581 1256.47,719.348 1260.45,715.09 1264.42,710.809 1268.39,706.504 1272.36,702.175 1276.34,697.823 1280.31,693.447 1284.28,689.05 1288.25,684.63 1292.23,680.191 1296.2,675.732 1300.17,671.255 1304.14,666.762 1308.12,662.254 1312.09,657.734 1316.06,653.203 1320.03,648.664 1324.01,644.12 1327.98,639.572 1331.95,635.024 1335.92,630.478 1339.9,625.938 1343.87,621.405 1347.84,616.884 1351.81,612.376 1355.79,607.885 1359.76,603.413 1363.73,598.964 1367.7,594.538 1371.68,590.14 1375.65,585.771 1379.62,581.432 1383.59,577.127 1387.57,572.856 1391.54,568.622 1395.51,564.424 1399.48,560.265 1403.46,556.144 1407.43,552.063 1411.4,548.021 1415.37,544.019 1419.35,540.056 1423.32,536.133 1427.29,532.249 1431.26,528.402 1435.24,524.594 1439.21,520.821 1443.18,517.085 1447.15,513.383 1451.13,509.715 1455.1,506.079 1459.07,502.475 1463.04,498.9 1467.02,495.355 1470.99,491.838 1474.96,488.347 1478.93,484.882 1482.91,481.441 1486.88,478.025 1490.85,474.631 1494.82,471.259 1498.8,467.908 1502.77,464.579 1506.74,461.269 1510.71,457.979 1514.68,454.708 1518.66,451.456 1522.63,448.223 1526.6,445.009 1530.57,441.814 1534.55,438.637 1538.52,435.479 1542.49,432.34 1546.46,429.221 1550.44,426.121 1554.41,423.041 1558.38,419.982 1562.35,416.944 1566.33,413.927 1570.3,410.932 1574.27,407.959 1578.24,405.01 1582.22,402.084 1586.19,399.182 1590.16,396.304 1594.13,393.452 1598.11,390.625 1602.08,387.824 1606.05,385.049 1610.02,382.302 1614,379.583 1617.97,376.892 1621.94,374.23 1625.91,371.599 1629.89,368.999 1633.86,366.432 1637.83,363.9 1641.8,361.403 1645.78,358.945 1649.75,356.527 1653.72,354.152 1657.69,351.823 1661.67,349.543 1665.64,347.315 1669.61,345.141 1673.58,343.027 1677.56,340.974 1681.53,338.987 1685.5,337.068 1689.47,335.221 1693.45,333.448 1697.42,331.751 1701.39,330.132 1705.36,328.593 1709.34,327.133 1713.31,325.754 1717.28,324.455 1721.25,323.235 1725.23,322.092 1729.2,321.025 1733.17,320.031 1737.14,319.107 1741.12,318.25 1745.09,317.456 1749.06,316.723 1753.03,316.046 1757.01,315.421 1760.98,314.845 1764.95,314.313 1768.92,313.824 1772.9,313.372 1776.87,312.956 1780.84,312.571 1784.81,312.215 1788.79,311.886 1792.76,311.581 1796.73,311.298 1800.7,311.035 1804.67,310.791 1808.65,310.563 1812.62,310.35 1816.59,310.151 1820.56,309.965 1824.54,309.79 1828.51,309.627 1832.48,309.473 1836.45,309.329 1840.43,309.193 1844.4,309.065 1848.37,308.945 1852.34,308.832 1856.32,308.725 1860.29,308.624 1864.26,308.529 1868.23,308.439 1872.21,308.354 1876.18,308.274 1880.15,308.197 1884.12,308.125 1888.1,308.056 1892.07,307.991 1896.04,307.928 1900.01,307.868 1903.99,307.81 1907.96,307.753 1911.93,307.698 1915.9,307.644 1919.88,307.591 1923.85,307.539 1927.82,307.486 1931.79,307.433 1935.77,307.38 1939.74,307.326 1943.71,307.272 1947.68,307.218 1951.66,307.163 1955.63,307.107 1959.6,307.052 1963.57,306.996 1967.55,306.941 1971.52,306.885 1975.49,306.831 1979.46,306.777 1983.44,306.724 1987.41,306.673 1991.38,306.622 1995.35,306.574 1999.33,306.527 2003.3,306.481 2007.27,306.438 2011.24,306.396 2015.22,306.356 2019.19,306.319 2023.16,306.283 2027.13,306.249 2031.11,306.217 2035.08,306.187 2039.05,306.158 2043.02,306.132 2047,306.107 2050.97,306.083 2054.94,306.062 2058.91,306.041 2062.89,306.023 2066.86,306.005 2070.83,305.989 2074.8,305.974 2078.77,305.96 2082.75,305.947 2086.72,305.935 2090.69,305.924 2094.66,305.914 2098.64,305.905 2102.61,305.896 2106.58,305.888 2110.55,305.881 2114.53,305.875 2118.5,305.869 2122.47,305.863 2126.44,305.858 2130.42,305.853 2134.39,305.849 2138.36,305.845 2142.33,305.842 2146.31,305.838 2150.28,305.835 2154.25,305.833 2158.22,305.83 2162.2,305.828 2166.17,305.826 2170.14,305.824 2174.11,305.823 2178.09,305.821 2182.06,305.82 2186.03,305.818 2190,305.817 2193.98,305.816 2197.95,305.815 2201.92,305.814 2205.89,305.814 2209.87,305.813 2213.84,305.812 2217.81,305.812 2221.78,305.811 2225.76,305.811 2229.73,305.81 2233.7,305.81 2237.67,305.809 2241.65,305.809 2245.62,305.809 2249.59,305.808 2253.56,305.808 2257.54,305.808 2261.51,305.808 2265.48,305.808 2269.45,305.807 2273.43,305.807 2277.4,305.807 2281.37,305.807 2285.34,305.807 2289.32,305.807 2293.29,305.807 "/>
<path clip-path="url(#clip680)" d="M1713.55 1367.98 L2282.72 1367.98 L2282.72 1212.46 L1713.55 1212.46  Z" fill="#ffffff" fill-rule="evenodd" fill-opacity="1"/>
<polyline clip-path="url(#clip680)" style="stroke:#000000; stroke-linecap:round; stroke-linejoin:round; stroke-width:4; stroke-opacity:1; fill:none" points="1713.55,1367.98 2282.72,1367.98 2282.72,1212.46 1713.55,1212.46 1713.55,1367.98 "/>
<polyline clip-path="url(#clip680)" style="stroke:#009af9; stroke-linecap:round; stroke-linejoin:round; stroke-width:4; stroke-opacity:1; fill:none" points="1736.89,1264.3 1876.97,1264.3 "/>
<path clip-path="url(#clip680)" d="M1905 1250.87 L1905 1263.85 L1910.88 1263.85 Q1914.14 1263.85 1915.92 1262.16 Q1917.7 1260.47 1917.7 1257.35 Q1917.7 1254.24 1915.92 1252.55 Q1914.14 1250.87 1910.88 1250.87 L1905 1250.87 M1900.32 1247.02 L1910.88 1247.02 Q1916.69 1247.02 1919.65 1249.66 Q1922.64 1252.28 1922.64 1257.35 Q1922.64 1262.46 1919.65 1265.08 Q1916.69 1267.69 1910.88 1267.69 L1905 1267.69 L1905 1281.58 L1900.32 1281.58 L1900.32 1247.02 Z" fill="#000000" fill-rule="nonzero" fill-opacity="1" /><path clip-path="url(#clip680)" d="M1937.08 1258.64 Q1933.65 1258.64 1931.66 1261.33 Q1929.67 1263.99 1929.67 1268.64 Q1929.67 1273.3 1931.64 1275.98 Q1933.63 1278.64 1937.08 1278.64 Q1940.48 1278.64 1942.47 1275.96 Q1944.46 1273.27 1944.46 1268.64 Q1944.46 1264.04 1942.47 1261.35 Q1940.48 1258.64 1937.08 1258.64 M1937.08 1255.03 Q1942.64 1255.03 1945.81 1258.64 Q1948.98 1262.25 1948.98 1268.64 Q1948.98 1275.01 1945.81 1278.64 Q1942.64 1282.25 1937.08 1282.25 Q1931.5 1282.25 1928.33 1278.64 Q1925.18 1275.01 1925.18 1268.64 Q1925.18 1262.25 1928.33 1258.64 Q1931.5 1255.03 1937.08 1255.03 Z" fill="#000000" fill-rule="nonzero" fill-opacity="1" /><path clip-path="url(#clip680)" d="M1956.04 1245.56 L1960.3 1245.56 L1960.3 1281.58 L1956.04 1281.58 L1956.04 1245.56 Z" fill="#000000" fill-rule="nonzero" fill-opacity="1" /><path clip-path="url(#clip680)" d="M1991.38 1267.55 L1991.38 1269.64 L1971.8 1269.64 Q1972.08 1274.04 1974.44 1276.35 Q1976.82 1278.64 1981.06 1278.64 Q1983.51 1278.64 1985.81 1278.04 Q1988.12 1277.44 1990.39 1276.24 L1990.39 1280.26 Q1988.1 1281.24 1985.69 1281.74 Q1983.28 1282.25 1980.81 1282.25 Q1974.6 1282.25 1970.97 1278.64 Q1967.36 1275.03 1967.36 1268.87 Q1967.36 1262.51 1970.78 1258.78 Q1974.23 1255.03 1980.07 1255.03 Q1985.3 1255.03 1988.33 1258.41 Q1991.38 1261.77 1991.38 1267.55 M1987.13 1266.3 Q1987.08 1262.81 1985.16 1260.73 Q1983.26 1258.64 1980.11 1258.64 Q1976.55 1258.64 1974.39 1260.66 Q1972.26 1262.67 1971.94 1266.33 L1987.13 1266.3 Z" fill="#000000" fill-rule="nonzero" fill-opacity="1" /><path clip-path="url(#clip680)" d="M2017.57 1277.69 L2017.57 1291.44 L2013.28 1291.44 L2013.28 1255.66 L2017.57 1255.66 L2017.57 1259.59 Q2018.91 1257.28 2020.94 1256.17 Q2023 1255.03 2025.85 1255.03 Q2030.57 1255.03 2033.51 1258.78 Q2036.48 1262.53 2036.48 1268.64 Q2036.48 1274.75 2033.51 1278.5 Q2030.57 1282.25 2025.85 1282.25 Q2023 1282.25 2020.94 1281.14 Q2018.91 1280.01 2017.57 1277.69 M2032.06 1268.64 Q2032.06 1263.94 2030.11 1261.28 Q2028.19 1258.6 2024.81 1258.6 Q2021.43 1258.6 2019.49 1261.28 Q2017.57 1263.94 2017.57 1268.64 Q2017.57 1273.34 2019.49 1276.03 Q2021.43 1278.69 2024.81 1278.69 Q2028.19 1278.69 2030.11 1276.03 Q2032.06 1273.34 2032.06 1268.64 Z" fill="#000000" fill-rule="nonzero" fill-opacity="1" /><path clip-path="url(#clip680)" d="M2043.54 1245.56 L2047.8 1245.56 L2047.8 1281.58 L2043.54 1281.58 L2043.54 1245.56 Z" fill="#000000" fill-rule="nonzero" fill-opacity="1" /><path clip-path="url(#clip680)" d="M2068.49 1268.55 Q2063.33 1268.55 2061.34 1269.73 Q2059.35 1270.91 2059.35 1273.76 Q2059.35 1276.03 2060.83 1277.37 Q2062.33 1278.69 2064.9 1278.69 Q2068.44 1278.69 2070.57 1276.19 Q2072.73 1273.67 2072.73 1269.5 L2072.73 1268.55 L2068.49 1268.55 M2076.99 1266.79 L2076.99 1281.58 L2072.73 1281.58 L2072.73 1277.65 Q2071.27 1280.01 2069.09 1281.14 Q2066.92 1282.25 2063.77 1282.25 Q2059.79 1282.25 2057.43 1280.03 Q2055.09 1277.79 2055.09 1274.04 Q2055.09 1269.66 2058 1267.44 Q2060.94 1265.22 2066.75 1265.22 L2072.73 1265.22 L2072.73 1264.8 Q2072.73 1261.86 2070.78 1260.26 Q2068.86 1258.64 2065.37 1258.64 Q2063.14 1258.64 2061.04 1259.18 Q2058.93 1259.71 2056.99 1260.77 L2056.99 1256.84 Q2059.32 1255.93 2061.52 1255.49 Q2063.72 1255.03 2065.81 1255.03 Q2071.43 1255.03 2074.21 1257.95 Q2076.99 1260.87 2076.99 1266.79 Z" fill="#000000" fill-rule="nonzero" fill-opacity="1" /><path clip-path="url(#clip680)" d="M2104.42 1256.65 L2104.42 1260.63 Q2102.61 1259.64 2100.78 1259.15 Q2098.98 1258.64 2097.12 1258.64 Q2092.98 1258.64 2090.69 1261.28 Q2088.4 1263.9 2088.4 1268.64 Q2088.4 1273.39 2090.69 1276.03 Q2092.98 1278.64 2097.12 1278.64 Q2098.98 1278.64 2100.78 1278.16 Q2102.61 1277.65 2104.42 1276.65 L2104.42 1280.59 Q2102.63 1281.42 2100.71 1281.84 Q2098.81 1282.25 2096.66 1282.25 Q2090.81 1282.25 2087.36 1278.57 Q2083.91 1274.89 2083.91 1268.64 Q2083.91 1262.3 2087.38 1258.67 Q2090.87 1255.03 2096.94 1255.03 Q2098.91 1255.03 2100.78 1255.45 Q2102.66 1255.84 2104.42 1256.65 Z" fill="#000000" fill-rule="nonzero" fill-opacity="1" /><path clip-path="url(#clip680)" d="M2134 1267.55 L2134 1269.64 L2114.42 1269.64 Q2114.69 1274.04 2117.06 1276.35 Q2119.44 1278.64 2123.68 1278.64 Q2126.13 1278.64 2128.42 1278.04 Q2130.74 1277.44 2133 1276.24 L2133 1280.26 Q2130.71 1281.24 2128.31 1281.74 Q2125.9 1282.25 2123.42 1282.25 Q2117.22 1282.25 2113.58 1278.64 Q2109.97 1275.03 2109.97 1268.87 Q2109.97 1262.51 2113.4 1258.78 Q2116.85 1255.03 2122.68 1255.03 Q2127.91 1255.03 2130.94 1258.41 Q2134 1261.77 2134 1267.55 M2129.74 1266.3 Q2129.69 1262.81 2127.77 1260.73 Q2125.87 1258.64 2122.73 1258.64 Q2119.16 1258.64 2117.01 1260.66 Q2114.88 1262.67 2114.56 1266.33 L2129.74 1266.3 Z" fill="#000000" fill-rule="nonzero" fill-opacity="1" /><path clip-path="url(#clip680)" d="M2161.18 1260.63 Q2162.77 1257.76 2164.99 1256.4 Q2167.22 1255.03 2170.23 1255.03 Q2174.28 1255.03 2176.48 1257.88 Q2178.68 1260.7 2178.68 1265.93 L2178.68 1281.58 L2174.39 1281.58 L2174.39 1266.07 Q2174.39 1262.35 2173.07 1260.54 Q2171.75 1258.74 2169.05 1258.74 Q2165.74 1258.74 2163.81 1260.93 Q2161.89 1263.13 2161.89 1266.93 L2161.89 1281.58 L2157.61 1281.58 L2157.61 1266.07 Q2157.61 1262.32 2156.29 1260.54 Q2154.97 1258.74 2152.22 1258.74 Q2148.95 1258.74 2147.03 1260.96 Q2145.11 1263.16 2145.11 1266.93 L2145.11 1281.58 L2140.83 1281.58 L2140.83 1255.66 L2145.11 1255.66 L2145.11 1259.68 Q2146.57 1257.3 2148.61 1256.17 Q2150.64 1255.03 2153.44 1255.03 Q2156.27 1255.03 2158.24 1256.47 Q2160.23 1257.9 2161.18 1260.63 Z" fill="#000000" fill-rule="nonzero" fill-opacity="1" /><path clip-path="url(#clip680)" d="M2209.35 1267.55 L2209.35 1269.64 L2189.76 1269.64 Q2190.04 1274.04 2192.4 1276.35 Q2194.79 1278.64 2199.02 1278.64 Q2201.48 1278.64 2203.77 1278.04 Q2206.08 1277.44 2208.35 1276.24 L2208.35 1280.26 Q2206.06 1281.24 2203.65 1281.74 Q2201.24 1282.25 2198.77 1282.25 Q2192.56 1282.25 2188.93 1278.64 Q2185.32 1275.03 2185.32 1268.87 Q2185.32 1262.51 2188.74 1258.78 Q2192.19 1255.03 2198.03 1255.03 Q2203.26 1255.03 2206.29 1258.41 Q2209.35 1261.77 2209.35 1267.55 M2205.09 1266.3 Q2205.04 1262.81 2203.12 1260.73 Q2201.22 1258.64 2198.07 1258.64 Q2194.51 1258.64 2192.36 1260.66 Q2190.23 1262.67 2189.9 1266.33 L2205.09 1266.3 Z" fill="#000000" fill-rule="nonzero" fill-opacity="1" /><path clip-path="url(#clip680)" d="M2237.89 1265.93 L2237.89 1281.58 L2233.63 1281.58 L2233.63 1266.07 Q2233.63 1262.39 2232.19 1260.56 Q2230.76 1258.74 2227.89 1258.74 Q2224.44 1258.74 2222.45 1260.93 Q2220.46 1263.13 2220.46 1266.93 L2220.46 1281.58 L2216.18 1281.58 L2216.18 1255.66 L2220.46 1255.66 L2220.46 1259.68 Q2221.99 1257.35 2224.05 1256.19 Q2226.13 1255.03 2228.84 1255.03 Q2233.3 1255.03 2235.6 1257.81 Q2237.89 1260.56 2237.89 1265.93 Z" fill="#000000" fill-rule="nonzero" fill-opacity="1" /><path clip-path="url(#clip680)" d="M2250.6 1248.3 L2250.6 1255.66 L2259.37 1255.66 L2259.37 1258.97 L2250.6 1258.97 L2250.6 1273.04 Q2250.6 1276.21 2251.45 1277.11 Q2252.33 1278.02 2254.99 1278.02 L2259.37 1278.02 L2259.37 1281.58 L2254.99 1281.58 Q2250.06 1281.58 2248.19 1279.75 Q2246.31 1277.9 2246.31 1273.04 L2246.31 1258.97 L2243.19 1258.97 L2243.19 1255.66 L2246.31 1255.66 L2246.31 1248.3 L2250.6 1248.3 Z" fill="#000000" fill-rule="nonzero" fill-opacity="1" /><polyline clip-path="url(#clip680)" style="stroke:#e26f46; stroke-linecap:round; stroke-linejoin:round; stroke-width:4; stroke-opacity:1; fill:none" points="1736.89,1316.14 1876.97,1316.14 "/>
<path clip-path="url(#clip680)" d="M1925.88 1328.49 L1925.88 1319.21 L1918.24 1319.21 L1918.24 1315.37 L1930.51 1315.37 L1930.51 1330.2 Q1927.8 1332.13 1924.53 1333.12 Q1921.27 1334.09 1917.57 1334.09 Q1909.46 1334.09 1904.88 1329.37 Q1900.32 1324.63 1900.32 1316.18 Q1900.32 1307.71 1904.88 1302.98 Q1909.46 1298.24 1917.57 1298.24 Q1920.95 1298.24 1923.98 1299.07 Q1927.03 1299.9 1929.6 1301.52 L1929.6 1306.5 Q1927.01 1304.3 1924.09 1303.19 Q1921.18 1302.08 1917.96 1302.08 Q1911.62 1302.08 1908.42 1305.62 Q1905.25 1309.16 1905.25 1316.18 Q1905.25 1323.17 1908.42 1326.71 Q1911.62 1330.25 1917.96 1330.25 Q1920.44 1330.25 1922.38 1329.83 Q1924.32 1329.39 1925.88 1328.49 Z" fill="#000000" fill-rule="nonzero" fill-opacity="1" /><path clip-path="url(#clip680)" d="M1939.05 1298.86 L1946.01 1298.86 L1954.83 1322.38 L1963.7 1298.86 L1970.67 1298.86 L1970.67 1333.42 L1966.11 1333.42 L1966.11 1303.08 L1957.2 1326.78 L1952.5 1326.78 L1943.58 1303.08 L1943.58 1333.42 L1939.05 1333.42 L1939.05 1298.86 Z" fill="#000000" fill-rule="nonzero" fill-opacity="1" /><path clip-path="url(#clip680)" d="M1979.95 1298.86 L1999.81 1298.86 L1999.81 1302.8 L1984.63 1302.8 L1984.63 1312.98 L1998.33 1312.98 L1998.33 1316.92 L1984.63 1316.92 L1984.63 1333.42 L1979.95 1333.42 L1979.95 1298.86 Z" fill="#000000" fill-rule="nonzero" fill-opacity="1" /></svg>
