<?xml version="1.0" encoding="utf-8"?>
<svg xmlns="http://www.w3.org/2000/svg" xmlns:xlink="http://www.w3.org/1999/xlink" width="600" height="400" viewBox="0 0 2400 1600">
<defs>
  <clipPath id="clip350">
    <rect x="0" y="0" width="2400" height="1600"/>
  </clipPath>
</defs>
<path clip-path="url(#clip350)" d="M0 1600 L2400 1600 L2400 0 L0 0  Z" fill="#ffffff" fill-rule="evenodd" fill-opacity="1"/>
<defs>
  <clipPath id="clip351">
    <rect x="219" y="47" width="2134" height="1377"/>
  </clipPath>
</defs>
<path clip-path="url(#clip350)" d="M219.866 1423.18 L2352.76 1423.18 L2352.76 47.2441 L219.866 47.2441  Z" fill="#ffffff" fill-rule="evenodd" fill-opacity="1"/>
<polyline clip-path="url(#clip351)" style="stroke:#000000; stroke-linecap:round; stroke-linejoin:round; stroke-width:2; stroke-opacity:0.1; fill:none" points="280.231,1423.18 280.231,47.2441 "/>
<polyline clip-path="url(#clip351)" style="stroke:#000000; stroke-linecap:round; stroke-linejoin:round; stroke-width:2; stroke-opacity:0.1; fill:none" points="950.951,1423.18 950.951,47.2441 "/>
<polyline clip-path="url(#clip351)" style="stroke:#000000; stroke-linecap:round; stroke-linejoin:round; stroke-width:2; stroke-opacity:0.1; fill:none" points="1621.67,1423.18 1621.67,47.2441 "/>
<polyline clip-path="url(#clip351)" style="stroke:#000000; stroke-linecap:round; stroke-linejoin:round; stroke-width:2; stroke-opacity:0.1; fill:none" points="2292.39,1423.18 2292.39,47.2441 "/>
<polyline clip-path="url(#clip351)" style="stroke:#000000; stroke-linecap:round; stroke-linejoin:round; stroke-width:2; stroke-opacity:0.1; fill:none" points="219.866,1423.18 2352.76,1423.18 "/>
<polyline clip-path="url(#clip351)" style="stroke:#000000; stroke-linecap:round; stroke-linejoin:round; stroke-width:2; stroke-opacity:0.1; fill:none" points="219.866,1147.99 2352.76,1147.99 "/>
<polyline clip-path="url(#clip351)" style="stroke:#000000; stroke-linecap:round; stroke-linejoin:round; stroke-width:2; stroke-opacity:0.1; fill:none" points="219.866,872.806 2352.76,872.806 "/>
<polyline clip-path="url(#clip351)" style="stroke:#000000; stroke-linecap:round; stroke-linejoin:round; stroke-width:2; stroke-opacity:0.1; fill:none" points="219.866,597.618 2352.76,597.618 "/>
<polyline clip-path="url(#clip351)" style="stroke:#000000; stroke-linecap:round; stroke-linejoin:round; stroke-width:2; stroke-opacity:0.1; fill:none" points="219.866,322.431 2352.76,322.431 "/>
<polyline clip-path="url(#clip351)" style="stroke:#000000; stroke-linecap:round; stroke-linejoin:round; stroke-width:2; stroke-opacity:0.1; fill:none" points="219.866,47.2441 2352.76,47.2441 "/>
<polyline clip-path="url(#clip350)" style="stroke:#000000; stroke-linecap:round; stroke-linejoin:round; stroke-width:4; stroke-opacity:1; fill:none" points="219.866,1423.18 2352.76,1423.18 "/>
<polyline clip-path="url(#clip350)" style="stroke:#000000; stroke-linecap:round; stroke-linejoin:round; stroke-width:4; stroke-opacity:1; fill:none" points="280.231,1423.18 280.231,1404.28 "/>
<polyline clip-path="url(#clip350)" style="stroke:#000000; stroke-linecap:round; stroke-linejoin:round; stroke-width:4; stroke-opacity:1; fill:none" points="950.951,1423.18 950.951,1404.28 "/>
<polyline clip-path="url(#clip350)" style="stroke:#000000; stroke-linecap:round; stroke-linejoin:round; stroke-width:4; stroke-opacity:1; fill:none" points="1621.67,1423.18 1621.67,1404.28 "/>
<polyline clip-path="url(#clip350)" style="stroke:#000000; stroke-linecap:round; stroke-linejoin:round; stroke-width:4; stroke-opacity:1; fill:none" points="2292.39,1423.18 2292.39,1404.28 "/>
<path clip-path="url(#clip350)" d="M270.613 1481.64 L278.252 1481.64 L278.252 1455.28 L269.942 1456.95 L269.942 1452.69 L278.206 1451.02 L282.882 1451.02 L282.882 1481.64 L290.52 1481.64 L290.52 1485.58 L270.613 1485.58 L270.613 1481.64 Z" fill="#000000" fill-rule="nonzero" fill-opacity="1" /><path clip-path="url(#clip350)" d="M945.604 1481.64 L961.923 1481.64 L961.923 1485.58 L939.979 1485.58 L939.979 1481.64 Q942.641 1478.89 947.224 1474.26 Q951.831 1469.61 953.011 1468.27 Q955.257 1465.74 956.136 1464.01 Q957.039 1462.25 957.039 1460.56 Q957.039 1457.8 955.095 1456.07 Q953.173 1454.33 950.071 1454.33 Q947.872 1454.33 945.419 1455.09 Q942.988 1455.86 940.21 1457.41 L940.21 1452.69 Q943.034 1451.55 945.488 1450.97 Q947.942 1450.39 949.979 1450.39 Q955.349 1450.39 958.544 1453.08 Q961.738 1455.77 961.738 1460.26 Q961.738 1462.39 960.928 1464.31 Q960.141 1466.2 958.034 1468.8 Q957.456 1469.47 954.354 1472.69 Q951.252 1475.88 945.604 1481.64 Z" fill="#000000" fill-rule="nonzero" fill-opacity="1" /><path clip-path="url(#clip350)" d="M1625.92 1466.95 Q1629.28 1467.66 1631.15 1469.93 Q1633.05 1472.2 1633.05 1475.53 Q1633.05 1480.65 1629.53 1483.45 Q1626.01 1486.25 1619.53 1486.25 Q1617.35 1486.25 1615.04 1485.81 Q1612.75 1485.39 1610.29 1484.54 L1610.29 1480.02 Q1612.24 1481.16 1614.55 1481.74 Q1616.87 1482.32 1619.39 1482.32 Q1623.79 1482.32 1626.08 1480.58 Q1628.4 1478.84 1628.4 1475.53 Q1628.4 1472.48 1626.24 1470.77 Q1624.11 1469.03 1620.29 1469.03 L1616.27 1469.03 L1616.27 1465.19 L1620.48 1465.19 Q1623.93 1465.19 1625.76 1463.82 Q1627.59 1462.43 1627.59 1459.84 Q1627.59 1457.18 1625.69 1455.77 Q1623.81 1454.33 1620.29 1454.33 Q1618.37 1454.33 1616.17 1454.75 Q1613.97 1455.16 1611.34 1456.04 L1611.34 1451.88 Q1614 1451.14 1616.31 1450.77 Q1618.65 1450.39 1620.71 1450.39 Q1626.03 1450.39 1629.14 1452.83 Q1632.24 1455.23 1632.24 1459.35 Q1632.24 1462.22 1630.59 1464.21 Q1628.95 1466.18 1625.92 1466.95 Z" fill="#000000" fill-rule="nonzero" fill-opacity="1" /><path clip-path="url(#clip350)" d="M2295.4 1455.09 L2283.59 1473.54 L2295.4 1473.54 L2295.4 1455.09 M2294.17 1451.02 L2300.05 1451.02 L2300.05 1473.54 L2304.98 1473.54 L2304.98 1477.43 L2300.05 1477.43 L2300.05 1485.58 L2295.4 1485.58 L2295.4 1477.43 L2279.8 1477.43 L2279.8 1472.92 L2294.17 1451.02 Z" fill="#000000" fill-rule="nonzero" fill-opacity="1" /><path clip-path="url(#clip350)" d="M1094.39 1520.52 L1103.97 1520.52 L1116.09 1552.86 L1128.28 1520.52 L1137.86 1520.52 L1137.86 1568.04 L1131.59 1568.04 L1131.59 1526.32 L1119.34 1558.91 L1112.88 1558.91 L1100.62 1526.32 L1100.62 1568.04 L1094.39 1568.04 L1094.39 1520.52 Z" fill="#000000" fill-rule="nonzero" fill-opacity="1" /><path clip-path="url(#clip350)" d="M1164.19 1536.5 Q1159.47 1536.5 1156.74 1540.19 Q1154 1543.85 1154 1550.25 Q1154 1556.65 1156.71 1560.34 Q1159.44 1564 1164.19 1564 Q1168.86 1564 1171.6 1560.31 Q1174.34 1556.62 1174.34 1550.25 Q1174.34 1543.92 1171.6 1540.23 Q1168.86 1536.5 1164.19 1536.5 M1164.19 1531.54 Q1171.82 1531.54 1176.18 1536.5 Q1180.54 1541.47 1180.54 1550.25 Q1180.54 1559 1176.18 1564 Q1171.82 1568.97 1164.19 1568.97 Q1156.51 1568.97 1152.15 1564 Q1147.83 1559 1147.83 1550.25 Q1147.83 1541.47 1152.15 1536.5 Q1156.51 1531.54 1164.19 1531.54 Z" fill="#000000" fill-rule="nonzero" fill-opacity="1" /><path clip-path="url(#clip350)" d="M1213.71 1537.81 L1213.71 1518.52 L1219.57 1518.52 L1219.57 1568.04 L1213.71 1568.04 L1213.71 1562.7 Q1211.86 1565.88 1209.03 1567.44 Q1206.23 1568.97 1202.28 1568.97 Q1195.82 1568.97 1191.75 1563.81 Q1187.71 1558.65 1187.71 1550.25 Q1187.71 1541.85 1191.75 1536.69 Q1195.82 1531.54 1202.28 1531.54 Q1206.23 1531.54 1209.03 1533.1 Q1211.86 1534.62 1213.71 1537.81 M1193.75 1550.25 Q1193.75 1556.71 1196.4 1560.4 Q1199.07 1564.07 1203.72 1564.07 Q1208.36 1564.07 1211.04 1560.4 Q1213.71 1556.71 1213.71 1550.25 Q1213.71 1543.79 1211.04 1540.13 Q1208.36 1536.44 1203.72 1536.44 Q1199.07 1536.44 1196.4 1540.13 Q1193.75 1543.79 1193.75 1550.25 Z" fill="#000000" fill-rule="nonzero" fill-opacity="1" /><path clip-path="url(#clip350)" d="M1262.12 1548.76 L1262.12 1551.62 L1235.19 1551.62 Q1235.58 1557.67 1238.82 1560.85 Q1242.1 1564 1247.93 1564 Q1251.3 1564 1254.45 1563.17 Q1257.63 1562.35 1260.75 1560.69 L1260.75 1566.23 Q1257.6 1567.57 1254.29 1568.27 Q1250.98 1568.97 1247.58 1568.97 Q1239.05 1568.97 1234.05 1564 Q1229.08 1559.04 1229.08 1550.57 Q1229.08 1541.82 1233.79 1536.69 Q1238.54 1531.54 1246.56 1531.54 Q1253.75 1531.54 1257.92 1536.18 Q1262.12 1540.8 1262.12 1548.76 M1256.26 1547.04 Q1256.2 1542.23 1253.56 1539.37 Q1250.95 1536.5 1246.62 1536.5 Q1241.72 1536.5 1238.76 1539.27 Q1235.83 1542.04 1235.39 1547.07 L1256.26 1547.04 Z" fill="#000000" fill-rule="nonzero" fill-opacity="1" /><path clip-path="url(#clip350)" d="M1271.73 1518.52 L1277.59 1518.52 L1277.59 1568.04 L1271.73 1568.04 L1271.73 1518.52 Z" fill="#000000" fill-rule="nonzero" fill-opacity="1" /><path clip-path="url(#clip350)" d="M1324.38 1536.5 Q1319.67 1536.5 1316.93 1540.19 Q1314.19 1543.85 1314.19 1550.25 Q1314.19 1556.65 1316.9 1560.34 Q1319.64 1564 1324.38 1564 Q1329.06 1564 1331.79 1560.31 Q1334.53 1556.62 1334.53 1550.25 Q1334.53 1543.92 1331.79 1540.23 Q1329.06 1536.5 1324.38 1536.5 M1324.38 1531.54 Q1332.02 1531.54 1336.38 1536.5 Q1340.74 1541.47 1340.74 1550.25 Q1340.74 1559 1336.38 1564 Q1332.02 1568.97 1324.38 1568.97 Q1316.71 1568.97 1312.35 1564 Q1308.02 1559 1308.02 1550.25 Q1308.02 1541.47 1312.35 1536.5 Q1316.71 1531.54 1324.38 1531.54 Z" fill="#000000" fill-rule="nonzero" fill-opacity="1" /><path clip-path="url(#clip350)" d="M1371.1 1537.87 Q1370.12 1537.3 1368.94 1537.04 Q1367.79 1536.76 1366.39 1536.76 Q1361.43 1536.76 1358.75 1540 Q1356.11 1543.22 1356.11 1549.27 L1356.11 1568.04 L1350.22 1568.04 L1350.22 1532.4 L1356.11 1532.4 L1356.11 1537.93 Q1357.96 1534.69 1360.92 1533.13 Q1363.88 1531.54 1368.11 1531.54 Q1368.72 1531.54 1369.45 1531.63 Q1370.18 1531.7 1371.07 1531.85 L1371.1 1537.87 Z" fill="#000000" fill-rule="nonzero" fill-opacity="1" /><path clip-path="url(#clip350)" d="M1399.56 1537.81 L1399.56 1518.52 L1405.41 1518.52 L1405.41 1568.04 L1399.56 1568.04 L1399.56 1562.7 Q1397.71 1565.88 1394.88 1567.44 Q1392.08 1568.97 1388.13 1568.97 Q1381.67 1568.97 1377.6 1563.81 Q1373.55 1558.65 1373.55 1550.25 Q1373.55 1541.85 1377.6 1536.69 Q1381.67 1531.54 1388.13 1531.54 Q1392.08 1531.54 1394.88 1533.1 Q1397.71 1534.62 1399.56 1537.81 M1379.6 1550.25 Q1379.6 1556.71 1382.24 1560.4 Q1384.92 1564.07 1389.56 1564.07 Q1394.21 1564.07 1396.88 1560.4 Q1399.56 1556.71 1399.56 1550.25 Q1399.56 1543.79 1396.88 1540.13 Q1394.21 1536.44 1389.56 1536.44 Q1384.92 1536.44 1382.24 1540.13 Q1379.6 1543.79 1379.6 1550.25 Z" fill="#000000" fill-rule="nonzero" fill-opacity="1" /><path clip-path="url(#clip350)" d="M1447.97 1548.76 L1447.97 1551.62 L1421.04 1551.62 Q1421.42 1557.67 1424.67 1560.85 Q1427.95 1564 1433.77 1564 Q1437.15 1564 1440.3 1563.17 Q1443.48 1562.35 1446.6 1560.69 L1446.6 1566.23 Q1443.45 1567.57 1440.14 1568.27 Q1436.83 1568.97 1433.42 1568.97 Q1424.89 1568.97 1419.9 1564 Q1414.93 1559.04 1414.93 1550.57 Q1414.93 1541.82 1419.64 1536.69 Q1424.38 1531.54 1432.4 1531.54 Q1439.6 1531.54 1443.77 1536.18 Q1447.97 1540.8 1447.97 1548.76 M1442.11 1547.04 Q1442.05 1542.23 1439.41 1539.37 Q1436.8 1536.5 1432.47 1536.5 Q1427.57 1536.5 1424.61 1539.27 Q1421.68 1542.04 1421.23 1547.07 L1442.11 1547.04 Z" fill="#000000" fill-rule="nonzero" fill-opacity="1" /><path clip-path="url(#clip350)" d="M1478.24 1537.87 Q1477.25 1537.3 1476.07 1537.04 Q1474.93 1536.76 1473.53 1536.76 Q1468.56 1536.76 1465.89 1540 Q1463.25 1543.22 1463.25 1549.27 L1463.25 1568.04 L1457.36 1568.04 L1457.36 1532.4 L1463.25 1532.4 L1463.25 1537.93 Q1465.09 1534.69 1468.05 1533.13 Q1471.01 1531.54 1475.25 1531.54 Q1475.85 1531.54 1476.58 1531.63 Q1477.31 1531.7 1478.21 1531.85 L1478.24 1537.87 Z" fill="#000000" fill-rule="nonzero" fill-opacity="1" /><polyline clip-path="url(#clip350)" style="stroke:#000000; stroke-linecap:round; stroke-linejoin:round; stroke-width:4; stroke-opacity:1; fill:none" points="219.866,1423.18 219.866,47.2441 "/>
<polyline clip-path="url(#clip350)" style="stroke:#000000; stroke-linecap:round; stroke-linejoin:round; stroke-width:4; stroke-opacity:1; fill:none" points="219.866,1423.18 238.764,1423.18 "/>
<polyline clip-path="url(#clip350)" style="stroke:#000000; stroke-linecap:round; stroke-linejoin:round; stroke-width:4; stroke-opacity:1; fill:none" points="219.866,1147.99 238.764,1147.99 "/>
<polyline clip-path="url(#clip350)" style="stroke:#000000; stroke-linecap:round; stroke-linejoin:round; stroke-width:4; stroke-opacity:1; fill:none" points="219.866,872.806 238.764,872.806 "/>
<polyline clip-path="url(#clip350)" style="stroke:#000000; stroke-linecap:round; stroke-linejoin:round; stroke-width:4; stroke-opacity:1; fill:none" points="219.866,597.618 238.764,597.618 "/>
<polyline clip-path="url(#clip350)" style="stroke:#000000; stroke-linecap:round; stroke-linejoin:round; stroke-width:4; stroke-opacity:1; fill:none" points="219.866,322.431 238.764,322.431 "/>
<polyline clip-path="url(#clip350)" style="stroke:#000000; stroke-linecap:round; stroke-linejoin:round; stroke-width:4; stroke-opacity:1; fill:none" points="219.866,47.2441 238.764,47.2441 "/>
<path clip-path="url(#clip350)" d="M126.691 1408.98 Q123.08 1408.98 121.251 1412.54 Q119.445 1416.08 119.445 1423.21 Q119.445 1430.32 121.251 1433.89 Q123.08 1437.43 126.691 1437.43 Q130.325 1437.43 132.13 1433.89 Q133.959 1430.32 133.959 1423.21 Q133.959 1416.08 132.13 1412.54 Q130.325 1408.98 126.691 1408.98 M126.691 1405.27 Q132.501 1405.27 135.556 1409.88 Q138.635 1414.46 138.635 1423.21 Q138.635 1431.94 135.556 1436.55 Q132.501 1441.13 126.691 1441.13 Q120.88 1441.13 117.802 1436.55 Q114.746 1431.94 114.746 1423.21 Q114.746 1414.46 117.802 1409.88 Q120.88 1405.27 126.691 1405.27 Z" fill="#000000" fill-rule="nonzero" fill-opacity="1" /><path clip-path="url(#clip350)" d="M146.853 1434.58 L151.737 1434.58 L151.737 1440.46 L146.853 1440.46 L146.853 1434.58 Z" fill="#000000" fill-rule="nonzero" fill-opacity="1" /><path clip-path="url(#clip350)" d="M171.922 1408.98 Q168.311 1408.98 166.482 1412.54 Q164.677 1416.08 164.677 1423.21 Q164.677 1430.32 166.482 1433.89 Q168.311 1437.43 171.922 1437.43 Q175.556 1437.43 177.362 1433.89 Q179.19 1430.32 179.19 1423.21 Q179.19 1416.08 177.362 1412.54 Q175.556 1408.98 171.922 1408.98 M171.922 1405.27 Q177.732 1405.27 180.788 1409.88 Q183.866 1414.46 183.866 1423.21 Q183.866 1431.94 180.788 1436.55 Q177.732 1441.13 171.922 1441.13 Q166.112 1441.13 163.033 1436.55 Q159.978 1431.94 159.978 1423.21 Q159.978 1414.46 163.033 1409.88 Q166.112 1405.27 171.922 1405.27 Z" fill="#000000" fill-rule="nonzero" fill-opacity="1" /><path clip-path="url(#clip350)" d="M128.288 1133.79 Q124.677 1133.79 122.848 1137.36 Q121.043 1140.9 121.043 1148.03 Q121.043 1155.13 122.848 1158.7 Q124.677 1162.24 128.288 1162.24 Q131.922 1162.24 133.728 1158.7 Q135.556 1155.13 135.556 1148.03 Q135.556 1140.9 133.728 1137.36 Q131.922 1133.79 128.288 1133.79 M128.288 1130.09 Q134.098 1130.09 137.154 1134.69 Q140.232 1139.28 140.232 1148.03 Q140.232 1156.75 137.154 1161.36 Q134.098 1165.94 128.288 1165.94 Q122.478 1165.94 119.399 1161.36 Q116.343 1156.75 116.343 1148.03 Q116.343 1139.28 119.399 1134.69 Q122.478 1130.09 128.288 1130.09 Z" fill="#000000" fill-rule="nonzero" fill-opacity="1" /><path clip-path="url(#clip350)" d="M148.45 1159.39 L153.334 1159.39 L153.334 1165.27 L148.45 1165.27 L148.45 1159.39 Z" fill="#000000" fill-rule="nonzero" fill-opacity="1" /><path clip-path="url(#clip350)" d="M167.547 1161.34 L183.866 1161.34 L183.866 1165.27 L161.922 1165.27 L161.922 1161.34 Q164.584 1158.58 169.167 1153.95 Q173.774 1149.3 174.954 1147.96 Q177.2 1145.43 178.079 1143.7 Q178.982 1141.94 178.982 1140.25 Q178.982 1137.5 177.038 1135.76 Q175.116 1134.02 172.014 1134.02 Q169.815 1134.02 167.362 1134.79 Q164.931 1135.55 162.153 1137.1 L162.153 1132.38 Q164.977 1131.25 167.431 1130.67 Q169.885 1130.09 171.922 1130.09 Q177.292 1130.09 180.487 1132.77 Q183.681 1135.46 183.681 1139.95 Q183.681 1142.08 182.871 1144 Q182.084 1145.9 179.977 1148.49 Q179.399 1149.16 176.297 1152.38 Q173.195 1155.57 167.547 1161.34 Z" fill="#000000" fill-rule="nonzero" fill-opacity="1" /><path clip-path="url(#clip350)" d="M126.205 858.604 Q122.593 858.604 120.765 862.169 Q118.959 865.711 118.959 872.84 Q118.959 879.947 120.765 883.512 Q122.593 887.053 126.205 887.053 Q129.839 887.053 131.644 883.512 Q133.473 879.947 133.473 872.84 Q133.473 865.711 131.644 862.169 Q129.839 858.604 126.205 858.604 M126.205 854.901 Q132.015 854.901 135.07 859.507 Q138.149 864.09 138.149 872.84 Q138.149 881.567 135.07 886.174 Q132.015 890.757 126.205 890.757 Q120.394 890.757 117.316 886.174 Q114.26 881.567 114.26 872.84 Q114.26 864.09 117.316 859.507 Q120.394 854.901 126.205 854.901 Z" fill="#000000" fill-rule="nonzero" fill-opacity="1" /><path clip-path="url(#clip350)" d="M146.366 884.206 L151.251 884.206 L151.251 890.086 L146.366 890.086 L146.366 884.206 Z" fill="#000000" fill-rule="nonzero" fill-opacity="1" /><path clip-path="url(#clip350)" d="M174.283 859.6 L162.477 878.049 L174.283 878.049 L174.283 859.6 M173.056 855.526 L178.936 855.526 L178.936 878.049 L183.866 878.049 L183.866 881.937 L178.936 881.937 L178.936 890.086 L174.283 890.086 L174.283 881.937 L158.681 881.937 L158.681 877.424 L173.056 855.526 Z" fill="#000000" fill-rule="nonzero" fill-opacity="1" /><path clip-path="url(#clip350)" d="M126.529 583.417 Q122.918 583.417 121.089 586.982 Q119.283 590.524 119.283 597.653 Q119.283 604.76 121.089 608.324 Q122.918 611.866 126.529 611.866 Q130.163 611.866 131.968 608.324 Q133.797 604.76 133.797 597.653 Q133.797 590.524 131.968 586.982 Q130.163 583.417 126.529 583.417 M126.529 579.713 Q132.339 579.713 135.394 584.32 Q138.473 588.903 138.473 597.653 Q138.473 606.38 135.394 610.986 Q132.339 615.57 126.529 615.57 Q120.718 615.57 117.64 610.986 Q114.584 606.38 114.584 597.653 Q114.584 588.903 117.64 584.32 Q120.718 579.713 126.529 579.713 Z" fill="#000000" fill-rule="nonzero" fill-opacity="1" /><path clip-path="url(#clip350)" d="M146.691 609.019 L151.575 609.019 L151.575 614.898 L146.691 614.898 L146.691 609.019 Z" fill="#000000" fill-rule="nonzero" fill-opacity="1" /><path clip-path="url(#clip350)" d="M172.339 595.755 Q169.19 595.755 167.339 597.908 Q165.51 600.061 165.51 603.81 Q165.51 607.537 167.339 609.713 Q169.19 611.866 172.339 611.866 Q175.487 611.866 177.315 609.713 Q179.167 607.537 179.167 603.81 Q179.167 600.061 177.315 597.908 Q175.487 595.755 172.339 595.755 M181.621 581.102 L181.621 585.362 Q179.862 584.528 178.056 584.088 Q176.274 583.649 174.514 583.649 Q169.885 583.649 167.431 586.774 Q165.001 589.899 164.653 596.218 Q166.019 594.204 168.079 593.139 Q170.139 592.051 172.616 592.051 Q177.825 592.051 180.834 595.223 Q183.866 598.371 183.866 603.81 Q183.866 609.135 180.718 612.352 Q177.57 615.57 172.339 615.57 Q166.343 615.57 163.172 610.986 Q160.001 606.38 160.001 597.653 Q160.001 589.459 163.89 584.598 Q167.778 579.713 174.329 579.713 Q176.089 579.713 177.871 580.061 Q179.676 580.408 181.621 581.102 Z" fill="#000000" fill-rule="nonzero" fill-opacity="1" /><path clip-path="url(#clip350)" d="M126.783 308.23 Q123.172 308.23 121.343 311.795 Q119.538 315.336 119.538 322.466 Q119.538 329.572 121.343 333.137 Q123.172 336.679 126.783 336.679 Q130.417 336.679 132.223 333.137 Q134.052 329.572 134.052 322.466 Q134.052 315.336 132.223 311.795 Q130.417 308.23 126.783 308.23 M126.783 304.526 Q132.593 304.526 135.649 309.133 Q138.728 313.716 138.728 322.466 Q138.728 331.193 135.649 335.799 Q132.593 340.383 126.783 340.383 Q120.973 340.383 117.894 335.799 Q114.839 331.193 114.839 322.466 Q114.839 313.716 117.894 309.133 Q120.973 304.526 126.783 304.526 Z" fill="#000000" fill-rule="nonzero" fill-opacity="1" /><path clip-path="url(#clip350)" d="M146.945 333.832 L151.829 333.832 L151.829 339.711 L146.945 339.711 L146.945 333.832 Z" fill="#000000" fill-rule="nonzero" fill-opacity="1" /><path clip-path="url(#clip350)" d="M172.014 323.299 Q168.681 323.299 166.76 325.082 Q164.862 326.864 164.862 329.989 Q164.862 333.114 166.76 334.896 Q168.681 336.679 172.014 336.679 Q175.348 336.679 177.269 334.896 Q179.19 333.091 179.19 329.989 Q179.19 326.864 177.269 325.082 Q175.371 323.299 172.014 323.299 M167.339 321.309 Q164.329 320.568 162.64 318.508 Q160.973 316.447 160.973 313.485 Q160.973 309.341 163.913 306.934 Q166.876 304.526 172.014 304.526 Q177.176 304.526 180.116 306.934 Q183.056 309.341 183.056 313.485 Q183.056 316.447 181.366 318.508 Q179.7 320.568 176.714 321.309 Q180.093 322.096 181.968 324.387 Q183.866 326.679 183.866 329.989 Q183.866 335.012 180.788 337.697 Q177.732 340.383 172.014 340.383 Q166.297 340.383 163.218 337.697 Q160.163 335.012 160.163 329.989 Q160.163 326.679 162.061 324.387 Q163.959 322.096 167.339 321.309 M165.626 313.924 Q165.626 316.61 167.292 318.114 Q168.982 319.619 172.014 319.619 Q175.024 319.619 176.714 318.114 Q178.426 316.61 178.426 313.924 Q178.426 311.239 176.714 309.735 Q175.024 308.23 172.014 308.23 Q168.982 308.23 167.292 309.735 Q165.626 311.239 165.626 313.924 Z" fill="#000000" fill-rule="nonzero" fill-opacity="1" /><path clip-path="url(#clip350)" d="M117.501 60.5889 L125.14 60.5889 L125.14 34.2233 L116.83 35.89 L116.83 31.6308 L125.093 29.9641 L129.769 29.9641 L129.769 60.5889 L137.408 60.5889 L137.408 64.5241 L117.501 64.5241 L117.501 60.5889 Z" fill="#000000" fill-rule="nonzero" fill-opacity="1" /><path clip-path="url(#clip350)" d="M146.853 58.6445 L151.737 58.6445 L151.737 64.5241 L146.853 64.5241 L146.853 58.6445 Z" fill="#000000" fill-rule="nonzero" fill-opacity="1" /><path clip-path="url(#clip350)" d="M171.922 33.0428 Q168.311 33.0428 166.482 36.6076 Q164.677 40.1492 164.677 47.2788 Q164.677 54.3853 166.482 57.9501 Q168.311 61.4917 171.922 61.4917 Q175.556 61.4917 177.362 57.9501 Q179.19 54.3853 179.19 47.2788 Q179.19 40.1492 177.362 36.6076 Q175.556 33.0428 171.922 33.0428 M171.922 29.3391 Q177.732 29.3391 180.788 33.9456 Q183.866 38.5289 183.866 47.2788 Q183.866 56.0056 180.788 60.6121 Q177.732 65.1954 171.922 65.1954 Q166.112 65.1954 163.033 60.6121 Q159.978 56.0056 159.978 47.2788 Q159.978 38.5289 163.033 33.9456 Q166.112 29.3391 171.922 29.3391 Z" fill="#000000" fill-rule="nonzero" fill-opacity="1" /><path clip-path="url(#clip350)" d="M16.4842 1182.55 L16.4842 1173.89 L56.238 1152.82 L16.4842 1152.82 L16.4842 1146.58 L64.0042 1146.58 L64.0042 1155.24 L24.2503 1176.31 L64.0042 1176.31 L64.0042 1182.55 L16.4842 1182.55 Z" fill="#000000" fill-rule="nonzero" fill-opacity="1" /><path clip-path="url(#clip350)" d="M32.4621 1120.23 Q32.4621 1124.94 36.1542 1127.67 Q39.8145 1130.41 46.212 1130.41 Q52.6095 1130.41 56.3017 1127.71 Q59.9619 1124.97 59.9619 1120.23 Q59.9619 1115.55 56.2698 1112.81 Q52.5777 1110.07 46.212 1110.07 Q39.8781 1110.07 36.186 1112.81 Q32.4621 1115.55 32.4621 1120.23 M27.4968 1120.23 Q27.4968 1112.59 32.4621 1108.23 Q37.4273 1103.87 46.212 1103.87 Q54.9649 1103.87 59.9619 1108.23 Q64.9272 1112.59 64.9272 1120.23 Q64.9272 1127.9 59.9619 1132.26 Q54.9649 1136.59 46.212 1136.59 Q37.4273 1136.59 32.4621 1132.26 Q27.4968 1127.9 27.4968 1120.23 Z" fill="#000000" fill-rule="nonzero" fill-opacity="1" /><path clip-path="url(#clip350)" d="M33.8307 1073.5 Q33.2578 1074.49 33.0032 1075.67 Q32.7167 1076.81 32.7167 1078.21 Q32.7167 1083.18 35.9632 1085.85 Q39.1779 1088.49 45.2253 1088.49 L64.0042 1088.49 L64.0042 1094.38 L28.3562 1094.38 L28.3562 1088.49 L33.8944 1088.49 Q30.6479 1086.65 29.0883 1083.69 Q27.4968 1080.73 27.4968 1076.49 Q27.4968 1075.89 27.5923 1075.16 Q27.656 1074.42 27.8151 1073.53 L33.8307 1073.5 Z" fill="#000000" fill-rule="nonzero" fill-opacity="1" /><path clip-path="url(#clip350)" d="M35.1993 1040.75 Q31.2526 1038.55 29.3747 1035.5 Q27.4968 1032.44 27.4968 1028.31 Q27.4968 1022.74 31.4117 1019.71 Q35.2948 1016.69 42.4881 1016.69 L64.0042 1016.69 L64.0042 1022.58 L42.679 1022.58 Q37.5546 1022.58 35.072 1024.39 Q32.5894 1026.2 32.5894 1029.93 Q32.5894 1034.48 35.6131 1037.12 Q38.6368 1039.76 43.8567 1039.76 L64.0042 1039.76 L64.0042 1045.65 L42.679 1045.65 Q37.5228 1045.65 35.072 1047.47 Q32.5894 1049.28 32.5894 1053.07 Q32.5894 1057.56 35.6449 1060.2 Q38.6686 1062.84 43.8567 1062.84 L64.0042 1062.84 L64.0042 1068.73 L28.3562 1068.73 L28.3562 1062.84 L33.8944 1062.84 Q30.616 1060.83 29.0564 1058.03 Q27.4968 1055.23 27.4968 1051.38 Q27.4968 1047.5 29.4702 1044.79 Q31.4436 1042.05 35.1993 1040.75 Z" fill="#000000" fill-rule="nonzero" fill-opacity="1" /><path clip-path="url(#clip350)" d="M46.0847 988.806 Q46.0847 995.904 47.7079 998.641 Q49.3312 1001.38 53.2461 1001.38 Q56.3653 1001.38 58.2114 999.341 Q60.0256 997.272 60.0256 993.739 Q60.0256 988.869 56.5881 985.941 Q53.1188 982.981 47.3897 982.981 L46.0847 982.981 L46.0847 988.806 M43.6657 977.125 L64.0042 977.125 L64.0042 982.981 L58.5933 982.981 Q61.8398 984.986 63.3994 987.978 Q64.9272 990.97 64.9272 995.299 Q64.9272 1000.77 61.8716 1004.02 Q58.7843 1007.23 53.6281 1007.23 Q47.6125 1007.23 44.5569 1003.22 Q41.5014 999.182 41.5014 991.193 L41.5014 982.981 L40.9285 982.981 Q36.8862 982.981 34.6901 985.655 Q32.4621 988.297 32.4621 993.103 Q32.4621 996.158 33.1941 999.055 Q33.9262 1001.95 35.3903 1004.62 L29.9795 1004.62 Q28.7381 1001.41 28.1334 998.386 Q27.4968 995.362 27.4968 992.498 Q27.4968 984.764 31.5072 980.944 Q35.5176 977.125 43.6657 977.125 Z" fill="#000000" fill-rule="nonzero" fill-opacity="1" /><path clip-path="url(#clip350)" d="M14.479 965.062 L14.479 959.205 L64.0042 959.205 L64.0042 965.062 L14.479 965.062 Z" fill="#000000" fill-rule="nonzero" fill-opacity="1" /><path clip-path="url(#clip350)" d="M28.3562 946.951 L28.3562 941.095 L64.0042 941.095 L64.0042 946.951 L28.3562 946.951 M14.479 946.951 L14.479 941.095 L21.895 941.095 L21.895 946.951 L14.479 946.951 Z" fill="#000000" fill-rule="nonzero" fill-opacity="1" /><path clip-path="url(#clip350)" d="M28.3562 931.387 L28.3562 903.569 L33.7034 903.569 L59.3254 925.594 L59.3254 903.569 L64.0042 903.569 L64.0042 932.183 L58.657 932.183 L33.035 910.158 L33.035 931.387 L28.3562 931.387 Z" fill="#000000" fill-rule="nonzero" fill-opacity="1" /><path clip-path="url(#clip350)" d="M44.7161 864.133 L47.5806 864.133 L47.5806 891.06 Q53.6281 890.678 56.8109 887.432 Q59.9619 884.154 59.9619 878.329 Q59.9619 874.955 59.1344 871.804 Q58.3069 868.621 56.6518 865.502 L62.1899 865.502 Q63.5267 868.653 64.227 871.963 Q64.9272 875.273 64.9272 878.679 Q64.9272 887.209 59.9619 892.206 Q54.9967 897.171 46.5303 897.171 Q37.7774 897.171 32.6531 892.461 Q27.4968 887.718 27.4968 879.698 Q27.4968 872.504 32.1438 868.335 Q36.7589 864.133 44.7161 864.133 M42.9973 869.99 Q38.1912 870.054 35.3266 872.695 Q32.4621 875.305 32.4621 879.634 Q32.4621 884.536 35.2312 887.496 Q38.0002 890.424 43.0292 890.869 L42.9973 869.99 Z" fill="#000000" fill-rule="nonzero" fill-opacity="1" /><path clip-path="url(#clip350)" d="M33.7671 831.064 L14.479 831.064 L14.479 825.207 L64.0042 825.207 L64.0042 831.064 L58.657 831.064 Q61.8398 832.91 63.3994 835.742 Q64.9272 838.543 64.9272 842.49 Q64.9272 848.951 59.771 853.025 Q54.6147 857.068 46.212 857.068 Q37.8093 857.068 32.6531 853.025 Q27.4968 848.951 27.4968 842.49 Q27.4968 838.543 29.0564 835.742 Q30.5842 832.91 33.7671 831.064 M46.212 851.02 Q52.6732 851.02 56.3653 848.378 Q60.0256 845.705 60.0256 841.058 Q60.0256 836.411 56.3653 833.737 Q52.6732 831.064 46.212 831.064 Q39.7508 831.064 36.0905 833.737 Q32.3984 836.411 32.3984 841.058 Q32.3984 845.705 36.0905 848.378 Q39.7508 851.02 46.212 851.02 Z" fill="#000000" fill-rule="nonzero" fill-opacity="1" /><path clip-path="url(#clip350)" d="M29.7248 766.77 L35.1993 766.77 Q33.8307 769.253 33.1623 771.767 Q32.4621 774.25 32.4621 776.796 Q32.4621 782.493 36.0905 785.644 Q39.6872 788.795 46.212 788.795 Q52.7369 788.795 56.3653 785.644 Q59.9619 782.493 59.9619 776.796 Q59.9619 774.25 59.2935 771.767 Q58.5933 769.253 57.2247 766.77 L62.6355 766.77 Q63.7814 769.221 64.3543 771.863 Q64.9272 774.472 64.9272 777.433 Q64.9272 785.485 59.8664 790.228 Q54.8057 794.97 46.212 794.97 Q37.491 794.97 32.4939 790.196 Q27.4968 785.39 27.4968 777.051 Q27.4968 774.345 28.0697 771.767 Q28.6108 769.189 29.7248 766.77 Z" fill="#000000" fill-rule="nonzero" fill-opacity="1" /><path clip-path="url(#clip350)" d="M32.4621 742.771 Q32.4621 747.482 36.1542 750.219 Q39.8145 752.956 46.212 752.956 Q52.6095 752.956 56.3017 750.251 Q59.9619 747.514 59.9619 742.771 Q59.9619 738.092 56.2698 735.355 Q52.5777 732.618 46.212 732.618 Q39.8781 732.618 36.186 735.355 Q32.4621 738.092 32.4621 742.771 M27.4968 742.771 Q27.4968 735.132 32.4621 730.772 Q37.4273 726.411 46.212 726.411 Q54.9649 726.411 59.9619 730.772 Q64.9272 735.132 64.9272 742.771 Q64.9272 750.442 59.9619 754.802 Q54.9649 759.131 46.212 759.131 Q37.4273 759.131 32.4621 754.802 Q27.4968 750.442 27.4968 742.771 Z" fill="#000000" fill-rule="nonzero" fill-opacity="1" /><path clip-path="url(#clip350)" d="M58.657 711.038 L77.5631 711.038 L77.5631 716.926 L28.3562 716.926 L28.3562 711.038 L33.7671 711.038 Q30.5842 709.192 29.0564 706.391 Q27.4968 703.558 27.4968 699.644 Q27.4968 693.151 32.6531 689.108 Q37.8093 685.034 46.212 685.034 Q54.6147 685.034 59.771 689.108 Q64.9272 693.151 64.9272 699.644 Q64.9272 703.558 63.3994 706.391 Q61.8398 709.192 58.657 711.038 M46.212 691.114 Q39.7508 691.114 36.0905 693.787 Q32.3984 696.429 32.3984 701.076 Q32.3984 705.723 36.0905 708.396 Q39.7508 711.038 46.212 711.038 Q52.6732 711.038 56.3653 708.396 Q60.0256 705.723 60.0256 701.076 Q60.0256 696.429 56.3653 693.787 Q52.6732 691.114 46.212 691.114 Z" fill="#000000" fill-rule="nonzero" fill-opacity="1" /><path clip-path="url(#clip350)" d="M33.8307 654.67 Q33.2578 655.657 33.0032 656.834 Q32.7167 657.98 32.7167 659.38 Q32.7167 664.346 35.9632 667.019 Q39.1779 669.661 45.2253 669.661 L64.0042 669.661 L64.0042 675.549 L28.3562 675.549 L28.3562 669.661 L33.8944 669.661 Q30.6479 667.815 29.0883 664.855 Q27.4968 661.895 27.4968 657.662 Q27.4968 657.057 27.5923 656.325 Q27.656 655.593 27.8151 654.702 L33.8307 654.67 Z" fill="#000000" fill-rule="nonzero" fill-opacity="1" /><path clip-path="url(#clip350)" d="M28.3562 648.527 L28.3562 642.671 L64.0042 642.671 L64.0042 648.527 L28.3562 648.527 M14.479 648.527 L14.479 642.671 L21.895 642.671 L21.895 648.527 L14.479 648.527 Z" fill="#000000" fill-rule="nonzero" fill-opacity="1" /><path clip-path="url(#clip350)" d="M35.1993 602.662 Q31.2526 600.466 29.3747 597.41 Q27.4968 594.355 27.4968 590.217 Q27.4968 584.647 31.4117 581.623 Q35.2948 578.6 42.4881 578.6 L64.0042 578.6 L64.0042 584.488 L42.679 584.488 Q37.5546 584.488 35.072 586.302 Q32.5894 588.116 32.5894 591.84 Q32.5894 596.392 35.6131 599.034 Q38.6368 601.675 43.8567 601.675 L64.0042 601.675 L64.0042 607.564 L42.679 607.564 Q37.5228 607.564 35.072 609.378 Q32.5894 611.192 32.5894 614.98 Q32.5894 619.468 35.6449 622.109 Q38.6686 624.751 43.8567 624.751 L64.0042 624.751 L64.0042 630.639 L28.3562 630.639 L28.3562 624.751 L33.8944 624.751 Q30.616 622.746 29.0564 619.945 Q27.4968 617.144 27.4968 613.293 Q27.4968 609.41 29.4702 606.704 Q31.4436 603.967 35.1993 602.662 Z" fill="#000000" fill-rule="nonzero" fill-opacity="1" /><path clip-path="url(#clip350)" d="M44.7161 536.427 L47.5806 536.427 L47.5806 563.354 Q53.6281 562.972 56.8109 559.725 Q59.9619 556.447 59.9619 550.622 Q59.9619 547.249 59.1344 544.098 Q58.3069 540.915 56.6518 537.795 L62.1899 537.795 Q63.5267 540.947 64.227 544.257 Q64.9272 547.567 64.9272 550.973 Q64.9272 559.503 59.9619 564.5 Q54.9967 569.465 46.5303 569.465 Q37.7774 569.465 32.6531 564.754 Q27.4968 560.012 27.4968 551.991 Q27.4968 544.798 32.1438 540.628 Q36.7589 536.427 44.7161 536.427 M42.9973 542.283 Q38.1912 542.347 35.3266 544.989 Q32.4621 547.599 32.4621 551.927 Q32.4621 556.829 35.2312 559.789 Q38.0002 562.717 43.0292 563.163 L42.9973 542.283 Z" fill="#000000" fill-rule="nonzero" fill-opacity="1" /><path clip-path="url(#clip350)" d="M35.1993 478.34 Q31.2526 476.144 29.3747 473.088 Q27.4968 470.033 27.4968 465.895 Q27.4968 460.325 31.4117 457.301 Q35.2948 454.277 42.4881 454.277 L64.0042 454.277 L64.0042 460.166 L42.679 460.166 Q37.5546 460.166 35.072 461.98 Q32.5894 463.794 32.5894 467.518 Q32.5894 472.07 35.6131 474.711 Q38.6368 477.353 43.8567 477.353 L64.0042 477.353 L64.0042 483.241 L42.679 483.241 Q37.5228 483.241 35.072 485.056 Q32.5894 486.87 32.5894 490.657 Q32.5894 495.145 35.6449 497.787 Q38.6686 500.429 43.8567 500.429 L64.0042 500.429 L64.0042 506.317 L28.3562 506.317 L28.3562 500.429 L33.8944 500.429 Q30.616 498.424 29.0564 495.623 Q27.4968 492.822 27.4968 488.971 Q27.4968 485.087 29.4702 482.382 Q31.4436 479.645 35.1993 478.34 Z" fill="#000000" fill-rule="nonzero" fill-opacity="1" /><path clip-path="url(#clip350)" d="M46.0847 426.396 Q46.0847 433.493 47.7079 436.231 Q49.3312 438.968 53.2461 438.968 Q56.3653 438.968 58.2114 436.931 Q60.0256 434.862 60.0256 431.329 Q60.0256 426.459 56.5881 423.531 Q53.1188 420.571 47.3897 420.571 L46.0847 420.571 L46.0847 426.396 M43.6657 414.715 L64.0042 414.715 L64.0042 420.571 L58.5933 420.571 Q61.8398 422.576 63.3994 425.568 Q64.9272 428.56 64.9272 432.889 Q64.9272 438.363 61.8716 441.61 Q58.7843 444.824 53.6281 444.824 Q47.6125 444.824 44.5569 440.814 Q41.5014 436.772 41.5014 428.783 L41.5014 420.571 L40.9285 420.571 Q36.8862 420.571 34.6901 423.245 Q32.4621 425.886 32.4621 430.692 Q32.4621 433.748 33.1941 436.644 Q33.9262 439.541 35.3903 442.214 L29.9795 442.214 Q28.7381 439 28.1334 435.976 Q27.4968 432.952 27.4968 430.088 Q27.4968 422.353 31.5072 418.534 Q35.5176 414.715 43.6657 414.715 Z" fill="#000000" fill-rule="nonzero" fill-opacity="1" /><path clip-path="url(#clip350)" d="M33.8307 381.995 Q33.2578 382.982 33.0032 384.159 Q32.7167 385.305 32.7167 386.705 Q32.7167 391.671 35.9632 394.344 Q39.1779 396.986 45.2253 396.986 L64.0042 396.986 L64.0042 402.874 L28.3562 402.874 L28.3562 396.986 L33.8944 396.986 Q30.6479 395.14 29.0883 392.18 Q27.4968 389.22 27.4968 384.987 Q27.4968 384.382 27.5923 383.65 Q27.656 382.918 27.8151 382.027 L33.8307 381.995 Z" fill="#000000" fill-rule="nonzero" fill-opacity="1" /><path clip-path="url(#clip350)" d="M45.7664 353.54 Q39.4007 353.54 35.8996 356.182 Q32.3984 358.792 32.3984 363.534 Q32.3984 368.245 35.8996 370.887 Q39.4007 373.497 45.7664 373.497 Q52.1003 373.497 55.6014 370.887 Q59.1026 368.245 59.1026 363.534 Q59.1026 358.792 55.6014 356.182 Q52.1003 353.54 45.7664 353.54 M59.58 347.684 Q68.683 347.684 73.1071 351.726 Q77.5631 355.768 77.5631 364.107 Q77.5631 367.195 77.0857 369.932 Q76.6401 372.669 75.6852 375.247 L69.9879 375.247 Q71.3884 372.669 72.0568 370.155 Q72.7252 367.64 72.7252 365.03 Q72.7252 359.269 69.7015 356.405 Q66.7096 353.54 60.6303 353.54 L57.7339 353.54 Q60.885 355.354 62.4446 358.187 Q64.0042 361.02 64.0042 364.967 Q64.0042 371.523 59.0071 375.534 Q54.01 379.544 45.7664 379.544 Q37.491 379.544 32.4939 375.534 Q27.4968 371.523 27.4968 364.967 Q27.4968 361.02 29.0564 358.187 Q30.616 355.354 33.7671 353.54 L28.3562 353.54 L28.3562 347.684 L59.58 347.684 Z" fill="#000000" fill-rule="nonzero" fill-opacity="1" /><path clip-path="url(#clip350)" d="M28.3562 335.621 L28.3562 329.764 L64.0042 329.764 L64.0042 335.621 L28.3562 335.621 M14.479 335.621 L14.479 329.764 L21.895 329.764 L21.895 335.621 L14.479 335.621 Z" fill="#000000" fill-rule="nonzero" fill-opacity="1" /><path clip-path="url(#clip350)" d="M42.4881 287.878 L64.0042 287.878 L64.0042 293.734 L42.679 293.734 Q37.6183 293.734 35.1038 295.708 Q32.5894 297.681 32.5894 301.628 Q32.5894 306.37 35.6131 309.107 Q38.6368 311.845 43.8567 311.845 L64.0042 311.845 L64.0042 317.733 L28.3562 317.733 L28.3562 311.845 L33.8944 311.845 Q30.6797 309.744 29.0883 306.911 Q27.4968 304.047 27.4968 300.323 Q27.4968 294.18 31.3163 291.029 Q35.1038 287.878 42.4881 287.878 Z" fill="#000000" fill-rule="nonzero" fill-opacity="1" /><polyline clip-path="url(#clip351)" style="stroke:#009af9; stroke-linecap:round; stroke-linejoin:round; stroke-width:16; stroke-opacity:1; fill:none" points="280.231,1423.18 950.951,925.58 1621.67,933.527 2292.39,883.077 "/>
<path clip-path="url(#clip351)" d="M-1913.02 1147.99 L4485.65 1147.99 L4485.65 1010.4 L-1913.02 1010.4  Z" fill="#ffa500" fill-rule="evenodd" fill-opacity="0.12"/>
<polyline clip-path="url(#clip351)" style="stroke:#000000; stroke-linecap:round; stroke-linejoin:round; stroke-width:4; stroke-opacity:1; fill:none" stroke-dasharray="16, 10" points="-1913.02,1079.2 4485.65,1079.2 "/>
<path clip-path="url(#clip351)" d="M-1913.02 1423.18 L4485.65 1423.18 L4485.65 1147.99 L-1913.02 1147.99  Z" fill="#ff0000" fill-rule="evenodd" fill-opacity="0.1"/>
<polyline clip-path="url(#clip351)" style="stroke:#000000; stroke-linecap:round; stroke-linejoin:round; stroke-width:4; stroke-opacity:1; fill:none" stroke-dasharray="16, 10" points="-1913.02,1079.2 4485.65,1079.2 "/>
<path clip-path="url(#clip351)" d="M-1913.02 1010.4 L4485.65 1010.4 L4485.65 47.2441 L-1913.02 47.2441  Z" fill="#008000" fill-rule="evenodd" fill-opacity="0.12"/>
<polyline clip-path="url(#clip351)" style="stroke:#000000; stroke-linecap:round; stroke-linejoin:round; stroke-width:4; stroke-opacity:1; fill:none" stroke-dasharray="16, 10" points="-1913.02,1079.2 4485.65,1079.2 "/>
<path clip-path="url(#clip350)" d="M290.963 248.629 L1154.92 248.629 L1154.92 93.1086 L290.963 93.1086  Z" fill="#ffffff" fill-rule="evenodd" fill-opacity="1"/>
<polyline clip-path="url(#clip350)" style="stroke:#000000; stroke-linecap:round; stroke-linejoin:round; stroke-width:4; stroke-opacity:1; fill:none" points="290.963,248.629 1154.92,248.629 1154.92,93.1086 290.963,93.1086 290.963,248.629 "/>
<polyline clip-path="url(#clip350)" style="stroke:#009af9; stroke-linecap:round; stroke-linejoin:round; stroke-width:16; stroke-opacity:1; fill:none" points="314.661,144.949 456.854,144.949 "/>
<path clip-path="url(#clip350)" d="M480.553 127.669 L486.849 127.669 L502.173 156.581 L502.173 127.669 L506.71 127.669 L506.71 162.229 L500.414 162.229 L485.09 133.317 L485.09 162.229 L480.553 162.229 L480.553 127.669 Z" fill="#000000" fill-rule="nonzero" fill-opacity="1" /><path clip-path="url(#clip350)" d="M525.877 139.289 Q522.451 139.289 520.46 141.974 Q518.469 144.636 518.469 149.289 Q518.469 153.942 520.437 156.627 Q522.428 159.289 525.877 159.289 Q529.279 159.289 531.27 156.604 Q533.261 153.918 533.261 149.289 Q533.261 144.682 531.27 141.997 Q529.279 139.289 525.877 139.289 M525.877 135.678 Q531.432 135.678 534.603 139.289 Q537.775 142.9 537.775 149.289 Q537.775 155.655 534.603 159.289 Q531.432 162.9 525.877 162.9 Q520.298 162.9 517.127 159.289 Q513.979 155.655 513.979 149.289 Q513.979 142.9 517.127 139.289 Q520.298 135.678 525.877 135.678 Z" fill="#000000" fill-rule="nonzero" fill-opacity="1" /><path clip-path="url(#clip350)" d="M559.858 140.284 Q559.14 139.868 558.284 139.682 Q557.451 139.474 556.432 139.474 Q552.821 139.474 550.876 141.835 Q548.955 144.173 548.955 148.571 L548.955 162.229 L544.673 162.229 L544.673 136.303 L548.955 136.303 L548.955 140.331 Q550.298 137.969 552.451 136.835 Q554.603 135.678 557.682 135.678 Q558.122 135.678 558.654 135.747 Q559.187 135.794 559.835 135.909 L559.858 140.284 Z" fill="#000000" fill-rule="nonzero" fill-opacity="1" /><path clip-path="url(#clip350)" d="M583.677 141.28 Q585.274 138.409 587.497 137.044 Q589.719 135.678 592.728 135.678 Q596.779 135.678 598.978 138.525 Q601.177 141.349 601.177 146.581 L601.177 162.229 L596.895 162.229 L596.895 146.719 Q596.895 142.993 595.575 141.187 Q594.256 139.382 591.548 139.382 Q588.237 139.382 586.316 141.581 Q584.395 143.78 584.395 147.576 L584.395 162.229 L580.112 162.229 L580.112 146.719 Q580.112 142.969 578.793 141.187 Q577.474 139.382 574.719 139.382 Q571.455 139.382 569.534 141.604 Q567.612 143.803 567.612 147.576 L567.612 162.229 L563.33 162.229 L563.33 136.303 L567.612 136.303 L567.612 140.331 Q569.071 137.946 571.108 136.812 Q573.145 135.678 575.946 135.678 Q578.77 135.678 580.737 137.113 Q582.728 138.548 583.677 141.28 Z" fill="#000000" fill-rule="nonzero" fill-opacity="1" /><path clip-path="url(#clip350)" d="M621.455 149.196 Q616.293 149.196 614.302 150.377 Q612.311 151.557 612.311 154.405 Q612.311 156.673 613.793 158.016 Q615.297 159.335 617.867 159.335 Q621.409 159.335 623.538 156.835 Q625.691 154.312 625.691 150.145 L625.691 149.196 L621.455 149.196 M629.95 147.437 L629.95 162.229 L625.691 162.229 L625.691 158.293 Q624.233 160.655 622.057 161.789 Q619.881 162.9 616.733 162.9 Q612.751 162.9 610.39 160.678 Q608.052 158.432 608.052 154.682 Q608.052 150.307 610.969 148.085 Q613.909 145.863 619.719 145.863 L625.691 145.863 L625.691 145.446 Q625.691 142.507 623.746 140.909 Q621.825 139.289 618.33 139.289 Q616.108 139.289 614.001 139.821 Q611.895 140.354 609.95 141.419 L609.95 137.483 Q612.288 136.581 614.487 136.141 Q616.686 135.678 618.77 135.678 Q624.395 135.678 627.172 138.594 Q629.95 141.511 629.95 147.437 Z" fill="#000000" fill-rule="nonzero" fill-opacity="1" /><path clip-path="url(#clip350)" d="M638.723 126.21 L642.982 126.21 L642.982 162.229 L638.723 162.229 L638.723 126.21 Z" fill="#000000" fill-rule="nonzero" fill-opacity="1" /><path clip-path="url(#clip350)" d="M651.894 136.303 L656.154 136.303 L656.154 162.229 L651.894 162.229 L651.894 136.303 M651.894 126.21 L656.154 126.21 L656.154 131.604 L651.894 131.604 L651.894 126.21 Z" fill="#000000" fill-rule="nonzero" fill-opacity="1" /><path clip-path="url(#clip350)" d="M663.214 136.303 L683.445 136.303 L683.445 140.192 L667.427 158.826 L683.445 158.826 L683.445 162.229 L662.635 162.229 L662.635 158.34 L678.654 139.706 L663.214 139.706 L663.214 136.303 Z" fill="#000000" fill-rule="nonzero" fill-opacity="1" /><path clip-path="url(#clip350)" d="M712.126 148.201 L712.126 150.284 L692.542 150.284 Q692.82 154.682 695.181 156.997 Q697.566 159.289 701.802 159.289 Q704.255 159.289 706.547 158.687 Q708.862 158.085 711.13 156.881 L711.13 160.909 Q708.839 161.881 706.431 162.391 Q704.024 162.9 701.547 162.9 Q695.343 162.9 691.709 159.289 Q688.098 155.678 688.098 149.52 Q688.098 143.155 691.524 139.428 Q694.973 135.678 700.806 135.678 Q706.038 135.678 709.07 139.057 Q712.126 142.414 712.126 148.201 M707.866 146.951 Q707.82 143.456 705.899 141.372 Q704.001 139.289 700.853 139.289 Q697.288 139.289 695.135 141.303 Q693.005 143.317 692.681 146.974 L707.866 146.951 Z" fill="#000000" fill-rule="nonzero" fill-opacity="1" /><path clip-path="url(#clip350)" d="M736.176 140.238 L736.176 126.21 L740.436 126.21 L740.436 162.229 L736.176 162.229 L736.176 158.34 Q734.834 160.655 732.774 161.789 Q730.737 162.9 727.866 162.9 Q723.167 162.9 720.204 159.15 Q717.264 155.4 717.264 149.289 Q717.264 143.178 720.204 139.428 Q723.167 135.678 727.866 135.678 Q730.737 135.678 732.774 136.812 Q734.834 137.923 736.176 140.238 M721.663 149.289 Q721.663 153.988 723.584 156.673 Q725.528 159.335 728.908 159.335 Q732.288 159.335 734.232 156.673 Q736.176 153.988 736.176 149.289 Q736.176 144.59 734.232 141.928 Q732.288 139.243 728.908 139.243 Q725.528 139.243 723.584 141.928 Q721.663 144.59 721.663 149.289 Z" fill="#000000" fill-rule="nonzero" fill-opacity="1" /><path clip-path="url(#clip350)" d="M782.935 137.298 L782.935 141.28 Q781.13 140.284 779.301 139.798 Q777.496 139.289 775.644 139.289 Q771.5 139.289 769.209 141.928 Q766.917 144.544 766.917 149.289 Q766.917 154.034 769.209 156.673 Q771.5 159.289 775.644 159.289 Q777.496 159.289 779.301 158.803 Q781.13 158.293 782.935 157.298 L782.935 161.233 Q781.153 162.067 779.232 162.483 Q777.334 162.9 775.181 162.9 Q769.324 162.9 765.875 159.219 Q762.426 155.539 762.426 149.289 Q762.426 142.946 765.898 139.312 Q769.394 135.678 775.459 135.678 Q777.426 135.678 779.301 136.095 Q781.176 136.488 782.935 137.298 Z" fill="#000000" fill-rule="nonzero" fill-opacity="1" /><path clip-path="url(#clip350)" d="M800.389 139.289 Q796.963 139.289 794.972 141.974 Q792.982 144.636 792.982 149.289 Q792.982 153.942 794.949 156.627 Q796.94 159.289 800.389 159.289 Q803.792 159.289 805.783 156.604 Q807.773 153.918 807.773 149.289 Q807.773 144.682 805.783 141.997 Q803.792 139.289 800.389 139.289 M800.389 135.678 Q805.945 135.678 809.116 139.289 Q812.287 142.9 812.287 149.289 Q812.287 155.655 809.116 159.289 Q805.945 162.9 800.389 162.9 Q794.81 162.9 791.639 159.289 Q788.491 155.655 788.491 149.289 Q788.491 142.9 791.639 139.289 Q794.81 135.678 800.389 135.678 Z" fill="#000000" fill-rule="nonzero" fill-opacity="1" /><path clip-path="url(#clip350)" d="M823.468 158.34 L823.468 172.09 L819.185 172.09 L819.185 136.303 L823.468 136.303 L823.468 140.238 Q824.81 137.923 826.847 136.812 Q828.907 135.678 831.755 135.678 Q836.477 135.678 839.417 139.428 Q842.38 143.178 842.38 149.289 Q842.38 155.4 839.417 159.15 Q836.477 162.9 831.755 162.9 Q828.907 162.9 826.847 161.789 Q824.81 160.655 823.468 158.34 M837.958 149.289 Q837.958 144.59 836.014 141.928 Q834.093 139.243 830.713 139.243 Q827.333 139.243 825.389 141.928 Q823.468 144.59 823.468 149.289 Q823.468 153.988 825.389 156.673 Q827.333 159.335 830.713 159.335 Q834.093 159.335 836.014 156.673 Q837.958 153.988 837.958 149.289 Z" fill="#000000" fill-rule="nonzero" fill-opacity="1" /><path clip-path="url(#clip350)" d="M864.463 140.284 Q863.745 139.868 862.889 139.682 Q862.055 139.474 861.037 139.474 Q857.426 139.474 855.481 141.835 Q853.56 144.173 853.56 148.571 L853.56 162.229 L849.278 162.229 L849.278 136.303 L853.56 136.303 L853.56 140.331 Q854.903 137.969 857.055 136.835 Q859.208 135.678 862.287 135.678 Q862.727 135.678 863.259 135.747 Q863.791 135.794 864.44 135.909 L864.463 140.284 Z" fill="#000000" fill-rule="nonzero" fill-opacity="1" /><path clip-path="url(#clip350)" d="M868.93 136.303 L873.19 136.303 L873.19 162.229 L868.93 162.229 L868.93 136.303 M868.93 126.21 L873.19 126.21 L873.19 131.604 L868.93 131.604 L868.93 126.21 Z" fill="#000000" fill-rule="nonzero" fill-opacity="1" /><path clip-path="url(#clip350)" d="M902.287 141.28 Q903.884 138.409 906.106 137.044 Q908.328 135.678 911.338 135.678 Q915.388 135.678 917.587 138.525 Q919.787 141.349 919.787 146.581 L919.787 162.229 L915.504 162.229 L915.504 146.719 Q915.504 142.993 914.185 141.187 Q912.865 139.382 910.157 139.382 Q906.847 139.382 904.926 141.581 Q903.004 143.78 903.004 147.576 L903.004 162.229 L898.722 162.229 L898.722 146.719 Q898.722 142.969 897.402 141.187 Q896.083 139.382 893.328 139.382 Q890.064 139.382 888.143 141.604 Q886.222 143.803 886.222 147.576 L886.222 162.229 L881.94 162.229 L881.94 136.303 L886.222 136.303 L886.222 140.331 Q887.68 137.946 889.717 136.812 Q891.754 135.678 894.555 135.678 Q897.379 135.678 899.347 137.113 Q901.338 138.548 902.287 141.28 Z" fill="#000000" fill-rule="nonzero" fill-opacity="1" /><path clip-path="url(#clip350)" d="M950.458 148.201 L950.458 150.284 L930.874 150.284 Q931.152 154.682 933.513 156.997 Q935.898 159.289 940.134 159.289 Q942.587 159.289 944.879 158.687 Q947.194 158.085 949.462 156.881 L949.462 160.909 Q947.171 161.881 944.763 162.391 Q942.356 162.9 939.879 162.9 Q933.675 162.9 930.041 159.289 Q926.43 155.678 926.43 149.52 Q926.43 143.155 929.856 139.428 Q933.305 135.678 939.138 135.678 Q944.37 135.678 947.402 139.057 Q950.458 142.414 950.458 148.201 M946.198 146.951 Q946.152 143.456 944.231 141.372 Q942.333 139.289 939.185 139.289 Q935.62 139.289 933.467 141.303 Q931.337 143.317 931.013 146.974 L946.198 146.951 Z" fill="#000000" fill-rule="nonzero" fill-opacity="1" /><path clip-path="url(#clip350)" d="M992.703 141.28 Q994.3 138.409 996.522 137.044 Q998.744 135.678 1001.75 135.678 Q1005.8 135.678 1008 138.525 Q1010.2 141.349 1010.2 146.581 L1010.2 162.229 L1005.92 162.229 L1005.92 146.719 Q1005.92 142.993 1004.6 141.187 Q1003.28 139.382 1000.57 139.382 Q997.263 139.382 995.342 141.581 Q993.42 143.78 993.42 147.576 L993.42 162.229 L989.138 162.229 L989.138 146.719 Q989.138 142.969 987.819 141.187 Q986.499 139.382 983.745 139.382 Q980.481 139.382 978.559 141.604 Q976.638 143.803 976.638 147.576 L976.638 162.229 L972.356 162.229 L972.356 136.303 L976.638 136.303 L976.638 140.331 Q978.096 137.946 980.133 136.812 Q982.17 135.678 984.971 135.678 Q987.795 135.678 989.763 137.113 Q991.754 138.548 992.703 141.28 Z" fill="#000000" fill-rule="nonzero" fill-opacity="1" /><path clip-path="url(#clip350)" d="M1030.48 149.196 Q1025.32 149.196 1023.33 150.377 Q1021.34 151.557 1021.34 154.405 Q1021.34 156.673 1022.82 158.016 Q1024.32 159.335 1026.89 159.335 Q1030.43 159.335 1032.56 156.835 Q1034.72 154.312 1034.72 150.145 L1034.72 149.196 L1030.48 149.196 M1038.98 147.437 L1038.98 162.229 L1034.72 162.229 L1034.72 158.293 Q1033.26 160.655 1031.08 161.789 Q1028.91 162.9 1025.76 162.9 Q1021.78 162.9 1019.42 160.678 Q1017.08 158.432 1017.08 154.682 Q1017.08 150.307 1019.99 148.085 Q1022.93 145.863 1028.74 145.863 L1034.72 145.863 L1034.72 145.446 Q1034.72 142.507 1032.77 140.909 Q1030.85 139.289 1027.36 139.289 Q1025.13 139.289 1023.03 139.821 Q1020.92 140.354 1018.98 141.419 L1018.98 137.483 Q1021.31 136.581 1023.51 136.141 Q1025.71 135.678 1027.8 135.678 Q1033.42 135.678 1036.2 138.594 Q1038.98 141.511 1038.98 147.437 Z" fill="#000000" fill-rule="nonzero" fill-opacity="1" /><path clip-path="url(#clip350)" d="M1062.77 140.284 Q1062.05 139.868 1061.2 139.682 Q1060.36 139.474 1059.35 139.474 Q1055.73 139.474 1053.79 141.835 Q1051.87 144.173 1051.87 148.571 L1051.87 162.229 L1047.59 162.229 L1047.59 136.303 L1051.87 136.303 L1051.87 140.331 Q1053.21 137.969 1055.36 136.835 Q1057.52 135.678 1060.6 135.678 Q1061.04 135.678 1061.57 135.747 Q1062.1 135.794 1062.75 135.909 L1062.77 140.284 Z" fill="#000000" fill-rule="nonzero" fill-opacity="1" /><path clip-path="url(#clip350)" d="M1083.47 148.965 Q1083.47 144.335 1081.54 141.789 Q1079.65 139.243 1076.2 139.243 Q1072.77 139.243 1070.85 141.789 Q1068.95 144.335 1068.95 148.965 Q1068.95 153.571 1070.85 156.118 Q1072.77 158.664 1076.2 158.664 Q1079.65 158.664 1081.54 156.118 Q1083.47 153.571 1083.47 148.965 M1087.73 159.011 Q1087.73 165.631 1084.79 168.849 Q1081.85 172.09 1075.78 172.09 Q1073.54 172.09 1071.54 171.742 Q1069.55 171.418 1067.68 170.724 L1067.68 166.58 Q1069.55 167.599 1071.38 168.085 Q1073.21 168.571 1075.11 168.571 Q1079.3 168.571 1081.38 166.372 Q1083.47 164.196 1083.47 159.775 L1083.47 157.668 Q1082.15 159.96 1080.09 161.094 Q1078.03 162.229 1075.16 162.229 Q1070.39 162.229 1067.47 158.594 Q1064.55 154.96 1064.55 148.965 Q1064.55 142.946 1067.47 139.312 Q1070.39 135.678 1075.16 135.678 Q1078.03 135.678 1080.09 136.812 Q1082.15 137.946 1083.47 140.238 L1083.47 136.303 L1087.73 136.303 L1087.73 159.011 Z" fill="#000000" fill-rule="nonzero" fill-opacity="1" /><path clip-path="url(#clip350)" d="M1096.5 136.303 L1100.76 136.303 L1100.76 162.229 L1096.5 162.229 L1096.5 136.303 M1096.5 126.21 L1100.76 126.21 L1100.76 131.604 L1096.5 131.604 L1096.5 126.21 Z" fill="#000000" fill-rule="nonzero" fill-opacity="1" /><path clip-path="url(#clip350)" d="M1131.22 146.581 L1131.22 162.229 L1126.96 162.229 L1126.96 146.719 Q1126.96 143.039 1125.53 141.21 Q1124.09 139.382 1121.22 139.382 Q1117.77 139.382 1115.78 141.581 Q1113.79 143.78 1113.79 147.576 L1113.79 162.229 L1109.51 162.229 L1109.51 136.303 L1113.79 136.303 L1113.79 140.331 Q1115.32 137.993 1117.38 136.835 Q1119.46 135.678 1122.17 135.678 Q1126.64 135.678 1128.93 138.456 Q1131.22 141.21 1131.22 146.581 Z" fill="#000000" fill-rule="nonzero" fill-opacity="1" /><path clip-path="url(#clip350)" d="M314.661 217.525 L456.854 217.525 L456.854 176.053 L314.661 176.053 L314.661 217.525  Z" fill="#ffa500" fill-rule="evenodd" fill-opacity="0.12"/>
<polyline clip-path="url(#clip350)" style="stroke:#000000; stroke-linecap:round; stroke-linejoin:round; stroke-width:4; stroke-opacity:1; fill:none" stroke-dasharray="16, 10" points="314.661,176.053 456.854,176.053 "/>
<path clip-path="url(#clip350)" d="M500.715 192.263 Q499.858 191.962 499.002 191.731 Q496.71 191.129 494.256 191.129 Q490.02 191.129 487.659 193.421 Q485.46 195.55 485.043 199.462 L500.715 199.462 L500.715 202.796 L485.043 202.796 Q485.46 206.708 487.659 208.837 Q490.02 211.129 494.256 211.129 Q497.219 211.129 499.002 210.527 L500.715 209.948 L500.715 213.814 L498.886 214.231 Q496.479 214.74 494.002 214.74 Q487.798 214.74 484.187 211.129 Q480.553 207.518 480.553 201.129 Q480.553 194.74 484.187 191.129 Q487.798 187.518 494.002 187.518 Q496.34 187.518 498.886 188.027 Q499.812 188.212 500.715 188.49 L500.715 192.263 Z" fill="#000000" fill-rule="nonzero" fill-opacity="1" /><path clip-path="url(#clip350)" d="M527.196 192.541 L556.872 192.541 L556.872 196.43 L527.196 196.43 L527.196 192.541 M527.196 201.985 L556.872 201.985 L556.872 205.921 L527.196 205.921 L527.196 201.985 Z" fill="#000000" fill-rule="nonzero" fill-opacity="1" /><path clip-path="url(#clip350)" d="M592.034 182.587 Q588.423 182.587 586.594 186.152 Q584.788 189.694 584.788 196.823 Q584.788 203.93 586.594 207.495 Q588.423 211.036 592.034 211.036 Q595.668 211.036 597.473 207.495 Q599.302 203.93 599.302 196.823 Q599.302 189.694 597.473 186.152 Q595.668 182.587 592.034 182.587 M592.034 178.884 Q597.844 178.884 600.899 183.49 Q603.978 188.073 603.978 196.823 Q603.978 205.55 600.899 210.157 Q597.844 214.74 592.034 214.74 Q586.224 214.74 583.145 210.157 Q580.089 205.55 580.089 196.823 Q580.089 188.073 583.145 183.49 Q586.224 178.884 592.034 178.884 Z" fill="#000000" fill-rule="nonzero" fill-opacity="1" /><path clip-path="url(#clip350)" d="M612.196 208.189 L617.08 208.189 L617.08 214.069 L612.196 214.069 L612.196 208.189 Z" fill="#000000" fill-rule="nonzero" fill-opacity="1" /><path clip-path="url(#clip350)" d="M631.293 210.133 L647.612 210.133 L647.612 214.069 L625.668 214.069 L625.668 210.133 Q628.33 207.379 632.913 202.749 Q637.52 198.096 638.7 196.754 Q640.945 194.231 641.825 192.495 Q642.728 190.735 642.728 189.046 Q642.728 186.291 640.783 184.555 Q638.862 182.819 635.76 182.819 Q633.561 182.819 631.108 183.583 Q628.677 184.347 625.899 185.897 L625.899 181.175 Q628.723 180.041 631.177 179.462 Q633.631 178.884 635.668 178.884 Q641.038 178.884 644.232 181.569 Q647.427 184.254 647.427 188.745 Q647.427 190.874 646.617 192.796 Q645.83 194.694 643.723 197.286 Q643.144 197.958 640.043 201.175 Q636.941 204.37 631.293 210.133 Z" fill="#000000" fill-rule="nonzero" fill-opacity="1" /><path clip-path="url(#clip350)" d="M657.473 179.509 L675.83 179.509 L675.83 183.444 L661.756 183.444 L661.756 191.916 Q662.774 191.569 663.793 191.407 Q664.811 191.222 665.83 191.222 Q671.617 191.222 674.996 194.393 Q678.376 197.564 678.376 202.981 Q678.376 208.559 674.904 211.661 Q671.431 214.74 665.112 214.74 Q662.936 214.74 660.668 214.37 Q658.422 213.999 656.015 213.258 L656.015 208.559 Q658.098 209.694 660.32 210.249 Q662.543 210.805 665.019 210.805 Q669.024 210.805 671.362 208.698 Q673.7 206.592 673.7 202.981 Q673.7 199.37 671.362 197.263 Q669.024 195.157 665.019 195.157 Q663.144 195.157 661.269 195.573 Q659.418 195.99 657.473 196.87 L657.473 179.509 Z" fill="#000000" fill-rule="nonzero" fill-opacity="1" /></svg>
