<?xml version="1.0" encoding="utf-8"?>
<svg xmlns="http://www.w3.org/2000/svg" xmlns:xlink="http://www.w3.org/1999/xlink" width="600" height="400" viewBox="0 0 2400 1600">
<defs>
  <clipPath id="clip830">
    <rect x="0" y="0" width="2400" height="1600"/>
  </clipPath>
</defs>
<path clip-path="url(#clip830)" d="M0 1600 L2400 1600 L2400 0 L0 0  Z" fill="#ffffff" fill-rule="evenodd" fill-opacity="1"/>
<defs>
  <clipPath id="clip831">
    <rect x="480" y="0" width="1681" height="1600"/>
  </clipPath>
</defs>
<path clip-path="url(#clip830)" d="M232.389 1423.18 L2352.76 1423.18 L2352.76 47.2441 L232.389 47.2441  Z" fill="#ffffff" fill-rule="evenodd" fill-opacity="1"/>
<defs>
  <clipPath id="clip832">
    <rect x="232" y="47" width="2121" height="1377"/>
  </clipPath>
</defs>
<polyline clip-path="url(#clip832)" style="stroke:#000000; stroke-linecap:round; stroke-linejoin:round; stroke-width:2; stroke-opacity:0.1; fill:none" points="292.4,1423.18 292.4,47.2441 "/>
<polyline clip-path="url(#clip832)" style="stroke:#000000; stroke-linecap:round; stroke-linejoin:round; stroke-width:2; stroke-opacity:0.1; fill:none" points="625.791,1423.18 625.791,47.2441 "/>
<polyline clip-path="url(#clip832)" style="stroke:#000000; stroke-linecap:round; stroke-linejoin:round; stroke-width:2; stroke-opacity:0.1; fill:none" points="959.182,1423.18 959.182,47.2441 "/>
<polyline clip-path="url(#clip832)" style="stroke:#000000; stroke-linecap:round; stroke-linejoin:round; stroke-width:2; stroke-opacity:0.1; fill:none" points="1292.57,1423.18 1292.57,47.2441 "/>
<polyline clip-path="url(#clip832)" style="stroke:#000000; stroke-linecap:round; stroke-linejoin:round; stroke-width:2; stroke-opacity:0.1; fill:none" points="1625.96,1423.18 1625.96,47.2441 "/>
<polyline clip-path="url(#clip832)" style="stroke:#000000; stroke-linecap:round; stroke-linejoin:round; stroke-width:2; stroke-opacity:0.1; fill:none" points="1959.35,1423.18 1959.35,47.2441 "/>
<polyline clip-path="url(#clip832)" style="stroke:#000000; stroke-linecap:round; stroke-linejoin:round; stroke-width:2; stroke-opacity:0.1; fill:none" points="2292.75,1423.18 2292.75,47.2441 "/>
<polyline clip-path="url(#clip832)" style="stroke:#000000; stroke-linecap:round; stroke-linejoin:round; stroke-width:2; stroke-opacity:0.1; fill:none" points="232.389,1384.24 2352.76,1384.24 "/>
<polyline clip-path="url(#clip832)" style="stroke:#000000; stroke-linecap:round; stroke-linejoin:round; stroke-width:2; stroke-opacity:0.1; fill:none" points="232.389,1076.49 2352.76,1076.49 "/>
<polyline clip-path="url(#clip832)" style="stroke:#000000; stroke-linecap:round; stroke-linejoin:round; stroke-width:2; stroke-opacity:0.1; fill:none" points="232.389,768.74 2352.76,768.74 "/>
<polyline clip-path="url(#clip832)" style="stroke:#000000; stroke-linecap:round; stroke-linejoin:round; stroke-width:2; stroke-opacity:0.1; fill:none" points="232.389,460.991 2352.76,460.991 "/>
<polyline clip-path="url(#clip832)" style="stroke:#000000; stroke-linecap:round; stroke-linejoin:round; stroke-width:2; stroke-opacity:0.1; fill:none" points="232.389,153.242 2352.76,153.242 "/>
<polyline clip-path="url(#clip830)" style="stroke:#000000; stroke-linecap:round; stroke-linejoin:round; stroke-width:4; stroke-opacity:1; fill:none" points="232.389,1423.18 2352.76,1423.18 "/>
<polyline clip-path="url(#clip830)" style="stroke:#000000; stroke-linecap:round; stroke-linejoin:round; stroke-width:4; stroke-opacity:1; fill:none" points="292.4,1423.18 292.4,1404.28 "/>
<polyline clip-path="url(#clip830)" style="stroke:#000000; stroke-linecap:round; stroke-linejoin:round; stroke-width:4; stroke-opacity:1; fill:none" points="625.791,1423.18 625.791,1404.28 "/>
<polyline clip-path="url(#clip830)" style="stroke:#000000; stroke-linecap:round; stroke-linejoin:round; stroke-width:4; stroke-opacity:1; fill:none" points="959.182,1423.18 959.182,1404.28 "/>
<polyline clip-path="url(#clip830)" style="stroke:#000000; stroke-linecap:round; stroke-linejoin:round; stroke-width:4; stroke-opacity:1; fill:none" points="1292.57,1423.18 1292.57,1404.28 "/>
<polyline clip-path="url(#clip830)" style="stroke:#000000; stroke-linecap:round; stroke-linejoin:round; stroke-width:4; stroke-opacity:1; fill:none" points="1625.96,1423.18 1625.96,1404.28 "/>
<polyline clip-path="url(#clip830)" style="stroke:#000000; stroke-linecap:round; stroke-linejoin:round; stroke-width:4; stroke-opacity:1; fill:none" points="1959.35,1423.18 1959.35,1404.28 "/>
<polyline clip-path="url(#clip830)" style="stroke:#000000; stroke-linecap:round; stroke-linejoin:round; stroke-width:4; stroke-opacity:1; fill:none" points="2292.75,1423.18 2292.75,1404.28 "/>
<path clip-path="url(#clip830)" d="M292.4 1454.1 Q288.789 1454.1 286.96 1457.66 Q285.154 1461.2 285.154 1468.33 Q285.154 1475.44 286.96 1479.01 Q288.789 1482.55 292.4 1482.55 Q296.034 1482.55 297.84 1479.01 Q299.668 1475.44 299.668 1468.33 Q299.668 1461.2 297.84 1457.66 Q296.034 1454.1 292.4 1454.1 M292.4 1450.39 Q298.21 1450.39 301.265 1455 Q304.344 1459.58 304.344 1468.33 Q304.344 1477.06 301.265 1481.67 Q298.21 1486.25 292.4 1486.25 Q286.59 1486.25 283.511 1481.67 Q280.455 1477.06 280.455 1468.33 Q280.455 1459.58 283.511 1455 Q286.59 1450.39 292.4 1450.39 Z" fill="#000000" fill-rule="nonzero" fill-opacity="1" /><path clip-path="url(#clip830)" d="M616.173 1481.64 L623.812 1481.64 L623.812 1455.28 L615.501 1456.95 L615.501 1452.69 L623.765 1451.02 L628.441 1451.02 L628.441 1481.64 L636.08 1481.64 L636.08 1485.58 L616.173 1485.58 L616.173 1481.64 Z" fill="#000000" fill-rule="nonzero" fill-opacity="1" /><path clip-path="url(#clip830)" d="M953.834 1481.64 L970.154 1481.64 L970.154 1485.58 L948.209 1485.58 L948.209 1481.64 Q950.872 1478.89 955.455 1474.26 Q960.061 1469.61 961.242 1468.27 Q963.487 1465.74 964.367 1464.01 Q965.27 1462.25 965.27 1460.56 Q965.27 1457.8 963.325 1456.07 Q961.404 1454.33 958.302 1454.33 Q956.103 1454.33 953.649 1455.09 Q951.219 1455.86 948.441 1457.41 L948.441 1452.69 Q951.265 1451.55 953.719 1450.97 Q956.172 1450.39 958.209 1450.39 Q963.58 1450.39 966.774 1453.08 Q969.969 1455.77 969.969 1460.26 Q969.969 1462.39 969.158 1464.31 Q968.371 1466.2 966.265 1468.8 Q965.686 1469.47 962.584 1472.69 Q959.483 1475.88 953.834 1481.64 Z" fill="#000000" fill-rule="nonzero" fill-opacity="1" /><path clip-path="url(#clip830)" d="M1296.82 1466.95 Q1300.18 1467.66 1302.05 1469.93 Q1303.95 1472.2 1303.95 1475.53 Q1303.95 1480.65 1300.43 1483.45 Q1296.91 1486.25 1290.43 1486.25 Q1288.26 1486.25 1285.94 1485.81 Q1283.65 1485.39 1281.2 1484.54 L1281.2 1480.02 Q1283.14 1481.16 1285.45 1481.74 Q1287.77 1482.32 1290.29 1482.32 Q1294.69 1482.32 1296.98 1480.58 Q1299.3 1478.84 1299.3 1475.53 Q1299.3 1472.48 1297.14 1470.77 Q1295.01 1469.03 1291.2 1469.03 L1287.17 1469.03 L1287.17 1465.19 L1291.38 1465.19 Q1294.83 1465.19 1296.66 1463.82 Q1298.49 1462.43 1298.49 1459.84 Q1298.49 1457.18 1296.59 1455.77 Q1294.71 1454.33 1291.2 1454.33 Q1289.27 1454.33 1287.07 1454.75 Q1284.88 1455.16 1282.24 1456.04 L1282.24 1451.88 Q1284.9 1451.14 1287.21 1450.77 Q1289.55 1450.39 1291.61 1450.39 Q1296.94 1450.39 1300.04 1452.83 Q1303.14 1455.23 1303.14 1459.35 Q1303.14 1462.22 1301.5 1464.21 Q1299.85 1466.18 1296.82 1466.95 Z" fill="#000000" fill-rule="nonzero" fill-opacity="1" /><path clip-path="url(#clip830)" d="M1628.97 1455.09 L1617.17 1473.54 L1628.97 1473.54 L1628.97 1455.09 M1627.75 1451.02 L1633.63 1451.02 L1633.63 1473.54 L1638.56 1473.54 L1638.56 1477.43 L1633.63 1477.43 L1633.63 1485.58 L1628.97 1485.58 L1628.97 1477.43 L1613.37 1477.43 L1613.37 1472.92 L1627.75 1451.02 Z" fill="#000000" fill-rule="nonzero" fill-opacity="1" /><path clip-path="url(#clip830)" d="M1949.63 1451.02 L1967.99 1451.02 L1967.99 1454.96 L1953.91 1454.96 L1953.91 1463.43 Q1954.93 1463.08 1955.95 1462.92 Q1956.97 1462.73 1957.99 1462.73 Q1963.78 1462.73 1967.16 1465.9 Q1970.54 1469.08 1970.54 1474.49 Q1970.54 1480.07 1967.06 1483.17 Q1963.59 1486.25 1957.27 1486.25 Q1955.1 1486.25 1952.83 1485.88 Q1950.58 1485.51 1948.17 1484.77 L1948.17 1480.07 Q1950.26 1481.2 1952.48 1481.76 Q1954.7 1482.32 1957.18 1482.32 Q1961.18 1482.32 1963.52 1480.21 Q1965.86 1478.1 1965.86 1474.49 Q1965.86 1470.88 1963.52 1468.77 Q1961.18 1466.67 1957.18 1466.67 Q1955.3 1466.67 1953.43 1467.08 Q1951.58 1467.5 1949.63 1468.38 L1949.63 1451.02 Z" fill="#000000" fill-rule="nonzero" fill-opacity="1" /><path clip-path="url(#clip830)" d="M2293.15 1466.44 Q2290 1466.44 2288.15 1468.59 Q2286.32 1470.74 2286.32 1474.49 Q2286.32 1478.22 2288.15 1480.39 Q2290 1482.55 2293.15 1482.55 Q2296.3 1482.55 2298.13 1480.39 Q2299.98 1478.22 2299.98 1474.49 Q2299.98 1470.74 2298.13 1468.59 Q2296.3 1466.44 2293.15 1466.44 M2302.43 1451.78 L2302.43 1456.04 Q2300.67 1455.21 2298.87 1454.77 Q2297.09 1454.33 2295.33 1454.33 Q2290.7 1454.33 2288.24 1457.45 Q2285.81 1460.58 2285.47 1466.9 Q2286.83 1464.89 2288.89 1463.82 Q2290.95 1462.73 2293.43 1462.73 Q2298.64 1462.73 2301.65 1465.9 Q2304.68 1469.05 2304.68 1474.49 Q2304.68 1479.82 2301.53 1483.03 Q2298.38 1486.25 2293.15 1486.25 Q2287.16 1486.25 2283.98 1481.67 Q2280.81 1477.06 2280.81 1468.33 Q2280.81 1460.14 2284.7 1455.28 Q2288.59 1450.39 2295.14 1450.39 Q2296.9 1450.39 2298.68 1450.74 Q2300.49 1451.09 2302.43 1451.78 Z" fill="#000000" fill-rule="nonzero" fill-opacity="1" /><path clip-path="url(#clip830)" d="M1162.74 1520.52 L1202.94 1520.52 L1202.94 1525.93 L1186.07 1525.93 L1186.07 1568.04 L1179.61 1568.04 L1179.61 1525.93 L1162.74 1525.93 L1162.74 1520.52 Z" fill="#000000" fill-rule="nonzero" fill-opacity="1" /><path clip-path="url(#clip830)" d="M1206.89 1532.4 L1212.75 1532.4 L1212.75 1568.04 L1206.89 1568.04 L1206.89 1532.4 M1206.89 1518.52 L1212.75 1518.52 L1212.75 1525.93 L1206.89 1525.93 L1206.89 1518.52 Z" fill="#000000" fill-rule="nonzero" fill-opacity="1" /><path clip-path="url(#clip830)" d="M1252.76 1539.24 Q1254.95 1535.29 1258.01 1533.41 Q1261.06 1531.54 1265.2 1531.54 Q1270.77 1531.54 1273.79 1535.45 Q1276.82 1539.33 1276.82 1546.53 L1276.82 1568.04 L1270.93 1568.04 L1270.93 1546.72 Q1270.93 1541.59 1269.11 1539.11 Q1267.3 1536.63 1263.58 1536.63 Q1259.03 1536.63 1256.38 1539.65 Q1253.74 1542.68 1253.74 1547.9 L1253.74 1568.04 L1247.85 1568.04 L1247.85 1546.72 Q1247.85 1541.56 1246.04 1539.11 Q1244.23 1536.63 1240.44 1536.63 Q1235.95 1536.63 1233.31 1539.68 Q1230.67 1542.71 1230.67 1547.9 L1230.67 1568.04 L1224.78 1568.04 L1224.78 1532.4 L1230.67 1532.4 L1230.67 1537.93 Q1232.67 1534.66 1235.47 1533.1 Q1238.27 1531.54 1242.12 1531.54 Q1246.01 1531.54 1248.71 1533.51 Q1251.45 1535.48 1252.76 1539.24 Z" fill="#000000" fill-rule="nonzero" fill-opacity="1" /><path clip-path="url(#clip830)" d="M1318.99 1548.76 L1318.99 1551.62 L1292.06 1551.62 Q1292.45 1557.67 1295.69 1560.85 Q1298.97 1564 1304.79 1564 Q1308.17 1564 1311.32 1563.17 Q1314.5 1562.35 1317.62 1560.69 L1317.62 1566.23 Q1314.47 1567.57 1311.16 1568.27 Q1307.85 1568.97 1304.44 1568.97 Q1295.91 1568.97 1290.92 1564 Q1285.95 1559.04 1285.95 1550.57 Q1285.95 1541.82 1290.66 1536.69 Q1295.41 1531.54 1303.43 1531.54 Q1310.62 1531.54 1314.79 1536.18 Q1318.99 1540.8 1318.99 1548.76 M1313.13 1547.04 Q1313.07 1542.23 1310.43 1539.37 Q1307.82 1536.5 1303.49 1536.5 Q1298.59 1536.5 1295.63 1539.27 Q1292.7 1542.04 1292.25 1547.07 L1313.13 1547.04 Z" fill="#000000" fill-rule="nonzero" fill-opacity="1" /><path clip-path="url(#clip830)" d="M1363.39 1518.58 Q1359.13 1525.9 1357.06 1533.06 Q1354.99 1540.23 1354.99 1547.58 Q1354.99 1554.93 1357.06 1562.16 Q1359.16 1569.35 1363.39 1576.64 L1358.3 1576.64 Q1353.52 1569.16 1351.14 1561.93 Q1348.78 1554.71 1348.78 1547.58 Q1348.78 1540.48 1351.14 1533.29 Q1353.49 1526.09 1358.3 1518.58 L1363.39 1518.58 Z" fill="#000000" fill-rule="nonzero" fill-opacity="1" /><path clip-path="url(#clip830)" d="M1397.48 1533.45 L1397.48 1538.98 Q1395 1537.71 1392.32 1537.07 Q1389.65 1536.44 1386.79 1536.44 Q1382.42 1536.44 1380.23 1537.77 Q1378.06 1539.11 1378.06 1541.79 Q1378.06 1543.82 1379.62 1545 Q1381.18 1546.15 1385.89 1547.2 L1387.9 1547.64 Q1394.14 1548.98 1396.75 1551.43 Q1399.39 1553.85 1399.39 1558.21 Q1399.39 1563.17 1395.44 1566.07 Q1391.53 1568.97 1384.65 1568.97 Q1381.79 1568.97 1378.67 1568.39 Q1375.58 1567.85 1372.14 1566.74 L1372.14 1560.69 Q1375.39 1562.38 1378.54 1563.24 Q1381.69 1564.07 1384.78 1564.07 Q1388.92 1564.07 1391.15 1562.66 Q1393.37 1561.23 1393.37 1558.65 Q1393.37 1556.27 1391.75 1554.99 Q1390.16 1553.72 1384.72 1552.54 L1382.68 1552.07 Q1377.24 1550.92 1374.82 1548.56 Q1372.4 1546.18 1372.4 1542.04 Q1372.4 1537.01 1375.96 1534.27 Q1379.53 1531.54 1386.08 1531.54 Q1389.33 1531.54 1392.2 1532.01 Q1395.06 1532.49 1397.48 1533.45 Z" fill="#000000" fill-rule="nonzero" fill-opacity="1" /><path clip-path="url(#clip830)" d="M1407.79 1518.58 L1412.88 1518.58 Q1417.66 1526.09 1420.01 1533.29 Q1422.4 1540.48 1422.4 1547.58 Q1422.4 1554.71 1420.01 1561.93 Q1417.66 1569.16 1412.88 1576.64 L1407.79 1576.64 Q1412.03 1569.35 1414.09 1562.16 Q1416.19 1554.93 1416.19 1547.58 Q1416.19 1540.23 1414.09 1533.06 Q1412.03 1525.9 1407.79 1518.58 Z" fill="#000000" fill-rule="nonzero" fill-opacity="1" /><polyline clip-path="url(#clip830)" style="stroke:#000000; stroke-linecap:round; stroke-linejoin:round; stroke-width:4; stroke-opacity:1; fill:none" points="232.389,1423.18 232.389,47.2441 "/>
<polyline clip-path="url(#clip830)" style="stroke:#000000; stroke-linecap:round; stroke-linejoin:round; stroke-width:4; stroke-opacity:1; fill:none" points="232.389,1384.24 251.287,1384.24 "/>
<polyline clip-path="url(#clip830)" style="stroke:#000000; stroke-linecap:round; stroke-linejoin:round; stroke-width:4; stroke-opacity:1; fill:none" points="232.389,1076.49 251.287,1076.49 "/>
<polyline clip-path="url(#clip830)" style="stroke:#000000; stroke-linecap:round; stroke-linejoin:round; stroke-width:4; stroke-opacity:1; fill:none" points="232.389,768.74 251.287,768.74 "/>
<polyline clip-path="url(#clip830)" style="stroke:#000000; stroke-linecap:round; stroke-linejoin:round; stroke-width:4; stroke-opacity:1; fill:none" points="232.389,460.991 251.287,460.991 "/>
<polyline clip-path="url(#clip830)" style="stroke:#000000; stroke-linecap:round; stroke-linejoin:round; stroke-width:4; stroke-opacity:1; fill:none" points="232.389,153.242 251.287,153.242 "/>
<path clip-path="url(#clip830)" d="M184.445 1370.04 Q180.834 1370.04 179.005 1373.6 Q177.2 1377.14 177.2 1384.27 Q177.2 1391.38 179.005 1394.94 Q180.834 1398.49 184.445 1398.49 Q188.079 1398.49 189.885 1394.94 Q191.713 1391.38 191.713 1384.27 Q191.713 1377.14 189.885 1373.6 Q188.079 1370.04 184.445 1370.04 M184.445 1366.33 Q190.255 1366.33 193.311 1370.94 Q196.389 1375.52 196.389 1384.27 Q196.389 1393 193.311 1397.61 Q190.255 1402.19 184.445 1402.19 Q178.635 1402.19 175.556 1397.61 Q172.501 1393 172.501 1384.27 Q172.501 1375.52 175.556 1370.94 Q178.635 1366.33 184.445 1366.33 Z" fill="#000000" fill-rule="nonzero" fill-opacity="1" /><path clip-path="url(#clip830)" d="M149.306 1089.83 L165.626 1089.83 L165.626 1093.77 L143.681 1093.77 L143.681 1089.83 Q146.343 1087.08 150.927 1082.45 Q155.533 1077.8 156.714 1076.45 Q158.959 1073.93 159.839 1072.2 Q160.741 1070.44 160.741 1068.75 Q160.741 1065.99 158.797 1064.26 Q156.876 1062.52 153.774 1062.52 Q151.575 1062.52 149.121 1063.28 Q146.691 1064.05 143.913 1065.6 L143.913 1060.88 Q146.737 1059.74 149.191 1059.16 Q151.644 1058.58 153.681 1058.58 Q159.052 1058.58 162.246 1061.27 Q165.44 1063.95 165.44 1068.45 Q165.44 1070.57 164.63 1072.5 Q163.843 1074.39 161.737 1076.99 Q161.158 1077.66 158.056 1080.88 Q154.954 1084.07 149.306 1089.83 Z" fill="#000000" fill-rule="nonzero" fill-opacity="1" /><path clip-path="url(#clip830)" d="M175.487 1059.21 L193.843 1059.21 L193.843 1063.14 L179.769 1063.14 L179.769 1071.62 Q180.788 1071.27 181.806 1071.11 Q182.825 1070.92 183.843 1070.92 Q189.63 1070.92 193.01 1074.09 Q196.389 1077.26 196.389 1082.68 Q196.389 1088.26 192.917 1091.36 Q189.445 1094.44 183.126 1094.44 Q180.95 1094.44 178.681 1094.07 Q176.436 1093.7 174.028 1092.96 L174.028 1088.26 Q176.112 1089.39 178.334 1089.95 Q180.556 1090.51 183.033 1090.51 Q187.038 1090.51 189.375 1088.4 Q191.713 1086.29 191.713 1082.68 Q191.713 1079.07 189.375 1076.96 Q187.038 1074.86 183.033 1074.86 Q181.158 1074.86 179.283 1075.27 Q177.431 1075.69 175.487 1076.57 L175.487 1059.21 Z" fill="#000000" fill-rule="nonzero" fill-opacity="1" /><path clip-path="url(#clip830)" d="M144.329 751.46 L162.686 751.46 L162.686 755.395 L148.612 755.395 L148.612 763.867 Q149.63 763.52 150.649 763.358 Q151.667 763.173 152.686 763.173 Q158.473 763.173 161.852 766.344 Q165.232 769.515 165.232 774.932 Q165.232 780.511 161.76 783.613 Q158.288 786.691 151.968 786.691 Q149.792 786.691 147.524 786.321 Q145.279 785.95 142.871 785.21 L142.871 780.511 Q144.954 781.645 147.177 782.2 Q149.399 782.756 151.876 782.756 Q155.88 782.756 158.218 780.65 Q160.556 778.543 160.556 774.932 Q160.556 771.321 158.218 769.214 Q155.88 767.108 151.876 767.108 Q150.001 767.108 148.126 767.525 Q146.274 767.941 144.329 768.821 L144.329 751.46 Z" fill="#000000" fill-rule="nonzero" fill-opacity="1" /><path clip-path="url(#clip830)" d="M184.445 754.539 Q180.834 754.539 179.005 758.103 Q177.2 761.645 177.2 768.775 Q177.2 775.881 179.005 779.446 Q180.834 782.988 184.445 782.988 Q188.079 782.988 189.885 779.446 Q191.713 775.881 191.713 768.775 Q191.713 761.645 189.885 758.103 Q188.079 754.539 184.445 754.539 M184.445 750.835 Q190.255 750.835 193.311 755.441 Q196.389 760.025 196.389 768.775 Q196.389 777.501 193.311 782.108 Q190.255 786.691 184.445 786.691 Q178.635 786.691 175.556 782.108 Q172.501 777.501 172.501 768.775 Q172.501 760.025 175.556 755.441 Q178.635 750.835 184.445 750.835 Z" fill="#000000" fill-rule="nonzero" fill-opacity="1" /><path clip-path="url(#clip830)" d="M144.098 443.711 L166.32 443.711 L166.32 445.701 L153.774 478.271 L148.89 478.271 L160.695 447.646 L144.098 447.646 L144.098 443.711 Z" fill="#000000" fill-rule="nonzero" fill-opacity="1" /><path clip-path="url(#clip830)" d="M175.487 443.711 L193.843 443.711 L193.843 447.646 L179.769 447.646 L179.769 456.118 Q180.788 455.771 181.806 455.609 Q182.825 455.424 183.843 455.424 Q189.63 455.424 193.01 458.595 Q196.389 461.766 196.389 467.183 Q196.389 472.761 192.917 475.863 Q189.445 478.942 183.126 478.942 Q180.95 478.942 178.681 478.572 Q176.436 478.201 174.028 477.461 L174.028 472.761 Q176.112 473.896 178.334 474.451 Q180.556 475.007 183.033 475.007 Q187.038 475.007 189.375 472.9 Q191.713 470.794 191.713 467.183 Q191.713 463.572 189.375 461.465 Q187.038 459.359 183.033 459.359 Q181.158 459.359 179.283 459.775 Q177.431 460.192 175.487 461.072 L175.487 443.711 Z" fill="#000000" fill-rule="nonzero" fill-opacity="1" /><path clip-path="url(#clip830)" d="M114.931 166.586 L122.57 166.586 L122.57 140.221 L114.26 141.887 L114.26 137.628 L122.524 135.962 L127.2 135.962 L127.2 166.586 L134.839 166.586 L134.839 170.522 L114.931 170.522 L114.931 166.586 Z" fill="#000000" fill-rule="nonzero" fill-opacity="1" /><path clip-path="url(#clip830)" d="M154.283 139.04 Q150.672 139.04 148.843 142.605 Q147.038 146.147 147.038 153.276 Q147.038 160.383 148.843 163.947 Q150.672 167.489 154.283 167.489 Q157.917 167.489 159.723 163.947 Q161.552 160.383 161.552 153.276 Q161.552 146.147 159.723 142.605 Q157.917 139.04 154.283 139.04 M154.283 135.337 Q160.093 135.337 163.149 139.943 Q166.227 144.526 166.227 153.276 Q166.227 162.003 163.149 166.61 Q160.093 171.193 154.283 171.193 Q148.473 171.193 145.394 166.61 Q142.339 162.003 142.339 153.276 Q142.339 144.526 145.394 139.943 Q148.473 135.337 154.283 135.337 Z" fill="#000000" fill-rule="nonzero" fill-opacity="1" /><path clip-path="url(#clip830)" d="M184.445 139.04 Q180.834 139.04 179.005 142.605 Q177.2 146.147 177.2 153.276 Q177.2 160.383 179.005 163.947 Q180.834 167.489 184.445 167.489 Q188.079 167.489 189.885 163.947 Q191.713 160.383 191.713 153.276 Q191.713 146.147 189.885 142.605 Q188.079 139.04 184.445 139.04 M184.445 135.337 Q190.255 135.337 193.311 139.943 Q196.389 144.526 196.389 153.276 Q196.389 162.003 193.311 166.61 Q190.255 171.193 184.445 171.193 Q178.635 171.193 175.556 166.61 Q172.501 162.003 172.501 153.276 Q172.501 144.526 175.556 139.943 Q178.635 135.337 184.445 135.337 Z" fill="#000000" fill-rule="nonzero" fill-opacity="1" /><path clip-path="url(#clip830)" d="M67.3143 733.525 Q73.68 736.008 75.6216 738.363 Q77.5631 740.718 77.5631 744.665 L77.5631 749.344 L72.6615 749.344 L72.6615 745.906 Q72.6615 743.487 71.5157 742.151 Q70.3699 740.814 66.1048 739.191 L63.4312 738.14 L28.3562 752.559 L28.3562 746.352 L56.238 735.212 L28.3562 724.072 L28.3562 717.865 L67.3143 733.525 Z" fill="#000000" fill-rule="nonzero" fill-opacity="1" /><polyline clip-path="url(#clip832)" style="stroke:#009af9; stroke-linecap:round; stroke-linejoin:round; stroke-width:4; stroke-opacity:1; fill:none" points="292.4,1384.24 302.401,1347.86 312.403,1312.55 322.405,1278.29 332.407,1245.04 342.408,1212.77 352.41,1181.46 362.412,1151.07 372.414,1121.58 382.415,1092.96 392.417,1065.19 402.419,1038.23 412.42,1012.08 422.422,986.696 432.424,962.064 442.426,938.16 452.427,914.962 462.429,892.45 472.431,870.603 482.433,849.402 492.434,828.827 502.436,808.86 512.438,789.484 522.439,770.68 532.441,752.432 542.443,734.723 552.445,717.538 562.446,700.86 572.448,684.676 582.45,668.97 592.452,653.727 602.453,638.936 612.455,624.581 622.457,610.651 632.459,597.133 642.46,584.014 652.462,571.283 662.464,558.928 672.465,546.938 682.467,535.302 692.469,524.011 702.471,513.053 712.472,502.419 722.474,492.099 732.476,482.084 742.478,472.365 752.479,462.934 762.481,453.781 772.483,444.899 782.484,436.279 792.486,427.914 802.488,419.796 812.49,411.918 822.491,404.273 832.493,396.854 842.495,389.654 852.497,382.667 862.498,375.887 872.5,369.307 882.502,362.921 892.503,356.724 902.505,350.71 912.507,344.874 922.509,339.21 932.51,333.714 942.512,328.38 952.514,323.204 962.516,318.181 972.517,313.306 982.519,308.576 992.521,303.985 1002.52,299.53 1012.52,295.206 1022.53,291.011 1032.53,286.939 1042.53,282.988 1052.53,279.153 1062.53,275.432 1072.53,271.821 1082.54,268.316 1092.54,264.915 1102.54,261.615 1112.54,258.412 1122.54,255.303 1132.54,252.287 1142.55,249.36 1152.55,246.519 1162.55,243.762 1172.55,241.087 1182.55,238.491 1192.56,235.971 1202.56,233.526 1212.56,231.153 1222.56,228.851 1232.56,226.616 1242.56,224.448 1252.57,222.343 1262.57,220.301 1272.57,218.319 1282.57,216.396 1292.57,214.529 1302.57,212.718 1312.58,210.96 1322.58,209.254 1332.58,207.599 1342.58,205.992 1352.58,204.433 1362.58,202.92 1372.59,201.452 1382.59,200.027 1392.59,198.645 1402.59,197.303 1412.59,196.001 1422.6,194.737 1432.6,193.51 1442.6,192.32 1452.6,191.165 1462.6,190.045 1472.6,188.957 1482.61,187.901 1492.61,186.877 1502.61,185.883 1512.61,184.918 1522.61,183.982 1532.61,183.073 1542.62,182.192 1552.62,181.336 1562.62,180.506 1572.62,179.7 1582.62,178.918 1592.62,178.159 1602.63,177.423 1612.63,176.708 1622.63,176.015 1632.63,175.342 1642.63,174.688 1652.63,174.055 1662.64,173.439 1672.64,172.843 1682.64,172.263 1692.64,171.701 1702.64,171.155 1712.65,170.626 1722.65,170.112 1732.65,169.614 1742.65,169.13 1752.65,168.66 1762.65,168.205 1772.66,167.762 1782.66,167.333 1792.66,166.917 1802.66,166.513 1812.66,166.12 1822.66,165.74 1832.67,165.37 1842.67,165.012 1852.67,164.664 1862.67,164.326 1872.67,163.999 1882.67,163.681 1892.68,163.372 1902.68,163.073 1912.68,162.782 1922.68,162.5 1932.68,162.227 1942.69,161.961 1952.69,161.703 1962.69,161.453 1972.69,161.211 1982.69,160.975 1992.69,160.747 2002.7,160.525 2012.7,160.31 2022.7,160.101 2032.7,159.898 2042.7,159.701 2052.7,159.51 2062.71,159.325 2072.71,159.145 2082.71,158.971 2092.71,158.801 2102.71,158.637 2112.71,158.478 2122.72,158.323 2132.72,158.173 2142.72,158.027 2152.72,157.886 2162.72,157.748 2172.72,157.615 2182.73,157.486 2192.73,157.36 2202.73,157.239 2212.73,157.121 2222.73,157.006 2232.74,156.895 2242.74,156.787 2252.74,156.682 2262.74,156.58 2272.74,156.482 2282.74,156.386 2292.75,156.293 "/>
<polyline clip-path="url(#clip832)" style="stroke:#e26f46; stroke-linecap:round; stroke-linejoin:round; stroke-width:4; stroke-opacity:1; fill:none" points="292.4,1384.24 293.1,1384.24 293.8,1384.22 294.5,1384.17 295.2,1384.07 295.9,1383.93 296.6,1383.73 297.301,1383.46 298.001,1383.12 298.701,1382.71 299.401,1382.22 300.101,1381.65 300.801,1381.01 301.501,1380.28 302.201,1379.48 302.902,1378.6 303.602,1377.65 304.302,1376.62 305.002,1375.52 305.702,1374.35 306.402,1373.12 307.102,1371.81 307.802,1370.45 308.503,1369.02 309.203,1367.54 309.903,1366 310.603,1364.41 311.303,1362.77 312.003,1361.08 312.703,1359.34 313.403,1357.57 314.103,1355.75 314.804,1353.9 315.504,1352.01 316.204,1350.08 316.904,1348.13 317.604,1346.14 318.304,1344.13 319.004,1342.09 319.704,1340.03 320.405,1337.94 321.105,1335.83 321.805,1333.71 322.505,1331.56 323.205,1329.4 323.905,1327.23 324.605,1325.04 325.305,1322.83 326.006,1320.62 326.706,1318.39 327.406,1316.16 328.106,1313.91 328.806,1311.66 329.506,1309.4 330.206,1307.13 330.906,1304.86 331.606,1302.58 332.307,1300.3 333.007,1298.01 333.707,1295.72 334.407,1293.43 335.107,1291.14 335.807,1288.84 336.507,1286.54 337.207,1284.24 337.908,1281.95 338.608,1279.65 339.308,1277.35 340.008,1275.05 340.708,1272.75 341.408,1270.45 342.108,1268.16 342.808,1265.86 343.509,1263.57 344.209,1261.28 344.909,1258.99 345.609,1256.7 346.309,1254.42 347.009,1252.14 347.709,1249.86 348.409,1247.59 349.11,1245.31 349.81,1243.04 350.51,1240.78 351.21,1238.52 351.91,1236.26 352.61,1234 353.31,1231.75 354.01,1229.5 354.71,1227.25 355.411,1225.01 356.111,1222.78 356.811,1220.54 357.511,1218.31 358.211,1216.09 358.911,1213.87 359.611,1211.65 360.311,1209.44 361.012,1207.23 361.712,1205.02 362.412,1202.82 363.112,1200.62 363.812,1198.43 364.512,1196.24 365.212,1194.06 365.912,1191.88 366.613,1189.71 367.313,1187.53 368.013,1185.37 368.713,1183.21 369.413,1181.05 370.113,1178.89 370.813,1176.74 371.513,1174.6 372.214,1172.46 372.914,1170.32 373.614,1168.19 374.314,1166.06 375.014,1163.94 375.714,1161.82 376.414,1159.71 377.114,1157.6 377.814,1155.49 378.515,1153.39 379.215,1151.29 379.915,1149.2 380.615,1147.11 381.315,1145.03 382.015,1142.95 382.715,1140.87 383.415,1138.8 384.116,1136.73 384.816,1134.67 385.516,1132.61 386.216,1130.56 386.916,1128.51 387.616,1126.46 388.316,1124.42 389.016,1122.38 389.717,1120.35 390.417,1118.32 391.117,1116.3 391.817,1114.28 392.517,1112.26 393.217,1110.25 393.917,1108.24 394.617,1106.24 395.318,1104.24 396.018,1102.25 396.718,1100.25 397.418,1098.27 398.118,1096.29 398.818,1094.31 399.518,1092.33 400.218,1090.36 400.918,1088.4 401.619,1086.44 402.319,1084.48 403.019,1082.53 403.719,1080.58 404.419,1078.63 405.119,1076.69 405.819,1074.75 406.519,1072.82 407.22,1070.89 407.92,1068.97 408.62,1067.04 409.32,1065.13 410.02,1063.21 410.72,1061.31 411.42,1059.4 412.12,1057.5 412.821,1055.6 413.521,1053.71 414.221,1051.82 414.921,1049.94 415.621,1048.05 416.321,1046.18 417.021,1044.3 417.721,1042.44 418.422,1040.57 419.122,1038.71 419.822,1036.85 420.522,1035 421.222,1033.15 421.922,1031.3 422.622,1029.46 423.322,1027.62 424.022,1025.79 424.723,1023.96 425.423,1022.13 426.123,1020.31 426.823,1018.49 427.523,1016.67 428.223,1014.86 428.923,1013.05 429.623,1011.25 430.324,1009.45 431.024,1007.65 431.724,1005.86 432.424,1004.07 433.124,1002.29 433.824,1000.51 434.524,998.73 435.224,996.957 435.925,995.187 436.625,993.421 437.325,991.658 438.025,989.899 438.725,988.144 439.425,986.393 440.125,984.645 440.825,982.901 441.526,981.16 442.226,979.424 442.926,977.69 443.626,975.961 444.326,974.235 445.026,972.513 445.726,970.794 446.426,969.079 447.126,967.367 447.827,965.66 448.527,963.955 449.227,962.255 449.927,960.557 450.627,958.864 451.327,957.174 452.027,955.487 452.727,953.804 453.428,952.125 454.128,950.449 454.828,948.777 455.528,947.108 456.228,945.442 456.928,943.781 457.628,942.122 458.328,940.467 459.029,938.816 459.729,937.168 460.429,935.523 461.129,933.882 461.829,932.245 462.529,930.61 463.229,928.98 463.929,927.352 464.629,925.728 465.33,924.108 466.03,922.491 466.73,920.877 467.43,919.267 468.13,917.66 468.83,916.056 469.53,914.456 470.23,912.859 470.931,911.266 471.631,909.675 472.331,908.089 473.031,906.505 473.731,904.925 474.431,903.348 475.131,901.774 475.831,900.204 476.532,898.637 477.232,897.073 477.932,895.513 478.632,893.956 479.332,892.402 480.032,890.851 480.732,889.304 481.432,887.76 482.133,886.219 482.833,884.681 483.533,883.147 484.233,881.616 484.933,880.088 485.633,878.563 486.333,877.042 487.033,875.523 487.733,874.008 488.434,872.496 489.134,870.987 489.834,869.481 490.534,867.979 491.234,866.479 491.934,864.983 492.634,863.49 493.334,862 494.035,860.513 494.735,859.03 495.435,857.549 496.135,856.072 496.835,854.597 497.535,853.126 498.235,851.658 498.935,850.193 499.636,848.73 500.336,847.271 501.036,845.816 501.736,844.363 502.436,842.913 503.136,841.466 503.836,840.022 504.536,838.582 505.237,837.144 505.937,835.709 506.637,834.277 507.337,832.849 508.037,831.423 508.737,830 509.437,828.581 510.137,827.164 510.837,825.75 511.538,824.339 512.238,822.932 512.938,821.527 513.638,820.125 514.338,818.726 515.038,817.33 515.738,815.937 516.438,814.546 517.139,813.159 517.839,811.775 518.539,810.393 519.239,809.015 519.939,807.639 520.639,806.266 521.339,804.896 522.039,803.529 522.74,802.165 523.44,800.804 524.14,799.445 524.84,798.09 525.54,796.737 526.24,795.387 526.94,794.04 527.64,792.696 528.341,791.354 529.041,790.016 529.741,788.68 530.441,787.347 531.141,786.017 531.841,784.689 532.541,783.365 533.241,782.043 533.941,780.724 534.642,779.407 535.342,778.094 536.042,776.783 536.742,775.475 537.442,774.17 538.142,772.867 538.842,771.567 539.542,770.27 540.243,768.976 540.943,767.684 541.643,766.395 542.343,765.109 543.043,763.825 543.743,762.544 544.443,761.266 545.143,759.99 545.844,758.718 546.544,757.447 547.244,756.18 547.944,754.915 548.644,753.653 549.344,752.393 550.044,751.136 550.744,749.882 551.445,748.631 552.145,747.382 552.845,746.135 553.545,744.891 554.245,743.65 554.945,742.412 555.645,741.176 556.345,739.942 557.045,738.712 557.746,737.483 558.446,736.258 559.146,735.035 559.846,733.814 560.546,732.596 561.246,731.381 561.946,730.168 562.646,728.958 563.347,727.75 564.047,726.545 564.747,725.342 565.447,724.142 566.147,722.944 566.847,721.749 567.547,720.557 568.247,719.367 568.948,718.179 569.648,716.994 570.348,715.811 571.048,714.631 571.748,713.453 572.448,712.278 573.148,711.105 573.848,709.935 574.548,708.767 575.249,707.602 575.949,706.439 576.649,705.279 577.349,704.12 578.049,702.965 578.749,701.812 579.449,700.661 580.149,699.512 580.85,698.367 581.55,697.223 582.25,696.082 582.95,694.943 583.65,693.807 584.35,692.673 585.05,691.541 585.75,690.412 586.451,689.285 587.151,688.16 587.851,687.038 588.551,685.918 589.251,684.801 589.951,683.686 590.651,682.573 591.351,681.463 592.052,680.355 592.752,679.249 593.452,678.145 594.152,677.044 594.852,675.945 595.552,674.849 596.252,673.755 596.952,672.663 597.652,671.573 598.353,670.486 599.053,669.401 599.753,668.318 600.453,667.237 601.153,666.159 601.853,665.083 602.553,664.009 603.253,662.938 603.954,661.869 604.654,660.802 605.354,659.737 606.054,658.674 606.754,657.614 607.454,656.556 608.154,655.5 608.854,654.446 609.555,653.395 610.255,652.346 610.955,651.299 611.655,650.254 612.355,649.211 613.055,648.171 613.755,647.133 614.455,646.097 615.156,645.063 615.856,644.031 616.556,643.001 617.256,641.974 617.956,640.949 618.656,639.926 619.356,638.905 620.056,637.886 620.756,636.869 621.457,635.855 622.157,634.842 622.857,633.832 623.557,632.824 624.257,631.818 624.957,630.814 625.657,629.812 626.357,628.812 627.058,627.814 627.758,626.819 628.458,625.825 629.158,624.834 629.858,623.845 630.558,622.857 631.258,621.872 631.958,620.889 632.659,619.908 633.359,618.929 634.059,617.952 634.759,616.977 635.459,616.005 636.159,615.034 636.859,614.065 637.559,613.098 638.26,612.134 638.96,611.171 639.66,610.21 640.36,609.252 641.06,608.295 641.76,607.34 642.46,606.388 643.16,605.437 643.86,604.489 644.561,603.542 645.261,602.597 645.961,601.655 646.661,600.714 647.361,599.775 648.061,598.839 648.761,597.904 649.461,596.971 650.162,596.04 650.862,595.111 651.562,594.184 652.262,593.259 652.962,592.336 653.662,591.415 654.362,590.496 655.062,589.579 655.763,588.663 656.463,587.75 657.163,586.838 657.863,585.929 658.563,585.021 659.263,584.115 659.963,583.211 660.663,582.309 661.364,581.409 662.064,580.511 662.764,579.615 663.464,578.72 664.164,577.828 664.864,576.937 665.564,576.048 666.264,575.161 666.964,574.276 667.665,573.393 668.365,572.512 669.065,571.632 669.765,570.754 670.465,569.878 671.165,569.004 671.865,568.132 672.565,567.262 673.266,566.393 673.966,565.527 674.666,564.662 675.366,563.799 676.066,562.937 676.766,562.078 677.466,561.22 678.166,560.364 678.867,559.51 679.567,558.658 680.267,557.808 680.967,556.959 681.667,556.112 682.367,555.267 683.067,554.423 683.767,553.582 684.468,552.742 685.168,551.904 685.868,551.068 686.568,550.233 687.268,549.4 687.968,548.569 688.668,547.74 689.368,546.912 690.068,546.087 690.769,545.262 691.469,544.44 692.169,543.619 692.869,542.8 693.569,541.983 694.269,541.168 694.969,540.354 695.669,539.542 696.37,538.731 697.07,537.923 697.77,537.116 698.47,536.311 699.17,535.507 699.87,534.705 700.57,533.905 701.27,533.106 701.971,532.309 702.671,531.514 703.371,530.721 704.071,529.929 704.771,529.139 705.471,528.35 706.171,527.563 706.871,526.778 707.571,525.994 708.272,525.212 708.972,524.432 709.672,523.653 710.372,522.876 711.072,522.101 711.772,521.327 712.472,520.555 713.172,519.784 713.873,519.015 714.573,518.248 715.273,517.482 715.973,516.718 716.673,515.956 717.373,515.195 718.073,514.435 718.773,513.678 719.474,512.922 720.174,512.167 720.874,511.414 721.574,510.663 722.274,509.913 722.974,509.165 723.674,508.418 724.374,507.673 725.075,506.93 725.775,506.188 726.475,505.447 727.175,504.708 727.875,503.971 728.575,503.235 729.275,502.501 729.975,501.768 730.675,501.037 731.376,500.308 732.076,499.58 732.776,498.853 733.476,498.128 734.176,497.404 734.876,496.682 735.576,495.962 736.276,495.243 736.977,494.526 737.677,493.81 738.377,493.095 739.077,492.382 739.777,491.671 740.477,490.961 741.177,490.252 741.877,489.545 742.578,488.84 743.278,488.136 743.978,487.433 744.678,486.732 745.378,486.033 746.078,485.335 746.778,484.638 747.478,483.943 748.179,483.249 748.879,482.557 749.579,481.866 750.279,481.176 750.979,480.488 751.679,479.802 752.379,479.117 753.079,478.433 753.779,477.751 754.48,477.07 755.18,476.391 755.88,475.713 756.58,475.037 757.28,474.362 757.98,473.688 758.68,473.016 759.38,472.345 760.081,471.675 760.781,471.007 761.481,470.341 762.181,469.676 762.881,469.012 763.581,468.349 764.281,467.688 764.981,467.029 765.682,466.37 766.382,465.714 767.082,465.058 767.782,464.404 768.482,463.751 769.182,463.1 769.882,462.45 770.582,461.801 771.283,461.154 771.983,460.508 772.683,459.863 773.383,459.22 774.083,458.578 774.783,457.938 775.483,457.299 776.183,456.661 776.883,456.024 777.584,455.389 778.284,454.755 778.984,454.123 779.684,453.491 780.384,452.862 781.084,452.233 781.784,451.606 782.484,450.98 783.185,450.355 783.885,449.732 784.585,449.11 785.285,448.489 785.985,447.87 786.685,447.252 787.385,446.635 788.085,446.02 788.786,445.405 789.486,444.793 790.186,444.181 790.886,443.571 791.586,442.962 792.286,442.354 792.986,441.747 793.686,441.142 794.387,440.538 795.087,439.935 795.787,439.334 796.487,438.734 797.187,438.135 797.887,437.537 798.587,436.941 799.287,436.346 799.987,435.752 800.688,435.159 801.388,434.568 802.088,433.978 802.788,433.389 803.488,432.801 804.188,432.215 804.888,431.629 805.588,431.045 806.289,430.463 806.989,429.881 807.689,429.301 808.389,428.722 809.089,428.144 809.789,427.567 810.489,426.991 811.189,426.417 811.89,425.844 812.59,425.272 813.29,424.702 813.99,424.132 814.69,423.564 815.39,422.997 816.09,422.431 816.79,421.866 817.49,421.303 818.191,420.74 818.891,420.179 819.591,419.619 820.291,419.06 820.991,418.503 821.691,417.946 822.391,417.391 823.091,416.837 823.792,416.284 824.492,415.732 825.192,415.181 825.892,414.632 826.592,414.084 827.292,413.536 827.992,412.99 828.692,412.445 829.393,411.902 830.093,411.359 830.793,410.818 831.493,410.277 832.193,409.738 832.893,409.2 833.593,408.663 834.293,408.127 834.994,407.593 835.694,407.059 836.394,406.526 837.094,405.995 837.794,405.465 838.494,404.936 839.194,404.408 839.894,403.881 840.594,403.355 841.295,402.83 841.995,402.307 842.695,401.784 843.395,401.263 844.095,400.743 844.795,400.223 845.495,399.705 846.195,399.188 846.896,398.672 847.596,398.157 848.296,397.644 848.996,397.131 849.696,396.619 850.396,396.109 851.096,395.599 851.796,395.091 852.497,394.584 853.197,394.077 853.897,393.572 854.597,393.068 855.297,392.565 855.997,392.063 856.697,391.562 857.397,391.062 858.098,390.563 858.798,390.065 859.498,389.568 860.198,389.072 860.898,388.578 861.598,388.084 862.298,387.591 862.998,387.1 863.698,386.609 864.399,386.12 865.099,385.631 865.799,385.144 866.499,384.657 867.199,384.172 867.899,383.687 868.599,383.204 869.299,382.721 870,382.24 870.7,381.76 871.4,381.28 872.1,380.802 872.8,380.324 873.5,379.848 874.2,379.373 874.9,378.898 875.601,378.425 876.301,377.953 877.001,377.481 877.701,377.011 878.401,376.541 879.101,376.073 879.801,375.605 880.501,375.139 881.202,374.673 881.902,374.209 882.602,373.745 883.302,373.283 884.002,372.821 884.702,372.361 885.402,371.901 886.102,371.442 886.802,370.984 887.503,370.528 888.203,370.072 888.903,369.617 889.603,369.163 890.303,368.71 891.003,368.258 891.703,367.807 892.403,367.357 893.104,366.908 893.804,366.46 894.504,366.012 895.204,365.566 895.904,365.12 896.604,364.676 897.304,364.232 898.004,363.79 898.705,363.348 899.405,362.907 900.105,362.468 900.805,362.029 901.505,361.591 902.205,361.154 902.905,360.717 903.605,360.282 904.306,359.848 905.006,359.414 905.706,358.982 906.406,358.55 907.106,358.12 907.806,357.69 908.506,357.261 909.206,356.833 909.906,356.406 910.607,355.98 911.307,355.554 912.007,355.13 912.707,354.706 913.407,354.284 914.107,353.862 914.807,353.441 915.507,353.021 916.208,352.602 916.908,352.184 917.608,351.767 918.308,351.35 919.008,350.934 919.708,350.52 920.408,350.106 921.108,349.693 921.809,349.281 922.509,348.87 923.209,348.459 923.909,348.05 924.609,347.641 925.309,347.233 926.009,346.826 926.709,346.42 927.409,346.015 928.11,345.61 928.81,345.207 929.51,344.804 930.21,344.402 930.91,344.001 931.61,343.601 932.31,343.202 933.01,342.803 933.711,342.406 934.411,342.009 935.111,341.613 935.811,341.218 936.511,340.823 937.211,340.43 937.911,340.037 938.611,339.645 939.312,339.254 940.012,338.864 940.712,338.475 941.412,338.086 942.112,337.698 942.812,337.311 943.512,336.925 944.212,336.54 944.913,336.155 945.613,335.772 946.313,335.389 947.013,335.007 947.713,334.625 948.413,334.245 949.113,333.865 949.813,333.486 950.513,333.108 951.214,332.731 951.914,332.354 952.614,331.978 953.314,331.604 954.014,331.229 954.714,330.856 955.414,330.483 956.114,330.112 956.815,329.741 957.515,329.37 958.215,329.001 958.915,328.632 959.615,328.264 960.315,327.897 961.015,327.531 961.715,327.165 962.416,326.8 963.116,326.436 963.816,326.073 964.516,325.71 965.216,325.348 965.916,324.987 966.616,324.627 967.316,324.267 968.017,323.909 968.717,323.551 969.417,323.193 970.117,322.837 970.817,322.481 971.517,322.126 972.217,321.772 972.917,321.418 973.617,321.065 974.318,320.713 975.018,320.362 975.718,320.011 976.418,319.662 977.118,319.312 977.818,318.964 978.518,318.616 979.218,318.27 979.919,317.923 980.619,317.578 981.319,317.233 982.019,316.889 982.719,316.546 983.419,316.203 984.119,315.861 984.819,315.52 985.52,315.18 986.22,314.84 986.92,314.501 987.62,314.163 988.32,313.825 989.02,313.488 989.72,313.152 990.42,312.817 991.121,312.482 991.821,312.148 992.521,311.815 993.221,311.482 993.921,311.15 994.621,310.819 995.321,310.488 996.021,310.158 996.721,309.829 997.422,309.501 998.122,309.173 998.822,308.846 999.522,308.519 1000.22,308.193 1000.92,307.868 1001.62,307.544 1002.32,307.22 1003.02,306.897 1003.72,306.575 1004.42,306.253 1005.12,305.932 1005.82,305.612 1006.52,305.292 1007.22,304.973 1007.92,304.655 1008.62,304.337 1009.32,304.021 1010.02,303.704 1010.72,303.389 1011.42,303.074 1012.12,302.759 1012.82,302.446 1013.52,302.133 1014.22,301.82 1014.92,301.509 1015.62,301.198 1016.32,300.887 1017.02,300.577 1017.73,300.268 1018.43,299.96 1019.13,299.652 1019.83,299.345 1020.53,299.039 1021.23,298.733 1021.93,298.427 1022.63,298.123 1023.33,297.819 1024.03,297.516 1024.73,297.213 1025.43,296.911 1026.13,296.61 1026.83,296.309 1027.53,296.009 1028.23,295.709 1028.93,295.41 1029.63,295.112 1030.33,294.814 1031.03,294.517 1031.73,294.221 1032.43,293.925 1033.13,293.63 1033.83,293.336 1034.53,293.042 1035.23,292.749 1035.93,292.456 1036.63,292.164 1037.33,291.872 1038.03,291.582 1038.73,291.291 1039.43,291.002 1040.13,290.713 1040.83,290.424 1041.53,290.137 1042.23,289.849 1042.93,289.563 1043.63,289.277 1044.33,288.992 1045.03,288.707 1045.73,288.423 1046.43,288.139 1047.13,287.856 1047.83,287.574 1048.53,287.292 1049.23,287.011 1049.93,286.73 1050.63,286.45 1051.33,286.171 1052.03,285.892 1052.73,285.613 1053.43,285.336 1054.13,285.059 1054.83,284.782 1055.53,284.506 1056.23,284.231 1056.93,283.956 1057.63,283.682 1058.33,283.408 1059.03,283.135 1059.73,282.863 1060.43,282.591 1061.13,282.319 1061.83,282.049 1062.53,281.778 1063.23,281.509 1063.93,281.24 1064.63,280.971 1065.33,280.703 1066.03,280.436 1066.73,280.169 1067.43,279.903 1068.13,279.637 1068.83,279.372 1069.53,279.107 1070.23,278.843 1070.93,278.58 1071.63,278.317 1072.33,278.054 1073.03,277.793 1073.73,277.531 1074.43,277.27 1075.14,277.01 1075.84,276.751 1076.54,276.492 1077.24,276.233 1077.94,275.975 1078.64,275.718 1079.34,275.461 1080.04,275.204 1080.74,274.948 1081.44,274.693 1082.14,274.438 1082.84,274.184 1083.54,273.93 1084.24,273.677 1084.94,273.424 1085.64,273.172 1086.34,272.921 1087.04,272.67 1087.74,272.419 1088.44,272.169 1089.14,271.92 1089.84,271.671 1090.54,271.422 1091.24,271.174 1091.94,270.927 1092.64,270.68 1093.34,270.434 1094.04,270.188 1094.74,269.943 1095.44,269.698 1096.14,269.453 1096.84,269.21 1097.54,268.966 1098.24,268.724 1098.94,268.481 1099.64,268.24 1100.34,267.998 1101.04,267.758 1101.74,267.517 1102.44,267.278 1103.14,267.038 1103.84,266.8 1104.54,266.561 1105.24,266.324 1105.94,266.087 1106.64,265.85 1107.34,265.614 1108.04,265.378 1108.74,265.143 1109.44,264.908 1110.14,264.674 1110.84,264.44 1111.54,264.207 1112.24,263.974 1112.94,263.741 1113.64,263.51 1114.34,263.278 1115.04,263.048 1115.74,262.817 1116.44,262.587 1117.14,262.358 1117.84,262.129 1118.54,261.901 1119.24,261.673 1119.94,261.445 1120.64,261.218 1121.34,260.992 1122.04,260.766 1122.74,260.54 1123.44,260.315 1124.14,260.09 1124.84,259.866 1125.54,259.643 1126.24,259.419 1126.94,259.197 1127.64,258.974 1128.34,258.753 1129.04,258.531 1129.74,258.31 1130.44,258.09 1131.14,257.87 1131.84,257.65 1132.54,257.431 1133.25,257.213 1133.95,256.995 1134.65,256.777 1135.35,256.56 1136.05,256.343 1136.75,256.127 1137.45,255.911 1138.15,255.696 1138.85,255.481 1139.55,255.266 1140.25,255.052 1140.95,254.839 1141.65,254.626 1142.35,254.413 1143.05,254.201 1143.75,253.989 1144.45,253.777 1145.15,253.567 1145.85,253.356 1146.55,253.146 1147.25,252.936 1147.95,252.727 1148.65,252.519 1149.35,252.31 1150.05,252.103 1150.75,251.895 1151.45,251.688 1152.15,251.482 1152.85,251.276 1153.55,251.07 1154.25,250.865 1154.95,250.66 1155.65,250.456 1156.35,250.252 1157.05,250.048 1157.75,249.845 1158.45,249.642 1159.15,249.44 1159.85,249.238 1160.55,249.037 1161.25,248.836 1161.95,248.635 1162.65,248.435 1163.35,248.236 1164.05,248.036 1164.75,247.838 1165.45,247.639 1166.15,247.441 1166.85,247.243 1167.55,247.046 1168.25,246.849 1168.95,246.653 1169.65,246.457 1170.35,246.262 1171.05,246.066 1171.75,245.872 1172.45,245.677 1173.15,245.483 1173.85,245.29 1174.55,245.097 1175.25,244.904 1175.95,244.712 1176.65,244.52 1177.35,244.329 1178.05,244.137 1178.75,243.947 1179.45,243.756 1180.15,243.567 1180.85,243.377 1181.55,243.188 1182.25,242.999 1182.95,242.811 1183.65,242.623 1184.35,242.436 1185.05,242.249 1185.75,242.062 1186.45,241.875 1187.15,241.69 1187.85,241.504 1188.55,241.319 1189.25,241.134 1189.95,240.95 1190.66,240.766 1191.36,240.582 1192.06,240.399 1192.76,240.216 1193.46,240.034 1194.16,239.852 1194.86,239.67 1195.56,239.489 1196.26,239.308 1196.96,239.127 1197.66,238.947 1198.36,238.767 1199.06,238.588 1199.76,238.409 1200.46,238.23 1201.16,238.052 1201.86,237.874 1202.56,237.696 1203.26,237.519 1203.96,237.342 1204.66,237.166 1205.36,236.99 1206.06,236.814 1206.76,236.639 1207.46,236.464 1208.16,236.289 1208.86,236.115 1209.56,235.941 1210.26,235.768 1210.96,235.595 1211.66,235.422 1212.36,235.249 1213.06,235.077 1213.76,234.906 1214.46,234.734 1215.16,234.563 1215.86,234.393 1216.56,234.223 1217.26,234.053 1217.96,233.883 1218.66,233.714 1219.36,233.545 1220.06,233.377 1220.76,233.209 1221.46,233.041 1222.16,232.873 1222.86,232.706 1223.56,232.54 1224.26,232.373 1224.96,232.207 1225.66,232.042 1226.36,231.876 1227.06,231.711 1227.76,231.547 1228.46,231.383 1229.16,231.219 1229.86,231.055 1230.56,230.892 1231.26,230.729 1231.96,230.566 1232.66,230.404 1233.36,230.242 1234.06,230.081 1234.76,229.92 1235.46,229.759 1236.16,229.598 1236.86,229.438 1237.56,229.278 1238.26,229.119 1238.96,228.959 1239.66,228.801 1240.36,228.642 1241.06,228.484 1241.76,228.326 1242.46,228.169 1243.16,228.011 1243.86,227.855 1244.56,227.698 1245.26,227.542 1245.96,227.386 1246.66,227.23 1247.36,227.075 1248.06,226.92 1248.77,226.766 1249.47,226.612 1250.17,226.458 1250.87,226.304 1251.57,226.151 1252.27,225.998 1252.97,225.845 1253.67,225.693 1254.37,225.541 1255.07,225.389 1255.77,225.238 1256.47,225.087 1257.17,224.936 1257.87,224.786 1258.57,224.636 1259.27,224.486 1259.97,224.336 1260.67,224.187 1261.37,224.038 1262.07,223.89 1262.77,223.742 1263.47,223.594 1264.17,223.446 1264.87,223.299 1265.57,223.152 1266.27,223.005 1266.97,222.859 1267.67,222.713 1268.37,222.567 1269.07,222.422 1269.77,222.277 1270.47,222.132 1271.17,221.987 1271.87,221.843 1272.57,221.699 1273.27,221.556 1273.97,221.412 1274.67,221.269 1275.37,221.127 1276.07,220.984 1276.77,220.842 1277.47,220.7 1278.17,220.559 1278.87,220.417 1279.57,220.277 1280.27,220.136 1280.97,219.996 1281.67,219.856 1282.37,219.716 1283.07,219.576 1283.77,219.437 1284.47,219.298 1285.17,219.16 1285.87,219.021 1286.57,218.883 1287.27,218.746 1287.97,218.608 1288.67,218.471 1289.37,218.334 1290.07,218.198 1290.77,218.062 1291.47,217.926 1292.17,217.79 1292.87,217.655 1293.57,217.519 1294.27,217.385 1294.97,217.25 1295.67,217.116 1296.37,216.982 1297.07,216.848 1297.77,216.715 1298.47,216.581 1299.17,216.449 1299.87,216.316 1300.57,216.184 1301.27,216.052 1301.97,215.92 1302.67,215.788 1303.37,215.657 1304.07,215.526 1304.77,215.396 1305.47,215.265 1306.17,215.135 1306.88,215.005 1307.58,214.876 1308.28,214.746 1308.98,214.617 1309.68,214.489 1310.38,214.36 1311.08,214.232 1311.78,214.104 1312.48,213.976 1313.18,213.849 1313.88,213.722 1314.58,213.595 1315.28,213.468 1315.98,213.342 1316.68,213.216 1317.38,213.09 1318.08,212.964 1318.78,212.839 1319.48,212.714 1320.18,212.589 1320.88,212.465 1321.58,212.341 1322.28,212.217 1322.98,212.093 1323.68,211.969 1324.38,211.846 1325.08,211.723 1325.78,211.601 1326.48,211.478 1327.18,211.356 1327.88,211.234 1328.58,211.112 1329.28,210.991 1329.98,210.87 1330.68,210.749 1331.38,210.628 1332.08,210.508 1332.78,210.388 1333.48,210.268 1334.18,210.148 1334.88,210.029 1335.58,209.91 1336.28,209.791 1336.98,209.672 1337.68,209.554 1338.38,209.436 1339.08,209.318 1339.78,209.2 1340.48,209.083 1341.18,208.966 1341.88,208.849 1342.58,208.732 1343.28,208.616 1343.98,208.5 1344.68,208.384 1345.38,208.268 1346.08,208.153 1346.78,208.037 1347.48,207.922 1348.18,207.808 1348.88,207.693 1349.58,207.579 1350.28,207.465 1350.98,207.351 1351.68,207.238 1352.38,207.125 1353.08,207.012 1353.78,206.899 1354.48,206.786 1355.18,206.674 1355.88,206.562 1356.58,206.45 1357.28,206.338 1357.98,206.227 1358.68,206.116 1359.38,206.005 1360.08,205.894 1360.78,205.784 1361.48,205.673 1362.18,205.563 1362.88,205.454 1363.58,205.344 1364.29,205.235 1364.99,205.126 1365.69,205.017 1366.39,204.908 1367.09,204.8 1367.79,204.692 1368.49,204.584 1369.19,204.476 1369.89,204.369 1370.59,204.261 1371.29,204.154 1371.99,204.048 1372.69,203.941 1373.39,203.835 1374.09,203.728 1374.79,203.623 1375.49,203.517 1376.19,203.411 1376.89,203.306 1377.59,203.201 1378.29,203.096 1378.99,202.992 1379.69,202.887 1380.39,202.783 1381.09,202.679 1381.79,202.576 1382.49,202.472 1383.19,202.369 1383.89,202.266 1384.59,202.163 1385.29,202.06 1385.99,201.958 1386.69,201.856 1387.39,201.754 1388.09,201.652 1388.79,201.55 1389.49,201.449 1390.19,201.348 1390.89,201.247 1391.59,201.146 1392.29,201.046 1392.99,200.946 1393.69,200.845 1394.39,200.746 1395.09,200.646 1395.79,200.546 1396.49,200.447 1397.19,200.348 1397.89,200.249 1398.59,200.151 1399.29,200.052 1399.99,199.954 1400.69,199.856 1401.39,199.758 1402.09,199.661 1402.79,199.563 1403.49,199.466 1404.19,199.369 1404.89,199.273 1405.59,199.176 1406.29,199.08 1406.99,198.983 1407.69,198.887 1408.39,198.792 1409.09,198.696 1409.79,198.601 1410.49,198.506 1411.19,198.411 1411.89,198.316 1412.59,198.221 1413.29,198.127 1413.99,198.033 1414.69,197.939 1415.39,197.845 1416.09,197.752 1416.79,197.658 1417.49,197.565 1418.19,197.472 1418.89,197.379 1419.59,197.287 1420.29,197.194 1420.99,197.102 1421.69,197.01 1422.4,196.918 1423.1,196.827 1423.8,196.735 1424.5,196.644 1425.2,196.553 1425.9,196.462 1426.6,196.371 1427.3,196.281 1428,196.191 1428.7,196.101 1429.4,196.011 1430.1,195.921 1430.8,195.831 1431.5,195.742 1432.2,195.653 1432.9,195.564 1433.6,195.475 1434.3,195.386 1435,195.298 1435.7,195.21 1436.4,195.122 1437.1,195.034 1437.8,194.946 1438.5,194.859 1439.2,194.771 1439.9,194.684 1440.6,194.597 1441.3,194.511 1442,194.424 1442.7,194.338 1443.4,194.252 1444.1,194.165 1444.8,194.08 1445.5,193.994 1446.2,193.908 1446.9,193.823 1447.6,193.738 1448.3,193.653 1449,193.568 1449.7,193.484 1450.4,193.399 1451.1,193.315 1451.8,193.231 1452.5,193.147 1453.2,193.063 1453.9,192.98 1454.6,192.896 1455.3,192.813 1456,192.73 1456.7,192.647 1457.4,192.565 1458.1,192.482 1458.8,192.4 1459.5,192.318 1460.2,192.236 1460.9,192.154 1461.6,192.072 1462.3,191.991 1463,191.91 1463.7,191.829 1464.4,191.748 1465.1,191.667 1465.8,191.586 1466.5,191.506 1467.2,191.425 1467.9,191.345 1468.6,191.265 1469.3,191.186 1470,191.106 1470.7,191.027 1471.4,190.947 1472.1,190.868 1472.8,190.789 1473.5,190.711 1474.2,190.632 1474.9,190.554 1475.6,190.475 1476.3,190.397 1477,190.319 1477.7,190.241 1478.4,190.164 1479.1,190.086 1479.8,190.009 1480.51,189.932 1481.21,189.855 1481.91,189.778 1482.61,189.702 1483.31,189.625 1484.01,189.549 1484.71,189.473 1485.41,189.397 1486.11,189.321 1486.81,189.245 1487.51,189.169 1488.21,189.094 1488.91,189.019 1489.61,188.944 1490.31,188.869 1491.01,188.794 1491.71,188.72 1492.41,188.645 1493.11,188.571 1493.81,188.497 1494.51,188.423 1495.21,188.349 1495.91,188.275 1496.61,188.202 1497.31,188.129 1498.01,188.055 1498.71,187.982 1499.41,187.909 1500.11,187.837 1500.81,187.764 1501.51,187.692 1502.21,187.619 1502.91,187.547 1503.61,187.475 1504.31,187.404 1505.01,187.332 1505.71,187.26 1506.41,187.189 1507.11,187.118 1507.81,187.047 1508.51,186.976 1509.21,186.905 1509.91,186.834 1510.61,186.764 1511.31,186.694 1512.01,186.623 1512.71,186.553 1513.41,186.484 1514.11,186.414 1514.81,186.344 1515.51,186.275 1516.21,186.206 1516.91,186.136 1517.61,186.067 1518.31,185.998 1519.01,185.93 1519.71,185.861 1520.41,185.793 1521.11,185.724 1521.81,185.656 1522.51,185.588 1523.21,185.52 1523.91,185.453 1524.61,185.385 1525.31,185.318 1526.01,185.25 1526.71,185.183 1527.41,185.116 1528.11,185.049 1528.81,184.983 1529.51,184.916 1530.21,184.85 1530.91,184.783 1531.61,184.717 1532.31,184.651 1533.01,184.585 1533.71,184.52 1534.41,184.454 1535.11,184.388 1535.81,184.323 1536.51,184.258 1537.21,184.193 1537.92,184.128 1538.62,184.063 1539.32,183.998 1540.02,183.934 1540.72,183.87 1541.42,183.805 1542.12,183.741 1542.82,183.677 1543.52,183.613 1544.22,183.55 1544.92,183.486 1545.62,183.423 1546.32,183.359 1547.02,183.296 1547.72,183.233 1548.42,183.17 1549.12,183.107 1549.82,183.045 1550.52,182.982 1551.22,182.92 1551.92,182.858 1552.62,182.795 1553.32,182.733 1554.02,182.672 1554.72,182.61 1555.42,182.548 1556.12,182.487 1556.82,182.425 1557.52,182.364 1558.22,182.303 1558.92,182.242 1559.62,182.181 1560.32,182.121 1561.02,182.06 1561.72,182 1562.42,181.939 1563.12,181.879 1563.82,181.819 1564.52,181.759 1565.22,181.699 1565.92,181.639 1566.62,181.58 1567.32,181.52 1568.02,181.461 1568.72,181.402 1569.42,181.343 1570.12,181.284 1570.82,181.225 1571.52,181.166 1572.22,181.108 1572.92,181.049 1573.62,180.991 1574.32,180.933 1575.02,180.875 1575.72,180.817 1576.42,180.759 1577.12,180.701 1577.82,180.644 1578.52,180.586 1579.22,180.529 1579.92,180.471 1580.62,180.414 1581.32,180.357 1582.02,180.3 1582.72,180.244 1583.42,180.187 1584.12,180.13 1584.82,180.074 1585.52,180.018 1586.22,179.962 1586.92,179.906 1587.62,179.85 1588.32,179.794 1589.02,179.738 1589.72,179.683 1590.42,179.627 1591.12,179.572 1591.82,179.516 1592.52,179.461 1593.22,179.406 1593.92,179.351 1594.62,179.297 1595.32,179.242 1596.03,179.187 1596.73,179.133 1597.43,179.079 1598.13,179.025 1598.83,178.97 1599.53,178.916 1600.23,178.863 1600.93,178.809 1601.63,178.755 1602.33,178.702 1603.03,178.648 1603.73,178.595 1604.43,178.542 1605.13,178.489 1605.83,178.436 1606.53,178.383 1607.23,178.33 1607.93,178.278 1608.63,178.225 1609.33,178.173 1610.03,178.12 1610.73,178.068 1611.43,178.016 1612.13,177.964 1612.83,177.912 1613.53,177.86 1614.23,177.809 1614.93,177.757 1615.63,177.706 1616.33,177.655 1617.03,177.603 1617.73,177.552 1618.43,177.501 1619.13,177.45 1619.83,177.4 1620.53,177.349 1621.23,177.298 1621.93,177.248 1622.63,177.197 1623.33,177.147 1624.03,177.097 1624.73,177.047 1625.43,176.997 1626.13,176.947 1626.83,176.897 1627.53,176.848 1628.23,176.798 1628.93,176.749 1629.63,176.7 1630.33,176.65 1631.03,176.601 1631.73,176.552 1632.43,176.503 1633.13,176.455 1633.83,176.406 1634.53,176.357 1635.23,176.309 1635.93,176.26 1636.63,176.212 1637.33,176.164 1638.03,176.116 1638.73,176.068 1639.43,176.02 1640.13,175.972 1640.83,175.925 1641.53,175.877 1642.23,175.829 1642.93,175.782 1643.63,175.735 1644.33,175.688 1645.03,175.641 1645.73,175.594 1646.43,175.547 1647.13,175.5 1647.83,175.453 1648.53,175.407 1649.23,175.36 1649.93,175.314 1650.63,175.267 1651.33,175.221 1652.03,175.175 1652.73,175.129 1653.44,175.083 1654.14,175.037 1654.84,174.992 1655.54,174.946 1656.24,174.9 1656.94,174.855 1657.64,174.81 1658.34,174.764 1659.04,174.719 1659.74,174.674 1660.44,174.629 1661.14,174.584 1661.84,174.54 1662.54,174.495 1663.24,174.45 1663.94,174.406 1664.64,174.361 1665.34,174.317 1666.04,174.273 1666.74,174.229 1667.44,174.185 1668.14,174.141 1668.84,174.097 1669.54,174.053 1670.24,174.01 1670.94,173.966 1671.64,173.923 1672.34,173.879 1673.04,173.836 1673.74,173.793 1674.44,173.75 1675.14,173.707 1675.84,173.664 1676.54,173.621 1677.24,173.578 1677.94,173.535 1678.64,173.493 1679.34,173.45 1680.04,173.408 1680.74,173.366 1681.44,173.323 1682.14,173.281 1682.84,173.239 1683.54,173.197 1684.24,173.155 1684.94,173.114 1685.64,173.072 1686.34,173.03 1687.04,172.989 1687.74,172.947 1688.44,172.906 1689.14,172.865 1689.84,172.824 1690.54,172.783 1691.24,172.742 1691.94,172.701 1692.64,172.66 1693.34,172.619 1694.04,172.578 1694.74,172.538 1695.44,172.497 1696.14,172.457 1696.84,172.417 1697.54,172.376 1698.24,172.336 1698.94,172.296 1699.64,172.256 1700.34,172.216 1701.04,172.177 1701.74,172.137 1702.44,172.097 1703.14,172.058 1703.84,172.018 1704.54,171.979 1705.24,171.94 1705.94,171.9 1706.64,171.861 1707.34,171.822 1708.04,171.783 1708.74,171.744 1709.44,171.705 1710.14,171.667 1710.84,171.628 1711.55,171.589 1712.25,171.551 1712.95,171.513 1713.65,171.474 1714.35,171.436 1715.05,171.398 1715.75,171.36 1716.45,171.322 1717.15,171.284 1717.85,171.246 1718.55,171.208 1719.25,171.17 1719.95,171.133 1720.65,171.095 1721.35,171.058 1722.05,171.02 1722.75,170.983 1723.45,170.946 1724.15,170.909 1724.85,170.872 1725.55,170.835 1726.25,170.798 1726.95,170.761 1727.65,170.724 1728.35,170.688 1729.05,170.651 1729.75,170.614 1730.45,170.578 1731.15,170.542 1731.85,170.505 1732.55,170.469 1733.25,170.433 1733.95,170.397 1734.65,170.361 1735.35,170.325 1736.05,170.289 1736.75,170.253 1737.45,170.218 1738.15,170.182 1738.85,170.147 1739.55,170.111 1740.25,170.076 1740.95,170.04 1741.65,170.005 1742.35,169.97 1743.05,169.935 1743.75,169.9 1744.45,169.865 1745.15,169.83 1745.85,169.795 1746.55,169.761 1747.25,169.726 1747.95,169.691 1748.65,169.657 1749.35,169.622 1750.05,169.588 1750.75,169.554 1751.45,169.52 1752.15,169.485 1752.85,169.451 1753.55,169.417 1754.25,169.383 1754.95,169.35 1755.65,169.316 1756.35,169.282 1757.05,169.248 1757.75,169.215 1758.45,169.181 1759.15,169.148 1759.85,169.114 1760.55,169.081 1761.25,169.048 1761.95,169.015 1762.65,168.982 1763.35,168.949 1764.05,168.916 1764.75,168.883 1765.45,168.85 1766.15,168.817 1766.85,168.785 1767.55,168.752 1768.25,168.719 1768.95,168.687 1769.66,168.655 1770.36,168.622 1771.06,168.59 1771.76,168.558 1772.46,168.526 1773.16,168.494 1773.86,168.462 1774.56,168.43 1775.26,168.398 1775.96,168.366 1776.66,168.334 1777.36,168.303 1778.06,168.271 1778.76,168.24 1779.46,168.208 1780.16,168.177 1780.86,168.145 1781.56,168.114 1782.26,168.083 1782.96,168.052 1783.66,168.021 1784.36,167.99 1785.06,167.959 1785.76,167.928 1786.46,167.897 1787.16,167.866 1787.86,167.836 1788.56,167.805 1789.26,167.774 1789.96,167.744 1790.66,167.714 1791.36,167.683 1792.06,167.653 1792.76,167.623 1793.46,167.592 1794.16,167.562 1794.86,167.532 1795.56,167.502 1796.26,167.472 1796.96,167.443 1797.66,167.413 1798.36,167.383 1799.06,167.353 1799.76,167.324 1800.46,167.294 1801.16,167.265 1801.86,167.235 1802.56,167.206 1803.26,167.177 1803.96,167.147 1804.66,167.118 1805.36,167.089 1806.06,167.06 1806.76,167.031 1807.46,167.002 1808.16,166.973 1808.86,166.945 1809.56,166.916 1810.26,166.887 1810.96,166.858 1811.66,166.83 1812.36,166.801 1813.06,166.773 1813.76,166.745 1814.46,166.716 1815.16,166.688 1815.86,166.66 1816.56,166.632 1817.26,166.604 1817.96,166.576 1818.66,166.548 1819.36,166.52 1820.06,166.492 1820.76,166.464 1821.46,166.436 1822.16,166.409 1822.86,166.381 1823.56,166.353 1824.26,166.326 1824.96,166.298 1825.66,166.271 1826.36,166.244 1827.07,166.216 1827.77,166.189 1828.47,166.162 1829.17,166.135 1829.87,166.108 1830.57,166.081 1831.27,166.054 1831.97,166.027 1832.67,166 1833.37,165.973 1834.07,165.947 1834.77,165.92 1835.47,165.894 1836.17,165.867 1836.87,165.841 1837.57,165.814 1838.27,165.788 1838.97,165.761 1839.67,165.735 1840.37,165.709 1841.07,165.683 1841.77,165.657 1842.47,165.631 1843.17,165.605 1843.87,165.579 1844.57,165.553 1845.27,165.527 1845.97,165.501 1846.67,165.475 1847.37,165.45 1848.07,165.424 1848.77,165.399 1849.47,165.373 1850.17,165.348 1850.87,165.322 1851.57,165.297 1852.27,165.272 1852.97,165.246 1853.67,165.221 1854.37,165.196 1855.07,165.171 1855.77,165.146 1856.47,165.121 1857.17,165.096 1857.87,165.071 1858.57,165.046 1859.27,165.022 1859.97,164.997 1860.67,164.972 1861.37,164.948 1862.07,164.923 1862.77,164.899 1863.47,164.874 1864.17,164.85 1864.87,164.825 1865.57,164.801 1866.27,164.777 1866.97,164.753 1867.67,164.729 1868.37,164.704 1869.07,164.68 1869.77,164.656 1870.47,164.632 1871.17,164.609 1871.87,164.585 1872.57,164.561 1873.27,164.537 1873.97,164.513 1874.67,164.49 1875.37,164.466 1876.07,164.443 1876.77,164.419 1877.47,164.396 1878.17,164.372 1878.87,164.349 1879.57,164.326 1880.27,164.302 1880.97,164.279 1881.67,164.256 1882.37,164.233 1883.07,164.21 1883.77,164.187 1884.47,164.164 1885.18,164.141 1885.88,164.118 1886.58,164.095 1887.28,164.073 1887.98,164.05 1888.68,164.027 1889.38,164.005 1890.08,163.982 1890.78,163.959 1891.48,163.937 1892.18,163.915 1892.88,163.892 1893.58,163.87 1894.28,163.847 1894.98,163.825 1895.68,163.803 1896.38,163.781 1897.08,163.759 1897.78,163.737 1898.48,163.715 1899.18,163.693 1899.88,163.671 1900.58,163.649 1901.28,163.627 1901.98,163.605 1902.68,163.584 1903.38,163.562 1904.08,163.54 1904.78,163.519 1905.48,163.497 1906.18,163.476 1906.88,163.454 1907.58,163.433 1908.28,163.411 1908.98,163.39 1909.68,163.369 1910.38,163.347 1911.08,163.326 1911.78,163.305 1912.48,163.284 1913.18,163.263 1913.88,163.242 1914.58,163.221 1915.28,163.2 1915.98,163.179 1916.68,163.158 1917.38,163.137 1918.08,163.117 1918.78,163.096 1919.48,163.075 1920.18,163.055 1920.88,163.034 1921.58,163.013 1922.28,162.993 1922.98,162.973 1923.68,162.952 1924.38,162.932 1925.08,162.911 1925.78,162.891 1926.48,162.871 1927.18,162.851 1927.88,162.831 1928.58,162.81 1929.28,162.79 1929.98,162.77 1930.68,162.75 1931.38,162.73 1932.08,162.71 1932.78,162.691 1933.48,162.671 1934.18,162.651 1934.88,162.631 1935.58,162.612 1936.28,162.592 1936.98,162.572 1937.68,162.553 1938.38,162.533 1939.08,162.514 1939.78,162.494 1940.48,162.475 1941.18,162.455 1941.88,162.436 1942.58,162.417 1943.29,162.398 1943.99,162.378 1944.69,162.359 1945.39,162.34 1946.09,162.321 1946.79,162.302 1947.49,162.283 1948.19,162.264 1948.89,162.245 1949.59,162.226 1950.29,162.207 1950.99,162.189 1951.69,162.17 1952.39,162.151 1953.09,162.132 1953.79,162.114 1954.49,162.095 1955.19,162.076 1955.89,162.058 1956.59,162.039 1957.29,162.021 1957.99,162.003 1958.69,161.984 1959.39,161.966 1960.09,161.948 1960.79,161.929 1961.49,161.911 1962.19,161.893 1962.89,161.875 1963.59,161.857 1964.29,161.839 1964.99,161.821 1965.69,161.803 1966.39,161.785 1967.09,161.767 1967.79,161.749 1968.49,161.731 1969.19,161.713 1969.89,161.695 1970.59,161.678 1971.29,161.66 1971.99,161.642 1972.69,161.625 1973.39,161.607 1974.09,161.589 1974.79,161.572 1975.49,161.554 1976.19,161.537 1976.89,161.52 1977.59,161.502 1978.29,161.485 1978.99,161.468 1979.69,161.45 1980.39,161.433 1981.09,161.416 1981.79,161.399 1982.49,161.382 1983.19,161.365 1983.89,161.348 1984.59,161.331 1985.29,161.314 1985.99,161.297 1986.69,161.28 1987.39,161.263 1988.09,161.246 1988.79,161.229 1989.49,161.213 1990.19,161.196 1990.89,161.179 1991.59,161.163 1992.29,161.146 1992.99,161.129 1993.69,161.113 1994.39,161.096 1995.09,161.08 1995.79,161.063 1996.49,161.047 1997.19,161.031 1997.89,161.014 1998.59,160.998 1999.29,160.982 1999.99,160.965 2000.7,160.949 2001.4,160.933 2002.1,160.917 2002.8,160.901 2003.5,160.885 2004.2,160.869 2004.9,160.853 2005.6,160.837 2006.3,160.821 2007,160.805 2007.7,160.789 2008.4,160.773 2009.1,160.757 2009.8,160.742 2010.5,160.726 2011.2,160.71 2011.9,160.695 2012.6,160.679 2013.3,160.663 2014,160.648 2014.7,160.632 2015.4,160.617 2016.1,160.601 2016.8,160.586 2017.5,160.57 2018.2,160.555 2018.9,160.54 2019.6,160.524 2020.3,160.509 2021,160.494 2021.7,160.479 2022.4,160.463 2023.1,160.448 2023.8,160.433 2024.5,160.418 2025.2,160.403 2025.9,160.388 2026.6,160.373 2027.3,160.358 2028,160.343 2028.7,160.328 2029.4,160.313 2030.1,160.299 2030.8,160.284 2031.5,160.269 2032.2,160.254 2032.9,160.239 2033.6,160.225 2034.3,160.21 2035,160.196 2035.7,160.181 2036.4,160.166 2037.1,160.152 2037.8,160.137 2038.5,160.123 2039.2,160.108 2039.9,160.094 2040.6,160.08 2041.3,160.065 2042,160.051 2042.7,160.037 2043.4,160.022 2044.1,160.008 2044.8,159.994 2045.5,159.98 2046.2,159.966 2046.9,159.952 2047.6,159.938 2048.3,159.924 2049,159.91 2049.7,159.896 2050.4,159.882 2051.1,159.868 2051.8,159.854 2052.5,159.84 2053.2,159.826 2053.9,159.812 2054.6,159.798 2055.3,159.785 2056,159.771 2056.7,159.757 2057.4,159.744 2058.1,159.73 2058.81,159.716 2059.51,159.703 2060.21,159.689 2060.91,159.676 2061.61,159.662 2062.31,159.649 2063.01,159.635 2063.71,159.622 2064.41,159.608 2065.11,159.595 2065.81,159.582 2066.51,159.568 2067.21,159.555 2067.91,159.542 2068.61,159.529 2069.31,159.516 2070.01,159.502 2070.71,159.489 2071.41,159.476 2072.11,159.463 2072.81,159.45 2073.51,159.437 2074.21,159.424 2074.91,159.411 2075.61,159.398 2076.31,159.385 2077.01,159.372 2077.71,159.359 2078.41,159.347 2079.11,159.334 2079.81,159.321 2080.51,159.308 2081.21,159.296 2081.91,159.283 2082.61,159.27 2083.31,159.257 2084.01,159.245 2084.71,159.232 2085.41,159.22 2086.11,159.207 2086.81,159.195 2087.51,159.182 2088.21,159.17 2088.91,159.157 2089.61,159.145 2090.31,159.132 2091.01,159.12 2091.71,159.108 2092.41,159.095 2093.11,159.083 2093.81,159.071 2094.51,159.059 2095.21,159.047 2095.91,159.034 2096.61,159.022 2097.31,159.01 2098.01,158.998 2098.71,158.986 2099.41,158.974 2100.11,158.962 2100.81,158.95 2101.51,158.938 2102.21,158.926 2102.91,158.914 2103.61,158.902 2104.31,158.89 2105.01,158.878 2105.71,158.867 2106.41,158.855 2107.11,158.843 2107.81,158.831 2108.51,158.819 2109.21,158.808 2109.91,158.796 2110.61,158.784 2111.31,158.773 2112.01,158.761 2112.71,158.75 2113.41,158.738 2114.11,158.727 2114.81,158.715 2115.51,158.704 2116.22,158.692 2116.92,158.681 2117.62,158.669 2118.32,158.658 2119.02,158.646 2119.72,158.635 2120.42,158.624 2121.12,158.613 2121.82,158.601 2122.52,158.59 2123.22,158.579 2123.92,158.568 2124.62,158.556 2125.32,158.545 2126.02,158.534 2126.72,158.523 2127.42,158.512 2128.12,158.501 2128.82,158.49 2129.52,158.479 2130.22,158.468 2130.92,158.457 2131.62,158.446 2132.32,158.435 2133.02,158.424 2133.72,158.413 2134.42,158.402 2135.12,158.392 2135.82,158.381 2136.52,158.37 2137.22,158.359 2137.92,158.349 2138.62,158.338 2139.32,158.327 2140.02,158.316 2140.72,158.306 2141.42,158.295 2142.12,158.285 2142.82,158.274 2143.52,158.263 2144.22,158.253 2144.92,158.242 2145.62,158.232 2146.32,158.221 2147.02,158.211 2147.72,158.201 2148.42,158.19 2149.12,158.18 2149.82,158.169 2150.52,158.159 2151.22,158.149 2151.92,158.138 2152.62,158.128 2153.32,158.118 2154.02,158.108 2154.72,158.098 2155.42,158.087 2156.12,158.077 2156.82,158.067 2157.52,158.057 2158.22,158.047 2158.92,158.037 2159.62,158.027 2160.32,158.017 2161.02,158.007 2161.72,157.997 2162.42,157.987 2163.12,157.977 2163.82,157.967 2164.52,157.957 2165.22,157.947 2165.92,157.937 2166.62,157.927 2167.32,157.917 2168.02,157.908 2168.72,157.898 2169.42,157.888 2170.12,157.878 2170.82,157.869 2171.52,157.859 2172.22,157.849 2172.92,157.84 2173.62,157.83 2174.33,157.82 2175.03,157.811 2175.73,157.801 2176.43,157.791 2177.13,157.782 2177.83,157.772 2178.53,157.763 2179.23,157.753 2179.93,157.744 2180.63,157.735 2181.33,157.725 2182.03,157.716 2182.73,157.706 2183.43,157.697 2184.13,157.688 2184.83,157.678 2185.53,157.669 2186.23,157.66 2186.93,157.65 2187.63,157.641 2188.33,157.632 2189.03,157.623 2189.73,157.614 2190.43,157.604 2191.13,157.595 2191.83,157.586 2192.53,157.577 2193.23,157.568 2193.93,157.559 2194.63,157.55 2195.33,157.541 2196.03,157.532 2196.73,157.523 2197.43,157.514 2198.13,157.505 2198.83,157.496 2199.53,157.487 2200.23,157.478 2200.93,157.469 2201.63,157.46 2202.33,157.451 2203.03,157.443 2203.73,157.434 2204.43,157.425 2205.13,157.416 2205.83,157.407 2206.53,157.399 2207.23,157.39 2207.93,157.381 2208.63,157.373 2209.33,157.364 2210.03,157.355 2210.73,157.347 2211.43,157.338 2212.13,157.329 2212.83,157.321 2213.53,157.312 2214.23,157.304 2214.93,157.295 2215.63,157.287 2216.33,157.278 2217.03,157.27 2217.73,157.261 2218.43,157.253 2219.13,157.244 2219.83,157.236 2220.53,157.228 2221.23,157.219 2221.93,157.211 2222.63,157.203 2223.33,157.194 2224.03,157.186 2224.73,157.178 2225.43,157.169 2226.13,157.161 2226.83,157.153 2227.53,157.145 2228.23,157.137 2228.93,157.128 2229.63,157.12 2230.33,157.112 2231.03,157.104 2231.73,157.096 2232.44,157.088 2233.14,157.08 2233.84,157.072 2234.54,157.064 2235.24,157.056 2235.94,157.048 2236.64,157.04 2237.34,157.032 2238.04,157.024 2238.74,157.016 2239.44,157.008 2240.14,157 2240.84,156.992 2241.54,156.984 2242.24,156.976 2242.94,156.969 2243.64,156.961 2244.34,156.953 2245.04,156.945 2245.74,156.937 2246.44,156.93 2247.14,156.922 2247.84,156.914 2248.54,156.906 2249.24,156.899 2249.94,156.891 2250.64,156.883 2251.34,156.876 2252.04,156.868 2252.74,156.861 2253.44,156.853 2254.14,156.845 2254.84,156.838 2255.54,156.83 2256.24,156.823 2256.94,156.815 2257.64,156.808 2258.34,156.8 2259.04,156.793 2259.74,156.785 2260.44,156.778 2261.14,156.771 2261.84,156.763 2262.54,156.756 2263.24,156.748 2263.94,156.741 2264.64,156.734 2265.34,156.726 2266.04,156.719 2266.74,156.712 2267.44,156.704 2268.14,156.697 2268.84,156.69 2269.54,156.683 2270.24,156.675 2270.94,156.668 2271.64,156.661 2272.34,156.654 2273.04,156.647 2273.74,156.64 2274.44,156.633 2275.14,156.625 2275.84,156.618 2276.54,156.611 2277.24,156.604 2277.94,156.597 2278.64,156.59 2279.34,156.583 2280.04,156.576 2280.74,156.569 2281.44,156.562 2282.14,156.555 2282.84,156.548 2283.54,156.541 2284.24,156.534 2284.94,156.527 2285.64,156.52 2286.34,156.514 2287.04,156.507 2287.74,156.5 2288.44,156.493 2289.14,156.486 2289.85,156.479 2290.55,156.473 2291.25,156.466 2291.95,156.459 2292.65,156.452 "/>
<circle clip-path="url(#clip832)" cx="292.4" cy="1342.32" r="14.4" fill="#3da44d" fill-rule="evenodd" fill-opacity="1" stroke="#000000" stroke-opacity="1" stroke-width="3.2"/>
<circle clip-path="url(#clip832)" cx="325.739" cy="1246.57" r="14.4" fill="#3da44d" fill-rule="evenodd" fill-opacity="1" stroke="#000000" stroke-opacity="1" stroke-width="3.2"/>
<circle clip-path="url(#clip832)" cx="359.078" cy="1158.29" r="14.4" fill="#3da44d" fill-rule="evenodd" fill-opacity="1" stroke="#000000" stroke-opacity="1" stroke-width="3.2"/>
<circle clip-path="url(#clip832)" cx="392.417" cy="1010.43" r="14.4" fill="#3da44d" fill-rule="evenodd" fill-opacity="1" stroke="#000000" stroke-opacity="1" stroke-width="3.2"/>
<circle clip-path="url(#clip832)" cx="425.756" cy="963.14" r="14.4" fill="#3da44d" fill-rule="evenodd" fill-opacity="1" stroke="#000000" stroke-opacity="1" stroke-width="3.2"/>
<circle clip-path="url(#clip832)" cx="459.095" cy="893.303" r="14.4" fill="#3da44d" fill-rule="evenodd" fill-opacity="1" stroke="#000000" stroke-opacity="1" stroke-width="3.2"/>
<circle clip-path="url(#clip832)" cx="492.434" cy="776.436" r="14.4" fill="#3da44d" fill-rule="evenodd" fill-opacity="1" stroke="#000000" stroke-opacity="1" stroke-width="3.2"/>
<circle clip-path="url(#clip832)" cx="525.773" cy="753.572" r="14.4" fill="#3da44d" fill-rule="evenodd" fill-opacity="1" stroke="#000000" stroke-opacity="1" stroke-width="3.2"/>
<circle clip-path="url(#clip832)" cx="559.112" cy="710.137" r="14.4" fill="#3da44d" fill-rule="evenodd" fill-opacity="1" stroke="#000000" stroke-opacity="1" stroke-width="3.2"/>
<circle clip-path="url(#clip832)" cx="592.452" cy="657.932" r="14.4" fill="#3da44d" fill-rule="evenodd" fill-opacity="1" stroke="#000000" stroke-opacity="1" stroke-width="3.2"/>
<circle clip-path="url(#clip832)" cx="625.791" cy="647.444" r="14.4" fill="#3da44d" fill-rule="evenodd" fill-opacity="1" stroke="#000000" stroke-opacity="1" stroke-width="3.2"/>
<circle clip-path="url(#clip832)" cx="659.13" cy="594.51" r="14.4" fill="#3da44d" fill-rule="evenodd" fill-opacity="1" stroke="#000000" stroke-opacity="1" stroke-width="3.2"/>
<circle clip-path="url(#clip832)" cx="692.469" cy="527.844" r="14.4" fill="#3da44d" fill-rule="evenodd" fill-opacity="1" stroke="#000000" stroke-opacity="1" stroke-width="3.2"/>
<circle clip-path="url(#clip832)" cx="725.808" cy="482.314" r="14.4" fill="#3da44d" fill-rule="evenodd" fill-opacity="1" stroke="#000000" stroke-opacity="1" stroke-width="3.2"/>
<circle clip-path="url(#clip832)" cx="759.147" cy="467.122" r="14.4" fill="#3da44d" fill-rule="evenodd" fill-opacity="1" stroke="#000000" stroke-opacity="1" stroke-width="3.2"/>
<circle clip-path="url(#clip832)" cx="792.486" cy="444.227" r="14.4" fill="#3da44d" fill-rule="evenodd" fill-opacity="1" stroke="#000000" stroke-opacity="1" stroke-width="3.2"/>
<circle clip-path="url(#clip832)" cx="825.825" cy="440.158" r="14.4" fill="#3da44d" fill-rule="evenodd" fill-opacity="1" stroke="#000000" stroke-opacity="1" stroke-width="3.2"/>
<circle clip-path="url(#clip832)" cx="859.164" cy="338.093" r="14.4" fill="#3da44d" fill-rule="evenodd" fill-opacity="1" stroke="#000000" stroke-opacity="1" stroke-width="3.2"/>
<circle clip-path="url(#clip832)" cx="892.503" cy="384.424" r="14.4" fill="#3da44d" fill-rule="evenodd" fill-opacity="1" stroke="#000000" stroke-opacity="1" stroke-width="3.2"/>
<circle clip-path="url(#clip832)" cx="925.843" cy="382.118" r="14.4" fill="#3da44d" fill-rule="evenodd" fill-opacity="1" stroke="#000000" stroke-opacity="1" stroke-width="3.2"/>
<circle clip-path="url(#clip832)" cx="959.182" cy="290.443" r="14.4" fill="#3da44d" fill-rule="evenodd" fill-opacity="1" stroke="#000000" stroke-opacity="1" stroke-width="3.2"/>
<circle clip-path="url(#clip832)" cx="992.521" cy="288.559" r="14.4" fill="#3da44d" fill-rule="evenodd" fill-opacity="1" stroke="#000000" stroke-opacity="1" stroke-width="3.2"/>
<circle clip-path="url(#clip832)" cx="1025.86" cy="256.202" r="14.4" fill="#3da44d" fill-rule="evenodd" fill-opacity="1" stroke="#000000" stroke-opacity="1" stroke-width="3.2"/>
<circle clip-path="url(#clip832)" cx="1059.2" cy="215.907" r="14.4" fill="#3da44d" fill-rule="evenodd" fill-opacity="1" stroke="#000000" stroke-opacity="1" stroke-width="3.2"/>
<circle clip-path="url(#clip832)" cx="1092.54" cy="271.067" r="14.4" fill="#3da44d" fill-rule="evenodd" fill-opacity="1" stroke="#000000" stroke-opacity="1" stroke-width="3.2"/>
<circle clip-path="url(#clip832)" cx="1125.88" cy="262.196" r="14.4" fill="#3da44d" fill-rule="evenodd" fill-opacity="1" stroke="#000000" stroke-opacity="1" stroke-width="3.2"/>
<circle clip-path="url(#clip832)" cx="1159.22" cy="236.443" r="14.4" fill="#3da44d" fill-rule="evenodd" fill-opacity="1" stroke="#000000" stroke-opacity="1" stroke-width="3.2"/>
<circle clip-path="url(#clip832)" cx="1192.56" cy="236.613" r="14.4" fill="#3da44d" fill-rule="evenodd" fill-opacity="1" stroke="#000000" stroke-opacity="1" stroke-width="3.2"/>
<circle clip-path="url(#clip832)" cx="1225.89" cy="230.106" r="14.4" fill="#3da44d" fill-rule="evenodd" fill-opacity="1" stroke="#000000" stroke-opacity="1" stroke-width="3.2"/>
<circle clip-path="url(#clip832)" cx="1259.23" cy="241.873" r="14.4" fill="#3da44d" fill-rule="evenodd" fill-opacity="1" stroke="#000000" stroke-opacity="1" stroke-width="3.2"/>
<circle clip-path="url(#clip832)" cx="1292.57" cy="186.158" r="14.4" fill="#3da44d" fill-rule="evenodd" fill-opacity="1" stroke="#000000" stroke-opacity="1" stroke-width="3.2"/>
<circle clip-path="url(#clip832)" cx="1325.91" cy="218.25" r="14.4" fill="#3da44d" fill-rule="evenodd" fill-opacity="1" stroke="#000000" stroke-opacity="1" stroke-width="3.2"/>
<circle clip-path="url(#clip832)" cx="1359.25" cy="209.638" r="14.4" fill="#3da44d" fill-rule="evenodd" fill-opacity="1" stroke="#000000" stroke-opacity="1" stroke-width="3.2"/>
<circle clip-path="url(#clip832)" cx="1392.59" cy="221.331" r="14.4" fill="#3da44d" fill-rule="evenodd" fill-opacity="1" stroke="#000000" stroke-opacity="1" stroke-width="3.2"/>
<circle clip-path="url(#clip832)" cx="1425.93" cy="191.341" r="14.4" fill="#3da44d" fill-rule="evenodd" fill-opacity="1" stroke="#000000" stroke-opacity="1" stroke-width="3.2"/>
<circle clip-path="url(#clip832)" cx="1459.27" cy="224.527" r="14.4" fill="#3da44d" fill-rule="evenodd" fill-opacity="1" stroke="#000000" stroke-opacity="1" stroke-width="3.2"/>
<circle clip-path="url(#clip832)" cx="1492.61" cy="147.385" r="14.4" fill="#3da44d" fill-rule="evenodd" fill-opacity="1" stroke="#000000" stroke-opacity="1" stroke-width="3.2"/>
<circle clip-path="url(#clip832)" cx="1525.95" cy="183.415" r="14.4" fill="#3da44d" fill-rule="evenodd" fill-opacity="1" stroke="#000000" stroke-opacity="1" stroke-width="3.2"/>
<circle clip-path="url(#clip832)" cx="1559.29" cy="184.603" r="14.4" fill="#3da44d" fill-rule="evenodd" fill-opacity="1" stroke="#000000" stroke-opacity="1" stroke-width="3.2"/>
<circle clip-path="url(#clip832)" cx="1592.62" cy="136.831" r="14.4" fill="#3da44d" fill-rule="evenodd" fill-opacity="1" stroke="#000000" stroke-opacity="1" stroke-width="3.2"/>
<circle clip-path="url(#clip832)" cx="1625.96" cy="197.111" r="14.4" fill="#3da44d" fill-rule="evenodd" fill-opacity="1" stroke="#000000" stroke-opacity="1" stroke-width="3.2"/>
<circle clip-path="url(#clip832)" cx="1659.3" cy="212.624" r="14.4" fill="#3da44d" fill-rule="evenodd" fill-opacity="1" stroke="#000000" stroke-opacity="1" stroke-width="3.2"/>
<circle clip-path="url(#clip832)" cx="1692.64" cy="209.568" r="14.4" fill="#3da44d" fill-rule="evenodd" fill-opacity="1" stroke="#000000" stroke-opacity="1" stroke-width="3.2"/>
<circle clip-path="url(#clip832)" cx="1725.98" cy="161.533" r="14.4" fill="#3da44d" fill-rule="evenodd" fill-opacity="1" stroke="#000000" stroke-opacity="1" stroke-width="3.2"/>
<circle clip-path="url(#clip832)" cx="1759.32" cy="181.374" r="14.4" fill="#3da44d" fill-rule="evenodd" fill-opacity="1" stroke="#000000" stroke-opacity="1" stroke-width="3.2"/>
<circle clip-path="url(#clip832)" cx="1792.66" cy="143.341" r="14.4" fill="#3da44d" fill-rule="evenodd" fill-opacity="1" stroke="#000000" stroke-opacity="1" stroke-width="3.2"/>
<circle clip-path="url(#clip832)" cx="1826" cy="201.852" r="14.4" fill="#3da44d" fill-rule="evenodd" fill-opacity="1" stroke="#000000" stroke-opacity="1" stroke-width="3.2"/>
<circle clip-path="url(#clip832)" cx="1859.34" cy="156.945" r="14.4" fill="#3da44d" fill-rule="evenodd" fill-opacity="1" stroke="#000000" stroke-opacity="1" stroke-width="3.2"/>
<circle clip-path="url(#clip832)" cx="1892.68" cy="160.001" r="14.4" fill="#3da44d" fill-rule="evenodd" fill-opacity="1" stroke="#000000" stroke-opacity="1" stroke-width="3.2"/>
<circle clip-path="url(#clip832)" cx="1926.02" cy="174.762" r="14.4" fill="#3da44d" fill-rule="evenodd" fill-opacity="1" stroke="#000000" stroke-opacity="1" stroke-width="3.2"/>
<circle clip-path="url(#clip832)" cx="1959.35" cy="164.681" r="14.4" fill="#3da44d" fill-rule="evenodd" fill-opacity="1" stroke="#000000" stroke-opacity="1" stroke-width="3.2"/>
<circle clip-path="url(#clip832)" cx="1992.69" cy="126.625" r="14.4" fill="#3da44d" fill-rule="evenodd" fill-opacity="1" stroke="#000000" stroke-opacity="1" stroke-width="3.2"/>
<circle clip-path="url(#clip832)" cx="2026.03" cy="150.708" r="14.4" fill="#3da44d" fill-rule="evenodd" fill-opacity="1" stroke="#000000" stroke-opacity="1" stroke-width="3.2"/>
<circle clip-path="url(#clip832)" cx="2059.37" cy="118.332" r="14.4" fill="#3da44d" fill-rule="evenodd" fill-opacity="1" stroke="#000000" stroke-opacity="1" stroke-width="3.2"/>
<circle clip-path="url(#clip832)" cx="2092.71" cy="143.708" r="14.4" fill="#3da44d" fill-rule="evenodd" fill-opacity="1" stroke="#000000" stroke-opacity="1" stroke-width="3.2"/>
<circle clip-path="url(#clip832)" cx="2126.05" cy="199.374" r="14.4" fill="#3da44d" fill-rule="evenodd" fill-opacity="1" stroke="#000000" stroke-opacity="1" stroke-width="3.2"/>
<circle clip-path="url(#clip832)" cx="2159.39" cy="164.772" r="14.4" fill="#3da44d" fill-rule="evenodd" fill-opacity="1" stroke="#000000" stroke-opacity="1" stroke-width="3.2"/>
<circle clip-path="url(#clip832)" cx="2192.73" cy="162.54" r="14.4" fill="#3da44d" fill-rule="evenodd" fill-opacity="1" stroke="#000000" stroke-opacity="1" stroke-width="3.2"/>
<circle clip-path="url(#clip832)" cx="2226.07" cy="88.0895" r="14.4" fill="#3da44d" fill-rule="evenodd" fill-opacity="1" stroke="#000000" stroke-opacity="1" stroke-width="3.2"/>
<circle clip-path="url(#clip832)" cx="2259.41" cy="86.1857" r="14.4" fill="#3da44d" fill-rule="evenodd" fill-opacity="1" stroke="#000000" stroke-opacity="1" stroke-width="3.2"/>
<circle clip-path="url(#clip832)" cx="2292.75" cy="146.517" r="14.4" fill="#3da44d" fill-rule="evenodd" fill-opacity="1" stroke="#000000" stroke-opacity="1" stroke-width="3.2"/>
<path clip-path="url(#clip830)" d="M303.068 300.469 L993.227 300.469 L993.227 93.1086 L303.068 93.1086  Z" fill="#ffffff" fill-rule="evenodd" fill-opacity="1"/>
<polyline clip-path="url(#clip830)" style="stroke:#000000; stroke-linecap:round; stroke-linejoin:round; stroke-width:4; stroke-opacity:1; fill:none" points="303.068,300.469 993.227,300.469 993.227,93.1086 303.068,93.1086 303.068,300.469 "/>
<polyline clip-path="url(#clip830)" style="stroke:#009af9; stroke-linecap:round; stroke-linejoin:round; stroke-width:4; stroke-opacity:1; fill:none" points="326.628,144.949 467.986,144.949 "/>
<path clip-path="url(#clip830)" d="M496.221 131.511 L496.221 144.497 L502.101 144.497 Q505.365 144.497 507.147 142.807 Q508.929 141.118 508.929 137.993 Q508.929 134.891 507.147 133.201 Q505.365 131.511 502.101 131.511 L496.221 131.511 M491.545 127.669 L502.101 127.669 Q507.911 127.669 510.874 130.307 Q513.86 132.923 513.86 137.993 Q513.86 143.108 510.874 145.724 Q507.911 148.34 502.101 148.34 L496.221 148.34 L496.221 162.229 L491.545 162.229 L491.545 127.669 Z" fill="#000000" fill-rule="nonzero" fill-opacity="1" /><path clip-path="url(#clip830)" d="M521.36 158.293 L528.999 158.293 L528.999 131.928 L520.689 133.595 L520.689 129.335 L528.952 127.669 L533.628 127.669 L533.628 158.293 L541.267 158.293 L541.267 162.229 L521.36 162.229 L521.36 158.293 Z" fill="#000000" fill-rule="nonzero" fill-opacity="1" /><polyline clip-path="url(#clip830)" style="stroke:#e26f46; stroke-linecap:round; stroke-linejoin:round; stroke-width:4; stroke-opacity:1; fill:none" points="326.628,196.789 467.986,196.789 "/>
<path clip-path="url(#clip830)" d="M496.221 183.351 L496.221 196.337 L502.101 196.337 Q505.365 196.337 507.147 194.647 Q508.929 192.958 508.929 189.833 Q508.929 186.731 507.147 185.041 Q505.365 183.351 502.101 183.351 L496.221 183.351 M491.545 179.509 L502.101 179.509 Q507.911 179.509 510.874 182.147 Q513.86 184.763 513.86 189.833 Q513.86 194.948 510.874 197.564 Q507.911 200.18 502.101 200.18 L496.221 200.18 L496.221 214.069 L491.545 214.069 L491.545 179.509 Z" fill="#000000" fill-rule="nonzero" fill-opacity="1" /><path clip-path="url(#clip830)" d="M524.577 210.133 L540.897 210.133 L540.897 214.069 L518.953 214.069 L518.953 210.133 Q521.615 207.379 526.198 202.749 Q530.804 198.096 531.985 196.754 Q534.23 194.231 535.11 192.495 Q536.013 190.735 536.013 189.046 Q536.013 186.291 534.068 184.555 Q532.147 182.819 529.045 182.819 Q526.846 182.819 524.392 183.583 Q521.962 184.347 519.184 185.897 L519.184 181.175 Q522.008 180.041 524.462 179.462 Q526.915 178.884 528.952 178.884 Q534.323 178.884 537.517 181.569 Q540.712 184.254 540.712 188.745 Q540.712 190.874 539.901 192.796 Q539.114 194.694 537.008 197.286 Q536.429 197.958 533.327 201.175 Q530.226 204.37 524.577 210.133 Z" fill="#000000" fill-rule="nonzero" fill-opacity="1" /><circle clip-path="url(#clip830)" cx="397.307" cy="248.629" r="20.48" fill="#3da44d" fill-rule="evenodd" fill-opacity="1" stroke="#000000" stroke-opacity="1" stroke-width="4.55111"/>
<path clip-path="url(#clip830)" d="M491.545 231.349 L497.842 231.349 L513.166 260.261 L513.166 231.349 L517.703 231.349 L517.703 265.909 L511.406 265.909 L496.082 236.997 L496.082 265.909 L491.545 265.909 L491.545 231.349 Z" fill="#000000" fill-rule="nonzero" fill-opacity="1" /><path clip-path="url(#clip830)" d="M536.869 242.969 Q533.443 242.969 531.452 245.654 Q529.462 248.316 529.462 252.969 Q529.462 257.622 531.429 260.307 Q533.42 262.969 536.869 262.969 Q540.272 262.969 542.263 260.284 Q544.253 257.598 544.253 252.969 Q544.253 248.362 542.263 245.677 Q540.272 242.969 536.869 242.969 M536.869 239.358 Q542.425 239.358 545.596 242.969 Q548.767 246.58 548.767 252.969 Q548.767 259.335 545.596 262.969 Q542.425 266.58 536.869 266.58 Q531.29 266.58 528.119 262.969 Q524.971 259.335 524.971 252.969 Q524.971 246.58 528.119 242.969 Q531.29 239.358 536.869 239.358 Z" fill="#000000" fill-rule="nonzero" fill-opacity="1" /><path clip-path="url(#clip830)" d="M555.827 239.983 L560.087 239.983 L560.087 265.909 L555.827 265.909 L555.827 239.983 M555.827 229.89 L560.087 229.89 L560.087 235.284 L555.827 235.284 L555.827 229.89 Z" fill="#000000" fill-rule="nonzero" fill-opacity="1" /><path clip-path="url(#clip830)" d="M585.526 240.747 L585.526 244.774 Q583.721 243.849 581.776 243.386 Q579.832 242.923 577.749 242.923 Q574.577 242.923 572.98 243.895 Q571.406 244.867 571.406 246.811 Q571.406 248.293 572.54 249.149 Q573.674 249.983 577.1 250.747 L578.559 251.071 Q583.096 252.043 584.994 253.825 Q586.915 255.585 586.915 258.756 Q586.915 262.367 584.045 264.473 Q581.198 266.58 576.198 266.58 Q574.114 266.58 571.846 266.163 Q569.6 265.77 567.1 264.96 L567.1 260.561 Q569.462 261.788 571.753 262.413 Q574.045 263.015 576.29 263.015 Q579.299 263.015 580.92 261.997 Q582.54 260.955 582.54 259.08 Q582.54 257.344 581.36 256.418 Q580.202 255.492 576.244 254.636 L574.762 254.288 Q570.804 253.455 569.045 251.742 Q567.286 250.006 567.286 246.997 Q567.286 243.339 569.878 241.349 Q572.471 239.358 577.239 239.358 Q579.6 239.358 581.684 239.705 Q583.767 240.052 585.526 240.747 Z" fill="#000000" fill-rule="nonzero" fill-opacity="1" /><path clip-path="url(#clip830)" d="M604.484 268.316 Q602.679 272.946 600.966 274.358 Q599.253 275.77 596.383 275.77 L592.98 275.77 L592.98 272.205 L595.48 272.205 Q597.239 272.205 598.211 271.372 Q599.184 270.538 600.364 267.436 L601.128 265.492 L590.642 239.983 L595.156 239.983 L603.258 260.261 L611.359 239.983 L615.873 239.983 L604.484 268.316 Z" fill="#000000" fill-rule="nonzero" fill-opacity="1" /><path clip-path="url(#clip830)" d="M646.869 242.969 Q643.443 242.969 641.452 245.654 Q639.461 248.316 639.461 252.969 Q639.461 257.622 641.429 260.307 Q643.419 262.969 646.869 262.969 Q650.271 262.969 652.262 260.284 Q654.253 257.598 654.253 252.969 Q654.253 248.362 652.262 245.677 Q650.271 242.969 646.869 242.969 M646.869 239.358 Q652.424 239.358 655.595 242.969 Q658.767 246.58 658.767 252.969 Q658.767 259.335 655.595 262.969 Q652.424 266.58 646.869 266.58 Q641.29 266.58 638.119 262.969 Q634.97 259.335 634.97 252.969 Q634.97 246.58 638.119 242.969 Q641.29 239.358 646.869 239.358 Z" fill="#000000" fill-rule="nonzero" fill-opacity="1" /><path clip-path="url(#clip830)" d="M684.438 252.969 Q684.438 248.27 682.493 245.608 Q680.572 242.923 677.192 242.923 Q673.813 242.923 671.868 245.608 Q669.947 248.27 669.947 252.969 Q669.947 257.668 671.868 260.353 Q673.813 263.015 677.192 263.015 Q680.572 263.015 682.493 260.353 Q684.438 257.668 684.438 252.969 M669.947 243.918 Q671.29 241.603 673.327 240.492 Q675.387 239.358 678.234 239.358 Q682.956 239.358 685.896 243.108 Q688.859 246.858 688.859 252.969 Q688.859 259.08 685.896 262.83 Q682.956 266.58 678.234 266.58 Q675.387 266.58 673.327 265.469 Q671.29 264.335 669.947 262.02 L669.947 265.909 L665.665 265.909 L665.665 229.89 L669.947 229.89 L669.947 243.918 Z" fill="#000000" fill-rule="nonzero" fill-opacity="1" /><path clip-path="url(#clip830)" d="M712.447 240.747 L712.447 244.774 Q710.641 243.849 708.697 243.386 Q706.752 242.923 704.669 242.923 Q701.498 242.923 699.901 243.895 Q698.327 244.867 698.327 246.811 Q698.327 248.293 699.461 249.149 Q700.595 249.983 704.021 250.747 L705.479 251.071 Q710.016 252.043 711.914 253.825 Q713.836 255.585 713.836 258.756 Q713.836 262.367 710.965 264.473 Q708.118 266.58 703.118 266.58 Q701.035 266.58 698.766 266.163 Q696.521 265.77 694.021 264.96 L694.021 260.561 Q696.382 261.788 698.674 262.413 Q700.965 263.015 703.211 263.015 Q706.22 263.015 707.84 261.997 Q709.461 260.955 709.461 259.08 Q709.461 257.344 708.28 256.418 Q707.123 255.492 703.164 254.636 L701.683 254.288 Q697.725 253.455 695.965 251.742 Q694.206 250.006 694.206 246.997 Q694.206 243.339 696.799 241.349 Q699.391 239.358 704.16 239.358 Q706.521 239.358 708.604 239.705 Q710.688 240.052 712.447 240.747 Z" fill="#000000" fill-rule="nonzero" fill-opacity="1" /><path clip-path="url(#clip830)" d="M742.794 251.881 L742.794 253.964 L723.211 253.964 Q723.488 258.362 725.85 260.677 Q728.234 262.969 732.47 262.969 Q734.924 262.969 737.215 262.367 Q739.53 261.765 741.799 260.561 L741.799 264.589 Q739.507 265.561 737.099 266.071 Q734.692 266.58 732.215 266.58 Q726.012 266.58 722.377 262.969 Q718.766 259.358 718.766 253.2 Q718.766 246.835 722.192 243.108 Q725.641 239.358 731.475 239.358 Q736.706 239.358 739.738 242.737 Q742.794 246.094 742.794 251.881 M738.535 250.631 Q738.488 247.136 736.567 245.052 Q734.669 242.969 731.521 242.969 Q727.956 242.969 725.803 244.983 Q723.674 246.997 723.35 250.654 L738.535 250.631 Z" fill="#000000" fill-rule="nonzero" fill-opacity="1" /><path clip-path="url(#clip830)" d="M764.808 243.964 Q764.09 243.548 763.234 243.362 Q762.4 243.154 761.382 243.154 Q757.771 243.154 755.826 245.515 Q753.905 247.853 753.905 252.251 L753.905 265.909 L749.623 265.909 L749.623 239.983 L753.905 239.983 L753.905 244.011 Q755.248 241.649 757.4 240.515 Q759.553 239.358 762.632 239.358 Q763.072 239.358 763.604 239.427 Q764.136 239.474 764.785 239.589 L764.808 243.964 Z" fill="#000000" fill-rule="nonzero" fill-opacity="1" /><path clip-path="url(#clip830)" d="M766.22 239.983 L770.734 239.983 L778.835 261.742 L786.937 239.983 L791.451 239.983 L781.729 265.909 L775.942 265.909 L766.22 239.983 Z" fill="#000000" fill-rule="nonzero" fill-opacity="1" /><path clip-path="url(#clip830)" d="M819.506 251.881 L819.506 253.964 L799.923 253.964 Q800.201 258.362 802.562 260.677 Q804.946 262.969 809.182 262.969 Q811.636 262.969 813.928 262.367 Q816.243 261.765 818.511 260.561 L818.511 264.589 Q816.219 265.561 813.812 266.071 Q811.405 266.58 808.928 266.58 Q802.724 266.58 799.09 262.969 Q795.479 259.358 795.479 253.2 Q795.479 246.835 798.905 243.108 Q802.354 239.358 808.187 239.358 Q813.419 239.358 816.451 242.737 Q819.506 246.094 819.506 251.881 M815.247 250.631 Q815.201 247.136 813.28 245.052 Q811.382 242.969 808.233 242.969 Q804.669 242.969 802.516 244.983 Q800.386 246.997 800.062 250.654 L815.247 250.631 Z" fill="#000000" fill-rule="nonzero" fill-opacity="1" /><path clip-path="url(#clip830)" d="M843.557 243.918 L843.557 229.89 L847.816 229.89 L847.816 265.909 L843.557 265.909 L843.557 262.02 Q842.215 264.335 840.155 265.469 Q838.117 266.58 835.247 266.58 Q830.548 266.58 827.585 262.83 Q824.645 259.08 824.645 252.969 Q824.645 246.858 827.585 243.108 Q830.548 239.358 835.247 239.358 Q838.117 239.358 840.155 240.492 Q842.215 241.603 843.557 243.918 M829.043 252.969 Q829.043 257.668 830.965 260.353 Q832.909 263.015 836.289 263.015 Q839.668 263.015 841.613 260.353 Q843.557 257.668 843.557 252.969 Q843.557 248.27 841.613 245.608 Q839.668 242.923 836.289 242.923 Q832.909 242.923 830.965 245.608 Q829.043 248.27 829.043 252.969 Z" fill="#000000" fill-rule="nonzero" fill-opacity="1" /><path clip-path="url(#clip830)" d="M888.719 243.918 L888.719 229.89 L892.978 229.89 L892.978 265.909 L888.719 265.909 L888.719 262.02 Q887.376 264.335 885.316 265.469 Q883.279 266.58 880.409 266.58 Q875.71 266.58 872.747 262.83 Q869.807 259.08 869.807 252.969 Q869.807 246.858 872.747 243.108 Q875.71 239.358 880.409 239.358 Q883.279 239.358 885.316 240.492 Q887.376 241.603 888.719 243.918 M874.205 252.969 Q874.205 257.668 876.127 260.353 Q878.071 263.015 881.451 263.015 Q884.83 263.015 886.775 260.353 Q888.719 257.668 888.719 252.969 Q888.719 248.27 886.775 245.608 Q884.83 242.923 881.451 242.923 Q878.071 242.923 876.127 245.608 Q874.205 248.27 874.205 252.969 Z" fill="#000000" fill-rule="nonzero" fill-opacity="1" /><path clip-path="url(#clip830)" d="M913.534 252.876 Q908.372 252.876 906.381 254.057 Q904.39 255.237 904.39 258.085 Q904.39 260.353 905.872 261.696 Q907.376 263.015 909.946 263.015 Q913.487 263.015 915.617 260.515 Q917.77 257.992 917.77 253.825 L917.77 252.876 L913.534 252.876 M922.029 251.117 L922.029 265.909 L917.77 265.909 L917.77 261.973 Q916.312 264.335 914.136 265.469 Q911.96 266.58 908.812 266.58 Q904.83 266.58 902.469 264.358 Q900.131 262.112 900.131 258.362 Q900.131 253.987 903.048 251.765 Q905.987 249.543 911.798 249.543 L917.77 249.543 L917.77 249.126 Q917.77 246.187 915.825 244.589 Q913.904 242.969 910.409 242.969 Q908.187 242.969 906.08 243.501 Q903.974 244.034 902.029 245.099 L902.029 241.163 Q904.367 240.261 906.566 239.821 Q908.765 239.358 910.849 239.358 Q916.474 239.358 919.251 242.274 Q922.029 245.191 922.029 251.117 Z" fill="#000000" fill-rule="nonzero" fill-opacity="1" /><path clip-path="url(#clip830)" d="M935.015 232.622 L935.015 239.983 L943.788 239.983 L943.788 243.293 L935.015 243.293 L935.015 257.367 Q935.015 260.538 935.872 261.441 Q936.751 262.344 939.413 262.344 L943.788 262.344 L943.788 265.909 L939.413 265.909 Q934.483 265.909 932.608 264.08 Q930.733 262.228 930.733 257.367 L930.733 243.293 L927.608 243.293 L927.608 239.983 L930.733 239.983 L930.733 232.622 L935.015 232.622 Z" fill="#000000" fill-rule="nonzero" fill-opacity="1" /><path clip-path="url(#clip830)" d="M961.172 252.876 Q956.01 252.876 954.02 254.057 Q952.029 255.237 952.029 258.085 Q952.029 260.353 953.51 261.696 Q955.015 263.015 957.584 263.015 Q961.126 263.015 963.256 260.515 Q965.408 257.992 965.408 253.825 L965.408 252.876 L961.172 252.876 M969.668 251.117 L969.668 265.909 L965.408 265.909 L965.408 261.973 Q963.95 264.335 961.774 265.469 Q959.598 266.58 956.45 266.58 Q952.469 266.58 950.108 264.358 Q947.77 262.112 947.77 258.362 Q947.77 253.987 950.686 251.765 Q953.626 249.543 959.436 249.543 L965.408 249.543 L965.408 249.126 Q965.408 246.187 963.464 244.589 Q961.543 242.969 958.047 242.969 Q955.825 242.969 953.719 243.501 Q951.612 244.034 949.668 245.099 L949.668 241.163 Q952.006 240.261 954.205 239.821 Q956.404 239.358 958.487 239.358 Q964.112 239.358 966.89 242.274 Q969.668 245.191 969.668 251.117 Z" fill="#000000" fill-rule="nonzero" fill-opacity="1" /></svg>
