<?xml version="1.0" encoding="utf-8"?>
<svg xmlns="http://www.w3.org/2000/svg" xmlns:xlink="http://www.w3.org/1999/xlink" width="600" height="400" viewBox="0 0 2400 1600">
<defs>
  <clipPath id="clip470">
    <rect x="0" y="0" width="2400" height="1600"/>
  </clipPath>
</defs>
<path clip-path="url(#clip470)" d="M0 1600 L2400 1600 L2400 0 L0 0  Z" fill="#ffffff" fill-rule="evenodd" fill-opacity="1"/>
<defs>
  <clipPath id="clip471">
    <rect x="480" y="0" width="1681" height="1600"/>
  </clipPath>
</defs>
<path clip-path="url(#clip470)" d="M232.389 1423.18 L2352.76 1423.18 L2352.76 47.2441 L232.389 47.2441  Z" fill="#ffffff" fill-rule="evenodd" fill-opacity="1"/>
<defs>
  <clipPath id="clip472">
    <rect x="232" y="47" width="2121" height="1377"/>
  </clipPath>
</defs>
<polyline clip-path="url(#clip472)" style="stroke:#000000; stroke-linecap:round; stroke-linejoin:round; stroke-width:2; stroke-opacity:0.1; fill:none" points="292.4,1423.18 292.4,47.2441 "/>
<polyline clip-path="url(#clip472)" style="stroke:#000000; stroke-linecap:round; stroke-linejoin:round; stroke-width:2; stroke-opacity:0.1; fill:none" points="625.791,1423.18 625.791,47.2441 "/>
<polyline clip-path="url(#clip472)" style="stroke:#000000; stroke-linecap:round; stroke-linejoin:round; stroke-width:2; stroke-opacity:0.1; fill:none" points="959.182,1423.18 959.182,47.2441 "/>
<polyline clip-path="url(#clip472)" style="stroke:#000000; stroke-linecap:round; stroke-linejoin:round; stroke-width:2; stroke-opacity:0.1; fill:none" points="1292.57,1423.18 1292.57,47.2441 "/>
<polyline clip-path="url(#clip472)" style="stroke:#000000; stroke-linecap:round; stroke-linejoin:round; stroke-width:2; stroke-opacity:0.1; fill:none" points="1625.96,1423.18 1625.96,47.2441 "/>
<polyline clip-path="url(#clip472)" style="stroke:#000000; stroke-linecap:round; stroke-linejoin:round; stroke-width:2; stroke-opacity:0.1; fill:none" points="1959.35,1423.18 1959.35,47.2441 "/>
<polyline clip-path="url(#clip472)" style="stroke:#000000; stroke-linecap:round; stroke-linejoin:round; stroke-width:2; stroke-opacity:0.1; fill:none" points="2292.75,1423.18 2292.75,47.2441 "/>
<polyline clip-path="url(#clip472)" style="stroke:#000000; stroke-linecap:round; stroke-linejoin:round; stroke-width:2; stroke-opacity:0.1; fill:none" points="232.389,1384.24 2352.76,1384.24 "/>
<polyline clip-path="url(#clip472)" style="stroke:#000000; stroke-linecap:round; stroke-linejoin:round; stroke-width:2; stroke-opacity:0.1; fill:none" points="232.389,1072.18 2352.76,1072.18 "/>
<polyline clip-path="url(#clip472)" style="stroke:#000000; stroke-linecap:round; stroke-linejoin:round; stroke-width:2; stroke-opacity:0.1; fill:none" points="232.389,760.122 2352.76,760.122 "/>
<polyline clip-path="url(#clip472)" style="stroke:#000000; stroke-linecap:round; stroke-linejoin:round; stroke-width:2; stroke-opacity:0.1; fill:none" points="232.389,448.064 2352.76,448.064 "/>
<polyline clip-path="url(#clip472)" style="stroke:#000000; stroke-linecap:round; stroke-linejoin:round; stroke-width:2; stroke-opacity:0.1; fill:none" points="232.389,136.006 2352.76,136.006 "/>
<polyline clip-path="url(#clip470)" style="stroke:#000000; stroke-linecap:round; stroke-linejoin:round; stroke-width:4; stroke-opacity:1; fill:none" points="232.389,1423.18 2352.76,1423.18 "/>
<polyline clip-path="url(#clip470)" style="stroke:#000000; stroke-linecap:round; stroke-linejoin:round; stroke-width:4; stroke-opacity:1; fill:none" points="292.4,1423.18 292.4,1404.28 "/>
<polyline clip-path="url(#clip470)" style="stroke:#000000; stroke-linecap:round; stroke-linejoin:round; stroke-width:4; stroke-opacity:1; fill:none" points="625.791,1423.18 625.791,1404.28 "/>
<polyline clip-path="url(#clip470)" style="stroke:#000000; stroke-linecap:round; stroke-linejoin:round; stroke-width:4; stroke-opacity:1; fill:none" points="959.182,1423.18 959.182,1404.28 "/>
<polyline clip-path="url(#clip470)" style="stroke:#000000; stroke-linecap:round; stroke-linejoin:round; stroke-width:4; stroke-opacity:1; fill:none" points="1292.57,1423.18 1292.57,1404.28 "/>
<polyline clip-path="url(#clip470)" style="stroke:#000000; stroke-linecap:round; stroke-linejoin:round; stroke-width:4; stroke-opacity:1; fill:none" points="1625.96,1423.18 1625.96,1404.28 "/>
<polyline clip-path="url(#clip470)" style="stroke:#000000; stroke-linecap:round; stroke-linejoin:round; stroke-width:4; stroke-opacity:1; fill:none" points="1959.35,1423.18 1959.35,1404.28 "/>
<polyline clip-path="url(#clip470)" style="stroke:#000000; stroke-linecap:round; stroke-linejoin:round; stroke-width:4; stroke-opacity:1; fill:none" points="2292.75,1423.18 2292.75,1404.28 "/>
<path clip-path="url(#clip470)" d="M292.4 1454.1 Q288.789 1454.1 286.96 1457.66 Q285.154 1461.2 285.154 1468.33 Q285.154 1475.44 286.96 1479.01 Q288.789 1482.55 292.4 1482.55 Q296.034 1482.55 297.84 1479.01 Q299.668 1475.44 299.668 1468.33 Q299.668 1461.2 297.84 1457.66 Q296.034 1454.1 292.4 1454.1 M292.4 1450.39 Q298.21 1450.39 301.265 1455 Q304.344 1459.58 304.344 1468.33 Q304.344 1477.06 301.265 1481.67 Q298.21 1486.25 292.4 1486.25 Q286.59 1486.25 283.511 1481.67 Q280.455 1477.06 280.455 1468.33 Q280.455 1459.58 283.511 1455 Q286.59 1450.39 292.4 1450.39 Z" fill="#000000" fill-rule="nonzero" fill-opacity="1" /><path clip-path="url(#clip470)" d="M616.173 1481.64 L623.812 1481.64 L623.812 1455.28 L615.501 1456.95 L615.501 1452.69 L623.765 1451.02 L628.441 1451.02 L628.441 1481.64 L636.08 1481.64 L636.08 1485.58 L616.173 1485.58 L616.173 1481.64 Z" fill="#000000" fill-rule="nonzero" fill-opacity="1" /><path clip-path="url(#clip470)" d="M953.834 1481.64 L970.154 1481.64 L970.154 1485.58 L948.209 1485.58 L948.209 1481.64 Q950.872 1478.89 955.455 1474.26 Q960.061 1469.61 961.242 1468.27 Q963.487 1465.74 964.367 1464.01 Q965.27 1462.25 965.27 1460.56 Q965.27 1457.8 963.325 1456.07 Q961.404 1454.33 958.302 1454.33 Q956.103 1454.33 953.649 1455.09 Q951.219 1455.86 948.441 1457.41 L948.441 1452.69 Q951.265 1451.55 953.719 1450.97 Q956.172 1450.39 958.209 1450.39 Q963.58 1450.39 966.774 1453.08 Q969.969 1455.77 969.969 1460.26 Q969.969 1462.39 969.158 1464.31 Q968.371 1466.2 966.265 1468.8 Q965.686 1469.47 962.584 1472.69 Q959.483 1475.88 953.834 1481.64 Z" fill="#000000" fill-rule="nonzero" fill-opacity="1" /><path clip-path="url(#clip470)" d="M1296.82 1466.95 Q1300.18 1467.66 1302.05 1469.93 Q1303.95 1472.2 1303.95 1475.53 Q1303.95 1480.65 1300.43 1483.45 Q1296.91 1486.25 1290.43 1486.25 Q1288.26 1486.25 1285.94 1485.81 Q1283.65 1485.39 1281.2 1484.54 L1281.2 1480.02 Q1283.14 1481.16 1285.45 1481.74 Q1287.77 1482.32 1290.29 1482.32 Q1294.69 1482.32 1296.98 1480.58 Q1299.3 1478.84 1299.3 1475.53 Q1299.3 1472.48 1297.14 1470.77 Q1295.01 1469.03 1291.2 1469.03 L1287.17 1469.03 L1287.17 1465.19 L1291.38 1465.19 Q1294.83 1465.19 1296.66 1463.82 Q1298.49 1462.43 1298.49 1459.84 Q1298.49 1457.18 1296.59 1455.77 Q1294.71 1454.33 1291.2 1454.33 Q1289.27 1454.33 1287.07 1454.75 Q1284.88 1455.16 1282.24 1456.04 L1282.24 1451.88 Q1284.9 1451.14 1287.21 1450.77 Q1289.55 1450.39 1291.61 1450.39 Q1296.94 1450.39 1300.04 1452.83 Q1303.14 1455.23 1303.14 1459.35 Q1303.14 1462.22 1301.5 1464.21 Q1299.85 1466.18 1296.82 1466.95 Z" fill="#000000" fill-rule="nonzero" fill-opacity="1" /><path clip-path="url(#clip470)" d="M1628.97 1455.09 L1617.17 1473.54 L1628.97 1473.54 L1628.97 1455.09 M1627.75 1451.02 L1633.63 1451.02 L1633.63 1473.54 L1638.56 1473.54 L1638.56 1477.43 L1633.63 1477.43 L1633.63 1485.58 L1628.97 1485.58 L1628.97 1477.43 L1613.37 1477.43 L1613.37 1472.92 L1627.75 1451.02 Z" fill="#000000" fill-rule="nonzero" fill-opacity="1" /><path clip-path="url(#clip470)" d="M1949.63 1451.02 L1967.99 1451.02 L1967.99 1454.96 L1953.91 1454.96 L1953.91 1463.43 Q1954.93 1463.08 1955.95 1462.92 Q1956.97 1462.73 1957.99 1462.73 Q1963.78 1462.73 1967.16 1465.9 Q1970.54 1469.08 1970.54 1474.49 Q1970.54 1480.07 1967.06 1483.17 Q1963.59 1486.25 1957.27 1486.25 Q1955.1 1486.25 1952.83 1485.88 Q1950.58 1485.51 1948.17 1484.77 L1948.17 1480.07 Q1950.26 1481.2 1952.48 1481.76 Q1954.7 1482.32 1957.18 1482.32 Q1961.18 1482.32 1963.52 1480.21 Q1965.86 1478.1 1965.86 1474.49 Q1965.86 1470.88 1963.52 1468.77 Q1961.18 1466.67 1957.18 1466.67 Q1955.3 1466.67 1953.43 1467.08 Q1951.58 1467.5 1949.63 1468.38 L1949.63 1451.02 Z" fill="#000000" fill-rule="nonzero" fill-opacity="1" /><path clip-path="url(#clip470)" d="M2293.15 1466.44 Q2290 1466.44 2288.15 1468.59 Q2286.32 1470.74 2286.32 1474.49 Q2286.32 1478.22 2288.15 1480.39 Q2290 1482.55 2293.15 1482.55 Q2296.3 1482.55 2298.13 1480.39 Q2299.98 1478.22 2299.98 1474.49 Q2299.98 1470.74 2298.13 1468.59 Q2296.3 1466.44 2293.15 1466.44 M2302.43 1451.78 L2302.43 1456.04 Q2300.67 1455.21 2298.87 1454.77 Q2297.09 1454.33 2295.33 1454.33 Q2290.7 1454.33 2288.24 1457.45 Q2285.81 1460.58 2285.47 1466.9 Q2286.83 1464.89 2288.89 1463.82 Q2290.95 1462.73 2293.43 1462.73 Q2298.64 1462.73 2301.65 1465.9 Q2304.68 1469.05 2304.68 1474.49 Q2304.68 1479.82 2301.53 1483.03 Q2298.38 1486.25 2293.15 1486.25 Q2287.16 1486.25 2283.98 1481.67 Q2280.81 1477.06 2280.81 1468.33 Q2280.81 1460.14 2284.7 1455.28 Q2288.59 1450.39 2295.14 1450.39 Q2296.9 1450.39 2298.68 1450.74 Q2300.49 1451.09 2302.43 1451.78 Z" fill="#000000" fill-rule="nonzero" fill-opacity="1" /><path clip-path="url(#clip470)" d="M1162.74 1520.52 L1202.94 1520.52 L1202.94 1525.93 L1186.07 1525.93 L1186.07 1568.04 L1179.61 1568.04 L1179.61 1525.93 L1162.74 1525.93 L1162.74 1520.52 Z" fill="#000000" fill-rule="nonzero" fill-opacity="1" /><path clip-path="url(#clip470)" d="M1206.89 1532.4 L1212.75 1532.4 L1212.75 1568.04 L1206.89 1568.04 L1206.89 1532.4 M1206.89 1518.52 L1212.75 1518.52 L1212.75 1525.93 L1206.89 1525.93 L1206.89 1518.52 Z" fill="#000000" fill-rule="nonzero" fill-opacity="1" /><path clip-path="url(#clip470)" d="M1252.76 1539.24 Q1254.95 1535.29 1258.01 1533.41 Q1261.06 1531.54 1265.2 1531.54 Q1270.77 1531.54 1273.79 1535.45 Q1276.82 1539.33 1276.82 1546.53 L1276.82 1568.04 L1270.93 1568.04 L1270.93 1546.72 Q1270.93 1541.59 1269.11 1539.11 Q1267.3 1536.63 1263.58 1536.63 Q1259.03 1536.63 1256.38 1539.65 Q1253.74 1542.68 1253.74 1547.9 L1253.74 1568.04 L1247.85 1568.04 L1247.85 1546.72 Q1247.85 1541.56 1246.04 1539.11 Q1244.23 1536.63 1240.44 1536.63 Q1235.95 1536.63 1233.31 1539.68 Q1230.67 1542.71 1230.67 1547.9 L1230.67 1568.04 L1224.78 1568.04 L1224.78 1532.4 L1230.67 1532.4 L1230.67 1537.93 Q1232.67 1534.66 1235.47 1533.1 Q1238.27 1531.54 1242.12 1531.54 Q1246.01 1531.54 1248.71 1533.51 Q1251.45 1535.48 1252.76 1539.24 Z" fill="#000000" fill-rule="nonzero" fill-opacity="1" /><path clip-path="url(#clip470)" d="M1318.99 1548.76 L1318.99 1551.62 L1292.06 1551.62 Q1292.45 1557.67 1295.69 1560.85 Q1298.97 1564 1304.79 1564 Q1308.17 1564 1311.32 1563.17 Q1314.5 1562.35 1317.62 1560.69 L1317.62 1566.23 Q1314.47 1567.57 1311.16 1568.27 Q1307.85 1568.97 1304.44 1568.97 Q1295.91 1568.97 1290.92 1564 Q1285.95 1559.04 1285.95 1550.57 Q1285.95 1541.82 1290.66 1536.69 Q1295.41 1531.54 1303.43 1531.54 Q1310.62 1531.54 1314.79 1536.18 Q1318.99 1540.8 1318.99 1548.76 M1313.13 1547.04 Q1313.07 1542.23 1310.43 1539.37 Q1307.82 1536.5 1303.49 1536.5 Q1298.59 1536.5 1295.63 1539.27 Q1292.7 1542.04 1292.25 1547.07 L1313.13 1547.04 Z" fill="#000000" fill-rule="nonzero" fill-opacity="1" /><path clip-path="url(#clip470)" d="M1363.39 1518.58 Q1359.13 1525.9 1357.06 1533.06 Q1354.99 1540.23 1354.99 1547.58 Q1354.99 1554.93 1357.06 1562.16 Q1359.16 1569.35 1363.39 1576.64 L1358.3 1576.64 Q1353.52 1569.16 1351.14 1561.93 Q1348.78 1554.71 1348.78 1547.58 Q1348.78 1540.48 1351.14 1533.29 Q1353.49 1526.09 1358.3 1518.58 L1363.39 1518.58 Z" fill="#000000" fill-rule="nonzero" fill-opacity="1" /><path clip-path="url(#clip470)" d="M1397.48 1533.45 L1397.48 1538.98 Q1395 1537.71 1392.32 1537.07 Q1389.65 1536.44 1386.79 1536.44 Q1382.42 1536.44 1380.23 1537.77 Q1378.06 1539.11 1378.06 1541.79 Q1378.06 1543.82 1379.62 1545 Q1381.18 1546.15 1385.89 1547.2 L1387.9 1547.64 Q1394.14 1548.98 1396.75 1551.43 Q1399.39 1553.85 1399.39 1558.21 Q1399.39 1563.17 1395.44 1566.07 Q1391.53 1568.97 1384.65 1568.97 Q1381.79 1568.97 1378.67 1568.39 Q1375.58 1567.85 1372.14 1566.74 L1372.14 1560.69 Q1375.39 1562.38 1378.54 1563.24 Q1381.69 1564.07 1384.78 1564.07 Q1388.92 1564.07 1391.15 1562.66 Q1393.37 1561.23 1393.37 1558.65 Q1393.37 1556.27 1391.75 1554.99 Q1390.16 1553.72 1384.72 1552.54 L1382.68 1552.07 Q1377.24 1550.92 1374.82 1548.56 Q1372.4 1546.18 1372.4 1542.04 Q1372.4 1537.01 1375.96 1534.27 Q1379.53 1531.54 1386.08 1531.54 Q1389.33 1531.54 1392.2 1532.01 Q1395.06 1532.49 1397.48 1533.45 Z" fill="#000000" fill-rule="nonzero" fill-opacity="1" /><path clip-path="url(#clip470)" d="M1407.79 1518.58 L1412.88 1518.58 Q1417.66 1526.09 1420.01 1533.29 Q1422.4 1540.48 1422.4 1547.58 Q1422.4 1554.71 1420.01 1561.93 Q1417.66 1569.16 1412.88 1576.64 L1407.79 1576.64 Q1412.03 1569.35 1414.09 1562.16 Q1416.19 1554.93 1416.19 1547.58 Q1416.19 1540.23 1414.09 1533.06 Q1412.03 1525.9 1407.79 1518.58 Z" fill="#000000" fill-rule="nonzero" fill-opacity="1" /><polyline clip-path="url(#clip470)" style="stroke:#000000; stroke-linecap:round; stroke-linejoin:round; stroke-width:4; stroke-opacity:1; fill:none" points="232.389,1423.18 232.389,47.2441 "/>
<polyline clip-path="url(#clip470)" style="stroke:#000000; stroke-linecap:round; stroke-linejoin:round; stroke-width:4; stroke-opacity:1; fill:none" points="232.389,1384.24 251.287,1384.24 "/>
<polyline clip-path="url(#clip470)" style="stroke:#000000; stroke-linecap:round; stroke-linejoin:round; stroke-width:4; stroke-opacity:1; fill:none" points="232.389,1072.18 251.287,1072.18 "/>
<polyline clip-path="url(#clip470)" style="stroke:#000000; stroke-linecap:round; stroke-linejoin:round; stroke-width:4; stroke-opacity:1; fill:none" points="232.389,760.122 251.287,760.122 "/>
<polyline clip-path="url(#clip470)" style="stroke:#000000; stroke-linecap:round; stroke-linejoin:round; stroke-width:4; stroke-opacity:1; fill:none" points="232.389,448.064 251.287,448.064 "/>
<polyline clip-path="url(#clip470)" style="stroke:#000000; stroke-linecap:round; stroke-linejoin:round; stroke-width:4; stroke-opacity:1; fill:none" points="232.389,136.006 251.287,136.006 "/>
<path clip-path="url(#clip470)" d="M184.445 1370.04 Q180.834 1370.04 179.005 1373.6 Q177.2 1377.14 177.2 1384.27 Q177.2 1391.38 179.005 1394.94 Q180.834 1398.49 184.445 1398.49 Q188.079 1398.49 189.885 1394.94 Q191.713 1391.38 191.713 1384.27 Q191.713 1377.14 189.885 1373.6 Q188.079 1370.04 184.445 1370.04 M184.445 1366.33 Q190.255 1366.33 193.311 1370.94 Q196.389 1375.52 196.389 1384.27 Q196.389 1393 193.311 1397.61 Q190.255 1402.19 184.445 1402.19 Q178.635 1402.19 175.556 1397.61 Q172.501 1393 172.501 1384.27 Q172.501 1375.52 175.556 1370.94 Q178.635 1366.33 184.445 1366.33 Z" fill="#000000" fill-rule="nonzero" fill-opacity="1" /><path clip-path="url(#clip470)" d="M149.306 1085.53 L165.626 1085.53 L165.626 1089.46 L143.681 1089.46 L143.681 1085.53 Q146.343 1082.77 150.927 1078.14 Q155.533 1073.49 156.714 1072.15 Q158.959 1069.62 159.839 1067.89 Q160.741 1066.13 160.741 1064.44 Q160.741 1061.68 158.797 1059.95 Q156.876 1058.21 153.774 1058.21 Q151.575 1058.21 149.121 1058.97 Q146.691 1059.74 143.913 1061.29 L143.913 1056.57 Q146.737 1055.43 149.191 1054.85 Q151.644 1054.28 153.681 1054.28 Q159.052 1054.28 162.246 1056.96 Q165.44 1059.65 165.44 1064.14 Q165.44 1066.27 164.63 1068.19 Q163.843 1070.09 161.737 1072.68 Q161.158 1073.35 158.056 1076.57 Q154.954 1079.76 149.306 1085.53 Z" fill="#000000" fill-rule="nonzero" fill-opacity="1" /><path clip-path="url(#clip470)" d="M175.487 1054.9 L193.843 1054.9 L193.843 1058.84 L179.769 1058.84 L179.769 1067.31 Q180.788 1066.96 181.806 1066.8 Q182.825 1066.61 183.843 1066.61 Q189.63 1066.61 193.01 1069.78 Q196.389 1072.96 196.389 1078.37 Q196.389 1083.95 192.917 1087.05 Q189.445 1090.13 183.126 1090.13 Q180.95 1090.13 178.681 1089.76 Q176.436 1089.39 174.028 1088.65 L174.028 1083.95 Q176.112 1085.09 178.334 1085.64 Q180.556 1086.2 183.033 1086.2 Q187.038 1086.2 189.375 1084.09 Q191.713 1081.98 191.713 1078.37 Q191.713 1074.76 189.375 1072.65 Q187.038 1070.55 183.033 1070.55 Q181.158 1070.55 179.283 1070.96 Q177.431 1071.38 175.487 1072.26 L175.487 1054.9 Z" fill="#000000" fill-rule="nonzero" fill-opacity="1" /><path clip-path="url(#clip470)" d="M144.329 742.842 L162.686 742.842 L162.686 746.777 L148.612 746.777 L148.612 755.25 Q149.63 754.902 150.649 754.74 Q151.667 754.555 152.686 754.555 Q158.473 754.555 161.852 757.726 Q165.232 760.898 165.232 766.314 Q165.232 771.893 161.76 774.995 Q158.288 778.073 151.968 778.073 Q149.792 778.073 147.524 777.703 Q145.279 777.333 142.871 776.592 L142.871 771.893 Q144.954 773.027 147.177 773.583 Q149.399 774.138 151.876 774.138 Q155.88 774.138 158.218 772.032 Q160.556 769.925 160.556 766.314 Q160.556 762.703 158.218 760.597 Q155.88 758.49 151.876 758.49 Q150.001 758.49 148.126 758.907 Q146.274 759.324 144.329 760.203 L144.329 742.842 Z" fill="#000000" fill-rule="nonzero" fill-opacity="1" /><path clip-path="url(#clip470)" d="M184.445 745.921 Q180.834 745.921 179.005 749.486 Q177.2 753.027 177.2 760.157 Q177.2 767.263 179.005 770.828 Q180.834 774.37 184.445 774.37 Q188.079 774.37 189.885 770.828 Q191.713 767.263 191.713 760.157 Q191.713 753.027 189.885 749.486 Q188.079 745.921 184.445 745.921 M184.445 742.217 Q190.255 742.217 193.311 746.824 Q196.389 751.407 196.389 760.157 Q196.389 768.884 193.311 773.49 Q190.255 778.073 184.445 778.073 Q178.635 778.073 175.556 773.49 Q172.501 768.884 172.501 760.157 Q172.501 751.407 175.556 746.824 Q178.635 742.217 184.445 742.217 Z" fill="#000000" fill-rule="nonzero" fill-opacity="1" /><path clip-path="url(#clip470)" d="M144.098 430.784 L166.32 430.784 L166.32 432.775 L153.774 465.344 L148.89 465.344 L160.695 434.719 L144.098 434.719 L144.098 430.784 Z" fill="#000000" fill-rule="nonzero" fill-opacity="1" /><path clip-path="url(#clip470)" d="M175.487 430.784 L193.843 430.784 L193.843 434.719 L179.769 434.719 L179.769 443.191 Q180.788 442.844 181.806 442.682 Q182.825 442.497 183.843 442.497 Q189.63 442.497 193.01 445.668 Q196.389 448.84 196.389 454.256 Q196.389 459.835 192.917 462.937 Q189.445 466.015 183.126 466.015 Q180.95 466.015 178.681 465.645 Q176.436 465.275 174.028 464.534 L174.028 459.835 Q176.112 460.969 178.334 461.525 Q180.556 462.08 183.033 462.08 Q187.038 462.08 189.375 459.974 Q191.713 457.867 191.713 454.256 Q191.713 450.645 189.375 448.539 Q187.038 446.432 183.033 446.432 Q181.158 446.432 179.283 446.849 Q177.431 447.266 175.487 448.145 L175.487 430.784 Z" fill="#000000" fill-rule="nonzero" fill-opacity="1" /><path clip-path="url(#clip470)" d="M114.931 149.351 L122.57 149.351 L122.57 122.985 L114.26 124.652 L114.26 120.393 L122.524 118.726 L127.2 118.726 L127.2 149.351 L134.839 149.351 L134.839 153.286 L114.931 153.286 L114.931 149.351 Z" fill="#000000" fill-rule="nonzero" fill-opacity="1" /><path clip-path="url(#clip470)" d="M154.283 121.805 Q150.672 121.805 148.843 125.37 Q147.038 128.911 147.038 136.041 Q147.038 143.147 148.843 146.712 Q150.672 150.254 154.283 150.254 Q157.917 150.254 159.723 146.712 Q161.552 143.147 161.552 136.041 Q161.552 128.911 159.723 125.37 Q157.917 121.805 154.283 121.805 M154.283 118.101 Q160.093 118.101 163.149 122.708 Q166.227 127.291 166.227 136.041 Q166.227 144.768 163.149 149.374 Q160.093 153.957 154.283 153.957 Q148.473 153.957 145.394 149.374 Q142.339 144.768 142.339 136.041 Q142.339 127.291 145.394 122.708 Q148.473 118.101 154.283 118.101 Z" fill="#000000" fill-rule="nonzero" fill-opacity="1" /><path clip-path="url(#clip470)" d="M184.445 121.805 Q180.834 121.805 179.005 125.37 Q177.2 128.911 177.2 136.041 Q177.2 143.147 179.005 146.712 Q180.834 150.254 184.445 150.254 Q188.079 150.254 189.885 146.712 Q191.713 143.147 191.713 136.041 Q191.713 128.911 189.885 125.37 Q188.079 121.805 184.445 121.805 M184.445 118.101 Q190.255 118.101 193.311 122.708 Q196.389 127.291 196.389 136.041 Q196.389 144.768 193.311 149.374 Q190.255 153.957 184.445 153.957 Q178.635 153.957 175.556 149.374 Q172.501 144.768 172.501 136.041 Q172.501 127.291 175.556 122.708 Q178.635 118.101 184.445 118.101 Z" fill="#000000" fill-rule="nonzero" fill-opacity="1" /><path clip-path="url(#clip470)" d="M67.3143 733.525 Q73.68 736.008 75.6216 738.363 Q77.5631 740.718 77.5631 744.665 L77.5631 749.344 L72.6615 749.344 L72.6615 745.906 Q72.6615 743.487 71.5157 742.151 Q70.3699 740.814 66.1048 739.191 L63.4312 738.14 L28.3562 752.559 L28.3562 746.352 L56.238 735.212 L28.3562 724.072 L28.3562 717.865 L67.3143 733.525 Z" fill="#000000" fill-rule="nonzero" fill-opacity="1" /><polyline clip-path="url(#clip472)" style="stroke:#009af9; stroke-linecap:round; stroke-linejoin:round; stroke-width:4; stroke-opacity:1; fill:none" points="292.4,1384.24 302.401,1347.35 312.403,1311.55 322.405,1276.8 332.407,1243.09 342.408,1210.37 352.41,1178.62 362.412,1147.8 372.414,1117.9 382.415,1088.88 392.417,1060.72 402.419,1033.39 412.42,1006.87 422.422,981.13 432.424,956.153 442.426,931.914 452.427,908.391 462.429,885.564 472.431,863.411 482.433,841.913 492.434,821.05 502.436,800.804 512.438,781.157 522.439,762.089 532.441,743.586 542.443,725.629 552.445,708.203 562.446,691.292 572.448,674.881 582.45,658.955 592.452,643.499 602.453,628.501 612.455,613.945 622.457,599.82 632.459,586.112 642.46,572.81 652.462,559.9 662.464,547.372 672.465,535.215 682.467,523.416 692.469,511.966 702.471,500.855 712.472,490.072 722.474,479.608 732.476,469.453 742.478,459.598 752.479,450.035 762.481,440.754 772.483,431.747 782.484,423.007 792.486,414.524 802.488,406.293 812.49,398.305 822.491,390.553 832.493,383.03 842.495,375.729 852.497,368.644 862.498,361.769 872.5,355.096 882.502,348.621 892.503,342.338 902.505,336.239 912.507,330.322 922.509,324.579 932.51,319.006 942.512,313.597 952.514,308.349 962.516,303.255 972.517,298.312 982.519,293.515 992.521,288.86 1002.52,284.343 1012.52,279.959 1022.53,275.704 1032.53,271.576 1042.53,267.569 1052.53,263.681 1062.53,259.907 1072.53,256.245 1082.54,252.692 1092.54,249.243 1102.54,245.897 1112.54,242.649 1122.54,239.497 1132.54,236.438 1142.55,233.47 1152.55,230.59 1162.55,227.794 1172.55,225.082 1182.55,222.449 1192.56,219.894 1202.56,217.415 1212.56,215.009 1222.56,212.674 1232.56,210.408 1242.56,208.209 1252.57,206.075 1262.57,204.004 1272.57,201.995 1282.57,200.045 1292.57,198.152 1302.57,196.315 1312.58,194.533 1322.58,192.803 1332.58,191.125 1342.58,189.496 1352.58,187.915 1362.58,186.381 1372.59,184.892 1382.59,183.447 1392.59,182.045 1402.59,180.684 1412.59,179.364 1422.6,178.082 1432.6,176.839 1442.6,175.632 1452.6,174.461 1462.6,173.324 1472.6,172.221 1482.61,171.151 1492.61,170.112 1502.61,169.104 1512.61,168.126 1522.61,167.177 1532.61,166.256 1542.62,165.362 1552.62,164.494 1562.62,163.652 1572.62,162.835 1582.62,162.042 1592.62,161.273 1602.63,160.526 1612.63,159.801 1622.63,159.098 1632.63,158.416 1642.63,157.753 1652.63,157.111 1662.64,156.487 1672.64,155.882 1682.64,155.294 1692.64,154.724 1702.64,154.171 1712.65,153.634 1722.65,153.113 1732.65,152.607 1742.65,152.117 1752.65,151.641 1762.65,151.179 1772.66,150.73 1782.66,150.295 1792.66,149.873 1802.66,149.463 1812.66,149.065 1822.66,148.679 1832.67,148.305 1842.67,147.941 1852.67,147.588 1862.67,147.246 1872.67,146.914 1882.67,146.592 1892.68,146.279 1902.68,145.975 1912.68,145.681 1922.68,145.395 1932.68,145.117 1942.69,144.848 1952.69,144.587 1962.69,144.333 1972.69,144.087 1982.69,143.848 1992.69,143.616 2002.7,143.391 2012.7,143.173 2022.7,142.961 2032.7,142.756 2042.7,142.556 2052.7,142.363 2062.71,142.175 2072.71,141.992 2082.71,141.816 2092.71,141.644 2102.71,141.477 2112.71,141.316 2122.72,141.159 2132.72,141.006 2142.72,140.859 2152.72,140.715 2162.72,140.576 2172.72,140.441 2182.73,140.31 2192.73,140.183 2202.73,140.059 2212.73,139.939 2222.73,139.823 2232.74,139.71 2242.74,139.601 2252.74,139.495 2262.74,139.392 2272.74,139.292 2282.74,139.194 2292.75,139.1 "/>
<polyline clip-path="url(#clip472)" style="stroke:#e26f46; stroke-linecap:round; stroke-linejoin:round; stroke-width:4; stroke-opacity:1; fill:none" points="292.4,1384.24 293.1,1384.24 293.8,1384.22 294.5,1384.16 295.2,1384.07 295.9,1383.93 296.6,1383.72 297.301,1383.45 298.001,1383.1 298.701,1382.68 299.401,1382.19 300.101,1381.61 300.801,1380.96 301.501,1380.23 302.201,1379.42 302.902,1378.52 303.602,1377.56 304.302,1376.52 305.002,1375.4 305.702,1374.21 306.402,1372.96 307.102,1371.64 307.802,1370.25 308.503,1368.81 309.203,1367.3 309.903,1365.74 310.603,1364.13 311.303,1362.47 312.003,1360.75 312.703,1359 313.403,1357.19 314.103,1355.35 314.804,1353.47 315.504,1351.55 316.204,1349.6 316.904,1347.62 317.604,1345.61 318.304,1343.57 319.004,1341.5 319.704,1339.41 320.405,1337.29 321.105,1335.16 321.805,1333 322.505,1330.83 323.205,1328.63 323.905,1326.43 324.605,1324.21 325.305,1321.97 326.006,1319.73 326.706,1317.47 327.406,1315.2 328.106,1312.93 328.806,1310.64 329.506,1308.35 330.206,1306.05 330.906,1303.75 331.606,1301.44 332.307,1299.12 333.007,1296.81 333.707,1294.48 334.407,1292.16 335.107,1289.83 335.807,1287.5 336.507,1285.17 337.207,1282.84 337.908,1280.51 338.608,1278.18 339.308,1275.85 340.008,1273.52 340.708,1271.19 341.408,1268.86 342.108,1266.53 342.808,1264.21 343.509,1261.88 344.209,1259.56 344.909,1257.24 345.609,1254.92 346.309,1252.6 347.009,1250.29 347.709,1247.98 348.409,1245.67 349.11,1243.37 349.81,1241.07 350.51,1238.77 351.21,1236.47 351.91,1234.18 352.61,1231.9 353.31,1229.61 354.01,1227.33 354.71,1225.06 355.411,1222.78 356.111,1220.51 356.811,1218.25 357.511,1215.99 358.211,1213.73 358.911,1211.48 359.611,1209.23 360.311,1206.99 361.012,1204.75 361.712,1202.51 362.412,1200.28 363.112,1198.05 363.812,1195.83 364.512,1193.61 365.212,1191.4 365.912,1189.19 366.613,1186.98 367.313,1184.78 368.013,1182.58 368.713,1180.39 369.413,1178.2 370.113,1176.02 370.813,1173.84 371.513,1171.66 372.214,1169.49 372.914,1167.33 373.614,1165.17 374.314,1163.01 375.014,1160.86 375.714,1158.71 376.414,1156.56 377.114,1154.42 377.814,1152.29 378.515,1150.16 379.215,1148.03 379.915,1145.91 380.615,1143.79 381.315,1141.68 382.015,1139.57 382.715,1137.46 383.415,1135.36 384.116,1133.27 384.816,1131.18 385.516,1129.09 386.216,1127.01 386.916,1124.93 387.616,1122.85 388.316,1120.78 389.016,1118.72 389.717,1116.66 390.417,1114.6 391.117,1112.55 391.817,1110.5 392.517,1108.45 393.217,1106.41 393.917,1104.38 394.617,1102.35 395.318,1100.32 396.018,1098.3 396.718,1096.28 397.418,1094.26 398.118,1092.25 398.818,1090.25 399.518,1088.25 400.218,1086.25 400.918,1084.26 401.619,1082.27 402.319,1080.28 403.019,1078.3 403.719,1076.32 404.419,1074.35 405.119,1072.38 405.819,1070.42 406.519,1068.46 407.22,1066.5 407.92,1064.55 408.62,1062.6 409.32,1060.66 410.02,1058.72 410.72,1056.78 411.42,1054.85 412.12,1052.92 412.821,1051 413.521,1049.08 414.221,1047.17 414.921,1045.26 415.621,1043.35 416.321,1041.44 417.021,1039.54 417.721,1037.65 418.422,1035.76 419.122,1033.87 419.822,1031.99 420.522,1030.11 421.222,1028.23 421.922,1026.36 422.622,1024.49 423.322,1022.63 424.022,1020.77 424.723,1018.91 425.423,1017.06 426.123,1015.21 426.823,1013.37 427.523,1011.53 428.223,1009.69 428.923,1007.86 429.623,1006.03 430.324,1004.2 431.024,1002.38 431.724,1000.56 432.424,998.751 433.124,996.941 433.824,995.135 434.524,993.333 435.224,991.534 435.925,989.74 436.625,987.949 437.325,986.162 438.025,984.378 438.725,982.598 439.425,980.822 440.125,979.05 440.825,977.282 441.526,975.517 442.226,973.756 442.926,971.998 443.626,970.244 444.326,968.494 445.026,966.748 445.726,965.005 446.426,963.266 447.126,961.531 447.827,959.799 448.527,958.071 449.227,956.346 449.927,954.625 450.627,952.908 451.327,951.194 452.027,949.484 452.727,947.778 453.428,946.075 454.128,944.376 454.828,942.68 455.528,940.988 456.228,939.299 456.928,937.614 457.628,935.932 458.328,934.254 459.029,932.579 459.729,930.908 460.429,929.241 461.129,927.577 461.829,925.916 462.529,924.259 463.229,922.606 463.929,920.955 464.629,919.309 465.33,917.666 466.03,916.026 466.73,914.389 467.43,912.757 468.13,911.127 468.83,909.501 469.53,907.878 470.23,906.259 470.931,904.643 471.631,903.031 472.331,901.422 473.031,899.816 473.731,898.214 474.431,896.615 475.131,895.019 475.831,893.427 476.532,891.838 477.232,890.253 477.932,888.67 478.632,887.091 479.332,885.516 480.032,883.943 480.732,882.374 481.432,880.809 482.133,879.246 482.833,877.687 483.533,876.131 484.233,874.579 484.933,873.029 485.633,871.483 486.333,869.94 487.033,868.401 487.733,866.864 488.434,865.331 489.134,863.801 489.834,862.274 490.534,860.751 491.234,859.23 491.934,857.713 492.634,856.199 493.334,854.688 494.035,853.181 494.735,851.676 495.435,850.175 496.135,848.677 496.835,847.182 497.535,845.69 498.235,844.201 498.935,842.715 499.636,841.233 500.336,839.753 501.036,838.277 501.736,836.804 502.436,835.334 503.136,833.867 503.836,832.403 504.536,830.942 505.237,829.484 505.937,828.029 506.637,826.577 507.337,825.129 508.037,823.683 508.737,822.24 509.437,820.801 510.137,819.364 510.837,817.931 511.538,816.5 512.238,815.073 512.938,813.648 513.638,812.227 514.338,810.808 515.038,809.392 515.738,807.98 516.438,806.57 517.139,805.163 517.839,803.76 518.539,802.359 519.239,800.961 519.939,799.566 520.639,798.174 521.339,796.785 522.039,795.399 522.74,794.015 523.44,792.635 524.14,791.258 524.84,789.883 525.54,788.511 526.24,787.143 526.94,785.777 527.64,784.413 528.341,783.053 529.041,781.696 529.741,780.341 530.441,778.99 531.141,777.641 531.841,776.295 532.541,774.952 533.241,773.611 533.941,772.274 534.642,770.939 535.342,769.607 536.042,768.278 536.742,766.951 537.442,765.628 538.142,764.307 538.842,762.989 539.542,761.674 540.243,760.361 540.943,759.051 541.643,757.744 542.343,756.44 543.043,755.139 543.743,753.84 544.443,752.544 545.143,751.25 545.844,749.96 546.544,748.672 547.244,747.386 547.944,746.104 548.644,744.824 549.344,743.547 550.044,742.272 550.744,741 551.445,739.731 552.145,738.465 552.845,737.201 553.545,735.94 554.245,734.681 554.945,733.425 555.645,732.172 556.345,730.921 557.045,729.673 557.746,728.428 558.446,727.185 559.146,725.945 559.846,724.708 560.546,723.473 561.246,722.24 561.946,721.01 562.646,719.783 563.347,718.559 564.047,717.336 564.747,716.117 565.447,714.9 566.147,713.686 566.847,712.474 567.547,711.264 568.247,710.058 568.948,708.853 569.648,707.652 570.348,706.452 571.048,705.256 571.748,704.062 572.448,702.87 573.148,701.681 573.848,700.494 574.548,699.31 575.249,698.128 575.949,696.949 576.649,695.772 577.349,694.598 578.049,693.426 578.749,692.257 579.449,691.09 580.149,689.926 580.85,688.763 581.55,687.604 582.25,686.447 582.95,685.292 583.65,684.14 584.35,682.99 585.05,681.842 585.75,680.697 586.451,679.555 587.151,678.414 587.851,677.277 588.551,676.141 589.251,675.008 589.951,673.877 590.651,672.749 591.351,671.623 592.052,670.499 592.752,669.378 593.452,668.259 594.152,667.143 594.852,666.028 595.552,664.917 596.252,663.807 596.952,662.7 597.652,661.595 598.353,660.492 599.053,659.392 599.753,658.294 600.453,657.198 601.153,656.105 601.853,655.014 602.553,653.925 603.253,652.839 603.954,651.755 604.654,650.673 605.354,649.593 606.054,648.516 606.754,647.44 607.454,646.368 608.154,645.297 608.854,644.229 609.555,643.162 610.255,642.098 610.955,641.037 611.655,639.977 612.355,638.92 613.055,637.865 613.755,636.812 614.455,635.762 615.156,634.713 615.856,633.667 616.556,632.623 617.256,631.581 617.956,630.542 618.656,629.504 619.356,628.469 620.056,627.436 620.756,626.405 621.457,625.376 622.157,624.35 622.857,623.325 623.557,622.303 624.257,621.283 624.957,620.265 625.657,619.249 626.357,618.235 627.058,617.224 627.758,616.214 628.458,615.207 629.158,614.201 629.858,613.198 630.558,612.197 631.258,611.198 631.958,610.201 632.659,609.207 633.359,608.214 634.059,607.223 634.759,606.235 635.459,605.248 636.159,604.264 636.859,603.282 637.559,602.301 638.26,601.323 638.96,600.347 639.66,599.373 640.36,598.401 641.06,597.431 641.76,596.463 642.46,595.497 643.16,594.533 643.86,593.571 644.561,592.611 645.261,591.653 645.961,590.698 646.661,589.744 647.361,588.792 648.061,587.842 648.761,586.894 649.461,585.948 650.162,585.004 650.862,584.063 651.562,583.123 652.262,582.185 652.962,581.249 653.662,580.315 654.362,579.383 655.062,578.452 655.763,577.524 656.463,576.598 657.163,575.674 657.863,574.751 658.563,573.831 659.263,572.913 659.963,571.996 660.663,571.081 661.364,570.169 662.064,569.258 662.764,568.349 663.464,567.442 664.164,566.537 664.864,565.634 665.564,564.733 666.264,563.833 666.964,562.936 667.665,562.04 668.365,561.146 669.065,560.255 669.765,559.365 670.465,558.476 671.165,557.59 671.865,556.706 672.565,555.823 673.266,554.943 673.966,554.064 674.666,553.187 675.366,552.312 676.066,551.438 676.766,550.567 677.466,549.697 678.166,548.829 678.867,547.963 679.567,547.099 680.267,546.237 680.967,545.376 681.667,544.517 682.367,543.66 683.067,542.805 683.767,541.952 684.468,541.1 685.168,540.25 685.868,539.402 686.568,538.556 687.268,537.712 687.968,536.869 688.668,536.028 689.368,535.189 690.068,534.351 690.769,533.516 691.469,532.682 692.169,531.85 692.869,531.019 693.569,530.191 694.269,529.364 694.969,528.539 695.669,527.715 696.37,526.893 697.07,526.073 697.77,525.255 698.47,524.439 699.17,523.624 699.87,522.811 700.57,521.999 701.27,521.189 701.971,520.381 702.671,519.575 703.371,518.77 704.071,517.967 704.771,517.166 705.471,516.366 706.171,515.569 706.871,514.772 707.571,513.978 708.272,513.185 708.972,512.394 709.672,511.604 710.372,510.816 711.072,510.03 711.772,509.245 712.472,508.462 713.172,507.681 713.873,506.901 714.573,506.123 715.273,505.347 715.973,504.572 716.673,503.799 717.373,503.027 718.073,502.257 718.773,501.489 719.474,500.722 720.174,499.957 720.874,499.194 721.574,498.432 722.274,497.671 722.974,496.913 723.674,496.156 724.374,495.4 725.075,494.646 725.775,493.894 726.475,493.143 727.175,492.394 727.875,491.646 728.575,490.9 729.275,490.156 729.975,489.413 730.675,488.671 731.376,487.931 732.076,487.193 732.776,486.457 733.476,485.721 734.176,484.988 734.876,484.256 735.576,483.525 736.276,482.796 736.977,482.069 737.677,481.343 738.377,480.618 739.077,479.895 739.777,479.174 740.477,478.454 741.177,477.736 741.877,477.019 742.578,476.303 743.278,475.589 743.978,474.877 744.678,474.166 745.378,473.457 746.078,472.749 746.778,472.042 747.478,471.337 748.179,470.634 748.879,469.932 749.579,469.232 750.279,468.532 750.979,467.835 751.679,467.139 752.379,466.444 753.079,465.751 753.779,465.059 754.48,464.369 755.18,463.68 755.88,462.993 756.58,462.307 757.28,461.622 757.98,460.939 758.68,460.258 759.38,459.577 760.081,458.899 760.781,458.221 761.481,457.545 762.181,456.871 762.881,456.198 763.581,455.526 764.281,454.856 764.981,454.187 765.682,453.519 766.382,452.853 767.082,452.188 767.782,451.525 768.482,450.863 769.182,450.203 769.882,449.544 770.582,448.886 771.283,448.23 771.983,447.575 772.683,446.921 773.383,446.269 774.083,445.618 774.783,444.968 775.483,444.32 776.183,443.673 776.883,443.028 777.584,442.384 778.284,441.741 778.984,441.1 779.684,440.46 780.384,439.821 781.084,439.184 781.784,438.548 782.484,437.913 783.185,437.28 783.885,436.648 784.585,436.017 785.285,435.388 785.985,434.76 786.685,434.133 787.385,433.508 788.085,432.883 788.786,432.261 789.486,431.639 790.186,431.019 790.886,430.4 791.586,429.783 792.286,429.166 792.986,428.551 793.686,427.938 794.387,427.325 795.087,426.714 795.787,426.104 796.487,425.496 797.187,424.888 797.887,424.282 798.587,423.678 799.287,423.074 799.987,422.472 800.688,421.871 801.388,421.271 802.088,420.673 802.788,420.076 803.488,419.48 804.188,418.885 804.888,418.292 805.588,417.699 806.289,417.109 806.989,416.519 807.689,415.93 808.389,415.343 809.089,414.757 809.789,414.172 810.489,413.589 811.189,413.007 811.89,412.425 812.59,411.846 813.29,411.267 813.99,410.69 814.69,410.113 815.39,409.538 816.09,408.964 816.79,408.392 817.49,407.82 818.191,407.25 818.891,406.681 819.591,406.113 820.291,405.547 820.991,404.981 821.691,404.417 822.391,403.854 823.091,403.292 823.792,402.731 824.492,402.172 825.192,401.613 825.892,401.056 826.592,400.5 827.292,399.945 827.992,399.392 828.692,398.839 829.393,398.288 830.093,397.738 830.793,397.189 831.493,396.641 832.193,396.094 832.893,395.548 833.593,395.004 834.293,394.46 834.994,393.918 835.694,393.377 836.394,392.837 837.094,392.299 837.794,391.761 838.494,391.224 839.194,390.689 839.894,390.155 840.594,389.622 841.295,389.09 841.995,388.559 842.695,388.029 843.395,387.5 844.095,386.973 844.795,386.446 845.495,385.921 846.195,385.396 846.896,384.873 847.596,384.351 848.296,383.83 848.996,383.31 849.696,382.792 850.396,382.274 851.096,381.757 851.796,381.242 852.497,380.727 853.197,380.214 853.897,379.702 854.597,379.19 855.297,378.68 855.997,378.171 856.697,377.663 857.397,377.156 858.098,376.65 858.798,376.145 859.498,375.642 860.198,375.139 860.898,374.637 861.598,374.137 862.298,373.637 862.998,373.139 863.698,372.641 864.399,372.145 865.099,371.649 865.799,371.155 866.499,370.662 867.199,370.17 867.899,369.678 868.599,369.188 869.299,368.699 870,368.211 870.7,367.724 871.4,367.238 872.1,366.752 872.8,366.268 873.5,365.785 874.2,365.303 874.9,364.822 875.601,364.342 876.301,363.863 877.001,363.385 877.701,362.908 878.401,362.432 879.101,361.957 879.801,361.483 880.501,361.01 881.202,360.538 881.902,360.067 882.602,359.597 883.302,359.128 884.002,358.66 884.702,358.193 885.402,357.727 886.102,357.262 886.802,356.798 887.503,356.335 888.203,355.872 888.903,355.411 889.603,354.951 890.303,354.492 891.003,354.033 891.703,353.576 892.403,353.119 893.104,352.664 893.804,352.209 894.504,351.756 895.204,351.303 895.904,350.852 896.604,350.401 897.304,349.951 898.004,349.502 898.705,349.054 899.405,348.608 900.105,348.162 900.805,347.716 901.505,347.272 902.205,346.829 902.905,346.387 903.605,345.946 904.306,345.505 905.006,345.066 905.706,344.627 906.406,344.189 907.106,343.753 907.806,343.317 908.506,342.882 909.206,342.448 909.906,342.015 910.607,341.583 911.307,341.152 912.007,340.721 912.707,340.292 913.407,339.863 914.107,339.436 914.807,339.009 915.507,338.583 916.208,338.158 916.908,337.734 917.608,337.311 918.308,336.888 919.008,336.467 919.708,336.046 920.408,335.627 921.108,335.208 921.809,334.79 922.509,334.373 923.209,333.957 923.909,333.542 924.609,333.127 925.309,332.714 926.009,332.301 926.709,331.889 927.409,331.479 928.11,331.068 928.81,330.659 929.51,330.251 930.21,329.843 930.91,329.437 931.61,329.031 932.31,328.626 933.01,328.222 933.711,327.819 934.411,327.416 935.111,327.015 935.811,326.614 936.511,326.214 937.211,325.815 937.911,325.417 938.611,325.02 939.312,324.623 940.012,324.228 940.712,323.833 941.412,323.439 942.112,323.045 942.812,322.653 943.512,322.262 944.212,321.871 944.913,321.481 945.613,321.092 946.313,320.704 947.013,320.316 947.713,319.929 948.413,319.544 949.113,319.159 949.813,318.774 950.513,318.391 951.214,318.008 951.914,317.627 952.614,317.246 953.314,316.865 954.014,316.486 954.714,316.107 955.414,315.73 956.114,315.353 956.815,314.976 957.515,314.601 958.215,314.226 958.915,313.852 959.615,313.479 960.315,313.107 961.015,312.735 961.715,312.365 962.416,311.995 963.116,311.626 963.816,311.257 964.516,310.889 965.216,310.523 965.916,310.156 966.616,309.791 967.316,309.427 968.017,309.063 968.717,308.7 969.417,308.337 970.117,307.976 970.817,307.615 971.517,307.255 972.217,306.896 972.917,306.537 973.617,306.18 974.318,305.823 975.018,305.467 975.718,305.111 976.418,304.756 977.118,304.402 977.818,304.049 978.518,303.696 979.218,303.345 979.919,302.994 980.619,302.643 981.319,302.294 982.019,301.945 982.719,301.597 983.419,301.249 984.119,300.903 984.819,300.557 985.52,300.212 986.22,299.867 986.92,299.523 987.62,299.18 988.32,298.838 989.02,298.497 989.72,298.156 990.42,297.816 991.121,297.476 991.821,297.137 992.521,296.799 993.221,296.462 993.921,296.125 994.621,295.79 995.321,295.454 996.021,295.12 996.721,294.786 997.422,294.453 998.122,294.121 998.822,293.789 999.522,293.458 1000.22,293.128 1000.92,292.798 1001.62,292.469 1002.32,292.141 1003.02,291.813 1003.72,291.486 1004.42,291.16 1005.12,290.835 1005.82,290.51 1006.52,290.186 1007.22,289.862 1007.92,289.54 1008.62,289.218 1009.32,288.896 1010.02,288.575 1010.72,288.255 1011.42,287.936 1012.12,287.617 1012.82,287.299 1013.52,286.982 1014.22,286.665 1014.92,286.349 1015.62,286.034 1016.32,285.719 1017.02,285.405 1017.73,285.092 1018.43,284.779 1019.13,284.467 1019.83,284.155 1020.53,283.844 1021.23,283.534 1021.93,283.225 1022.63,282.916 1023.33,282.608 1024.03,282.3 1024.73,281.993 1025.43,281.687 1026.13,281.381 1026.83,281.077 1027.53,280.772 1028.23,280.469 1028.93,280.165 1029.63,279.863 1030.33,279.561 1031.03,279.26 1031.73,278.96 1032.43,278.66 1033.13,278.36 1033.83,278.062 1034.53,277.764 1035.23,277.466 1035.93,277.17 1036.63,276.874 1037.33,276.578 1038.03,276.283 1038.73,275.989 1039.43,275.695 1040.13,275.402 1040.83,275.11 1041.53,274.818 1042.23,274.527 1042.93,274.236 1043.63,273.946 1044.33,273.657 1045.03,273.368 1045.73,273.08 1046.43,272.792 1047.13,272.505 1047.83,272.219 1048.53,271.933 1049.23,271.648 1049.93,271.364 1050.63,271.08 1051.33,270.796 1052.03,270.514 1052.73,270.231 1053.43,269.95 1054.13,269.669 1054.83,269.388 1055.53,269.109 1056.23,268.829 1056.93,268.551 1057.63,268.273 1058.33,267.995 1059.03,267.718 1059.73,267.442 1060.43,267.166 1061.13,266.891 1061.83,266.617 1062.53,266.343 1063.23,266.069 1063.93,265.796 1064.63,265.524 1065.33,265.252 1066.03,264.981 1066.73,264.711 1067.43,264.441 1068.13,264.171 1068.83,263.902 1069.53,263.634 1070.23,263.366 1070.93,263.099 1071.63,262.833 1072.33,262.566 1073.03,262.301 1073.73,262.036 1074.43,261.772 1075.14,261.508 1075.84,261.245 1076.54,260.982 1077.24,260.72 1077.94,260.458 1078.64,260.197 1079.34,259.936 1080.04,259.676 1080.74,259.417 1081.44,259.158 1082.14,258.9 1082.84,258.642 1083.54,258.385 1084.24,258.128 1084.94,257.872 1085.64,257.616 1086.34,257.361 1087.04,257.106 1087.74,256.852 1088.44,256.599 1089.14,256.346 1089.84,256.093 1090.54,255.842 1091.24,255.59 1091.94,255.339 1092.64,255.089 1093.34,254.839 1094.04,254.59 1094.74,254.341 1095.44,254.093 1096.14,253.845 1096.84,253.598 1097.54,253.351 1098.24,253.105 1098.94,252.859 1099.64,252.614 1100.34,252.37 1101.04,252.126 1101.74,251.882 1102.44,251.639 1103.14,251.396 1103.84,251.154 1104.54,250.913 1105.24,250.672 1105.94,250.431 1106.64,250.191 1107.34,249.951 1108.04,249.712 1108.74,249.474 1109.44,249.236 1110.14,248.998 1110.84,248.761 1111.54,248.525 1112.24,248.289 1112.94,248.053 1113.64,247.818 1114.34,247.584 1115.04,247.35 1115.74,247.116 1116.44,246.883 1117.14,246.65 1117.84,246.418 1118.54,246.187 1119.24,245.955 1119.94,245.725 1120.64,245.495 1121.34,245.265 1122.04,245.036 1122.74,244.807 1123.44,244.579 1124.14,244.351 1124.84,244.124 1125.54,243.897 1126.24,243.671 1126.94,243.445 1127.64,243.219 1128.34,242.994 1129.04,242.77 1129.74,242.546 1130.44,242.322 1131.14,242.099 1131.84,241.877 1132.54,241.655 1133.25,241.433 1133.95,241.212 1134.65,240.991 1135.35,240.771 1136.05,240.551 1136.75,240.332 1137.45,240.113 1138.15,239.895 1138.85,239.677 1139.55,239.459 1140.25,239.242 1140.95,239.026 1141.65,238.81 1142.35,238.594 1143.05,238.379 1143.75,238.164 1144.45,237.95 1145.15,237.736 1145.85,237.522 1146.55,237.309 1147.25,237.097 1147.95,236.885 1148.65,236.673 1149.35,236.462 1150.05,236.251 1150.75,236.041 1151.45,235.831 1152.15,235.622 1152.85,235.413 1153.55,235.204 1154.25,234.996 1154.95,234.788 1155.65,234.581 1156.35,234.374 1157.05,234.168 1157.75,233.962 1158.45,233.757 1159.15,233.552 1159.85,233.347 1160.55,233.143 1161.25,232.939 1161.95,232.736 1162.65,232.533 1163.35,232.33 1164.05,232.128 1164.75,231.927 1165.45,231.725 1166.15,231.525 1166.85,231.324 1167.55,231.124 1168.25,230.925 1168.95,230.726 1169.65,230.527 1170.35,230.329 1171.05,230.131 1171.75,229.933 1172.45,229.736 1173.15,229.54 1173.85,229.343 1174.55,229.148 1175.25,228.952 1175.95,228.757 1176.65,228.563 1177.35,228.368 1178.05,228.175 1178.75,227.981 1179.45,227.788 1180.15,227.596 1180.85,227.404 1181.55,227.212 1182.25,227.021 1182.95,226.83 1183.65,226.639 1184.35,226.449 1185.05,226.259 1185.75,226.07 1186.45,225.881 1187.15,225.693 1187.85,225.504 1188.55,225.317 1189.25,225.129 1189.95,224.942 1190.66,224.756 1191.36,224.57 1192.06,224.384 1192.76,224.198 1193.46,224.013 1194.16,223.829 1194.86,223.645 1195.56,223.461 1196.26,223.277 1196.96,223.094 1197.66,222.911 1198.36,222.729 1199.06,222.547 1199.76,222.366 1200.46,222.184 1201.16,222.004 1201.86,221.823 1202.56,221.643 1203.26,221.464 1203.96,221.284 1204.66,221.105 1205.36,220.927 1206.06,220.749 1206.76,220.571 1207.46,220.394 1208.16,220.217 1208.86,220.04 1209.56,219.864 1210.26,219.688 1210.96,219.512 1211.66,219.337 1212.36,219.162 1213.06,218.988 1213.76,218.814 1214.46,218.64 1215.16,218.467 1215.86,218.294 1216.56,218.121 1217.26,217.949 1217.96,217.777 1218.66,217.605 1219.36,217.434 1220.06,217.263 1220.76,217.093 1221.46,216.923 1222.16,216.753 1222.86,216.584 1223.56,216.415 1224.26,216.246 1224.96,216.078 1225.66,215.91 1226.36,215.742 1227.06,215.575 1227.76,215.408 1228.46,215.241 1229.16,215.075 1229.86,214.909 1230.56,214.744 1231.26,214.578 1231.96,214.414 1232.66,214.249 1233.36,214.085 1234.06,213.921 1234.76,213.758 1235.46,213.595 1236.16,213.432 1236.86,213.269 1237.56,213.107 1238.26,212.946 1238.96,212.784 1239.66,212.623 1240.36,212.462 1241.06,212.302 1241.76,212.142 1242.46,211.982 1243.16,211.823 1243.86,211.664 1244.56,211.505 1245.26,211.347 1245.96,211.189 1246.66,211.031 1247.36,210.874 1248.06,210.717 1248.77,210.56 1249.47,210.403 1250.17,210.247 1250.87,210.092 1251.57,209.936 1252.27,209.781 1252.97,209.626 1253.67,209.472 1254.37,209.318 1255.07,209.164 1255.77,209.01 1256.47,208.857 1257.17,208.705 1257.87,208.552 1258.57,208.4 1259.27,208.248 1259.97,208.096 1260.67,207.945 1261.37,207.794 1262.07,207.644 1262.77,207.493 1263.47,207.343 1264.17,207.194 1264.87,207.044 1265.57,206.895 1266.27,206.747 1266.97,206.598 1267.67,206.45 1268.37,206.302 1269.07,206.155 1269.77,206.008 1270.47,205.861 1271.17,205.714 1271.87,205.568 1272.57,205.422 1273.27,205.277 1273.97,205.131 1274.67,204.986 1275.37,204.842 1276.07,204.697 1276.77,204.553 1277.47,204.409 1278.17,204.266 1278.87,204.123 1279.57,203.98 1280.27,203.837 1280.97,203.695 1281.67,203.553 1282.37,203.411 1283.07,203.27 1283.77,203.129 1284.47,202.988 1285.17,202.847 1285.87,202.707 1286.57,202.567 1287.27,202.428 1287.97,202.288 1288.67,202.149 1289.37,202.01 1290.07,201.872 1290.77,201.734 1291.47,201.596 1292.17,201.458 1292.87,201.321 1293.57,201.184 1294.27,201.047 1294.97,200.911 1295.67,200.775 1296.37,200.639 1297.07,200.503 1297.77,200.368 1298.47,200.233 1299.17,200.098 1299.87,199.964 1300.57,199.829 1301.27,199.696 1301.97,199.562 1302.67,199.429 1303.37,199.296 1304.07,199.163 1304.77,199.03 1305.47,198.898 1306.17,198.766 1306.88,198.635 1307.58,198.503 1308.28,198.372 1308.98,198.241 1309.68,198.111 1310.38,197.98 1311.08,197.85 1311.78,197.721 1312.48,197.591 1313.18,197.462 1313.88,197.333 1314.58,197.204 1315.28,197.076 1315.98,196.948 1316.68,196.82 1317.38,196.692 1318.08,196.565 1318.78,196.438 1319.48,196.311 1320.18,196.185 1320.88,196.059 1321.58,195.933 1322.28,195.807 1322.98,195.681 1323.68,195.556 1324.38,195.431 1325.08,195.307 1325.78,195.182 1326.48,195.058 1327.18,194.934 1327.88,194.811 1328.58,194.687 1329.28,194.564 1329.98,194.441 1330.68,194.319 1331.38,194.196 1332.08,194.074 1332.78,193.953 1333.48,193.831 1334.18,193.71 1334.88,193.589 1335.58,193.468 1336.28,193.347 1336.98,193.227 1337.68,193.107 1338.38,192.987 1339.08,192.868 1339.78,192.748 1340.48,192.629 1341.18,192.511 1341.88,192.392 1342.58,192.274 1343.28,192.156 1343.98,192.038 1344.68,191.92 1345.38,191.803 1346.08,191.686 1346.78,191.569 1347.48,191.453 1348.18,191.336 1348.88,191.22 1349.58,191.104 1350.28,190.989 1350.98,190.874 1351.68,190.758 1352.38,190.644 1353.08,190.529 1353.78,190.415 1354.48,190.3 1355.18,190.187 1355.88,190.073 1356.58,189.959 1357.28,189.846 1357.98,189.733 1358.68,189.621 1359.38,189.508 1360.08,189.396 1360.78,189.284 1361.48,189.172 1362.18,189.061 1362.88,188.949 1363.58,188.838 1364.29,188.727 1364.99,188.617 1365.69,188.506 1366.39,188.396 1367.09,188.286 1367.79,188.177 1368.49,188.067 1369.19,187.958 1369.89,187.849 1370.59,187.74 1371.29,187.632 1371.99,187.523 1372.69,187.415 1373.39,187.308 1374.09,187.2 1374.79,187.093 1375.49,186.985 1376.19,186.878 1376.89,186.772 1377.59,186.665 1378.29,186.559 1378.99,186.453 1379.69,186.347 1380.39,186.241 1381.09,186.136 1381.79,186.031 1382.49,185.926 1383.19,185.821 1383.89,185.717 1384.59,185.612 1385.29,185.508 1385.99,185.405 1386.69,185.301 1387.39,185.198 1388.09,185.094 1388.79,184.991 1389.49,184.889 1390.19,184.786 1390.89,184.684 1391.59,184.582 1392.29,184.48 1392.99,184.378 1393.69,184.277 1394.39,184.175 1395.09,184.074 1395.79,183.973 1396.49,183.873 1397.19,183.772 1397.89,183.672 1398.59,183.572 1399.29,183.472 1399.99,183.373 1400.69,183.273 1401.39,183.174 1402.09,183.075 1402.79,182.977 1403.49,182.878 1404.19,182.78 1404.89,182.682 1405.59,182.584 1406.29,182.486 1406.99,182.388 1407.69,182.291 1408.39,182.194 1409.09,182.097 1409.79,182 1410.49,181.904 1411.19,181.808 1411.89,181.712 1412.59,181.616 1413.29,181.52 1413.99,181.425 1414.69,181.329 1415.39,181.234 1416.09,181.139 1416.79,181.045 1417.49,180.95 1418.19,180.856 1418.89,180.762 1419.59,180.668 1420.29,180.574 1420.99,180.481 1421.69,180.387 1422.4,180.294 1423.1,180.201 1423.8,180.109 1424.5,180.016 1425.2,179.924 1425.9,179.832 1426.6,179.74 1427.3,179.648 1428,179.557 1428.7,179.465 1429.4,179.374 1430.1,179.283 1430.8,179.192 1431.5,179.102 1432.2,179.011 1432.9,178.921 1433.6,178.831 1434.3,178.741 1435,178.652 1435.7,178.562 1436.4,178.473 1437.1,178.384 1437.8,178.295 1438.5,178.206 1439.2,178.118 1439.9,178.029 1440.6,177.941 1441.3,177.853 1442,177.765 1442.7,177.678 1443.4,177.59 1444.1,177.503 1444.8,177.416 1445.5,177.329 1446.2,177.242 1446.9,177.156 1447.6,177.07 1448.3,176.983 1449,176.897 1449.7,176.812 1450.4,176.726 1451.1,176.641 1451.8,176.555 1452.5,176.47 1453.2,176.385 1453.9,176.301 1454.6,176.216 1455.3,176.132 1456,176.048 1456.7,175.964 1457.4,175.88 1458.1,175.796 1458.8,175.713 1459.5,175.629 1460.2,175.546 1460.9,175.463 1461.6,175.381 1462.3,175.298 1463,175.216 1463.7,175.133 1464.4,175.051 1465.1,174.969 1465.8,174.888 1466.5,174.806 1467.2,174.725 1467.9,174.643 1468.6,174.562 1469.3,174.482 1470,174.401 1470.7,174.32 1471.4,174.24 1472.1,174.16 1472.8,174.08 1473.5,174 1474.2,173.92 1474.9,173.841 1475.6,173.761 1476.3,173.682 1477,173.603 1477.7,173.524 1478.4,173.445 1479.1,173.367 1479.8,173.288 1480.51,173.21 1481.21,173.132 1481.91,173.054 1482.61,172.977 1483.31,172.899 1484.01,172.822 1484.71,172.744 1485.41,172.667 1486.11,172.59 1486.81,172.514 1487.51,172.437 1488.21,172.361 1488.91,172.284 1489.61,172.208 1490.31,172.132 1491.01,172.057 1491.71,171.981 1492.41,171.905 1493.11,171.83 1493.81,171.755 1494.51,171.68 1495.21,171.605 1495.91,171.53 1496.61,171.456 1497.31,171.382 1498.01,171.307 1498.71,171.233 1499.41,171.159 1500.11,171.086 1500.81,171.012 1501.51,170.939 1502.21,170.865 1502.91,170.792 1503.61,170.719 1504.31,170.646 1505.01,170.574 1505.71,170.501 1506.41,170.429 1507.11,170.357 1507.81,170.285 1508.51,170.213 1509.21,170.141 1509.91,170.069 1510.61,169.998 1511.31,169.927 1512.01,169.855 1512.71,169.784 1513.41,169.714 1514.11,169.643 1514.81,169.572 1515.51,169.502 1516.21,169.432 1516.91,169.362 1517.61,169.292 1518.31,169.222 1519.01,169.152 1519.71,169.082 1520.41,169.013 1521.11,168.944 1521.81,168.875 1522.51,168.806 1523.21,168.737 1523.91,168.668 1524.61,168.6 1525.31,168.531 1526.01,168.463 1526.71,168.395 1527.41,168.327 1528.11,168.259 1528.81,168.192 1529.51,168.124 1530.21,168.057 1530.91,167.99 1531.61,167.922 1532.31,167.856 1533.01,167.789 1533.71,167.722 1534.41,167.656 1535.11,167.589 1535.81,167.523 1536.51,167.457 1537.21,167.391 1537.92,167.325 1538.62,167.259 1539.32,167.194 1540.02,167.128 1540.72,167.063 1541.42,166.998 1542.12,166.933 1542.82,166.868 1543.52,166.803 1544.22,166.739 1544.92,166.674 1545.62,166.61 1546.32,166.546 1547.02,166.482 1547.72,166.418 1548.42,166.354 1549.12,166.29 1549.82,166.227 1550.52,166.163 1551.22,166.1 1551.92,166.037 1552.62,165.974 1553.32,165.911 1554.02,165.848 1554.72,165.786 1555.42,165.723 1556.12,165.661 1556.82,165.599 1557.52,165.536 1558.22,165.475 1558.92,165.413 1559.62,165.351 1560.32,165.289 1561.02,165.228 1561.72,165.167 1562.42,165.106 1563.12,165.045 1563.82,164.984 1564.52,164.923 1565.22,164.862 1565.92,164.802 1566.62,164.741 1567.32,164.681 1568.02,164.621 1568.72,164.561 1569.42,164.501 1570.12,164.441 1570.82,164.381 1571.52,164.322 1572.22,164.262 1572.92,164.203 1573.62,164.144 1574.32,164.085 1575.02,164.026 1575.72,163.967 1576.42,163.909 1577.12,163.85 1577.82,163.792 1578.52,163.733 1579.22,163.675 1579.92,163.617 1580.62,163.559 1581.32,163.502 1582.02,163.444 1582.72,163.386 1583.42,163.329 1584.12,163.272 1584.82,163.214 1585.52,163.157 1586.22,163.1 1586.92,163.043 1587.62,162.987 1588.32,162.93 1589.02,162.874 1589.72,162.817 1590.42,162.761 1591.12,162.705 1591.82,162.649 1592.52,162.593 1593.22,162.537 1593.92,162.482 1594.62,162.426 1595.32,162.371 1596.03,162.315 1596.73,162.26 1597.43,162.205 1598.13,162.15 1598.83,162.095 1599.53,162.041 1600.23,161.986 1600.93,161.931 1601.63,161.877 1602.33,161.823 1603.03,161.769 1603.73,161.715 1604.43,161.661 1605.13,161.607 1605.83,161.553 1606.53,161.5 1607.23,161.446 1607.93,161.393 1608.63,161.339 1609.33,161.286 1610.03,161.233 1610.73,161.18 1611.43,161.127 1612.13,161.075 1612.83,161.022 1613.53,160.97 1614.23,160.917 1614.93,160.865 1615.63,160.813 1616.33,160.761 1617.03,160.709 1617.73,160.657 1618.43,160.605 1619.13,160.554 1619.83,160.502 1620.53,160.451 1621.23,160.4 1621.93,160.349 1622.63,160.297 1623.33,160.246 1624.03,160.196 1624.73,160.145 1625.43,160.094 1626.13,160.044 1626.83,159.993 1627.53,159.943 1628.23,159.893 1628.93,159.843 1629.63,159.793 1630.33,159.743 1631.03,159.693 1631.73,159.643 1632.43,159.594 1633.13,159.544 1633.83,159.495 1634.53,159.446 1635.23,159.396 1635.93,159.347 1636.63,159.298 1637.33,159.249 1638.03,159.201 1638.73,159.152 1639.43,159.103 1640.13,159.055 1640.83,159.007 1641.53,158.958 1642.23,158.91 1642.93,158.862 1643.63,158.814 1644.33,158.766 1645.03,158.719 1645.73,158.671 1646.43,158.624 1647.13,158.576 1647.83,158.529 1648.53,158.481 1649.23,158.434 1649.93,158.387 1650.63,158.34 1651.33,158.293 1652.03,158.247 1652.73,158.2 1653.44,158.153 1654.14,158.107 1654.84,158.061 1655.54,158.014 1656.24,157.968 1656.94,157.922 1657.64,157.876 1658.34,157.83 1659.04,157.785 1659.74,157.739 1660.44,157.693 1661.14,157.648 1661.84,157.602 1662.54,157.557 1663.24,157.512 1663.94,157.467 1664.64,157.422 1665.34,157.377 1666.04,157.332 1666.74,157.287 1667.44,157.243 1668.14,157.198 1668.84,157.154 1669.54,157.109 1670.24,157.065 1670.94,157.021 1671.64,156.977 1672.34,156.933 1673.04,156.889 1673.74,156.845 1674.44,156.801 1675.14,156.758 1675.84,156.714 1676.54,156.671 1677.24,156.627 1677.94,156.584 1678.64,156.541 1679.34,156.498 1680.04,156.455 1680.74,156.412 1681.44,156.369 1682.14,156.326 1682.84,156.284 1683.54,156.241 1684.24,156.199 1684.94,156.156 1685.64,156.114 1686.34,156.072 1687.04,156.03 1687.74,155.988 1688.44,155.946 1689.14,155.904 1689.84,155.862 1690.54,155.821 1691.24,155.779 1691.94,155.738 1692.64,155.696 1693.34,155.655 1694.04,155.614 1694.74,155.573 1695.44,155.532 1696.14,155.491 1696.84,155.45 1697.54,155.409 1698.24,155.368 1698.94,155.328 1699.64,155.287 1700.34,155.247 1701.04,155.206 1701.74,155.166 1702.44,155.126 1703.14,155.086 1703.84,155.046 1704.54,155.006 1705.24,154.966 1705.94,154.926 1706.64,154.886 1707.34,154.847 1708.04,154.807 1708.74,154.768 1709.44,154.728 1710.14,154.689 1710.84,154.65 1711.55,154.611 1712.25,154.572 1712.95,154.533 1713.65,154.494 1714.35,154.455 1715.05,154.417 1715.75,154.378 1716.45,154.339 1717.15,154.301 1717.85,154.263 1718.55,154.224 1719.25,154.186 1719.95,154.148 1720.65,154.11 1721.35,154.072 1722.05,154.034 1722.75,153.996 1723.45,153.958 1724.15,153.921 1724.85,153.883 1725.55,153.846 1726.25,153.808 1726.95,153.771 1727.65,153.734 1728.35,153.696 1729.05,153.659 1729.75,153.622 1730.45,153.585 1731.15,153.548 1731.85,153.512 1732.55,153.475 1733.25,153.438 1733.95,153.402 1734.65,153.365 1735.35,153.329 1736.05,153.293 1736.75,153.256 1737.45,153.22 1738.15,153.184 1738.85,153.148 1739.55,153.112 1740.25,153.076 1740.95,153.04 1741.65,153.005 1742.35,152.969 1743.05,152.933 1743.75,152.898 1744.45,152.862 1745.15,152.827 1745.85,152.792 1746.55,152.756 1747.25,152.721 1747.95,152.686 1748.65,152.651 1749.35,152.616 1750.05,152.582 1750.75,152.547 1751.45,152.512 1752.15,152.477 1752.85,152.443 1753.55,152.408 1754.25,152.374 1754.95,152.34 1755.65,152.305 1756.35,152.271 1757.05,152.237 1757.75,152.203 1758.45,152.169 1759.15,152.135 1759.85,152.101 1760.55,152.068 1761.25,152.034 1761.95,152 1762.65,151.967 1763.35,151.933 1764.05,151.9 1764.75,151.866 1765.45,151.833 1766.15,151.8 1766.85,151.767 1767.55,151.734 1768.25,151.701 1768.95,151.668 1769.66,151.635 1770.36,151.602 1771.06,151.569 1771.76,151.537 1772.46,151.504 1773.16,151.472 1773.86,151.439 1774.56,151.407 1775.26,151.375 1775.96,151.342 1776.66,151.31 1777.36,151.278 1778.06,151.246 1778.76,151.214 1779.46,151.182 1780.16,151.15 1780.86,151.119 1781.56,151.087 1782.26,151.055 1782.96,151.024 1783.66,150.992 1784.36,150.961 1785.06,150.929 1785.76,150.898 1786.46,150.867 1787.16,150.836 1787.86,150.805 1788.56,150.773 1789.26,150.742 1789.96,150.712 1790.66,150.681 1791.36,150.65 1792.06,150.619 1792.76,150.589 1793.46,150.558 1794.16,150.527 1794.86,150.497 1795.56,150.467 1796.26,150.436 1796.96,150.406 1797.66,150.376 1798.36,150.346 1799.06,150.316 1799.76,150.286 1800.46,150.256 1801.16,150.226 1801.86,150.196 1802.56,150.166 1803.26,150.136 1803.96,150.107 1804.66,150.077 1805.36,150.048 1806.06,150.018 1806.76,149.989 1807.46,149.959 1808.16,149.93 1808.86,149.901 1809.56,149.872 1810.26,149.843 1810.96,149.814 1811.66,149.785 1812.36,149.756 1813.06,149.727 1813.76,149.698 1814.46,149.669 1815.16,149.641 1815.86,149.612 1816.56,149.584 1817.26,149.555 1817.96,149.527 1818.66,149.498 1819.36,149.47 1820.06,149.442 1820.76,149.414 1821.46,149.386 1822.16,149.357 1822.86,149.329 1823.56,149.302 1824.26,149.274 1824.96,149.246 1825.66,149.218 1826.36,149.19 1827.07,149.163 1827.77,149.135 1828.47,149.108 1829.17,149.08 1829.87,149.053 1830.57,149.025 1831.27,148.998 1831.97,148.971 1832.67,148.943 1833.37,148.916 1834.07,148.889 1834.77,148.862 1835.47,148.835 1836.17,148.808 1836.87,148.781 1837.57,148.755 1838.27,148.728 1838.97,148.701 1839.67,148.675 1840.37,148.648 1841.07,148.622 1841.77,148.595 1842.47,148.569 1843.17,148.542 1843.87,148.516 1844.57,148.49 1845.27,148.464 1845.97,148.437 1846.67,148.411 1847.37,148.385 1848.07,148.359 1848.77,148.333 1849.47,148.308 1850.17,148.282 1850.87,148.256 1851.57,148.23 1852.27,148.205 1852.97,148.179 1853.67,148.154 1854.37,148.128 1855.07,148.103 1855.77,148.077 1856.47,148.052 1857.17,148.027 1857.87,148.001 1858.57,147.976 1859.27,147.951 1859.97,147.926 1860.67,147.901 1861.37,147.876 1862.07,147.851 1862.77,147.826 1863.47,147.802 1864.17,147.777 1864.87,147.752 1865.57,147.728 1866.27,147.703 1866.97,147.678 1867.67,147.654 1868.37,147.63 1869.07,147.605 1869.77,147.581 1870.47,147.557 1871.17,147.532 1871.87,147.508 1872.57,147.484 1873.27,147.46 1873.97,147.436 1874.67,147.412 1875.37,147.388 1876.07,147.364 1876.77,147.34 1877.47,147.316 1878.17,147.293 1878.87,147.269 1879.57,147.245 1880.27,147.222 1880.97,147.198 1881.67,147.175 1882.37,147.151 1883.07,147.128 1883.77,147.105 1884.47,147.081 1885.18,147.058 1885.88,147.035 1886.58,147.012 1887.28,146.989 1887.98,146.966 1888.68,146.943 1889.38,146.92 1890.08,146.897 1890.78,146.874 1891.48,146.851 1892.18,146.829 1892.88,146.806 1893.58,146.783 1894.28,146.761 1894.98,146.738 1895.68,146.715 1896.38,146.693 1897.08,146.671 1897.78,146.648 1898.48,146.626 1899.18,146.604 1899.88,146.581 1900.58,146.559 1901.28,146.537 1901.98,146.515 1902.68,146.493 1903.38,146.471 1904.08,146.449 1904.78,146.427 1905.48,146.405 1906.18,146.383 1906.88,146.362 1907.58,146.34 1908.28,146.318 1908.98,146.297 1909.68,146.275 1910.38,146.253 1911.08,146.232 1911.78,146.211 1912.48,146.189 1913.18,146.168 1913.88,146.146 1914.58,146.125 1915.28,146.104 1915.98,146.083 1916.68,146.062 1917.38,146.041 1918.08,146.019 1918.78,145.998 1919.48,145.978 1920.18,145.957 1920.88,145.936 1921.58,145.915 1922.28,145.894 1922.98,145.873 1923.68,145.853 1924.38,145.832 1925.08,145.811 1925.78,145.791 1926.48,145.77 1927.18,145.75 1927.88,145.729 1928.58,145.709 1929.28,145.689 1929.98,145.668 1930.68,145.648 1931.38,145.628 1932.08,145.608 1932.78,145.587 1933.48,145.567 1934.18,145.547 1934.88,145.527 1935.58,145.507 1936.28,145.487 1936.98,145.468 1937.68,145.448 1938.38,145.428 1939.08,145.408 1939.78,145.388 1940.48,145.369 1941.18,145.349 1941.88,145.329 1942.58,145.31 1943.29,145.29 1943.99,145.271 1944.69,145.251 1945.39,145.232 1946.09,145.213 1946.79,145.193 1947.49,145.174 1948.19,145.155 1948.89,145.136 1949.59,145.117 1950.29,145.097 1950.99,145.078 1951.69,145.059 1952.39,145.04 1953.09,145.021 1953.79,145.002 1954.49,144.984 1955.19,144.965 1955.89,144.946 1956.59,144.927 1957.29,144.909 1957.99,144.89 1958.69,144.871 1959.39,144.853 1960.09,144.834 1960.79,144.816 1961.49,144.797 1962.19,144.779 1962.89,144.76 1963.59,144.742 1964.29,144.724 1964.99,144.705 1965.69,144.687 1966.39,144.669 1967.09,144.651 1967.79,144.632 1968.49,144.614 1969.19,144.596 1969.89,144.578 1970.59,144.56 1971.29,144.542 1971.99,144.524 1972.69,144.507 1973.39,144.489 1974.09,144.471 1974.79,144.453 1975.49,144.435 1976.19,144.418 1976.89,144.4 1977.59,144.383 1978.29,144.365 1978.99,144.347 1979.69,144.33 1980.39,144.312 1981.09,144.295 1981.79,144.278 1982.49,144.26 1983.19,144.243 1983.89,144.226 1984.59,144.208 1985.29,144.191 1985.99,144.174 1986.69,144.157 1987.39,144.14 1988.09,144.123 1988.79,144.106 1989.49,144.089 1990.19,144.072 1990.89,144.055 1991.59,144.038 1992.29,144.021 1992.99,144.004 1993.69,143.988 1994.39,143.971 1995.09,143.954 1995.79,143.937 1996.49,143.921 1997.19,143.904 1997.89,143.888 1998.59,143.871 1999.29,143.855 1999.99,143.838 2000.7,143.822 2001.4,143.805 2002.1,143.789 2002.8,143.773 2003.5,143.756 2004.2,143.74 2004.9,143.724 2005.6,143.708 2006.3,143.691 2007,143.675 2007.7,143.659 2008.4,143.643 2009.1,143.627 2009.8,143.611 2010.5,143.595 2011.2,143.579 2011.9,143.563 2012.6,143.548 2013.3,143.532 2014,143.516 2014.7,143.5 2015.4,143.485 2016.1,143.469 2016.8,143.453 2017.5,143.438 2018.2,143.422 2018.9,143.406 2019.6,143.391 2020.3,143.375 2021,143.36 2021.7,143.345 2022.4,143.329 2023.1,143.314 2023.8,143.298 2024.5,143.283 2025.2,143.268 2025.9,143.253 2026.6,143.237 2027.3,143.222 2028,143.207 2028.7,143.192 2029.4,143.177 2030.1,143.162 2030.8,143.147 2031.5,143.132 2032.2,143.117 2032.9,143.102 2033.6,143.087 2034.3,143.072 2035,143.057 2035.7,143.043 2036.4,143.028 2037.1,143.013 2037.8,142.998 2038.5,142.984 2039.2,142.969 2039.9,142.955 2040.6,142.94 2041.3,142.925 2042,142.911 2042.7,142.896 2043.4,142.882 2044.1,142.868 2044.8,142.853 2045.5,142.839 2046.2,142.824 2046.9,142.81 2047.6,142.796 2048.3,142.782 2049,142.767 2049.7,142.753 2050.4,142.739 2051.1,142.725 2051.8,142.711 2052.5,142.697 2053.2,142.683 2053.9,142.669 2054.6,142.655 2055.3,142.641 2056,142.627 2056.7,142.613 2057.4,142.599 2058.1,142.585 2058.81,142.572 2059.51,142.558 2060.21,142.544 2060.91,142.53 2061.61,142.517 2062.31,142.503 2063.01,142.489 2063.71,142.476 2064.41,142.462 2065.11,142.449 2065.81,142.435 2066.51,142.422 2067.21,142.408 2067.91,142.395 2068.61,142.381 2069.31,142.368 2070.01,142.355 2070.71,142.341 2071.41,142.328 2072.11,142.315 2072.81,142.302 2073.51,142.288 2074.21,142.275 2074.91,142.262 2075.61,142.249 2076.31,142.236 2077.01,142.223 2077.71,142.21 2078.41,142.197 2079.11,142.184 2079.81,142.171 2080.51,142.158 2081.21,142.145 2081.91,142.132 2082.61,142.119 2083.31,142.106 2084.01,142.094 2084.71,142.081 2085.41,142.068 2086.11,142.055 2086.81,142.043 2087.51,142.03 2088.21,142.017 2088.91,142.005 2089.61,141.992 2090.31,141.98 2091.01,141.967 2091.71,141.955 2092.41,141.942 2093.11,141.93 2093.81,141.917 2094.51,141.905 2095.21,141.892 2095.91,141.88 2096.61,141.868 2097.31,141.855 2098.01,141.843 2098.71,141.831 2099.41,141.819 2100.11,141.806 2100.81,141.794 2101.51,141.782 2102.21,141.77 2102.91,141.758 2103.61,141.746 2104.31,141.734 2105.01,141.722 2105.71,141.71 2106.41,141.698 2107.11,141.686 2107.81,141.674 2108.51,141.662 2109.21,141.65 2109.91,141.638 2110.61,141.627 2111.31,141.615 2112.01,141.603 2112.71,141.591 2113.41,141.58 2114.11,141.568 2114.81,141.556 2115.51,141.545 2116.22,141.533 2116.92,141.521 2117.62,141.51 2118.32,141.498 2119.02,141.487 2119.72,141.475 2120.42,141.464 2121.12,141.452 2121.82,141.441 2122.52,141.429 2123.22,141.418 2123.92,141.407 2124.62,141.395 2125.32,141.384 2126.02,141.373 2126.72,141.362 2127.42,141.35 2128.12,141.339 2128.82,141.328 2129.52,141.317 2130.22,141.306 2130.92,141.295 2131.62,141.283 2132.32,141.272 2133.02,141.261 2133.72,141.25 2134.42,141.239 2135.12,141.228 2135.82,141.217 2136.52,141.206 2137.22,141.196 2137.92,141.185 2138.62,141.174 2139.32,141.163 2140.02,141.152 2140.72,141.141 2141.42,141.131 2142.12,141.12 2142.82,141.109 2143.52,141.098 2144.22,141.088 2144.92,141.077 2145.62,141.066 2146.32,141.056 2147.02,141.045 2147.72,141.035 2148.42,141.024 2149.12,141.014 2149.82,141.003 2150.52,140.993 2151.22,140.982 2151.92,140.972 2152.62,140.961 2153.32,140.951 2154.02,140.94 2154.72,140.93 2155.42,140.92 2156.12,140.909 2156.82,140.899 2157.52,140.889 2158.22,140.879 2158.92,140.868 2159.62,140.858 2160.32,140.848 2161.02,140.838 2161.72,140.828 2162.42,140.818 2163.12,140.808 2163.82,140.798 2164.52,140.787 2165.22,140.777 2165.92,140.767 2166.62,140.757 2167.32,140.747 2168.02,140.738 2168.72,140.728 2169.42,140.718 2170.12,140.708 2170.82,140.698 2171.52,140.688 2172.22,140.678 2172.92,140.668 2173.62,140.659 2174.33,140.649 2175.03,140.639 2175.73,140.629 2176.43,140.62 2177.13,140.61 2177.83,140.6 2178.53,140.591 2179.23,140.581 2179.93,140.572 2180.63,140.562 2181.33,140.552 2182.03,140.543 2182.73,140.533 2183.43,140.524 2184.13,140.514 2184.83,140.505 2185.53,140.496 2186.23,140.486 2186.93,140.477 2187.63,140.467 2188.33,140.458 2189.03,140.449 2189.73,140.439 2190.43,140.43 2191.13,140.421 2191.83,140.411 2192.53,140.402 2193.23,140.393 2193.93,140.384 2194.63,140.375 2195.33,140.365 2196.03,140.356 2196.73,140.347 2197.43,140.338 2198.13,140.329 2198.83,140.32 2199.53,140.311 2200.23,140.302 2200.93,140.293 2201.63,140.284 2202.33,140.275 2203.03,140.266 2203.73,140.257 2204.43,140.248 2205.13,140.239 2205.83,140.23 2206.53,140.221 2207.23,140.213 2207.93,140.204 2208.63,140.195 2209.33,140.186 2210.03,140.177 2210.73,140.169 2211.43,140.16 2212.13,140.151 2212.83,140.142 2213.53,140.134 2214.23,140.125 2214.93,140.117 2215.63,140.108 2216.33,140.099 2217.03,140.091 2217.73,140.082 2218.43,140.074 2219.13,140.065 2219.83,140.057 2220.53,140.048 2221.23,140.04 2221.93,140.031 2222.63,140.023 2223.33,140.014 2224.03,140.006 2224.73,139.997 2225.43,139.989 2226.13,139.981 2226.83,139.972 2227.53,139.964 2228.23,139.956 2228.93,139.947 2229.63,139.939 2230.33,139.931 2231.03,139.923 2231.73,139.914 2232.44,139.906 2233.14,139.898 2233.84,139.89 2234.54,139.882 2235.24,139.874 2235.94,139.866 2236.64,139.857 2237.34,139.849 2238.04,139.841 2238.74,139.833 2239.44,139.825 2240.14,139.817 2240.84,139.809 2241.54,139.801 2242.24,139.793 2242.94,139.785 2243.64,139.777 2244.34,139.77 2245.04,139.762 2245.74,139.754 2246.44,139.746 2247.14,139.738 2247.84,139.73 2248.54,139.722 2249.24,139.715 2249.94,139.707 2250.64,139.699 2251.34,139.691 2252.04,139.684 2252.74,139.676 2253.44,139.668 2254.14,139.66 2254.84,139.653 2255.54,139.645 2256.24,139.638 2256.94,139.63 2257.64,139.622 2258.34,139.615 2259.04,139.607 2259.74,139.6 2260.44,139.592 2261.14,139.585 2261.84,139.577 2262.54,139.57 2263.24,139.562 2263.94,139.555 2264.64,139.547 2265.34,139.54 2266.04,139.532 2266.74,139.525 2267.44,139.518 2268.14,139.51 2268.84,139.503 2269.54,139.495 2270.24,139.488 2270.94,139.481 2271.64,139.474 2272.34,139.466 2273.04,139.459 2273.74,139.452 2274.44,139.445 2275.14,139.437 2275.84,139.43 2276.54,139.423 2277.24,139.416 2277.94,139.409 2278.64,139.402 2279.34,139.394 2280.04,139.387 2280.74,139.38 2281.44,139.373 2282.14,139.366 2282.84,139.359 2283.54,139.352 2284.24,139.345 2284.94,139.338 2285.64,139.331 2286.34,139.324 2287.04,139.317 2287.74,139.31 2288.44,139.303 2289.14,139.296 2289.85,139.289 2290.55,139.282 2291.25,139.276 2291.95,139.269 2292.65,139.262 "/>
<circle clip-path="url(#clip472)" cx="292.4" cy="1325" r="14.4" fill="#3da44d" fill-rule="evenodd" fill-opacity="1" stroke="#000000" stroke-opacity="1" stroke-width="3.2"/>
<circle clip-path="url(#clip472)" cx="325.739" cy="1264.41" r="14.4" fill="#3da44d" fill-rule="evenodd" fill-opacity="1" stroke="#000000" stroke-opacity="1" stroke-width="3.2"/>
<circle clip-path="url(#clip472)" cx="359.078" cy="1159.41" r="14.4" fill="#3da44d" fill-rule="evenodd" fill-opacity="1" stroke="#000000" stroke-opacity="1" stroke-width="3.2"/>
<circle clip-path="url(#clip472)" cx="392.417" cy="1046.26" r="14.4" fill="#3da44d" fill-rule="evenodd" fill-opacity="1" stroke="#000000" stroke-opacity="1" stroke-width="3.2"/>
<circle clip-path="url(#clip472)" cx="425.756" cy="955.574" r="14.4" fill="#3da44d" fill-rule="evenodd" fill-opacity="1" stroke="#000000" stroke-opacity="1" stroke-width="3.2"/>
<circle clip-path="url(#clip472)" cx="459.095" cy="895.338" r="14.4" fill="#3da44d" fill-rule="evenodd" fill-opacity="1" stroke="#000000" stroke-opacity="1" stroke-width="3.2"/>
<circle clip-path="url(#clip472)" cx="492.434" cy="801.733" r="14.4" fill="#3da44d" fill-rule="evenodd" fill-opacity="1" stroke="#000000" stroke-opacity="1" stroke-width="3.2"/>
<circle clip-path="url(#clip472)" cx="525.773" cy="775.367" r="14.4" fill="#3da44d" fill-rule="evenodd" fill-opacity="1" stroke="#000000" stroke-opacity="1" stroke-width="3.2"/>
<circle clip-path="url(#clip472)" cx="559.112" cy="709.093" r="14.4" fill="#3da44d" fill-rule="evenodd" fill-opacity="1" stroke="#000000" stroke-opacity="1" stroke-width="3.2"/>
<circle clip-path="url(#clip472)" cx="592.452" cy="621.76" r="14.4" fill="#3da44d" fill-rule="evenodd" fill-opacity="1" stroke="#000000" stroke-opacity="1" stroke-width="3.2"/>
<circle clip-path="url(#clip472)" cx="625.791" cy="577.421" r="14.4" fill="#3da44d" fill-rule="evenodd" fill-opacity="1" stroke="#000000" stroke-opacity="1" stroke-width="3.2"/>
<circle clip-path="url(#clip472)" cx="659.13" cy="560.9" r="14.4" fill="#3da44d" fill-rule="evenodd" fill-opacity="1" stroke="#000000" stroke-opacity="1" stroke-width="3.2"/>
<circle clip-path="url(#clip472)" cx="692.469" cy="496.485" r="14.4" fill="#3da44d" fill-rule="evenodd" fill-opacity="1" stroke="#000000" stroke-opacity="1" stroke-width="3.2"/>
<circle clip-path="url(#clip472)" cx="725.808" cy="461.028" r="14.4" fill="#3da44d" fill-rule="evenodd" fill-opacity="1" stroke="#000000" stroke-opacity="1" stroke-width="3.2"/>
<circle clip-path="url(#clip472)" cx="759.147" cy="425.429" r="14.4" fill="#3da44d" fill-rule="evenodd" fill-opacity="1" stroke="#000000" stroke-opacity="1" stroke-width="3.2"/>
<circle clip-path="url(#clip472)" cx="792.486" cy="430.449" r="14.4" fill="#3da44d" fill-rule="evenodd" fill-opacity="1" stroke="#000000" stroke-opacity="1" stroke-width="3.2"/>
<circle clip-path="url(#clip472)" cx="825.825" cy="389.752" r="14.4" fill="#3da44d" fill-rule="evenodd" fill-opacity="1" stroke="#000000" stroke-opacity="1" stroke-width="3.2"/>
<circle clip-path="url(#clip472)" cx="859.164" cy="370.475" r="14.4" fill="#3da44d" fill-rule="evenodd" fill-opacity="1" stroke="#000000" stroke-opacity="1" stroke-width="3.2"/>
<circle clip-path="url(#clip472)" cx="892.503" cy="304.225" r="14.4" fill="#3da44d" fill-rule="evenodd" fill-opacity="1" stroke="#000000" stroke-opacity="1" stroke-width="3.2"/>
<circle clip-path="url(#clip472)" cx="925.843" cy="286.246" r="14.4" fill="#3da44d" fill-rule="evenodd" fill-opacity="1" stroke="#000000" stroke-opacity="1" stroke-width="3.2"/>
<circle clip-path="url(#clip472)" cx="959.182" cy="298.079" r="14.4" fill="#3da44d" fill-rule="evenodd" fill-opacity="1" stroke="#000000" stroke-opacity="1" stroke-width="3.2"/>
<circle clip-path="url(#clip472)" cx="992.521" cy="306.541" r="14.4" fill="#3da44d" fill-rule="evenodd" fill-opacity="1" stroke="#000000" stroke-opacity="1" stroke-width="3.2"/>
<circle clip-path="url(#clip472)" cx="1025.86" cy="335.391" r="14.4" fill="#3da44d" fill-rule="evenodd" fill-opacity="1" stroke="#000000" stroke-opacity="1" stroke-width="3.2"/>
<circle clip-path="url(#clip472)" cx="1059.2" cy="278.285" r="14.4" fill="#3da44d" fill-rule="evenodd" fill-opacity="1" stroke="#000000" stroke-opacity="1" stroke-width="3.2"/>
<circle clip-path="url(#clip472)" cx="1092.54" cy="241.792" r="14.4" fill="#3da44d" fill-rule="evenodd" fill-opacity="1" stroke="#000000" stroke-opacity="1" stroke-width="3.2"/>
<circle clip-path="url(#clip472)" cx="1125.88" cy="251.472" r="14.4" fill="#3da44d" fill-rule="evenodd" fill-opacity="1" stroke="#000000" stroke-opacity="1" stroke-width="3.2"/>
<circle clip-path="url(#clip472)" cx="1159.22" cy="201.916" r="14.4" fill="#3da44d" fill-rule="evenodd" fill-opacity="1" stroke="#000000" stroke-opacity="1" stroke-width="3.2"/>
<circle clip-path="url(#clip472)" cx="1192.56" cy="222.334" r="14.4" fill="#3da44d" fill-rule="evenodd" fill-opacity="1" stroke="#000000" stroke-opacity="1" stroke-width="3.2"/>
<circle clip-path="url(#clip472)" cx="1225.89" cy="217.723" r="14.4" fill="#3da44d" fill-rule="evenodd" fill-opacity="1" stroke="#000000" stroke-opacity="1" stroke-width="3.2"/>
<circle clip-path="url(#clip472)" cx="1259.23" cy="193.351" r="14.4" fill="#3da44d" fill-rule="evenodd" fill-opacity="1" stroke="#000000" stroke-opacity="1" stroke-width="3.2"/>
<circle clip-path="url(#clip472)" cx="1292.57" cy="195.462" r="14.4" fill="#3da44d" fill-rule="evenodd" fill-opacity="1" stroke="#000000" stroke-opacity="1" stroke-width="3.2"/>
<circle clip-path="url(#clip472)" cx="1325.91" cy="242.347" r="14.4" fill="#3da44d" fill-rule="evenodd" fill-opacity="1" stroke="#000000" stroke-opacity="1" stroke-width="3.2"/>
<circle clip-path="url(#clip472)" cx="1359.25" cy="169.387" r="14.4" fill="#3da44d" fill-rule="evenodd" fill-opacity="1" stroke="#000000" stroke-opacity="1" stroke-width="3.2"/>
<circle clip-path="url(#clip472)" cx="1392.59" cy="221.785" r="14.4" fill="#3da44d" fill-rule="evenodd" fill-opacity="1" stroke="#000000" stroke-opacity="1" stroke-width="3.2"/>
<circle clip-path="url(#clip472)" cx="1425.93" cy="140.174" r="14.4" fill="#3da44d" fill-rule="evenodd" fill-opacity="1" stroke="#000000" stroke-opacity="1" stroke-width="3.2"/>
<circle clip-path="url(#clip472)" cx="1459.27" cy="216.458" r="14.4" fill="#3da44d" fill-rule="evenodd" fill-opacity="1" stroke="#000000" stroke-opacity="1" stroke-width="3.2"/>
<circle clip-path="url(#clip472)" cx="1492.61" cy="162.655" r="14.4" fill="#3da44d" fill-rule="evenodd" fill-opacity="1" stroke="#000000" stroke-opacity="1" stroke-width="3.2"/>
<circle clip-path="url(#clip472)" cx="1525.95" cy="134.661" r="14.4" fill="#3da44d" fill-rule="evenodd" fill-opacity="1" stroke="#000000" stroke-opacity="1" stroke-width="3.2"/>
<circle clip-path="url(#clip472)" cx="1559.29" cy="161.656" r="14.4" fill="#3da44d" fill-rule="evenodd" fill-opacity="1" stroke="#000000" stroke-opacity="1" stroke-width="3.2"/>
<circle clip-path="url(#clip472)" cx="1592.62" cy="171.403" r="14.4" fill="#3da44d" fill-rule="evenodd" fill-opacity="1" stroke="#000000" stroke-opacity="1" stroke-width="3.2"/>
<circle clip-path="url(#clip472)" cx="1625.96" cy="147.041" r="14.4" fill="#3da44d" fill-rule="evenodd" fill-opacity="1" stroke="#000000" stroke-opacity="1" stroke-width="3.2"/>
<circle clip-path="url(#clip472)" cx="1659.3" cy="155.791" r="14.4" fill="#3da44d" fill-rule="evenodd" fill-opacity="1" stroke="#000000" stroke-opacity="1" stroke-width="3.2"/>
<circle clip-path="url(#clip472)" cx="1692.64" cy="124.54" r="14.4" fill="#3da44d" fill-rule="evenodd" fill-opacity="1" stroke="#000000" stroke-opacity="1" stroke-width="3.2"/>
<circle clip-path="url(#clip472)" cx="1725.98" cy="126.453" r="14.4" fill="#3da44d" fill-rule="evenodd" fill-opacity="1" stroke="#000000" stroke-opacity="1" stroke-width="3.2"/>
<circle clip-path="url(#clip472)" cx="1759.32" cy="127.69" r="14.4" fill="#3da44d" fill-rule="evenodd" fill-opacity="1" stroke="#000000" stroke-opacity="1" stroke-width="3.2"/>
<circle clip-path="url(#clip472)" cx="1792.66" cy="134.655" r="14.4" fill="#3da44d" fill-rule="evenodd" fill-opacity="1" stroke="#000000" stroke-opacity="1" stroke-width="3.2"/>
<circle clip-path="url(#clip472)" cx="1826" cy="126.122" r="14.4" fill="#3da44d" fill-rule="evenodd" fill-opacity="1" stroke="#000000" stroke-opacity="1" stroke-width="3.2"/>
<circle clip-path="url(#clip472)" cx="1859.34" cy="149.87" r="14.4" fill="#3da44d" fill-rule="evenodd" fill-opacity="1" stroke="#000000" stroke-opacity="1" stroke-width="3.2"/>
<circle clip-path="url(#clip472)" cx="1892.68" cy="125.294" r="14.4" fill="#3da44d" fill-rule="evenodd" fill-opacity="1" stroke="#000000" stroke-opacity="1" stroke-width="3.2"/>
<circle clip-path="url(#clip472)" cx="1926.02" cy="129.153" r="14.4" fill="#3da44d" fill-rule="evenodd" fill-opacity="1" stroke="#000000" stroke-opacity="1" stroke-width="3.2"/>
<circle clip-path="url(#clip472)" cx="1959.35" cy="151.147" r="14.4" fill="#3da44d" fill-rule="evenodd" fill-opacity="1" stroke="#000000" stroke-opacity="1" stroke-width="3.2"/>
<circle clip-path="url(#clip472)" cx="1992.69" cy="86.1857" r="14.4" fill="#3da44d" fill-rule="evenodd" fill-opacity="1" stroke="#000000" stroke-opacity="1" stroke-width="3.2"/>
<circle clip-path="url(#clip472)" cx="2026.03" cy="139.84" r="14.4" fill="#3da44d" fill-rule="evenodd" fill-opacity="1" stroke="#000000" stroke-opacity="1" stroke-width="3.2"/>
<circle clip-path="url(#clip472)" cx="2059.37" cy="120.52" r="14.4" fill="#3da44d" fill-rule="evenodd" fill-opacity="1" stroke="#000000" stroke-opacity="1" stroke-width="3.2"/>
<circle clip-path="url(#clip472)" cx="2092.71" cy="131.673" r="14.4" fill="#3da44d" fill-rule="evenodd" fill-opacity="1" stroke="#000000" stroke-opacity="1" stroke-width="3.2"/>
<circle clip-path="url(#clip472)" cx="2126.05" cy="155.875" r="14.4" fill="#3da44d" fill-rule="evenodd" fill-opacity="1" stroke="#000000" stroke-opacity="1" stroke-width="3.2"/>
<circle clip-path="url(#clip472)" cx="2159.39" cy="120.008" r="14.4" fill="#3da44d" fill-rule="evenodd" fill-opacity="1" stroke="#000000" stroke-opacity="1" stroke-width="3.2"/>
<circle clip-path="url(#clip472)" cx="2192.73" cy="175.617" r="14.4" fill="#3da44d" fill-rule="evenodd" fill-opacity="1" stroke="#000000" stroke-opacity="1" stroke-width="3.2"/>
<circle clip-path="url(#clip472)" cx="2226.07" cy="163.388" r="14.4" fill="#3da44d" fill-rule="evenodd" fill-opacity="1" stroke="#000000" stroke-opacity="1" stroke-width="3.2"/>
<circle clip-path="url(#clip472)" cx="2259.41" cy="187.992" r="14.4" fill="#3da44d" fill-rule="evenodd" fill-opacity="1" stroke="#000000" stroke-opacity="1" stroke-width="3.2"/>
<circle clip-path="url(#clip472)" cx="2292.75" cy="193.563" r="14.4" fill="#3da44d" fill-rule="evenodd" fill-opacity="1" stroke="#000000" stroke-opacity="1" stroke-width="3.2"/>
<path clip-path="url(#clip470)" d="M303.068 300.469 L993.227 300.469 L993.227 93.1086 L303.068 93.1086  Z" fill="#ffffff" fill-rule="evenodd" fill-opacity="1"/>
<polyline clip-path="url(#clip470)" style="stroke:#000000; stroke-linecap:round; stroke-linejoin:round; stroke-width:4; stroke-opacity:1; fill:none" points="303.068,300.469 993.227,300.469 993.227,93.1086 303.068,93.1086 303.068,300.469 "/>
<polyline clip-path="url(#clip470)" style="stroke:#009af9; stroke-linecap:round; stroke-linejoin:round; stroke-width:4; stroke-opacity:1; fill:none" points="326.628,144.949 467.986,144.949 "/>
<path clip-path="url(#clip470)" d="M496.221 131.511 L496.221 144.497 L502.101 144.497 Q505.365 144.497 507.147 142.807 Q508.929 141.118 508.929 137.993 Q508.929 134.891 507.147 133.201 Q505.365 131.511 502.101 131.511 L496.221 131.511 M491.545 127.669 L502.101 127.669 Q507.911 127.669 510.874 130.307 Q513.86 132.923 513.86 137.993 Q513.86 143.108 510.874 145.724 Q507.911 148.34 502.101 148.34 L496.221 148.34 L496.221 162.229 L491.545 162.229 L491.545 127.669 Z" fill="#000000" fill-rule="nonzero" fill-opacity="1" /><path clip-path="url(#clip470)" d="M521.36 158.293 L528.999 158.293 L528.999 131.928 L520.689 133.595 L520.689 129.335 L528.952 127.669 L533.628 127.669 L533.628 158.293 L541.267 158.293 L541.267 162.229 L521.36 162.229 L521.36 158.293 Z" fill="#000000" fill-rule="nonzero" fill-opacity="1" /><polyline clip-path="url(#clip470)" style="stroke:#e26f46; stroke-linecap:round; stroke-linejoin:round; stroke-width:4; stroke-opacity:1; fill:none" points="326.628,196.789 467.986,196.789 "/>
<path clip-path="url(#clip470)" d="M496.221 183.351 L496.221 196.337 L502.101 196.337 Q505.365 196.337 507.147 194.647 Q508.929 192.958 508.929 189.833 Q508.929 186.731 507.147 185.041 Q505.365 183.351 502.101 183.351 L496.221 183.351 M491.545 179.509 L502.101 179.509 Q507.911 179.509 510.874 182.147 Q513.86 184.763 513.86 189.833 Q513.86 194.948 510.874 197.564 Q507.911 200.18 502.101 200.18 L496.221 200.18 L496.221 214.069 L491.545 214.069 L491.545 179.509 Z" fill="#000000" fill-rule="nonzero" fill-opacity="1" /><path clip-path="url(#clip470)" d="M524.577 210.133 L540.897 210.133 L540.897 214.069 L518.953 214.069 L518.953 210.133 Q521.615 207.379 526.198 202.749 Q530.804 198.096 531.985 196.754 Q534.23 194.231 535.11 192.495 Q536.013 190.735 536.013 189.046 Q536.013 186.291 534.068 184.555 Q532.147 182.819 529.045 182.819 Q526.846 182.819 524.392 183.583 Q521.962 184.347 519.184 185.897 L519.184 181.175 Q522.008 180.041 524.462 179.462 Q526.915 178.884 528.952 178.884 Q534.323 178.884 537.517 181.569 Q540.712 184.254 540.712 188.745 Q540.712 190.874 539.901 192.796 Q539.114 194.694 537.008 197.286 Q536.429 197.958 533.327 201.175 Q530.226 204.37 524.577 210.133 Z" fill="#000000" fill-rule="nonzero" fill-opacity="1" /><circle clip-path="url(#clip470)" cx="397.307" cy="248.629" r="20.48" fill="#3da44d" fill-rule="evenodd" fill-opacity="1" stroke="#000000" stroke-opacity="1" stroke-width="4.55111"/>
<path clip-path="url(#clip470)" d="M491.545 231.349 L497.842 231.349 L513.166 260.261 L513.166 231.349 L517.703 231.349 L517.703 265.909 L511.406 265.909 L496.082 236.997 L496.082 265.909 L491.545 265.909 L491.545 231.349 Z" fill="#000000" fill-rule="nonzero" fill-opacity="1" /><path clip-path="url(#clip470)" d="M536.869 242.969 Q533.443 242.969 531.452 245.654 Q529.462 248.316 529.462 252.969 Q529.462 257.622 531.429 260.307 Q533.42 262.969 536.869 262.969 Q540.272 262.969 542.263 260.284 Q544.253 257.598 544.253 252.969 Q544.253 248.362 542.263 245.677 Q540.272 242.969 536.869 242.969 M536.869 239.358 Q542.425 239.358 545.596 242.969 Q548.767 246.58 548.767 252.969 Q548.767 259.335 545.596 262.969 Q542.425 266.58 536.869 266.58 Q531.29 266.58 528.119 262.969 Q524.971 259.335 524.971 252.969 Q524.971 246.58 528.119 242.969 Q531.29 239.358 536.869 239.358 Z" fill="#000000" fill-rule="nonzero" fill-opacity="1" /><path clip-path="url(#clip470)" d="M555.827 239.983 L560.087 239.983 L560.087 265.909 L555.827 265.909 L555.827 239.983 M555.827 229.89 L560.087 229.89 L560.087 235.284 L555.827 235.284 L555.827 229.89 Z" fill="#000000" fill-rule="nonzero" fill-opacity="1" /><path clip-path="url(#clip470)" d="M585.526 240.747 L585.526 244.774 Q583.721 243.849 581.776 243.386 Q579.832 242.923 577.749 242.923 Q574.577 242.923 572.98 243.895 Q571.406 244.867 571.406 246.811 Q571.406 248.293 572.54 249.149 Q573.674 249.983 577.1 250.747 L578.559 251.071 Q583.096 252.043 584.994 253.825 Q586.915 255.585 586.915 258.756 Q586.915 262.367 584.045 264.473 Q581.198 266.58 576.198 266.58 Q574.114 266.58 571.846 266.163 Q569.6 265.77 567.1 264.96 L567.1 260.561 Q569.462 261.788 571.753 262.413 Q574.045 263.015 576.29 263.015 Q579.299 263.015 580.92 261.997 Q582.54 260.955 582.54 259.08 Q582.54 257.344 581.36 256.418 Q580.202 255.492 576.244 254.636 L574.762 254.288 Q570.804 253.455 569.045 251.742 Q567.286 250.006 567.286 246.997 Q567.286 243.339 569.878 241.349 Q572.471 239.358 577.239 239.358 Q579.6 239.358 581.684 239.705 Q583.767 240.052 585.526 240.747 Z" fill="#000000" fill-rule="nonzero" fill-opacity="1" /><path clip-path="url(#clip470)" d="M604.484 268.316 Q602.679 272.946 600.966 274.358 Q599.253 275.77 596.383 275.77 L592.98 275.77 L592.98 272.205 L595.48 272.205 Q597.239 272.205 598.211 271.372 Q599.184 270.538 600.364 267.436 L601.128 265.492 L590.642 239.983 L595.156 239.983 L603.258 260.261 L611.359 239.983 L615.873 239.983 L604.484 268.316 Z" fill="#000000" fill-rule="nonzero" fill-opacity="1" /><path clip-path="url(#clip470)" d="M646.869 242.969 Q643.443 242.969 641.452 245.654 Q639.461 248.316 639.461 252.969 Q639.461 257.622 641.429 260.307 Q643.419 262.969 646.869 262.969 Q650.271 262.969 652.262 260.284 Q654.253 257.598 654.253 252.969 Q654.253 248.362 652.262 245.677 Q650.271 242.969 646.869 242.969 M646.869 239.358 Q652.424 239.358 655.595 242.969 Q658.767 246.58 658.767 252.969 Q658.767 259.335 655.595 262.969 Q652.424 266.58 646.869 266.58 Q641.29 266.58 638.119 262.969 Q634.97 259.335 634.97 252.969 Q634.97 246.58 638.119 242.969 Q641.29 239.358 646.869 239.358 Z" fill="#000000" fill-rule="nonzero" fill-opacity="1" /><path clip-path="url(#clip470)" d="M684.438 252.969 Q684.438 248.27 682.493 245.608 Q680.572 242.923 677.192 242.923 Q673.813 242.923 671.868 245.608 Q669.947 248.27 669.947 252.969 Q669.947 257.668 671.868 260.353 Q673.813 263.015 677.192 263.015 Q680.572 263.015 682.493 260.353 Q684.438 257.668 684.438 252.969 M669.947 243.918 Q671.29 241.603 673.327 240.492 Q675.387 239.358 678.234 239.358 Q682.956 239.358 685.896 243.108 Q688.859 246.858 688.859 252.969 Q688.859 259.08 685.896 262.83 Q682.956 266.58 678.234 266.58 Q675.387 266.58 673.327 265.469 Q671.29 264.335 669.947 262.02 L669.947 265.909 L665.665 265.909 L665.665 229.89 L669.947 229.89 L669.947 243.918 Z" fill="#000000" fill-rule="nonzero" fill-opacity="1" /><path clip-path="url(#clip470)" d="M712.447 240.747 L712.447 244.774 Q710.641 243.849 708.697 243.386 Q706.752 242.923 704.669 242.923 Q701.498 242.923 699.901 243.895 Q698.327 244.867 698.327 246.811 Q698.327 248.293 699.461 249.149 Q700.595 249.983 704.021 250.747 L705.479 251.071 Q710.016 252.043 711.914 253.825 Q713.836 255.585 713.836 258.756 Q713.836 262.367 710.965 264.473 Q708.118 266.58 703.118 266.58 Q701.035 266.58 698.766 266.163 Q696.521 265.77 694.021 264.96 L694.021 260.561 Q696.382 261.788 698.674 262.413 Q700.965 263.015 703.211 263.015 Q706.22 263.015 707.84 261.997 Q709.461 260.955 709.461 259.08 Q709.461 257.344 708.28 256.418 Q707.123 255.492 703.164 254.636 L701.683 254.288 Q697.725 253.455 695.965 251.742 Q694.206 250.006 694.206 246.997 Q694.206 243.339 696.799 241.349 Q699.391 239.358 704.16 239.358 Q706.521 239.358 708.604 239.705 Q710.688 240.052 712.447 240.747 Z" fill="#000000" fill-rule="nonzero" fill-opacity="1" /><path clip-path="url(#clip470)" d="M742.794 251.881 L742.794 253.964 L723.211 253.964 Q723.488 258.362 725.85 260.677 Q728.234 262.969 732.47 262.969 Q734.924 262.969 737.215 262.367 Q739.53 261.765 741.799 260.561 L741.799 264.589 Q739.507 265.561 737.099 266.071 Q734.692 266.58 732.215 266.58 Q726.012 266.58 722.377 262.969 Q718.766 259.358 718.766 253.2 Q718.766 246.835 722.192 243.108 Q725.641 239.358 731.475 239.358 Q736.706 239.358 739.738 242.737 Q742.794 246.094 742.794 251.881 M738.535 250.631 Q738.488 247.136 736.567 245.052 Q734.669 242.969 731.521 242.969 Q727.956 242.969 725.803 244.983 Q723.674 246.997 723.35 250.654 L738.535 250.631 Z" fill="#000000" fill-rule="nonzero" fill-opacity="1" /><path clip-path="url(#clip470)" d="M764.808 243.964 Q764.09 243.548 763.234 243.362 Q762.4 243.154 761.382 243.154 Q757.771 243.154 755.826 245.515 Q753.905 247.853 753.905 252.251 L753.905 265.909 L749.623 265.909 L749.623 239.983 L753.905 239.983 L753.905 244.011 Q755.248 241.649 757.4 240.515 Q759.553 239.358 762.632 239.358 Q763.072 239.358 763.604 239.427 Q764.136 239.474 764.785 239.589 L764.808 243.964 Z" fill="#000000" fill-rule="nonzero" fill-opacity="1" /><path clip-path="url(#clip470)" d="M766.22 239.983 L770.734 239.983 L778.835 261.742 L786.937 239.983 L791.451 239.983 L781.729 265.909 L775.942 265.909 L766.22 239.983 Z" fill="#000000" fill-rule="nonzero" fill-opacity="1" /><path clip-path="url(#clip470)" d="M819.506 251.881 L819.506 253.964 L799.923 253.964 Q800.201 258.362 802.562 260.677 Q804.946 262.969 809.182 262.969 Q811.636 262.969 813.928 262.367 Q816.243 261.765 818.511 260.561 L818.511 264.589 Q816.219 265.561 813.812 266.071 Q811.405 266.58 808.928 266.58 Q802.724 266.58 799.09 262.969 Q795.479 259.358 795.479 253.2 Q795.479 246.835 798.905 243.108 Q802.354 239.358 808.187 239.358 Q813.419 239.358 816.451 242.737 Q819.506 246.094 819.506 251.881 M815.247 250.631 Q815.201 247.136 813.28 245.052 Q811.382 242.969 808.233 242.969 Q804.669 242.969 802.516 244.983 Q800.386 246.997 800.062 250.654 L815.247 250.631 Z" fill="#000000" fill-rule="nonzero" fill-opacity="1" /><path clip-path="url(#clip470)" d="M843.557 243.918 L843.557 229.89 L847.816 229.89 L847.816 265.909 L843.557 265.909 L843.557 262.02 Q842.215 264.335 840.155 265.469 Q838.117 266.58 835.247 266.58 Q830.548 266.58 827.585 262.83 Q824.645 259.08 824.645 252.969 Q824.645 246.858 827.585 243.108 Q830.548 239.358 835.247 239.358 Q838.117 239.358 840.155 240.492 Q842.215 241.603 843.557 243.918 M829.043 252.969 Q829.043 257.668 830.965 260.353 Q832.909 263.015 836.289 263.015 Q839.668 263.015 841.613 260.353 Q843.557 257.668 843.557 252.969 Q843.557 248.27 841.613 245.608 Q839.668 242.923 836.289 242.923 Q832.909 242.923 830.965 245.608 Q829.043 248.27 829.043 252.969 Z" fill="#000000" fill-rule="nonzero" fill-opacity="1" /><path clip-path="url(#clip470)" d="M888.719 243.918 L888.719 229.89 L892.978 229.89 L892.978 265.909 L888.719 265.909 L888.719 262.02 Q887.376 264.335 885.316 265.469 Q883.279 266.58 880.409 266.58 Q875.71 266.58 872.747 262.83 Q869.807 259.08 869.807 252.969 Q869.807 246.858 872.747 243.108 Q875.71 239.358 880.409 239.358 Q883.279 239.358 885.316 240.492 Q887.376 241.603 888.719 243.918 M874.205 252.969 Q874.205 257.668 876.127 260.353 Q878.071 263.015 881.451 263.015 Q884.83 263.015 886.775 260.353 Q888.719 257.668 888.719 252.969 Q888.719 248.27 886.775 245.608 Q884.83 242.923 881.451 242.923 Q878.071 242.923 876.127 245.608 Q874.205 248.27 874.205 252.969 Z" fill="#000000" fill-rule="nonzero" fill-opacity="1" /><path clip-path="url(#clip470)" d="M913.534 252.876 Q908.372 252.876 906.381 254.057 Q904.39 255.237 904.39 258.085 Q904.39 260.353 905.872 261.696 Q907.376 263.015 909.946 263.015 Q913.487 263.015 915.617 260.515 Q917.77 257.992 917.77 253.825 L917.77 252.876 L913.534 252.876 M922.029 251.117 L922.029 265.909 L917.77 265.909 L917.77 261.973 Q916.312 264.335 914.136 265.469 Q911.96 266.58 908.812 266.58 Q904.83 266.58 902.469 264.358 Q900.131 262.112 900.131 258.362 Q900.131 253.987 903.048 251.765 Q905.987 249.543 911.798 249.543 L917.77 249.543 L917.77 249.126 Q917.77 246.187 915.825 244.589 Q913.904 242.969 910.409 242.969 Q908.187 242.969 906.08 243.501 Q903.974 244.034 902.029 245.099 L902.029 241.163 Q904.367 240.261 906.566 239.821 Q908.765 239.358 910.849 239.358 Q916.474 239.358 919.251 242.274 Q922.029 245.191 922.029 251.117 Z" fill="#000000" fill-rule="nonzero" fill-opacity="1" /><path clip-path="url(#clip470)" d="M935.015 232.622 L935.015 239.983 L943.788 239.983 L943.788 243.293 L935.015 243.293 L935.015 257.367 Q935.015 260.538 935.872 261.441 Q936.751 262.344 939.413 262.344 L943.788 262.344 L943.788 265.909 L939.413 265.909 Q934.483 265.909 932.608 264.08 Q930.733 262.228 930.733 257.367 L930.733 243.293 L927.608 243.293 L927.608 239.983 L930.733 239.983 L930.733 232.622 L935.015 232.622 Z" fill="#000000" fill-rule="nonzero" fill-opacity="1" /><path clip-path="url(#clip470)" d="M961.172 252.876 Q956.01 252.876 954.02 254.057 Q952.029 255.237 952.029 258.085 Q952.029 260.353 953.51 261.696 Q955.015 263.015 957.584 263.015 Q961.126 263.015 963.256 260.515 Q965.408 257.992 965.408 253.825 L965.408 252.876 L961.172 252.876 M969.668 251.117 L969.668 265.909 L965.408 265.909 L965.408 261.973 Q963.95 264.335 961.774 265.469 Q959.598 266.58 956.45 266.58 Q952.469 266.58 950.108 264.358 Q947.77 262.112 947.77 258.362 Q947.77 253.987 950.686 251.765 Q953.626 249.543 959.436 249.543 L965.408 249.543 L965.408 249.126 Q965.408 246.187 963.464 244.589 Q961.543 242.969 958.047 242.969 Q955.825 242.969 953.719 243.501 Q951.612 244.034 949.668 245.099 L949.668 241.163 Q952.006 240.261 954.205 239.821 Q956.404 239.358 958.487 239.358 Q964.112 239.358 966.89 242.274 Q969.668 245.191 969.668 251.117 Z" fill="#000000" fill-rule="nonzero" fill-opacity="1" /></svg>
