<?xml version="1.0" encoding="utf-8"?>
<svg xmlns="http://www.w3.org/2000/svg" xmlns:xlink="http://www.w3.org/1999/xlink" width="600" height="400" viewBox="0 0 2400 1600">
<defs>
  <clipPath id="clip630">
    <rect x="0" y="0" width="2400" height="1600"/>
  </clipPath>
</defs>
<path clip-path="url(#clip630)" d="M0 1600 L2400 1600 L2400 0 L0 0  Z" fill="#ffffff" fill-rule="evenodd" fill-opacity="1"/>
<defs>
  <clipPath id="clip631">
    <rect x="480" y="0" width="1681" height="1600"/>
  </clipPath>
</defs>
<path clip-path="url(#clip630)" d="M232.389 1423.18 L2352.76 1423.18 L2352.76 47.2441 L232.389 47.2441  Z" fill="#ffffff" fill-rule="evenodd" fill-opacity="1"/>
<defs>
  <clipPath id="clip632">
    <rect x="232" y="47" width="2121" height="1377"/>
  </clipPath>
</defs>
<polyline clip-path="url(#clip632)" style="stroke:#000000; stroke-linecap:round; stroke-linejoin:round; stroke-width:2; stroke-opacity:0.1; fill:none" points="292.4,1423.18 292.4,47.2441 "/>
<polyline clip-path="url(#clip632)" style="stroke:#000000; stroke-linecap:round; stroke-linejoin:round; stroke-width:2; stroke-opacity:0.1; fill:none" points="625.791,1423.18 625.791,47.2441 "/>
<polyline clip-path="url(#clip632)" style="stroke:#000000; stroke-linecap:round; stroke-linejoin:round; stroke-width:2; stroke-opacity:0.1; fill:none" points="959.182,1423.18 959.182,47.2441 "/>
<polyline clip-path="url(#clip632)" style="stroke:#000000; stroke-linecap:round; stroke-linejoin:round; stroke-width:2; stroke-opacity:0.1; fill:none" points="1292.57,1423.18 1292.57,47.2441 "/>
<polyline clip-path="url(#clip632)" style="stroke:#000000; stroke-linecap:round; stroke-linejoin:round; stroke-width:2; stroke-opacity:0.1; fill:none" points="1625.96,1423.18 1625.96,47.2441 "/>
<polyline clip-path="url(#clip632)" style="stroke:#000000; stroke-linecap:round; stroke-linejoin:round; stroke-width:2; stroke-opacity:0.1; fill:none" points="1959.35,1423.18 1959.35,47.2441 "/>
<polyline clip-path="url(#clip632)" style="stroke:#000000; stroke-linecap:round; stroke-linejoin:round; stroke-width:2; stroke-opacity:0.1; fill:none" points="2292.75,1423.18 2292.75,47.2441 "/>
<polyline clip-path="url(#clip632)" style="stroke:#000000; stroke-linecap:round; stroke-linejoin:round; stroke-width:2; stroke-opacity:0.1; fill:none" points="232.389,1384.24 2352.76,1384.24 "/>
<polyline clip-path="url(#clip632)" style="stroke:#000000; stroke-linecap:round; stroke-linejoin:round; stroke-width:2; stroke-opacity:0.1; fill:none" points="232.389,1064.57 2352.76,1064.57 "/>
<polyline clip-path="url(#clip632)" style="stroke:#000000; stroke-linecap:round; stroke-linejoin:round; stroke-width:2; stroke-opacity:0.1; fill:none" points="232.389,744.908 2352.76,744.908 "/>
<polyline clip-path="url(#clip632)" style="stroke:#000000; stroke-linecap:round; stroke-linejoin:round; stroke-width:2; stroke-opacity:0.1; fill:none" points="232.389,425.243 2352.76,425.243 "/>
<polyline clip-path="url(#clip632)" style="stroke:#000000; stroke-linecap:round; stroke-linejoin:round; stroke-width:2; stroke-opacity:0.1; fill:none" points="232.389,105.577 2352.76,105.577 "/>
<polyline clip-path="url(#clip630)" style="stroke:#000000; stroke-linecap:round; stroke-linejoin:round; stroke-width:4; stroke-opacity:1; fill:none" points="232.389,1423.18 2352.76,1423.18 "/>
<polyline clip-path="url(#clip630)" style="stroke:#000000; stroke-linecap:round; stroke-linejoin:round; stroke-width:4; stroke-opacity:1; fill:none" points="292.4,1423.18 292.4,1404.28 "/>
<polyline clip-path="url(#clip630)" style="stroke:#000000; stroke-linecap:round; stroke-linejoin:round; stroke-width:4; stroke-opacity:1; fill:none" points="625.791,1423.18 625.791,1404.28 "/>
<polyline clip-path="url(#clip630)" style="stroke:#000000; stroke-linecap:round; stroke-linejoin:round; stroke-width:4; stroke-opacity:1; fill:none" points="959.182,1423.18 959.182,1404.28 "/>
<polyline clip-path="url(#clip630)" style="stroke:#000000; stroke-linecap:round; stroke-linejoin:round; stroke-width:4; stroke-opacity:1; fill:none" points="1292.57,1423.18 1292.57,1404.28 "/>
<polyline clip-path="url(#clip630)" style="stroke:#000000; stroke-linecap:round; stroke-linejoin:round; stroke-width:4; stroke-opacity:1; fill:none" points="1625.96,1423.18 1625.96,1404.28 "/>
<polyline clip-path="url(#clip630)" style="stroke:#000000; stroke-linecap:round; stroke-linejoin:round; stroke-width:4; stroke-opacity:1; fill:none" points="1959.35,1423.18 1959.35,1404.28 "/>
<polyline clip-path="url(#clip630)" style="stroke:#000000; stroke-linecap:round; stroke-linejoin:round; stroke-width:4; stroke-opacity:1; fill:none" points="2292.75,1423.18 2292.75,1404.28 "/>
<path clip-path="url(#clip630)" d="M292.4 1454.1 Q288.789 1454.1 286.96 1457.66 Q285.154 1461.2 285.154 1468.33 Q285.154 1475.44 286.96 1479.01 Q288.789 1482.55 292.4 1482.55 Q296.034 1482.55 297.84 1479.01 Q299.668 1475.44 299.668 1468.33 Q299.668 1461.2 297.84 1457.66 Q296.034 1454.1 292.4 1454.1 M292.4 1450.39 Q298.21 1450.39 301.265 1455 Q304.344 1459.58 304.344 1468.33 Q304.344 1477.06 301.265 1481.67 Q298.21 1486.25 292.4 1486.25 Q286.59 1486.25 283.511 1481.67 Q280.455 1477.06 280.455 1468.33 Q280.455 1459.58 283.511 1455 Q286.59 1450.39 292.4 1450.39 Z" fill="#000000" fill-rule="nonzero" fill-opacity="1" /><path clip-path="url(#clip630)" d="M616.173 1481.64 L623.812 1481.64 L623.812 1455.28 L615.501 1456.95 L615.501 1452.69 L623.765 1451.02 L628.441 1451.02 L628.441 1481.64 L636.08 1481.64 L636.08 1485.58 L616.173 1485.58 L616.173 1481.64 Z" fill="#000000" fill-rule="nonzero" fill-opacity="1" /><path clip-path="url(#clip630)" d="M953.834 1481.64 L970.154 1481.64 L970.154 1485.58 L948.209 1485.58 L948.209 1481.64 Q950.872 1478.89 955.455 1474.26 Q960.061 1469.61 961.242 1468.27 Q963.487 1465.74 964.367 1464.01 Q965.27 1462.25 965.27 1460.56 Q965.27 1457.8 963.325 1456.07 Q961.404 1454.33 958.302 1454.33 Q956.103 1454.33 953.649 1455.09 Q951.219 1455.86 948.441 1457.41 L948.441 1452.69 Q951.265 1451.55 953.719 1450.97 Q956.172 1450.39 958.209 1450.39 Q963.58 1450.39 966.774 1453.08 Q969.969 1455.77 969.969 1460.26 Q969.969 1462.39 969.158 1464.31 Q968.371 1466.2 966.265 1468.8 Q965.686 1469.47 962.584 1472.69 Q959.483 1475.88 953.834 1481.64 Z" fill="#000000" fill-rule="nonzero" fill-opacity="1" /><path clip-path="url(#clip630)" d="M1296.82 1466.95 Q1300.18 1467.66 1302.05 1469.93 Q1303.95 1472.2 1303.95 1475.53 Q1303.95 1480.65 1300.43 1483.45 Q1296.91 1486.25 1290.43 1486.25 Q1288.26 1486.25 1285.94 1485.81 Q1283.65 1485.39 1281.2 1484.54 L1281.2 1480.02 Q1283.14 1481.16 1285.45 1481.74 Q1287.77 1482.32 1290.29 1482.32 Q1294.69 1482.32 1296.98 1480.58 Q1299.3 1478.84 1299.3 1475.53 Q1299.3 1472.48 1297.14 1470.77 Q1295.01 1469.03 1291.2 1469.03 L1287.17 1469.03 L1287.17 1465.19 L1291.38 1465.19 Q1294.83 1465.19 1296.66 1463.82 Q1298.49 1462.43 1298.49 1459.84 Q1298.49 1457.18 1296.59 1455.77 Q1294.71 1454.33 1291.2 1454.33 Q1289.27 1454.33 1287.07 1454.75 Q1284.88 1455.16 1282.24 1456.04 L1282.24 1451.88 Q1284.9 1451.14 1287.21 1450.77 Q1289.55 1450.39 1291.61 1450.39 Q1296.94 1450.39 1300.04 1452.83 Q1303.14 1455.23 1303.14 1459.35 Q1303.14 1462.22 1301.5 1464.21 Q1299.85 1466.18 1296.82 1466.95 Z" fill="#000000" fill-rule="nonzero" fill-opacity="1" /><path clip-path="url(#clip630)" d="M1628.97 1455.09 L1617.17 1473.54 L1628.97 1473.54 L1628.97 1455.09 M1627.75 1451.02 L1633.63 1451.02 L1633.63 1473.54 L1638.56 1473.54 L1638.56 1477.43 L1633.63 1477.43 L1633.63 1485.58 L1628.97 1485.58 L1628.97 1477.43 L1613.37 1477.43 L1613.37 1472.92 L1627.75 1451.02 Z" fill="#000000" fill-rule="nonzero" fill-opacity="1" /><path clip-path="url(#clip630)" d="M1949.63 1451.02 L1967.99 1451.02 L1967.99 1454.96 L1953.91 1454.96 L1953.91 1463.43 Q1954.93 1463.08 1955.95 1462.92 Q1956.97 1462.73 1957.99 1462.73 Q1963.78 1462.73 1967.16 1465.9 Q1970.54 1469.08 1970.54 1474.49 Q1970.54 1480.07 1967.06 1483.17 Q1963.59 1486.25 1957.27 1486.25 Q1955.1 1486.25 1952.83 1485.88 Q1950.58 1485.51 1948.17 1484.77 L1948.17 1480.07 Q1950.26 1481.2 1952.48 1481.76 Q1954.7 1482.32 1957.18 1482.32 Q1961.18 1482.32 1963.52 1480.21 Q1965.86 1478.1 1965.86 1474.49 Q1965.86 1470.88 1963.52 1468.77 Q1961.18 1466.67 1957.18 1466.67 Q1955.3 1466.67 1953.43 1467.08 Q1951.58 1467.5 1949.63 1468.38 L1949.63 1451.02 Z" fill="#000000" fill-rule="nonzero" fill-opacity="1" /><path clip-path="url(#clip630)" d="M2293.15 1466.44 Q2290 1466.44 2288.15 1468.59 Q2286.32 1470.74 2286.32 1474.49 Q2286.32 1478.22 2288.15 1480.39 Q2290 1482.55 2293.15 1482.55 Q2296.3 1482.55 2298.13 1480.39 Q2299.98 1478.22 2299.98 1474.49 Q2299.98 1470.74 2298.13 1468.59 Q2296.3 1466.44 2293.15 1466.44 M2302.43 1451.78 L2302.43 1456.04 Q2300.67 1455.21 2298.87 1454.77 Q2297.09 1454.33 2295.33 1454.33 Q2290.7 1454.33 2288.24 1457.45 Q2285.81 1460.58 2285.47 1466.9 Q2286.83 1464.89 2288.89 1463.82 Q2290.95 1462.73 2293.43 1462.73 Q2298.64 1462.73 2301.65 1465.9 Q2304.68 1469.05 2304.68 1474.49 Q2304.68 1479.82 2301.53 1483.03 Q2298.38 1486.25 2293.15 1486.25 Q2287.16 1486.25 2283.98 1481.67 Q2280.81 1477.06 2280.81 1468.33 Q2280.81 1460.14 2284.7 1455.28 Q2288.59 1450.39 2295.14 1450.39 Q2296.9 1450.39 2298.68 1450.74 Q2300.49 1451.09 2302.43 1451.78 Z" fill="#000000" fill-rule="nonzero" fill-opacity="1" /><path clip-path="url(#clip630)" d="M1162.74 1520.52 L1202.94 1520.52 L1202.94 1525.93 L1186.07 1525.93 L1186.07 1568.04 L1179.61 1568.04 L1179.61 1525.93 L1162.74 1525.93 L1162.74 1520.52 Z" fill="#000000" fill-rule="nonzero" fill-opacity="1" /><path clip-path="url(#clip630)" d="M1206.89 1532.4 L1212.75 1532.4 L1212.75 1568.04 L1206.89 1568.04 L1206.89 1532.4 M1206.89 1518.52 L1212.75 1518.52 L1212.75 1525.93 L1206.89 1525.93 L1206.89 1518.52 Z" fill="#000000" fill-rule="nonzero" fill-opacity="1" /><path clip-path="url(#clip630)" d="M1252.76 1539.24 Q1254.95 1535.29 1258.01 1533.41 Q1261.06 1531.54 1265.2 1531.54 Q1270.77 1531.54 1273.79 1535.45 Q1276.82 1539.33 1276.82 1546.53 L1276.82 1568.04 L1270.93 1568.04 L1270.93 1546.72 Q1270.93 1541.59 1269.11 1539.11 Q1267.3 1536.63 1263.58 1536.63 Q1259.03 1536.63 1256.38 1539.65 Q1253.74 1542.68 1253.74 1547.9 L1253.74 1568.04 L1247.85 1568.04 L1247.85 1546.72 Q1247.85 1541.56 1246.04 1539.11 Q1244.23 1536.63 1240.44 1536.63 Q1235.95 1536.63 1233.31 1539.68 Q1230.67 1542.71 1230.67 1547.9 L1230.67 1568.04 L1224.78 1568.04 L1224.78 1532.4 L1230.67 1532.4 L1230.67 1537.93 Q1232.67 1534.66 1235.47 1533.1 Q1238.27 1531.54 1242.12 1531.54 Q1246.01 1531.54 1248.71 1533.51 Q1251.45 1535.48 1252.76 1539.24 Z" fill="#000000" fill-rule="nonzero" fill-opacity="1" /><path clip-path="url(#clip630)" d="M1318.99 1548.76 L1318.99 1551.62 L1292.06 1551.62 Q1292.45 1557.67 1295.69 1560.85 Q1298.97 1564 1304.79 1564 Q1308.17 1564 1311.32 1563.17 Q1314.5 1562.35 1317.62 1560.69 L1317.62 1566.23 Q1314.47 1567.57 1311.16 1568.27 Q1307.85 1568.97 1304.44 1568.97 Q1295.91 1568.97 1290.92 1564 Q1285.95 1559.04 1285.95 1550.57 Q1285.95 1541.82 1290.66 1536.69 Q1295.41 1531.54 1303.43 1531.54 Q1310.62 1531.54 1314.79 1536.18 Q1318.99 1540.8 1318.99 1548.76 M1313.13 1547.04 Q1313.07 1542.23 1310.43 1539.37 Q1307.82 1536.5 1303.49 1536.5 Q1298.59 1536.5 1295.63 1539.27 Q1292.7 1542.04 1292.25 1547.07 L1313.13 1547.04 Z" fill="#000000" fill-rule="nonzero" fill-opacity="1" /><path clip-path="url(#clip630)" d="M1363.39 1518.58 Q1359.13 1525.9 1357.06 1533.06 Q1354.99 1540.23 1354.99 1547.58 Q1354.99 1554.93 1357.06 1562.16 Q1359.16 1569.35 1363.39 1576.64 L1358.3 1576.64 Q1353.52 1569.16 1351.14 1561.93 Q1348.78 1554.71 1348.78 1547.58 Q1348.78 1540.48 1351.14 1533.29 Q1353.49 1526.09 1358.3 1518.58 L1363.39 1518.58 Z" fill="#000000" fill-rule="nonzero" fill-opacity="1" /><path clip-path="url(#clip630)" d="M1397.48 1533.45 L1397.48 1538.98 Q1395 1537.71 1392.32 1537.07 Q1389.65 1536.44 1386.79 1536.44 Q1382.42 1536.44 1380.23 1537.77 Q1378.06 1539.11 1378.06 1541.79 Q1378.06 1543.82 1379.62 1545 Q1381.18 1546.15 1385.89 1547.2 L1387.9 1547.64 Q1394.14 1548.98 1396.75 1551.43 Q1399.39 1553.85 1399.39 1558.21 Q1399.39 1563.17 1395.44 1566.07 Q1391.53 1568.97 1384.65 1568.97 Q1381.79 1568.97 1378.67 1568.39 Q1375.58 1567.85 1372.14 1566.74 L1372.14 1560.69 Q1375.39 1562.38 1378.54 1563.24 Q1381.69 1564.07 1384.78 1564.07 Q1388.92 1564.07 1391.15 1562.66 Q1393.37 1561.23 1393.37 1558.65 Q1393.37 1556.27 1391.75 1554.99 Q1390.16 1553.72 1384.72 1552.54 L1382.68 1552.07 Q1377.24 1550.92 1374.82 1548.56 Q1372.4 1546.18 1372.4 1542.04 Q1372.4 1537.01 1375.96 1534.27 Q1379.53 1531.54 1386.08 1531.54 Q1389.33 1531.54 1392.2 1532.01 Q1395.06 1532.49 1397.48 1533.45 Z" fill="#000000" fill-rule="nonzero" fill-opacity="1" /><path clip-path="url(#clip630)" d="M1407.79 1518.58 L1412.88 1518.58 Q1417.66 1526.09 1420.01 1533.29 Q1422.4 1540.48 1422.4 1547.58 Q1422.4 1554.71 1420.01 1561.93 Q1417.66 1569.16 1412.88 1576.64 L1407.79 1576.64 Q1412.03 1569.35 1414.09 1562.16 Q1416.19 1554.93 1416.19 1547.58 Q1416.19 1540.23 1414.09 1533.06 Q1412.03 1525.9 1407.79 1518.58 Z" fill="#000000" fill-rule="nonzero" fill-opacity="1" /><polyline clip-path="url(#clip630)" style="stroke:#000000; stroke-linecap:round; stroke-linejoin:round; stroke-width:4; stroke-opacity:1; fill:none" points="232.389,1423.18 232.389,47.2441 "/>
<polyline clip-path="url(#clip630)" style="stroke:#000000; stroke-linecap:round; stroke-linejoin:round; stroke-width:4; stroke-opacity:1; fill:none" points="232.389,1384.24 251.287,1384.24 "/>
<polyline clip-path="url(#clip630)" style="stroke:#000000; stroke-linecap:round; stroke-linejoin:round; stroke-width:4; stroke-opacity:1; fill:none" points="232.389,1064.57 251.287,1064.57 "/>
<polyline clip-path="url(#clip630)" style="stroke:#000000; stroke-linecap:round; stroke-linejoin:round; stroke-width:4; stroke-opacity:1; fill:none" points="232.389,744.908 251.287,744.908 "/>
<polyline clip-path="url(#clip630)" style="stroke:#000000; stroke-linecap:round; stroke-linejoin:round; stroke-width:4; stroke-opacity:1; fill:none" points="232.389,425.243 251.287,425.243 "/>
<polyline clip-path="url(#clip630)" style="stroke:#000000; stroke-linecap:round; stroke-linejoin:round; stroke-width:4; stroke-opacity:1; fill:none" points="232.389,105.577 251.287,105.577 "/>
<path clip-path="url(#clip630)" d="M184.445 1370.04 Q180.834 1370.04 179.005 1373.6 Q177.2 1377.14 177.2 1384.27 Q177.2 1391.38 179.005 1394.94 Q180.834 1398.49 184.445 1398.49 Q188.079 1398.49 189.885 1394.94 Q191.713 1391.38 191.713 1384.27 Q191.713 1377.14 189.885 1373.6 Q188.079 1370.04 184.445 1370.04 M184.445 1366.33 Q190.255 1366.33 193.311 1370.94 Q196.389 1375.52 196.389 1384.27 Q196.389 1393 193.311 1397.61 Q190.255 1402.19 184.445 1402.19 Q178.635 1402.19 175.556 1397.61 Q172.501 1393 172.501 1384.27 Q172.501 1375.52 175.556 1370.94 Q178.635 1366.33 184.445 1366.33 Z" fill="#000000" fill-rule="nonzero" fill-opacity="1" /><path clip-path="url(#clip630)" d="M149.306 1077.92 L165.626 1077.92 L165.626 1081.85 L143.681 1081.85 L143.681 1077.92 Q146.343 1075.16 150.927 1070.53 Q155.533 1065.88 156.714 1064.54 Q158.959 1062.02 159.839 1060.28 Q160.741 1058.52 160.741 1056.83 Q160.741 1054.08 158.797 1052.34 Q156.876 1050.6 153.774 1050.6 Q151.575 1050.6 149.121 1051.37 Q146.691 1052.13 143.913 1053.68 L143.913 1048.96 Q146.737 1047.83 149.191 1047.25 Q151.644 1046.67 153.681 1046.67 Q159.052 1046.67 162.246 1049.35 Q165.44 1052.04 165.44 1056.53 Q165.44 1058.66 164.63 1060.58 Q163.843 1062.48 161.737 1065.07 Q161.158 1065.74 158.056 1068.96 Q154.954 1072.15 149.306 1077.92 Z" fill="#000000" fill-rule="nonzero" fill-opacity="1" /><path clip-path="url(#clip630)" d="M175.487 1047.29 L193.843 1047.29 L193.843 1051.23 L179.769 1051.23 L179.769 1059.7 Q180.788 1059.35 181.806 1059.19 Q182.825 1059.01 183.843 1059.01 Q189.63 1059.01 193.01 1062.18 Q196.389 1065.35 196.389 1070.77 Q196.389 1076.34 192.917 1079.45 Q189.445 1082.52 183.126 1082.52 Q180.95 1082.52 178.681 1082.15 Q176.436 1081.78 174.028 1081.04 L174.028 1076.34 Q176.112 1077.48 178.334 1078.03 Q180.556 1078.59 183.033 1078.59 Q187.038 1078.59 189.375 1076.48 Q191.713 1074.38 191.713 1070.77 Q191.713 1067.15 189.375 1065.05 Q187.038 1062.94 183.033 1062.94 Q181.158 1062.94 179.283 1063.36 Q177.431 1063.77 175.487 1064.65 L175.487 1047.29 Z" fill="#000000" fill-rule="nonzero" fill-opacity="1" /><path clip-path="url(#clip630)" d="M144.329 727.628 L162.686 727.628 L162.686 731.563 L148.612 731.563 L148.612 740.035 Q149.63 739.688 150.649 739.526 Q151.667 739.341 152.686 739.341 Q158.473 739.341 161.852 742.512 Q165.232 745.683 165.232 751.1 Q165.232 756.679 161.76 759.78 Q158.288 762.859 151.968 762.859 Q149.792 762.859 147.524 762.489 Q145.279 762.118 142.871 761.378 L142.871 756.679 Q144.954 757.813 147.177 758.368 Q149.399 758.924 151.876 758.924 Q155.88 758.924 158.218 756.817 Q160.556 754.711 160.556 751.1 Q160.556 747.489 158.218 745.382 Q155.88 743.276 151.876 743.276 Q150.001 743.276 148.126 743.693 Q146.274 744.109 144.329 744.989 L144.329 727.628 Z" fill="#000000" fill-rule="nonzero" fill-opacity="1" /><path clip-path="url(#clip630)" d="M184.445 730.706 Q180.834 730.706 179.005 734.271 Q177.2 737.813 177.2 744.943 Q177.2 752.049 179.005 755.614 Q180.834 759.155 184.445 759.155 Q188.079 759.155 189.885 755.614 Q191.713 752.049 191.713 744.943 Q191.713 737.813 189.885 734.271 Q188.079 730.706 184.445 730.706 M184.445 727.003 Q190.255 727.003 193.311 731.609 Q196.389 736.193 196.389 744.943 Q196.389 753.669 193.311 758.276 Q190.255 762.859 184.445 762.859 Q178.635 762.859 175.556 758.276 Q172.501 753.669 172.501 744.943 Q172.501 736.193 175.556 731.609 Q178.635 727.003 184.445 727.003 Z" fill="#000000" fill-rule="nonzero" fill-opacity="1" /><path clip-path="url(#clip630)" d="M144.098 407.963 L166.32 407.963 L166.32 409.953 L153.774 442.523 L148.89 442.523 L160.695 411.898 L144.098 411.898 L144.098 407.963 Z" fill="#000000" fill-rule="nonzero" fill-opacity="1" /><path clip-path="url(#clip630)" d="M175.487 407.963 L193.843 407.963 L193.843 411.898 L179.769 411.898 L179.769 420.37 Q180.788 420.023 181.806 419.861 Q182.825 419.675 183.843 419.675 Q189.63 419.675 193.01 422.847 Q196.389 426.018 196.389 431.435 Q196.389 437.013 192.917 440.115 Q189.445 443.194 183.126 443.194 Q180.95 443.194 178.681 442.824 Q176.436 442.453 174.028 441.712 L174.028 437.013 Q176.112 438.148 178.334 438.703 Q180.556 439.259 183.033 439.259 Q187.038 439.259 189.375 437.152 Q191.713 435.046 191.713 431.435 Q191.713 427.824 189.375 425.717 Q187.038 423.611 183.033 423.611 Q181.158 423.611 179.283 424.027 Q177.431 424.444 175.487 425.324 L175.487 407.963 Z" fill="#000000" fill-rule="nonzero" fill-opacity="1" /><path clip-path="url(#clip630)" d="M114.931 118.922 L122.57 118.922 L122.57 92.5566 L114.26 94.2232 L114.26 89.964 L122.524 88.2974 L127.2 88.2974 L127.2 118.922 L134.839 118.922 L134.839 122.857 L114.931 122.857 L114.931 118.922 Z" fill="#000000" fill-rule="nonzero" fill-opacity="1" /><path clip-path="url(#clip630)" d="M154.283 91.376 Q150.672 91.376 148.843 94.9408 Q147.038 98.4825 147.038 105.612 Q147.038 112.719 148.843 116.283 Q150.672 119.825 154.283 119.825 Q157.917 119.825 159.723 116.283 Q161.552 112.719 161.552 105.612 Q161.552 98.4825 159.723 94.9408 Q157.917 91.376 154.283 91.376 M154.283 87.6724 Q160.093 87.6724 163.149 92.2788 Q166.227 96.8621 166.227 105.612 Q166.227 114.339 163.149 118.945 Q160.093 123.529 154.283 123.529 Q148.473 123.529 145.394 118.945 Q142.339 114.339 142.339 105.612 Q142.339 96.8621 145.394 92.2788 Q148.473 87.6724 154.283 87.6724 Z" fill="#000000" fill-rule="nonzero" fill-opacity="1" /><path clip-path="url(#clip630)" d="M184.445 91.376 Q180.834 91.376 179.005 94.9408 Q177.2 98.4825 177.2 105.612 Q177.2 112.719 179.005 116.283 Q180.834 119.825 184.445 119.825 Q188.079 119.825 189.885 116.283 Q191.713 112.719 191.713 105.612 Q191.713 98.4825 189.885 94.9408 Q188.079 91.376 184.445 91.376 M184.445 87.6724 Q190.255 87.6724 193.311 92.2788 Q196.389 96.8621 196.389 105.612 Q196.389 114.339 193.311 118.945 Q190.255 123.529 184.445 123.529 Q178.635 123.529 175.556 118.945 Q172.501 114.339 172.501 105.612 Q172.501 96.8621 175.556 92.2788 Q178.635 87.6724 184.445 87.6724 Z" fill="#000000" fill-rule="nonzero" fill-opacity="1" /><path clip-path="url(#clip630)" d="M67.3143 733.525 Q73.68 736.008 75.6216 738.363 Q77.5631 740.718 77.5631 744.665 L77.5631 749.344 L72.6615 749.344 L72.6615 745.906 Q72.6615 743.487 71.5157 742.151 Q70.3699 740.814 66.1048 739.191 L63.4312 738.14 L28.3562 752.559 L28.3562 746.352 L56.238 735.212 L28.3562 724.072 L28.3562 717.865 L67.3143 733.525 Z" fill="#000000" fill-rule="nonzero" fill-opacity="1" /><polyline clip-path="url(#clip632)" style="stroke:#009af9; stroke-linecap:round; stroke-linejoin:round; stroke-width:4; stroke-opacity:1; fill:none" points="292.4,1384.24 302.401,1346.45 312.403,1309.77 322.405,1274.19 332.407,1239.65 342.408,1206.13 352.41,1173.6 362.412,1142.04 372.414,1111.41 382.415,1081.68 392.417,1052.83 402.419,1024.84 412.42,997.669 422.422,971.304 432.424,945.717 442.426,920.888 452.427,896.791 462.429,873.408 472.431,850.715 482.433,828.693 492.434,807.321 502.436,786.582 512.438,766.455 522.439,746.923 532.441,727.968 542.443,709.574 552.445,691.723 562.446,674.4 572.448,657.589 582.45,641.274 592.452,625.442 602.453,610.078 612.455,595.168 622.457,580.698 632.459,566.656 642.46,553.029 652.462,539.805 662.464,526.972 672.465,514.517 682.467,502.431 692.469,490.703 702.471,479.32 712.472,468.275 722.474,457.555 732.476,447.153 742.478,437.058 752.479,427.261 762.481,417.754 772.483,408.528 782.484,399.574 792.486,390.885 802.488,382.453 812.49,374.27 822.491,366.329 832.493,358.623 842.495,351.144 852.497,343.886 862.498,336.843 872.5,330.008 882.502,323.375 892.503,316.939 902.505,310.692 912.507,304.63 922.509,298.747 932.51,293.038 942.512,287.498 952.514,282.121 962.516,276.903 972.517,271.84 982.519,266.926 992.521,262.158 1002.52,257.53 1012.52,253.039 1022.53,248.681 1032.53,244.452 1042.53,240.347 1052.53,236.364 1062.53,232.499 1072.53,228.748 1082.54,225.108 1092.54,221.575 1102.54,218.147 1112.54,214.82 1122.54,211.591 1132.54,208.458 1142.55,205.417 1152.55,202.467 1162.55,199.603 1172.55,196.824 1182.55,194.127 1192.56,191.51 1202.56,188.971 1212.56,186.506 1222.56,184.114 1232.56,181.793 1242.56,179.541 1252.57,177.355 1262.57,175.233 1272.57,173.175 1282.57,171.177 1292.57,169.238 1302.57,167.357 1312.58,165.531 1322.58,163.759 1332.58,162.039 1342.58,160.371 1352.58,158.751 1362.58,157.18 1372.59,155.655 1382.59,154.175 1392.59,152.738 1402.59,151.345 1412.59,149.992 1422.6,148.679 1432.6,147.405 1442.6,146.169 1452.6,144.97 1462.6,143.805 1472.6,142.676 1482.61,141.579 1492.61,140.515 1502.61,139.483 1512.61,138.481 1522.61,137.508 1532.61,136.564 1542.62,135.649 1552.62,134.76 1562.62,133.897 1572.62,133.06 1582.62,132.248 1592.62,131.46 1602.63,130.695 1612.63,129.953 1622.63,129.232 1632.63,128.533 1642.63,127.855 1652.63,127.196 1662.64,126.557 1672.64,125.937 1682.64,125.336 1692.64,124.752 1702.64,124.185 1712.65,123.635 1722.65,123.101 1732.65,122.583 1742.65,122.081 1752.65,121.593 1762.65,121.12 1772.66,120.66 1782.66,120.215 1792.66,119.782 1802.66,119.362 1812.66,118.955 1822.66,118.559 1832.67,118.176 1842.67,117.803 1852.67,117.442 1862.67,117.091 1872.67,116.751 1882.67,116.421 1892.68,116.1 1902.68,115.789 1912.68,115.488 1922.68,115.195 1932.68,114.91 1942.69,114.635 1952.69,114.367 1962.69,114.107 1972.69,113.855 1982.69,113.61 1992.69,113.373 2002.7,113.143 2012.7,112.919 2022.7,112.702 2032.7,112.491 2042.7,112.287 2052.7,112.089 2062.71,111.896 2072.71,111.71 2082.71,111.528 2092.71,111.353 2102.71,111.182 2112.71,111.016 2122.72,110.855 2132.72,110.699 2142.72,110.548 2152.72,110.401 2162.72,110.259 2172.72,110.12 2182.73,109.986 2192.73,109.856 2202.73,109.729 2212.73,109.607 2222.73,109.487 2232.74,109.372 2242.74,109.26 2252.74,109.151 2262.74,109.045 2272.74,108.943 2282.74,108.843 2292.75,108.747 "/>
<polyline clip-path="url(#clip632)" style="stroke:#e26f46; stroke-linecap:round; stroke-linejoin:round; stroke-width:4; stroke-opacity:1; fill:none" points="292.4,1384.24 293.1,1384.24 293.8,1384.22 294.5,1384.16 295.2,1384.07 295.9,1383.92 296.6,1383.71 297.301,1383.43 298.001,1383.07 298.701,1382.65 299.401,1382.14 300.101,1381.55 300.801,1380.88 301.501,1380.13 302.201,1379.3 302.902,1378.39 303.602,1377.4 304.302,1376.33 305.002,1375.19 305.702,1373.97 306.402,1372.68 307.102,1371.33 307.802,1369.91 308.503,1368.43 309.203,1366.89 309.903,1365.29 310.603,1363.64 311.303,1361.93 312.003,1360.18 312.703,1358.38 313.403,1356.53 314.103,1354.65 314.804,1352.72 315.504,1350.76 316.204,1348.76 316.904,1346.73 317.604,1344.67 318.304,1342.57 319.004,1340.46 319.704,1338.31 320.405,1336.15 321.105,1333.96 321.805,1331.75 322.505,1329.52 323.205,1327.28 323.905,1325.02 324.605,1322.74 325.305,1320.46 326.006,1318.15 326.706,1315.84 327.406,1313.52 328.106,1311.19 328.806,1308.85 329.506,1306.5 330.206,1304.15 330.906,1301.78 331.606,1299.42 332.307,1297.05 333.007,1294.67 333.707,1292.3 334.407,1289.91 335.107,1287.53 335.807,1285.15 336.507,1282.76 337.207,1280.37 337.908,1277.98 338.608,1275.6 339.308,1273.21 340.008,1270.82 340.708,1268.43 341.408,1266.05 342.108,1263.66 342.808,1261.28 343.509,1258.9 344.209,1256.52 344.909,1254.14 345.609,1251.77 346.309,1249.39 347.009,1247.03 347.709,1244.66 348.409,1242.29 349.11,1239.93 349.81,1237.58 350.51,1235.22 351.21,1232.87 351.91,1230.53 352.61,1228.18 353.31,1225.84 354.01,1223.51 354.71,1221.18 355.411,1218.85 356.111,1216.52 356.811,1214.2 357.511,1211.89 358.211,1209.58 358.911,1207.27 359.611,1204.97 360.311,1202.67 361.012,1200.37 361.712,1198.08 362.412,1195.8 363.112,1193.51 363.812,1191.24 364.512,1188.96 365.212,1186.7 365.912,1184.43 366.613,1182.17 367.313,1179.92 368.013,1177.67 368.713,1175.42 369.413,1173.18 370.113,1170.94 370.813,1168.71 371.513,1166.48 372.214,1164.26 372.914,1162.04 373.614,1159.83 374.314,1157.62 375.014,1155.41 375.714,1153.21 376.414,1151.01 377.114,1148.82 377.814,1146.63 378.515,1144.45 379.215,1142.27 379.915,1140.1 380.615,1137.93 381.315,1135.76 382.015,1133.6 382.715,1131.45 383.415,1129.3 384.116,1127.15 384.816,1125.01 385.516,1122.87 386.216,1120.73 386.916,1118.61 387.616,1116.48 388.316,1114.36 389.016,1112.24 389.717,1110.13 390.417,1108.03 391.117,1105.92 391.817,1103.82 392.517,1101.73 393.217,1099.64 393.917,1097.56 394.617,1095.48 395.318,1093.4 396.018,1091.33 396.718,1089.26 397.418,1087.2 398.118,1085.14 398.818,1083.08 399.518,1081.03 400.218,1078.99 400.918,1076.94 401.619,1074.91 402.319,1072.87 403.019,1070.84 403.719,1068.82 404.419,1066.8 405.119,1064.78 405.819,1062.77 406.519,1060.76 407.22,1058.76 407.92,1056.76 408.62,1054.76 409.32,1052.77 410.02,1050.78 410.72,1048.8 411.42,1046.82 412.12,1044.85 412.821,1042.88 413.521,1040.91 414.221,1038.95 414.921,1036.99 415.621,1035.04 416.321,1033.09 417.021,1031.14 417.721,1029.2 418.422,1027.26 419.122,1025.33 419.822,1023.4 420.522,1021.47 421.222,1019.55 421.922,1017.64 422.622,1015.72 423.322,1013.81 424.022,1011.91 424.723,1010.01 425.423,1008.11 426.123,1006.22 426.823,1004.33 427.523,1002.44 428.223,1000.56 428.923,998.682 429.623,996.809 430.324,994.939 431.024,993.074 431.724,991.212 432.424,989.354 433.124,987.5 433.824,985.65 434.524,983.804 435.224,981.961 435.925,980.123 436.625,978.288 437.325,976.457 438.025,974.63 438.725,972.807 439.425,970.988 440.125,969.173 440.825,967.361 441.526,965.553 442.226,963.749 442.926,961.949 443.626,960.152 444.326,958.36 445.026,956.571 445.726,954.785 446.426,953.004 447.126,951.226 447.827,949.452 448.527,947.682 449.227,945.915 449.927,944.153 450.627,942.393 451.327,940.638 452.027,938.886 452.727,937.138 453.428,935.394 454.128,933.653 454.828,931.916 455.528,930.182 456.228,928.452 456.928,926.726 457.628,925.003 458.328,923.284 459.029,921.569 459.729,919.857 460.429,918.149 461.129,916.445 461.829,914.743 462.529,913.046 463.229,911.352 463.929,909.662 464.629,907.975 465.33,906.292 466.03,904.612 466.73,902.936 467.43,901.263 468.13,899.594 468.83,897.928 469.53,896.266 470.23,894.607 470.931,892.952 471.631,891.3 472.331,889.652 473.031,888.007 473.731,886.366 474.431,884.728 475.131,883.093 475.831,881.462 476.532,879.835 477.232,878.21 477.932,876.59 478.632,874.972 479.332,873.358 480.032,871.747 480.732,870.14 481.432,868.536 482.133,866.936 482.833,865.339 483.533,863.745 484.233,862.154 484.933,860.567 485.633,858.983 486.333,857.403 487.033,855.826 487.733,854.252 488.434,852.681 489.134,851.114 489.834,849.55 490.534,847.989 491.234,846.432 491.934,844.878 492.634,843.327 493.334,841.779 494.035,840.235 494.735,838.694 495.435,837.156 496.135,835.621 496.835,834.089 497.535,832.561 498.235,831.036 498.935,829.514 499.636,827.996 500.336,826.48 501.036,824.968 501.736,823.459 502.436,821.953 503.136,820.45 503.836,818.95 504.536,817.454 505.237,815.96 505.937,814.47 506.637,812.983 507.337,811.499 508.037,810.018 508.737,808.54 509.437,807.066 510.137,805.594 510.837,804.126 511.538,802.66 512.238,801.198 512.938,799.739 513.638,798.282 514.338,796.829 515.038,795.379 515.738,793.932 516.438,792.488 517.139,791.047 517.839,789.609 518.539,788.174 519.239,786.742 519.939,785.313 520.639,783.887 521.339,782.464 522.039,781.044 522.74,779.627 523.44,778.213 524.14,776.802 524.84,775.394 525.54,773.989 526.24,772.587 526.94,771.188 527.64,769.791 528.341,768.398 529.041,767.007 529.741,765.62 530.441,764.235 531.141,762.854 531.841,761.475 532.541,760.099 533.241,758.726 533.941,757.356 534.642,755.988 535.342,754.624 536.042,753.262 536.742,751.904 537.442,750.548 538.142,749.195 538.842,747.844 539.542,746.497 540.243,745.153 540.943,743.811 541.643,742.472 542.343,741.136 543.043,739.803 543.743,738.472 544.443,737.144 545.143,735.82 545.844,734.497 546.544,733.178 547.244,731.862 547.944,730.548 548.644,729.237 549.344,727.928 550.044,726.623 550.744,725.32 551.445,724.02 552.145,722.723 552.845,721.428 553.545,720.136 554.245,718.847 554.945,717.56 555.645,716.276 556.345,714.995 557.045,713.717 557.746,712.441 558.446,711.168 559.146,709.898 559.846,708.63 560.546,707.365 561.246,706.102 561.946,704.843 562.646,703.585 563.347,702.331 564.047,701.079 564.747,699.83 565.447,698.583 566.147,697.339 566.847,696.098 567.547,694.859 568.247,693.623 568.948,692.389 569.648,691.158 570.348,689.93 571.048,688.704 571.748,687.481 572.448,686.26 573.148,685.042 573.848,683.826 574.548,682.613 575.249,681.403 575.949,680.195 576.649,678.989 577.349,677.786 578.049,676.586 578.749,675.388 579.449,674.193 580.149,673 580.85,671.81 581.55,670.622 582.25,669.436 582.95,668.254 583.65,667.073 584.35,665.895 585.05,664.72 585.75,663.547 586.451,662.376 587.151,661.208 587.851,660.043 588.551,658.88 589.251,657.719 589.951,656.561 590.651,655.405 591.351,654.251 592.052,653.1 592.752,651.952 593.452,650.805 594.152,649.662 594.852,648.52 595.552,647.381 596.252,646.245 596.952,645.111 597.652,643.979 598.353,642.849 599.053,641.722 599.753,640.597 600.453,639.475 601.153,638.355 601.853,637.237 602.553,636.122 603.253,635.009 603.954,633.898 604.654,632.79 605.354,631.684 606.054,630.581 606.754,629.479 607.454,628.38 608.154,627.283 608.854,626.189 609.555,625.097 610.255,624.007 610.955,622.919 611.655,621.834 612.355,620.751 613.055,619.67 613.755,618.592 614.455,617.516 615.156,616.442 615.856,615.37 616.556,614.301 617.256,613.233 617.956,612.168 618.656,611.106 619.356,610.045 620.056,608.987 620.756,607.931 621.457,606.877 622.157,605.825 622.857,604.776 623.557,603.729 624.257,602.684 624.957,601.641 625.657,600.6 626.357,599.562 627.058,598.526 627.758,597.492 628.458,596.46 629.158,595.43 629.858,594.402 630.558,593.377 631.258,592.353 631.958,591.332 632.659,590.313 633.359,589.296 634.059,588.282 634.759,587.269 635.459,586.259 636.159,585.25 636.859,584.244 637.559,583.24 638.26,582.238 638.96,581.238 639.66,580.24 640.36,579.244 641.06,578.251 641.76,577.259 642.46,576.269 643.16,575.282 643.86,574.297 644.561,573.313 645.261,572.332 645.961,571.353 646.661,570.376 647.361,569.401 648.061,568.428 648.761,567.457 649.461,566.488 650.162,565.521 650.862,564.556 651.562,563.593 652.262,562.633 652.962,561.674 653.662,560.717 654.362,559.762 655.062,558.809 655.763,557.859 656.463,556.91 657.163,555.963 657.863,555.018 658.563,554.075 659.263,553.135 659.963,552.196 660.663,551.259 661.364,550.324 662.064,549.391 662.764,548.46 663.464,547.531 664.164,546.604 664.864,545.678 665.564,544.755 666.264,543.834 666.964,542.914 667.665,541.997 668.365,541.081 669.065,540.168 669.765,539.256 670.465,538.346 671.165,537.439 671.865,536.533 672.565,535.629 673.266,534.726 673.966,533.826 674.666,532.928 675.366,532.031 676.066,531.137 676.766,530.244 677.466,529.353 678.166,528.464 678.867,527.577 679.567,526.692 680.267,525.808 680.967,524.927 681.667,524.047 682.367,523.169 683.067,522.293 683.767,521.419 684.468,520.547 685.168,519.676 685.868,518.807 686.568,517.94 687.268,517.075 687.968,516.212 688.668,515.351 689.368,514.491 690.068,513.633 690.769,512.777 691.469,511.923 692.169,511.071 692.869,510.22 693.569,509.371 694.269,508.524 694.969,507.679 695.669,506.835 696.37,505.993 697.07,505.153 697.77,504.315 698.47,503.479 699.17,502.644 699.87,501.811 700.57,500.98 701.27,500.15 701.971,499.323 702.671,498.497 703.371,497.672 704.071,496.85 704.771,496.029 705.471,495.21 706.171,494.393 706.871,493.577 707.571,492.763 708.272,491.951 708.972,491.14 709.672,490.331 710.372,489.524 711.072,488.719 711.772,487.915 712.472,487.113 713.172,486.313 713.873,485.514 714.573,484.717 715.273,483.922 715.973,483.128 716.673,482.336 717.373,481.545 718.073,480.757 718.773,479.97 719.474,479.184 720.174,478.401 720.874,477.618 721.574,476.838 722.274,476.059 722.974,475.282 723.674,474.506 724.374,473.732 725.075,472.96 725.775,472.189 726.475,471.42 727.175,470.653 727.875,469.887 728.575,469.123 729.275,468.36 729.975,467.599 730.675,466.84 731.376,466.082 732.076,465.326 732.776,464.571 733.476,463.818 734.176,463.066 734.876,462.316 735.576,461.568 736.276,460.821 736.977,460.076 737.677,459.332 738.377,458.59 739.077,457.85 739.777,457.111 740.477,456.373 741.177,455.637 741.877,454.903 742.578,454.17 743.278,453.439 743.978,452.709 744.678,451.981 745.378,451.254 746.078,450.529 746.778,449.805 747.478,449.083 748.179,448.363 748.879,447.644 749.579,446.926 750.279,446.21 750.979,445.495 751.679,444.782 752.379,444.071 753.079,443.361 753.779,442.652 754.48,441.945 755.18,441.239 755.88,440.535 756.58,439.832 757.28,439.131 757.98,438.431 758.68,437.733 759.38,437.036 760.081,436.341 760.781,435.647 761.481,434.955 762.181,434.264 762.881,433.574 763.581,432.886 764.281,432.2 764.981,431.514 765.682,430.831 766.382,430.148 767.082,429.467 767.782,428.788 768.482,428.11 769.182,427.433 769.882,426.758 770.582,426.084 771.283,425.412 771.983,424.741 772.683,424.072 773.383,423.403 774.083,422.737 774.783,422.071 775.483,421.407 776.183,420.745 776.883,420.084 777.584,419.424 778.284,418.766 778.984,418.109 779.684,417.453 780.384,416.799 781.084,416.146 781.784,415.494 782.484,414.844 783.185,414.195 783.885,413.548 784.585,412.902 785.285,412.257 785.985,411.614 786.685,410.972 787.385,410.331 788.085,409.692 788.786,409.054 789.486,408.417 790.186,407.782 790.886,407.148 791.586,406.515 792.286,405.884 792.986,405.254 793.686,404.625 794.387,403.998 795.087,403.372 795.787,402.747 796.487,402.124 797.187,401.502 797.887,400.881 798.587,400.262 799.287,399.643 799.987,399.026 800.688,398.411 801.388,397.797 802.088,397.184 802.788,396.572 803.488,395.961 804.188,395.352 804.888,394.744 805.588,394.138 806.289,393.532 806.989,392.928 807.689,392.325 808.389,391.724 809.089,391.124 809.789,390.525 810.489,389.927 811.189,389.33 811.89,388.735 812.59,388.141 813.29,387.548 813.99,386.957 814.69,386.367 815.39,385.778 816.09,385.19 816.79,384.603 817.49,384.018 818.191,383.434 818.891,382.851 819.591,382.269 820.291,381.689 820.991,381.109 821.691,380.531 822.391,379.955 823.091,379.379 823.792,378.805 824.492,378.232 825.192,377.66 825.892,377.089 826.592,376.519 827.292,375.951 827.992,375.384 828.692,374.818 829.393,374.253 830.093,373.689 830.793,373.127 831.493,372.565 832.193,372.005 832.893,371.446 833.593,370.889 834.293,370.332 834.994,369.777 835.694,369.223 836.394,368.669 837.094,368.118 837.794,367.567 838.494,367.017 839.194,366.469 839.894,365.921 840.594,365.375 841.295,364.83 841.995,364.286 842.695,363.744 843.395,363.202 844.095,362.662 844.795,362.122 845.495,361.584 846.195,361.047 846.896,360.511 847.596,359.976 848.296,359.443 848.996,358.91 849.696,358.379 850.396,357.848 851.096,357.319 851.796,356.791 852.497,356.264 853.197,355.738 853.897,355.213 854.597,354.69 855.297,354.167 855.997,353.646 856.697,353.125 857.397,352.606 858.098,352.088 858.798,351.571 859.498,351.055 860.198,350.54 860.898,350.026 861.598,349.513 862.298,349.001 862.998,348.491 863.698,347.981 864.399,347.472 865.099,346.965 865.799,346.459 866.499,345.953 867.199,345.449 867.899,344.946 868.599,344.444 869.299,343.943 870,343.443 870.7,342.944 871.4,342.446 872.1,341.949 872.8,341.453 873.5,340.958 874.2,340.464 874.9,339.972 875.601,339.48 876.301,338.989 877.001,338.499 877.701,338.011 878.401,337.523 879.101,337.037 879.801,336.551 880.501,336.067 881.202,335.583 881.902,335.101 882.602,334.619 883.302,334.139 884.002,333.659 884.702,333.181 885.402,332.703 886.102,332.227 886.802,331.751 887.503,331.277 888.203,330.803 888.903,330.331 889.603,329.859 890.303,329.389 891.003,328.919 891.703,328.451 892.403,327.983 893.104,327.517 893.804,327.051 894.504,326.587 895.204,326.123 895.904,325.66 896.604,325.199 897.304,324.738 898.004,324.278 898.705,323.819 899.405,323.361 900.105,322.905 900.805,322.449 901.505,321.994 902.205,321.54 902.905,321.087 903.605,320.635 904.306,320.183 905.006,319.733 905.706,319.284 906.406,318.836 907.106,318.388 907.806,317.942 908.506,317.496 909.206,317.052 909.906,316.608 910.607,316.165 911.307,315.724 912.007,315.283 912.707,314.843 913.407,314.404 914.107,313.966 914.807,313.529 915.507,313.092 916.208,312.657 916.908,312.223 917.608,311.789 918.308,311.357 919.008,310.925 919.708,310.494 920.408,310.064 921.108,309.635 921.809,309.207 922.509,308.78 923.209,308.354 923.909,307.928 924.609,307.504 925.309,307.08 926.009,306.658 926.709,306.236 927.409,305.815 928.11,305.395 928.81,304.976 929.51,304.557 930.21,304.14 930.91,303.723 931.61,303.308 932.31,302.893 933.01,302.479 933.711,302.066 934.411,301.654 935.111,301.242 935.811,300.832 936.511,300.422 937.211,300.014 937.911,299.606 938.611,299.199 939.312,298.792 940.012,298.387 940.712,297.983 941.412,297.579 942.112,297.176 942.812,296.774 943.512,296.373 944.212,295.973 944.913,295.574 945.613,295.175 946.313,294.777 947.013,294.38 947.713,293.984 948.413,293.589 949.113,293.195 949.813,292.801 950.513,292.408 951.214,292.016 951.914,291.625 952.614,291.235 953.314,290.846 954.014,290.457 954.714,290.069 955.414,289.682 956.114,289.296 956.815,288.91 957.515,288.526 958.215,288.142 958.915,287.759 959.615,287.377 960.315,286.995 961.015,286.615 961.715,286.235 962.416,285.856 963.116,285.478 963.816,285.101 964.516,284.724 965.216,284.348 965.916,283.973 966.616,283.599 967.316,283.225 968.017,282.853 968.717,282.481 969.417,282.11 970.117,281.739 970.817,281.37 971.517,281.001 972.217,280.633 972.917,280.266 973.617,279.899 974.318,279.534 975.018,279.169 975.718,278.805 976.418,278.441 977.118,278.079 977.818,277.717 978.518,277.356 979.218,276.995 979.919,276.636 980.619,276.277 981.319,275.919 982.019,275.561 982.719,275.205 983.419,274.849 984.119,274.494 984.819,274.139 985.52,273.786 986.22,273.433 986.92,273.081 987.62,272.729 988.32,272.379 989.02,272.029 989.72,271.68 990.42,271.331 991.121,270.984 991.821,270.637 992.521,270.29 993.221,269.945 993.921,269.6 994.621,269.256 995.321,268.913 996.021,268.57 996.721,268.228 997.422,267.887 998.122,267.546 998.822,267.206 999.522,266.867 1000.22,266.529 1000.92,266.191 1001.62,265.854 1002.32,265.518 1003.02,265.183 1003.72,264.848 1004.42,264.514 1005.12,264.18 1005.82,263.848 1006.52,263.516 1007.22,263.184 1007.92,262.854 1008.62,262.524 1009.32,262.194 1010.02,261.866 1010.72,261.538 1011.42,261.211 1012.12,260.884 1012.82,260.559 1013.52,260.234 1014.22,259.909 1014.92,259.585 1015.62,259.262 1016.32,258.94 1017.02,258.618 1017.73,258.297 1018.43,257.977 1019.13,257.657 1019.83,257.338 1020.53,257.02 1021.23,256.702 1021.93,256.385 1022.63,256.068 1023.33,255.753 1024.03,255.438 1024.73,255.123 1025.43,254.81 1026.13,254.497 1026.83,254.184 1027.53,253.872 1028.23,253.561 1028.93,253.251 1029.63,252.941 1030.33,252.632 1031.03,252.324 1031.73,252.016 1032.43,251.708 1033.13,251.402 1033.83,251.096 1034.53,250.791 1035.23,250.486 1035.93,250.182 1036.63,249.879 1037.33,249.576 1038.03,249.274 1038.73,248.973 1039.43,248.672 1040.13,248.372 1040.83,248.072 1041.53,247.773 1042.23,247.475 1042.93,247.177 1043.63,246.88 1044.33,246.584 1045.03,246.288 1045.73,245.993 1046.43,245.698 1047.13,245.404 1047.83,245.111 1048.53,244.818 1049.23,244.526 1049.93,244.234 1050.63,243.944 1051.33,243.653 1052.03,243.364 1052.73,243.075 1053.43,242.786 1054.13,242.498 1054.83,242.211 1055.53,241.925 1056.23,241.638 1056.93,241.353 1057.63,241.068 1058.33,240.784 1059.03,240.5 1059.73,240.217 1060.43,239.935 1061.13,239.653 1061.83,239.372 1062.53,239.091 1063.23,238.811 1063.93,238.531 1064.63,238.253 1065.33,237.974 1066.03,237.697 1066.73,237.419 1067.43,237.143 1068.13,236.867 1068.83,236.591 1069.53,236.317 1070.23,236.042 1070.93,235.769 1071.63,235.495 1072.33,235.223 1073.03,234.951 1073.73,234.68 1074.43,234.409 1075.14,234.138 1075.84,233.869 1076.54,233.6 1077.24,233.331 1077.94,233.063 1078.64,232.796 1079.34,232.529 1080.04,232.262 1080.74,231.997 1081.44,231.731 1082.14,231.467 1082.84,231.203 1083.54,230.939 1084.24,230.676 1084.94,230.414 1085.64,230.152 1086.34,229.891 1087.04,229.63 1087.74,229.37 1088.44,229.11 1089.14,228.851 1089.84,228.592 1090.54,228.334 1091.24,228.077 1091.94,227.82 1092.64,227.563 1093.34,227.307 1094.04,227.052 1094.74,226.797 1095.44,226.543 1096.14,226.289 1096.84,226.036 1097.54,225.783 1098.24,225.531 1098.94,225.279 1099.64,225.028 1100.34,224.778 1101.04,224.527 1101.74,224.278 1102.44,224.029 1103.14,223.78 1103.84,223.532 1104.54,223.285 1105.24,223.038 1105.94,222.792 1106.64,222.546 1107.34,222.3 1108.04,222.056 1108.74,221.811 1109.44,221.567 1110.14,221.324 1110.84,221.081 1111.54,220.839 1112.24,220.597 1112.94,220.356 1113.64,220.115 1114.34,219.875 1115.04,219.635 1115.74,219.396 1116.44,219.157 1117.14,218.919 1117.84,218.681 1118.54,218.444 1119.24,218.207 1119.94,217.971 1120.64,217.735 1121.34,217.5 1122.04,217.265 1122.74,217.03 1123.44,216.797 1124.14,216.563 1124.84,216.331 1125.54,216.098 1126.24,215.866 1126.94,215.635 1127.64,215.404 1128.34,215.174 1129.04,214.944 1129.74,214.714 1130.44,214.485 1131.14,214.257 1131.84,214.029 1132.54,213.801 1133.25,213.574 1133.95,213.348 1134.65,213.122 1135.35,212.896 1136.05,212.671 1136.75,212.446 1137.45,212.222 1138.15,211.998 1138.85,211.775 1139.55,211.552 1140.25,211.33 1140.95,211.108 1141.65,210.887 1142.35,210.666 1143.05,210.446 1143.75,210.226 1144.45,210.006 1145.15,209.787 1145.85,209.568 1146.55,209.35 1147.25,209.132 1147.95,208.915 1148.65,208.698 1149.35,208.482 1150.05,208.266 1150.75,208.051 1151.45,207.836 1152.15,207.621 1152.85,207.407 1153.55,207.194 1154.25,206.981 1154.95,206.768 1155.65,206.556 1156.35,206.344 1157.05,206.132 1157.75,205.921 1158.45,205.711 1159.15,205.501 1159.85,205.291 1160.55,205.082 1161.25,204.873 1161.95,204.665 1162.65,204.457 1163.35,204.25 1164.05,204.043 1164.75,203.836 1165.45,203.63 1166.15,203.424 1166.85,203.219 1167.55,203.014 1168.25,202.81 1168.95,202.606 1169.65,202.402 1170.35,202.199 1171.05,201.996 1171.75,201.794 1172.45,201.592 1173.15,201.391 1173.85,201.19 1174.55,200.989 1175.25,200.789 1175.95,200.589 1176.65,200.39 1177.35,200.191 1178.05,199.993 1178.75,199.795 1179.45,199.597 1180.15,199.4 1180.85,199.203 1181.55,199.007 1182.25,198.811 1182.95,198.615 1183.65,198.42 1184.35,198.225 1185.05,198.031 1185.75,197.837 1186.45,197.643 1187.15,197.45 1187.85,197.257 1188.55,197.065 1189.25,196.873 1189.95,196.682 1190.66,196.49 1191.36,196.3 1192.06,196.109 1192.76,195.92 1193.46,195.73 1194.16,195.541 1194.86,195.352 1195.56,195.164 1196.26,194.976 1196.96,194.788 1197.66,194.601 1198.36,194.414 1199.06,194.228 1199.76,194.042 1200.46,193.857 1201.16,193.671 1201.86,193.487 1202.56,193.302 1203.26,193.118 1203.96,192.934 1204.66,192.751 1205.36,192.568 1206.06,192.386 1206.76,192.204 1207.46,192.022 1208.16,191.841 1208.86,191.66 1209.56,191.479 1210.26,191.299 1210.96,191.119 1211.66,190.94 1212.36,190.761 1213.06,190.582 1213.76,190.404 1214.46,190.226 1215.16,190.048 1215.86,189.871 1216.56,189.694 1217.26,189.518 1217.96,189.341 1218.66,189.166 1219.36,188.99 1220.06,188.815 1220.76,188.641 1221.46,188.467 1222.16,188.293 1222.86,188.119 1223.56,187.946 1224.26,187.773 1224.96,187.601 1225.66,187.429 1226.36,187.257 1227.06,187.086 1227.76,186.915 1228.46,186.744 1229.16,186.574 1229.86,186.404 1230.56,186.234 1231.26,186.065 1231.96,185.896 1232.66,185.728 1233.36,185.56 1234.06,185.392 1234.76,185.224 1235.46,185.057 1236.16,184.891 1236.86,184.724 1237.56,184.558 1238.26,184.392 1238.96,184.227 1239.66,184.062 1240.36,183.897 1241.06,183.733 1241.76,183.569 1242.46,183.406 1243.16,183.242 1243.86,183.079 1244.56,182.917 1245.26,182.755 1245.96,182.593 1246.66,182.431 1247.36,182.27 1248.06,182.109 1248.77,181.948 1249.47,181.788 1250.17,181.628 1250.87,181.469 1251.57,181.31 1252.27,181.151 1252.97,180.992 1253.67,180.834 1254.37,180.676 1255.07,180.519 1255.77,180.361 1256.47,180.204 1257.17,180.048 1257.87,179.892 1258.57,179.736 1259.27,179.58 1259.97,179.425 1260.67,179.27 1261.37,179.115 1262.07,178.961 1262.77,178.807 1263.47,178.654 1264.17,178.5 1264.87,178.347 1265.57,178.195 1266.27,178.042 1266.97,177.89 1267.67,177.739 1268.37,177.587 1269.07,177.436 1269.77,177.285 1270.47,177.135 1271.17,176.985 1271.87,176.835 1272.57,176.686 1273.27,176.536 1273.97,176.388 1274.67,176.239 1275.37,176.091 1276.07,175.943 1276.77,175.795 1277.47,175.648 1278.17,175.501 1278.87,175.354 1279.57,175.208 1280.27,175.062 1280.97,174.916 1281.67,174.771 1282.37,174.626 1283.07,174.481 1283.77,174.336 1284.47,174.192 1285.17,174.048 1285.87,173.904 1286.57,173.761 1287.27,173.618 1287.97,173.475 1288.67,173.333 1289.37,173.191 1290.07,173.049 1290.77,172.907 1291.47,172.766 1292.17,172.625 1292.87,172.484 1293.57,172.344 1294.27,172.204 1294.97,172.064 1295.67,171.925 1296.37,171.786 1297.07,171.647 1297.77,171.508 1298.47,171.37 1299.17,171.232 1299.87,171.094 1300.57,170.957 1301.27,170.819 1301.97,170.683 1302.67,170.546 1303.37,170.41 1304.07,170.274 1304.77,170.138 1305.47,170.003 1306.17,169.867 1306.88,169.732 1307.58,169.598 1308.28,169.464 1308.98,169.33 1309.68,169.196 1310.38,169.062 1311.08,168.929 1311.78,168.796 1312.48,168.664 1313.18,168.531 1313.88,168.399 1314.58,168.267 1315.28,168.136 1315.98,168.005 1316.68,167.874 1317.38,167.743 1318.08,167.613 1318.78,167.483 1319.48,167.353 1320.18,167.223 1320.88,167.094 1321.58,166.965 1322.28,166.836 1322.98,166.707 1323.68,166.579 1324.38,166.451 1325.08,166.324 1325.78,166.196 1326.48,166.069 1327.18,165.942 1327.88,165.815 1328.58,165.689 1329.28,165.563 1329.98,165.437 1330.68,165.312 1331.38,165.186 1332.08,165.061 1332.78,164.936 1333.48,164.812 1334.18,164.688 1334.88,164.564 1335.58,164.44 1336.28,164.316 1336.98,164.193 1337.68,164.07 1338.38,163.947 1339.08,163.825 1339.78,163.703 1340.48,163.581 1341.18,163.459 1341.88,163.338 1342.58,163.217 1343.28,163.096 1343.98,162.975 1344.68,162.855 1345.38,162.734 1346.08,162.615 1346.78,162.495 1347.48,162.376 1348.18,162.256 1348.88,162.137 1349.58,162.019 1350.28,161.9 1350.98,161.782 1351.68,161.664 1352.38,161.547 1353.08,161.429 1353.78,161.312 1354.48,161.195 1355.18,161.079 1355.88,160.962 1356.58,160.846 1357.28,160.73 1357.98,160.614 1358.68,160.499 1359.38,160.384 1360.08,160.269 1360.78,160.154 1361.48,160.039 1362.18,159.925 1362.88,159.811 1363.58,159.697 1364.29,159.584 1364.99,159.471 1365.69,159.357 1366.39,159.245 1367.09,159.132 1367.79,159.02 1368.49,158.908 1369.19,158.796 1369.89,158.684 1370.59,158.573 1371.29,158.462 1371.99,158.351 1372.69,158.24 1373.39,158.129 1374.09,158.019 1374.79,157.909 1375.49,157.799 1376.19,157.69 1376.89,157.58 1377.59,157.471 1378.29,157.363 1378.99,157.254 1379.69,157.146 1380.39,157.037 1381.09,156.929 1381.79,156.822 1382.49,156.714 1383.19,156.607 1383.89,156.5 1384.59,156.393 1385.29,156.286 1385.99,156.18 1386.69,156.074 1387.39,155.968 1388.09,155.862 1388.79,155.757 1389.49,155.651 1390.19,155.546 1390.89,155.442 1391.59,155.337 1392.29,155.233 1392.99,155.128 1393.69,155.024 1394.39,154.921 1395.09,154.817 1395.79,154.714 1396.49,154.611 1397.19,154.508 1397.89,154.405 1398.59,154.303 1399.29,154.201 1399.99,154.099 1400.69,153.997 1401.39,153.895 1402.09,153.794 1402.79,153.693 1403.49,153.592 1404.19,153.491 1404.89,153.391 1405.59,153.29 1406.29,153.19 1406.99,153.09 1407.69,152.991 1408.39,152.891 1409.09,152.792 1409.79,152.693 1410.49,152.594 1411.19,152.495 1411.89,152.397 1412.59,152.299 1413.29,152.201 1413.99,152.103 1414.69,152.005 1415.39,151.908 1416.09,151.811 1416.79,151.714 1417.49,151.617 1418.19,151.52 1418.89,151.424 1419.59,151.328 1420.29,151.232 1420.99,151.136 1421.69,151.041 1422.4,150.945 1423.1,150.85 1423.8,150.755 1424.5,150.66 1425.2,150.566 1425.9,150.471 1426.6,150.377 1427.3,150.283 1428,150.189 1428.7,150.096 1429.4,150.002 1430.1,149.909 1430.8,149.816 1431.5,149.723 1432.2,149.631 1432.9,149.538 1433.6,149.446 1434.3,149.354 1435,149.262 1435.7,149.171 1436.4,149.079 1437.1,148.988 1437.8,148.897 1438.5,148.806 1439.2,148.715 1439.9,148.625 1440.6,148.535 1441.3,148.444 1442,148.355 1442.7,148.265 1443.4,148.175 1444.1,148.086 1444.8,147.997 1445.5,147.908 1446.2,147.819 1446.9,147.73 1447.6,147.642 1448.3,147.554 1449,147.466 1449.7,147.378 1450.4,147.29 1451.1,147.202 1451.8,147.115 1452.5,147.028 1453.2,146.941 1453.9,146.854 1454.6,146.768 1455.3,146.681 1456,146.595 1456.7,146.509 1457.4,146.423 1458.1,146.337 1458.8,146.252 1459.5,146.167 1460.2,146.081 1460.9,145.997 1461.6,145.912 1462.3,145.827 1463,145.743 1463.7,145.658 1464.4,145.574 1465.1,145.49 1465.8,145.407 1466.5,145.323 1467.2,145.24 1467.9,145.157 1468.6,145.074 1469.3,144.991 1470,144.908 1470.7,144.825 1471.4,144.743 1472.1,144.661 1472.8,144.579 1473.5,144.497 1474.2,144.416 1474.9,144.334 1475.6,144.253 1476.3,144.172 1477,144.091 1477.7,144.01 1478.4,143.929 1479.1,143.849 1479.8,143.769 1480.51,143.688 1481.21,143.608 1481.91,143.529 1482.61,143.449 1483.31,143.37 1484.01,143.29 1484.71,143.211 1485.41,143.132 1486.11,143.053 1486.81,142.975 1487.51,142.896 1488.21,142.818 1488.91,142.74 1489.61,142.662 1490.31,142.584 1491.01,142.507 1491.71,142.429 1492.41,142.352 1493.11,142.275 1493.81,142.198 1494.51,142.121 1495.21,142.044 1495.91,141.968 1496.61,141.891 1497.31,141.815 1498.01,141.739 1498.71,141.663 1499.41,141.588 1500.11,141.512 1500.81,141.437 1501.51,141.361 1502.21,141.286 1502.91,141.211 1503.61,141.137 1504.31,141.062 1505.01,140.988 1505.71,140.913 1506.41,140.839 1507.11,140.765 1507.81,140.692 1508.51,140.618 1509.21,140.544 1509.91,140.471 1510.61,140.398 1511.31,140.325 1512.01,140.252 1512.71,140.179 1513.41,140.107 1514.11,140.034 1514.81,139.962 1515.51,139.89 1516.21,139.818 1516.91,139.746 1517.61,139.674 1518.31,139.603 1519.01,139.531 1519.71,139.46 1520.41,139.389 1521.11,139.318 1521.81,139.247 1522.51,139.177 1523.21,139.106 1523.91,139.036 1524.61,138.966 1525.31,138.896 1526.01,138.826 1526.71,138.756 1527.41,138.686 1528.11,138.617 1528.81,138.548 1529.51,138.478 1530.21,138.409 1530.91,138.34 1531.61,138.272 1532.31,138.203 1533.01,138.135 1533.71,138.066 1534.41,137.998 1535.11,137.93 1535.81,137.862 1536.51,137.795 1537.21,137.727 1537.92,137.66 1538.62,137.592 1539.32,137.525 1540.02,137.458 1540.72,137.391 1541.42,137.325 1542.12,137.258 1542.82,137.191 1543.52,137.125 1544.22,137.059 1544.92,136.993 1545.62,136.927 1546.32,136.861 1547.02,136.796 1547.72,136.73 1548.42,136.665 1549.12,136.6 1549.82,136.535 1550.52,136.47 1551.22,136.405 1551.92,136.34 1552.62,136.276 1553.32,136.211 1554.02,136.147 1554.72,136.083 1555.42,136.019 1556.12,135.955 1556.82,135.891 1557.52,135.828 1558.22,135.764 1558.92,135.701 1559.62,135.638 1560.32,135.575 1561.02,135.512 1561.72,135.449 1562.42,135.386 1563.12,135.324 1563.82,135.261 1564.52,135.199 1565.22,135.137 1565.92,135.075 1566.62,135.013 1567.32,134.951 1568.02,134.89 1568.72,134.828 1569.42,134.767 1570.12,134.705 1570.82,134.644 1571.52,134.583 1572.22,134.523 1572.92,134.462 1573.62,134.401 1574.32,134.341 1575.02,134.28 1575.72,134.22 1576.42,134.16 1577.12,134.1 1577.82,134.04 1578.52,133.981 1579.22,133.921 1579.92,133.862 1580.62,133.802 1581.32,133.743 1582.02,133.684 1582.72,133.625 1583.42,133.566 1584.12,133.507 1584.82,133.449 1585.52,133.39 1586.22,133.332 1586.92,133.274 1587.62,133.216 1588.32,133.158 1589.02,133.1 1589.72,133.042 1590.42,132.985 1591.12,132.927 1591.82,132.87 1592.52,132.812 1593.22,132.755 1593.92,132.698 1594.62,132.641 1595.32,132.585 1596.03,132.528 1596.73,132.471 1597.43,132.415 1598.13,132.359 1598.83,132.302 1599.53,132.246 1600.23,132.19 1600.93,132.135 1601.63,132.079 1602.33,132.023 1603.03,131.968 1603.73,131.912 1604.43,131.857 1605.13,131.802 1605.83,131.747 1606.53,131.692 1607.23,131.637 1607.93,131.583 1608.63,131.528 1609.33,131.474 1610.03,131.419 1610.73,131.365 1611.43,131.311 1612.13,131.257 1612.83,131.203 1613.53,131.15 1614.23,131.096 1614.93,131.042 1615.63,130.989 1616.33,130.936 1617.03,130.882 1617.73,130.829 1618.43,130.776 1619.13,130.723 1619.83,130.671 1620.53,130.618 1621.23,130.566 1621.93,130.513 1622.63,130.461 1623.33,130.409 1624.03,130.357 1624.73,130.305 1625.43,130.253 1626.13,130.201 1626.83,130.149 1627.53,130.098 1628.23,130.046 1628.93,129.995 1629.63,129.944 1630.33,129.893 1631.03,129.842 1631.73,129.791 1632.43,129.74 1633.13,129.689 1633.83,129.639 1634.53,129.588 1635.23,129.538 1635.93,129.488 1636.63,129.437 1637.33,129.387 1638.03,129.337 1638.73,129.288 1639.43,129.238 1640.13,129.188 1640.83,129.139 1641.53,129.089 1642.23,129.04 1642.93,128.991 1643.63,128.942 1644.33,128.893 1645.03,128.844 1645.73,128.795 1646.43,128.746 1647.13,128.697 1647.83,128.649 1648.53,128.601 1649.23,128.552 1649.93,128.504 1650.63,128.456 1651.33,128.408 1652.03,128.36 1652.73,128.312 1653.44,128.265 1654.14,128.217 1654.84,128.17 1655.54,128.122 1656.24,128.075 1656.94,128.028 1657.64,127.981 1658.34,127.934 1659.04,127.887 1659.74,127.84 1660.44,127.793 1661.14,127.747 1661.84,127.7 1662.54,127.654 1663.24,127.607 1663.94,127.561 1664.64,127.515 1665.34,127.469 1666.04,127.423 1666.74,127.377 1667.44,127.331 1668.14,127.286 1668.84,127.24 1669.54,127.195 1670.24,127.15 1670.94,127.104 1671.64,127.059 1672.34,127.014 1673.04,126.969 1673.74,126.924 1674.44,126.879 1675.14,126.835 1675.84,126.79 1676.54,126.746 1677.24,126.701 1677.94,126.657 1678.64,126.613 1679.34,126.569 1680.04,126.525 1680.74,126.481 1681.44,126.437 1682.14,126.393 1682.84,126.349 1683.54,126.306 1684.24,126.262 1684.94,126.219 1685.64,126.176 1686.34,126.132 1687.04,126.089 1687.74,126.046 1688.44,126.003 1689.14,125.96 1689.84,125.918 1690.54,125.875 1691.24,125.832 1691.94,125.79 1692.64,125.748 1693.34,125.705 1694.04,125.663 1694.74,125.621 1695.44,125.579 1696.14,125.537 1696.84,125.495 1697.54,125.453 1698.24,125.411 1698.94,125.37 1699.64,125.328 1700.34,125.287 1701.04,125.246 1701.74,125.204 1702.44,125.163 1703.14,125.122 1703.84,125.081 1704.54,125.04 1705.24,124.999 1705.94,124.959 1706.64,124.918 1707.34,124.877 1708.04,124.837 1708.74,124.796 1709.44,124.756 1710.14,124.716 1710.84,124.676 1711.55,124.636 1712.25,124.596 1712.95,124.556 1713.65,124.516 1714.35,124.476 1715.05,124.437 1715.75,124.397 1716.45,124.358 1717.15,124.318 1717.85,124.279 1718.55,124.24 1719.25,124.2 1719.95,124.161 1720.65,124.122 1721.35,124.084 1722.05,124.045 1722.75,124.006 1723.45,123.967 1724.15,123.929 1724.85,123.89 1725.55,123.852 1726.25,123.813 1726.95,123.775 1727.65,123.737 1728.35,123.699 1729.05,123.661 1729.75,123.623 1730.45,123.585 1731.15,123.547 1731.85,123.51 1732.55,123.472 1733.25,123.435 1733.95,123.397 1734.65,123.36 1735.35,123.322 1736.05,123.285 1736.75,123.248 1737.45,123.211 1738.15,123.174 1738.85,123.137 1739.55,123.1 1740.25,123.063 1740.95,123.027 1741.65,122.99 1742.35,122.954 1743.05,122.917 1743.75,122.881 1744.45,122.844 1745.15,122.808 1745.85,122.772 1746.55,122.736 1747.25,122.7 1747.95,122.664 1748.65,122.628 1749.35,122.593 1750.05,122.557 1750.75,122.521 1751.45,122.486 1752.15,122.45 1752.85,122.415 1753.55,122.379 1754.25,122.344 1754.95,122.309 1755.65,122.274 1756.35,122.239 1757.05,122.204 1757.75,122.169 1758.45,122.134 1759.15,122.1 1759.85,122.065 1760.55,122.03 1761.25,121.996 1761.95,121.961 1762.65,121.927 1763.35,121.893 1764.05,121.858 1764.75,121.824 1765.45,121.79 1766.15,121.756 1766.85,121.722 1767.55,121.688 1768.25,121.655 1768.95,121.621 1769.66,121.587 1770.36,121.554 1771.06,121.52 1771.76,121.487 1772.46,121.453 1773.16,121.42 1773.86,121.387 1774.56,121.354 1775.26,121.32 1775.96,121.287 1776.66,121.255 1777.36,121.222 1778.06,121.189 1778.76,121.156 1779.46,121.123 1780.16,121.091 1780.86,121.058 1781.56,121.026 1782.26,120.993 1782.96,120.961 1783.66,120.929 1784.36,120.897 1785.06,120.864 1785.76,120.832 1786.46,120.8 1787.16,120.768 1787.86,120.737 1788.56,120.705 1789.26,120.673 1789.96,120.641 1790.66,120.61 1791.36,120.578 1792.06,120.547 1792.76,120.515 1793.46,120.484 1794.16,120.453 1794.86,120.421 1795.56,120.39 1796.26,120.359 1796.96,120.328 1797.66,120.297 1798.36,120.266 1799.06,120.236 1799.76,120.205 1800.46,120.174 1801.16,120.144 1801.86,120.113 1802.56,120.083 1803.26,120.052 1803.96,120.022 1804.66,119.991 1805.36,119.961 1806.06,119.931 1806.76,119.901 1807.46,119.871 1808.16,119.841 1808.86,119.811 1809.56,119.781 1810.26,119.751 1810.96,119.722 1811.66,119.692 1812.36,119.662 1813.06,119.633 1813.76,119.603 1814.46,119.574 1815.16,119.544 1815.86,119.515 1816.56,119.486 1817.26,119.457 1817.96,119.428 1818.66,119.399 1819.36,119.37 1820.06,119.341 1820.76,119.312 1821.46,119.283 1822.16,119.254 1822.86,119.226 1823.56,119.197 1824.26,119.168 1824.96,119.14 1825.66,119.111 1826.36,119.083 1827.07,119.055 1827.77,119.026 1828.47,118.998 1829.17,118.97 1829.87,118.942 1830.57,118.914 1831.27,118.886 1831.97,118.858 1832.67,118.83 1833.37,118.802 1834.07,118.775 1834.77,118.747 1835.47,118.719 1836.17,118.692 1836.87,118.664 1837.57,118.637 1838.27,118.609 1838.97,118.582 1839.67,118.555 1840.37,118.527 1841.07,118.5 1841.77,118.473 1842.47,118.446 1843.17,118.419 1843.87,118.392 1844.57,118.365 1845.27,118.338 1845.97,118.312 1846.67,118.285 1847.37,118.258 1848.07,118.232 1848.77,118.205 1849.47,118.179 1850.17,118.152 1850.87,118.126 1851.57,118.1 1852.27,118.073 1852.97,118.047 1853.67,118.021 1854.37,117.995 1855.07,117.969 1855.77,117.943 1856.47,117.917 1857.17,117.891 1857.87,117.865 1858.57,117.839 1859.27,117.814 1859.97,117.788 1860.67,117.762 1861.37,117.737 1862.07,117.711 1862.77,117.686 1863.47,117.66 1864.17,117.635 1864.87,117.61 1865.57,117.585 1866.27,117.559 1866.97,117.534 1867.67,117.509 1868.37,117.484 1869.07,117.459 1869.77,117.434 1870.47,117.409 1871.17,117.384 1871.87,117.36 1872.57,117.335 1873.27,117.31 1873.97,117.286 1874.67,117.261 1875.37,117.237 1876.07,117.212 1876.77,117.188 1877.47,117.163 1878.17,117.139 1878.87,117.115 1879.57,117.091 1880.27,117.067 1880.97,117.042 1881.67,117.018 1882.37,116.994 1883.07,116.97 1883.77,116.947 1884.47,116.923 1885.18,116.899 1885.88,116.875 1886.58,116.851 1887.28,116.828 1887.98,116.804 1888.68,116.781 1889.38,116.757 1890.08,116.734 1890.78,116.71 1891.48,116.687 1892.18,116.664 1892.88,116.64 1893.58,116.617 1894.28,116.594 1894.98,116.571 1895.68,116.548 1896.38,116.525 1897.08,116.502 1897.78,116.479 1898.48,116.456 1899.18,116.433 1899.88,116.41 1900.58,116.388 1901.28,116.365 1901.98,116.342 1902.68,116.32 1903.38,116.297 1904.08,116.275 1904.78,116.252 1905.48,116.23 1906.18,116.208 1906.88,116.185 1907.58,116.163 1908.28,116.141 1908.98,116.119 1909.68,116.097 1910.38,116.075 1911.08,116.052 1911.78,116.031 1912.48,116.009 1913.18,115.987 1913.88,115.965 1914.58,115.943 1915.28,115.921 1915.98,115.9 1916.68,115.878 1917.38,115.856 1918.08,115.835 1918.78,115.813 1919.48,115.792 1920.18,115.77 1920.88,115.749 1921.58,115.728 1922.28,115.706 1922.98,115.685 1923.68,115.664 1924.38,115.643 1925.08,115.622 1925.78,115.601 1926.48,115.58 1927.18,115.559 1927.88,115.538 1928.58,115.517 1929.28,115.496 1929.98,115.475 1930.68,115.454 1931.38,115.434 1932.08,115.413 1932.78,115.392 1933.48,115.372 1934.18,115.351 1934.88,115.331 1935.58,115.31 1936.28,115.29 1936.98,115.269 1937.68,115.249 1938.38,115.229 1939.08,115.209 1939.78,115.188 1940.48,115.168 1941.18,115.148 1941.88,115.128 1942.58,115.108 1943.29,115.088 1943.99,115.068 1944.69,115.048 1945.39,115.028 1946.09,115.008 1946.79,114.989 1947.49,114.969 1948.19,114.949 1948.89,114.929 1949.59,114.91 1950.29,114.89 1950.99,114.871 1951.69,114.851 1952.39,114.832 1953.09,114.812 1953.79,114.793 1954.49,114.774 1955.19,114.754 1955.89,114.735 1956.59,114.716 1957.29,114.697 1957.99,114.678 1958.69,114.659 1959.39,114.639 1960.09,114.62 1960.79,114.602 1961.49,114.583 1962.19,114.564 1962.89,114.545 1963.59,114.526 1964.29,114.507 1964.99,114.489 1965.69,114.47 1966.39,114.451 1967.09,114.433 1967.79,114.414 1968.49,114.395 1969.19,114.377 1969.89,114.358 1970.59,114.34 1971.29,114.322 1971.99,114.303 1972.69,114.285 1973.39,114.267 1974.09,114.249 1974.79,114.23 1975.49,114.212 1976.19,114.194 1976.89,114.176 1977.59,114.158 1978.29,114.14 1978.99,114.122 1979.69,114.104 1980.39,114.086 1981.09,114.068 1981.79,114.051 1982.49,114.033 1983.19,114.015 1983.89,113.997 1984.59,113.98 1985.29,113.962 1985.99,113.944 1986.69,113.927 1987.39,113.909 1988.09,113.892 1988.79,113.874 1989.49,113.857 1990.19,113.84 1990.89,113.822 1991.59,113.805 1992.29,113.788 1992.99,113.771 1993.69,113.753 1994.39,113.736 1995.09,113.719 1995.79,113.702 1996.49,113.685 1997.19,113.668 1997.89,113.651 1998.59,113.634 1999.29,113.617 1999.99,113.6 2000.7,113.583 2001.4,113.567 2002.1,113.55 2002.8,113.533 2003.5,113.516 2004.2,113.5 2004.9,113.483 2005.6,113.467 2006.3,113.45 2007,113.434 2007.7,113.417 2008.4,113.401 2009.1,113.384 2009.8,113.368 2010.5,113.352 2011.2,113.335 2011.9,113.319 2012.6,113.303 2013.3,113.286 2014,113.27 2014.7,113.254 2015.4,113.238 2016.1,113.222 2016.8,113.206 2017.5,113.19 2018.2,113.174 2018.9,113.158 2019.6,113.142 2020.3,113.126 2021,113.11 2021.7,113.095 2022.4,113.079 2023.1,113.063 2023.8,113.047 2024.5,113.032 2025.2,113.016 2025.9,113.001 2026.6,112.985 2027.3,112.969 2028,112.954 2028.7,112.938 2029.4,112.923 2030.1,112.908 2030.8,112.892 2031.5,112.877 2032.2,112.862 2032.9,112.846 2033.6,112.831 2034.3,112.816 2035,112.801 2035.7,112.785 2036.4,112.77 2037.1,112.755 2037.8,112.74 2038.5,112.725 2039.2,112.71 2039.9,112.695 2040.6,112.68 2041.3,112.665 2042,112.65 2042.7,112.636 2043.4,112.621 2044.1,112.606 2044.8,112.591 2045.5,112.577 2046.2,112.562 2046.9,112.547 2047.6,112.533 2048.3,112.518 2049,112.504 2049.7,112.489 2050.4,112.474 2051.1,112.46 2051.8,112.446 2052.5,112.431 2053.2,112.417 2053.9,112.402 2054.6,112.388 2055.3,112.374 2056,112.36 2056.7,112.345 2057.4,112.331 2058.1,112.317 2058.81,112.303 2059.51,112.289 2060.21,112.275 2060.91,112.261 2061.61,112.247 2062.31,112.233 2063.01,112.219 2063.71,112.205 2064.41,112.191 2065.11,112.177 2065.81,112.163 2066.51,112.149 2067.21,112.135 2067.91,112.122 2068.61,112.108 2069.31,112.094 2070.01,112.081 2070.71,112.067 2071.41,112.053 2072.11,112.04 2072.81,112.026 2073.51,112.013 2074.21,111.999 2074.91,111.986 2075.61,111.972 2076.31,111.959 2077.01,111.945 2077.71,111.932 2078.41,111.919 2079.11,111.905 2079.81,111.892 2080.51,111.879 2081.21,111.866 2081.91,111.853 2082.61,111.839 2083.31,111.826 2084.01,111.813 2084.71,111.8 2085.41,111.787 2086.11,111.774 2086.81,111.761 2087.51,111.748 2088.21,111.735 2088.91,111.722 2089.61,111.709 2090.31,111.696 2091.01,111.684 2091.71,111.671 2092.41,111.658 2093.11,111.645 2093.81,111.632 2094.51,111.62 2095.21,111.607 2095.91,111.594 2096.61,111.582 2097.31,111.569 2098.01,111.557 2098.71,111.544 2099.41,111.532 2100.11,111.519 2100.81,111.507 2101.51,111.494 2102.21,111.482 2102.91,111.469 2103.61,111.457 2104.31,111.445 2105.01,111.432 2105.71,111.42 2106.41,111.408 2107.11,111.396 2107.81,111.383 2108.51,111.371 2109.21,111.359 2109.91,111.347 2110.61,111.335 2111.31,111.323 2112.01,111.311 2112.71,111.299 2113.41,111.287 2114.11,111.275 2114.81,111.263 2115.51,111.251 2116.22,111.239 2116.92,111.227 2117.62,111.215 2118.32,111.203 2119.02,111.192 2119.72,111.18 2120.42,111.168 2121.12,111.156 2121.82,111.145 2122.52,111.133 2123.22,111.121 2123.92,111.11 2124.62,111.098 2125.32,111.086 2126.02,111.075 2126.72,111.063 2127.42,111.052 2128.12,111.04 2128.82,111.029 2129.52,111.017 2130.22,111.006 2130.92,110.995 2131.62,110.983 2132.32,110.972 2133.02,110.961 2133.72,110.949 2134.42,110.938 2135.12,110.927 2135.82,110.916 2136.52,110.904 2137.22,110.893 2137.92,110.882 2138.62,110.871 2139.32,110.86 2140.02,110.849 2140.72,110.838 2141.42,110.827 2142.12,110.816 2142.82,110.805 2143.52,110.794 2144.22,110.783 2144.92,110.772 2145.62,110.761 2146.32,110.75 2147.02,110.739 2147.72,110.728 2148.42,110.718 2149.12,110.707 2149.82,110.696 2150.52,110.685 2151.22,110.675 2151.92,110.664 2152.62,110.653 2153.32,110.643 2154.02,110.632 2154.72,110.621 2155.42,110.611 2156.12,110.6 2156.82,110.59 2157.52,110.579 2158.22,110.569 2158.92,110.558 2159.62,110.548 2160.32,110.537 2161.02,110.527 2161.72,110.517 2162.42,110.506 2163.12,110.496 2163.82,110.486 2164.52,110.475 2165.22,110.465 2165.92,110.455 2166.62,110.444 2167.32,110.434 2168.02,110.424 2168.72,110.414 2169.42,110.404 2170.12,110.394 2170.82,110.384 2171.52,110.373 2172.22,110.363 2172.92,110.353 2173.62,110.343 2174.33,110.333 2175.03,110.323 2175.73,110.313 2176.43,110.303 2177.13,110.294 2177.83,110.284 2178.53,110.274 2179.23,110.264 2179.93,110.254 2180.63,110.244 2181.33,110.235 2182.03,110.225 2182.73,110.215 2183.43,110.205 2184.13,110.196 2184.83,110.186 2185.53,110.176 2186.23,110.167 2186.93,110.157 2187.63,110.147 2188.33,110.138 2189.03,110.128 2189.73,110.119 2190.43,110.109 2191.13,110.1 2191.83,110.09 2192.53,110.081 2193.23,110.071 2193.93,110.062 2194.63,110.052 2195.33,110.043 2196.03,110.034 2196.73,110.024 2197.43,110.015 2198.13,110.006 2198.83,109.996 2199.53,109.987 2200.23,109.978 2200.93,109.969 2201.63,109.959 2202.33,109.95 2203.03,109.941 2203.73,109.932 2204.43,109.923 2205.13,109.914 2205.83,109.904 2206.53,109.895 2207.23,109.886 2207.93,109.877 2208.63,109.868 2209.33,109.859 2210.03,109.85 2210.73,109.841 2211.43,109.832 2212.13,109.823 2212.83,109.815 2213.53,109.806 2214.23,109.797 2214.93,109.788 2215.63,109.779 2216.33,109.77 2217.03,109.762 2217.73,109.753 2218.43,109.744 2219.13,109.735 2219.83,109.727 2220.53,109.718 2221.23,109.709 2221.93,109.7 2222.63,109.692 2223.33,109.683 2224.03,109.675 2224.73,109.666 2225.43,109.657 2226.13,109.649 2226.83,109.64 2227.53,109.632 2228.23,109.623 2228.93,109.615 2229.63,109.606 2230.33,109.598 2231.03,109.589 2231.73,109.581 2232.44,109.573 2233.14,109.564 2233.84,109.556 2234.54,109.548 2235.24,109.539 2235.94,109.531 2236.64,109.523 2237.34,109.514 2238.04,109.506 2238.74,109.498 2239.44,109.49 2240.14,109.481 2240.84,109.473 2241.54,109.465 2242.24,109.457 2242.94,109.449 2243.64,109.441 2244.34,109.432 2245.04,109.424 2245.74,109.416 2246.44,109.408 2247.14,109.4 2247.84,109.392 2248.54,109.384 2249.24,109.376 2249.94,109.368 2250.64,109.36 2251.34,109.352 2252.04,109.344 2252.74,109.337 2253.44,109.329 2254.14,109.321 2254.84,109.313 2255.54,109.305 2256.24,109.297 2256.94,109.289 2257.64,109.282 2258.34,109.274 2259.04,109.266 2259.74,109.258 2260.44,109.251 2261.14,109.243 2261.84,109.235 2262.54,109.228 2263.24,109.22 2263.94,109.212 2264.64,109.205 2265.34,109.197 2266.04,109.19 2266.74,109.182 2267.44,109.174 2268.14,109.167 2268.84,109.159 2269.54,109.152 2270.24,109.144 2270.94,109.137 2271.64,109.129 2272.34,109.122 2273.04,109.114 2273.74,109.107 2274.44,109.1 2275.14,109.092 2275.84,109.085 2276.54,109.077 2277.24,109.07 2277.94,109.063 2278.64,109.056 2279.34,109.048 2280.04,109.041 2280.74,109.034 2281.44,109.026 2282.14,109.019 2282.84,109.012 2283.54,109.005 2284.24,108.998 2284.94,108.99 2285.64,108.983 2286.34,108.976 2287.04,108.969 2287.74,108.962 2288.44,108.955 2289.14,108.948 2289.85,108.941 2290.55,108.934 2291.25,108.926 2291.95,108.919 2292.65,108.912 "/>
<circle clip-path="url(#clip632)" cx="292.4" cy="1360.75" r="14.4" fill="#3da44d" fill-rule="evenodd" fill-opacity="1" stroke="#000000" stroke-opacity="1" stroke-width="3.2"/>
<circle clip-path="url(#clip632)" cx="325.739" cy="1274.93" r="14.4" fill="#3da44d" fill-rule="evenodd" fill-opacity="1" stroke="#000000" stroke-opacity="1" stroke-width="3.2"/>
<circle clip-path="url(#clip632)" cx="359.078" cy="1144.43" r="14.4" fill="#3da44d" fill-rule="evenodd" fill-opacity="1" stroke="#000000" stroke-opacity="1" stroke-width="3.2"/>
<circle clip-path="url(#clip632)" cx="392.417" cy="1031.74" r="14.4" fill="#3da44d" fill-rule="evenodd" fill-opacity="1" stroke="#000000" stroke-opacity="1" stroke-width="3.2"/>
<circle clip-path="url(#clip632)" cx="425.756" cy="974.617" r="14.4" fill="#3da44d" fill-rule="evenodd" fill-opacity="1" stroke="#000000" stroke-opacity="1" stroke-width="3.2"/>
<circle clip-path="url(#clip632)" cx="459.095" cy="867.136" r="14.4" fill="#3da44d" fill-rule="evenodd" fill-opacity="1" stroke="#000000" stroke-opacity="1" stroke-width="3.2"/>
<circle clip-path="url(#clip632)" cx="492.434" cy="805.717" r="14.4" fill="#3da44d" fill-rule="evenodd" fill-opacity="1" stroke="#000000" stroke-opacity="1" stroke-width="3.2"/>
<circle clip-path="url(#clip632)" cx="525.773" cy="688.436" r="14.4" fill="#3da44d" fill-rule="evenodd" fill-opacity="1" stroke="#000000" stroke-opacity="1" stroke-width="3.2"/>
<circle clip-path="url(#clip632)" cx="559.112" cy="689.497" r="14.4" fill="#3da44d" fill-rule="evenodd" fill-opacity="1" stroke="#000000" stroke-opacity="1" stroke-width="3.2"/>
<circle clip-path="url(#clip632)" cx="592.452" cy="617.413" r="14.4" fill="#3da44d" fill-rule="evenodd" fill-opacity="1" stroke="#000000" stroke-opacity="1" stroke-width="3.2"/>
<circle clip-path="url(#clip632)" cx="625.791" cy="561.095" r="14.4" fill="#3da44d" fill-rule="evenodd" fill-opacity="1" stroke="#000000" stroke-opacity="1" stroke-width="3.2"/>
<circle clip-path="url(#clip632)" cx="659.13" cy="545.694" r="14.4" fill="#3da44d" fill-rule="evenodd" fill-opacity="1" stroke="#000000" stroke-opacity="1" stroke-width="3.2"/>
<circle clip-path="url(#clip632)" cx="692.469" cy="468.672" r="14.4" fill="#3da44d" fill-rule="evenodd" fill-opacity="1" stroke="#000000" stroke-opacity="1" stroke-width="3.2"/>
<circle clip-path="url(#clip632)" cx="725.808" cy="427.862" r="14.4" fill="#3da44d" fill-rule="evenodd" fill-opacity="1" stroke="#000000" stroke-opacity="1" stroke-width="3.2"/>
<circle clip-path="url(#clip632)" cx="759.147" cy="401.267" r="14.4" fill="#3da44d" fill-rule="evenodd" fill-opacity="1" stroke="#000000" stroke-opacity="1" stroke-width="3.2"/>
<circle clip-path="url(#clip632)" cx="792.486" cy="352.79" r="14.4" fill="#3da44d" fill-rule="evenodd" fill-opacity="1" stroke="#000000" stroke-opacity="1" stroke-width="3.2"/>
<circle clip-path="url(#clip632)" cx="825.825" cy="370.056" r="14.4" fill="#3da44d" fill-rule="evenodd" fill-opacity="1" stroke="#000000" stroke-opacity="1" stroke-width="3.2"/>
<circle clip-path="url(#clip632)" cx="859.164" cy="340.856" r="14.4" fill="#3da44d" fill-rule="evenodd" fill-opacity="1" stroke="#000000" stroke-opacity="1" stroke-width="3.2"/>
<circle clip-path="url(#clip632)" cx="892.503" cy="274.625" r="14.4" fill="#3da44d" fill-rule="evenodd" fill-opacity="1" stroke="#000000" stroke-opacity="1" stroke-width="3.2"/>
<circle clip-path="url(#clip632)" cx="925.843" cy="262.108" r="14.4" fill="#3da44d" fill-rule="evenodd" fill-opacity="1" stroke="#000000" stroke-opacity="1" stroke-width="3.2"/>
<circle clip-path="url(#clip632)" cx="959.182" cy="284.569" r="14.4" fill="#3da44d" fill-rule="evenodd" fill-opacity="1" stroke="#000000" stroke-opacity="1" stroke-width="3.2"/>
<circle clip-path="url(#clip632)" cx="992.521" cy="249.708" r="14.4" fill="#3da44d" fill-rule="evenodd" fill-opacity="1" stroke="#000000" stroke-opacity="1" stroke-width="3.2"/>
<circle clip-path="url(#clip632)" cx="1025.86" cy="287.49" r="14.4" fill="#3da44d" fill-rule="evenodd" fill-opacity="1" stroke="#000000" stroke-opacity="1" stroke-width="3.2"/>
<circle clip-path="url(#clip632)" cx="1059.2" cy="182.094" r="14.4" fill="#3da44d" fill-rule="evenodd" fill-opacity="1" stroke="#000000" stroke-opacity="1" stroke-width="3.2"/>
<circle clip-path="url(#clip632)" cx="1092.54" cy="223.783" r="14.4" fill="#3da44d" fill-rule="evenodd" fill-opacity="1" stroke="#000000" stroke-opacity="1" stroke-width="3.2"/>
<circle clip-path="url(#clip632)" cx="1125.88" cy="167.477" r="14.4" fill="#3da44d" fill-rule="evenodd" fill-opacity="1" stroke="#000000" stroke-opacity="1" stroke-width="3.2"/>
<circle clip-path="url(#clip632)" cx="1159.22" cy="177.678" r="14.4" fill="#3da44d" fill-rule="evenodd" fill-opacity="1" stroke="#000000" stroke-opacity="1" stroke-width="3.2"/>
<circle clip-path="url(#clip632)" cx="1192.56" cy="194.401" r="14.4" fill="#3da44d" fill-rule="evenodd" fill-opacity="1" stroke="#000000" stroke-opacity="1" stroke-width="3.2"/>
<circle clip-path="url(#clip632)" cx="1225.89" cy="154.857" r="14.4" fill="#3da44d" fill-rule="evenodd" fill-opacity="1" stroke="#000000" stroke-opacity="1" stroke-width="3.2"/>
<circle clip-path="url(#clip632)" cx="1259.23" cy="190.208" r="14.4" fill="#3da44d" fill-rule="evenodd" fill-opacity="1" stroke="#000000" stroke-opacity="1" stroke-width="3.2"/>
<circle clip-path="url(#clip632)" cx="1292.57" cy="199.553" r="14.4" fill="#3da44d" fill-rule="evenodd" fill-opacity="1" stroke="#000000" stroke-opacity="1" stroke-width="3.2"/>
<circle clip-path="url(#clip632)" cx="1325.91" cy="149.107" r="14.4" fill="#3da44d" fill-rule="evenodd" fill-opacity="1" stroke="#000000" stroke-opacity="1" stroke-width="3.2"/>
<circle clip-path="url(#clip632)" cx="1359.25" cy="184.03" r="14.4" fill="#3da44d" fill-rule="evenodd" fill-opacity="1" stroke="#000000" stroke-opacity="1" stroke-width="3.2"/>
<circle clip-path="url(#clip632)" cx="1392.59" cy="129.055" r="14.4" fill="#3da44d" fill-rule="evenodd" fill-opacity="1" stroke="#000000" stroke-opacity="1" stroke-width="3.2"/>
<circle clip-path="url(#clip632)" cx="1425.93" cy="146.891" r="14.4" fill="#3da44d" fill-rule="evenodd" fill-opacity="1" stroke="#000000" stroke-opacity="1" stroke-width="3.2"/>
<circle clip-path="url(#clip632)" cx="1459.27" cy="137.881" r="14.4" fill="#3da44d" fill-rule="evenodd" fill-opacity="1" stroke="#000000" stroke-opacity="1" stroke-width="3.2"/>
<circle clip-path="url(#clip632)" cx="1492.61" cy="164.86" r="14.4" fill="#3da44d" fill-rule="evenodd" fill-opacity="1" stroke="#000000" stroke-opacity="1" stroke-width="3.2"/>
<circle clip-path="url(#clip632)" cx="1525.95" cy="86.9244" r="14.4" fill="#3da44d" fill-rule="evenodd" fill-opacity="1" stroke="#000000" stroke-opacity="1" stroke-width="3.2"/>
<circle clip-path="url(#clip632)" cx="1559.29" cy="129.864" r="14.4" fill="#3da44d" fill-rule="evenodd" fill-opacity="1" stroke="#000000" stroke-opacity="1" stroke-width="3.2"/>
<circle clip-path="url(#clip632)" cx="1592.62" cy="148.793" r="14.4" fill="#3da44d" fill-rule="evenodd" fill-opacity="1" stroke="#000000" stroke-opacity="1" stroke-width="3.2"/>
<circle clip-path="url(#clip632)" cx="1625.96" cy="165.253" r="14.4" fill="#3da44d" fill-rule="evenodd" fill-opacity="1" stroke="#000000" stroke-opacity="1" stroke-width="3.2"/>
<circle clip-path="url(#clip632)" cx="1659.3" cy="128.607" r="14.4" fill="#3da44d" fill-rule="evenodd" fill-opacity="1" stroke="#000000" stroke-opacity="1" stroke-width="3.2"/>
<circle clip-path="url(#clip632)" cx="1692.64" cy="101.313" r="14.4" fill="#3da44d" fill-rule="evenodd" fill-opacity="1" stroke="#000000" stroke-opacity="1" stroke-width="3.2"/>
<circle clip-path="url(#clip632)" cx="1725.98" cy="137.18" r="14.4" fill="#3da44d" fill-rule="evenodd" fill-opacity="1" stroke="#000000" stroke-opacity="1" stroke-width="3.2"/>
<circle clip-path="url(#clip632)" cx="1759.32" cy="134.614" r="14.4" fill="#3da44d" fill-rule="evenodd" fill-opacity="1" stroke="#000000" stroke-opacity="1" stroke-width="3.2"/>
<circle clip-path="url(#clip632)" cx="1792.66" cy="93.8018" r="14.4" fill="#3da44d" fill-rule="evenodd" fill-opacity="1" stroke="#000000" stroke-opacity="1" stroke-width="3.2"/>
<circle clip-path="url(#clip632)" cx="1826" cy="124.337" r="14.4" fill="#3da44d" fill-rule="evenodd" fill-opacity="1" stroke="#000000" stroke-opacity="1" stroke-width="3.2"/>
<circle clip-path="url(#clip632)" cx="1859.34" cy="107.27" r="14.4" fill="#3da44d" fill-rule="evenodd" fill-opacity="1" stroke="#000000" stroke-opacity="1" stroke-width="3.2"/>
<circle clip-path="url(#clip632)" cx="1892.68" cy="98.6448" r="14.4" fill="#3da44d" fill-rule="evenodd" fill-opacity="1" stroke="#000000" stroke-opacity="1" stroke-width="3.2"/>
<circle clip-path="url(#clip632)" cx="1926.02" cy="86.1857" r="14.4" fill="#3da44d" fill-rule="evenodd" fill-opacity="1" stroke="#000000" stroke-opacity="1" stroke-width="3.2"/>
<circle clip-path="url(#clip632)" cx="1959.35" cy="100.635" r="14.4" fill="#3da44d" fill-rule="evenodd" fill-opacity="1" stroke="#000000" stroke-opacity="1" stroke-width="3.2"/>
<circle clip-path="url(#clip632)" cx="1992.69" cy="119.163" r="14.4" fill="#3da44d" fill-rule="evenodd" fill-opacity="1" stroke="#000000" stroke-opacity="1" stroke-width="3.2"/>
<circle clip-path="url(#clip632)" cx="2026.03" cy="95.2442" r="14.4" fill="#3da44d" fill-rule="evenodd" fill-opacity="1" stroke="#000000" stroke-opacity="1" stroke-width="3.2"/>
<circle clip-path="url(#clip632)" cx="2059.37" cy="118.601" r="14.4" fill="#3da44d" fill-rule="evenodd" fill-opacity="1" stroke="#000000" stroke-opacity="1" stroke-width="3.2"/>
<circle clip-path="url(#clip632)" cx="2092.71" cy="125.197" r="14.4" fill="#3da44d" fill-rule="evenodd" fill-opacity="1" stroke="#000000" stroke-opacity="1" stroke-width="3.2"/>
<circle clip-path="url(#clip632)" cx="2126.05" cy="107.18" r="14.4" fill="#3da44d" fill-rule="evenodd" fill-opacity="1" stroke="#000000" stroke-opacity="1" stroke-width="3.2"/>
<circle clip-path="url(#clip632)" cx="2159.39" cy="117.51" r="14.4" fill="#3da44d" fill-rule="evenodd" fill-opacity="1" stroke="#000000" stroke-opacity="1" stroke-width="3.2"/>
<circle clip-path="url(#clip632)" cx="2192.73" cy="100.013" r="14.4" fill="#3da44d" fill-rule="evenodd" fill-opacity="1" stroke="#000000" stroke-opacity="1" stroke-width="3.2"/>
<circle clip-path="url(#clip632)" cx="2226.07" cy="120.254" r="14.4" fill="#3da44d" fill-rule="evenodd" fill-opacity="1" stroke="#000000" stroke-opacity="1" stroke-width="3.2"/>
<circle clip-path="url(#clip632)" cx="2259.41" cy="128.789" r="14.4" fill="#3da44d" fill-rule="evenodd" fill-opacity="1" stroke="#000000" stroke-opacity="1" stroke-width="3.2"/>
<circle clip-path="url(#clip632)" cx="2292.75" cy="95.6407" r="14.4" fill="#3da44d" fill-rule="evenodd" fill-opacity="1" stroke="#000000" stroke-opacity="1" stroke-width="3.2"/>
<path clip-path="url(#clip630)" d="M303.068 300.469 L993.227 300.469 L993.227 93.1086 L303.068 93.1086  Z" fill="#ffffff" fill-rule="evenodd" fill-opacity="1"/>
<polyline clip-path="url(#clip630)" style="stroke:#000000; stroke-linecap:round; stroke-linejoin:round; stroke-width:4; stroke-opacity:1; fill:none" points="303.068,300.469 993.227,300.469 993.227,93.1086 303.068,93.1086 303.068,300.469 "/>
<polyline clip-path="url(#clip630)" style="stroke:#009af9; stroke-linecap:round; stroke-linejoin:round; stroke-width:4; stroke-opacity:1; fill:none" points="326.628,144.949 467.986,144.949 "/>
<path clip-path="url(#clip630)" d="M496.221 131.511 L496.221 144.497 L502.101 144.497 Q505.365 144.497 507.147 142.807 Q508.929 141.118 508.929 137.993 Q508.929 134.891 507.147 133.201 Q505.365 131.511 502.101 131.511 L496.221 131.511 M491.545 127.669 L502.101 127.669 Q507.911 127.669 510.874 130.307 Q513.86 132.923 513.86 137.993 Q513.86 143.108 510.874 145.724 Q507.911 148.34 502.101 148.34 L496.221 148.34 L496.221 162.229 L491.545 162.229 L491.545 127.669 Z" fill="#000000" fill-rule="nonzero" fill-opacity="1" /><path clip-path="url(#clip630)" d="M521.36 158.293 L528.999 158.293 L528.999 131.928 L520.689 133.595 L520.689 129.335 L528.952 127.669 L533.628 127.669 L533.628 158.293 L541.267 158.293 L541.267 162.229 L521.36 162.229 L521.36 158.293 Z" fill="#000000" fill-rule="nonzero" fill-opacity="1" /><polyline clip-path="url(#clip630)" style="stroke:#e26f46; stroke-linecap:round; stroke-linejoin:round; stroke-width:4; stroke-opacity:1; fill:none" points="326.628,196.789 467.986,196.789 "/>
<path clip-path="url(#clip630)" d="M496.221 183.351 L496.221 196.337 L502.101 196.337 Q505.365 196.337 507.147 194.647 Q508.929 192.958 508.929 189.833 Q508.929 186.731 507.147 185.041 Q505.365 183.351 502.101 183.351 L496.221 183.351 M491.545 179.509 L502.101 179.509 Q507.911 179.509 510.874 182.147 Q513.86 184.763 513.86 189.833 Q513.86 194.948 510.874 197.564 Q507.911 200.18 502.101 200.18 L496.221 200.18 L496.221 214.069 L491.545 214.069 L491.545 179.509 Z" fill="#000000" fill-rule="nonzero" fill-opacity="1" /><path clip-path="url(#clip630)" d="M524.577 210.133 L540.897 210.133 L540.897 214.069 L518.953 214.069 L518.953 210.133 Q521.615 207.379 526.198 202.749 Q530.804 198.096 531.985 196.754 Q534.23 194.231 535.11 192.495 Q536.013 190.735 536.013 189.046 Q536.013 186.291 534.068 184.555 Q532.147 182.819 529.045 182.819 Q526.846 182.819 524.392 183.583 Q521.962 184.347 519.184 185.897 L519.184 181.175 Q522.008 180.041 524.462 179.462 Q526.915 178.884 528.952 178.884 Q534.323 178.884 537.517 181.569 Q540.712 184.254 540.712 188.745 Q540.712 190.874 539.901 192.796 Q539.114 194.694 537.008 197.286 Q536.429 197.958 533.327 201.175 Q530.226 204.37 524.577 210.133 Z" fill="#000000" fill-rule="nonzero" fill-opacity="1" /><circle clip-path="url(#clip630)" cx="397.307" cy="248.629" r="20.48" fill="#3da44d" fill-rule="evenodd" fill-opacity="1" stroke="#000000" stroke-opacity="1" stroke-width="4.55111"/>
<path clip-path="url(#clip630)" d="M491.545 231.349 L497.842 231.349 L513.166 260.261 L513.166 231.349 L517.703 231.349 L517.703 265.909 L511.406 265.909 L496.082 236.997 L496.082 265.909 L491.545 265.909 L491.545 231.349 Z" fill="#000000" fill-rule="nonzero" fill-opacity="1" /><path clip-path="url(#clip630)" d="M536.869 242.969 Q533.443 242.969 531.452 245.654 Q529.462 248.316 529.462 252.969 Q529.462 257.622 531.429 260.307 Q533.42 262.969 536.869 262.969 Q540.272 262.969 542.263 260.284 Q544.253 257.598 544.253 252.969 Q544.253 248.362 542.263 245.677 Q540.272 242.969 536.869 242.969 M536.869 239.358 Q542.425 239.358 545.596 242.969 Q548.767 246.58 548.767 252.969 Q548.767 259.335 545.596 262.969 Q542.425 266.58 536.869 266.58 Q531.29 266.58 528.119 262.969 Q524.971 259.335 524.971 252.969 Q524.971 246.58 528.119 242.969 Q531.29 239.358 536.869 239.358 Z" fill="#000000" fill-rule="nonzero" fill-opacity="1" /><path clip-path="url(#clip630)" d="M555.827 239.983 L560.087 239.983 L560.087 265.909 L555.827 265.909 L555.827 239.983 M555.827 229.89 L560.087 229.89 L560.087 235.284 L555.827 235.284 L555.827 229.89 Z" fill="#000000" fill-rule="nonzero" fill-opacity="1" /><path clip-path="url(#clip630)" d="M585.526 240.747 L585.526 244.774 Q583.721 243.849 581.776 243.386 Q579.832 242.923 577.749 242.923 Q574.577 242.923 572.98 243.895 Q571.406 244.867 571.406 246.811 Q571.406 248.293 572.54 249.149 Q573.674 249.983 577.1 250.747 L578.559 251.071 Q583.096 252.043 584.994 253.825 Q586.915 255.585 586.915 258.756 Q586.915 262.367 584.045 264.473 Q581.198 266.58 576.198 266.58 Q574.114 266.58 571.846 266.163 Q569.6 265.77 567.1 264.96 L567.1 260.561 Q569.462 261.788 571.753 262.413 Q574.045 263.015 576.29 263.015 Q579.299 263.015 580.92 261.997 Q582.54 260.955 582.54 259.08 Q582.54 257.344 581.36 256.418 Q580.202 255.492 576.244 254.636 L574.762 254.288 Q570.804 253.455 569.045 251.742 Q567.286 250.006 567.286 246.997 Q567.286 243.339 569.878 241.349 Q572.471 239.358 577.239 239.358 Q579.6 239.358 581.684 239.705 Q583.767 240.052 585.526 240.747 Z" fill="#000000" fill-rule="nonzero" fill-opacity="1" /><path clip-path="url(#clip630)" d="M604.484 268.316 Q602.679 272.946 600.966 274.358 Q599.253 275.77 596.383 275.77 L592.98 275.77 L592.98 272.205 L595.48 272.205 Q597.239 272.205 598.211 271.372 Q599.184 270.538 600.364 267.436 L601.128 265.492 L590.642 239.983 L595.156 239.983 L603.258 260.261 L611.359 239.983 L615.873 239.983 L604.484 268.316 Z" fill="#000000" fill-rule="nonzero" fill-opacity="1" /><path clip-path="url(#clip630)" d="M646.869 242.969 Q643.443 242.969 641.452 245.654 Q639.461 248.316 639.461 252.969 Q639.461 257.622 641.429 260.307 Q643.419 262.969 646.869 262.969 Q650.271 262.969 652.262 260.284 Q654.253 257.598 654.253 252.969 Q654.253 248.362 652.262 245.677 Q650.271 242.969 646.869 242.969 M646.869 239.358 Q652.424 239.358 655.595 242.969 Q658.767 246.58 658.767 252.969 Q658.767 259.335 655.595 262.969 Q652.424 266.58 646.869 266.58 Q641.29 266.58 638.119 262.969 Q634.97 259.335 634.97 252.969 Q634.97 246.58 638.119 242.969 Q641.29 239.358 646.869 239.358 Z" fill="#000000" fill-rule="nonzero" fill-opacity="1" /><path clip-path="url(#clip630)" d="M684.438 252.969 Q684.438 248.27 682.493 245.608 Q680.572 242.923 677.192 242.923 Q673.813 242.923 671.868 245.608 Q669.947 248.27 669.947 252.969 Q669.947 257.668 671.868 260.353 Q673.813 263.015 677.192 263.015 Q680.572 263.015 682.493 260.353 Q684.438 257.668 684.438 252.969 M669.947 243.918 Q671.29 241.603 673.327 240.492 Q675.387 239.358 678.234 239.358 Q682.956 239.358 685.896 243.108 Q688.859 246.858 688.859 252.969 Q688.859 259.08 685.896 262.83 Q682.956 266.58 678.234 266.58 Q675.387 266.58 673.327 265.469 Q671.29 264.335 669.947 262.02 L669.947 265.909 L665.665 265.909 L665.665 229.89 L669.947 229.89 L669.947 243.918 Z" fill="#000000" fill-rule="nonzero" fill-opacity="1" /><path clip-path="url(#clip630)" d="M712.447 240.747 L712.447 244.774 Q710.641 243.849 708.697 243.386 Q706.752 242.923 704.669 242.923 Q701.498 242.923 699.901 243.895 Q698.327 244.867 698.327 246.811 Q698.327 248.293 699.461 249.149 Q700.595 249.983 704.021 250.747 L705.479 251.071 Q710.016 252.043 711.914 253.825 Q713.836 255.585 713.836 258.756 Q713.836 262.367 710.965 264.473 Q708.118 266.58 703.118 266.58 Q701.035 266.58 698.766 266.163 Q696.521 265.77 694.021 264.96 L694.021 260.561 Q696.382 261.788 698.674 262.413 Q700.965 263.015 703.211 263.015 Q706.22 263.015 707.84 261.997 Q709.461 260.955 709.461 259.08 Q709.461 257.344 708.28 256.418 Q707.123 255.492 703.164 254.636 L701.683 254.288 Q697.725 253.455 695.965 251.742 Q694.206 250.006 694.206 246.997 Q694.206 243.339 696.799 241.349 Q699.391 239.358 704.16 239.358 Q706.521 239.358 708.604 239.705 Q710.688 240.052 712.447 240.747 Z" fill="#000000" fill-rule="nonzero" fill-opacity="1" /><path clip-path="url(#clip630)" d="M742.794 251.881 L742.794 253.964 L723.211 253.964 Q723.488 258.362 725.85 260.677 Q728.234 262.969 732.47 262.969 Q734.924 262.969 737.215 262.367 Q739.53 261.765 741.799 260.561 L741.799 264.589 Q739.507 265.561 737.099 266.071 Q734.692 266.58 732.215 266.58 Q726.012 266.58 722.377 262.969 Q718.766 259.358 718.766 253.2 Q718.766 246.835 722.192 243.108 Q725.641 239.358 731.475 239.358 Q736.706 239.358 739.738 242.737 Q742.794 246.094 742.794 251.881 M738.535 250.631 Q738.488 247.136 736.567 245.052 Q734.669 242.969 731.521 242.969 Q727.956 242.969 725.803 244.983 Q723.674 246.997 723.35 250.654 L738.535 250.631 Z" fill="#000000" fill-rule="nonzero" fill-opacity="1" /><path clip-path="url(#clip630)" d="M764.808 243.964 Q764.09 243.548 763.234 243.362 Q762.4 243.154 761.382 243.154 Q757.771 243.154 755.826 245.515 Q753.905 247.853 753.905 252.251 L753.905 265.909 L749.623 265.909 L749.623 239.983 L753.905 239.983 L753.905 244.011 Q755.248 241.649 757.4 240.515 Q759.553 239.358 762.632 239.358 Q763.072 239.358 763.604 239.427 Q764.136 239.474 764.785 239.589 L764.808 243.964 Z" fill="#000000" fill-rule="nonzero" fill-opacity="1" /><path clip-path="url(#clip630)" d="M766.22 239.983 L770.734 239.983 L778.835 261.742 L786.937 239.983 L791.451 239.983 L781.729 265.909 L775.942 265.909 L766.22 239.983 Z" fill="#000000" fill-rule="nonzero" fill-opacity="1" /><path clip-path="url(#clip630)" d="M819.506 251.881 L819.506 253.964 L799.923 253.964 Q800.201 258.362 802.562 260.677 Q804.946 262.969 809.182 262.969 Q811.636 262.969 813.928 262.367 Q816.243 261.765 818.511 260.561 L818.511 264.589 Q816.219 265.561 813.812 266.071 Q811.405 266.58 808.928 266.58 Q802.724 266.58 799.09 262.969 Q795.479 259.358 795.479 253.2 Q795.479 246.835 798.905 243.108 Q802.354 239.358 808.187 239.358 Q813.419 239.358 816.451 242.737 Q819.506 246.094 819.506 251.881 M815.247 250.631 Q815.201 247.136 813.28 245.052 Q811.382 242.969 808.233 242.969 Q804.669 242.969 802.516 244.983 Q800.386 246.997 800.062 250.654 L815.247 250.631 Z" fill="#000000" fill-rule="nonzero" fill-opacity="1" /><path clip-path="url(#clip630)" d="M843.557 243.918 L843.557 229.89 L847.816 229.89 L847.816 265.909 L843.557 265.909 L843.557 262.02 Q842.215 264.335 840.155 265.469 Q838.117 266.58 835.247 266.58 Q830.548 266.58 827.585 262.83 Q824.645 259.08 824.645 252.969 Q824.645 246.858 827.585 243.108 Q830.548 239.358 835.247 239.358 Q838.117 239.358 840.155 240.492 Q842.215 241.603 843.557 243.918 M829.043 252.969 Q829.043 257.668 830.965 260.353 Q832.909 263.015 836.289 263.015 Q839.668 263.015 841.613 260.353 Q843.557 257.668 843.557 252.969 Q843.557 248.27 841.613 245.608 Q839.668 242.923 836.289 242.923 Q832.909 242.923 830.965 245.608 Q829.043 248.27 829.043 252.969 Z" fill="#000000" fill-rule="nonzero" fill-opacity="1" /><path clip-path="url(#clip630)" d="M888.719 243.918 L888.719 229.89 L892.978 229.89 L892.978 265.909 L888.719 265.909 L888.719 262.02 Q887.376 264.335 885.316 265.469 Q883.279 266.58 880.409 266.58 Q875.71 266.58 872.747 262.83 Q869.807 259.08 869.807 252.969 Q869.807 246.858 872.747 243.108 Q875.71 239.358 880.409 239.358 Q883.279 239.358 885.316 240.492 Q887.376 241.603 888.719 243.918 M874.205 252.969 Q874.205 257.668 876.127 260.353 Q878.071 263.015 881.451 263.015 Q884.83 263.015 886.775 260.353 Q888.719 257.668 888.719 252.969 Q888.719 248.27 886.775 245.608 Q884.83 242.923 881.451 242.923 Q878.071 242.923 876.127 245.608 Q874.205 248.27 874.205 252.969 Z" fill="#000000" fill-rule="nonzero" fill-opacity="1" /><path clip-path="url(#clip630)" d="M913.534 252.876 Q908.372 252.876 906.381 254.057 Q904.39 255.237 904.39 258.085 Q904.39 260.353 905.872 261.696 Q907.376 263.015 909.946 263.015 Q913.487 263.015 915.617 260.515 Q917.77 257.992 917.77 253.825 L917.77 252.876 L913.534 252.876 M922.029 251.117 L922.029 265.909 L917.77 265.909 L917.77 261.973 Q916.312 264.335 914.136 265.469 Q911.96 266.58 908.812 266.58 Q904.83 266.58 902.469 264.358 Q900.131 262.112 900.131 258.362 Q900.131 253.987 903.048 251.765 Q905.987 249.543 911.798 249.543 L917.77 249.543 L917.77 249.126 Q917.77 246.187 915.825 244.589 Q913.904 242.969 910.409 242.969 Q908.187 242.969 906.08 243.501 Q903.974 244.034 902.029 245.099 L902.029 241.163 Q904.367 240.261 906.566 239.821 Q908.765 239.358 910.849 239.358 Q916.474 239.358 919.251 242.274 Q922.029 245.191 922.029 251.117 Z" fill="#000000" fill-rule="nonzero" fill-opacity="1" /><path clip-path="url(#clip630)" d="M935.015 232.622 L935.015 239.983 L943.788 239.983 L943.788 243.293 L935.015 243.293 L935.015 257.367 Q935.015 260.538 935.872 261.441 Q936.751 262.344 939.413 262.344 L943.788 262.344 L943.788 265.909 L939.413 265.909 Q934.483 265.909 932.608 264.08 Q930.733 262.228 930.733 257.367 L930.733 243.293 L927.608 243.293 L927.608 239.983 L930.733 239.983 L930.733 232.622 L935.015 232.622 Z" fill="#000000" fill-rule="nonzero" fill-opacity="1" /><path clip-path="url(#clip630)" d="M961.172 252.876 Q956.01 252.876 954.02 254.057 Q952.029 255.237 952.029 258.085 Q952.029 260.353 953.51 261.696 Q955.015 263.015 957.584 263.015 Q961.126 263.015 963.256 260.515 Q965.408 257.992 965.408 253.825 L965.408 252.876 L961.172 252.876 M969.668 251.117 L969.668 265.909 L965.408 265.909 L965.408 261.973 Q963.95 264.335 961.774 265.469 Q959.598 266.58 956.45 266.58 Q952.469 266.58 950.108 264.358 Q947.77 262.112 947.77 258.362 Q947.77 253.987 950.686 251.765 Q953.626 249.543 959.436 249.543 L965.408 249.543 L965.408 249.126 Q965.408 246.187 963.464 244.589 Q961.543 242.969 958.047 242.969 Q955.825 242.969 953.719 243.501 Q951.612 244.034 949.668 245.099 L949.668 241.163 Q952.006 240.261 954.205 239.821 Q956.404 239.358 958.487 239.358 Q964.112 239.358 966.89 242.274 Q969.668 245.191 969.668 251.117 Z" fill="#000000" fill-rule="nonzero" fill-opacity="1" /></svg>
