<?xml version="1.0" encoding="utf-8"?>
<svg xmlns="http://www.w3.org/2000/svg" xmlns:xlink="http://www.w3.org/1999/xlink" width="640" height="480" viewBox="0 0 2560 1920">
<defs>
  <clipPath id="clip840">
    <rect x="0" y="0" width="2560" height="1920"/>
  </clipPath>
</defs>
<path clip-path="url(#clip840)" d="M0 1920 L2560 1920 L2560 0 L0 0  Z" fill="#ffffff" fill-rule="evenodd" fill-opacity="1"/>
<defs>
  <clipPath id="clip841">
    <rect x="512" y="0" width="1793" height="1793"/>
  </clipPath>
</defs>
<path clip-path="url(#clip840)" d="M259.1 1715.9 L2512.76 1715.9 L2512.76 47.2441 L259.1 47.2441  Z" fill="#ffffff" fill-rule="evenodd" fill-opacity="1"/>
<defs>
  <clipPath id="clip842">
    <rect x="259" y="47" width="2255" height="1670"/>
  </clipPath>
</defs>
<polyline clip-path="url(#clip842)" style="stroke:#000000; stroke-linecap:round; stroke-linejoin:round; stroke-width:2; stroke-opacity:0.1; fill:none" points="1031.58,1715.9 1031.58,47.2441 "/>
<polyline clip-path="url(#clip842)" style="stroke:#000000; stroke-linecap:round; stroke-linejoin:round; stroke-width:2; stroke-opacity:0.1; fill:none" points="2094.62,1715.9 2094.62,47.2441 "/>
<polyline clip-path="url(#clip840)" style="stroke:#000000; stroke-linecap:round; stroke-linejoin:round; stroke-width:4; stroke-opacity:1; fill:none" points="259.1,1715.9 2512.76,1715.9 "/>
<polyline clip-path="url(#clip840)" style="stroke:#000000; stroke-linecap:round; stroke-linejoin:round; stroke-width:4; stroke-opacity:1; fill:none" points="1031.58,1715.9 1031.58,1697 "/>
<polyline clip-path="url(#clip840)" style="stroke:#000000; stroke-linecap:round; stroke-linejoin:round; stroke-width:4; stroke-opacity:1; fill:none" points="2094.62,1715.9 2094.62,1697 "/>
<path clip-path="url(#clip840)" d="M996.563 1791.31 L1004.2 1791.31 L1004.2 1764.94 L995.891 1766.61 L995.891 1762.35 L1004.16 1760.68 L1008.83 1760.68 L1008.83 1791.31 L1016.47 1791.31 L1016.47 1795.24 L996.563 1795.24 L996.563 1791.31 Z" fill="#000000" fill-rule="nonzero" fill-opacity="1" /><path clip-path="url(#clip840)" d="M1035.91 1763.76 Q1032.3 1763.76 1030.47 1767.32 Q1028.67 1770.87 1028.67 1778 Q1028.67 1785.1 1030.47 1788.67 Q1032.3 1792.21 1035.91 1792.21 Q1039.55 1792.21 1041.35 1788.67 Q1043.18 1785.1 1043.18 1778 Q1043.18 1770.87 1041.35 1767.32 Q1039.55 1763.76 1035.91 1763.76 M1035.91 1760.06 Q1041.72 1760.06 1044.78 1764.66 Q1047.86 1769.25 1047.86 1778 Q1047.86 1786.72 1044.78 1791.33 Q1041.72 1795.91 1035.91 1795.91 Q1030.1 1795.91 1027.03 1791.33 Q1023.97 1786.72 1023.97 1778 Q1023.97 1769.25 1027.03 1764.66 Q1030.1 1760.06 1035.91 1760.06 Z" fill="#000000" fill-rule="nonzero" fill-opacity="1" /><path clip-path="url(#clip840)" d="M1057.56 1742.25 Q1054.63 1742.25 1053.14 1745.15 Q1051.68 1748.03 1051.68 1753.82 Q1051.68 1759.59 1053.14 1762.49 Q1054.63 1765.37 1057.56 1765.37 Q1060.52 1765.37 1061.98 1762.49 Q1063.47 1759.59 1063.47 1753.82 Q1063.47 1748.03 1061.98 1745.15 Q1060.52 1742.25 1057.56 1742.25 M1057.56 1739.24 Q1062.28 1739.24 1064.77 1742.99 Q1067.27 1746.71 1067.27 1753.82 Q1067.27 1760.91 1064.77 1764.65 Q1062.28 1768.38 1057.56 1768.38 Q1052.84 1768.38 1050.34 1764.65 Q1047.86 1760.91 1047.86 1753.82 Q1047.86 1746.71 1050.34 1742.99 Q1052.84 1739.24 1057.56 1739.24 Z" fill="#000000" fill-rule="nonzero" fill-opacity="1" /><path clip-path="url(#clip840)" d="M2060.07 1791.31 L2067.71 1791.31 L2067.71 1764.94 L2059.4 1766.61 L2059.4 1762.35 L2067.66 1760.68 L2072.34 1760.68 L2072.34 1791.31 L2079.98 1791.31 L2079.98 1795.24 L2060.07 1795.24 L2060.07 1791.31 Z" fill="#000000" fill-rule="nonzero" fill-opacity="1" /><path clip-path="url(#clip840)" d="M2099.42 1763.76 Q2095.81 1763.76 2093.98 1767.32 Q2092.17 1770.87 2092.17 1778 Q2092.17 1785.1 2093.98 1788.67 Q2095.81 1792.21 2099.42 1792.21 Q2103.05 1792.21 2104.86 1788.67 Q2106.69 1785.1 2106.69 1778 Q2106.69 1770.87 2104.86 1767.32 Q2103.05 1763.76 2099.42 1763.76 M2099.42 1760.06 Q2105.23 1760.06 2108.29 1764.66 Q2111.36 1769.25 2111.36 1778 Q2111.36 1786.72 2108.29 1791.33 Q2105.23 1795.91 2099.42 1795.91 Q2093.61 1795.91 2090.53 1791.33 Q2087.48 1786.72 2087.48 1778 Q2087.48 1769.25 2090.53 1764.66 Q2093.61 1760.06 2099.42 1760.06 Z" fill="#000000" fill-rule="nonzero" fill-opacity="1" /><path clip-path="url(#clip840)" d="M2124.06 1752.69 Q2126.79 1753.27 2128.31 1755.12 Q2129.85 1756.96 2129.85 1759.67 Q2129.85 1763.82 2126.99 1766.1 Q2124.13 1768.38 2118.87 1768.38 Q2117.1 1768.38 2115.22 1768.02 Q2113.36 1767.68 2111.36 1766.98 L2111.36 1763.32 Q2112.94 1764.24 2114.83 1764.71 Q2116.71 1765.18 2118.76 1765.18 Q2122.33 1765.18 2124.19 1763.77 Q2126.07 1762.36 2126.07 1759.67 Q2126.07 1757.19 2124.32 1755.79 Q2122.59 1754.38 2119.49 1754.38 L2116.22 1754.38 L2116.22 1751.26 L2119.64 1751.26 Q2122.44 1751.26 2123.93 1750.15 Q2125.41 1749.02 2125.41 1746.92 Q2125.41 1744.75 2123.87 1743.61 Q2122.35 1742.44 2119.49 1742.44 Q2117.93 1742.44 2116.14 1742.78 Q2114.35 1743.12 2112.21 1743.83 L2112.21 1740.45 Q2114.37 1739.84 2116.25 1739.54 Q2118.15 1739.24 2119.83 1739.24 Q2124.15 1739.24 2126.67 1741.22 Q2129.19 1743.17 2129.19 1746.52 Q2129.19 1748.85 2127.86 1750.47 Q2126.52 1752.07 2124.06 1752.69 Z" fill="#000000" fill-rule="nonzero" fill-opacity="1" /><path clip-path="url(#clip840)" d="M1105.74 1834.07 L1133.05 1834.07 L1133.05 1839.48 L1112.17 1839.48 L1112.17 1853.49 L1131.01 1853.49 L1131.01 1858.9 L1112.17 1858.9 L1112.17 1881.59 L1105.74 1881.59 L1105.74 1834.07 Z" fill="#000000" fill-rule="nonzero" fill-opacity="1" /><path clip-path="url(#clip840)" d="M1158.9 1851.42 Q1157.91 1850.84 1156.73 1850.59 Q1155.58 1850.3 1154.18 1850.3 Q1149.22 1850.3 1146.55 1853.55 Q1143.9 1856.76 1143.9 1862.81 L1143.9 1881.59 L1138.02 1881.59 L1138.02 1845.94 L1143.9 1845.94 L1143.9 1851.48 Q1145.75 1848.23 1148.71 1846.67 Q1151.67 1845.08 1155.9 1845.08 Q1156.51 1845.08 1157.24 1845.18 Q1157.97 1845.24 1158.86 1845.4 L1158.9 1851.42 Z" fill="#000000" fill-rule="nonzero" fill-opacity="1" /><path clip-path="url(#clip840)" d="M1194.1 1862.3 L1194.1 1865.17 L1167.17 1865.17 Q1167.55 1871.21 1170.8 1874.4 Q1174.08 1877.55 1179.9 1877.55 Q1183.28 1877.55 1186.43 1876.72 Q1189.61 1875.89 1192.73 1874.24 L1192.73 1879.78 Q1189.58 1881.11 1186.27 1881.81 Q1182.96 1882.51 1179.55 1882.51 Q1171.02 1882.51 1166.02 1877.55 Q1161.06 1872.58 1161.06 1864.12 Q1161.06 1855.36 1165.77 1850.24 Q1170.51 1845.08 1178.53 1845.08 Q1185.73 1845.08 1189.9 1849.73 Q1194.1 1854.34 1194.1 1862.3 M1188.24 1860.58 Q1188.18 1855.78 1185.54 1852.91 Q1182.93 1850.05 1178.6 1850.05 Q1173.7 1850.05 1170.74 1852.82 Q1167.81 1855.59 1167.36 1860.62 L1188.24 1860.58 Z" fill="#000000" fill-rule="nonzero" fill-opacity="1" /><path clip-path="url(#clip840)" d="M1207.21 1863.8 Q1207.21 1870.26 1209.85 1873.95 Q1212.53 1877.61 1217.17 1877.61 Q1221.82 1877.61 1224.49 1873.95 Q1227.17 1870.26 1227.17 1863.8 Q1227.17 1857.34 1224.49 1853.68 Q1221.82 1849.98 1217.17 1849.98 Q1212.53 1849.98 1209.85 1853.68 Q1207.21 1857.34 1207.21 1863.8 M1227.17 1876.24 Q1225.32 1879.43 1222.49 1880.99 Q1219.69 1882.51 1215.74 1882.51 Q1209.28 1882.51 1205.21 1877.36 Q1201.16 1872.2 1201.16 1863.8 Q1201.16 1855.4 1205.21 1850.24 Q1209.28 1845.08 1215.74 1845.08 Q1219.69 1845.08 1222.49 1846.64 Q1225.32 1848.17 1227.17 1851.35 L1227.17 1845.94 L1233.02 1845.94 L1233.02 1895.15 L1227.17 1895.15 L1227.17 1876.24 Z" fill="#000000" fill-rule="nonzero" fill-opacity="1" /><path clip-path="url(#clip840)" d="M1244.48 1867.52 L1244.48 1845.94 L1250.34 1845.94 L1250.34 1867.3 Q1250.34 1872.36 1252.31 1874.91 Q1254.29 1877.42 1258.23 1877.42 Q1262.97 1877.42 1265.71 1874.4 Q1268.48 1871.37 1268.48 1866.15 L1268.48 1845.94 L1274.34 1845.94 L1274.34 1881.59 L1268.48 1881.59 L1268.48 1876.12 Q1266.35 1879.36 1263.52 1880.95 Q1260.71 1882.51 1256.99 1882.51 Q1250.85 1882.51 1247.66 1878.69 Q1244.48 1874.87 1244.48 1867.52 M1259.22 1845.08 L1259.22 1845.08 Z" fill="#000000" fill-rule="nonzero" fill-opacity="1" /><path clip-path="url(#clip840)" d="M1316.89 1862.3 L1316.89 1865.17 L1289.97 1865.17 Q1290.35 1871.21 1293.59 1874.4 Q1296.87 1877.55 1302.7 1877.55 Q1306.07 1877.55 1309.22 1876.72 Q1312.4 1875.89 1315.52 1874.24 L1315.52 1879.78 Q1312.37 1881.11 1309.06 1881.81 Q1305.75 1882.51 1302.35 1882.51 Q1293.82 1882.51 1288.82 1877.55 Q1283.85 1872.58 1283.85 1864.12 Q1283.85 1855.36 1288.56 1850.24 Q1293.31 1845.08 1301.33 1845.08 Q1308.52 1845.08 1312.69 1849.73 Q1316.89 1854.34 1316.89 1862.3 M1311.04 1860.58 Q1310.97 1855.78 1308.33 1852.91 Q1305.72 1850.05 1301.39 1850.05 Q1296.49 1850.05 1293.53 1852.82 Q1290.6 1855.59 1290.16 1860.62 L1311.04 1860.58 Z" fill="#000000" fill-rule="nonzero" fill-opacity="1" /><path clip-path="url(#clip840)" d="M1356.14 1860.07 L1356.14 1881.59 L1350.28 1881.59 L1350.28 1860.26 Q1350.28 1855.2 1348.31 1852.69 Q1346.33 1850.18 1342.39 1850.18 Q1337.64 1850.18 1334.91 1853.2 Q1332.17 1856.22 1332.17 1861.44 L1332.17 1881.59 L1326.28 1881.59 L1326.28 1845.94 L1332.17 1845.94 L1332.17 1851.48 Q1334.27 1848.27 1337.1 1846.67 Q1339.97 1845.08 1343.69 1845.08 Q1349.83 1845.08 1352.99 1848.9 Q1356.14 1852.69 1356.14 1860.07 Z" fill="#000000" fill-rule="nonzero" fill-opacity="1" /><path clip-path="url(#clip840)" d="M1393.47 1847.31 L1393.47 1852.79 Q1390.99 1851.42 1388.47 1850.75 Q1385.99 1850.05 1383.45 1850.05 Q1377.75 1850.05 1374.6 1853.68 Q1371.45 1857.27 1371.45 1863.8 Q1371.45 1870.32 1374.6 1873.95 Q1377.75 1877.55 1383.45 1877.55 Q1385.99 1877.55 1388.47 1876.88 Q1390.99 1876.18 1393.47 1874.81 L1393.47 1880.22 Q1391.02 1881.37 1388.38 1881.94 Q1385.77 1882.51 1382.81 1882.51 Q1374.76 1882.51 1370.01 1877.45 Q1365.27 1872.39 1365.27 1863.8 Q1365.27 1855.08 1370.05 1850.08 Q1374.85 1845.08 1383.19 1845.08 Q1385.9 1845.08 1388.47 1845.66 Q1391.05 1846.2 1393.47 1847.31 Z" fill="#000000" fill-rule="nonzero" fill-opacity="1" /><path clip-path="url(#clip840)" d="M1418.49 1884.9 Q1416.01 1891.27 1413.65 1893.21 Q1411.3 1895.15 1407.35 1895.15 L1402.67 1895.15 L1402.67 1890.25 L1406.11 1890.25 Q1408.53 1890.25 1409.86 1889.1 Q1411.2 1887.96 1412.82 1883.69 L1413.87 1881.02 L1399.46 1845.94 L1405.66 1845.94 L1416.8 1873.82 L1427.94 1845.94 L1434.15 1845.94 L1418.49 1884.9 Z" fill="#000000" fill-rule="nonzero" fill-opacity="1" /><path clip-path="url(#clip840)" d="M1462.41 1832.06 L1475.91 1832.06 L1475.91 1836.62 L1468.27 1836.62 L1468.27 1885.63 L1475.91 1885.63 L1475.91 1890.18 L1462.41 1890.18 L1462.41 1832.06 Z" fill="#000000" fill-rule="nonzero" fill-opacity="1" /><path clip-path="url(#clip840)" d="M1509.04 1851.42 Q1508.05 1850.84 1506.88 1850.59 Q1505.73 1850.3 1504.33 1850.3 Q1499.36 1850.3 1496.69 1853.55 Q1494.05 1856.76 1494.05 1862.81 L1494.05 1881.59 L1488.16 1881.59 L1488.16 1845.94 L1494.05 1845.94 L1494.05 1851.48 Q1495.9 1848.23 1498.86 1846.67 Q1501.82 1845.08 1506.05 1845.08 Q1506.65 1845.08 1507.39 1845.18 Q1508.12 1845.24 1509.01 1845.4 L1509.04 1851.42 Z" fill="#000000" fill-rule="nonzero" fill-opacity="1" /><path clip-path="url(#clip840)" d="M1531.38 1863.67 Q1524.29 1863.67 1521.55 1865.29 Q1518.81 1866.92 1518.81 1870.83 Q1518.81 1873.95 1520.85 1875.8 Q1522.92 1877.61 1526.45 1877.61 Q1531.32 1877.61 1534.25 1874.17 Q1537.21 1870.7 1537.21 1864.98 L1537.21 1863.67 L1531.38 1863.67 M1543.07 1861.25 L1543.07 1881.59 L1537.21 1881.59 L1537.21 1876.18 Q1535.2 1879.43 1532.21 1880.99 Q1529.22 1882.51 1524.89 1882.51 Q1519.42 1882.51 1516.17 1879.46 Q1512.96 1876.37 1512.96 1871.21 Q1512.96 1865.2 1516.97 1862.14 Q1521.01 1859.09 1529 1859.09 L1537.21 1859.09 L1537.21 1858.51 Q1537.21 1854.47 1534.54 1852.28 Q1531.89 1850.05 1527.09 1850.05 Q1524.03 1850.05 1521.14 1850.78 Q1518.24 1851.51 1515.57 1852.98 L1515.57 1847.57 Q1518.78 1846.32 1521.8 1845.72 Q1524.83 1845.08 1527.69 1845.08 Q1535.43 1845.08 1539.25 1849.09 Q1543.07 1853.1 1543.07 1861.25 Z" fill="#000000" fill-rule="nonzero" fill-opacity="1" /><path clip-path="url(#clip840)" d="M1578.59 1851.35 L1578.59 1832.06 L1584.44 1832.06 L1584.44 1881.59 L1578.59 1881.59 L1578.59 1876.24 Q1576.74 1879.43 1573.91 1880.99 Q1571.11 1882.51 1567.16 1882.51 Q1560.7 1882.51 1556.62 1877.36 Q1552.58 1872.2 1552.58 1863.8 Q1552.58 1855.4 1556.62 1850.24 Q1560.7 1845.08 1567.16 1845.08 Q1571.11 1845.08 1573.91 1846.64 Q1576.74 1848.17 1578.59 1851.35 M1558.63 1863.8 Q1558.63 1870.26 1561.27 1873.95 Q1563.95 1877.61 1568.59 1877.61 Q1573.24 1877.61 1575.91 1873.95 Q1578.59 1870.26 1578.59 1863.8 Q1578.59 1857.34 1575.91 1853.68 Q1573.24 1849.98 1568.59 1849.98 Q1563.95 1849.98 1561.27 1853.68 Q1558.63 1857.34 1558.63 1863.8 Z" fill="#000000" fill-rule="nonzero" fill-opacity="1" /><path clip-path="url(#clip840)" d="M1606.91 1834.07 L1612.32 1834.07 L1595.77 1887.64 L1590.36 1887.64 L1606.91 1834.07 Z" fill="#000000" fill-rule="nonzero" fill-opacity="1" /><path clip-path="url(#clip840)" d="M1641.19 1846.99 L1641.19 1852.53 Q1638.71 1851.26 1636.04 1850.62 Q1633.36 1849.98 1630.5 1849.98 Q1626.14 1849.98 1623.94 1851.32 Q1621.78 1852.66 1621.78 1855.33 Q1621.78 1857.37 1623.34 1858.55 Q1624.9 1859.69 1629.61 1860.74 L1631.61 1861.19 Q1637.85 1862.52 1640.46 1864.98 Q1643.1 1867.39 1643.1 1871.76 Q1643.1 1876.72 1639.16 1879.62 Q1635.24 1882.51 1628.37 1882.51 Q1625.5 1882.51 1622.38 1881.94 Q1619.29 1881.4 1615.86 1880.29 L1615.86 1874.24 Q1619.1 1875.92 1622.25 1876.78 Q1625.41 1877.61 1628.49 1877.61 Q1632.63 1877.61 1634.86 1876.21 Q1637.09 1874.78 1637.09 1872.2 Q1637.09 1869.81 1635.46 1868.54 Q1633.87 1867.27 1628.43 1866.09 L1626.39 1865.61 Q1620.95 1864.47 1618.53 1862.11 Q1616.11 1859.72 1616.11 1855.59 Q1616.11 1850.56 1619.68 1847.82 Q1623.24 1845.08 1629.8 1845.08 Q1633.04 1845.08 1635.91 1845.56 Q1638.77 1846.04 1641.19 1846.99 Z" fill="#000000" fill-rule="nonzero" fill-opacity="1" /><path clip-path="url(#clip840)" d="M1666.11 1832.06 L1666.11 1890.18 L1652.62 1890.18 L1652.62 1885.63 L1660.23 1885.63 L1660.23 1836.62 L1652.62 1836.62 L1652.62 1832.06 L1666.11 1832.06 Z" fill="#000000" fill-rule="nonzero" fill-opacity="1" /><polyline clip-path="url(#clip842)" style="stroke:#000000; stroke-linecap:round; stroke-linejoin:round; stroke-width:2; stroke-opacity:0.1; fill:none" points="259.1,1319.54 2512.76,1319.54 "/>
<polyline clip-path="url(#clip842)" style="stroke:#000000; stroke-linecap:round; stroke-linejoin:round; stroke-width:2; stroke-opacity:0.1; fill:none" points="259.1,298.644 2512.76,298.644 "/>
<polyline clip-path="url(#clip840)" style="stroke:#000000; stroke-linecap:round; stroke-linejoin:round; stroke-width:4; stroke-opacity:1; fill:none" points="259.1,1715.9 259.1,47.2441 "/>
<polyline clip-path="url(#clip840)" style="stroke:#000000; stroke-linecap:round; stroke-linejoin:round; stroke-width:4; stroke-opacity:1; fill:none" points="259.1,1319.54 277.998,1319.54 "/>
<polyline clip-path="url(#clip840)" style="stroke:#000000; stroke-linecap:round; stroke-linejoin:round; stroke-width:4; stroke-opacity:1; fill:none" points="259.1,298.644 277.998,298.644 "/>
<path clip-path="url(#clip840)" d="M120.071 1339.33 L127.71 1339.33 L127.71 1312.96 L119.4 1314.63 L119.4 1310.37 L127.664 1308.7 L132.34 1308.7 L132.34 1339.33 L139.979 1339.33 L139.979 1343.26 L120.071 1343.26 L120.071 1339.33 Z" fill="#000000" fill-rule="nonzero" fill-opacity="1" /><path clip-path="url(#clip840)" d="M159.423 1311.78 Q155.812 1311.78 153.983 1315.35 Q152.178 1318.89 152.178 1326.02 Q152.178 1333.13 153.983 1336.69 Q155.812 1340.23 159.423 1340.23 Q163.057 1340.23 164.863 1336.69 Q166.692 1333.13 166.692 1326.02 Q166.692 1318.89 164.863 1315.35 Q163.057 1311.78 159.423 1311.78 M159.423 1308.08 Q165.233 1308.08 168.289 1312.69 Q171.367 1317.27 171.367 1326.02 Q171.367 1334.75 168.289 1339.35 Q165.233 1343.94 159.423 1343.94 Q153.613 1343.94 150.534 1339.35 Q147.479 1334.75 147.479 1326.02 Q147.479 1317.27 150.534 1312.69 Q153.613 1308.08 159.423 1308.08 Z" fill="#000000" fill-rule="nonzero" fill-opacity="1" /><path clip-path="url(#clip840)" d="M171.367 1302.18 L195.479 1302.18 L195.479 1305.38 L171.367 1305.38 L171.367 1302.18 Z" fill="#000000" fill-rule="nonzero" fill-opacity="1" /><path clip-path="url(#clip840)" d="M203.717 1287.77 L218.631 1287.77 L218.631 1290.97 L207.196 1290.97 L207.196 1297.86 Q208.024 1297.57 208.851 1297.44 Q209.679 1297.29 210.506 1297.29 Q215.208 1297.29 217.954 1299.87 Q220.7 1302.44 220.7 1306.85 Q220.7 1311.38 217.879 1313.9 Q215.058 1316.4 209.923 1316.4 Q208.155 1316.4 206.312 1316.1 Q204.488 1315.8 202.532 1315.2 L202.532 1311.38 Q204.225 1312.3 206.03 1312.75 Q207.836 1313.2 209.848 1313.2 Q213.102 1313.2 215.001 1311.49 Q216.901 1309.78 216.901 1306.85 Q216.901 1303.91 215.001 1302.2 Q213.102 1300.49 209.848 1300.49 Q208.325 1300.49 206.801 1300.83 Q205.297 1301.17 203.717 1301.88 L203.717 1287.77 Z" fill="#000000" fill-rule="nonzero" fill-opacity="1" /><path clip-path="url(#clip840)" d="M149.995 318.437 L157.633 318.437 L157.633 292.071 L149.323 293.738 L149.323 289.479 L157.587 287.812 L162.263 287.812 L162.263 318.437 L169.902 318.437 L169.902 322.372 L149.995 322.372 L149.995 318.437 Z" fill="#000000" fill-rule="nonzero" fill-opacity="1" /><path clip-path="url(#clip840)" d="M189.346 290.891 Q185.735 290.891 183.906 294.455 Q182.101 297.997 182.101 305.127 Q182.101 312.233 183.906 315.798 Q185.735 319.34 189.346 319.34 Q192.98 319.34 194.786 315.798 Q196.615 312.233 196.615 305.127 Q196.615 297.997 194.786 294.455 Q192.98 290.891 189.346 290.891 M189.346 287.187 Q195.156 287.187 198.212 291.793 Q201.291 296.377 201.291 305.127 Q201.291 313.853 198.212 318.46 Q195.156 323.043 189.346 323.043 Q183.536 323.043 180.457 318.46 Q177.402 313.853 177.402 305.127 Q177.402 296.377 180.457 291.793 Q183.536 287.187 189.346 287.187 Z" fill="#000000" fill-rule="nonzero" fill-opacity="1" /><path clip-path="url(#clip840)" d="M210.995 269.383 Q208.061 269.383 206.576 272.279 Q205.109 275.157 205.109 280.95 Q205.109 286.724 206.576 289.62 Q208.061 292.498 210.995 292.498 Q213.948 292.498 215.415 289.62 Q216.901 286.724 216.901 280.95 Q216.901 275.157 215.415 272.279 Q213.948 269.383 210.995 269.383 M210.995 266.374 Q215.716 266.374 218.199 270.116 Q220.7 273.84 220.7 280.95 Q220.7 288.04 218.199 291.783 Q215.716 295.507 210.995 295.507 Q206.275 295.507 203.773 291.783 Q201.291 288.04 201.291 280.95 Q201.291 273.84 203.773 270.116 Q206.275 266.374 210.995 266.374 Z" fill="#000000" fill-rule="nonzero" fill-opacity="1" /><path clip-path="url(#clip840)" d="M19.2242 1061.4 L19.2242 1051.82 L51.5619 1039.7 L19.2242 1027.51 L19.2242 1017.93 L66.7442 1017.93 L66.7442 1024.2 L25.017 1024.2 L57.6094 1036.45 L57.6094 1042.91 L25.017 1055.17 L66.7442 1055.17 L66.7442 1061.4 L19.2242 1061.4 Z" fill="#000000" fill-rule="nonzero" fill-opacity="1" /><path clip-path="url(#clip840)" d="M48.8247 989.217 Q48.8247 996.315 50.4479 999.052 Q52.0712 1001.79 55.9861 1001.79 Q59.1053 1001.79 60.9514 999.752 Q62.7656 997.683 62.7656 994.15 Q62.7656 989.28 59.3281 986.352 Q55.8588 983.392 50.1297 983.392 L48.8247 983.392 L48.8247 989.217 M46.4057 977.536 L66.7442 977.536 L66.7442 983.392 L61.3333 983.392 Q64.5798 985.397 66.1394 988.389 Q67.6672 991.381 67.6672 995.71 Q67.6672 1001.18 64.6116 1004.43 Q61.5243 1007.65 56.3681 1007.65 Q50.3525 1007.65 47.2969 1003.64 Q44.2414 999.593 44.2414 991.604 L44.2414 983.392 L43.6685 983.392 Q39.6262 983.392 37.4301 986.066 Q35.2021 988.708 35.2021 993.514 Q35.2021 996.569 35.9341 999.466 Q36.6662 1002.36 38.1303 1005.04 L32.7195 1005.04 Q31.4781 1001.82 30.8734 998.797 Q30.2368 995.773 30.2368 992.909 Q30.2368 985.175 34.2472 981.355 Q38.2576 977.536 46.4057 977.536 Z" fill="#000000" fill-rule="nonzero" fill-opacity="1" /><path clip-path="url(#clip840)" d="M48.5064 942.015 Q42.1407 942.015 38.6396 944.657 Q35.1384 947.267 35.1384 952.009 Q35.1384 956.72 38.6396 959.362 Q42.1407 961.972 48.5064 961.972 Q54.8403 961.972 58.3414 959.362 Q61.8426 956.72 61.8426 952.009 Q61.8426 947.267 58.3414 944.657 Q54.8403 942.015 48.5064 942.015 M62.32 936.159 Q71.423 936.159 75.8471 940.201 Q80.3031 944.243 80.3031 952.582 Q80.3031 955.669 79.8257 958.407 Q79.3801 961.144 78.4252 963.722 L72.7279 963.722 Q74.1284 961.144 74.7968 958.63 Q75.4652 956.115 75.4652 953.505 Q75.4652 947.744 72.4415 944.88 Q69.4496 942.015 63.3703 942.015 L60.4739 942.015 Q63.625 943.829 65.1846 946.662 Q66.7442 949.495 66.7442 953.441 Q66.7442 959.998 61.7471 964.009 Q56.75 968.019 48.5064 968.019 Q40.231 968.019 35.2339 964.009 Q30.2368 959.998 30.2368 953.441 Q30.2368 949.495 31.7964 946.662 Q33.356 943.829 36.5071 942.015 L31.0962 942.015 L31.0962 936.159 L62.32 936.159 Z" fill="#000000" fill-rule="nonzero" fill-opacity="1" /><path clip-path="url(#clip840)" d="M45.2281 894.463 L66.7442 894.463 L66.7442 900.32 L45.419 900.32 Q40.3583 900.32 37.8438 902.293 Q35.3294 904.266 35.3294 908.213 Q35.3294 912.956 38.3531 915.693 Q41.3768 918.43 46.5967 918.43 L66.7442 918.43 L66.7442 924.318 L31.0962 924.318 L31.0962 918.43 L36.6344 918.43 Q33.4197 916.329 31.8283 913.497 Q30.2368 910.632 30.2368 906.908 Q30.2368 900.765 34.0563 897.614 Q37.8438 894.463 45.2281 894.463 Z" fill="#000000" fill-rule="nonzero" fill-opacity="1" /><path clip-path="url(#clip840)" d="M31.0962 882.782 L31.0962 876.926 L66.7442 876.926 L66.7442 882.782 L31.0962 882.782 M17.219 882.782 L17.219 876.926 L24.635 876.926 L24.635 882.782 L17.219 882.782 Z" fill="#000000" fill-rule="nonzero" fill-opacity="1" /><path clip-path="url(#clip840)" d="M20.9747 858.879 L31.0962 858.879 L31.0962 846.816 L35.6477 846.816 L35.6477 858.879 L54.9994 858.879 Q59.3599 858.879 60.6013 857.701 Q61.8426 856.492 61.8426 852.832 L61.8426 846.816 L66.7442 846.816 L66.7442 852.832 Q66.7442 859.611 64.2297 862.189 Q61.6834 864.767 54.9994 864.767 L35.6477 864.767 L35.6477 869.064 L31.0962 869.064 L31.0962 864.767 L20.9747 864.767 L20.9747 858.879 Z" fill="#000000" fill-rule="nonzero" fill-opacity="1" /><path clip-path="url(#clip840)" d="M52.6759 839.718 L31.0962 839.718 L31.0962 833.862 L52.4531 833.862 Q57.5139 833.862 60.0602 831.888 Q62.5746 829.915 62.5746 825.968 Q62.5746 821.226 59.5509 818.489 Q56.5272 815.719 51.3073 815.719 L31.0962 815.719 L31.0962 809.863 L66.7442 809.863 L66.7442 815.719 L61.2696 815.719 Q64.5162 817.852 66.1076 820.685 Q67.6672 823.486 67.6672 827.21 Q67.6672 833.352 63.8478 836.535 Q60.0283 839.718 52.6759 839.718 M30.2368 824.982 L30.2368 824.982 Z" fill="#000000" fill-rule="nonzero" fill-opacity="1" /><path clip-path="url(#clip840)" d="M36.5071 774.342 L17.219 774.342 L17.219 768.486 L66.7442 768.486 L66.7442 774.342 L61.397 774.342 Q64.5798 776.188 66.1394 779.021 Q67.6672 781.822 67.6672 785.769 Q67.6672 792.23 62.511 796.304 Q57.3547 800.346 48.952 800.346 Q40.5493 800.346 35.3931 796.304 Q30.2368 792.23 30.2368 785.769 Q30.2368 781.822 31.7964 779.021 Q33.3242 776.188 36.5071 774.342 M48.952 794.299 Q55.4132 794.299 59.1053 791.657 Q62.7656 788.983 62.7656 784.336 Q62.7656 779.69 59.1053 777.016 Q55.4132 774.342 48.952 774.342 Q42.4908 774.342 38.8305 777.016 Q35.1384 779.69 35.1384 784.336 Q35.1384 788.983 38.8305 791.657 Q42.4908 794.299 48.952 794.299 Z" fill="#000000" fill-rule="nonzero" fill-opacity="1" /><path clip-path="url(#clip840)" d="M47.4561 725.931 L50.3206 725.931 L50.3206 752.858 Q56.3681 752.476 59.5509 749.23 Q62.7019 745.951 62.7019 740.127 Q62.7019 736.753 61.8744 733.602 Q61.0469 730.419 59.3918 727.3 L64.9299 727.3 Q66.2667 730.451 66.967 733.761 Q67.6672 737.071 67.6672 740.477 Q67.6672 749.007 62.7019 754.004 Q57.7367 758.969 49.2703 758.969 Q40.5174 758.969 35.3931 754.259 Q30.2368 749.516 30.2368 741.495 Q30.2368 734.302 34.8838 730.133 Q39.4989 725.931 47.4561 725.931 M45.7373 731.788 Q40.9312 731.851 38.0666 734.493 Q35.2021 737.103 35.2021 741.432 Q35.2021 746.333 37.9712 749.293 Q40.7402 752.222 45.7692 752.667 L45.7373 731.788 Z" fill="#000000" fill-rule="nonzero" fill-opacity="1" /><polyline clip-path="url(#clip842)" style="stroke:#009af9; stroke-linecap:round; stroke-linejoin:round; stroke-width:4; stroke-opacity:1; fill:none" points="322.883,303.079 328.805,303.079 334.727,303.078 340.65,303.078 346.572,303.078 352.494,303.078 358.417,303.078 364.339,303.078 370.261,303.078 376.183,303.078 382.106,303.078 388.028,303.078 393.95,303.078 399.872,303.078 405.795,303.078 411.717,303.078 417.639,303.078 423.561,303.077 429.484,303.077 435.406,303.077 441.328,303.077 447.25,303.077 453.173,303.077 459.095,303.077 465.017,303.076 470.939,303.076 476.862,303.076 482.784,303.076 488.706,303.076 494.628,303.075 500.551,303.075 506.473,303.075 512.395,303.074 518.317,303.074 524.24,303.074 530.162,303.073 536.084,303.073 542.006,303.072 547.929,303.072 553.851,303.071 559.773,303.07 565.695,303.07 571.618,303.069 577.54,303.068 583.462,303.067 589.385,303.066 595.307,303.065 601.229,303.064 607.151,303.063 613.074,303.062 618.996,303.061 624.918,303.059 630.84,303.058 636.763,303.056 642.685,303.054 648.607,303.052 654.529,303.05 660.452,303.048 666.374,303.045 672.296,303.042 678.218,303.039 684.141,303.036 690.063,303.033 695.985,303.029 701.907,303.025 707.83,303.021 713.752,303.016 719.674,303.011 725.596,303.006 731.519,303 737.441,302.994 743.363,302.987 749.285,302.979 755.208,302.971 761.13,302.963 767.052,302.953 772.974,302.943 778.897,302.933 784.819,302.921 790.741,302.908 796.664,302.894 802.586,302.88 808.508,302.864 814.43,302.847 820.353,302.828 826.275,302.808 832.197,302.786 838.119,302.763 844.042,302.737 849.964,302.71 855.886,302.68 861.808,302.648 867.731,302.614 873.653,302.577 879.575,302.536 885.497,302.493 891.42,302.446 897.342,302.395 903.264,302.34 909.186,302.281 915.109,302.217 921.031,302.147 926.953,302.072 932.875,301.991 938.798,301.904 944.72,301.81 950.642,301.707 956.564,301.597 962.487,301.478 968.409,301.348 974.331,301.209 980.253,301.058 986.176,300.895 992.098,300.718 998.02,300.527 1003.94,300.321 1009.86,300.097 1015.79,299.855 1021.71,299.593 1027.63,299.31 1033.55,299.003 1039.48,298.671 1045.4,298.311 1051.32,297.921 1057.24,297.499 1063.17,297.041 1069.09,296.544 1075.01,296.006 1080.93,295.421 1086.85,294.787 1092.78,294.099 1098.7,293.351 1104.62,292.538 1110.54,291.654 1116.47,290.693 1122.39,289.647 1128.31,288.508 1134.23,287.268 1140.15,285.915 1146.08,284.439 1152,282.829 1157.92,281.07 1163.84,279.149 1169.77,277.048 1175.69,274.752 1181.61,272.24 1187.53,269.495 1193.45,266.498 1199.38,263.23 1205.3,259.68 1211.22,255.843 1217.14,251.732 1223.07,247.389 1228.99,242.905 1234.91,238.446 1240.83,234.295 1246.76,230.879 1252.68,228.774 1258.6,228.623 1264.52,230.945 1270.44,235.919 1276.37,243.292 1282.29,252.504 1288.21,262.916 1294.13,273.975 1300.06,285.28 1305.98,296.574 1311.9,307.705 1317.82,318.594 1323.74,329.204 1329.67,339.528 1335.59,349.57 1341.51,359.346 1347.43,368.872 1353.36,378.169 1359.28,387.253 1365.2,396.145 1371.12,404.861 1377.04,413.417 1382.97,421.827 1388.89,430.105 1394.81,438.261 1400.73,446.308 1406.66,454.255 1412.58,462.11 1418.5,469.881 1424.42,477.576 1430.35,485.202 1436.27,492.764 1442.19,500.267 1448.11,507.717 1454.03,515.117 1459.96,522.473 1465.88,529.787 1471.8,537.064 1477.72,544.305 1483.65,551.514 1489.57,558.694 1495.49,565.846 1501.41,572.974 1507.33,580.078 1513.26,587.161 1519.18,594.224 1525.1,601.27 1531.02,608.298 1536.95,615.311 1542.87,622.31 1548.79,629.296 1554.71,636.27 1560.63,643.232 1566.56,650.185 1572.48,657.127 1578.4,664.061 1584.32,670.987 1590.25,677.905 1596.17,684.816 1602.09,691.721 1608.01,698.619 1613.93,705.513 1619.86,712.401 1625.78,719.284 1631.7,726.163 1637.62,733.038 1643.55,739.909 1649.47,746.777 1655.39,753.642 1661.31,760.504 1667.24,767.363 1673.16,774.219 1679.08,781.073 1685,787.925 1690.92,794.775 1696.85,801.623 1702.77,808.469 1708.69,815.314 1714.61,822.157 1720.54,828.999 1726.46,835.84 1732.38,842.679 1738.3,849.518 1744.22,856.355 1750.15,863.192 1756.07,870.027 1761.99,876.862 1767.91,883.696 1773.84,890.529 1779.76,897.362 1785.68,904.194 1791.6,911.026 1797.52,917.857 1803.45,924.688 1809.37,931.518 1815.29,938.348 1821.21,945.177 1827.14,952.007 1833.06,958.835 1838.98,965.664 1844.9,972.492 1850.83,979.32 1856.75,986.148 1862.67,992.976 1868.59,999.803 1874.51,1006.63 1880.44,1013.46 1886.36,1020.28 1892.28,1027.11 1898.2,1033.94 1904.13,1040.76 1910.05,1047.59 1915.97,1054.42 1921.89,1061.24 1927.81,1068.07 1933.74,1074.89 1939.66,1081.72 1945.58,1088.55 1951.5,1095.37 1957.43,1102.2 1963.35,1109.02 1969.27,1115.85 1975.19,1122.67 1981.11,1129.5 1987.04,1136.33 1992.96,1143.15 1998.88,1149.98 2004.8,1156.8 2010.73,1163.63 2016.65,1170.45 2022.57,1177.28 2028.49,1184.1 2034.42,1190.93 2040.34,1197.75 2046.26,1204.58 2052.18,1211.4 2058.1,1218.23 2064.03,1225.05 2069.95,1231.88 2075.87,1238.7 2081.79,1245.53 2087.72,1252.35 2093.64,1259.18 2099.56,1266 2105.48,1272.83 2111.4,1279.65 2117.33,1286.48 2123.25,1293.3 2129.17,1300.13 2135.09,1306.95 2141.02,1313.78 2146.94,1320.6 2152.86,1327.43 2158.78,1334.25 2164.7,1341.08 2170.63,1347.9 2176.55,1354.73 2182.47,1361.55 2188.39,1368.38 2194.32,1375.2 2200.24,1382.03 2206.16,1388.85 2212.08,1395.68 2218.01,1402.5 2223.93,1409.33 2229.85,1416.15 2235.77,1422.98 2241.69,1429.8 2247.62,1436.63 2253.54,1443.45 2259.46,1450.28 2265.38,1457.1 2271.31,1463.93 2277.23,1470.75 2283.15,1477.58 2289.07,1484.4 2294.99,1491.23 2300.92,1498.05 2306.84,1504.88 2312.76,1511.7 2318.68,1518.53 2324.61,1525.35 2330.53,1532.18 2336.45,1539 2342.37,1545.83 2348.29,1552.65 2354.22,1559.48 2360.14,1566.3 2366.06,1573.13 2371.98,1579.95 2377.91,1586.78 2383.83,1593.6 2389.75,1600.43 2395.67,1607.25 2401.6,1614.08 2407.52,1620.9 2413.44,1627.73 2419.36,1634.55 2425.28,1641.38 2431.21,1648.2 2437.13,1655.03 2443.05,1661.85 2448.97,1668.68 "/>
<polyline clip-path="url(#clip842)" style="stroke:#e26f46; stroke-linecap:round; stroke-linejoin:round; stroke-width:4; stroke-opacity:1; fill:none" stroke-dasharray="16, 10" points="322.883,94.4702 328.805,94.4706 334.727,94.471 340.65,94.4714 346.572,94.4718 352.494,94.4723 358.417,94.4728 364.339,94.4734 370.261,94.474 376.183,94.4747 382.106,94.4754 388.028,94.4761 393.95,94.477 399.872,94.4779 405.795,94.4788 411.717,94.4799 417.639,94.481 423.561,94.4822 429.484,94.4835 435.406,94.4849 441.328,94.4865 447.25,94.4881 453.173,94.4899 459.095,94.4918 465.017,94.4939 470.939,94.4962 476.862,94.4986 482.784,94.5012 488.706,94.504 494.628,94.5071 500.551,94.5104 506.473,94.514 512.395,94.5178 518.317,94.522 524.24,94.5265 530.162,94.5313 536.084,94.5366 542.006,94.5422 547.929,94.5483 553.851,94.5549 559.773,94.562 565.695,94.5697 571.618,94.578 577.54,94.587 583.462,94.5967 589.385,94.6071 595.307,94.6184 601.229,94.6306 607.151,94.6438 613.074,94.658 618.996,94.6733 624.918,94.6899 630.84,94.7077 636.763,94.727 642.685,94.7479 648.607,94.7704 654.529,94.7946 660.452,94.8208 666.374,94.8491 672.296,94.8797 678.218,94.9126 684.141,94.9481 690.063,94.9865 695.985,95.0279 701.907,95.0726 707.83,95.1208 713.752,95.1727 719.674,95.2288 725.596,95.2893 731.519,95.3545 737.441,95.4249 743.363,95.5007 749.285,95.5825 755.208,95.6706 761.13,95.7656 767.052,95.868 772.974,95.9783 778.897,96.0971 784.819,96.225 790.741,96.3628 796.664,96.5111 802.586,96.6707 808.508,96.8425 814.43,97.0273 820.353,97.2259 826.275,97.4395 832.197,97.669 838.119,97.9156 844.042,98.1803 849.964,98.4645 855.886,98.7693 861.808,99.0963 867.731,99.4466 873.653,99.822 879.575,100.224 885.497,100.654 891.42,101.113 897.342,101.605 903.264,102.129 909.186,102.688 915.109,103.285 921.031,103.92 926.953,104.596 932.875,105.315 938.798,106.078 944.72,106.888 950.642,107.746 956.564,108.655 962.487,109.616 968.409,110.631 974.331,111.702 980.253,112.83 986.176,114.017 992.098,115.264 998.02,116.572 1003.94,117.943 1009.86,119.378 1015.79,120.877 1021.71,122.441 1027.63,124.071 1033.55,125.766 1039.48,127.526 1045.4,129.352 1051.32,131.243 1057.24,133.199 1063.17,135.218 1069.09,137.301 1075.01,139.445 1080.93,141.65 1086.85,143.914 1092.78,146.236 1098.7,148.614 1104.62,151.047 1110.54,153.532 1116.47,156.069 1122.39,158.654 1128.31,161.287 1134.23,163.964 1140.15,166.685 1146.08,169.448 1152,172.249 1157.92,175.088 1163.84,177.963 1169.77,180.871 1175.69,183.812 1181.61,186.782 1187.53,189.781 1193.45,192.807 1199.38,195.858 1205.3,198.933 1211.22,202.03 1217.14,205.147 1223.07,208.285 1228.99,211.44 1234.91,214.613 1240.83,217.802 1246.76,221.005 1252.68,224.223 1258.6,227.453 1264.52,230.695 1270.44,233.948 1276.37,237.211 1282.29,240.484 1288.21,243.766 1294.13,247.055 1300.06,250.352 1305.98,253.655 1311.9,256.965 1317.82,260.28 1323.74,263.6 1329.67,266.925 1335.59,270.253 1341.51,273.585 1347.43,276.921 1353.36,280.258 1359.28,283.598 1365.2,286.94 1371.12,290.283 1377.04,293.627 1382.97,296.972 1388.89,300.317 1394.81,303.661 1400.73,307.006 1406.66,310.349 1412.58,313.69 1418.5,317.03 1424.42,320.368 1430.35,323.703 1436.27,327.035 1442.19,330.364 1448.11,333.688 1454.03,337.009 1459.96,340.324 1465.88,343.633 1471.8,346.937 1477.72,350.233 1483.65,353.523 1489.57,356.804 1495.49,360.077 1501.41,363.341 1507.33,366.594 1513.26,369.836 1519.18,373.066 1525.1,376.283 1531.02,379.487 1536.95,382.675 1542.87,385.848 1548.79,389.004 1554.71,392.141 1560.63,395.259 1566.56,398.356 1572.48,401.431 1578.4,404.482 1584.32,407.508 1590.25,410.506 1596.17,413.477 1602.09,416.417 1608.01,419.326 1613.93,422.2 1619.86,425.039 1625.78,427.841 1631.7,430.603 1637.62,433.324 1643.55,436.002 1649.47,438.635 1655.39,441.22 1661.31,443.756 1667.24,446.242 1673.16,448.675 1679.08,451.053 1685,453.375 1690.92,455.639 1696.85,457.844 1702.77,459.988 1708.69,462.07 1714.61,464.09 1720.54,466.045 1726.46,467.937 1732.38,469.763 1738.3,471.523 1744.22,473.218 1750.15,474.847 1756.07,476.411 1761.99,477.91 1767.91,479.345 1773.84,480.716 1779.76,482.025 1785.68,483.272 1791.6,484.459 1797.52,485.587 1803.45,486.658 1809.37,487.673 1815.29,488.634 1821.21,489.542 1827.14,490.401 1833.06,491.211 1838.98,491.974 1844.9,492.693 1850.83,493.369 1856.75,494.004 1862.67,494.6 1868.59,495.16 1874.51,495.684 1880.44,496.175 1886.36,496.635 1892.28,497.065 1898.2,497.467 1904.13,497.842 1910.05,498.192 1915.97,498.519 1921.89,498.824 1927.81,499.108 1933.74,499.373 1939.66,499.62 1945.58,499.849 1951.5,500.063 1957.43,500.261 1963.35,500.446 1969.27,500.618 1975.19,500.778 1981.11,500.926 1987.04,501.064 1992.96,501.192 1998.88,501.31 2004.8,501.421 2010.73,501.523 2016.65,501.618 2022.57,501.706 2028.49,501.788 2034.42,501.864 2040.34,501.934 2046.26,501.999 2052.18,502.06 2058.1,502.116 2064.03,502.168 2069.95,502.216 2075.87,502.261 2081.79,502.302 2087.72,502.341 2093.64,502.376 2099.56,502.409 2105.48,502.44 2111.4,502.468 2117.33,502.494 2123.25,502.518 2129.17,502.541 2135.09,502.562 2141.02,502.581 2146.94,502.599 2152.86,502.615 2158.78,502.631 2164.7,502.645 2170.63,502.658 2176.55,502.67 2182.47,502.682 2188.39,502.692 2194.32,502.702 2200.24,502.711 2206.16,502.719 2212.08,502.727 2218.01,502.734 2223.93,502.74 2229.85,502.746 2235.77,502.752 2241.69,502.757 2247.62,502.762 2253.54,502.767 2259.46,502.771 2265.38,502.775 2271.31,502.778 2277.23,502.782 2283.15,502.785 2289.07,502.787 2294.99,502.79 2300.92,502.792 2306.84,502.795 2312.76,502.797 2318.68,502.799 2324.61,502.801 2330.53,502.802 2336.45,502.804 2342.37,502.805 2348.29,502.806 2354.22,502.808 2360.14,502.809 2366.06,502.81 2371.98,502.811 2377.91,502.812 2383.83,502.813 2389.75,502.813 2395.67,502.814 2401.6,502.815 2407.52,502.815 2413.44,502.816 2419.36,502.816 2425.28,502.817 2431.21,502.817 2437.13,502.818 2443.05,502.818 2448.97,502.818 "/>
<path clip-path="url(#clip840)" d="M2112.39 258.386 L2437.63 258.386 L2437.63 102.866 L2112.39 102.866  Z" fill="#ffffff" fill-rule="evenodd" fill-opacity="1"/>
<polyline clip-path="url(#clip840)" style="stroke:#000000; stroke-linecap:round; stroke-linejoin:round; stroke-width:4; stroke-opacity:1; fill:none" points="2112.39,258.386 2437.63,258.386 2437.63,102.866 2112.39,102.866 2112.39,258.386 "/>
<polyline clip-path="url(#clip840)" style="stroke:#009af9; stroke-linecap:round; stroke-linejoin:round; stroke-width:4; stroke-opacity:1; fill:none" points="2137.43,154.706 2287.67,154.706 "/>
<path clip-path="url(#clip840)" d="M2341.17 137.593 L2338.57 148.086 Q2338.43 148.718 2338.32 148.882 Q2338.2 149.046 2337.87 149.046 Q2337.61 149.046 2337.45 148.929 Q2337.31 148.812 2337.31 148.695 L2337.29 148.578 Q2337.29 148.507 2337.33 148.156 Q2337.38 147.781 2337.43 147.172 Q2337.47 146.563 2337.47 145.884 Q2337.47 142.043 2335.6 140.263 Q2333.75 138.459 2330.56 138.459 Q2328.36 138.459 2326.39 139.63 Q2324.43 140.801 2323.3 142.652 Q2322.18 144.479 2322.18 146.399 Q2322.18 148.156 2323.07 149.28 Q2323.96 150.405 2325.11 150.779 L2328.31 151.646 Q2331.69 152.513 2332.65 152.887 Q2333.61 153.239 2334.4 154.035 Q2336.77 156.237 2336.77 159.656 Q2336.77 162.608 2335.11 165.465 Q2333.44 168.299 2330.59 170.15 Q2327.73 171.977 2324.57 171.977 Q2319.02 171.977 2316.46 168.534 L2314.12 171.251 Q2313.68 171.766 2313.54 171.86 Q2313.42 171.977 2313.25 171.977 Q2313.04 171.977 2312.88 171.836 Q2312.72 171.719 2312.72 171.508 Q2312.72 171.344 2314.1 165.84 Q2315.48 160.336 2315.6 160.219 Q2315.78 160.031 2316.09 160.031 Q2316.65 160.031 2316.65 160.57 Q2316.6 160.71 2316.56 160.898 Q2316.28 162.584 2316.28 163.498 Q2316.28 165.208 2316.86 166.519 Q2317.45 167.807 2318.31 168.557 Q2319.2 169.283 2320.4 169.752 Q2321.59 170.197 2322.6 170.361 Q2323.61 170.501 2324.66 170.501 Q2326.93 170.501 2328.95 169.189 Q2330.99 167.878 2332.13 165.84 Q2333.3 163.802 2333.3 161.671 Q2333.3 160.547 2333 159.68 Q2332.69 158.79 2332.27 158.298 Q2331.88 157.806 2331.2 157.431 Q2330.52 157.057 2330.05 156.916 Q2329.6 156.752 2328.9 156.588 L2323.77 155.23 Q2321.71 154.621 2320.23 152.864 Q2318.78 151.107 2318.78 148.414 Q2318.78 145.58 2320.44 142.956 Q2322.13 140.31 2324.87 138.717 Q2327.64 137.101 2330.61 137.101 Q2332.95 137.101 2334.76 138.014 Q2336.56 138.904 2337.47 140.567 L2339.79 137.827 Q2340.26 137.288 2340.35 137.194 Q2340.47 137.101 2340.64 137.101 Q2340.92 137.101 2341.03 137.265 Q2341.17 137.429 2341.17 137.593 Z" fill="#000000" fill-rule="nonzero" fill-opacity="1" /><polyline clip-path="url(#clip840)" style="stroke:#e26f46; stroke-linecap:round; stroke-linejoin:round; stroke-width:4; stroke-opacity:1; fill:none" stroke-dasharray="16, 10" points="2137.43,206.546 2287.67,206.546 "/>
<path clip-path="url(#clip840)" d="M2360.33 197.767 Q2360.33 198.188 2360.17 198.423 Q2360.01 198.634 2359.86 198.657 Q2359.75 198.68 2359.42 198.727 Q2358.34 198.821 2357.5 199.149 Q2356.66 199.477 2356.02 200.109 Q2355.39 200.718 2354.99 201.28 Q2354.59 201.842 2354.06 202.803 L2338.32 230.137 Q2338.15 230.418 2338.04 230.558 Q2337.94 230.722 2337.71 230.886 Q2337.47 231.05 2337.17 231.05 Q2336.75 231.05 2336.61 230.816 Q2336.47 230.582 2336.4 229.809 L2334.64 205.59 L2320.52 230.043 Q2320.26 230.488 2320.14 230.629 Q2320.05 230.793 2319.84 230.91 Q2319.65 231.05 2319.37 231.05 Q2319.04 231.05 2318.88 230.886 Q2318.71 230.746 2318.66 230.535 Q2318.64 230.324 2318.62 229.809 L2316.44 200.484 Q2316.37 199.383 2315.97 199.055 Q2315.6 198.727 2313.91 198.727 Q2313.44 198.727 2313.23 198.704 Q2313.04 198.68 2312.88 198.563 Q2312.72 198.423 2312.72 198.142 Q2312.72 197.228 2313.58 197.228 Q2314.4 197.228 2316.09 197.298 Q2317.77 197.369 2318.62 197.369 Q2319.6 197.369 2321.57 197.298 Q2323.54 197.228 2324.5 197.228 Q2325.18 197.228 2325.18 197.767 Q2325.18 198.212 2324.99 198.446 Q2324.82 198.657 2324.66 198.704 Q2324.5 198.727 2324.17 198.727 Q2322.88 198.751 2322.06 198.915 Q2321.26 199.079 2320.96 199.406 Q2320.66 199.711 2320.59 199.922 Q2320.52 200.109 2320.52 200.437 L2322.34 224.773 L2334.47 203.622 L2334.19 199.922 Q2334.12 199.196 2333.66 198.961 Q2333.19 198.727 2331.66 198.727 Q2331.24 198.727 2331.03 198.704 Q2330.84 198.68 2330.66 198.563 Q2330.49 198.446 2330.49 198.188 Q2330.49 197.743 2330.68 197.533 Q2330.87 197.298 2331.01 197.275 Q2331.17 197.228 2331.41 197.228 Q2331.95 197.228 2333.91 197.298 Q2335.88 197.369 2336.44 197.369 Q2337.4 197.369 2339.37 197.298 Q2341.34 197.228 2342.3 197.228 Q2343.02 197.228 2343.02 197.767 Q2343.02 198.423 2342.74 198.587 Q2342.46 198.727 2341.74 198.727 Q2340.49 198.751 2339.72 198.938 Q2338.97 199.125 2338.69 199.547 Q2338.43 199.945 2338.39 200.203 Q2338.34 200.46 2338.36 200.976 L2340.14 224.773 L2353.1 202.17 Q2353.14 202.077 2353.28 201.819 Q2353.45 201.538 2353.47 201.468 Q2353.52 201.397 2353.59 201.21 Q2353.68 201.023 2353.7 200.905 Q2353.73 200.765 2353.73 200.601 Q2353.73 199.641 2352.86 199.219 Q2351.99 198.774 2350.89 198.727 Q2350.17 198.727 2350.17 198.142 Q2350.17 197.72 2350.36 197.509 Q2350.54 197.275 2350.68 197.252 Q2350.85 197.228 2351.08 197.228 Q2351.88 197.228 2353.56 197.298 Q2355.25 197.369 2356.07 197.369 Q2356.68 197.369 2357.94 197.298 Q2359.21 197.228 2359.77 197.228 Q2360.03 197.228 2360.17 197.416 Q2360.33 197.603 2360.33 197.767 Z" fill="#000000" fill-rule="nonzero" fill-opacity="1" /><path clip-path="url(#clip840)" d="M2387.15 195.319 Q2387.35 195.516 2387.35 195.795 Q2387.35 196.073 2387.15 196.27 Q2386.96 196.467 2386.68 196.467 L2365.66 196.467 Q2365.38 196.467 2365.18 196.27 Q2364.99 196.073 2364.99 195.795 Q2364.99 195.516 2365.18 195.319 Q2365.38 195.122 2365.66 195.122 L2386.68 195.122 Q2386.96 195.122 2387.15 195.319 Z" fill="#000000" fill-rule="nonzero" fill-opacity="1" /><path clip-path="url(#clip840)" d="M2390.85 185.023 L2390.85 183.973 Q2394.88 183.973 2396.96 181.825 Q2397.54 181.825 2397.64 181.957 Q2397.73 182.088 2397.73 182.694 L2397.73 201.533 Q2397.73 202.533 2398.23 202.845 Q2398.72 203.156 2400.87 203.156 L2401.93 203.156 L2401.93 204.189 Q2400.75 204.091 2396.49 204.091 Q2392.23 204.091 2391.06 204.189 L2391.06 203.156 L2392.13 203.156 Q2394.24 203.156 2394.75 202.861 Q2395.26 202.55 2395.26 201.533 L2395.26 184.137 Q2393.5 185.023 2390.85 185.023 Z" fill="#000000" fill-rule="nonzero" fill-opacity="1" /></svg>
