<?xml version="1.0" encoding="utf-8"?>
<svg xmlns="http://www.w3.org/2000/svg" xmlns:xlink="http://www.w3.org/1999/xlink" width="600" height="400" viewBox="0 0 2400 1600">
<defs>
  <clipPath id="clip480">
    <rect x="0" y="0" width="2400" height="1600"/>
  </clipPath>
</defs>
<path clip-path="url(#clip480)" d="M0 1600 L2400 1600 L2400 0 L0 0  Z" fill="#ffffff" fill-rule="evenodd" fill-opacity="1"/>
<defs>
  <clipPath id="clip481">
    <rect x="480" y="0" width="1681" height="1600"/>
  </clipPath>
</defs>
<path clip-path="url(#clip480)" d="M186.274 1486.45 L2352.76 1486.45 L2352.76 123.472 L186.274 123.472  Z" fill="#ffffff" fill-rule="evenodd" fill-opacity="1"/>
<defs>
  <clipPath id="clip482">
    <rect x="186" y="123" width="2167" height="1364"/>
  </clipPath>
</defs>
<polyline clip-path="url(#clip482)" style="stroke:#000000; stroke-linecap:round; stroke-linejoin:round; stroke-width:2; stroke-opacity:0.1; fill:none" points="428.856,1486.45 428.856,123.472 "/>
<polyline clip-path="url(#clip482)" style="stroke:#000000; stroke-linecap:round; stroke-linejoin:round; stroke-width:2; stroke-opacity:0.1; fill:none" points="850.063,1486.45 850.063,123.472 "/>
<polyline clip-path="url(#clip482)" style="stroke:#000000; stroke-linecap:round; stroke-linejoin:round; stroke-width:2; stroke-opacity:0.1; fill:none" points="1271.27,1486.45 1271.27,123.472 "/>
<polyline clip-path="url(#clip482)" style="stroke:#000000; stroke-linecap:round; stroke-linejoin:round; stroke-width:2; stroke-opacity:0.1; fill:none" points="1692.48,1486.45 1692.48,123.472 "/>
<polyline clip-path="url(#clip482)" style="stroke:#000000; stroke-linecap:round; stroke-linejoin:round; stroke-width:2; stroke-opacity:0.1; fill:none" points="2113.68,1486.45 2113.68,123.472 "/>
<polyline clip-path="url(#clip482)" style="stroke:#000000; stroke-linecap:round; stroke-linejoin:round; stroke-width:2; stroke-opacity:0.1; fill:none" points="186.274,1447.87 2352.76,1447.87 "/>
<polyline clip-path="url(#clip482)" style="stroke:#000000; stroke-linecap:round; stroke-linejoin:round; stroke-width:2; stroke-opacity:0.1; fill:none" points="186.274,1126.42 2352.76,1126.42 "/>
<polyline clip-path="url(#clip482)" style="stroke:#000000; stroke-linecap:round; stroke-linejoin:round; stroke-width:2; stroke-opacity:0.1; fill:none" points="186.274,804.96 2352.76,804.96 "/>
<polyline clip-path="url(#clip482)" style="stroke:#000000; stroke-linecap:round; stroke-linejoin:round; stroke-width:2; stroke-opacity:0.1; fill:none" points="186.274,483.503 2352.76,483.503 "/>
<polyline clip-path="url(#clip482)" style="stroke:#000000; stroke-linecap:round; stroke-linejoin:round; stroke-width:2; stroke-opacity:0.1; fill:none" points="186.274,162.047 2352.76,162.047 "/>
<polyline clip-path="url(#clip480)" style="stroke:#000000; stroke-linecap:round; stroke-linejoin:round; stroke-width:4; stroke-opacity:1; fill:none" points="186.274,1447.87 2352.76,1447.87 "/>
<polyline clip-path="url(#clip480)" style="stroke:#000000; stroke-linecap:round; stroke-linejoin:round; stroke-width:4; stroke-opacity:0; fill:none" points="428.856,1447.87 428.856,1447.87 "/>
<polyline clip-path="url(#clip480)" style="stroke:#000000; stroke-linecap:round; stroke-linejoin:round; stroke-width:4; stroke-opacity:0; fill:none" points="850.063,1447.87 850.063,1447.87 "/>
<polyline clip-path="url(#clip480)" style="stroke:#000000; stroke-linecap:round; stroke-linejoin:round; stroke-width:4; stroke-opacity:0; fill:none" points="1271.27,1447.87 1271.27,1447.87 "/>
<polyline clip-path="url(#clip480)" style="stroke:#000000; stroke-linecap:round; stroke-linejoin:round; stroke-width:4; stroke-opacity:0; fill:none" points="1692.48,1447.87 1692.48,1447.87 "/>
<polyline clip-path="url(#clip480)" style="stroke:#000000; stroke-linecap:round; stroke-linejoin:round; stroke-width:4; stroke-opacity:0; fill:none" points="2113.68,1447.87 2113.68,1447.87 "/>
<path clip-path="url(#clip480)" d="M397.757 1532.02 L427.433 1532.02 L427.433 1535.95 L397.757 1535.95 L397.757 1532.02 Z" fill="#000000" fill-rule="nonzero" fill-opacity="1" /><path clip-path="url(#clip480)" d="M450.373 1518.36 L438.567 1536.81 L450.373 1536.81 L450.373 1518.36 M449.146 1514.29 L455.025 1514.29 L455.025 1536.81 L459.956 1536.81 L459.956 1540.7 L455.025 1540.7 L455.025 1548.85 L450.373 1548.85 L450.373 1540.7 L434.771 1540.7 L434.771 1536.19 L449.146 1514.29 Z" fill="#000000" fill-rule="nonzero" fill-opacity="1" /><path clip-path="url(#clip480)" d="M820.006 1532.02 L849.682 1532.02 L849.682 1535.95 L820.006 1535.95 L820.006 1532.02 Z" fill="#000000" fill-rule="nonzero" fill-opacity="1" /><path clip-path="url(#clip480)" d="M863.802 1544.91 L880.121 1544.91 L880.121 1548.85 L858.177 1548.85 L858.177 1544.91 Q860.839 1542.16 865.422 1537.53 Q870.029 1532.88 871.209 1531.53 Q873.455 1529.01 874.334 1527.27 Q875.237 1525.51 875.237 1523.82 Q875.237 1521.07 873.293 1519.33 Q871.371 1517.6 868.269 1517.6 Q866.07 1517.6 863.617 1518.36 Q861.186 1519.13 858.408 1520.68 L858.408 1515.95 Q861.232 1514.82 863.686 1514.24 Q866.14 1513.66 868.177 1513.66 Q873.547 1513.66 876.742 1516.35 Q879.936 1519.03 879.936 1523.52 Q879.936 1525.65 879.126 1527.57 Q878.339 1529.47 876.232 1532.07 Q875.654 1532.74 872.552 1535.95 Q869.45 1539.15 863.802 1544.91 Z" fill="#000000" fill-rule="nonzero" fill-opacity="1" /><path clip-path="url(#clip480)" d="M1271.27 1517.37 Q1267.66 1517.37 1265.83 1520.93 Q1264.03 1524.47 1264.03 1531.6 Q1264.03 1538.71 1265.83 1542.27 Q1267.66 1545.82 1271.27 1545.82 Q1274.9 1545.82 1276.71 1542.27 Q1278.54 1538.71 1278.54 1531.6 Q1278.54 1524.47 1276.71 1520.93 Q1274.9 1517.37 1271.27 1517.37 M1271.27 1513.66 Q1277.08 1513.66 1280.14 1518.27 Q1283.21 1522.85 1283.21 1531.6 Q1283.21 1540.33 1280.14 1544.94 Q1277.08 1549.52 1271.27 1549.52 Q1265.46 1549.52 1262.38 1544.94 Q1259.33 1540.33 1259.33 1531.6 Q1259.33 1522.85 1262.38 1518.27 Q1265.46 1513.66 1271.27 1513.66 Z" fill="#000000" fill-rule="nonzero" fill-opacity="1" /><path clip-path="url(#clip480)" d="M1687.13 1544.91 L1703.45 1544.91 L1703.45 1548.85 L1681.51 1548.85 L1681.51 1544.91 Q1684.17 1542.16 1688.75 1537.53 Q1693.36 1532.88 1694.54 1531.53 Q1696.78 1529.01 1697.66 1527.27 Q1698.57 1525.51 1698.57 1523.82 Q1698.57 1521.07 1696.62 1519.33 Q1694.7 1517.6 1691.6 1517.6 Q1689.4 1517.6 1686.95 1518.36 Q1684.51 1519.13 1681.74 1520.68 L1681.74 1515.95 Q1684.56 1514.82 1687.01 1514.24 Q1689.47 1513.66 1691.51 1513.66 Q1696.88 1513.66 1700.07 1516.35 Q1703.26 1519.03 1703.26 1523.52 Q1703.26 1525.65 1702.45 1527.57 Q1701.67 1529.47 1699.56 1532.07 Q1698.98 1532.74 1695.88 1535.95 Q1692.78 1539.15 1687.13 1544.91 Z" fill="#000000" fill-rule="nonzero" fill-opacity="1" /><path clip-path="url(#clip480)" d="M2116.69 1518.36 L2104.89 1536.81 L2116.69 1536.81 L2116.69 1518.36 M2115.47 1514.29 L2121.35 1514.29 L2121.35 1536.81 L2126.28 1536.81 L2126.28 1540.7 L2121.35 1540.7 L2121.35 1548.85 L2116.69 1548.85 L2116.69 1540.7 L2101.09 1540.7 L2101.09 1536.19 L2115.47 1514.29 Z" fill="#000000" fill-rule="nonzero" fill-opacity="1" /><polyline clip-path="url(#clip480)" style="stroke:#000000; stroke-linecap:round; stroke-linejoin:round; stroke-width:4; stroke-opacity:1; fill:none" points="1271.27,1486.45 1271.27,123.472 "/>
<polyline clip-path="url(#clip480)" style="stroke:#000000; stroke-linecap:round; stroke-linejoin:round; stroke-width:4; stroke-opacity:0; fill:none" points="1271.27,1447.87 1271.27,1447.87 "/>
<polyline clip-path="url(#clip480)" style="stroke:#000000; stroke-linecap:round; stroke-linejoin:round; stroke-width:4; stroke-opacity:0; fill:none" points="1271.27,1126.42 1271.27,1126.42 "/>
<polyline clip-path="url(#clip480)" style="stroke:#000000; stroke-linecap:round; stroke-linejoin:round; stroke-width:4; stroke-opacity:0; fill:none" points="1271.27,804.96 1271.27,804.96 "/>
<polyline clip-path="url(#clip480)" style="stroke:#000000; stroke-linecap:round; stroke-linejoin:round; stroke-width:4; stroke-opacity:0; fill:none" points="1271.27,483.503 1271.27,483.503 "/>
<polyline clip-path="url(#clip480)" style="stroke:#000000; stroke-linecap:round; stroke-linejoin:round; stroke-width:4; stroke-opacity:0; fill:none" points="1271.27,162.047 1271.27,162.047 "/>
<path clip-path="url(#clip480)" d="M62.9365 1433.67 Q59.3254 1433.67 57.4967 1437.24 Q55.6912 1440.78 55.6912 1447.91 Q55.6912 1455.01 57.4967 1458.58 Q59.3254 1462.12 62.9365 1462.12 Q66.5707 1462.12 68.3763 1458.58 Q70.205 1455.01 70.205 1447.91 Q70.205 1440.78 68.3763 1437.24 Q66.5707 1433.67 62.9365 1433.67 M62.9365 1429.97 Q68.7467 1429.97 71.8022 1434.57 Q74.8809 1439.16 74.8809 1447.91 Q74.8809 1456.63 71.8022 1461.24 Q68.7467 1465.82 62.9365 1465.82 Q57.1264 1465.82 54.0477 1461.24 Q50.9921 1456.63 50.9921 1447.91 Q50.9921 1439.16 54.0477 1434.57 Q57.1264 1429.97 62.9365 1429.97 Z" fill="#000000" fill-rule="nonzero" fill-opacity="1" /><path clip-path="url(#clip480)" d="M83.0984 1459.27 L87.9827 1459.27 L87.9827 1465.15 L83.0984 1465.15 L83.0984 1459.27 Z" fill="#000000" fill-rule="nonzero" fill-opacity="1" /><path clip-path="url(#clip480)" d="M108.168 1433.67 Q104.557 1433.67 102.728 1437.24 Q100.922 1440.78 100.922 1447.91 Q100.922 1455.01 102.728 1458.58 Q104.557 1462.12 108.168 1462.12 Q111.802 1462.12 113.608 1458.58 Q115.436 1455.01 115.436 1447.91 Q115.436 1440.78 113.608 1437.24 Q111.802 1433.67 108.168 1433.67 M108.168 1429.97 Q113.978 1429.97 117.033 1434.57 Q120.112 1439.16 120.112 1447.91 Q120.112 1456.63 117.033 1461.24 Q113.978 1465.82 108.168 1465.82 Q102.358 1465.82 99.2789 1461.24 Q96.2234 1456.63 96.2234 1447.91 Q96.2234 1439.16 99.2789 1434.57 Q102.358 1429.97 108.168 1429.97 Z" fill="#000000" fill-rule="nonzero" fill-opacity="1" /><path clip-path="url(#clip480)" d="M138.33 1433.67 Q134.719 1433.67 132.89 1437.24 Q131.084 1440.78 131.084 1447.91 Q131.084 1455.01 132.89 1458.58 Q134.719 1462.12 138.33 1462.12 Q141.964 1462.12 143.769 1458.58 Q145.598 1455.01 145.598 1447.91 Q145.598 1440.78 143.769 1437.24 Q141.964 1433.67 138.33 1433.67 M138.33 1429.97 Q144.14 1429.97 147.195 1434.57 Q150.274 1439.16 150.274 1447.91 Q150.274 1456.63 147.195 1461.24 Q144.14 1465.82 138.33 1465.82 Q132.519 1465.82 129.441 1461.24 Q126.385 1456.63 126.385 1447.91 Q126.385 1439.16 129.441 1434.57 Q132.519 1429.97 138.33 1429.97 Z" fill="#000000" fill-rule="nonzero" fill-opacity="1" /><path clip-path="url(#clip480)" d="M63.9319 1112.22 Q60.3208 1112.22 58.4921 1115.78 Q56.6865 1119.32 56.6865 1126.45 Q56.6865 1133.56 58.4921 1137.12 Q60.3208 1140.66 63.9319 1140.66 Q67.5661 1140.66 69.3717 1137.12 Q71.2004 1133.56 71.2004 1126.45 Q71.2004 1119.32 69.3717 1115.78 Q67.5661 1112.22 63.9319 1112.22 M63.9319 1108.51 Q69.742 1108.51 72.7976 1113.12 Q75.8763 1117.7 75.8763 1126.45 Q75.8763 1135.18 72.7976 1139.78 Q69.742 1144.37 63.9319 1144.37 Q58.1217 1144.37 55.043 1139.78 Q51.9875 1135.18 51.9875 1126.45 Q51.9875 1117.7 55.043 1113.12 Q58.1217 1108.51 63.9319 1108.51 Z" fill="#000000" fill-rule="nonzero" fill-opacity="1" /><path clip-path="url(#clip480)" d="M84.0938 1137.82 L88.978 1137.82 L88.978 1143.7 L84.0938 1143.7 L84.0938 1137.82 Z" fill="#000000" fill-rule="nonzero" fill-opacity="1" /><path clip-path="url(#clip480)" d="M103.191 1139.76 L119.51 1139.76 L119.51 1143.7 L97.566 1143.7 L97.566 1139.76 Q100.228 1137.01 104.811 1132.38 Q109.418 1127.72 110.598 1126.38 Q112.844 1123.86 113.723 1122.12 Q114.626 1120.36 114.626 1118.67 Q114.626 1115.92 112.682 1114.18 Q110.76 1112.45 107.658 1112.45 Q105.459 1112.45 103.006 1113.21 Q100.575 1113.97 97.7974 1115.53 L97.7974 1110.8 Q100.621 1109.67 103.075 1109.09 Q105.529 1108.51 107.566 1108.51 Q112.936 1108.51 116.131 1111.2 Q119.325 1113.88 119.325 1118.37 Q119.325 1120.5 118.515 1122.42 Q117.728 1124.32 115.621 1126.91 Q115.043 1127.59 111.941 1130.8 Q108.839 1134 103.191 1139.76 Z" fill="#000000" fill-rule="nonzero" fill-opacity="1" /><path clip-path="url(#clip480)" d="M129.371 1109.14 L147.728 1109.14 L147.728 1113.07 L133.654 1113.07 L133.654 1121.54 Q134.672 1121.2 135.691 1121.03 Q136.709 1120.85 137.728 1120.85 Q143.515 1120.85 146.894 1124.02 Q150.274 1127.19 150.274 1132.61 Q150.274 1138.19 146.802 1141.29 Q143.33 1144.37 137.01 1144.37 Q134.834 1144.37 132.566 1144 Q130.32 1143.63 127.913 1142.89 L127.913 1138.19 Q129.996 1139.32 132.219 1139.88 Q134.441 1140.43 136.918 1140.43 Q140.922 1140.43 143.26 1138.33 Q145.598 1136.22 145.598 1132.61 Q145.598 1129 143.26 1126.89 Q140.922 1124.78 136.918 1124.78 Q135.043 1124.78 133.168 1125.2 Q131.316 1125.62 129.371 1126.5 L129.371 1109.14 Z" fill="#000000" fill-rule="nonzero" fill-opacity="1" /><path clip-path="url(#clip480)" d="M62.9365 790.759 Q59.3254 790.759 57.4967 794.323 Q55.6912 797.865 55.6912 804.995 Q55.6912 812.101 57.4967 815.666 Q59.3254 819.208 62.9365 819.208 Q66.5707 819.208 68.3763 815.666 Q70.205 812.101 70.205 804.995 Q70.205 797.865 68.3763 794.323 Q66.5707 790.759 62.9365 790.759 M62.9365 787.055 Q68.7467 787.055 71.8022 791.661 Q74.8809 796.245 74.8809 804.995 Q74.8809 813.722 71.8022 818.328 Q68.7467 822.911 62.9365 822.911 Q57.1264 822.911 54.0477 818.328 Q50.9921 813.722 50.9921 804.995 Q50.9921 796.245 54.0477 791.661 Q57.1264 787.055 62.9365 787.055 Z" fill="#000000" fill-rule="nonzero" fill-opacity="1" /><path clip-path="url(#clip480)" d="M83.0984 816.36 L87.9827 816.36 L87.9827 822.24 L83.0984 822.24 L83.0984 816.36 Z" fill="#000000" fill-rule="nonzero" fill-opacity="1" /><path clip-path="url(#clip480)" d="M98.2141 787.68 L116.57 787.68 L116.57 791.615 L102.496 791.615 L102.496 800.087 Q103.515 799.74 104.534 799.578 Q105.552 799.393 106.571 799.393 Q112.358 799.393 115.737 802.564 Q119.117 805.735 119.117 811.152 Q119.117 816.731 115.645 819.833 Q112.172 822.911 105.853 822.911 Q103.677 822.911 101.409 822.541 Q99.1632 822.171 96.7558 821.43 L96.7558 816.731 Q98.8391 817.865 101.061 818.421 Q103.284 818.976 105.76 818.976 Q109.765 818.976 112.103 816.87 Q114.441 814.763 114.441 811.152 Q114.441 807.541 112.103 805.435 Q109.765 803.328 105.76 803.328 Q103.885 803.328 102.01 803.745 Q100.159 804.161 98.2141 805.041 L98.2141 787.68 Z" fill="#000000" fill-rule="nonzero" fill-opacity="1" /><path clip-path="url(#clip480)" d="M138.33 790.759 Q134.719 790.759 132.89 794.323 Q131.084 797.865 131.084 804.995 Q131.084 812.101 132.89 815.666 Q134.719 819.208 138.33 819.208 Q141.964 819.208 143.769 815.666 Q145.598 812.101 145.598 804.995 Q145.598 797.865 143.769 794.323 Q141.964 790.759 138.33 790.759 M138.33 787.055 Q144.14 787.055 147.195 791.661 Q150.274 796.245 150.274 804.995 Q150.274 813.722 147.195 818.328 Q144.14 822.911 138.33 822.911 Q132.519 822.911 129.441 818.328 Q126.385 813.722 126.385 804.995 Q126.385 796.245 129.441 791.661 Q132.519 787.055 138.33 787.055 Z" fill="#000000" fill-rule="nonzero" fill-opacity="1" /><path clip-path="url(#clip480)" d="M63.9319 469.302 Q60.3208 469.302 58.4921 472.867 Q56.6865 476.409 56.6865 483.538 Q56.6865 490.645 58.4921 494.209 Q60.3208 497.751 63.9319 497.751 Q67.5661 497.751 69.3717 494.209 Q71.2004 490.645 71.2004 483.538 Q71.2004 476.409 69.3717 472.867 Q67.5661 469.302 63.9319 469.302 M63.9319 465.598 Q69.742 465.598 72.7976 470.205 Q75.8763 474.788 75.8763 483.538 Q75.8763 492.265 72.7976 496.871 Q69.742 501.455 63.9319 501.455 Q58.1217 501.455 55.043 496.871 Q51.9875 492.265 51.9875 483.538 Q51.9875 474.788 55.043 470.205 Q58.1217 465.598 63.9319 465.598 Z" fill="#000000" fill-rule="nonzero" fill-opacity="1" /><path clip-path="url(#clip480)" d="M84.0938 494.904 L88.978 494.904 L88.978 500.783 L84.0938 500.783 L84.0938 494.904 Z" fill="#000000" fill-rule="nonzero" fill-opacity="1" /><path clip-path="url(#clip480)" d="M97.9826 466.223 L120.205 466.223 L120.205 468.214 L107.658 500.783 L102.774 500.783 L114.58 470.159 L97.9826 470.159 L97.9826 466.223 Z" fill="#000000" fill-rule="nonzero" fill-opacity="1" /><path clip-path="url(#clip480)" d="M129.371 466.223 L147.728 466.223 L147.728 470.159 L133.654 470.159 L133.654 478.631 Q134.672 478.284 135.691 478.122 Q136.709 477.936 137.728 477.936 Q143.515 477.936 146.894 481.108 Q150.274 484.279 150.274 489.696 Q150.274 495.274 146.802 498.376 Q143.33 501.455 137.01 501.455 Q134.834 501.455 132.566 501.084 Q130.32 500.714 127.913 499.973 L127.913 495.274 Q129.996 496.408 132.219 496.964 Q134.441 497.52 136.918 497.52 Q140.922 497.52 143.26 495.413 Q145.598 493.307 145.598 489.696 Q145.598 486.084 143.26 483.978 Q140.922 481.872 136.918 481.872 Q135.043 481.872 133.168 482.288 Q131.316 482.705 129.371 483.584 L129.371 466.223 Z" fill="#000000" fill-rule="nonzero" fill-opacity="1" /><path clip-path="url(#clip480)" d="M53.7467 175.392 L61.3856 175.392 L61.3856 149.026 L53.0754 150.693 L53.0754 146.434 L61.3393 144.767 L66.0152 144.767 L66.0152 175.392 L73.654 175.392 L73.654 179.327 L53.7467 179.327 L53.7467 175.392 Z" fill="#000000" fill-rule="nonzero" fill-opacity="1" /><path clip-path="url(#clip480)" d="M83.0984 173.447 L87.9827 173.447 L87.9827 179.327 L83.0984 179.327 L83.0984 173.447 Z" fill="#000000" fill-rule="nonzero" fill-opacity="1" /><path clip-path="url(#clip480)" d="M108.168 147.846 Q104.557 147.846 102.728 151.41 Q100.922 154.952 100.922 162.082 Q100.922 169.188 102.728 172.753 Q104.557 176.295 108.168 176.295 Q111.802 176.295 113.608 172.753 Q115.436 169.188 115.436 162.082 Q115.436 154.952 113.608 151.41 Q111.802 147.846 108.168 147.846 M108.168 144.142 Q113.978 144.142 117.033 148.748 Q120.112 153.332 120.112 162.082 Q120.112 170.808 117.033 175.415 Q113.978 179.998 108.168 179.998 Q102.358 179.998 99.2789 175.415 Q96.2234 170.808 96.2234 162.082 Q96.2234 153.332 99.2789 148.748 Q102.358 144.142 108.168 144.142 Z" fill="#000000" fill-rule="nonzero" fill-opacity="1" /><path clip-path="url(#clip480)" d="M138.33 147.846 Q134.719 147.846 132.89 151.41 Q131.084 154.952 131.084 162.082 Q131.084 169.188 132.89 172.753 Q134.719 176.295 138.33 176.295 Q141.964 176.295 143.769 172.753 Q145.598 169.188 145.598 162.082 Q145.598 154.952 143.769 151.41 Q141.964 147.846 138.33 147.846 M138.33 144.142 Q144.14 144.142 147.195 148.748 Q150.274 153.332 150.274 162.082 Q150.274 170.808 147.195 175.415 Q144.14 179.998 138.33 179.998 Q132.519 179.998 129.441 175.415 Q126.385 170.808 126.385 162.082 Q126.385 153.332 129.441 148.748 Q132.519 144.142 138.33 144.142 Z" fill="#000000" fill-rule="nonzero" fill-opacity="1" /><path clip-path="url(#clip480)" d="M988.949 18.8205 L988.949 41.5461 L999.239 41.5461 Q1004.95 41.5461 1008.07 38.5889 Q1011.19 35.6318 1011.19 30.163 Q1011.19 24.7348 1008.07 21.7777 Q1004.95 18.8205 999.239 18.8205 L988.949 18.8205 M980.767 12.096 L999.239 12.096 Q1009.41 12.096 1014.59 16.714 Q1019.82 21.2916 1019.82 30.163 Q1019.82 39.1155 1014.59 43.6931 Q1009.41 48.2706 999.239 48.2706 L988.949 48.2706 L988.949 72.576 L980.767 72.576 L980.767 12.096 Z" fill="#000000" fill-rule="nonzero" fill-opacity="1" /><path clip-path="url(#clip480)" d="M1045.09 32.4315 Q1039.1 32.4315 1035.62 37.1306 Q1032.13 41.7891 1032.13 49.9314 Q1032.13 58.0738 1035.58 62.7728 Q1039.06 67.4314 1045.09 67.4314 Q1051.05 67.4314 1054.53 62.7323 Q1058.02 58.0333 1058.02 49.9314 Q1058.02 41.8701 1054.53 37.1711 Q1051.05 32.4315 1045.09 32.4315 M1045.09 26.1121 Q1054.82 26.1121 1060.37 32.4315 Q1065.92 38.7509 1065.92 49.9314 Q1065.92 61.0714 1060.37 67.4314 Q1054.82 73.7508 1045.09 73.7508 Q1035.33 73.7508 1029.78 67.4314 Q1024.27 61.0714 1024.27 49.9314 Q1024.27 38.7509 1029.78 32.4315 Q1035.33 26.1121 1045.09 26.1121 Z" fill="#000000" fill-rule="nonzero" fill-opacity="1" /><path clip-path="url(#clip480)" d="M1078.27 9.54393 L1085.73 9.54393 L1085.73 72.576 L1078.27 72.576 L1078.27 9.54393 Z" fill="#000000" fill-rule="nonzero" fill-opacity="1" /><path clip-path="url(#clip480)" d="M1140.13 48.0275 L1140.13 51.6733 L1105.86 51.6733 Q1106.34 59.3701 1110.48 63.421 Q1114.65 67.4314 1122.06 67.4314 Q1126.36 67.4314 1130.37 66.3781 Q1134.42 65.3249 1138.39 63.2184 L1138.39 70.267 Q1134.38 71.9684 1130.16 72.8596 Q1125.95 73.7508 1121.62 73.7508 Q1110.76 73.7508 1104.4 67.4314 Q1098.08 61.1119 1098.08 50.3365 Q1098.08 39.1965 1104.08 32.6746 Q1110.11 26.1121 1120.32 26.1121 Q1129.48 26.1121 1134.78 32.0264 Q1140.13 37.9003 1140.13 48.0275 M1132.68 45.84 Q1132.59 39.7232 1129.23 36.0774 Q1125.91 32.4315 1120.4 32.4315 Q1114.16 32.4315 1110.4 35.9558 Q1106.67 39.4801 1106.1 45.8805 L1132.68 45.84 Z" fill="#000000" fill-rule="nonzero" fill-opacity="1" /><path clip-path="url(#clip480)" d="M1148.6 46.5287 L1170.43 46.5287 L1170.43 53.1722 L1148.6 53.1722 L1148.6 46.5287 Z" fill="#000000" fill-rule="nonzero" fill-opacity="1" /><path clip-path="url(#clip480)" d="M1179.06 27.2059 L1214.46 27.2059 L1214.46 34.0114 L1186.43 66.6212 L1214.46 66.6212 L1214.46 72.576 L1178.05 72.576 L1178.05 65.7705 L1206.08 33.1607 L1179.06 33.1607 L1179.06 27.2059 Z" fill="#000000" fill-rule="nonzero" fill-opacity="1" /><path clip-path="url(#clip480)" d="M1264.65 48.0275 L1264.65 51.6733 L1230.38 51.6733 Q1230.87 59.3701 1235 63.421 Q1239.17 67.4314 1246.59 67.4314 Q1250.88 67.4314 1254.89 66.3781 Q1258.94 65.3249 1262.91 63.2184 L1262.91 70.267 Q1258.9 71.9684 1254.69 72.8596 Q1250.48 73.7508 1246.14 73.7508 Q1235.28 73.7508 1228.92 67.4314 Q1222.61 61.1119 1222.61 50.3365 Q1222.61 39.1965 1228.6 32.6746 Q1234.64 26.1121 1244.84 26.1121 Q1254 26.1121 1259.31 32.0264 Q1264.65 37.9003 1264.65 48.0275 M1257.2 45.84 Q1257.12 39.7232 1253.76 36.0774 Q1250.44 32.4315 1244.93 32.4315 Q1238.69 32.4315 1234.92 35.9558 Q1231.19 39.4801 1230.63 45.8805 L1257.2 45.84 Z" fill="#000000" fill-rule="nonzero" fill-opacity="1" /><path clip-path="url(#clip480)" d="M1303.18 34.1734 Q1301.92 33.4443 1300.42 33.1202 Q1298.97 32.7556 1297.18 32.7556 Q1290.86 32.7556 1287.46 36.8875 Q1284.1 40.9789 1284.1 48.6757 L1284.1 72.576 L1276.6 72.576 L1276.6 27.2059 L1284.1 27.2059 L1284.1 34.2544 Q1286.45 30.1225 1290.22 28.1376 Q1293.98 26.1121 1299.37 26.1121 Q1300.14 26.1121 1301.07 26.2337 Q1302 26.3147 1303.14 26.5172 L1303.18 34.1734 Z" fill="#000000" fill-rule="nonzero" fill-opacity="1" /><path clip-path="url(#clip480)" d="M1326.75 32.4315 Q1320.76 32.4315 1317.28 37.1306 Q1313.79 41.7891 1313.79 49.9314 Q1313.79 58.0738 1317.23 62.7728 Q1320.72 67.4314 1326.75 67.4314 Q1332.71 67.4314 1336.19 62.7323 Q1339.68 58.0333 1339.68 49.9314 Q1339.68 41.8701 1336.19 37.1711 Q1332.71 32.4315 1326.75 32.4315 M1326.75 26.1121 Q1336.48 26.1121 1342.03 32.4315 Q1347.58 38.7509 1347.58 49.9314 Q1347.58 61.0714 1342.03 67.4314 Q1336.48 73.7508 1326.75 73.7508 Q1316.99 73.7508 1311.44 67.4314 Q1305.93 61.0714 1305.93 49.9314 Q1305.93 38.7509 1311.44 32.4315 Q1316.99 26.1121 1326.75 26.1121 Z" fill="#000000" fill-rule="nonzero" fill-opacity="1" /><path clip-path="url(#clip480)" d="M1421.63 35.9153 Q1424.42 30.8922 1428.31 28.5022 Q1432.2 26.1121 1437.47 26.1121 Q1444.55 26.1121 1448.4 31.0947 Q1452.25 36.0368 1452.25 45.1919 L1452.25 72.576 L1444.76 72.576 L1444.76 45.4349 Q1444.76 38.913 1442.45 35.7533 Q1440.14 32.5936 1435.4 32.5936 Q1429.61 32.5936 1426.24 36.4419 Q1422.88 40.2903 1422.88 46.9338 L1422.88 72.576 L1415.39 72.576 L1415.39 45.4349 Q1415.39 38.8725 1413.08 35.7533 Q1410.77 32.5936 1405.95 32.5936 Q1400.24 32.5936 1396.88 36.4824 Q1393.51 40.3308 1393.51 46.9338 L1393.51 72.576 L1386.02 72.576 L1386.02 27.2059 L1393.51 27.2059 L1393.51 34.2544 Q1396.07 30.082 1399.63 28.0971 Q1403.19 26.1121 1408.1 26.1121 Q1413.04 26.1121 1416.48 28.6237 Q1419.97 31.1352 1421.63 35.9153 Z" fill="#000000" fill-rule="nonzero" fill-opacity="1" /><path clip-path="url(#clip480)" d="M1487.74 49.7694 Q1478.7 49.7694 1475.22 51.8354 Q1471.74 53.9013 1471.74 58.8839 Q1471.74 62.8538 1474.33 65.2034 Q1476.96 67.5124 1481.46 67.5124 Q1487.66 67.5124 1491.38 63.1374 Q1495.15 58.7219 1495.15 51.4303 L1495.15 49.7694 L1487.74 49.7694 M1502.6 46.6907 L1502.6 72.576 L1495.15 72.576 L1495.15 65.6895 Q1492.6 69.8214 1488.79 71.8063 Q1484.98 73.7508 1479.47 73.7508 Q1472.51 73.7508 1468.37 69.8619 Q1464.28 65.9325 1464.28 59.3701 Q1464.28 51.7138 1469.39 47.825 Q1474.53 43.9361 1484.7 43.9361 L1495.15 43.9361 L1495.15 43.2069 Q1495.15 38.0623 1491.75 35.2672 Q1488.39 32.4315 1482.27 32.4315 Q1478.38 32.4315 1474.69 33.3632 Q1471.01 34.295 1467.6 36.1584 L1467.6 29.2718 Q1471.7 27.692 1475.54 26.9223 Q1479.39 26.1121 1483.04 26.1121 Q1492.88 26.1121 1497.74 31.2163 Q1502.6 36.3204 1502.6 46.6907 Z" fill="#000000" fill-rule="nonzero" fill-opacity="1" /><path clip-path="url(#clip480)" d="M1525.17 65.7705 L1525.17 89.8329 L1517.67 89.8329 L1517.67 27.2059 L1525.17 27.2059 L1525.17 34.0924 Q1527.52 30.0415 1531.08 28.0971 Q1534.69 26.1121 1539.67 26.1121 Q1547.93 26.1121 1553.08 32.6746 Q1558.26 39.2371 1558.26 49.9314 Q1558.26 60.6258 1553.08 67.1883 Q1547.93 73.7508 1539.67 73.7508 Q1534.69 73.7508 1531.08 71.8063 Q1527.52 69.8214 1525.17 65.7705 M1550.53 49.9314 Q1550.53 41.7081 1547.12 37.0496 Q1543.76 32.3505 1537.85 32.3505 Q1531.93 32.3505 1528.53 37.0496 Q1525.17 41.7081 1525.17 49.9314 Q1525.17 58.1548 1528.53 62.8538 Q1531.93 67.5124 1537.85 67.5124 Q1543.76 67.5124 1547.12 62.8538 Q1550.53 58.1548 1550.53 49.9314 Z" fill="#000000" fill-rule="nonzero" fill-opacity="1" /><line clip-path="url(#clip482)" x1="1271.27" y1="1447.87" x2="1211.27" y2="1387.87" style="stroke:#009af9; stroke-width:3.2; stroke-opacity:0.5"/>
<line clip-path="url(#clip482)" x1="1271.27" y1="1447.87" x2="1211.27" y2="1507.87" style="stroke:#009af9; stroke-width:3.2; stroke-opacity:0.5"/>
<line clip-path="url(#clip482)" x1="1271.27" y1="1447.87" x2="1331.27" y2="1507.87" style="stroke:#009af9; stroke-width:3.2; stroke-opacity:0.5"/>
<line clip-path="url(#clip482)" x1="1271.27" y1="1447.87" x2="1331.27" y2="1387.87" style="stroke:#009af9; stroke-width:3.2; stroke-opacity:0.5"/>
<line clip-path="url(#clip482)" x1="2291.44" y1="1447.87" x2="2231.44" y2="1387.87" style="stroke:#009af9; stroke-width:3.2; stroke-opacity:0.5"/>
<line clip-path="url(#clip482)" x1="2291.44" y1="1447.87" x2="2231.44" y2="1507.87" style="stroke:#009af9; stroke-width:3.2; stroke-opacity:0.5"/>
<line clip-path="url(#clip482)" x1="2291.44" y1="1447.87" x2="2351.44" y2="1507.87" style="stroke:#009af9; stroke-width:3.2; stroke-opacity:0.5"/>
<line clip-path="url(#clip482)" x1="2291.44" y1="1447.87" x2="2351.44" y2="1387.87" style="stroke:#009af9; stroke-width:3.2; stroke-opacity:0.5"/>
<line clip-path="url(#clip482)" x1="247.59" y1="1447.87" x2="187.59" y2="1387.87" style="stroke:#009af9; stroke-width:3.2; stroke-opacity:0.5"/>
<line clip-path="url(#clip482)" x1="247.59" y1="1447.87" x2="187.59" y2="1507.87" style="stroke:#009af9; stroke-width:3.2; stroke-opacity:0.5"/>
<line clip-path="url(#clip482)" x1="247.59" y1="1447.87" x2="307.59" y2="1507.87" style="stroke:#009af9; stroke-width:3.2; stroke-opacity:0.5"/>
<line clip-path="url(#clip482)" x1="247.59" y1="1447.87" x2="307.59" y2="1387.87" style="stroke:#009af9; stroke-width:3.2; stroke-opacity:0.5"/>
<line clip-path="url(#clip482)" x1="1253.72" y1="1447.87" x2="1193.72" y2="1387.87" style="stroke:#009af9; stroke-width:3.2; stroke-opacity:0.5"/>
<line clip-path="url(#clip482)" x1="1253.72" y1="1447.87" x2="1193.72" y2="1507.87" style="stroke:#009af9; stroke-width:3.2; stroke-opacity:0.5"/>
<line clip-path="url(#clip482)" x1="1253.72" y1="1447.87" x2="1313.72" y2="1507.87" style="stroke:#009af9; stroke-width:3.2; stroke-opacity:0.5"/>
<line clip-path="url(#clip482)" x1="1253.72" y1="1447.87" x2="1313.72" y2="1387.87" style="stroke:#009af9; stroke-width:3.2; stroke-opacity:0.5"/>
</svg>
