<?xml version="1.0" encoding="utf-8"?>
<svg xmlns="http://www.w3.org/2000/svg" xmlns:xlink="http://www.w3.org/1999/xlink" width="600" height="400" viewBox="0 0 2400 1600">
<defs>
  <clipPath id="clip150">
    <rect x="0" y="0" width="2400" height="1600"/>
  </clipPath>
</defs>
<path clip-path="url(#clip150)" d="M0 1600 L2400 1600 L2400 0 L0 0  Z" fill="#ffffff" fill-rule="evenodd" fill-opacity="1"/>
<defs>
  <clipPath id="clip151">
    <rect x="1453" y="47" width="901" height="1377"/>
  </clipPath>
</defs>
<path clip-path="url(#clip150)" d="M249.542 654.814 L1149.25 654.814 L1149.25 47.2441 L249.542 47.2441  Z" fill="#ffffff" fill-rule="evenodd" fill-opacity="1"/>
<defs>
  <clipPath id="clip152">
    <rect x="249" y="47" width="901" height="609"/>
  </clipPath>
</defs>
<polyline clip-path="url(#clip152)" style="stroke:#000000; stroke-linecap:round; stroke-linejoin:round; stroke-width:2; stroke-opacity:0.1; fill:none" points="275.005,654.814 275.005,47.2441 "/>
<polyline clip-path="url(#clip152)" style="stroke:#000000; stroke-linecap:round; stroke-linejoin:round; stroke-width:2; stroke-opacity:0.1; fill:none" points="489.344,654.814 489.344,47.2441 "/>
<polyline clip-path="url(#clip152)" style="stroke:#000000; stroke-linecap:round; stroke-linejoin:round; stroke-width:2; stroke-opacity:0.1; fill:none" points="703.682,654.814 703.682,47.2441 "/>
<polyline clip-path="url(#clip152)" style="stroke:#000000; stroke-linecap:round; stroke-linejoin:round; stroke-width:2; stroke-opacity:0.1; fill:none" points="918.021,654.814 918.021,47.2441 "/>
<polyline clip-path="url(#clip152)" style="stroke:#000000; stroke-linecap:round; stroke-linejoin:round; stroke-width:2; stroke-opacity:0.1; fill:none" points="1132.36,654.814 1132.36,47.2441 "/>
<polyline clip-path="url(#clip152)" style="stroke:#000000; stroke-linecap:round; stroke-linejoin:round; stroke-width:2; stroke-opacity:0.1; fill:none" points="249.542,637.618 1149.25,637.618 "/>
<polyline clip-path="url(#clip152)" style="stroke:#000000; stroke-linecap:round; stroke-linejoin:round; stroke-width:2; stroke-opacity:0.1; fill:none" points="249.542,495.372 1149.25,495.372 "/>
<polyline clip-path="url(#clip152)" style="stroke:#000000; stroke-linecap:round; stroke-linejoin:round; stroke-width:2; stroke-opacity:0.1; fill:none" points="249.542,353.126 1149.25,353.126 "/>
<polyline clip-path="url(#clip152)" style="stroke:#000000; stroke-linecap:round; stroke-linejoin:round; stroke-width:2; stroke-opacity:0.1; fill:none" points="249.542,210.88 1149.25,210.88 "/>
<polyline clip-path="url(#clip152)" style="stroke:#000000; stroke-linecap:round; stroke-linejoin:round; stroke-width:2; stroke-opacity:0.1; fill:none" points="249.542,68.6335 1149.25,68.6335 "/>
<polyline clip-path="url(#clip150)" style="stroke:#000000; stroke-linecap:round; stroke-linejoin:round; stroke-width:4; stroke-opacity:1; fill:none" points="249.542,654.814 1149.25,654.814 "/>
<polyline clip-path="url(#clip150)" style="stroke:#000000; stroke-linecap:round; stroke-linejoin:round; stroke-width:4; stroke-opacity:1; fill:none" points="275.005,654.814 275.005,635.916 "/>
<polyline clip-path="url(#clip150)" style="stroke:#000000; stroke-linecap:round; stroke-linejoin:round; stroke-width:4; stroke-opacity:1; fill:none" points="489.344,654.814 489.344,635.916 "/>
<polyline clip-path="url(#clip150)" style="stroke:#000000; stroke-linecap:round; stroke-linejoin:round; stroke-width:4; stroke-opacity:1; fill:none" points="703.682,654.814 703.682,635.916 "/>
<polyline clip-path="url(#clip150)" style="stroke:#000000; stroke-linecap:round; stroke-linejoin:round; stroke-width:4; stroke-opacity:1; fill:none" points="918.021,654.814 918.021,635.916 "/>
<polyline clip-path="url(#clip150)" style="stroke:#000000; stroke-linecap:round; stroke-linejoin:round; stroke-width:4; stroke-opacity:1; fill:none" points="1132.36,654.814 1132.36,635.916 "/>
<path clip-path="url(#clip150)" d="M252.39 685.733 Q248.779 685.733 246.95 689.297 Q245.144 692.839 245.144 699.969 Q245.144 707.075 246.95 710.64 Q248.779 714.181 252.39 714.181 Q256.024 714.181 257.83 710.64 Q259.658 707.075 259.658 699.969 Q259.658 692.839 257.83 689.297 Q256.024 685.733 252.39 685.733 M252.39 682.029 Q258.2 682.029 261.256 686.635 Q264.334 691.219 264.334 699.969 Q264.334 708.695 261.256 713.302 Q258.2 717.885 252.39 717.885 Q246.58 717.885 243.501 713.302 Q240.445 708.695 240.445 699.969 Q240.445 691.219 243.501 686.635 Q246.58 682.029 252.39 682.029 Z" fill="#000000" fill-rule="nonzero" fill-opacity="1" /><path clip-path="url(#clip150)" d="M272.552 711.334 L277.436 711.334 L277.436 717.214 L272.552 717.214 L272.552 711.334 Z" fill="#000000" fill-rule="nonzero" fill-opacity="1" /><path clip-path="url(#clip150)" d="M297.621 685.733 Q294.01 685.733 292.181 689.297 Q290.376 692.839 290.376 699.969 Q290.376 707.075 292.181 710.64 Q294.01 714.181 297.621 714.181 Q301.255 714.181 303.061 710.64 Q304.89 707.075 304.89 699.969 Q304.89 692.839 303.061 689.297 Q301.255 685.733 297.621 685.733 M297.621 682.029 Q303.431 682.029 306.487 686.635 Q309.565 691.219 309.565 699.969 Q309.565 708.695 306.487 713.302 Q303.431 717.885 297.621 717.885 Q291.811 717.885 288.732 713.302 Q285.677 708.695 285.677 699.969 Q285.677 691.219 288.732 686.635 Q291.811 682.029 297.621 682.029 Z" fill="#000000" fill-rule="nonzero" fill-opacity="1" /><path clip-path="url(#clip150)" d="M461.08 713.279 L477.399 713.279 L477.399 717.214 L455.455 717.214 L455.455 713.279 Q458.117 710.524 462.7 705.894 Q467.307 701.242 468.487 699.899 Q470.733 697.376 471.612 695.64 Q472.515 693.881 472.515 692.191 Q472.515 689.436 470.571 687.7 Q468.65 685.964 465.548 685.964 Q463.349 685.964 460.895 686.728 Q458.464 687.492 455.687 689.043 L455.687 684.321 Q458.511 683.186 460.964 682.608 Q463.418 682.029 465.455 682.029 Q470.825 682.029 474.02 684.714 Q477.214 687.399 477.214 691.89 Q477.214 694.02 476.404 695.941 Q475.617 697.839 473.511 700.432 Q472.932 701.103 469.83 704.32 Q466.728 707.515 461.08 713.279 Z" fill="#000000" fill-rule="nonzero" fill-opacity="1" /><path clip-path="url(#clip150)" d="M487.214 711.334 L492.098 711.334 L492.098 717.214 L487.214 717.214 L487.214 711.334 Z" fill="#000000" fill-rule="nonzero" fill-opacity="1" /><path clip-path="url(#clip150)" d="M502.33 682.654 L520.686 682.654 L520.686 686.589 L506.612 686.589 L506.612 695.061 Q507.631 694.714 508.649 694.552 Q509.668 694.367 510.686 694.367 Q516.473 694.367 519.853 697.538 Q523.233 700.709 523.233 706.126 Q523.233 711.705 519.76 714.806 Q516.288 717.885 509.969 717.885 Q507.793 717.885 505.524 717.515 Q503.279 717.144 500.872 716.404 L500.872 711.705 Q502.955 712.839 505.177 713.394 Q507.399 713.95 509.876 713.95 Q513.881 713.95 516.219 711.844 Q518.557 709.737 518.557 706.126 Q518.557 702.515 516.219 700.408 Q513.881 698.302 509.876 698.302 Q508.001 698.302 506.126 698.719 Q504.274 699.135 502.33 700.015 L502.33 682.654 Z" fill="#000000" fill-rule="nonzero" fill-opacity="1" /><path clip-path="url(#clip150)" d="M670.847 682.654 L689.203 682.654 L689.203 686.589 L675.129 686.589 L675.129 695.061 Q676.148 694.714 677.166 694.552 Q678.185 694.367 679.203 694.367 Q684.99 694.367 688.37 697.538 Q691.749 700.709 691.749 706.126 Q691.749 711.705 688.277 714.806 Q684.805 717.885 678.486 717.885 Q676.31 717.885 674.041 717.515 Q671.796 717.144 669.388 716.404 L669.388 711.705 Q671.472 712.839 673.694 713.394 Q675.916 713.95 678.393 713.95 Q682.398 713.95 684.736 711.844 Q687.074 709.737 687.074 706.126 Q687.074 702.515 684.736 700.408 Q682.398 698.302 678.393 698.302 Q676.518 698.302 674.643 698.719 Q672.791 699.135 670.847 700.015 L670.847 682.654 Z" fill="#000000" fill-rule="nonzero" fill-opacity="1" /><path clip-path="url(#clip150)" d="M700.962 711.334 L705.847 711.334 L705.847 717.214 L700.962 717.214 L700.962 711.334 Z" fill="#000000" fill-rule="nonzero" fill-opacity="1" /><path clip-path="url(#clip150)" d="M726.032 685.733 Q722.421 685.733 720.592 689.297 Q718.786 692.839 718.786 699.969 Q718.786 707.075 720.592 710.64 Q722.421 714.181 726.032 714.181 Q729.666 714.181 731.471 710.64 Q733.3 707.075 733.3 699.969 Q733.3 692.839 731.471 689.297 Q729.666 685.733 726.032 685.733 M726.032 682.029 Q731.842 682.029 734.897 686.635 Q737.976 691.219 737.976 699.969 Q737.976 708.695 734.897 713.302 Q731.842 717.885 726.032 717.885 Q720.222 717.885 717.143 713.302 Q714.087 708.695 714.087 699.969 Q714.087 691.219 717.143 686.635 Q720.222 682.029 726.032 682.029 Z" fill="#000000" fill-rule="nonzero" fill-opacity="1" /><path clip-path="url(#clip150)" d="M884.34 682.654 L906.562 682.654 L906.562 684.645 L894.016 717.214 L889.132 717.214 L900.937 686.589 L884.34 686.589 L884.34 682.654 Z" fill="#000000" fill-rule="nonzero" fill-opacity="1" /><path clip-path="url(#clip150)" d="M915.683 711.334 L920.567 711.334 L920.567 717.214 L915.683 717.214 L915.683 711.334 Z" fill="#000000" fill-rule="nonzero" fill-opacity="1" /><path clip-path="url(#clip150)" d="M930.798 682.654 L949.155 682.654 L949.155 686.589 L935.081 686.589 L935.081 695.061 Q936.099 694.714 937.118 694.552 Q938.136 694.367 939.155 694.367 Q944.942 694.367 948.321 697.538 Q951.701 700.709 951.701 706.126 Q951.701 711.705 948.229 714.806 Q944.757 717.885 938.437 717.885 Q936.261 717.885 933.993 717.515 Q931.747 717.144 929.34 716.404 L929.34 711.705 Q931.423 712.839 933.646 713.394 Q935.868 713.95 938.345 713.95 Q942.349 713.95 944.687 711.844 Q947.025 709.737 947.025 706.126 Q947.025 702.515 944.687 700.408 Q942.349 698.302 938.345 698.302 Q936.47 698.302 934.595 698.719 Q932.743 699.135 930.798 700.015 L930.798 682.654 Z" fill="#000000" fill-rule="nonzero" fill-opacity="1" /><path clip-path="url(#clip150)" d="M1084.43 713.279 L1092.07 713.279 L1092.07 686.913 L1083.76 688.58 L1083.76 684.321 L1092.02 682.654 L1096.7 682.654 L1096.7 713.279 L1104.34 713.279 L1104.34 717.214 L1084.43 717.214 L1084.43 713.279 Z" fill="#000000" fill-rule="nonzero" fill-opacity="1" /><path clip-path="url(#clip150)" d="M1123.78 685.733 Q1120.17 685.733 1118.34 689.297 Q1116.54 692.839 1116.54 699.969 Q1116.54 707.075 1118.34 710.64 Q1120.17 714.181 1123.78 714.181 Q1127.42 714.181 1129.22 710.64 Q1131.05 707.075 1131.05 699.969 Q1131.05 692.839 1129.22 689.297 Q1127.42 685.733 1123.78 685.733 M1123.78 682.029 Q1129.59 682.029 1132.65 686.635 Q1135.73 691.219 1135.73 699.969 Q1135.73 708.695 1132.65 713.302 Q1129.59 717.885 1123.78 717.885 Q1117.97 717.885 1114.89 713.302 Q1111.84 708.695 1111.84 699.969 Q1111.84 691.219 1114.89 686.635 Q1117.97 682.029 1123.78 682.029 Z" fill="#000000" fill-rule="nonzero" fill-opacity="1" /><path clip-path="url(#clip150)" d="M1143.94 711.334 L1148.83 711.334 L1148.83 717.214 L1143.94 717.214 L1143.94 711.334 Z" fill="#000000" fill-rule="nonzero" fill-opacity="1" /><path clip-path="url(#clip150)" d="M1169.01 685.733 Q1165.4 685.733 1163.57 689.297 Q1161.77 692.839 1161.77 699.969 Q1161.77 707.075 1163.57 710.64 Q1165.4 714.181 1169.01 714.181 Q1172.65 714.181 1174.45 710.64 Q1176.28 707.075 1176.28 699.969 Q1176.28 692.839 1174.45 689.297 Q1172.65 685.733 1169.01 685.733 M1169.01 682.029 Q1174.82 682.029 1177.88 686.635 Q1180.96 691.219 1180.96 699.969 Q1180.96 708.695 1177.88 713.302 Q1174.82 717.885 1169.01 717.885 Q1163.2 717.885 1160.13 713.302 Q1157.07 708.695 1157.07 699.969 Q1157.07 691.219 1160.13 686.635 Q1163.2 682.029 1169.01 682.029 Z" fill="#000000" fill-rule="nonzero" fill-opacity="1" /><polyline clip-path="url(#clip150)" style="stroke:#000000; stroke-linecap:round; stroke-linejoin:round; stroke-width:4; stroke-opacity:1; fill:none" points="249.542,654.814 249.542,47.2441 "/>
<polyline clip-path="url(#clip150)" style="stroke:#000000; stroke-linecap:round; stroke-linejoin:round; stroke-width:4; stroke-opacity:1; fill:none" points="249.542,637.618 268.44,637.618 "/>
<polyline clip-path="url(#clip150)" style="stroke:#000000; stroke-linecap:round; stroke-linejoin:round; stroke-width:4; stroke-opacity:1; fill:none" points="249.542,495.372 268.44,495.372 "/>
<polyline clip-path="url(#clip150)" style="stroke:#000000; stroke-linecap:round; stroke-linejoin:round; stroke-width:4; stroke-opacity:1; fill:none" points="249.542,353.126 268.44,353.126 "/>
<polyline clip-path="url(#clip150)" style="stroke:#000000; stroke-linecap:round; stroke-linejoin:round; stroke-width:4; stroke-opacity:1; fill:none" points="249.542,210.88 268.44,210.88 "/>
<polyline clip-path="url(#clip150)" style="stroke:#000000; stroke-linecap:round; stroke-linejoin:round; stroke-width:4; stroke-opacity:1; fill:none" points="249.542,68.6335 268.44,68.6335 "/>
<path clip-path="url(#clip150)" d="M126.205 623.417 Q122.593 623.417 120.765 626.982 Q118.959 630.524 118.959 637.653 Q118.959 644.76 120.765 648.324 Q122.593 651.866 126.205 651.866 Q129.839 651.866 131.644 648.324 Q133.473 644.76 133.473 637.653 Q133.473 630.524 131.644 626.982 Q129.839 623.417 126.205 623.417 M126.205 619.713 Q132.015 619.713 135.07 624.32 Q138.149 628.903 138.149 637.653 Q138.149 646.38 135.07 650.986 Q132.015 655.57 126.205 655.57 Q120.394 655.57 117.316 650.986 Q114.26 646.38 114.26 637.653 Q114.26 628.903 117.316 624.32 Q120.394 619.713 126.205 619.713 Z" fill="#000000" fill-rule="nonzero" fill-opacity="1" /><path clip-path="url(#clip150)" d="M146.366 649.019 L151.251 649.019 L151.251 654.898 L146.366 654.898 L146.366 649.019 Z" fill="#000000" fill-rule="nonzero" fill-opacity="1" /><path clip-path="url(#clip150)" d="M171.436 623.417 Q167.825 623.417 165.996 626.982 Q164.19 630.524 164.19 637.653 Q164.19 644.76 165.996 648.324 Q167.825 651.866 171.436 651.866 Q175.07 651.866 176.876 648.324 Q178.704 644.76 178.704 637.653 Q178.704 630.524 176.876 626.982 Q175.07 623.417 171.436 623.417 M171.436 619.713 Q177.246 619.713 180.301 624.32 Q183.38 628.903 183.38 637.653 Q183.38 646.38 180.301 650.986 Q177.246 655.57 171.436 655.57 Q165.626 655.57 162.547 650.986 Q159.491 646.38 159.491 637.653 Q159.491 628.903 162.547 624.32 Q165.626 619.713 171.436 619.713 Z" fill="#000000" fill-rule="nonzero" fill-opacity="1" /><path clip-path="url(#clip150)" d="M201.598 623.417 Q197.987 623.417 196.158 626.982 Q194.352 630.524 194.352 637.653 Q194.352 644.76 196.158 648.324 Q197.987 651.866 201.598 651.866 Q205.232 651.866 207.037 648.324 Q208.866 644.76 208.866 637.653 Q208.866 630.524 207.037 626.982 Q205.232 623.417 201.598 623.417 M201.598 619.713 Q207.408 619.713 210.463 624.32 Q213.542 628.903 213.542 637.653 Q213.542 646.38 210.463 650.986 Q207.408 655.57 201.598 655.57 Q195.787 655.57 192.709 650.986 Q189.653 646.38 189.653 637.653 Q189.653 628.903 192.709 624.32 Q195.787 619.713 201.598 619.713 Z" fill="#000000" fill-rule="nonzero" fill-opacity="1" /><path clip-path="url(#clip150)" d="M127.2 481.171 Q123.589 481.171 121.76 484.736 Q119.955 488.277 119.955 495.407 Q119.955 502.513 121.76 506.078 Q123.589 509.62 127.2 509.62 Q130.834 509.62 132.64 506.078 Q134.468 502.513 134.468 495.407 Q134.468 488.277 132.64 484.736 Q130.834 481.171 127.2 481.171 M127.2 477.467 Q133.01 477.467 136.066 482.074 Q139.144 486.657 139.144 495.407 Q139.144 504.134 136.066 508.74 Q133.01 513.324 127.2 513.324 Q121.39 513.324 118.311 508.74 Q115.256 504.134 115.256 495.407 Q115.256 486.657 118.311 482.074 Q121.39 477.467 127.2 477.467 Z" fill="#000000" fill-rule="nonzero" fill-opacity="1" /><path clip-path="url(#clip150)" d="M147.362 506.773 L152.246 506.773 L152.246 512.652 L147.362 512.652 L147.362 506.773 Z" fill="#000000" fill-rule="nonzero" fill-opacity="1" /><path clip-path="url(#clip150)" d="M166.459 508.717 L182.778 508.717 L182.778 512.652 L160.834 512.652 L160.834 508.717 Q163.496 505.962 168.079 501.333 Q172.686 496.68 173.866 495.338 Q176.112 492.814 176.991 491.078 Q177.894 489.319 177.894 487.629 Q177.894 484.875 175.95 483.138 Q174.028 481.402 170.927 481.402 Q168.727 481.402 166.274 482.166 Q163.843 482.93 161.065 484.481 L161.065 479.759 Q163.89 478.625 166.343 478.046 Q168.797 477.467 170.834 477.467 Q176.204 477.467 179.399 480.152 Q182.593 482.838 182.593 487.328 Q182.593 489.458 181.783 491.379 Q180.996 493.277 178.889 495.87 Q178.311 496.541 175.209 499.759 Q172.107 502.953 166.459 508.717 Z" fill="#000000" fill-rule="nonzero" fill-opacity="1" /><path clip-path="url(#clip150)" d="M192.639 478.092 L210.996 478.092 L210.996 482.027 L196.922 482.027 L196.922 490.5 Q197.94 490.152 198.959 489.99 Q199.977 489.805 200.996 489.805 Q206.783 489.805 210.162 492.976 Q213.542 496.148 213.542 501.564 Q213.542 507.143 210.07 510.245 Q206.598 513.324 200.278 513.324 Q198.102 513.324 195.834 512.953 Q193.588 512.583 191.181 511.842 L191.181 507.143 Q193.264 508.277 195.487 508.833 Q197.709 509.388 200.186 509.388 Q204.19 509.388 206.528 507.282 Q208.866 505.175 208.866 501.564 Q208.866 497.953 206.528 495.847 Q204.19 493.74 200.186 493.74 Q198.311 493.74 196.436 494.157 Q194.584 494.574 192.639 495.453 L192.639 478.092 Z" fill="#000000" fill-rule="nonzero" fill-opacity="1" /><path clip-path="url(#clip150)" d="M126.205 338.925 Q122.593 338.925 120.765 342.489 Q118.959 346.031 118.959 353.161 Q118.959 360.267 120.765 363.832 Q122.593 367.374 126.205 367.374 Q129.839 367.374 131.644 363.832 Q133.473 360.267 133.473 353.161 Q133.473 346.031 131.644 342.489 Q129.839 338.925 126.205 338.925 M126.205 335.221 Q132.015 335.221 135.07 339.827 Q138.149 344.411 138.149 353.161 Q138.149 361.887 135.07 366.494 Q132.015 371.077 126.205 371.077 Q120.394 371.077 117.316 366.494 Q114.26 361.887 114.26 353.161 Q114.26 344.411 117.316 339.827 Q120.394 335.221 126.205 335.221 Z" fill="#000000" fill-rule="nonzero" fill-opacity="1" /><path clip-path="url(#clip150)" d="M146.366 364.526 L151.251 364.526 L151.251 370.406 L146.366 370.406 L146.366 364.526 Z" fill="#000000" fill-rule="nonzero" fill-opacity="1" /><path clip-path="url(#clip150)" d="M161.482 335.846 L179.839 335.846 L179.839 339.781 L165.765 339.781 L165.765 348.253 Q166.783 347.906 167.802 347.744 Q168.82 347.559 169.839 347.559 Q175.626 347.559 179.005 350.73 Q182.385 353.901 182.385 359.318 Q182.385 364.897 178.913 367.999 Q175.44 371.077 169.121 371.077 Q166.945 371.077 164.677 370.707 Q162.431 370.337 160.024 369.596 L160.024 364.897 Q162.107 366.031 164.329 366.587 Q166.552 367.142 169.028 367.142 Q173.033 367.142 175.371 365.036 Q177.709 362.929 177.709 359.318 Q177.709 355.707 175.371 353.601 Q173.033 351.494 169.028 351.494 Q167.153 351.494 165.278 351.911 Q163.427 352.327 161.482 353.207 L161.482 335.846 Z" fill="#000000" fill-rule="nonzero" fill-opacity="1" /><path clip-path="url(#clip150)" d="M201.598 338.925 Q197.987 338.925 196.158 342.489 Q194.352 346.031 194.352 353.161 Q194.352 360.267 196.158 363.832 Q197.987 367.374 201.598 367.374 Q205.232 367.374 207.037 363.832 Q208.866 360.267 208.866 353.161 Q208.866 346.031 207.037 342.489 Q205.232 338.925 201.598 338.925 M201.598 335.221 Q207.408 335.221 210.463 339.827 Q213.542 344.411 213.542 353.161 Q213.542 361.887 210.463 366.494 Q207.408 371.077 201.598 371.077 Q195.787 371.077 192.709 366.494 Q189.653 361.887 189.653 353.161 Q189.653 344.411 192.709 339.827 Q195.787 335.221 201.598 335.221 Z" fill="#000000" fill-rule="nonzero" fill-opacity="1" /><path clip-path="url(#clip150)" d="M127.2 196.678 Q123.589 196.678 121.76 200.243 Q119.955 203.785 119.955 210.914 Q119.955 218.021 121.76 221.586 Q123.589 225.127 127.2 225.127 Q130.834 225.127 132.64 221.586 Q134.468 218.021 134.468 210.914 Q134.468 203.785 132.64 200.243 Q130.834 196.678 127.2 196.678 M127.2 192.975 Q133.01 192.975 136.066 197.581 Q139.144 202.164 139.144 210.914 Q139.144 219.641 136.066 224.248 Q133.01 228.831 127.2 228.831 Q121.39 228.831 118.311 224.248 Q115.256 219.641 115.256 210.914 Q115.256 202.164 118.311 197.581 Q121.39 192.975 127.2 192.975 Z" fill="#000000" fill-rule="nonzero" fill-opacity="1" /><path clip-path="url(#clip150)" d="M147.362 222.28 L152.246 222.28 L152.246 228.16 L147.362 228.16 L147.362 222.28 Z" fill="#000000" fill-rule="nonzero" fill-opacity="1" /><path clip-path="url(#clip150)" d="M161.251 193.6 L183.473 193.6 L183.473 195.59 L170.927 228.16 L166.042 228.16 L177.848 197.535 L161.251 197.535 L161.251 193.6 Z" fill="#000000" fill-rule="nonzero" fill-opacity="1" /><path clip-path="url(#clip150)" d="M192.639 193.6 L210.996 193.6 L210.996 197.535 L196.922 197.535 L196.922 206.007 Q197.94 205.66 198.959 205.498 Q199.977 205.313 200.996 205.313 Q206.783 205.313 210.162 208.484 Q213.542 211.655 213.542 217.072 Q213.542 222.65 210.07 225.752 Q206.598 228.831 200.278 228.831 Q198.102 228.831 195.834 228.461 Q193.588 228.09 191.181 227.35 L191.181 222.65 Q193.264 223.785 195.487 224.34 Q197.709 224.896 200.186 224.896 Q204.19 224.896 206.528 222.789 Q208.866 220.683 208.866 217.072 Q208.866 213.461 206.528 211.354 Q204.19 209.248 200.186 209.248 Q198.311 209.248 196.436 209.664 Q194.584 210.081 192.639 210.961 L192.639 193.6 Z" fill="#000000" fill-rule="nonzero" fill-opacity="1" /><path clip-path="url(#clip150)" d="M117.015 81.9783 L124.654 81.9783 L124.654 55.6127 L116.343 57.2793 L116.343 53.0201 L124.607 51.3535 L129.283 51.3535 L129.283 81.9783 L136.922 81.9783 L136.922 85.9135 L117.015 85.9135 L117.015 81.9783 Z" fill="#000000" fill-rule="nonzero" fill-opacity="1" /><path clip-path="url(#clip150)" d="M146.366 80.0339 L151.251 80.0339 L151.251 85.9135 L146.366 85.9135 L146.366 80.0339 Z" fill="#000000" fill-rule="nonzero" fill-opacity="1" /><path clip-path="url(#clip150)" d="M171.436 54.4321 Q167.825 54.4321 165.996 57.9969 Q164.19 61.5386 164.19 68.6682 Q164.19 75.7746 165.996 79.3394 Q167.825 82.8811 171.436 82.8811 Q175.07 82.8811 176.876 79.3394 Q178.704 75.7746 178.704 68.6682 Q178.704 61.5386 176.876 57.9969 Q175.07 54.4321 171.436 54.4321 M171.436 50.7285 Q177.246 50.7285 180.301 55.3349 Q183.38 59.9182 183.38 68.6682 Q183.38 77.395 180.301 82.0014 Q177.246 86.5847 171.436 86.5847 Q165.626 86.5847 162.547 82.0014 Q159.491 77.395 159.491 68.6682 Q159.491 59.9182 162.547 55.3349 Q165.626 50.7285 171.436 50.7285 Z" fill="#000000" fill-rule="nonzero" fill-opacity="1" /><path clip-path="url(#clip150)" d="M201.598 54.4321 Q197.987 54.4321 196.158 57.9969 Q194.352 61.5386 194.352 68.6682 Q194.352 75.7746 196.158 79.3394 Q197.987 82.8811 201.598 82.8811 Q205.232 82.8811 207.037 79.3394 Q208.866 75.7746 208.866 68.6682 Q208.866 61.5386 207.037 57.9969 Q205.232 54.4321 201.598 54.4321 M201.598 50.7285 Q207.408 50.7285 210.463 55.3349 Q213.542 59.9182 213.542 68.6682 Q213.542 77.395 210.463 82.0014 Q207.408 86.5847 201.598 86.5847 Q195.787 86.5847 192.709 82.0014 Q189.653 77.395 189.653 68.6682 Q189.653 59.9182 192.709 55.3349 Q195.787 50.7285 201.598 50.7285 Z" fill="#000000" fill-rule="nonzero" fill-opacity="1" /><path clip-path="url(#clip150)" d="M21.7178 354.137 Q22.1687 354.137 23.2315 354.427 L48.4165 360.739 Q54.0203 362.124 57.9494 366.633 Q61.8785 371.11 61.8785 376.198 Q61.8785 379.258 60.236 381.222 Q58.6257 383.187 56.1459 383.187 Q53.9559 383.187 52.8931 382.027 Q51.8625 380.868 51.8625 379.483 Q51.8625 379.032 51.9913 378.549 Q52.1201 378.066 52.6676 377.551 Q53.2151 377.036 54.1491 377.036 Q55.6628 377.036 56.8544 378.356 Q57.4019 379 57.5307 379.612 Q57.6596 380.192 57.6596 381.19 Q58.5613 380.804 59.1732 380.095 Q59.7851 379.387 60.0106 378.581 Q60.2682 377.776 60.3326 377.261 Q60.4293 376.713 60.4293 376.198 Q60.4293 372.076 56.2747 368.92 Q55.0187 367.986 53.7626 367.309 Q52.5388 366.601 51.0252 366.086 Q49.5437 365.57 48.7385 365.345 Q47.9334 365.087 46.0977 364.636 Q49.0928 367.631 49.0928 371.303 Q49.0928 372.849 48.6741 374.234 Q48.2554 375.586 47.3859 376.778 Q46.4841 377.97 44.906 378.678 Q43.3279 379.354 41.2346 379.354 Q39.0124 379.354 35.985 378.485 Q32.9577 377.615 27.386 375.522 Q24.2621 374.395 22.7484 374.395 Q22.0077 374.395 21.5568 374.556 Q21.0737 374.717 20.9127 375.039 Q20.7194 375.361 20.6872 375.554 Q20.655 375.715 20.655 376.037 Q20.655 377.937 22.5874 379.709 Q24.5197 381.48 28.8353 382.704 Q29.6405 382.961 29.8337 383.122 Q30.0269 383.283 30.0269 383.767 Q29.9947 384.572 29.3506 384.572 Q29.093 384.572 28.0946 384.282 Q27.064 383.992 25.5503 383.316 Q24.0044 382.607 22.6196 381.641 Q21.2025 380.675 20.2041 379.161 Q19.2058 377.615 19.2058 375.844 Q19.2058 373.428 20.7838 371.947 Q22.3297 370.433 24.6163 370.433 Q25.5503 370.433 26.3877 370.691 Q27.1928 370.916 29.3506 371.754 Q38.0462 375.135 42.2974 375.135 Q43.3279 375.135 44.1975 374.974 Q45.0349 374.781 45.8722 374.362 Q46.6774 373.944 47.1604 373.106 Q47.6113 372.237 47.6113 371.045 Q47.6113 369.532 46.9028 368.115 Q46.1621 366.665 45.1637 365.763 Q44.1653 364.83 43.3279 364.282 Q42.4584 363.702 42.0075 363.573 L30.1558 360.611 L24.874 359.29 Q22.0077 358.678 21.2991 358.388 Q20.6228 358.002 20.2686 357.326 Q19.9143 356.649 19.9143 356.07 Q19.9143 355.264 20.3974 354.717 Q20.8805 354.137 21.7178 354.137 Z" fill="#000000" fill-rule="nonzero" fill-opacity="1" /><path clip-path="url(#clip150)" d="M53.6652 347.391 L52.2224 347.391 Q52.2224 341.845 49.2691 338.982 Q49.2691 338.193 49.4494 338.058 Q49.6298 337.923 50.4639 337.923 L76.3671 337.923 Q77.7423 337.923 78.1706 337.246 Q78.599 336.57 78.599 333.617 L78.599 332.151 L80.0193 332.151 Q79.884 333.774 79.884 339.636 Q79.884 345.497 80.0193 347.098 L78.599 347.098 L78.599 345.633 Q78.599 342.724 78.1932 342.026 Q77.7648 341.327 76.3671 341.327 L52.4478 341.327 Q53.6652 343.739 53.6652 347.391 Z" fill="#000000" fill-rule="nonzero" fill-opacity="1" /><polyline clip-path="url(#clip152)" style="stroke:#000000; stroke-linecap:round; stroke-linejoin:round; stroke-width:1.6; stroke-opacity:1; fill:none" stroke-dasharray="8, 5" points="275.005,68.6335 283.579,68.6335 292.153,68.6335 300.726,68.6335 309.3,68.6335 317.873,68.6335 326.447,68.6335 335.02,68.6335 343.594,68.6335 352.167,68.6335 360.741,68.6335 369.314,68.6335 377.888,68.6335 386.461,68.6335 395.035,68.6335 403.608,68.6335 412.182,68.6335 420.756,68.6335 429.329,68.6335 437.903,68.6335 446.476,68.6335 455.05,68.6335 463.623,68.6335 472.197,68.6335 480.77,68.6335 489.344,68.6335 497.917,68.6335 506.491,68.6335 515.064,68.6335 523.638,68.6335 532.212,68.6335 540.785,68.6335 549.359,68.6335 557.932,68.6335 566.506,68.6335 575.079,68.6335 583.653,68.6335 592.226,68.6335 600.8,68.6335 609.373,68.6335 617.947,68.6335 626.52,68.6335 635.094,68.6335 643.668,68.6335 652.241,68.6335 660.815,68.6335 669.388,68.6335 677.962,68.6335 686.535,68.6335 695.109,68.6335 703.682,68.6335 712.256,68.6335 720.829,68.6335 729.403,68.6335 737.976,68.6335 746.55,68.6335 755.123,68.6335 763.697,68.6335 772.271,68.6335 780.844,68.6335 789.418,68.6335 797.991,68.6335 806.565,68.6335 815.138,68.6335 823.712,68.6335 832.285,68.6335 840.859,68.6335 849.432,68.6335 858.006,68.6335 866.579,68.6335 875.153,68.6335 883.727,68.6335 892.3,68.6335 900.874,68.6335 909.447,68.6335 918.021,68.6335 926.594,68.6335 935.168,68.6335 943.741,68.6335 952.315,68.6335 960.888,68.6335 969.462,68.6335 978.035,68.6335 986.609,68.6335 995.183,68.6335 1003.76,68.6335 1012.33,68.6335 1020.9,68.6335 1029.48,68.6335 1038.05,68.6335 1046.62,68.6335 1055.2,68.6335 1063.77,68.6335 1072.34,68.6335 1080.92,68.6335 1089.49,68.6335 1098.06,68.6335 1106.64,68.6335 1115.21,68.6335 1123.79,68.6335 "/>
<polyline clip-path="url(#clip152)" style="stroke:#009af9; stroke-linecap:round; stroke-linejoin:round; stroke-width:4; stroke-opacity:1; fill:none" points="275.005,637.618 283.579,637.618 292.153,635.912 300.726,632.498 309.3,627.377 317.873,620.549 326.447,612.014 335.02,601.772 343.594,589.824 352.167,576.168 360.741,560.806 369.314,543.875 377.888,525.727 386.461,506.669 395.035,486.976 403.608,466.886 412.182,446.607 420.756,426.321 429.329,406.181 437.903,386.321 446.476,366.851 455.05,347.864 463.623,329.436 472.197,311.629 480.77,294.489 489.344,278.052 497.917,262.345 506.491,247.383 515.064,233.175 523.638,219.722 532.212,207.02 540.785,195.06 549.359,183.827 557.932,173.304 566.506,163.471 575.079,154.305 583.653,145.782 592.226,137.876 600.8,130.559 609.373,123.804 617.947,117.583 626.52,111.869 635.094,106.632 643.668,101.845 652.241,97.4814 660.815,93.5143 669.388,89.918 677.962,86.6673 686.535,83.7383 695.109,81.1077 703.682,78.7535 712.256,76.6545 720.829,74.7907 729.403,73.143 737.976,71.6935 746.55,70.4252 755.123,69.3222 763.697,68.3695 772.271,67.5531 780.844,66.8601 789.418,66.2783 797.991,65.7964 806.565,65.404 815.138,65.0915 823.712,64.8499 832.285,64.6711 840.859,64.5475 849.432,64.4724 858.006,64.4395 866.579,64.443 875.153,64.4778 883.727,64.5393 892.3,64.6231 900.874,64.7255 909.447,64.8432 918.021,64.973 926.594,65.1123 935.168,65.2587 943.741,65.41 952.315,65.5644 960.888,65.7204 969.462,65.8764 978.035,66.0314 986.609,66.1842 995.183,66.3341 1003.76,66.4803 1012.33,66.6222 1020.9,66.7594 1029.48,66.8914 1038.05,67.018 1046.62,67.1391 1055.2,67.2544 1063.77,67.3639 1072.34,67.4676 1080.92,67.5655 1089.49,67.6577 1098.06,67.7443 1106.64,67.8254 1115.21,67.9012 1123.79,67.9719 "/>
<path clip-path="url(#clip150)" d="M249.542 1423.18 L1149.25 1423.18 L1149.25 815.61 L249.542 815.61  Z" fill="#ffffff" fill-rule="evenodd" fill-opacity="1"/>
<defs>
  <clipPath id="clip153">
    <rect x="249" y="815" width="901" height="609"/>
  </clipPath>
</defs>
<polyline clip-path="url(#clip153)" style="stroke:#000000; stroke-linecap:round; stroke-linejoin:round; stroke-width:2; stroke-opacity:0.1; fill:none" points="275.005,1423.18 275.005,815.61 "/>
<polyline clip-path="url(#clip153)" style="stroke:#000000; stroke-linecap:round; stroke-linejoin:round; stroke-width:2; stroke-opacity:0.1; fill:none" points="489.344,1423.18 489.344,815.61 "/>
<polyline clip-path="url(#clip153)" style="stroke:#000000; stroke-linecap:round; stroke-linejoin:round; stroke-width:2; stroke-opacity:0.1; fill:none" points="703.682,1423.18 703.682,815.61 "/>
<polyline clip-path="url(#clip153)" style="stroke:#000000; stroke-linecap:round; stroke-linejoin:round; stroke-width:2; stroke-opacity:0.1; fill:none" points="918.021,1423.18 918.021,815.61 "/>
<polyline clip-path="url(#clip153)" style="stroke:#000000; stroke-linecap:round; stroke-linejoin:round; stroke-width:2; stroke-opacity:0.1; fill:none" points="1132.36,1423.18 1132.36,815.61 "/>
<polyline clip-path="url(#clip153)" style="stroke:#000000; stroke-linecap:round; stroke-linejoin:round; stroke-width:2; stroke-opacity:0.1; fill:none" points="249.542,1401.61 1149.25,1401.61 "/>
<polyline clip-path="url(#clip153)" style="stroke:#000000; stroke-linecap:round; stroke-linejoin:round; stroke-width:2; stroke-opacity:0.1; fill:none" points="249.542,1242.07 1149.25,1242.07 "/>
<polyline clip-path="url(#clip153)" style="stroke:#000000; stroke-linecap:round; stroke-linejoin:round; stroke-width:2; stroke-opacity:0.1; fill:none" points="249.542,1082.54 1149.25,1082.54 "/>
<polyline clip-path="url(#clip153)" style="stroke:#000000; stroke-linecap:round; stroke-linejoin:round; stroke-width:2; stroke-opacity:0.1; fill:none" points="249.542,923.005 1149.25,923.005 "/>
<polyline clip-path="url(#clip150)" style="stroke:#000000; stroke-linecap:round; stroke-linejoin:round; stroke-width:4; stroke-opacity:1; fill:none" points="249.542,1423.18 1149.25,1423.18 "/>
<polyline clip-path="url(#clip150)" style="stroke:#000000; stroke-linecap:round; stroke-linejoin:round; stroke-width:4; stroke-opacity:1; fill:none" points="275.005,1423.18 275.005,1404.28 "/>
<polyline clip-path="url(#clip150)" style="stroke:#000000; stroke-linecap:round; stroke-linejoin:round; stroke-width:4; stroke-opacity:1; fill:none" points="489.344,1423.18 489.344,1404.28 "/>
<polyline clip-path="url(#clip150)" style="stroke:#000000; stroke-linecap:round; stroke-linejoin:round; stroke-width:4; stroke-opacity:1; fill:none" points="703.682,1423.18 703.682,1404.28 "/>
<polyline clip-path="url(#clip150)" style="stroke:#000000; stroke-linecap:round; stroke-linejoin:round; stroke-width:4; stroke-opacity:1; fill:none" points="918.021,1423.18 918.021,1404.28 "/>
<polyline clip-path="url(#clip150)" style="stroke:#000000; stroke-linecap:round; stroke-linejoin:round; stroke-width:4; stroke-opacity:1; fill:none" points="1132.36,1423.18 1132.36,1404.28 "/>
<path clip-path="url(#clip150)" d="M252.39 1454.1 Q248.779 1454.1 246.95 1457.66 Q245.144 1461.2 245.144 1468.33 Q245.144 1475.44 246.95 1479.01 Q248.779 1482.55 252.39 1482.55 Q256.024 1482.55 257.83 1479.01 Q259.658 1475.44 259.658 1468.33 Q259.658 1461.2 257.83 1457.66 Q256.024 1454.1 252.39 1454.1 M252.39 1450.39 Q258.2 1450.39 261.256 1455 Q264.334 1459.58 264.334 1468.33 Q264.334 1477.06 261.256 1481.67 Q258.2 1486.25 252.39 1486.25 Q246.58 1486.25 243.501 1481.67 Q240.445 1477.06 240.445 1468.33 Q240.445 1459.58 243.501 1455 Q246.58 1450.39 252.39 1450.39 Z" fill="#000000" fill-rule="nonzero" fill-opacity="1" /><path clip-path="url(#clip150)" d="M272.552 1479.7 L277.436 1479.7 L277.436 1485.58 L272.552 1485.58 L272.552 1479.7 Z" fill="#000000" fill-rule="nonzero" fill-opacity="1" /><path clip-path="url(#clip150)" d="M297.621 1454.1 Q294.01 1454.1 292.181 1457.66 Q290.376 1461.2 290.376 1468.33 Q290.376 1475.44 292.181 1479.01 Q294.01 1482.55 297.621 1482.55 Q301.255 1482.55 303.061 1479.01 Q304.89 1475.44 304.89 1468.33 Q304.89 1461.2 303.061 1457.66 Q301.255 1454.1 297.621 1454.1 M297.621 1450.39 Q303.431 1450.39 306.487 1455 Q309.565 1459.58 309.565 1468.33 Q309.565 1477.06 306.487 1481.67 Q303.431 1486.25 297.621 1486.25 Q291.811 1486.25 288.732 1481.67 Q285.677 1477.06 285.677 1468.33 Q285.677 1459.58 288.732 1455 Q291.811 1450.39 297.621 1450.39 Z" fill="#000000" fill-rule="nonzero" fill-opacity="1" /><path clip-path="url(#clip150)" d="M461.08 1481.64 L477.399 1481.64 L477.399 1485.58 L455.455 1485.58 L455.455 1481.64 Q458.117 1478.89 462.7 1474.26 Q467.307 1469.61 468.487 1468.27 Q470.733 1465.74 471.612 1464.01 Q472.515 1462.25 472.515 1460.56 Q472.515 1457.8 470.571 1456.07 Q468.65 1454.33 465.548 1454.33 Q463.349 1454.33 460.895 1455.09 Q458.464 1455.86 455.687 1457.41 L455.687 1452.69 Q458.511 1451.55 460.964 1450.97 Q463.418 1450.39 465.455 1450.39 Q470.825 1450.39 474.02 1453.08 Q477.214 1455.77 477.214 1460.26 Q477.214 1462.39 476.404 1464.31 Q475.617 1466.2 473.511 1468.8 Q472.932 1469.47 469.83 1472.69 Q466.728 1475.88 461.08 1481.64 Z" fill="#000000" fill-rule="nonzero" fill-opacity="1" /><path clip-path="url(#clip150)" d="M487.214 1479.7 L492.098 1479.7 L492.098 1485.58 L487.214 1485.58 L487.214 1479.7 Z" fill="#000000" fill-rule="nonzero" fill-opacity="1" /><path clip-path="url(#clip150)" d="M502.33 1451.02 L520.686 1451.02 L520.686 1454.96 L506.612 1454.96 L506.612 1463.43 Q507.631 1463.08 508.649 1462.92 Q509.668 1462.73 510.686 1462.73 Q516.473 1462.73 519.853 1465.9 Q523.233 1469.08 523.233 1474.49 Q523.233 1480.07 519.76 1483.17 Q516.288 1486.25 509.969 1486.25 Q507.793 1486.25 505.524 1485.88 Q503.279 1485.51 500.872 1484.77 L500.872 1480.07 Q502.955 1481.2 505.177 1481.76 Q507.399 1482.32 509.876 1482.32 Q513.881 1482.32 516.219 1480.21 Q518.557 1478.1 518.557 1474.49 Q518.557 1470.88 516.219 1468.77 Q513.881 1466.67 509.876 1466.67 Q508.001 1466.67 506.126 1467.08 Q504.274 1467.5 502.33 1468.38 L502.33 1451.02 Z" fill="#000000" fill-rule="nonzero" fill-opacity="1" /><path clip-path="url(#clip150)" d="M670.847 1451.02 L689.203 1451.02 L689.203 1454.96 L675.129 1454.96 L675.129 1463.43 Q676.148 1463.08 677.166 1462.92 Q678.185 1462.73 679.203 1462.73 Q684.99 1462.73 688.37 1465.9 Q691.749 1469.08 691.749 1474.49 Q691.749 1480.07 688.277 1483.17 Q684.805 1486.25 678.486 1486.25 Q676.31 1486.25 674.041 1485.88 Q671.796 1485.51 669.388 1484.77 L669.388 1480.07 Q671.472 1481.2 673.694 1481.76 Q675.916 1482.32 678.393 1482.32 Q682.398 1482.32 684.736 1480.21 Q687.074 1478.1 687.074 1474.49 Q687.074 1470.88 684.736 1468.77 Q682.398 1466.67 678.393 1466.67 Q676.518 1466.67 674.643 1467.08 Q672.791 1467.5 670.847 1468.38 L670.847 1451.02 Z" fill="#000000" fill-rule="nonzero" fill-opacity="1" /><path clip-path="url(#clip150)" d="M700.962 1479.7 L705.847 1479.7 L705.847 1485.58 L700.962 1485.58 L700.962 1479.7 Z" fill="#000000" fill-rule="nonzero" fill-opacity="1" /><path clip-path="url(#clip150)" d="M726.032 1454.1 Q722.421 1454.1 720.592 1457.66 Q718.786 1461.2 718.786 1468.33 Q718.786 1475.44 720.592 1479.01 Q722.421 1482.55 726.032 1482.55 Q729.666 1482.55 731.471 1479.01 Q733.3 1475.44 733.3 1468.33 Q733.3 1461.2 731.471 1457.66 Q729.666 1454.1 726.032 1454.1 M726.032 1450.39 Q731.842 1450.39 734.897 1455 Q737.976 1459.58 737.976 1468.33 Q737.976 1477.06 734.897 1481.67 Q731.842 1486.25 726.032 1486.25 Q720.222 1486.25 717.143 1481.67 Q714.087 1477.06 714.087 1468.33 Q714.087 1459.58 717.143 1455 Q720.222 1450.39 726.032 1450.39 Z" fill="#000000" fill-rule="nonzero" fill-opacity="1" /><path clip-path="url(#clip150)" d="M884.34 1451.02 L906.562 1451.02 L906.562 1453.01 L894.016 1485.58 L889.132 1485.58 L900.937 1454.96 L884.34 1454.96 L884.34 1451.02 Z" fill="#000000" fill-rule="nonzero" fill-opacity="1" /><path clip-path="url(#clip150)" d="M915.683 1479.7 L920.567 1479.7 L920.567 1485.58 L915.683 1485.58 L915.683 1479.7 Z" fill="#000000" fill-rule="nonzero" fill-opacity="1" /><path clip-path="url(#clip150)" d="M930.798 1451.02 L949.155 1451.02 L949.155 1454.96 L935.081 1454.96 L935.081 1463.43 Q936.099 1463.08 937.118 1462.92 Q938.136 1462.73 939.155 1462.73 Q944.942 1462.73 948.321 1465.9 Q951.701 1469.08 951.701 1474.49 Q951.701 1480.07 948.229 1483.17 Q944.757 1486.25 938.437 1486.25 Q936.261 1486.25 933.993 1485.88 Q931.747 1485.51 929.34 1484.77 L929.34 1480.07 Q931.423 1481.2 933.646 1481.76 Q935.868 1482.32 938.345 1482.32 Q942.349 1482.32 944.687 1480.21 Q947.025 1478.1 947.025 1474.49 Q947.025 1470.88 944.687 1468.77 Q942.349 1466.67 938.345 1466.67 Q936.47 1466.67 934.595 1467.08 Q932.743 1467.5 930.798 1468.38 L930.798 1451.02 Z" fill="#000000" fill-rule="nonzero" fill-opacity="1" /><path clip-path="url(#clip150)" d="M1084.43 1481.64 L1092.07 1481.64 L1092.07 1455.28 L1083.76 1456.95 L1083.76 1452.69 L1092.02 1451.02 L1096.7 1451.02 L1096.7 1481.64 L1104.34 1481.64 L1104.34 1485.58 L1084.43 1485.58 L1084.43 1481.64 Z" fill="#000000" fill-rule="nonzero" fill-opacity="1" /><path clip-path="url(#clip150)" d="M1123.78 1454.1 Q1120.17 1454.1 1118.34 1457.66 Q1116.54 1461.2 1116.54 1468.33 Q1116.54 1475.44 1118.34 1479.01 Q1120.17 1482.55 1123.78 1482.55 Q1127.42 1482.55 1129.22 1479.01 Q1131.05 1475.44 1131.05 1468.33 Q1131.05 1461.2 1129.22 1457.66 Q1127.42 1454.1 1123.78 1454.1 M1123.78 1450.39 Q1129.59 1450.39 1132.65 1455 Q1135.73 1459.58 1135.73 1468.33 Q1135.73 1477.06 1132.65 1481.67 Q1129.59 1486.25 1123.78 1486.25 Q1117.97 1486.25 1114.89 1481.67 Q1111.84 1477.06 1111.84 1468.33 Q1111.84 1459.58 1114.89 1455 Q1117.97 1450.39 1123.78 1450.39 Z" fill="#000000" fill-rule="nonzero" fill-opacity="1" /><path clip-path="url(#clip150)" d="M1143.94 1479.7 L1148.83 1479.7 L1148.83 1485.58 L1143.94 1485.58 L1143.94 1479.7 Z" fill="#000000" fill-rule="nonzero" fill-opacity="1" /><path clip-path="url(#clip150)" d="M1169.01 1454.1 Q1165.4 1454.1 1163.57 1457.66 Q1161.77 1461.2 1161.77 1468.33 Q1161.77 1475.44 1163.57 1479.01 Q1165.4 1482.55 1169.01 1482.55 Q1172.65 1482.55 1174.45 1479.01 Q1176.28 1475.44 1176.28 1468.33 Q1176.28 1461.2 1174.45 1457.66 Q1172.65 1454.1 1169.01 1454.1 M1169.01 1450.39 Q1174.82 1450.39 1177.88 1455 Q1180.96 1459.58 1180.96 1468.33 Q1180.96 1477.06 1177.88 1481.67 Q1174.82 1486.25 1169.01 1486.25 Q1163.2 1486.25 1160.13 1481.67 Q1157.07 1477.06 1157.07 1468.33 Q1157.07 1459.58 1160.13 1455 Q1163.2 1450.39 1169.01 1450.39 Z" fill="#000000" fill-rule="nonzero" fill-opacity="1" /><path clip-path="url(#clip150)" d="M569.567 1520.52 L609.766 1520.52 L609.766 1525.93 L592.897 1525.93 L592.897 1568.04 L586.436 1568.04 L586.436 1525.93 L569.567 1525.93 L569.567 1520.52 Z" fill="#000000" fill-rule="nonzero" fill-opacity="1" /><path clip-path="url(#clip150)" d="M613.713 1532.4 L619.57 1532.4 L619.57 1568.04 L613.713 1568.04 L613.713 1532.4 M613.713 1518.52 L619.57 1518.52 L619.57 1525.93 L613.713 1525.93 L613.713 1518.52 Z" fill="#000000" fill-rule="nonzero" fill-opacity="1" /><path clip-path="url(#clip150)" d="M659.578 1539.24 Q661.774 1535.29 664.83 1533.41 Q667.885 1531.54 672.023 1531.54 Q677.593 1531.54 680.617 1535.45 Q683.64 1539.33 683.64 1546.53 L683.64 1568.04 L677.752 1568.04 L677.752 1546.72 Q677.752 1541.59 675.938 1539.11 Q674.124 1536.63 670.4 1536.63 Q665.848 1536.63 663.206 1539.65 Q660.565 1542.68 660.565 1547.9 L660.565 1568.04 L654.676 1568.04 L654.676 1546.72 Q654.676 1541.56 652.862 1539.11 Q651.048 1536.63 647.26 1536.63 Q642.773 1536.63 640.131 1539.68 Q637.489 1542.71 637.489 1547.9 L637.489 1568.04 L631.601 1568.04 L631.601 1532.4 L637.489 1532.4 L637.489 1537.93 Q639.494 1534.66 642.295 1533.1 Q645.096 1531.54 648.947 1531.54 Q652.83 1531.54 655.536 1533.51 Q658.273 1535.48 659.578 1539.24 Z" fill="#000000" fill-rule="nonzero" fill-opacity="1" /><path clip-path="url(#clip150)" d="M725.813 1548.76 L725.813 1551.62 L698.886 1551.62 Q699.268 1557.67 702.515 1560.85 Q705.793 1564 711.618 1564 Q714.991 1564 718.143 1563.17 Q721.325 1562.35 724.445 1560.69 L724.445 1566.23 Q721.294 1567.57 717.983 1568.27 Q714.673 1568.97 711.268 1568.97 Q702.738 1568.97 697.74 1564 Q692.775 1559.04 692.775 1550.57 Q692.775 1541.82 697.486 1536.69 Q702.228 1531.54 710.249 1531.54 Q717.442 1531.54 721.612 1536.18 Q725.813 1540.8 725.813 1548.76 M719.957 1547.04 Q719.893 1542.23 717.251 1539.37 Q714.641 1536.5 710.313 1536.5 Q705.411 1536.5 702.451 1539.27 Q699.523 1542.04 699.077 1547.07 L719.957 1547.04 Z" fill="#000000" fill-rule="nonzero" fill-opacity="1" /><path clip-path="url(#clip150)" d="M755.605 1518.52 L769.1 1518.52 L769.1 1523.07 L761.461 1523.07 L761.461 1572.09 L769.1 1572.09 L769.1 1576.64 L755.605 1576.64 L755.605 1518.52 Z" fill="#000000" fill-rule="nonzero" fill-opacity="1" /><path clip-path="url(#clip150)" d="M804.302 1533.45 L804.302 1538.98 Q801.82 1537.71 799.146 1537.07 Q796.473 1536.44 793.608 1536.44 Q789.247 1536.44 787.051 1537.77 Q784.887 1539.11 784.887 1541.79 Q784.887 1543.82 786.447 1545 Q788.006 1546.15 792.717 1547.2 L794.722 1547.64 Q800.96 1548.98 803.57 1551.43 Q806.212 1553.85 806.212 1558.21 Q806.212 1563.17 802.265 1566.07 Q798.35 1568.97 791.475 1568.97 Q788.611 1568.97 785.492 1568.39 Q782.404 1567.85 778.967 1566.74 L778.967 1560.69 Q782.213 1562.38 785.364 1563.24 Q788.515 1564.07 791.603 1564.07 Q795.74 1564.07 797.968 1562.66 Q800.196 1561.23 800.196 1558.65 Q800.196 1556.27 798.573 1554.99 Q796.982 1553.72 791.539 1552.54 L789.502 1552.07 Q784.059 1550.92 781.64 1548.56 Q779.221 1546.18 779.221 1542.04 Q779.221 1537.01 782.786 1534.27 Q786.351 1531.54 792.908 1531.54 Q796.154 1531.54 799.019 1532.01 Q801.883 1532.49 804.302 1533.45 Z" fill="#000000" fill-rule="nonzero" fill-opacity="1" /><path clip-path="url(#clip150)" d="M829.224 1518.52 L829.224 1576.64 L815.729 1576.64 L815.729 1572.09 L823.336 1572.09 L823.336 1523.07 L815.729 1523.07 L815.729 1518.52 L829.224 1518.52 Z" fill="#000000" fill-rule="nonzero" fill-opacity="1" /><polyline clip-path="url(#clip150)" style="stroke:#000000; stroke-linecap:round; stroke-linejoin:round; stroke-width:4; stroke-opacity:1; fill:none" points="249.542,1423.18 249.542,815.61 "/>
<polyline clip-path="url(#clip150)" style="stroke:#000000; stroke-linecap:round; stroke-linejoin:round; stroke-width:4; stroke-opacity:1; fill:none" points="249.542,1401.61 268.44,1401.61 "/>
<polyline clip-path="url(#clip150)" style="stroke:#000000; stroke-linecap:round; stroke-linejoin:round; stroke-width:4; stroke-opacity:1; fill:none" points="249.542,1242.07 268.44,1242.07 "/>
<polyline clip-path="url(#clip150)" style="stroke:#000000; stroke-linecap:round; stroke-linejoin:round; stroke-width:4; stroke-opacity:1; fill:none" points="249.542,1082.54 268.44,1082.54 "/>
<polyline clip-path="url(#clip150)" style="stroke:#000000; stroke-linecap:round; stroke-linejoin:round; stroke-width:4; stroke-opacity:1; fill:none" points="249.542,923.005 268.44,923.005 "/>
<path clip-path="url(#clip150)" d="M156.366 1387.41 Q152.755 1387.41 150.927 1390.97 Q149.121 1394.51 149.121 1401.64 Q149.121 1408.75 150.927 1412.31 Q152.755 1415.86 156.366 1415.86 Q160.001 1415.86 161.806 1412.31 Q163.635 1408.75 163.635 1401.64 Q163.635 1394.51 161.806 1390.97 Q160.001 1387.41 156.366 1387.41 M156.366 1383.7 Q162.177 1383.7 165.232 1388.31 Q168.311 1392.89 168.311 1401.64 Q168.311 1410.37 165.232 1414.98 Q162.177 1419.56 156.366 1419.56 Q150.556 1419.56 147.478 1414.98 Q144.422 1410.37 144.422 1401.64 Q144.422 1392.89 147.478 1388.31 Q150.556 1383.7 156.366 1383.7 Z" fill="#000000" fill-rule="nonzero" fill-opacity="1" /><path clip-path="url(#clip150)" d="M176.528 1413.01 L181.413 1413.01 L181.413 1418.89 L176.528 1418.89 L176.528 1413.01 Z" fill="#000000" fill-rule="nonzero" fill-opacity="1" /><path clip-path="url(#clip150)" d="M201.598 1387.41 Q197.987 1387.41 196.158 1390.97 Q194.352 1394.51 194.352 1401.64 Q194.352 1408.75 196.158 1412.31 Q197.987 1415.86 201.598 1415.86 Q205.232 1415.86 207.037 1412.31 Q208.866 1408.75 208.866 1401.64 Q208.866 1394.51 207.037 1390.97 Q205.232 1387.41 201.598 1387.41 M201.598 1383.7 Q207.408 1383.7 210.463 1388.31 Q213.542 1392.89 213.542 1401.64 Q213.542 1410.37 210.463 1414.98 Q207.408 1419.56 201.598 1419.56 Q195.787 1419.56 192.709 1414.98 Q189.653 1410.37 189.653 1401.64 Q189.653 1392.89 192.709 1388.31 Q195.787 1383.7 201.598 1383.7 Z" fill="#000000" fill-rule="nonzero" fill-opacity="1" /><path clip-path="url(#clip150)" d="M157.593 1227.87 Q153.982 1227.87 152.153 1231.44 Q150.348 1234.98 150.348 1242.11 Q150.348 1249.22 152.153 1252.78 Q153.982 1256.32 157.593 1256.32 Q161.227 1256.32 163.033 1252.78 Q164.862 1249.22 164.862 1242.11 Q164.862 1234.98 163.033 1231.44 Q161.227 1227.87 157.593 1227.87 M157.593 1224.17 Q163.403 1224.17 166.459 1228.78 Q169.538 1233.36 169.538 1242.11 Q169.538 1250.84 166.459 1255.44 Q163.403 1260.03 157.593 1260.03 Q151.783 1260.03 148.704 1255.44 Q145.649 1250.84 145.649 1242.11 Q145.649 1233.36 148.704 1228.78 Q151.783 1224.17 157.593 1224.17 Z" fill="#000000" fill-rule="nonzero" fill-opacity="1" /><path clip-path="url(#clip150)" d="M177.755 1253.47 L182.639 1253.47 L182.639 1259.35 L177.755 1259.35 L177.755 1253.47 Z" fill="#000000" fill-rule="nonzero" fill-opacity="1" /><path clip-path="url(#clip150)" d="M193.635 1255.42 L201.274 1255.42 L201.274 1229.05 L192.963 1230.72 L192.963 1226.46 L201.227 1224.79 L205.903 1224.79 L205.903 1255.42 L213.542 1255.42 L213.542 1259.35 L193.635 1259.35 L193.635 1255.42 Z" fill="#000000" fill-rule="nonzero" fill-opacity="1" /><path clip-path="url(#clip150)" d="M157.964 1068.34 Q154.353 1068.34 152.524 1071.9 Q150.718 1075.44 150.718 1082.57 Q150.718 1089.68 152.524 1093.25 Q154.353 1096.79 157.964 1096.79 Q161.598 1096.79 163.403 1093.25 Q165.232 1089.68 165.232 1082.57 Q165.232 1075.44 163.403 1071.9 Q161.598 1068.34 157.964 1068.34 M157.964 1064.63 Q163.774 1064.63 166.829 1069.24 Q169.908 1073.82 169.908 1082.57 Q169.908 1091.3 166.829 1095.91 Q163.774 1100.49 157.964 1100.49 Q152.153 1100.49 149.075 1095.91 Q146.019 1091.3 146.019 1082.57 Q146.019 1073.82 149.075 1069.24 Q152.153 1064.63 157.964 1064.63 Z" fill="#000000" fill-rule="nonzero" fill-opacity="1" /><path clip-path="url(#clip150)" d="M178.126 1093.94 L183.01 1093.94 L183.01 1099.82 L178.126 1099.82 L178.126 1093.94 Z" fill="#000000" fill-rule="nonzero" fill-opacity="1" /><path clip-path="url(#clip150)" d="M197.223 1095.88 L213.542 1095.88 L213.542 1099.82 L191.598 1099.82 L191.598 1095.88 Q194.26 1093.13 198.843 1088.5 Q203.449 1083.85 204.63 1082.5 Q206.875 1079.98 207.755 1078.25 Q208.658 1076.49 208.658 1074.8 Q208.658 1072.04 206.713 1070.31 Q204.792 1068.57 201.69 1068.57 Q199.491 1068.57 197.037 1069.33 Q194.607 1070.1 191.829 1071.65 L191.829 1066.93 Q194.653 1065.79 197.107 1065.21 Q199.561 1064.63 201.598 1064.63 Q206.968 1064.63 210.162 1067.32 Q213.357 1070 213.357 1074.5 Q213.357 1076.63 212.547 1078.55 Q211.76 1080.44 209.653 1083.04 Q209.074 1083.71 205.973 1086.93 Q202.871 1090.12 197.223 1095.88 Z" fill="#000000" fill-rule="nonzero" fill-opacity="1" /><path clip-path="url(#clip150)" d="M157.015 908.804 Q153.403 908.804 151.575 912.368 Q149.769 915.91 149.769 923.04 Q149.769 930.146 151.575 933.711 Q153.403 937.253 157.015 937.253 Q160.649 937.253 162.454 933.711 Q164.283 930.146 164.283 923.04 Q164.283 915.91 162.454 912.368 Q160.649 908.804 157.015 908.804 M157.015 905.1 Q162.825 905.1 165.88 909.706 Q168.959 914.29 168.959 923.04 Q168.959 931.766 165.88 936.373 Q162.825 940.956 157.015 940.956 Q151.204 940.956 148.126 936.373 Q145.07 931.766 145.07 923.04 Q145.07 914.29 148.126 909.706 Q151.204 905.1 157.015 905.1 Z" fill="#000000" fill-rule="nonzero" fill-opacity="1" /><path clip-path="url(#clip150)" d="M177.176 934.405 L182.061 934.405 L182.061 940.285 L177.176 940.285 L177.176 934.405 Z" fill="#000000" fill-rule="nonzero" fill-opacity="1" /><path clip-path="url(#clip150)" d="M206.412 921.651 Q209.769 922.368 211.644 924.637 Q213.542 926.905 213.542 930.239 Q213.542 935.354 210.024 938.155 Q206.505 940.956 200.024 940.956 Q197.848 940.956 195.533 940.516 Q193.241 940.1 190.788 939.243 L190.788 934.729 Q192.732 935.864 195.047 936.442 Q197.362 937.021 199.885 937.021 Q204.283 937.021 206.574 935.285 Q208.889 933.549 208.889 930.239 Q208.889 927.183 206.737 925.47 Q204.607 923.734 200.787 923.734 L196.76 923.734 L196.76 919.891 L200.973 919.891 Q204.422 919.891 206.25 918.526 Q208.079 917.137 208.079 914.544 Q208.079 911.882 206.181 910.47 Q204.306 909.035 200.787 909.035 Q198.866 909.035 196.667 909.452 Q194.468 909.868 191.829 910.748 L191.829 906.581 Q194.491 905.841 196.806 905.47 Q199.144 905.1 201.204 905.1 Q206.528 905.1 209.63 907.53 Q212.732 909.938 212.732 914.058 Q212.732 916.929 211.088 918.919 Q209.445 920.887 206.412 921.651 Z" fill="#000000" fill-rule="nonzero" fill-opacity="1" /><path clip-path="url(#clip150)" d="M51.8797 1122.5 Q52.3306 1122.5 53.3934 1122.79 L78.5784 1129.11 Q84.1822 1130.49 88.1113 1135 Q92.0404 1139.48 92.0404 1144.56 Q92.0404 1147.62 90.3979 1149.59 Q88.7876 1151.55 86.3078 1151.55 Q84.1178 1151.55 83.055 1150.39 Q82.0244 1149.23 82.0244 1147.85 Q82.0244 1147.4 82.1532 1146.92 Q82.282 1146.43 82.8295 1145.92 Q83.377 1145.4 84.311 1145.4 Q85.8247 1145.4 87.0163 1146.72 Q87.5638 1147.37 87.6926 1147.98 Q87.8214 1148.56 87.8214 1149.56 Q88.7232 1149.17 89.3351 1148.46 Q89.947 1147.75 90.1725 1146.95 Q90.4301 1146.14 90.4945 1145.63 Q90.5911 1145.08 90.5911 1144.56 Q90.5911 1140.44 86.4366 1137.29 Q85.1806 1136.35 83.9245 1135.68 Q82.7007 1134.97 81.187 1134.45 Q79.7056 1133.94 78.9004 1133.71 Q78.0953 1133.45 76.2595 1133 Q79.2547 1136 79.2547 1139.67 Q79.2547 1141.21 78.836 1142.6 Q78.4173 1143.95 77.5478 1145.14 Q76.646 1146.34 75.0679 1147.04 Q73.4898 1147.72 71.3964 1147.72 Q69.1742 1147.72 66.1469 1146.85 Q63.1195 1145.98 57.5479 1143.89 Q54.424 1142.76 52.9103 1142.76 Q52.1695 1142.76 51.7187 1142.92 Q51.2356 1143.08 51.0745 1143.4 Q50.8813 1143.73 50.8491 1143.92 Q50.8169 1144.08 50.8169 1144.4 Q50.8169 1146.3 52.7493 1148.07 Q54.6816 1149.85 58.9972 1151.07 Q59.8023 1151.33 59.9956 1151.49 Q60.1888 1151.65 60.1888 1152.13 Q60.1566 1152.94 59.5125 1152.94 Q59.2548 1152.94 58.2565 1152.65 Q57.2259 1152.36 55.7122 1151.68 Q54.1663 1150.97 52.7815 1150.01 Q51.3644 1149.04 50.366 1147.53 Q49.3676 1145.98 49.3676 1144.21 Q49.3676 1141.79 50.9457 1140.31 Q52.4916 1138.8 54.7782 1138.8 Q55.7122 1138.8 56.5495 1139.06 Q57.3547 1139.28 59.5125 1140.12 Q68.2081 1143.5 72.4592 1143.5 Q73.4898 1143.5 74.3594 1143.34 Q75.1967 1143.15 76.0341 1142.73 Q76.8392 1142.31 77.3223 1141.47 Q77.7732 1140.6 77.7732 1139.41 Q77.7732 1137.9 77.0647 1136.48 Q76.3239 1135.03 75.3256 1134.13 Q74.3272 1133.2 73.4898 1132.65 Q72.6203 1132.07 72.1694 1131.94 L60.3176 1128.98 L55.0359 1127.66 Q52.1695 1127.04 51.461 1126.75 Q50.7847 1126.37 50.4304 1125.69 Q50.0762 1125.02 50.0762 1124.44 Q50.0762 1123.63 50.5593 1123.08 Q51.0423 1122.5 51.8797 1122.5 Z" fill="#000000" fill-rule="nonzero" fill-opacity="1" /><path clip-path="url(#clip150)" d="M110.181 1115.76 Q109.347 1115.76 109.099 1115.69 Q108.851 1115.6 108.468 1115.24 L98.5935 1106.38 Q93.1378 1101.53 88.381 1101.53 Q85.2924 1101.53 83.0831 1103.15 Q80.8738 1104.76 80.8738 1107.71 Q80.8738 1109.74 82.1137 1111.45 Q83.3536 1113.16 85.563 1113.95 Q85.5179 1113.82 85.5179 1113.34 Q85.5179 1112.2 86.2393 1111.56 Q86.9607 1110.91 87.9301 1110.91 Q89.17 1110.91 89.7787 1111.72 Q90.3649 1112.51 90.3649 1113.3 Q90.3649 1113.62 90.2972 1114.04 Q90.2296 1114.45 89.5984 1115.1 Q88.9446 1115.76 87.7948 1115.76 Q84.571 1115.76 82.001 1113.32 Q79.431 1110.86 79.431 1107.12 Q79.431 1102.88 81.9559 1100.11 Q84.4583 1097.32 88.381 1097.32 Q89.7562 1097.32 91.0186 1097.74 Q92.2586 1098.15 93.228 1098.71 Q94.1974 1099.25 95.7529 1100.74 Q97.3084 1102.23 98.4131 1103.43 Q99.5178 1104.62 101.862 1107.3 L106.619 1112.2 L106.619 1103.88 Q106.619 1099.82 106.258 1099.5 Q105.605 1099.05 102.155 1098.49 L102.155 1097.32 L110.181 1098.62 L110.181 1115.76 Z" fill="#000000" fill-rule="nonzero" fill-opacity="1" /><polyline clip-path="url(#clip153)" style="stroke:#000000; stroke-linecap:round; stroke-linejoin:round; stroke-width:1.6; stroke-opacity:1; fill:none" stroke-dasharray="8, 5" points="275.005,1401.61 283.579,1401.61 292.153,1401.61 300.726,1401.61 309.3,1401.61 317.873,1401.61 326.447,1401.61 335.02,1401.61 343.594,1401.61 352.167,1401.61 360.741,1401.61 369.314,1401.61 377.888,1401.61 386.461,1401.61 395.035,1401.61 403.608,1401.61 412.182,1401.61 420.756,1401.61 429.329,1401.61 437.903,1401.61 446.476,1401.61 455.05,1401.61 463.623,1401.61 472.197,1401.61 480.77,1401.61 489.344,1401.61 497.917,1401.61 506.491,1401.61 515.064,1401.61 523.638,1401.61 532.212,1401.61 540.785,1401.61 549.359,1401.61 557.932,1401.61 566.506,1401.61 575.079,1401.61 583.653,1401.61 592.226,1401.61 600.8,1401.61 609.373,1401.61 617.947,1401.61 626.52,1401.61 635.094,1401.61 643.668,1401.61 652.241,1401.61 660.815,1401.61 669.388,1401.61 677.962,1401.61 686.535,1401.61 695.109,1401.61 703.682,1401.61 712.256,1401.61 720.829,1401.61 729.403,1401.61 737.976,1401.61 746.55,1401.61 755.123,1401.61 763.697,1401.61 772.271,1401.61 780.844,1401.61 789.418,1401.61 797.991,1401.61 806.565,1401.61 815.138,1401.61 823.712,1401.61 832.285,1401.61 840.859,1401.61 849.432,1401.61 858.006,1401.61 866.579,1401.61 875.153,1401.61 883.727,1401.61 892.3,1401.61 900.874,1401.61 909.447,1401.61 918.021,1401.61 926.594,1401.61 935.168,1401.61 943.741,1401.61 952.315,1401.61 960.888,1401.61 969.462,1401.61 978.035,1401.61 986.609,1401.61 995.183,1401.61 1003.76,1401.61 1012.33,1401.61 1020.9,1401.61 1029.48,1401.61 1038.05,1401.61 1046.62,1401.61 1055.2,1401.61 1063.77,1401.61 1072.34,1401.61 1080.92,1401.61 1089.49,1401.61 1098.06,1401.61 1106.64,1401.61 1115.21,1401.61 1123.79,1401.61 "/>
<polyline clip-path="url(#clip153)" style="stroke:#009af9; stroke-linecap:round; stroke-linejoin:round; stroke-width:4; stroke-opacity:1; fill:none" points="275.005,1401.61 283.579,1353.75 292.153,1305.89 300.726,1258.03 309.3,1210.17 317.873,1162.31 326.447,1114.45 335.02,1066.59 343.594,1018.73 352.167,970.865 360.741,926.907 369.314,892.75 377.888,867.271 386.461,849.44 395.035,838.313 403.608,833.03 412.182,832.805 420.756,836.929 429.329,844.755 437.903,855.703 446.476,869.249 455.05,884.924 463.623,902.309 472.197,921.03 480.77,940.757 489.344,961.2 497.917,982.1 506.491,1003.24 515.064,1024.41 523.638,1045.47 532.212,1066.25 540.785,1086.65 549.359,1106.57 557.932,1125.91 566.506,1144.61 575.079,1162.63 583.653,1179.92 592.226,1196.46 600.8,1212.22 609.373,1227.19 617.947,1241.37 626.52,1254.77 635.094,1267.4 643.668,1279.26 652.241,1290.38 660.815,1300.77 669.388,1310.47 677.962,1319.48 686.535,1327.85 695.109,1335.6 703.682,1342.76 712.256,1349.35 720.829,1355.41 729.403,1360.97 737.976,1366.05 746.55,1370.68 755.123,1374.9 763.697,1378.72 772.271,1382.18 780.844,1385.3 789.418,1388.1 797.991,1390.61 806.565,1392.85 815.138,1394.83 823.712,1396.6 832.285,1398.15 840.859,1399.5 849.432,1400.69 858.006,1401.71 866.579,1402.59 875.153,1403.33 883.727,1403.96 892.3,1404.48 900.874,1404.91 909.447,1405.25 918.021,1405.51 926.594,1405.71 935.168,1405.85 943.741,1405.94 952.315,1405.98 960.888,1405.98 969.462,1405.95 978.035,1405.89 986.609,1405.81 995.183,1405.71 1003.76,1405.59 1012.33,1405.45 1020.9,1405.31 1029.48,1405.16 1038.05,1405 1046.62,1404.84 1055.2,1404.68 1063.77,1404.52 1072.34,1404.35 1080.92,1404.19 1089.49,1404.04 1098.06,1403.88 1106.64,1403.74 1115.21,1403.59 1123.79,1403.45 "/>
<path clip-path="url(#clip150)" d="M1453.05 1423.18 L2352.76 1423.18 L2352.76 47.2441 L1453.05 47.2441  Z" fill="#ffffff" fill-rule="evenodd" fill-opacity="1"/>
<polyline clip-path="url(#clip151)" style="stroke:#000000; stroke-linecap:round; stroke-linejoin:round; stroke-width:2; stroke-opacity:0.1; fill:none" points="1478.51,1423.18 1478.51,47.2441 "/>
<polyline clip-path="url(#clip151)" style="stroke:#000000; stroke-linecap:round; stroke-linejoin:round; stroke-width:2; stroke-opacity:0.1; fill:none" points="1692.85,1423.18 1692.85,47.2441 "/>
<polyline clip-path="url(#clip151)" style="stroke:#000000; stroke-linecap:round; stroke-linejoin:round; stroke-width:2; stroke-opacity:0.1; fill:none" points="1907.19,1423.18 1907.19,47.2441 "/>
<polyline clip-path="url(#clip151)" style="stroke:#000000; stroke-linecap:round; stroke-linejoin:round; stroke-width:2; stroke-opacity:0.1; fill:none" points="2121.53,1423.18 2121.53,47.2441 "/>
<polyline clip-path="url(#clip151)" style="stroke:#000000; stroke-linecap:round; stroke-linejoin:round; stroke-width:2; stroke-opacity:0.1; fill:none" points="2335.87,1423.18 2335.87,47.2441 "/>
<polyline clip-path="url(#clip151)" style="stroke:#000000; stroke-linecap:round; stroke-linejoin:round; stroke-width:2; stroke-opacity:0.1; fill:none" points="1453.05,1384.24 2352.76,1384.24 "/>
<polyline clip-path="url(#clip151)" style="stroke:#000000; stroke-linecap:round; stroke-linejoin:round; stroke-width:2; stroke-opacity:0.1; fill:none" points="1453.05,1167.9 2352.76,1167.9 "/>
<polyline clip-path="url(#clip151)" style="stroke:#000000; stroke-linecap:round; stroke-linejoin:round; stroke-width:2; stroke-opacity:0.1; fill:none" points="1453.05,951.554 2352.76,951.554 "/>
<polyline clip-path="url(#clip151)" style="stroke:#000000; stroke-linecap:round; stroke-linejoin:round; stroke-width:2; stroke-opacity:0.1; fill:none" points="1453.05,735.212 2352.76,735.212 "/>
<polyline clip-path="url(#clip151)" style="stroke:#000000; stroke-linecap:round; stroke-linejoin:round; stroke-width:2; stroke-opacity:0.1; fill:none" points="1453.05,518.87 2352.76,518.87 "/>
<polyline clip-path="url(#clip151)" style="stroke:#000000; stroke-linecap:round; stroke-linejoin:round; stroke-width:2; stroke-opacity:0.1; fill:none" points="1453.05,302.528 2352.76,302.528 "/>
<polyline clip-path="url(#clip151)" style="stroke:#000000; stroke-linecap:round; stroke-linejoin:round; stroke-width:2; stroke-opacity:0.1; fill:none" points="1453.05,86.1857 2352.76,86.1857 "/>
<polyline clip-path="url(#clip150)" style="stroke:#000000; stroke-linecap:round; stroke-linejoin:round; stroke-width:4; stroke-opacity:1; fill:none" points="1453.05,1423.18 2352.76,1423.18 "/>
<polyline clip-path="url(#clip150)" style="stroke:#000000; stroke-linecap:round; stroke-linejoin:round; stroke-width:4; stroke-opacity:1; fill:none" points="1478.51,1423.18 1478.51,1404.28 "/>
<polyline clip-path="url(#clip150)" style="stroke:#000000; stroke-linecap:round; stroke-linejoin:round; stroke-width:4; stroke-opacity:1; fill:none" points="1692.85,1423.18 1692.85,1404.28 "/>
<polyline clip-path="url(#clip150)" style="stroke:#000000; stroke-linecap:round; stroke-linejoin:round; stroke-width:4; stroke-opacity:1; fill:none" points="1907.19,1423.18 1907.19,1404.28 "/>
<polyline clip-path="url(#clip150)" style="stroke:#000000; stroke-linecap:round; stroke-linejoin:round; stroke-width:4; stroke-opacity:1; fill:none" points="2121.53,1423.18 2121.53,1404.28 "/>
<polyline clip-path="url(#clip150)" style="stroke:#000000; stroke-linecap:round; stroke-linejoin:round; stroke-width:4; stroke-opacity:1; fill:none" points="2335.87,1423.18 2335.87,1404.28 "/>
<path clip-path="url(#clip150)" d="M1455.9 1454.1 Q1452.29 1454.1 1450.46 1457.66 Q1448.65 1461.2 1448.65 1468.33 Q1448.65 1475.44 1450.46 1479.01 Q1452.29 1482.55 1455.9 1482.55 Q1459.53 1482.55 1461.34 1479.01 Q1463.17 1475.44 1463.17 1468.33 Q1463.17 1461.2 1461.34 1457.66 Q1459.53 1454.1 1455.9 1454.1 M1455.9 1450.39 Q1461.71 1450.39 1464.76 1455 Q1467.84 1459.58 1467.84 1468.33 Q1467.84 1477.06 1464.76 1481.67 Q1461.71 1486.25 1455.9 1486.25 Q1450.09 1486.25 1447.01 1481.67 Q1443.95 1477.06 1443.95 1468.33 Q1443.95 1459.58 1447.01 1455 Q1450.09 1450.39 1455.9 1450.39 Z" fill="#000000" fill-rule="nonzero" fill-opacity="1" /><path clip-path="url(#clip150)" d="M1476.06 1479.7 L1480.94 1479.7 L1480.94 1485.58 L1476.06 1485.58 L1476.06 1479.7 Z" fill="#000000" fill-rule="nonzero" fill-opacity="1" /><path clip-path="url(#clip150)" d="M1501.13 1454.1 Q1497.52 1454.1 1495.69 1457.66 Q1493.88 1461.2 1493.88 1468.33 Q1493.88 1475.44 1495.69 1479.01 Q1497.52 1482.55 1501.13 1482.55 Q1504.76 1482.55 1506.57 1479.01 Q1508.4 1475.44 1508.4 1468.33 Q1508.4 1461.2 1506.57 1457.66 Q1504.76 1454.1 1501.13 1454.1 M1501.13 1450.39 Q1506.94 1450.39 1509.99 1455 Q1513.07 1459.58 1513.07 1468.33 Q1513.07 1477.06 1509.99 1481.67 Q1506.94 1486.25 1501.13 1486.25 Q1495.32 1486.25 1492.24 1481.67 Q1489.18 1477.06 1489.18 1468.33 Q1489.18 1459.58 1492.24 1455 Q1495.32 1450.39 1501.13 1450.39 Z" fill="#000000" fill-rule="nonzero" fill-opacity="1" /><path clip-path="url(#clip150)" d="M1664.59 1481.64 L1680.91 1481.64 L1680.91 1485.58 L1658.96 1485.58 L1658.96 1481.64 Q1661.62 1478.89 1666.21 1474.26 Q1670.81 1469.61 1671.99 1468.27 Q1674.24 1465.74 1675.12 1464.01 Q1676.02 1462.25 1676.02 1460.56 Q1676.02 1457.8 1674.08 1456.07 Q1672.16 1454.33 1669.05 1454.33 Q1666.86 1454.33 1664.4 1455.09 Q1661.97 1455.86 1659.19 1457.41 L1659.19 1452.69 Q1662.02 1451.55 1664.47 1450.97 Q1666.92 1450.39 1668.96 1450.39 Q1674.33 1450.39 1677.53 1453.08 Q1680.72 1455.77 1680.72 1460.26 Q1680.72 1462.39 1679.91 1464.31 Q1679.12 1466.2 1677.02 1468.8 Q1676.44 1469.47 1673.34 1472.69 Q1670.24 1475.88 1664.59 1481.64 Z" fill="#000000" fill-rule="nonzero" fill-opacity="1" /><path clip-path="url(#clip150)" d="M1690.72 1479.7 L1695.61 1479.7 L1695.61 1485.58 L1690.72 1485.58 L1690.72 1479.7 Z" fill="#000000" fill-rule="nonzero" fill-opacity="1" /><path clip-path="url(#clip150)" d="M1705.84 1451.02 L1724.19 1451.02 L1724.19 1454.96 L1710.12 1454.96 L1710.12 1463.43 Q1711.14 1463.08 1712.16 1462.92 Q1713.17 1462.73 1714.19 1462.73 Q1719.98 1462.73 1723.36 1465.9 Q1726.74 1469.08 1726.74 1474.49 Q1726.74 1480.07 1723.27 1483.17 Q1719.8 1486.25 1713.48 1486.25 Q1711.3 1486.25 1709.03 1485.88 Q1706.79 1485.51 1704.38 1484.77 L1704.38 1480.07 Q1706.46 1481.2 1708.68 1481.76 Q1710.91 1482.32 1713.38 1482.32 Q1717.39 1482.32 1719.73 1480.21 Q1722.06 1478.1 1722.06 1474.49 Q1722.06 1470.88 1719.73 1468.77 Q1717.39 1466.67 1713.38 1466.67 Q1711.51 1466.67 1709.63 1467.08 Q1707.78 1467.5 1705.84 1468.38 L1705.84 1451.02 Z" fill="#000000" fill-rule="nonzero" fill-opacity="1" /><path clip-path="url(#clip150)" d="M1874.35 1451.02 L1892.71 1451.02 L1892.71 1454.96 L1878.64 1454.96 L1878.64 1463.43 Q1879.65 1463.08 1880.67 1462.92 Q1881.69 1462.73 1882.71 1462.73 Q1888.5 1462.73 1891.88 1465.9 Q1895.26 1469.08 1895.26 1474.49 Q1895.26 1480.07 1891.78 1483.17 Q1888.31 1486.25 1881.99 1486.25 Q1879.82 1486.25 1877.55 1485.88 Q1875.3 1485.51 1872.9 1484.77 L1872.9 1480.07 Q1874.98 1481.2 1877.2 1481.76 Q1879.42 1482.32 1881.9 1482.32 Q1885.9 1482.32 1888.24 1480.21 Q1890.58 1478.1 1890.58 1474.49 Q1890.58 1470.88 1888.24 1468.77 Q1885.9 1466.67 1881.9 1466.67 Q1880.02 1466.67 1878.15 1467.08 Q1876.3 1467.5 1874.35 1468.38 L1874.35 1451.02 Z" fill="#000000" fill-rule="nonzero" fill-opacity="1" /><path clip-path="url(#clip150)" d="M1904.47 1479.7 L1909.35 1479.7 L1909.35 1485.58 L1904.47 1485.58 L1904.47 1479.7 Z" fill="#000000" fill-rule="nonzero" fill-opacity="1" /><path clip-path="url(#clip150)" d="M1929.54 1454.1 Q1925.93 1454.1 1924.1 1457.66 Q1922.29 1461.2 1922.29 1468.33 Q1922.29 1475.44 1924.1 1479.01 Q1925.93 1482.55 1929.54 1482.55 Q1933.17 1482.55 1934.98 1479.01 Q1936.81 1475.44 1936.81 1468.33 Q1936.81 1461.2 1934.98 1457.66 Q1933.17 1454.1 1929.54 1454.1 M1929.54 1450.39 Q1935.35 1450.39 1938.4 1455 Q1941.48 1459.58 1941.48 1468.33 Q1941.48 1477.06 1938.4 1481.67 Q1935.35 1486.25 1929.54 1486.25 Q1923.73 1486.25 1920.65 1481.67 Q1917.59 1477.06 1917.59 1468.33 Q1917.59 1459.58 1920.65 1455 Q1923.73 1450.39 1929.54 1450.39 Z" fill="#000000" fill-rule="nonzero" fill-opacity="1" /><path clip-path="url(#clip150)" d="M2087.85 1451.02 L2110.07 1451.02 L2110.07 1453.01 L2097.52 1485.58 L2092.64 1485.58 L2104.44 1454.96 L2087.85 1454.96 L2087.85 1451.02 Z" fill="#000000" fill-rule="nonzero" fill-opacity="1" /><path clip-path="url(#clip150)" d="M2119.19 1479.7 L2124.07 1479.7 L2124.07 1485.58 L2119.19 1485.58 L2119.19 1479.7 Z" fill="#000000" fill-rule="nonzero" fill-opacity="1" /><path clip-path="url(#clip150)" d="M2134.31 1451.02 L2152.66 1451.02 L2152.66 1454.96 L2138.59 1454.96 L2138.59 1463.43 Q2139.61 1463.08 2140.62 1462.92 Q2141.64 1462.73 2142.66 1462.73 Q2148.45 1462.73 2151.83 1465.9 Q2155.21 1469.08 2155.21 1474.49 Q2155.21 1480.07 2151.74 1483.17 Q2148.26 1486.25 2141.94 1486.25 Q2139.77 1486.25 2137.5 1485.88 Q2135.25 1485.51 2132.85 1484.77 L2132.85 1480.07 Q2134.93 1481.2 2137.15 1481.76 Q2139.37 1482.32 2141.85 1482.32 Q2145.86 1482.32 2148.19 1480.21 Q2150.53 1478.1 2150.53 1474.49 Q2150.53 1470.88 2148.19 1468.77 Q2145.86 1466.67 2141.85 1466.67 Q2139.98 1466.67 2138.1 1467.08 Q2136.25 1467.5 2134.31 1468.38 L2134.31 1451.02 Z" fill="#000000" fill-rule="nonzero" fill-opacity="1" /><path clip-path="url(#clip150)" d="M2287.94 1481.64 L2295.58 1481.64 L2295.58 1455.28 L2287.27 1456.95 L2287.27 1452.69 L2295.53 1451.02 L2300.21 1451.02 L2300.21 1481.64 L2307.85 1481.64 L2307.85 1485.58 L2287.94 1485.58 L2287.94 1481.64 Z" fill="#000000" fill-rule="nonzero" fill-opacity="1" /><path clip-path="url(#clip150)" d="M2327.29 1454.1 Q2323.68 1454.1 2321.85 1457.66 Q2320.04 1461.2 2320.04 1468.33 Q2320.04 1475.44 2321.85 1479.01 Q2323.68 1482.55 2327.29 1482.55 Q2330.92 1482.55 2332.73 1479.01 Q2334.56 1475.44 2334.56 1468.33 Q2334.56 1461.2 2332.73 1457.66 Q2330.92 1454.1 2327.29 1454.1 M2327.29 1450.39 Q2333.1 1450.39 2336.16 1455 Q2339.23 1459.58 2339.23 1468.33 Q2339.23 1477.06 2336.16 1481.67 Q2333.1 1486.25 2327.29 1486.25 Q2321.48 1486.25 2318.4 1481.67 Q2315.35 1477.06 2315.35 1468.33 Q2315.35 1459.58 2318.4 1455 Q2321.48 1450.39 2327.29 1450.39 Z" fill="#000000" fill-rule="nonzero" fill-opacity="1" /><path clip-path="url(#clip150)" d="M2347.45 1479.7 L2352.34 1479.7 L2352.34 1485.58 L2347.45 1485.58 L2347.45 1479.7 Z" fill="#000000" fill-rule="nonzero" fill-opacity="1" /><path clip-path="url(#clip150)" d="M2372.52 1454.1 Q2368.91 1454.1 2367.08 1457.66 Q2365.28 1461.2 2365.28 1468.33 Q2365.28 1475.44 2367.08 1479.01 Q2368.91 1482.55 2372.52 1482.55 Q2376.16 1482.55 2377.96 1479.01 Q2379.79 1475.44 2379.79 1468.33 Q2379.79 1461.2 2377.96 1457.66 Q2376.16 1454.1 2372.52 1454.1 M2372.52 1450.39 Q2378.33 1450.39 2381.39 1455 Q2384.47 1459.58 2384.47 1468.33 Q2384.47 1477.06 2381.39 1481.67 Q2378.33 1486.25 2372.52 1486.25 Q2366.71 1486.25 2363.63 1481.67 Q2360.58 1477.06 2360.58 1468.33 Q2360.58 1459.58 2363.63 1455 Q2366.71 1450.39 2372.52 1450.39 Z" fill="#000000" fill-rule="nonzero" fill-opacity="1" /><path clip-path="url(#clip150)" d="M1773.07 1520.52 L1813.27 1520.52 L1813.27 1525.93 L1796.4 1525.93 L1796.4 1568.04 L1789.94 1568.04 L1789.94 1525.93 L1773.07 1525.93 L1773.07 1520.52 Z" fill="#000000" fill-rule="nonzero" fill-opacity="1" /><path clip-path="url(#clip150)" d="M1817.22 1532.4 L1823.08 1532.4 L1823.08 1568.04 L1817.22 1568.04 L1817.22 1532.4 M1817.22 1518.52 L1823.08 1518.52 L1823.08 1525.93 L1817.22 1525.93 L1817.22 1518.52 Z" fill="#000000" fill-rule="nonzero" fill-opacity="1" /><path clip-path="url(#clip150)" d="M1863.08 1539.24 Q1865.28 1535.29 1868.34 1533.41 Q1871.39 1531.54 1875.53 1531.54 Q1881.1 1531.54 1884.12 1535.45 Q1887.15 1539.33 1887.15 1546.53 L1887.15 1568.04 L1881.26 1568.04 L1881.26 1546.72 Q1881.26 1541.59 1879.44 1539.11 Q1877.63 1536.63 1873.91 1536.63 Q1869.36 1536.63 1866.71 1539.65 Q1864.07 1542.68 1864.07 1547.9 L1864.07 1568.04 L1858.18 1568.04 L1858.18 1546.72 Q1858.18 1541.56 1856.37 1539.11 Q1854.55 1536.63 1850.77 1536.63 Q1846.28 1536.63 1843.64 1539.68 Q1841 1542.71 1841 1547.9 L1841 1568.04 L1835.11 1568.04 L1835.11 1532.4 L1841 1532.4 L1841 1537.93 Q1843 1534.66 1845.8 1533.1 Q1848.6 1531.54 1852.45 1531.54 Q1856.34 1531.54 1859.04 1533.51 Q1861.78 1535.48 1863.08 1539.24 Z" fill="#000000" fill-rule="nonzero" fill-opacity="1" /><path clip-path="url(#clip150)" d="M1929.32 1548.76 L1929.32 1551.62 L1902.39 1551.62 Q1902.78 1557.67 1906.02 1560.85 Q1909.3 1564 1915.12 1564 Q1918.5 1564 1921.65 1563.17 Q1924.83 1562.35 1927.95 1560.69 L1927.95 1566.23 Q1924.8 1567.57 1921.49 1568.27 Q1918.18 1568.97 1914.77 1568.97 Q1906.24 1568.97 1901.25 1564 Q1896.28 1559.04 1896.28 1550.57 Q1896.28 1541.82 1900.99 1536.69 Q1905.74 1531.54 1913.76 1531.54 Q1920.95 1531.54 1925.12 1536.18 Q1929.32 1540.8 1929.32 1548.76 M1923.46 1547.04 Q1923.4 1542.23 1920.76 1539.37 Q1918.15 1536.5 1913.82 1536.5 Q1908.92 1536.5 1905.96 1539.27 Q1903.03 1542.04 1902.58 1547.07 L1923.46 1547.04 Z" fill="#000000" fill-rule="nonzero" fill-opacity="1" /><path clip-path="url(#clip150)" d="M1959.11 1518.52 L1972.61 1518.52 L1972.61 1523.07 L1964.97 1523.07 L1964.97 1572.09 L1972.61 1572.09 L1972.61 1576.64 L1959.11 1576.64 L1959.11 1518.52 Z" fill="#000000" fill-rule="nonzero" fill-opacity="1" /><path clip-path="url(#clip150)" d="M2007.81 1533.45 L2007.81 1538.98 Q2005.33 1537.71 2002.65 1537.07 Q1999.98 1536.44 1997.11 1536.44 Q1992.75 1536.44 1990.56 1537.77 Q1988.39 1539.11 1988.39 1541.79 Q1988.39 1543.82 1989.95 1545 Q1991.51 1546.15 1996.22 1547.2 L1998.23 1547.64 Q2004.47 1548.98 2007.08 1551.43 Q2009.72 1553.85 2009.72 1558.21 Q2009.72 1563.17 2005.77 1566.07 Q2001.86 1568.97 1994.98 1568.97 Q1992.12 1568.97 1989 1568.39 Q1985.91 1567.85 1982.47 1566.74 L1982.47 1560.69 Q1985.72 1562.38 1988.87 1563.24 Q1992.02 1564.07 1995.11 1564.07 Q1999.25 1564.07 2001.48 1562.66 Q2003.7 1561.23 2003.7 1558.65 Q2003.7 1556.27 2002.08 1554.99 Q2000.49 1553.72 1995.05 1552.54 L1993.01 1552.07 Q1987.57 1550.92 1985.15 1548.56 Q1982.73 1546.18 1982.73 1542.04 Q1982.73 1537.01 1986.29 1534.27 Q1989.86 1531.54 1996.41 1531.54 Q1999.66 1531.54 2002.53 1532.01 Q2005.39 1532.49 2007.81 1533.45 Z" fill="#000000" fill-rule="nonzero" fill-opacity="1" /><path clip-path="url(#clip150)" d="M2032.73 1518.52 L2032.73 1576.64 L2019.24 1576.64 L2019.24 1572.09 L2026.84 1572.09 L2026.84 1523.07 L2019.24 1523.07 L2019.24 1518.52 L2032.73 1518.52 Z" fill="#000000" fill-rule="nonzero" fill-opacity="1" /><polyline clip-path="url(#clip150)" style="stroke:#000000; stroke-linecap:round; stroke-linejoin:round; stroke-width:4; stroke-opacity:1; fill:none" points="1453.05,1423.18 1453.05,47.2441 "/>
<polyline clip-path="url(#clip150)" style="stroke:#000000; stroke-linecap:round; stroke-linejoin:round; stroke-width:4; stroke-opacity:1; fill:none" points="1453.05,1384.24 1471.95,1384.24 "/>
<polyline clip-path="url(#clip150)" style="stroke:#000000; stroke-linecap:round; stroke-linejoin:round; stroke-width:4; stroke-opacity:1; fill:none" points="1453.05,1167.9 1471.95,1167.9 "/>
<polyline clip-path="url(#clip150)" style="stroke:#000000; stroke-linecap:round; stroke-linejoin:round; stroke-width:4; stroke-opacity:1; fill:none" points="1453.05,951.554 1471.95,951.554 "/>
<polyline clip-path="url(#clip150)" style="stroke:#000000; stroke-linecap:round; stroke-linejoin:round; stroke-width:4; stroke-opacity:1; fill:none" points="1453.05,735.212 1471.95,735.212 "/>
<polyline clip-path="url(#clip150)" style="stroke:#000000; stroke-linecap:round; stroke-linejoin:round; stroke-width:4; stroke-opacity:1; fill:none" points="1453.05,518.87 1471.95,518.87 "/>
<polyline clip-path="url(#clip150)" style="stroke:#000000; stroke-linecap:round; stroke-linejoin:round; stroke-width:4; stroke-opacity:1; fill:none" points="1453.05,302.528 1471.95,302.528 "/>
<polyline clip-path="url(#clip150)" style="stroke:#000000; stroke-linecap:round; stroke-linejoin:round; stroke-width:4; stroke-opacity:1; fill:none" points="1453.05,86.1857 1471.95,86.1857 "/>
<path clip-path="url(#clip150)" d="M1310.75 1384.69 L1340.43 1384.69 L1340.43 1388.62 L1310.75 1388.62 L1310.75 1384.69 Z" fill="#000000" fill-rule="nonzero" fill-opacity="1" /><path clip-path="url(#clip150)" d="M1360.52 1370.04 Q1356.91 1370.04 1355.08 1373.6 Q1353.28 1377.14 1353.28 1384.27 Q1353.28 1391.38 1355.08 1394.94 Q1356.91 1398.49 1360.52 1398.49 Q1364.16 1398.49 1365.96 1394.94 Q1367.79 1391.38 1367.79 1384.27 Q1367.79 1377.14 1365.96 1373.6 Q1364.16 1370.04 1360.52 1370.04 M1360.52 1366.33 Q1366.33 1366.33 1369.39 1370.94 Q1372.47 1375.52 1372.47 1384.27 Q1372.47 1393 1369.39 1397.61 Q1366.33 1402.19 1360.52 1402.19 Q1354.71 1402.19 1351.63 1397.61 Q1348.58 1393 1348.58 1384.27 Q1348.58 1375.52 1351.63 1370.94 Q1354.71 1366.33 1360.52 1366.33 Z" fill="#000000" fill-rule="nonzero" fill-opacity="1" /><path clip-path="url(#clip150)" d="M1380.68 1395.64 L1385.57 1395.64 L1385.57 1401.52 L1380.68 1401.52 L1380.68 1395.64 Z" fill="#000000" fill-rule="nonzero" fill-opacity="1" /><path clip-path="url(#clip150)" d="M1409.92 1382.88 Q1413.28 1383.6 1415.15 1385.87 Q1417.05 1388.14 1417.05 1391.47 Q1417.05 1396.59 1413.53 1399.39 Q1410.01 1402.19 1403.53 1402.19 Q1401.35 1402.19 1399.04 1401.75 Q1396.75 1401.33 1394.29 1400.48 L1394.29 1395.96 Q1396.24 1397.1 1398.55 1397.68 Q1400.87 1398.25 1403.39 1398.25 Q1407.79 1398.25 1410.08 1396.52 Q1412.4 1394.78 1412.4 1391.47 Q1412.4 1388.42 1410.24 1386.7 Q1408.11 1384.97 1404.29 1384.97 L1400.27 1384.97 L1400.27 1381.12 L1404.48 1381.12 Q1407.93 1381.12 1409.76 1379.76 Q1411.59 1378.37 1411.59 1375.78 Q1411.59 1373.12 1409.69 1371.7 Q1407.81 1370.27 1404.29 1370.27 Q1402.37 1370.27 1400.17 1370.69 Q1397.97 1371.1 1395.34 1371.98 L1395.34 1367.81 Q1398 1367.07 1400.31 1366.7 Q1402.65 1366.33 1404.71 1366.33 Q1410.04 1366.33 1413.14 1368.76 Q1416.24 1371.17 1416.24 1375.29 Q1416.24 1378.16 1414.6 1380.15 Q1412.95 1382.12 1409.92 1382.88 Z" fill="#000000" fill-rule="nonzero" fill-opacity="1" /><path clip-path="url(#clip150)" d="M1311.7 1168.35 L1341.38 1168.35 L1341.38 1172.28 L1311.7 1172.28 L1311.7 1168.35 Z" fill="#000000" fill-rule="nonzero" fill-opacity="1" /><path clip-path="url(#clip150)" d="M1361.47 1153.69 Q1357.86 1153.69 1356.03 1157.26 Q1354.23 1160.8 1354.23 1167.93 Q1354.23 1175.04 1356.03 1178.6 Q1357.86 1182.14 1361.47 1182.14 Q1365.1 1182.14 1366.91 1178.6 Q1368.74 1175.04 1368.74 1167.93 Q1368.74 1160.8 1366.91 1157.26 Q1365.1 1153.69 1361.47 1153.69 M1361.47 1149.99 Q1367.28 1149.99 1370.34 1154.6 Q1373.41 1159.18 1373.41 1167.93 Q1373.41 1176.66 1370.34 1181.26 Q1367.28 1185.85 1361.47 1185.85 Q1355.66 1185.85 1352.58 1181.26 Q1349.53 1176.66 1349.53 1167.93 Q1349.53 1159.18 1352.58 1154.6 Q1355.66 1149.99 1361.47 1149.99 Z" fill="#000000" fill-rule="nonzero" fill-opacity="1" /><path clip-path="url(#clip150)" d="M1381.63 1179.3 L1386.52 1179.3 L1386.52 1185.18 L1381.63 1185.18 L1381.63 1179.3 Z" fill="#000000" fill-rule="nonzero" fill-opacity="1" /><path clip-path="url(#clip150)" d="M1400.73 1181.24 L1417.05 1181.24 L1417.05 1185.18 L1395.1 1185.18 L1395.1 1181.24 Q1397.77 1178.49 1402.35 1173.86 Q1406.96 1169.2 1408.14 1167.86 Q1410.38 1165.34 1411.26 1163.6 Q1412.16 1161.84 1412.16 1160.15 Q1412.16 1157.4 1410.22 1155.66 Q1408.3 1153.93 1405.2 1153.93 Q1403 1153.93 1400.54 1154.69 Q1398.11 1155.45 1395.34 1157.01 L1395.34 1152.28 Q1398.16 1151.15 1400.61 1150.57 Q1403.07 1149.99 1405.1 1149.99 Q1410.47 1149.99 1413.67 1152.68 Q1416.86 1155.36 1416.86 1159.85 Q1416.86 1161.98 1416.05 1163.9 Q1415.27 1165.8 1413.16 1168.39 Q1412.58 1169.07 1409.48 1172.28 Q1406.38 1175.48 1400.73 1181.24 Z" fill="#000000" fill-rule="nonzero" fill-opacity="1" /><path clip-path="url(#clip150)" d="M1311.33 952.005 L1341.01 952.005 L1341.01 955.941 L1311.33 955.941 L1311.33 952.005 Z" fill="#000000" fill-rule="nonzero" fill-opacity="1" /><path clip-path="url(#clip150)" d="M1361.1 937.353 Q1357.49 937.353 1355.66 940.918 Q1353.85 944.459 1353.85 951.589 Q1353.85 958.695 1355.66 962.26 Q1357.49 965.802 1361.1 965.802 Q1364.73 965.802 1366.54 962.26 Q1368.37 958.695 1368.37 951.589 Q1368.37 944.459 1366.54 940.918 Q1364.73 937.353 1361.1 937.353 M1361.1 933.649 Q1366.91 933.649 1369.97 938.256 Q1373.04 942.839 1373.04 951.589 Q1373.04 960.316 1369.97 964.922 Q1366.91 969.505 1361.1 969.505 Q1355.29 969.505 1352.21 964.922 Q1349.16 960.316 1349.16 951.589 Q1349.16 942.839 1352.21 938.256 Q1355.29 933.649 1361.1 933.649 Z" fill="#000000" fill-rule="nonzero" fill-opacity="1" /><path clip-path="url(#clip150)" d="M1381.26 962.954 L1386.15 962.954 L1386.15 968.834 L1381.26 968.834 L1381.26 962.954 Z" fill="#000000" fill-rule="nonzero" fill-opacity="1" /><path clip-path="url(#clip150)" d="M1397.14 964.899 L1404.78 964.899 L1404.78 938.533 L1396.47 940.2 L1396.47 935.941 L1404.73 934.274 L1409.41 934.274 L1409.41 964.899 L1417.05 964.899 L1417.05 968.834 L1397.14 968.834 L1397.14 964.899 Z" fill="#000000" fill-rule="nonzero" fill-opacity="1" /><path clip-path="url(#clip150)" d="M1359.87 721.011 Q1356.26 721.011 1354.43 724.575 Q1352.63 728.117 1352.63 735.247 Q1352.63 742.353 1354.43 745.918 Q1356.26 749.46 1359.87 749.46 Q1363.51 749.46 1365.31 745.918 Q1367.14 742.353 1367.14 735.247 Q1367.14 728.117 1365.31 724.575 Q1363.51 721.011 1359.87 721.011 M1359.87 717.307 Q1365.68 717.307 1368.74 721.913 Q1371.82 726.497 1371.82 735.247 Q1371.82 743.973 1368.74 748.58 Q1365.68 753.163 1359.87 753.163 Q1354.06 753.163 1350.98 748.58 Q1347.93 743.973 1347.93 735.247 Q1347.93 726.497 1350.98 721.913 Q1354.06 717.307 1359.87 717.307 Z" fill="#000000" fill-rule="nonzero" fill-opacity="1" /><path clip-path="url(#clip150)" d="M1380.04 746.612 L1384.92 746.612 L1384.92 752.492 L1380.04 752.492 L1380.04 746.612 Z" fill="#000000" fill-rule="nonzero" fill-opacity="1" /><path clip-path="url(#clip150)" d="M1405.1 721.011 Q1401.49 721.011 1399.66 724.575 Q1397.86 728.117 1397.86 735.247 Q1397.86 742.353 1399.66 745.918 Q1401.49 749.46 1405.1 749.46 Q1408.74 749.46 1410.54 745.918 Q1412.37 742.353 1412.37 735.247 Q1412.37 728.117 1410.54 724.575 Q1408.74 721.011 1405.1 721.011 M1405.1 717.307 Q1410.91 717.307 1413.97 721.913 Q1417.05 726.497 1417.05 735.247 Q1417.05 743.973 1413.97 748.58 Q1410.91 753.163 1405.1 753.163 Q1399.29 753.163 1396.22 748.58 Q1393.16 743.973 1393.16 735.247 Q1393.16 726.497 1396.22 721.913 Q1399.29 717.307 1405.1 717.307 Z" fill="#000000" fill-rule="nonzero" fill-opacity="1" /><path clip-path="url(#clip150)" d="M1361.1 504.669 Q1357.49 504.669 1355.66 508.233 Q1353.85 511.775 1353.85 518.905 Q1353.85 526.011 1355.66 529.576 Q1357.49 533.117 1361.1 533.117 Q1364.73 533.117 1366.54 529.576 Q1368.37 526.011 1368.37 518.905 Q1368.37 511.775 1366.54 508.233 Q1364.73 504.669 1361.1 504.669 M1361.1 500.965 Q1366.91 500.965 1369.97 505.571 Q1373.04 510.155 1373.04 518.905 Q1373.04 527.631 1369.97 532.238 Q1366.91 536.821 1361.1 536.821 Q1355.29 536.821 1352.21 532.238 Q1349.16 527.631 1349.16 518.905 Q1349.16 510.155 1352.21 505.571 Q1355.29 500.965 1361.1 500.965 Z" fill="#000000" fill-rule="nonzero" fill-opacity="1" /><path clip-path="url(#clip150)" d="M1381.26 530.27 L1386.15 530.27 L1386.15 536.15 L1381.26 536.15 L1381.26 530.27 Z" fill="#000000" fill-rule="nonzero" fill-opacity="1" /><path clip-path="url(#clip150)" d="M1397.14 532.215 L1404.78 532.215 L1404.78 505.849 L1396.47 507.516 L1396.47 503.257 L1404.73 501.59 L1409.41 501.59 L1409.41 532.215 L1417.05 532.215 L1417.05 536.15 L1397.14 536.15 L1397.14 532.215 Z" fill="#000000" fill-rule="nonzero" fill-opacity="1" /><path clip-path="url(#clip150)" d="M1361.47 288.326 Q1357.86 288.326 1356.03 291.891 Q1354.23 295.433 1354.23 302.562 Q1354.23 309.669 1356.03 313.234 Q1357.86 316.775 1361.47 316.775 Q1365.1 316.775 1366.91 313.234 Q1368.74 309.669 1368.74 302.562 Q1368.74 295.433 1366.91 291.891 Q1365.1 288.326 1361.47 288.326 M1361.47 284.623 Q1367.28 284.623 1370.34 289.229 Q1373.41 293.813 1373.41 302.562 Q1373.41 311.289 1370.34 315.896 Q1367.28 320.479 1361.47 320.479 Q1355.66 320.479 1352.58 315.896 Q1349.53 311.289 1349.53 302.562 Q1349.53 293.813 1352.58 289.229 Q1355.66 284.623 1361.47 284.623 Z" fill="#000000" fill-rule="nonzero" fill-opacity="1" /><path clip-path="url(#clip150)" d="M1381.63 313.928 L1386.52 313.928 L1386.52 319.808 L1381.63 319.808 L1381.63 313.928 Z" fill="#000000" fill-rule="nonzero" fill-opacity="1" /><path clip-path="url(#clip150)" d="M1400.73 315.873 L1417.05 315.873 L1417.05 319.808 L1395.1 319.808 L1395.1 315.873 Q1397.77 313.118 1402.35 308.488 Q1406.96 303.836 1408.14 302.493 Q1410.38 299.97 1411.26 298.234 Q1412.16 296.475 1412.16 294.785 Q1412.16 292.03 1410.22 290.294 Q1408.3 288.558 1405.2 288.558 Q1403 288.558 1400.54 289.322 Q1398.11 290.086 1395.34 291.637 L1395.34 286.914 Q1398.16 285.78 1400.61 285.201 Q1403.07 284.623 1405.1 284.623 Q1410.47 284.623 1413.67 287.308 Q1416.86 289.993 1416.86 294.484 Q1416.86 296.613 1416.05 298.535 Q1415.27 300.433 1413.16 303.025 Q1412.58 303.697 1409.48 306.914 Q1406.38 310.109 1400.73 315.873 Z" fill="#000000" fill-rule="nonzero" fill-opacity="1" /><path clip-path="url(#clip150)" d="M1360.52 71.9844 Q1356.91 71.9844 1355.08 75.5492 Q1353.28 79.0908 1353.28 86.2204 Q1353.28 93.3268 1355.08 96.8916 Q1356.91 100.433 1360.52 100.433 Q1364.16 100.433 1365.96 96.8916 Q1367.79 93.3268 1367.79 86.2204 Q1367.79 79.0908 1365.96 75.5492 Q1364.16 71.9844 1360.52 71.9844 M1360.52 68.2807 Q1366.33 68.2807 1369.39 72.8871 Q1372.47 77.4704 1372.47 86.2204 Q1372.47 94.9472 1369.39 99.5537 Q1366.33 104.137 1360.52 104.137 Q1354.71 104.137 1351.63 99.5537 Q1348.58 94.9472 1348.58 86.2204 Q1348.58 77.4704 1351.63 72.8871 Q1354.71 68.2807 1360.52 68.2807 Z" fill="#000000" fill-rule="nonzero" fill-opacity="1" /><path clip-path="url(#clip150)" d="M1380.68 97.5861 L1385.57 97.5861 L1385.57 103.466 L1380.68 103.466 L1380.68 97.5861 Z" fill="#000000" fill-rule="nonzero" fill-opacity="1" /><path clip-path="url(#clip150)" d="M1409.92 84.8315 Q1413.28 85.5491 1415.15 87.8176 Q1417.05 90.0861 1417.05 93.4194 Q1417.05 98.5351 1413.53 101.336 Q1410.01 104.137 1403.53 104.137 Q1401.35 104.137 1399.04 103.697 Q1396.75 103.28 1394.29 102.424 L1394.29 97.9101 Q1396.24 99.0444 1398.55 99.6231 Q1400.87 100.202 1403.39 100.202 Q1407.79 100.202 1410.08 98.4657 Q1412.4 96.7296 1412.4 93.4194 Q1412.4 90.3639 1410.24 88.6509 Q1408.11 86.9148 1404.29 86.9148 L1400.27 86.9148 L1400.27 83.0723 L1404.48 83.0723 Q1407.93 83.0723 1409.76 81.7065 Q1411.59 80.3176 1411.59 77.7251 Q1411.59 75.063 1409.69 73.651 Q1407.81 72.2158 1404.29 72.2158 Q1402.37 72.2158 1400.17 72.6325 Q1397.97 73.0492 1395.34 73.9288 L1395.34 69.7621 Q1398 69.0214 1400.31 68.651 Q1402.65 68.2807 1404.71 68.2807 Q1410.04 68.2807 1413.14 70.7112 Q1416.24 73.1186 1416.24 77.239 Q1416.24 80.1093 1414.6 82.1 Q1412.95 84.0676 1409.92 84.8315 Z" fill="#000000" fill-rule="nonzero" fill-opacity="1" /><path clip-path="url(#clip150)" d="M1241.74 736.561 Q1245.89 737.398 1248.27 738.525 Q1251.91 740.361 1251.91 743.421 Q1251.91 745.546 1250.72 747.156 Q1249.5 748.734 1247.47 749.282 Q1248.27 749.894 1248.82 750.441 Q1249.37 750.957 1250.21 751.955 Q1251.01 752.953 1251.46 754.306 Q1251.91 755.627 1251.91 757.14 Q1251.91 758.3 1251.69 759.362 Q1251.5 760.425 1250.95 761.552 Q1250.37 762.647 1249.5 763.453 Q1248.63 764.226 1247.21 764.741 Q1245.79 765.256 1243.99 765.256 Q1241.74 765.256 1238.68 764.387 Q1235.62 763.485 1230.14 761.424 Q1227.24 760.296 1225.63 760.296 Q1224.89 760.296 1224.41 760.457 Q1223.93 760.618 1223.77 760.941 Q1223.57 761.23 1223.54 761.424 Q1223.48 761.617 1223.48 761.939 Q1223.48 763.936 1225.51 765.675 Q1227.53 767.414 1231.66 768.606 Q1232.46 768.863 1232.65 769.024 Q1232.85 769.185 1232.85 769.668 Q1232.82 770.473 1232.17 770.473 Q1231.91 770.473 1230.92 770.184 Q1229.89 769.894 1228.37 769.217 Q1226.83 768.509 1225.44 767.543 Q1224.02 766.577 1223.03 765.063 Q1222.03 763.517 1222.03 761.746 Q1222.03 759.33 1223.61 757.849 Q1225.15 756.335 1227.44 756.335 Q1228.85 756.335 1231.59 757.462 Q1241.09 761.037 1245.05 761.037 Q1250.43 761.037 1250.43 756.947 Q1250.43 755.594 1249.89 754.338 Q1249.34 753.05 1248.56 752.213 Q1247.79 751.375 1246.95 750.731 Q1246.12 750.055 1245.57 749.765 Q1245.02 749.443 1244.89 749.411 L1225.05 744.483 Q1224.28 744.29 1223.77 743.936 Q1223.22 743.549 1223.03 743.098 Q1222.83 742.648 1222.8 742.39 Q1222.74 742.132 1222.74 741.907 Q1222.74 741.102 1223.22 740.554 Q1223.7 739.975 1224.54 739.975 Q1224.7 739.975 1225.47 740.168 Q1226.21 740.329 1227.31 740.586 Q1228.37 740.844 1228.95 740.973 Q1233.01 742.003 1233.43 742.1 L1240.55 743.936 Q1240.96 744.032 1242.32 744.354 Q1243.67 744.644 1244.38 744.805 Q1245.05 744.966 1245.99 745.127 Q1246.89 745.256 1247.41 745.256 Q1249.02 745.256 1249.72 744.773 Q1250.43 744.29 1250.43 743.227 Q1250.43 742.229 1249.76 741.456 Q1249.05 740.651 1247.7 740.039 Q1246.31 739.427 1245.18 739.073 Q1244.06 738.718 1242.28 738.268 Q1241.51 738.107 1241.32 737.978 Q1241.09 737.817 1241.09 737.366 Q1241.09 736.561 1241.74 736.561 Z" fill="#000000" fill-rule="nonzero" fill-opacity="1" /><path clip-path="url(#clip150)" d="M1243.83 729.855 L1242.39 729.855 Q1242.39 724.309 1239.43 721.446 Q1239.43 720.657 1239.61 720.522 Q1239.79 720.387 1240.63 720.387 L1266.53 720.387 Q1267.91 720.387 1268.34 719.71 Q1268.76 719.034 1268.76 716.081 L1268.76 714.616 L1270.18 714.616 Q1270.05 716.239 1270.05 722.1 Q1270.05 727.962 1270.18 729.562 L1268.76 729.562 L1268.76 728.097 Q1268.76 725.189 1268.36 724.49 Q1267.93 723.791 1266.53 723.791 L1242.61 723.791 Q1243.83 726.203 1243.83 729.855 Z" fill="#000000" fill-rule="nonzero" fill-opacity="1" /><polyline clip-path="url(#clip151)" style="stroke:#000000; stroke-linecap:round; stroke-linejoin:round; stroke-width:3.2; stroke-opacity:1; fill:none" stroke-dasharray="13, 8" points="1478.51,1384.24 2327.29,1384.24 "/>
<polyline clip-path="url(#clip151)" style="stroke:#000000; stroke-linecap:round; stroke-linejoin:round; stroke-width:3.2; stroke-opacity:1; fill:none" stroke-dasharray="13, 8" points="1478.51,86.1857 2327.29,86.1857 "/>
<polyline clip-path="url(#clip151)" style="stroke:#009af9; stroke-linecap:round; stroke-linejoin:round; stroke-width:4; stroke-opacity:1; fill:none" points="1478.51,86.1857 1487.09,86.1857 1487.09,86.1857 1495.66,86.1857 1495.66,86.1857 1504.23,86.1857 1504.23,86.1857 1512.81,86.1857 1512.81,86.1857 1521.38,86.1857 1521.38,86.1857 1529.95,86.1857 1529.95,86.1857 1538.53,86.1857 1538.53,86.1857 1547.1,86.1857 1555.67,86.1857 1555.67,139.098 1564.25,139.098 1564.25,272.013 1572.82,272.013 1572.82,389.698 1581.39,389.698 1581.39,493.407 1589.97,493.407 1589.97,584.325 1598.54,584.325 1598.54,663.565 1607.12,663.565 1607.12,732.173 1615.69,732.173 1615.69,791.128 1624.26,791.128 1624.26,841.345 1632.84,841.345 1632.84,883.674 1641.41,883.674 1641.41,918.906 1649.98,918.906 1649.98,947.776 1658.56,947.776 1658.56,970.962 1667.13,970.962 1667.13,989.089 1675.7,989.089 1675.7,1002.73 1684.28,1002.73 1684.28,1012.42 1692.85,1012.42 1692.85,1018.64 1701.42,1018.64 1701.42,1021.84 1710,1021.84 1710,1022.4 1718.57,1022.4 1718.57,1020.71 1727.14,1020.71 1727.14,1017.09 1735.72,1017.09 1735.72,1011.84 1744.29,1011.84 1744.29,1005.24 1752.87,1005.24 1752.87,997.512 1761.44,997.512 1761.44,988.888 1770.01,988.888 1770.01,979.555 1778.59,979.555 1778.59,969.684 1787.16,969.684 1787.16,959.426 1795.73,959.426 1795.73,948.913 1804.31,948.913 1804.31,938.262 1812.88,938.262 1812.88,927.572 1821.45,927.572 1821.45,916.931 1830.03,916.931 1830.03,906.411 1838.6,906.411 1838.6,896.076 1847.17,896.076 1847.17,885.978 1855.75,885.978 1855.75,876.16 1864.32,876.16 1864.32,866.657 1872.9,866.657 1872.9,857.497 1881.47,857.497 1881.47,848.701 1890.04,848.701 1890.04,840.285 1898.62,840.285 1898.62,832.258 1907.19,832.258 1907.19,824.627 1915.76,824.627 1915.76,817.394 1924.34,817.394 1924.34,810.557 1932.91,810.557 1932.91,804.113 1941.48,804.113 1941.48,798.055 1950.06,798.055 1950.06,792.374 1958.63,792.374 1958.63,787.061 1967.2,787.061 1967.2,782.104 1975.78,782.104 1975.78,777.49 1984.35,777.49 1984.35,773.206 1992.92,773.206 1992.92,769.238 2001.5,769.238 2001.5,765.571 2010.07,765.571 2010.07,762.191 2018.65,762.191 2018.65,759.083 2027.22,759.083 2027.22,756.232 2035.79,756.232 2035.79,753.624 2044.37,753.624 2044.37,751.244 2052.94,751.244 2052.94,749.078 2061.51,749.078 2061.51,747.112 2070.09,747.112 2070.09,745.334 2078.66,745.334 2078.66,743.729 2087.23,743.729 2087.23,742.286 2095.81,742.286 2095.81,740.993 2104.38,740.993 2104.38,739.838 2112.95,739.838 2112.95,738.811 2121.53,738.811 2121.53,737.902 2130.1,737.902 2130.1,737.1 2138.67,737.1 2138.67,736.397 2147.25,736.397 2147.25,735.784 2155.82,735.784 2155.82,735.254 2164.4,735.254 2164.4,734.798 2172.97,734.798 2172.97,734.409 2181.54,734.409 2181.54,734.081 2190.12,734.081 2190.12,733.808 2198.69,733.808 2198.69,733.585 2207.26,733.585 2207.26,733.405 2215.84,733.405 2215.84,733.264 2224.41,733.264 2224.41,733.158 2232.98,733.158 2232.98,733.082 2241.56,733.082 2241.56,733.033 2250.13,733.033 2250.13,733.008 2258.7,733.008 2258.7,733.003 2267.28,733.003 2267.28,733.015 2275.85,733.015 2275.85,733.043 2284.42,733.043 2284.42,733.083 2293,733.083 2293,733.133 2301.57,733.133 2301.57,733.192 2310.15,733.192 2310.15,733.258 2318.72,733.258 2318.72,733.33 2327.29,733.33 2327.29,733.406 "/>
</svg>
