<?xml version="1.0" encoding="utf-8"?>
<svg xmlns="http://www.w3.org/2000/svg" xmlns:xlink="http://www.w3.org/1999/xlink" width="600" height="400" viewBox="0 0 2400 1600">
<defs>
  <clipPath id="clip160">
    <rect x="0" y="0" width="2400" height="1600"/>
  </clipPath>
</defs>
<path clip-path="url(#clip160)" d="M0 1600 L2400 1600 L2400 0 L0 0  Z" fill="#ffffff" fill-rule="evenodd" fill-opacity="1"/>
<defs>
  <clipPath id="clip161">
    <rect x="480" y="0" width="1681" height="1600"/>
  </clipPath>
</defs>
<path clip-path="url(#clip160)" d="M232.389 1423.18 L2352.76 1423.18 L2352.76 47.2441 L232.389 47.2441  Z" fill="#ffffff" fill-rule="evenodd" fill-opacity="1"/>
<defs>
  <clipPath id="clip162">
    <rect x="232" y="47" width="2121" height="1377"/>
  </clipPath>
</defs>
<polyline clip-path="url(#clip162)" style="stroke:#000000; stroke-linecap:round; stroke-linejoin:round; stroke-width:2; stroke-opacity:0.1; fill:none" points="292.4,1423.18 292.4,47.2441 "/>
<polyline clip-path="url(#clip162)" style="stroke:#000000; stroke-linecap:round; stroke-linejoin:round; stroke-width:2; stroke-opacity:0.1; fill:none" points="625.791,1423.18 625.791,47.2441 "/>
<polyline clip-path="url(#clip162)" style="stroke:#000000; stroke-linecap:round; stroke-linejoin:round; stroke-width:2; stroke-opacity:0.1; fill:none" points="959.182,1423.18 959.182,47.2441 "/>
<polyline clip-path="url(#clip162)" style="stroke:#000000; stroke-linecap:round; stroke-linejoin:round; stroke-width:2; stroke-opacity:0.1; fill:none" points="1292.57,1423.18 1292.57,47.2441 "/>
<polyline clip-path="url(#clip162)" style="stroke:#000000; stroke-linecap:round; stroke-linejoin:round; stroke-width:2; stroke-opacity:0.1; fill:none" points="1625.96,1423.18 1625.96,47.2441 "/>
<polyline clip-path="url(#clip162)" style="stroke:#000000; stroke-linecap:round; stroke-linejoin:round; stroke-width:2; stroke-opacity:0.1; fill:none" points="1959.35,1423.18 1959.35,47.2441 "/>
<polyline clip-path="url(#clip162)" style="stroke:#000000; stroke-linecap:round; stroke-linejoin:round; stroke-width:2; stroke-opacity:0.1; fill:none" points="2292.75,1423.18 2292.75,47.2441 "/>
<polyline clip-path="url(#clip160)" style="stroke:#000000; stroke-linecap:round; stroke-linejoin:round; stroke-width:4; stroke-opacity:1; fill:none" points="232.389,1423.18 2352.76,1423.18 "/>
<polyline clip-path="url(#clip160)" style="stroke:#000000; stroke-linecap:round; stroke-linejoin:round; stroke-width:4; stroke-opacity:1; fill:none" points="292.4,1423.18 292.4,1404.28 "/>
<polyline clip-path="url(#clip160)" style="stroke:#000000; stroke-linecap:round; stroke-linejoin:round; stroke-width:4; stroke-opacity:1; fill:none" points="625.791,1423.18 625.791,1404.28 "/>
<polyline clip-path="url(#clip160)" style="stroke:#000000; stroke-linecap:round; stroke-linejoin:round; stroke-width:4; stroke-opacity:1; fill:none" points="959.182,1423.18 959.182,1404.28 "/>
<polyline clip-path="url(#clip160)" style="stroke:#000000; stroke-linecap:round; stroke-linejoin:round; stroke-width:4; stroke-opacity:1; fill:none" points="1292.57,1423.18 1292.57,1404.28 "/>
<polyline clip-path="url(#clip160)" style="stroke:#000000; stroke-linecap:round; stroke-linejoin:round; stroke-width:4; stroke-opacity:1; fill:none" points="1625.96,1423.18 1625.96,1404.28 "/>
<polyline clip-path="url(#clip160)" style="stroke:#000000; stroke-linecap:round; stroke-linejoin:round; stroke-width:4; stroke-opacity:1; fill:none" points="1959.35,1423.18 1959.35,1404.28 "/>
<polyline clip-path="url(#clip160)" style="stroke:#000000; stroke-linecap:round; stroke-linejoin:round; stroke-width:4; stroke-opacity:1; fill:none" points="2292.75,1423.18 2292.75,1404.28 "/>
<path clip-path="url(#clip160)" d="M292.4 1454.1 Q288.789 1454.1 286.96 1457.66 Q285.154 1461.2 285.154 1468.33 Q285.154 1475.44 286.96 1479.01 Q288.789 1482.55 292.4 1482.55 Q296.034 1482.55 297.84 1479.01 Q299.668 1475.44 299.668 1468.33 Q299.668 1461.2 297.84 1457.66 Q296.034 1454.1 292.4 1454.1 M292.4 1450.39 Q298.21 1450.39 301.265 1455 Q304.344 1459.58 304.344 1468.33 Q304.344 1477.06 301.265 1481.67 Q298.21 1486.25 292.4 1486.25 Q286.59 1486.25 283.511 1481.67 Q280.455 1477.06 280.455 1468.33 Q280.455 1459.58 283.511 1455 Q286.59 1450.39 292.4 1450.39 Z" fill="#000000" fill-rule="nonzero" fill-opacity="1" /><path clip-path="url(#clip160)" d="M616.173 1481.64 L623.812 1481.64 L623.812 1455.28 L615.501 1456.95 L615.501 1452.69 L623.765 1451.02 L628.441 1451.02 L628.441 1481.64 L636.08 1481.64 L636.08 1485.58 L616.173 1485.58 L616.173 1481.64 Z" fill="#000000" fill-rule="nonzero" fill-opacity="1" /><path clip-path="url(#clip160)" d="M953.834 1481.64 L970.154 1481.64 L970.154 1485.58 L948.209 1485.58 L948.209 1481.64 Q950.872 1478.89 955.455 1474.26 Q960.061 1469.61 961.242 1468.27 Q963.487 1465.74 964.367 1464.01 Q965.27 1462.25 965.27 1460.56 Q965.27 1457.8 963.325 1456.07 Q961.404 1454.33 958.302 1454.33 Q956.103 1454.33 953.649 1455.09 Q951.219 1455.86 948.441 1457.41 L948.441 1452.69 Q951.265 1451.55 953.719 1450.97 Q956.172 1450.39 958.209 1450.39 Q963.58 1450.39 966.774 1453.08 Q969.969 1455.77 969.969 1460.26 Q969.969 1462.39 969.158 1464.31 Q968.371 1466.2 966.265 1468.8 Q965.686 1469.47 962.584 1472.69 Q959.483 1475.88 953.834 1481.64 Z" fill="#000000" fill-rule="nonzero" fill-opacity="1" /><path clip-path="url(#clip160)" d="M1296.82 1466.95 Q1300.18 1467.66 1302.05 1469.93 Q1303.95 1472.2 1303.95 1475.53 Q1303.95 1480.65 1300.43 1483.45 Q1296.91 1486.25 1290.43 1486.25 Q1288.26 1486.25 1285.94 1485.81 Q1283.65 1485.39 1281.2 1484.54 L1281.2 1480.02 Q1283.14 1481.16 1285.45 1481.74 Q1287.77 1482.32 1290.29 1482.32 Q1294.69 1482.32 1296.98 1480.58 Q1299.3 1478.84 1299.3 1475.53 Q1299.3 1472.48 1297.14 1470.77 Q1295.01 1469.03 1291.2 1469.03 L1287.17 1469.03 L1287.17 1465.19 L1291.38 1465.19 Q1294.83 1465.19 1296.66 1463.82 Q1298.49 1462.43 1298.49 1459.84 Q1298.49 1457.18 1296.59 1455.77 Q1294.71 1454.33 1291.2 1454.33 Q1289.27 1454.33 1287.07 1454.75 Q1284.88 1455.16 1282.24 1456.04 L1282.24 1451.88 Q1284.9 1451.14 1287.21 1450.77 Q1289.55 1450.39 1291.61 1450.39 Q1296.94 1450.39 1300.04 1452.83 Q1303.14 1455.23 1303.14 1459.35 Q1303.14 1462.22 1301.5 1464.21 Q1299.85 1466.18 1296.82 1466.95 Z" fill="#000000" fill-rule="nonzero" fill-opacity="1" /><path clip-path="url(#clip160)" d="M1628.97 1455.09 L1617.17 1473.54 L1628.97 1473.54 L1628.97 1455.09 M1627.75 1451.02 L1633.63 1451.02 L1633.63 1473.54 L1638.56 1473.54 L1638.56 1477.43 L1633.63 1477.43 L1633.63 1485.58 L1628.97 1485.58 L1628.97 1477.43 L1613.37 1477.43 L1613.37 1472.92 L1627.75 1451.02 Z" fill="#000000" fill-rule="nonzero" fill-opacity="1" /><path clip-path="url(#clip160)" d="M1949.63 1451.02 L1967.99 1451.02 L1967.99 1454.96 L1953.91 1454.96 L1953.91 1463.43 Q1954.93 1463.08 1955.95 1462.92 Q1956.97 1462.73 1957.99 1462.73 Q1963.78 1462.73 1967.16 1465.9 Q1970.54 1469.08 1970.54 1474.49 Q1970.54 1480.07 1967.06 1483.17 Q1963.59 1486.25 1957.27 1486.25 Q1955.1 1486.25 1952.83 1485.88 Q1950.58 1485.51 1948.17 1484.77 L1948.17 1480.07 Q1950.26 1481.2 1952.48 1481.76 Q1954.7 1482.32 1957.18 1482.32 Q1961.18 1482.32 1963.52 1480.21 Q1965.86 1478.1 1965.86 1474.49 Q1965.86 1470.88 1963.52 1468.77 Q1961.18 1466.67 1957.18 1466.67 Q1955.3 1466.67 1953.43 1467.08 Q1951.58 1467.5 1949.63 1468.38 L1949.63 1451.02 Z" fill="#000000" fill-rule="nonzero" fill-opacity="1" /><path clip-path="url(#clip160)" d="M2293.15 1466.44 Q2290 1466.44 2288.15 1468.59 Q2286.32 1470.74 2286.32 1474.49 Q2286.32 1478.22 2288.15 1480.39 Q2290 1482.55 2293.15 1482.55 Q2296.3 1482.55 2298.13 1480.39 Q2299.98 1478.22 2299.98 1474.49 Q2299.98 1470.74 2298.13 1468.59 Q2296.3 1466.44 2293.15 1466.44 M2302.43 1451.78 L2302.43 1456.04 Q2300.67 1455.21 2298.87 1454.77 Q2297.09 1454.33 2295.33 1454.33 Q2290.7 1454.33 2288.24 1457.45 Q2285.81 1460.58 2285.47 1466.9 Q2286.83 1464.89 2288.89 1463.82 Q2290.95 1462.73 2293.43 1462.73 Q2298.64 1462.73 2301.65 1465.9 Q2304.68 1469.05 2304.68 1474.49 Q2304.68 1479.82 2301.53 1483.03 Q2298.38 1486.25 2293.15 1486.25 Q2287.16 1486.25 2283.98 1481.67 Q2280.81 1477.06 2280.81 1468.33 Q2280.81 1460.14 2284.7 1455.28 Q2288.59 1450.39 2295.14 1450.39 Q2296.9 1450.39 2298.68 1450.74 Q2300.49 1451.09 2302.43 1451.78 Z" fill="#000000" fill-rule="nonzero" fill-opacity="1" /><path clip-path="url(#clip160)" d="M1162.74 1520.52 L1202.94 1520.52 L1202.94 1525.93 L1186.07 1525.93 L1186.07 1568.04 L1179.61 1568.04 L1179.61 1525.93 L1162.74 1525.93 L1162.74 1520.52 Z" fill="#000000" fill-rule="nonzero" fill-opacity="1" /><path clip-path="url(#clip160)" d="M1206.89 1532.4 L1212.75 1532.4 L1212.75 1568.04 L1206.89 1568.04 L1206.89 1532.4 M1206.89 1518.52 L1212.75 1518.52 L1212.75 1525.93 L1206.89 1525.93 L1206.89 1518.52 Z" fill="#000000" fill-rule="nonzero" fill-opacity="1" /><path clip-path="url(#clip160)" d="M1252.76 1539.24 Q1254.95 1535.29 1258.01 1533.41 Q1261.06 1531.54 1265.2 1531.54 Q1270.77 1531.54 1273.79 1535.45 Q1276.82 1539.33 1276.82 1546.53 L1276.82 1568.04 L1270.93 1568.04 L1270.93 1546.72 Q1270.93 1541.59 1269.11 1539.11 Q1267.3 1536.63 1263.58 1536.63 Q1259.03 1536.63 1256.38 1539.65 Q1253.74 1542.68 1253.74 1547.9 L1253.74 1568.04 L1247.85 1568.04 L1247.85 1546.72 Q1247.85 1541.56 1246.04 1539.11 Q1244.23 1536.63 1240.44 1536.63 Q1235.95 1536.63 1233.31 1539.68 Q1230.67 1542.71 1230.67 1547.9 L1230.67 1568.04 L1224.78 1568.04 L1224.78 1532.4 L1230.67 1532.4 L1230.67 1537.93 Q1232.67 1534.66 1235.47 1533.1 Q1238.27 1531.54 1242.12 1531.54 Q1246.01 1531.54 1248.71 1533.51 Q1251.45 1535.48 1252.76 1539.24 Z" fill="#000000" fill-rule="nonzero" fill-opacity="1" /><path clip-path="url(#clip160)" d="M1318.99 1548.76 L1318.99 1551.62 L1292.06 1551.62 Q1292.45 1557.67 1295.69 1560.85 Q1298.97 1564 1304.79 1564 Q1308.17 1564 1311.32 1563.17 Q1314.5 1562.35 1317.62 1560.69 L1317.62 1566.23 Q1314.47 1567.57 1311.16 1568.27 Q1307.85 1568.97 1304.44 1568.97 Q1295.91 1568.97 1290.92 1564 Q1285.95 1559.04 1285.95 1550.57 Q1285.95 1541.82 1290.66 1536.69 Q1295.41 1531.54 1303.43 1531.54 Q1310.62 1531.54 1314.79 1536.18 Q1318.99 1540.8 1318.99 1548.76 M1313.13 1547.04 Q1313.07 1542.23 1310.43 1539.37 Q1307.82 1536.5 1303.49 1536.5 Q1298.59 1536.5 1295.63 1539.27 Q1292.7 1542.04 1292.25 1547.07 L1313.13 1547.04 Z" fill="#000000" fill-rule="nonzero" fill-opacity="1" /><path clip-path="url(#clip160)" d="M1363.39 1518.58 Q1359.13 1525.9 1357.06 1533.06 Q1354.99 1540.23 1354.99 1547.58 Q1354.99 1554.93 1357.06 1562.16 Q1359.16 1569.35 1363.39 1576.64 L1358.3 1576.64 Q1353.52 1569.16 1351.14 1561.93 Q1348.78 1554.71 1348.78 1547.58 Q1348.78 1540.48 1351.14 1533.29 Q1353.49 1526.09 1358.3 1518.58 L1363.39 1518.58 Z" fill="#000000" fill-rule="nonzero" fill-opacity="1" /><path clip-path="url(#clip160)" d="M1397.48 1533.45 L1397.48 1538.98 Q1395 1537.71 1392.32 1537.07 Q1389.65 1536.44 1386.79 1536.44 Q1382.42 1536.44 1380.23 1537.77 Q1378.06 1539.11 1378.06 1541.79 Q1378.06 1543.82 1379.62 1545 Q1381.18 1546.15 1385.89 1547.2 L1387.9 1547.64 Q1394.14 1548.98 1396.75 1551.43 Q1399.39 1553.85 1399.39 1558.21 Q1399.39 1563.17 1395.44 1566.07 Q1391.53 1568.97 1384.65 1568.97 Q1381.79 1568.97 1378.67 1568.39 Q1375.58 1567.85 1372.14 1566.74 L1372.14 1560.69 Q1375.39 1562.38 1378.54 1563.24 Q1381.69 1564.07 1384.78 1564.07 Q1388.92 1564.07 1391.15 1562.66 Q1393.37 1561.23 1393.37 1558.65 Q1393.37 1556.27 1391.75 1554.99 Q1390.16 1553.72 1384.72 1552.54 L1382.68 1552.07 Q1377.24 1550.92 1374.82 1548.56 Q1372.4 1546.18 1372.4 1542.04 Q1372.4 1537.01 1375.96 1534.27 Q1379.53 1531.54 1386.08 1531.54 Q1389.33 1531.54 1392.2 1532.01 Q1395.06 1532.49 1397.48 1533.45 Z" fill="#000000" fill-rule="nonzero" fill-opacity="1" /><path clip-path="url(#clip160)" d="M1407.79 1518.58 L1412.88 1518.58 Q1417.66 1526.09 1420.01 1533.29 Q1422.4 1540.48 1422.4 1547.58 Q1422.4 1554.71 1420.01 1561.93 Q1417.66 1569.16 1412.88 1576.64 L1407.79 1576.64 Q1412.03 1569.35 1414.09 1562.16 Q1416.19 1554.93 1416.19 1547.58 Q1416.19 1540.23 1414.09 1533.06 Q1412.03 1525.9 1407.79 1518.58 Z" fill="#000000" fill-rule="nonzero" fill-opacity="1" /><polyline clip-path="url(#clip162)" style="stroke:#000000; stroke-linecap:round; stroke-linejoin:round; stroke-width:2; stroke-opacity:0.1; fill:none" points="232.389,1379.06 2352.76,1379.06 "/>
<polyline clip-path="url(#clip162)" style="stroke:#000000; stroke-linecap:round; stroke-linejoin:round; stroke-width:2; stroke-opacity:0.1; fill:none" points="232.389,1064.54 2352.76,1064.54 "/>
<polyline clip-path="url(#clip162)" style="stroke:#000000; stroke-linecap:round; stroke-linejoin:round; stroke-width:2; stroke-opacity:0.1; fill:none" points="232.389,750.015 2352.76,750.015 "/>
<polyline clip-path="url(#clip162)" style="stroke:#000000; stroke-linecap:round; stroke-linejoin:round; stroke-width:2; stroke-opacity:0.1; fill:none" points="232.389,435.492 2352.76,435.492 "/>
<polyline clip-path="url(#clip162)" style="stroke:#000000; stroke-linecap:round; stroke-linejoin:round; stroke-width:2; stroke-opacity:0.1; fill:none" points="232.389,120.969 2352.76,120.969 "/>
<polyline clip-path="url(#clip160)" style="stroke:#000000; stroke-linecap:round; stroke-linejoin:round; stroke-width:4; stroke-opacity:1; fill:none" points="232.389,1423.18 232.389,47.2441 "/>
<polyline clip-path="url(#clip160)" style="stroke:#000000; stroke-linecap:round; stroke-linejoin:round; stroke-width:4; stroke-opacity:1; fill:none" points="232.389,1379.06 251.287,1379.06 "/>
<polyline clip-path="url(#clip160)" style="stroke:#000000; stroke-linecap:round; stroke-linejoin:round; stroke-width:4; stroke-opacity:1; fill:none" points="232.389,1064.54 251.287,1064.54 "/>
<polyline clip-path="url(#clip160)" style="stroke:#000000; stroke-linecap:round; stroke-linejoin:round; stroke-width:4; stroke-opacity:1; fill:none" points="232.389,750.015 251.287,750.015 "/>
<polyline clip-path="url(#clip160)" style="stroke:#000000; stroke-linecap:round; stroke-linejoin:round; stroke-width:4; stroke-opacity:1; fill:none" points="232.389,435.492 251.287,435.492 "/>
<polyline clip-path="url(#clip160)" style="stroke:#000000; stroke-linecap:round; stroke-linejoin:round; stroke-width:4; stroke-opacity:1; fill:none" points="232.389,120.969 251.287,120.969 "/>
<path clip-path="url(#clip160)" d="M184.445 1364.86 Q180.834 1364.86 179.005 1368.42 Q177.2 1371.97 177.2 1379.1 Q177.2 1386.2 179.005 1389.77 Q180.834 1393.31 184.445 1393.31 Q188.079 1393.31 189.885 1389.77 Q191.713 1386.2 191.713 1379.1 Q191.713 1371.97 189.885 1368.42 Q188.079 1364.86 184.445 1364.86 M184.445 1361.16 Q190.255 1361.16 193.311 1365.76 Q196.389 1370.35 196.389 1379.1 Q196.389 1387.82 193.311 1392.43 Q190.255 1397.01 184.445 1397.01 Q178.635 1397.01 175.556 1392.43 Q172.501 1387.82 172.501 1379.1 Q172.501 1370.35 175.556 1365.76 Q178.635 1361.16 184.445 1361.16 Z" fill="#000000" fill-rule="nonzero" fill-opacity="1" /><path clip-path="url(#clip160)" d="M149.306 1077.88 L165.626 1077.88 L165.626 1081.82 L143.681 1081.82 L143.681 1077.88 Q146.343 1075.13 150.927 1070.5 Q155.533 1065.85 156.714 1064.5 Q158.959 1061.98 159.839 1060.24 Q160.741 1058.48 160.741 1056.8 Q160.741 1054.04 158.797 1052.3 Q156.876 1050.57 153.774 1050.57 Q151.575 1050.57 149.121 1051.33 Q146.691 1052.1 143.913 1053.65 L143.913 1048.92 Q146.737 1047.79 149.191 1047.21 Q151.644 1046.63 153.681 1046.63 Q159.052 1046.63 162.246 1049.32 Q165.44 1052 165.44 1056.49 Q165.44 1058.62 164.63 1060.55 Q163.843 1062.44 161.737 1065.04 Q161.158 1065.71 158.056 1068.92 Q154.954 1072.12 149.306 1077.88 Z" fill="#000000" fill-rule="nonzero" fill-opacity="1" /><path clip-path="url(#clip160)" d="M175.487 1047.26 L193.843 1047.26 L193.843 1051.19 L179.769 1051.19 L179.769 1059.67 Q180.788 1059.32 181.806 1059.16 Q182.825 1058.97 183.843 1058.97 Q189.63 1058.97 193.01 1062.14 Q196.389 1065.31 196.389 1070.73 Q196.389 1076.31 192.917 1079.41 Q189.445 1082.49 183.126 1082.49 Q180.95 1082.49 178.681 1082.12 Q176.436 1081.75 174.028 1081.01 L174.028 1076.31 Q176.112 1077.44 178.334 1078 Q180.556 1078.55 183.033 1078.55 Q187.038 1078.55 189.375 1076.45 Q191.713 1074.34 191.713 1070.73 Q191.713 1067.12 189.375 1065.01 Q187.038 1062.91 183.033 1062.91 Q181.158 1062.91 179.283 1063.32 Q177.431 1063.74 175.487 1064.62 L175.487 1047.26 Z" fill="#000000" fill-rule="nonzero" fill-opacity="1" /><path clip-path="url(#clip160)" d="M144.329 732.735 L162.686 732.735 L162.686 736.67 L148.612 736.67 L148.612 745.142 Q149.63 744.795 150.649 744.633 Q151.667 744.448 152.686 744.448 Q158.473 744.448 161.852 747.619 Q165.232 750.791 165.232 756.207 Q165.232 761.786 161.76 764.888 Q158.288 767.966 151.968 767.966 Q149.792 767.966 147.524 767.596 Q145.279 767.226 142.871 766.485 L142.871 761.786 Q144.954 762.92 147.177 763.476 Q149.399 764.031 151.876 764.031 Q155.88 764.031 158.218 761.925 Q160.556 759.818 160.556 756.207 Q160.556 752.596 158.218 750.49 Q155.88 748.383 151.876 748.383 Q150.001 748.383 148.126 748.8 Q146.274 749.217 144.329 750.096 L144.329 732.735 Z" fill="#000000" fill-rule="nonzero" fill-opacity="1" /><path clip-path="url(#clip160)" d="M184.445 735.814 Q180.834 735.814 179.005 739.379 Q177.2 742.92 177.2 750.05 Q177.2 757.156 179.005 760.721 Q180.834 764.263 184.445 764.263 Q188.079 764.263 189.885 760.721 Q191.713 757.156 191.713 750.05 Q191.713 742.92 189.885 739.379 Q188.079 735.814 184.445 735.814 M184.445 732.11 Q190.255 732.11 193.311 736.717 Q196.389 741.3 196.389 750.05 Q196.389 758.777 193.311 763.383 Q190.255 767.966 184.445 767.966 Q178.635 767.966 175.556 763.383 Q172.501 758.777 172.501 750.05 Q172.501 741.3 175.556 736.717 Q178.635 732.11 184.445 732.11 Z" fill="#000000" fill-rule="nonzero" fill-opacity="1" /><path clip-path="url(#clip160)" d="M144.098 418.212 L166.32 418.212 L166.32 420.203 L153.774 452.772 L148.89 452.772 L160.695 422.147 L144.098 422.147 L144.098 418.212 Z" fill="#000000" fill-rule="nonzero" fill-opacity="1" /><path clip-path="url(#clip160)" d="M175.487 418.212 L193.843 418.212 L193.843 422.147 L179.769 422.147 L179.769 430.619 Q180.788 430.272 181.806 430.11 Q182.825 429.925 183.843 429.925 Q189.63 429.925 193.01 433.096 Q196.389 436.268 196.389 441.684 Q196.389 447.263 192.917 450.365 Q189.445 453.443 183.126 453.443 Q180.95 453.443 178.681 453.073 Q176.436 452.703 174.028 451.962 L174.028 447.263 Q176.112 448.397 178.334 448.953 Q180.556 449.508 183.033 449.508 Q187.038 449.508 189.375 447.402 Q191.713 445.295 191.713 441.684 Q191.713 438.073 189.375 435.967 Q187.038 433.86 183.033 433.86 Q181.158 433.86 179.283 434.277 Q177.431 434.694 175.487 435.573 L175.487 418.212 Z" fill="#000000" fill-rule="nonzero" fill-opacity="1" /><path clip-path="url(#clip160)" d="M114.931 134.314 L122.57 134.314 L122.57 107.948 L114.26 109.615 L114.26 105.356 L122.524 103.689 L127.2 103.689 L127.2 134.314 L134.839 134.314 L134.839 138.249 L114.931 138.249 L114.931 134.314 Z" fill="#000000" fill-rule="nonzero" fill-opacity="1" /><path clip-path="url(#clip160)" d="M154.283 106.768 Q150.672 106.768 148.843 110.333 Q147.038 113.874 147.038 121.004 Q147.038 128.11 148.843 131.675 Q150.672 135.217 154.283 135.217 Q157.917 135.217 159.723 131.675 Q161.552 128.11 161.552 121.004 Q161.552 113.874 159.723 110.333 Q157.917 106.768 154.283 106.768 M154.283 103.064 Q160.093 103.064 163.149 107.671 Q166.227 112.254 166.227 121.004 Q166.227 129.731 163.149 134.337 Q160.093 138.92 154.283 138.92 Q148.473 138.92 145.394 134.337 Q142.339 129.731 142.339 121.004 Q142.339 112.254 145.394 107.671 Q148.473 103.064 154.283 103.064 Z" fill="#000000" fill-rule="nonzero" fill-opacity="1" /><path clip-path="url(#clip160)" d="M184.445 106.768 Q180.834 106.768 179.005 110.333 Q177.2 113.874 177.2 121.004 Q177.2 128.11 179.005 131.675 Q180.834 135.217 184.445 135.217 Q188.079 135.217 189.885 131.675 Q191.713 128.11 191.713 121.004 Q191.713 113.874 189.885 110.333 Q188.079 106.768 184.445 106.768 M184.445 103.064 Q190.255 103.064 193.311 107.671 Q196.389 112.254 196.389 121.004 Q196.389 129.731 193.311 134.337 Q190.255 138.92 184.445 138.92 Q178.635 138.92 175.556 134.337 Q172.501 129.731 172.501 121.004 Q172.501 112.254 175.556 107.671 Q178.635 103.064 184.445 103.064 Z" fill="#000000" fill-rule="nonzero" fill-opacity="1" /><path clip-path="url(#clip160)" d="M67.3143 733.525 Q73.68 736.008 75.6216 738.363 Q77.5631 740.718 77.5631 744.665 L77.5631 749.344 L72.6615 749.344 L72.6615 745.906 Q72.6615 743.487 71.5157 742.151 Q70.3699 740.814 66.1048 739.191 L63.4312 738.14 L28.3562 752.559 L28.3562 746.352 L56.238 735.212 L28.3562 724.072 L28.3562 717.865 L67.3143 733.525 Z" fill="#000000" fill-rule="nonzero" fill-opacity="1" /><polyline clip-path="url(#clip162)" style="stroke:#009af9; stroke-linecap:round; stroke-linejoin:round; stroke-width:4; stroke-opacity:1; fill:none" points="292.4,1379.06 302.401,1341.88 312.403,1305.8 322.405,1270.78 332.407,1236.8 342.408,1203.82 352.41,1171.82 362.412,1140.76 372.414,1110.62 382.415,1081.37 392.417,1052.99 402.419,1025.44 412.42,998.71 422.422,972.769 432.424,947.595 442.426,923.164 452.427,899.456 462.429,876.448 472.431,854.12 482.433,832.452 492.434,811.425 502.436,791.019 512.438,771.216 522.439,751.998 532.441,733.348 542.443,715.25 552.445,697.686 562.446,680.642 572.448,664.101 582.45,648.049 592.452,632.471 602.453,617.354 612.455,602.684 622.457,588.447 632.459,574.631 642.46,561.223 652.462,548.212 662.464,535.585 672.465,523.331 682.467,511.439 692.469,499.899 702.471,488.7 712.472,477.832 722.474,467.285 732.476,457.05 742.478,447.117 752.479,437.478 762.481,428.124 772.483,419.046 782.484,410.237 792.486,401.687 802.488,393.391 812.49,385.34 822.491,377.526 832.493,369.944 842.495,362.586 852.497,355.445 862.498,348.515 872.5,341.79 882.502,335.264 892.503,328.93 902.505,322.784 912.507,316.82 922.509,311.031 932.51,305.414 942.512,299.963 952.514,294.673 962.516,289.539 972.517,284.557 982.519,279.722 992.521,275.031 1002.52,270.477 1012.52,266.059 1022.53,261.771 1032.53,257.609 1042.53,253.571 1052.53,249.652 1062.53,245.849 1072.53,242.158 1082.54,238.576 1092.54,235.101 1102.54,231.728 1112.54,228.454 1122.54,225.277 1132.54,222.195 1142.55,219.203 1152.55,216.3 1162.55,213.482 1172.55,210.748 1182.55,208.095 1192.56,205.52 1202.56,203.021 1212.56,200.596 1222.56,198.243 1232.56,195.959 1242.56,193.743 1252.57,191.592 1262.57,189.505 1272.57,187.479 1282.57,185.513 1292.57,183.606 1302.57,181.755 1312.58,179.958 1322.58,178.215 1332.58,176.523 1342.58,174.881 1352.58,173.288 1362.58,171.741 1372.59,170.241 1382.59,168.785 1392.59,167.372 1402.59,166 1412.59,164.669 1422.6,163.378 1432.6,162.124 1442.6,160.908 1452.6,159.728 1462.6,158.582 1472.6,157.471 1482.61,156.392 1492.61,155.345 1502.61,154.329 1512.61,153.343 1522.61,152.386 1532.61,151.458 1542.62,150.557 1552.62,149.682 1562.62,148.834 1572.62,148.01 1582.62,147.211 1592.62,146.435 1602.63,145.683 1612.63,144.952 1622.63,144.243 1632.63,143.556 1642.63,142.888 1652.63,142.24 1662.64,141.612 1672.64,141.002 1682.64,140.409 1692.64,139.835 1702.64,139.277 1712.65,138.736 1722.65,138.211 1732.65,137.702 1742.65,137.207 1752.65,136.727 1762.65,136.261 1772.66,135.809 1782.66,135.371 1792.66,134.945 1802.66,134.532 1812.66,134.131 1822.66,133.742 1832.67,133.365 1842.67,132.998 1852.67,132.643 1862.67,132.298 1872.67,131.963 1882.67,131.638 1892.68,131.323 1902.68,131.017 1912.68,130.72 1922.68,130.432 1932.68,130.152 1942.69,129.881 1952.69,129.617 1962.69,129.362 1972.69,129.114 1982.69,128.873 1992.69,128.639 2002.7,128.413 2012.7,128.193 2022.7,127.979 2032.7,127.772 2042.7,127.571 2052.7,127.376 2062.71,127.186 2072.71,127.003 2082.71,126.824 2092.71,126.651 2102.71,126.483 2112.71,126.32 2122.72,126.162 2132.72,126.009 2142.72,125.86 2152.72,125.715 2162.72,125.575 2172.72,125.439 2182.73,125.307 2192.73,125.179 2202.73,125.054 2212.73,124.933 2222.73,124.816 2232.74,124.703 2242.74,124.592 2252.74,124.485 2262.74,124.381 2272.74,124.28 2282.74,124.183 2292.75,124.088 "/>
<polyline clip-path="url(#clip162)" style="stroke:#e26f46; stroke-linecap:round; stroke-linejoin:round; stroke-width:4; stroke-opacity:1; fill:none" points="292.4,1379.06 293.1,1379.06 293.8,1379.04 294.5,1378.99 295.2,1378.89 295.9,1378.75 296.6,1378.54 297.301,1378.26 298.001,1377.92 298.701,1377.49 299.401,1377 300.101,1376.42 300.801,1375.76 301.501,1375.02 302.201,1374.2 302.902,1373.3 303.602,1372.33 304.302,1371.28 305.002,1370.15 305.702,1368.96 306.402,1367.69 307.102,1366.36 307.802,1364.97 308.503,1363.51 309.203,1361.99 309.903,1360.42 310.603,1358.79 311.303,1357.12 312.003,1355.39 312.703,1353.62 313.403,1351.8 314.103,1349.95 314.804,1348.05 315.504,1346.12 316.204,1344.15 316.904,1342.15 317.604,1340.12 318.304,1338.07 319.004,1335.98 319.704,1333.88 320.405,1331.74 321.105,1329.59 321.805,1327.42 322.505,1325.23 323.205,1323.02 323.905,1320.79 324.605,1318.56 325.305,1316.3 326.006,1314.04 326.706,1311.77 327.406,1309.48 328.106,1307.19 328.806,1304.88 329.506,1302.57 330.206,1300.26 330.906,1297.93 331.606,1295.61 332.307,1293.27 333.007,1290.94 333.707,1288.6 334.407,1286.26 335.107,1283.91 335.807,1281.56 336.507,1279.22 337.207,1276.87 337.908,1274.52 338.608,1272.17 339.308,1269.82 340.008,1267.47 340.708,1265.12 341.408,1262.77 342.108,1260.43 342.808,1258.08 343.509,1255.74 344.209,1253.4 344.909,1251.06 345.609,1248.72 346.309,1246.39 347.009,1244.06 347.709,1241.73 348.409,1239.4 349.11,1237.08 349.81,1234.76 350.51,1232.44 351.21,1230.13 351.91,1227.82 352.61,1225.52 353.31,1223.21 354.01,1220.92 354.71,1218.62 355.411,1216.33 356.111,1214.04 356.811,1211.76 357.511,1209.48 358.211,1207.21 358.911,1204.94 359.611,1202.67 360.311,1200.41 361.012,1198.15 361.712,1195.9 362.412,1193.65 363.112,1191.41 363.812,1189.17 364.512,1186.93 365.212,1184.7 365.912,1182.47 366.613,1180.25 367.313,1178.03 368.013,1175.81 368.713,1173.6 369.413,1171.4 370.113,1169.2 370.813,1167 371.513,1164.81 372.214,1162.62 372.914,1160.44 373.614,1158.26 374.314,1156.08 375.014,1153.91 375.714,1151.75 376.414,1149.59 377.114,1147.43 377.814,1145.28 378.515,1143.13 379.215,1140.99 379.915,1138.85 380.615,1136.71 381.315,1134.58 382.015,1132.46 382.715,1130.34 383.415,1128.22 384.116,1126.11 384.816,1124 385.516,1121.9 386.216,1119.8 386.916,1117.7 387.616,1115.61 388.316,1113.52 389.016,1111.44 389.717,1109.37 390.417,1107.29 391.117,1105.22 391.817,1103.16 392.517,1101.1 393.217,1099.04 393.917,1096.99 394.617,1094.94 395.318,1092.9 396.018,1090.86 396.718,1088.83 397.418,1086.8 398.118,1084.77 398.818,1082.75 399.518,1080.73 400.218,1078.72 400.918,1076.71 401.619,1074.7 402.319,1072.7 403.019,1070.71 403.719,1068.71 404.419,1066.73 405.119,1064.74 405.819,1062.76 406.519,1060.79 407.22,1058.82 407.92,1056.85 408.62,1054.89 409.32,1052.93 410.02,1050.97 410.72,1049.02 411.42,1047.07 412.12,1045.13 412.821,1043.19 413.521,1041.26 414.221,1039.33 414.921,1037.4 415.621,1035.48 416.321,1033.56 417.021,1031.64 417.721,1029.73 418.422,1027.83 419.122,1025.93 419.822,1024.03 420.522,1022.13 421.222,1020.24 421.922,1018.36 422.622,1016.47 423.322,1014.59 424.022,1012.72 424.723,1010.85 425.423,1008.98 426.123,1007.12 426.823,1005.26 427.523,1003.41 428.223,1001.55 428.923,999.707 429.623,997.864 430.324,996.025 431.024,994.189 431.724,992.357 432.424,990.529 433.124,988.705 433.824,986.885 434.524,985.068 435.224,983.255 435.925,981.446 436.625,979.641 437.325,977.84 438.025,976.042 438.725,974.249 439.425,972.459 440.125,970.672 440.825,968.89 441.526,967.111 442.226,965.336 442.926,963.565 443.626,961.797 444.326,960.033 445.026,958.273 445.726,956.517 446.426,954.764 447.126,953.015 447.827,951.269 448.527,949.527 449.227,947.789 449.927,946.055 450.627,944.324 451.327,942.597 452.027,940.873 452.727,939.153 453.428,937.437 454.128,935.724 454.828,934.015 455.528,932.309 456.228,930.607 456.928,928.909 457.628,927.214 458.328,925.522 459.029,923.835 459.729,922.15 460.429,920.47 461.129,918.792 461.829,917.119 462.529,915.449 463.229,913.782 463.929,912.119 464.629,910.459 465.33,908.803 466.03,907.15 466.73,905.501 467.43,903.855 468.13,902.213 468.83,900.574 469.53,898.939 470.23,897.307 470.931,895.678 471.631,894.053 472.331,892.431 473.031,890.813 473.731,889.198 474.431,887.586 475.131,885.978 475.831,884.373 476.532,882.772 477.232,881.173 477.932,879.579 478.632,877.987 479.332,876.399 480.032,874.814 480.732,873.233 481.432,871.655 482.133,870.08 482.833,868.509 483.533,866.94 484.233,865.376 484.933,863.814 485.633,862.256 486.333,860.701 487.033,859.149 487.733,857.6 488.434,856.055 489.134,854.513 489.834,852.974 490.534,851.438 491.234,849.906 491.934,848.377 492.634,846.851 493.334,845.328 494.035,843.809 494.735,842.292 495.435,840.779 496.135,839.269 496.835,837.762 497.535,836.259 498.235,834.758 498.935,833.261 499.636,831.766 500.336,830.275 501.036,828.787 501.736,827.302 502.436,825.821 503.136,824.342 503.836,822.867 504.536,821.394 505.237,819.925 505.937,818.458 506.637,816.995 507.337,815.535 508.037,814.078 508.737,812.624 509.437,811.173 510.137,809.725 510.837,808.28 511.538,806.839 512.238,805.4 512.938,803.964 513.638,802.531 514.338,801.101 515.038,799.675 515.738,798.251 516.438,796.83 517.139,795.412 517.839,793.997 518.539,792.585 519.239,791.177 519.939,789.771 520.639,788.368 521.339,786.967 522.039,785.57 522.74,784.176 523.44,782.785 524.14,781.397 524.84,780.011 525.54,778.629 526.24,777.249 526.94,775.872 527.64,774.498 528.341,773.127 529.041,771.759 529.741,770.394 530.441,769.032 531.141,767.672 531.841,766.316 532.541,764.962 533.241,763.611 533.941,762.263 534.642,760.917 535.342,759.575 536.042,758.235 536.742,756.898 537.442,755.564 538.142,754.233 538.842,752.905 539.542,751.579 540.243,750.256 540.943,748.936 541.643,747.619 542.343,746.304 543.043,744.992 543.743,743.683 544.443,742.377 545.143,741.073 545.844,739.772 546.544,738.474 547.244,737.179 547.944,735.886 548.644,734.596 549.344,733.309 550.044,732.024 550.744,730.742 551.445,729.463 552.145,728.187 552.845,726.913 553.545,725.642 554.245,724.373 554.945,723.107 555.645,721.844 556.345,720.584 557.045,719.326 557.746,718.071 558.446,716.818 559.146,715.568 559.846,714.321 560.546,713.076 561.246,711.834 561.946,710.594 562.646,709.357 563.347,708.123 564.047,706.891 564.747,705.662 565.447,704.436 566.147,703.212 566.847,701.99 567.547,700.771 568.247,699.555 568.948,698.341 569.648,697.13 570.348,695.921 571.048,694.715 571.748,693.512 572.448,692.311 573.148,691.112 573.848,689.916 574.548,688.723 575.249,687.532 575.949,686.343 576.649,685.157 577.349,683.973 578.049,682.792 578.749,681.614 579.449,680.438 580.149,679.264 580.85,678.093 581.55,676.924 582.25,675.758 582.95,674.594 583.65,673.433 584.35,672.274 585.05,671.117 585.75,669.963 586.451,668.811 587.151,667.662 587.851,666.515 588.551,665.371 589.251,664.229 589.951,663.089 590.651,661.952 591.351,660.817 592.052,659.684 592.752,658.554 593.452,657.427 594.152,656.301 594.852,655.178 595.552,654.057 596.252,652.939 596.952,651.823 597.652,650.71 598.353,649.598 599.053,648.489 599.753,647.383 600.453,646.278 601.153,645.176 601.853,644.077 602.553,642.979 603.253,641.884 603.954,640.792 604.654,639.701 605.354,638.613 606.054,637.527 606.754,636.443 607.454,635.362 608.154,634.283 608.854,633.206 609.555,632.131 610.255,631.059 610.955,629.989 611.655,628.921 612.355,627.856 613.055,626.792 613.755,625.731 614.455,624.672 615.156,623.616 615.856,622.561 616.556,621.509 617.256,620.459 617.956,619.411 618.656,618.365 619.356,617.322 620.056,616.281 620.756,615.242 621.457,614.205 622.157,613.17 622.857,612.138 623.557,611.107 624.257,610.079 624.957,609.053 625.657,608.029 626.357,607.007 627.058,605.988 627.758,604.97 628.458,603.955 629.158,602.942 629.858,601.931 630.558,600.922 631.258,599.915 631.958,598.91 632.659,597.907 633.359,596.907 634.059,595.909 634.759,594.912 635.459,593.918 636.159,592.926 636.859,591.936 637.559,590.948 638.26,589.962 638.96,588.978 639.66,587.996 640.36,587.016 641.06,586.039 641.76,585.063 642.46,584.09 643.16,583.118 643.86,582.149 644.561,581.181 645.261,580.216 645.961,579.252 646.661,578.291 647.361,577.332 648.061,576.374 648.761,575.419 649.461,574.465 650.162,573.514 650.862,572.565 651.562,571.617 652.262,570.672 652.962,569.729 653.662,568.787 654.362,567.848 655.062,566.91 655.763,565.975 656.463,565.041 657.163,564.11 657.863,563.18 658.563,562.252 659.263,561.327 659.963,560.403 660.663,559.481 661.364,558.561 662.064,557.643 662.764,556.727 663.464,555.813 664.164,554.901 664.864,553.991 665.564,553.082 666.264,552.176 666.964,551.271 667.665,550.368 668.365,549.468 669.065,548.569 669.765,547.672 670.465,546.777 671.165,545.883 671.865,544.992 672.565,544.102 673.266,543.215 673.966,542.329 674.666,541.445 675.366,540.563 676.066,539.683 676.766,538.804 677.466,537.928 678.166,537.053 678.867,536.18 679.567,535.309 680.267,534.44 680.967,533.573 681.667,532.707 682.367,531.843 683.067,530.981 683.767,530.121 684.468,529.263 685.168,528.406 685.868,527.552 686.568,526.699 687.268,525.848 687.968,524.998 688.668,524.151 689.368,523.305 690.068,522.461 690.769,521.619 691.469,520.778 692.169,519.94 692.869,519.103 693.569,518.267 694.269,517.434 694.969,516.602 695.669,515.772 696.37,514.944 697.07,514.118 697.77,513.293 698.47,512.47 699.17,511.648 699.87,510.829 700.57,510.011 701.27,509.195 701.971,508.381 702.671,507.568 703.371,506.757 704.071,505.948 704.771,505.14 705.471,504.334 706.171,503.53 706.871,502.727 707.571,501.926 708.272,501.127 708.972,500.33 709.672,499.534 710.372,498.74 711.072,497.947 711.772,497.156 712.472,496.367 713.172,495.58 713.873,494.794 714.573,494.01 715.273,493.227 715.973,492.446 716.673,491.667 717.373,490.889 718.073,490.113 718.773,489.339 719.474,488.566 720.174,487.795 720.874,487.025 721.574,486.258 722.274,485.491 722.974,484.727 723.674,483.963 724.374,483.202 725.075,482.442 725.775,481.684 726.475,480.927 727.175,480.172 727.875,479.418 728.575,478.666 729.275,477.916 729.975,477.167 730.675,476.42 731.376,475.674 732.076,474.93 732.776,474.188 733.476,473.447 734.176,472.707 734.876,471.969 735.576,471.233 736.276,470.498 736.977,469.765 737.677,469.033 738.377,468.303 739.077,467.575 739.777,466.847 740.477,466.122 741.177,465.398 741.877,464.675 742.578,463.954 743.278,463.235 743.978,462.517 744.678,461.8 745.378,461.085 746.078,460.372 746.778,459.66 747.478,458.949 748.179,458.24 748.879,457.533 749.579,456.827 750.279,456.122 750.979,455.419 751.679,454.717 752.379,454.017 753.079,453.319 753.779,452.621 754.48,451.926 755.18,451.231 755.88,450.539 756.58,449.847 757.28,449.157 757.98,448.469 758.68,447.782 759.38,447.096 760.081,446.412 760.781,445.729 761.481,445.048 762.181,444.368 762.881,443.69 763.581,443.013 764.281,442.337 764.981,441.663 765.682,440.99 766.382,440.319 767.082,439.649 767.782,438.981 768.482,438.313 769.182,437.648 769.882,436.983 770.582,436.32 771.283,435.659 771.983,434.999 772.683,434.34 773.383,433.683 774.083,433.027 774.783,432.372 775.483,431.719 776.183,431.067 776.883,430.416 777.584,429.767 778.284,429.119 778.984,428.473 779.684,427.828 780.384,427.184 781.084,426.542 781.784,425.901 782.484,425.261 783.185,424.623 783.885,423.986 784.585,423.35 785.285,422.716 785.985,422.083 786.685,421.451 787.385,420.821 788.085,420.192 788.786,419.564 789.486,418.937 790.186,418.312 790.886,417.689 791.586,417.066 792.286,416.445 792.986,415.825 793.686,415.207 794.387,414.589 795.087,413.973 795.787,413.359 796.487,412.745 797.187,412.133 797.887,411.522 798.587,410.913 799.287,410.305 799.987,409.698 800.688,409.092 801.388,408.488 802.088,407.884 802.788,407.283 803.488,406.682 804.188,406.083 804.888,405.484 805.588,404.888 806.289,404.292 806.989,403.698 807.689,403.105 808.389,402.513 809.089,401.922 809.789,401.333 810.489,400.745 811.189,400.158 811.89,399.572 812.59,398.987 813.29,398.404 813.99,397.822 814.69,397.241 815.39,396.662 816.09,396.084 816.79,395.506 817.49,394.931 818.191,394.356 818.891,393.782 819.591,393.21 820.291,392.639 820.991,392.069 821.691,391.5 822.391,390.933 823.091,390.366 823.792,389.801 824.492,389.237 825.192,388.675 825.892,388.113 826.592,387.553 827.292,386.993 827.992,386.435 828.692,385.878 829.393,385.323 830.093,384.768 830.793,384.215 831.493,383.662 832.193,383.111 832.893,382.561 833.593,382.013 834.293,381.465 834.994,380.919 835.694,380.373 836.394,379.829 837.094,379.286 837.794,378.744 838.494,378.203 839.194,377.664 839.894,377.125 840.594,376.588 841.295,376.052 841.995,375.517 842.695,374.983 843.395,374.45 844.095,373.918 844.795,373.387 845.495,372.858 846.195,372.329 846.896,371.802 847.596,371.276 848.296,370.751 848.996,370.227 849.696,369.704 850.396,369.182 851.096,368.661 851.796,368.142 852.497,367.623 853.197,367.106 853.897,366.589 854.597,366.074 855.297,365.56 855.997,365.047 856.697,364.535 857.397,364.024 858.098,363.514 858.798,363.005 859.498,362.498 860.198,361.991 860.898,361.485 861.598,360.981 862.298,360.477 862.998,359.975 863.698,359.473 864.399,358.973 865.099,358.474 865.799,357.976 866.499,357.478 867.199,356.982 867.899,356.487 868.599,355.993 869.299,355.5 870,355.008 870.7,354.517 871.4,354.027 872.1,353.538 872.8,353.05 873.5,352.563 874.2,352.078 874.9,351.593 875.601,351.109 876.301,350.626 877.001,350.144 877.701,349.664 878.401,349.184 879.101,348.705 879.801,348.227 880.501,347.751 881.202,347.275 881.902,346.8 882.602,346.326 883.302,345.854 884.002,345.382 884.702,344.911 885.402,344.441 886.102,343.973 886.802,343.505 887.503,343.038 888.203,342.572 888.903,342.107 889.603,341.643 890.303,341.18 891.003,340.718 891.703,340.257 892.403,339.797 893.104,339.338 893.804,338.88 894.504,338.423 895.204,337.967 895.904,337.512 896.604,337.057 897.304,336.604 898.004,336.152 898.705,335.7 899.405,335.25 900.105,334.8 900.805,334.352 901.505,333.904 902.205,333.457 902.905,333.012 903.605,332.567 904.306,332.123 905.006,331.68 905.706,331.238 906.406,330.797 907.106,330.357 907.806,329.917 908.506,329.479 909.206,329.042 909.906,328.605 910.607,328.17 911.307,327.735 912.007,327.301 912.707,326.868 913.407,326.436 914.107,326.005 914.807,325.575 915.507,325.146 916.208,324.718 916.908,324.29 917.608,323.864 918.308,323.438 919.008,323.013 919.708,322.59 920.408,322.167 921.108,321.745 921.809,321.323 922.509,320.903 923.209,320.484 923.909,320.065 924.609,319.647 925.309,319.231 926.009,318.815 926.709,318.4 927.409,317.986 928.11,317.572 928.81,317.16 929.51,316.748 930.21,316.338 930.91,315.928 931.61,315.519 932.31,315.111 933.01,314.703 933.711,314.297 934.411,313.891 935.111,313.487 935.811,313.083 936.511,312.68 937.211,312.278 937.911,311.876 938.611,311.476 939.312,311.076 940.012,310.677 940.712,310.279 941.412,309.882 942.112,309.486 942.812,309.09 943.512,308.696 944.212,308.302 944.913,307.909 945.613,307.517 946.313,307.126 947.013,306.735 947.713,306.345 948.413,305.956 949.113,305.568 949.813,305.181 950.513,304.795 951.214,304.409 951.914,304.024 952.614,303.64 953.314,303.257 954.014,302.875 954.714,302.493 955.414,302.112 956.114,301.732 956.815,301.353 957.515,300.975 958.215,300.597 958.915,300.22 959.615,299.844 960.315,299.469 961.015,299.094 961.715,298.721 962.416,298.348 963.116,297.976 963.816,297.604 964.516,297.234 965.216,296.864 965.916,296.495 966.616,296.127 967.316,295.759 968.017,295.393 968.717,295.027 969.417,294.662 970.117,294.297 970.817,293.934 971.517,293.571 972.217,293.209 972.917,292.847 973.617,292.487 974.318,292.127 975.018,291.768 975.718,291.41 976.418,291.052 977.118,290.695 977.818,290.339 978.518,289.984 979.218,289.63 979.919,289.276 980.619,288.923 981.319,288.57 982.019,288.219 982.719,287.868 983.419,287.518 984.119,287.168 984.819,286.82 985.52,286.472 986.22,286.125 986.92,285.778 987.62,285.432 988.32,285.087 989.02,284.743 989.72,284.4 990.42,284.057 991.121,283.715 991.821,283.373 992.521,283.032 993.221,282.692 993.921,282.353 994.621,282.015 995.321,281.677 996.021,281.34 996.721,281.003 997.422,280.668 998.122,280.333 998.822,279.998 999.522,279.665 1000.22,279.332 1000.92,278.999 1001.62,278.668 1002.32,278.337 1003.02,278.007 1003.72,277.678 1004.42,277.349 1005.12,277.021 1005.82,276.693 1006.52,276.367 1007.22,276.041 1007.92,275.715 1008.62,275.391 1009.32,275.067 1010.02,274.744 1010.72,274.421 1011.42,274.099 1012.12,273.778 1012.82,273.457 1013.52,273.137 1014.22,272.818 1014.92,272.5 1015.62,272.182 1016.32,271.865 1017.02,271.548 1017.73,271.232 1018.43,270.917 1019.13,270.602 1019.83,270.288 1020.53,269.975 1021.23,269.663 1021.93,269.351 1022.63,269.039 1023.33,268.729 1024.03,268.419 1024.73,268.11 1025.43,267.801 1026.13,267.493 1026.83,267.185 1027.53,266.879 1028.23,266.573 1028.93,266.267 1029.63,265.962 1030.33,265.658 1031.03,265.355 1031.73,265.052 1032.43,264.75 1033.13,264.448 1033.83,264.147 1034.53,263.847 1035.23,263.547 1035.93,263.248 1036.63,262.949 1037.33,262.651 1038.03,262.354 1038.73,262.058 1039.43,261.762 1040.13,261.466 1040.83,261.172 1041.53,260.877 1042.23,260.584 1042.93,260.291 1043.63,259.999 1044.33,259.707 1045.03,259.416 1045.73,259.126 1046.43,258.836 1047.13,258.547 1047.83,258.258 1048.53,257.97 1049.23,257.683 1049.93,257.396 1050.63,257.11 1051.33,256.824 1052.03,256.539 1052.73,256.255 1053.43,255.971 1054.13,255.688 1054.83,255.405 1055.53,255.123 1056.23,254.842 1056.93,254.561 1057.63,254.28 1058.33,254.001 1059.03,253.722 1059.73,253.443 1060.43,253.165 1061.13,252.888 1061.83,252.611 1062.53,252.335 1063.23,252.06 1063.93,251.785 1064.63,251.51 1065.33,251.236 1066.03,250.963 1066.73,250.69 1067.43,250.418 1068.13,250.147 1068.83,249.876 1069.53,249.605 1070.23,249.335 1070.93,249.066 1071.63,248.797 1072.33,248.529 1073.03,248.262 1073.73,247.995 1074.43,247.728 1075.14,247.462 1075.84,247.197 1076.54,246.932 1077.24,246.668 1077.94,246.404 1078.64,246.141 1079.34,245.878 1080.04,245.616 1080.74,245.355 1081.44,245.094 1082.14,244.833 1082.84,244.574 1083.54,244.314 1084.24,244.056 1084.94,243.797 1085.64,243.54 1086.34,243.283 1087.04,243.026 1087.74,242.77 1088.44,242.514 1089.14,242.259 1089.84,242.005 1090.54,241.751 1091.24,241.498 1091.94,241.245 1092.64,240.993 1093.34,240.741 1094.04,240.49 1094.74,240.239 1095.44,239.989 1096.14,239.739 1096.84,239.49 1097.54,239.241 1098.24,238.993 1098.94,238.745 1099.64,238.498 1100.34,238.252 1101.04,238.006 1101.74,237.76 1102.44,237.515 1103.14,237.271 1103.84,237.027 1104.54,236.783 1105.24,236.54 1105.94,236.298 1106.64,236.056 1107.34,235.815 1108.04,235.574 1108.74,235.333 1109.44,235.093 1110.14,234.854 1110.84,234.615 1111.54,234.377 1112.24,234.139 1112.94,233.901 1113.64,233.664 1114.34,233.428 1115.04,233.192 1115.74,232.957 1116.44,232.722 1117.14,232.487 1117.84,232.253 1118.54,232.02 1119.24,231.787 1119.94,231.554 1120.64,231.322 1121.34,231.091 1122.04,230.86 1122.74,230.629 1123.44,230.399 1124.14,230.17 1124.84,229.941 1125.54,229.712 1126.24,229.484 1126.94,229.256 1127.64,229.029 1128.34,228.802 1129.04,228.576 1129.74,228.351 1130.44,228.125 1131.14,227.9 1131.84,227.676 1132.54,227.452 1133.25,227.229 1133.95,227.006 1134.65,226.784 1135.35,226.562 1136.05,226.34 1136.75,226.119 1137.45,225.898 1138.15,225.678 1138.85,225.459 1139.55,225.239 1140.25,225.021 1140.95,224.802 1141.65,224.585 1142.35,224.367 1143.05,224.15 1143.75,223.934 1144.45,223.718 1145.15,223.502 1145.85,223.287 1146.55,223.073 1147.25,222.858 1147.95,222.645 1148.65,222.431 1149.35,222.219 1150.05,222.006 1150.75,221.794 1151.45,221.583 1152.15,221.372 1152.85,221.161 1153.55,220.951 1154.25,220.741 1154.95,220.532 1155.65,220.323 1156.35,220.114 1157.05,219.906 1157.75,219.699 1158.45,219.492 1159.15,219.285 1159.85,219.079 1160.55,218.873 1161.25,218.668 1161.95,218.463 1162.65,218.258 1163.35,218.054 1164.05,217.85 1164.75,217.647 1165.45,217.444 1166.15,217.242 1166.85,217.04 1167.55,216.839 1168.25,216.637 1168.95,216.437 1169.65,216.236 1170.35,216.037 1171.05,215.837 1171.75,215.638 1172.45,215.44 1173.15,215.241 1173.85,215.044 1174.55,214.846 1175.25,214.649 1175.95,214.453 1176.65,214.257 1177.35,214.061 1178.05,213.866 1178.75,213.671 1179.45,213.476 1180.15,213.282 1180.85,213.089 1181.55,212.895 1182.25,212.703 1182.95,212.51 1183.65,212.318 1184.35,212.126 1185.05,211.935 1185.75,211.744 1186.45,211.554 1187.15,211.364 1187.85,211.174 1188.55,210.985 1189.25,210.796 1189.95,210.608 1190.66,210.42 1191.36,210.232 1192.06,210.045 1192.76,209.858 1193.46,209.672 1194.16,209.485 1194.86,209.3 1195.56,209.114 1196.26,208.93 1196.96,208.745 1197.66,208.561 1198.36,208.377 1199.06,208.194 1199.76,208.011 1200.46,207.828 1201.16,207.646 1201.86,207.464 1202.56,207.283 1203.26,207.102 1203.96,206.921 1204.66,206.741 1205.36,206.561 1206.06,206.381 1206.76,206.202 1207.46,206.023 1208.16,205.845 1208.86,205.667 1209.56,205.489 1210.26,205.312 1210.96,205.135 1211.66,204.958 1212.36,204.782 1213.06,204.606 1213.76,204.431 1214.46,204.256 1215.16,204.081 1215.86,203.907 1216.56,203.733 1217.26,203.559 1217.96,203.386 1218.66,203.213 1219.36,203.04 1220.06,202.868 1220.76,202.696 1221.46,202.525 1222.16,202.354 1222.86,202.183 1223.56,202.013 1224.26,201.843 1224.96,201.673 1225.66,201.504 1226.36,201.335 1227.06,201.166 1227.76,200.998 1228.46,200.83 1229.16,200.663 1229.86,200.495 1230.56,200.329 1231.26,200.162 1231.96,199.996 1232.66,199.83 1233.36,199.665 1234.06,199.5 1234.76,199.335 1235.46,199.17 1236.16,199.006 1236.86,198.843 1237.56,198.679 1238.26,198.516 1238.96,198.354 1239.66,198.191 1240.36,198.029 1241.06,197.868 1241.76,197.706 1242.46,197.545 1243.16,197.385 1243.86,197.224 1244.56,197.064 1245.26,196.905 1245.96,196.746 1246.66,196.587 1247.36,196.428 1248.06,196.27 1248.77,196.112 1249.47,195.954 1250.17,195.797 1250.87,195.64 1251.57,195.483 1252.27,195.327 1252.97,195.171 1253.67,195.015 1254.37,194.86 1255.07,194.705 1255.77,194.55 1256.47,194.396 1257.17,194.242 1257.87,194.088 1258.57,193.935 1259.27,193.782 1259.97,193.629 1260.67,193.476 1261.37,193.324 1262.07,193.173 1262.77,193.021 1263.47,192.87 1264.17,192.719 1264.87,192.569 1265.57,192.418 1266.27,192.268 1266.97,192.119 1267.67,191.97 1268.37,191.821 1269.07,191.672 1269.77,191.524 1270.47,191.376 1271.17,191.228 1271.87,191.081 1272.57,190.934 1273.27,190.787 1273.97,190.64 1274.67,190.494 1275.37,190.348 1276.07,190.203 1276.77,190.058 1277.47,189.913 1278.17,189.768 1278.87,189.624 1279.57,189.48 1280.27,189.336 1280.97,189.192 1281.67,189.049 1282.37,188.907 1283.07,188.764 1283.77,188.622 1284.47,188.48 1285.17,188.338 1285.87,188.197 1286.57,188.056 1287.27,187.915 1287.97,187.775 1288.67,187.635 1289.37,187.495 1290.07,187.355 1290.77,187.216 1291.47,187.077 1292.17,186.938 1292.87,186.8 1293.57,186.662 1294.27,186.524 1294.97,186.386 1295.67,186.249 1296.37,186.112 1297.07,185.976 1297.77,185.839 1298.47,185.703 1299.17,185.567 1299.87,185.432 1300.57,185.297 1301.27,185.162 1301.97,185.027 1302.67,184.893 1303.37,184.759 1304.07,184.625 1304.77,184.491 1305.47,184.358 1306.17,184.225 1306.88,184.092 1307.58,183.96 1308.28,183.828 1308.98,183.696 1309.68,183.564 1310.38,183.433 1311.08,183.302 1311.78,183.171 1312.48,183.041 1313.18,182.91 1313.88,182.78 1314.58,182.651 1315.28,182.521 1315.98,182.392 1316.68,182.263 1317.38,182.135 1318.08,182.007 1318.78,181.878 1319.48,181.751 1320.18,181.623 1320.88,181.496 1321.58,181.369 1322.28,181.242 1322.98,181.116 1323.68,180.99 1324.38,180.864 1325.08,180.738 1325.78,180.613 1326.48,180.488 1327.18,180.363 1327.88,180.238 1328.58,180.114 1329.28,179.99 1329.98,179.866 1330.68,179.742 1331.38,179.619 1332.08,179.496 1332.78,179.373 1333.48,179.251 1334.18,179.128 1334.88,179.006 1335.58,178.885 1336.28,178.763 1336.98,178.642 1337.68,178.521 1338.38,178.4 1339.08,178.28 1339.78,178.16 1340.48,178.04 1341.18,177.92 1341.88,177.8 1342.58,177.681 1343.28,177.562 1343.98,177.443 1344.68,177.325 1345.38,177.207 1346.08,177.089 1346.78,176.971 1347.48,176.854 1348.18,176.736 1348.88,176.619 1349.58,176.503 1350.28,176.386 1350.98,176.27 1351.68,176.154 1352.38,176.038 1353.08,175.923 1353.78,175.807 1354.48,175.692 1355.18,175.577 1355.88,175.463 1356.58,175.349 1357.28,175.235 1357.98,175.121 1358.68,175.007 1359.38,174.894 1360.08,174.781 1360.78,174.668 1361.48,174.555 1362.18,174.443 1362.88,174.33 1363.58,174.219 1364.29,174.107 1364.99,173.995 1365.69,173.884 1366.39,173.773 1367.09,173.662 1367.79,173.552 1368.49,173.441 1369.19,173.331 1369.89,173.222 1370.59,173.112 1371.29,173.003 1371.99,172.893 1372.69,172.784 1373.39,172.676 1374.09,172.567 1374.79,172.459 1375.49,172.351 1376.19,172.243 1376.89,172.136 1377.59,172.028 1378.29,171.921 1378.99,171.814 1379.69,171.708 1380.39,171.601 1381.09,171.495 1381.79,171.389 1382.49,171.283 1383.19,171.178 1383.89,171.072 1384.59,170.967 1385.29,170.862 1385.99,170.758 1386.69,170.653 1387.39,170.549 1388.09,170.445 1388.79,170.341 1389.49,170.238 1390.19,170.134 1390.89,170.031 1391.59,169.928 1392.29,169.826 1392.99,169.723 1393.69,169.621 1394.39,169.519 1395.09,169.417 1395.79,169.315 1396.49,169.214 1397.19,169.113 1397.89,169.012 1398.59,168.911 1399.29,168.81 1399.99,168.71 1400.69,168.61 1401.39,168.51 1402.09,168.41 1402.79,168.311 1403.49,168.211 1404.19,168.112 1404.89,168.013 1405.59,167.915 1406.29,167.816 1406.99,167.718 1407.69,167.62 1408.39,167.522 1409.09,167.424 1409.79,167.327 1410.49,167.23 1411.19,167.132 1411.89,167.036 1412.59,166.939 1413.29,166.843 1413.99,166.746 1414.69,166.65 1415.39,166.554 1416.09,166.459 1416.79,166.363 1417.49,166.268 1418.19,166.173 1418.89,166.078 1419.59,165.984 1420.29,165.889 1420.99,165.795 1421.69,165.701 1422.4,165.607 1423.1,165.514 1423.8,165.42 1424.5,165.327 1425.2,165.234 1425.9,165.141 1426.6,165.048 1427.3,164.956 1428,164.864 1428.7,164.771 1429.4,164.68 1430.1,164.588 1430.8,164.496 1431.5,164.405 1432.2,164.314 1432.9,164.223 1433.6,164.132 1434.3,164.042 1435,163.951 1435.7,163.861 1436.4,163.771 1437.1,163.681 1437.8,163.592 1438.5,163.502 1439.2,163.413 1439.9,163.324 1440.6,163.235 1441.3,163.147 1442,163.058 1442.7,162.97 1443.4,162.882 1444.1,162.794 1444.8,162.706 1445.5,162.619 1446.2,162.531 1446.9,162.444 1447.6,162.357 1448.3,162.27 1449,162.183 1449.7,162.097 1450.4,162.011 1451.1,161.925 1451.8,161.839 1452.5,161.753 1453.2,161.667 1453.9,161.582 1454.6,161.497 1455.3,161.412 1456,161.327 1456.7,161.242 1457.4,161.158 1458.1,161.074 1458.8,160.989 1459.5,160.905 1460.2,160.822 1460.9,160.738 1461.6,160.655 1462.3,160.571 1463,160.488 1463.7,160.405 1464.4,160.323 1465.1,160.24 1465.8,160.158 1466.5,160.076 1467.2,159.994 1467.9,159.912 1468.6,159.83 1469.3,159.748 1470,159.667 1470.7,159.586 1471.4,159.505 1472.1,159.424 1472.8,159.343 1473.5,159.263 1474.2,159.183 1474.9,159.102 1475.6,159.022 1476.3,158.943 1477,158.863 1477.7,158.783 1478.4,158.704 1479.1,158.625 1479.8,158.546 1480.51,158.467 1481.21,158.388 1481.91,158.31 1482.61,158.232 1483.31,158.153 1484.01,158.075 1484.71,157.998 1485.41,157.92 1486.11,157.842 1486.81,157.765 1487.51,157.688 1488.21,157.611 1488.91,157.534 1489.61,157.457 1490.31,157.381 1491.01,157.304 1491.71,157.228 1492.41,157.152 1493.11,157.076 1493.81,157 1494.51,156.925 1495.21,156.849 1495.91,156.774 1496.61,156.699 1497.31,156.624 1498.01,156.549 1498.71,156.475 1499.41,156.4 1500.11,156.326 1500.81,156.252 1501.51,156.178 1502.21,156.104 1502.91,156.03 1503.61,155.956 1504.31,155.883 1505.01,155.81 1505.71,155.737 1506.41,155.664 1507.11,155.591 1507.81,155.518 1508.51,155.446 1509.21,155.374 1509.91,155.301 1510.61,155.229 1511.31,155.158 1512.01,155.086 1512.71,155.014 1513.41,154.943 1514.11,154.872 1514.81,154.8 1515.51,154.729 1516.21,154.659 1516.91,154.588 1517.61,154.517 1518.31,154.447 1519.01,154.377 1519.71,154.307 1520.41,154.237 1521.11,154.167 1521.81,154.097 1522.51,154.028 1523.21,153.959 1523.91,153.889 1524.61,153.82 1525.31,153.751 1526.01,153.683 1526.71,153.614 1527.41,153.545 1528.11,153.477 1528.81,153.409 1529.51,153.341 1530.21,153.273 1530.91,153.205 1531.61,153.138 1532.31,153.07 1533.01,153.003 1533.71,152.936 1534.41,152.869 1535.11,152.802 1535.81,152.735 1536.51,152.668 1537.21,152.602 1537.92,152.535 1538.62,152.469 1539.32,152.403 1540.02,152.337 1540.72,152.271 1541.42,152.206 1542.12,152.14 1542.82,152.075 1543.52,152.009 1544.22,151.944 1544.92,151.879 1545.62,151.814 1546.32,151.75 1547.02,151.685 1547.72,151.621 1548.42,151.556 1549.12,151.492 1549.82,151.428 1550.52,151.364 1551.22,151.301 1551.92,151.237 1552.62,151.173 1553.32,151.11 1554.02,151.047 1554.72,150.984 1555.42,150.921 1556.12,150.858 1556.82,150.795 1557.52,150.733 1558.22,150.67 1558.92,150.608 1559.62,150.546 1560.32,150.484 1561.02,150.422 1561.72,150.36 1562.42,150.298 1563.12,150.237 1563.82,150.175 1564.52,150.114 1565.22,150.053 1565.92,149.992 1566.62,149.931 1567.32,149.87 1568.02,149.81 1568.72,149.749 1569.42,149.689 1570.12,149.629 1570.82,149.569 1571.52,149.509 1572.22,149.449 1572.92,149.389 1573.62,149.329 1574.32,149.27 1575.02,149.21 1575.72,149.151 1576.42,149.092 1577.12,149.033 1577.82,148.974 1578.52,148.915 1579.22,148.857 1579.92,148.798 1580.62,148.74 1581.32,148.682 1582.02,148.624 1582.72,148.566 1583.42,148.508 1584.12,148.45 1584.82,148.392 1585.52,148.335 1586.22,148.277 1586.92,148.22 1587.62,148.163 1588.32,148.106 1589.02,148.049 1589.72,147.992 1590.42,147.935 1591.12,147.879 1591.82,147.822 1592.52,147.766 1593.22,147.71 1593.92,147.654 1594.62,147.598 1595.32,147.542 1596.03,147.486 1596.73,147.431 1597.43,147.375 1598.13,147.32 1598.83,147.264 1599.53,147.209 1600.23,147.154 1600.93,147.099 1601.63,147.044 1602.33,146.99 1603.03,146.935 1603.73,146.881 1604.43,146.826 1605.13,146.772 1605.83,146.718 1606.53,146.664 1607.23,146.61 1607.93,146.556 1608.63,146.502 1609.33,146.449 1610.03,146.395 1610.73,146.342 1611.43,146.289 1612.13,146.236 1612.83,146.183 1613.53,146.13 1614.23,146.077 1614.93,146.024 1615.63,145.972 1616.33,145.919 1617.03,145.867 1617.73,145.815 1618.43,145.763 1619.13,145.711 1619.83,145.659 1620.53,145.607 1621.23,145.555 1621.93,145.504 1622.63,145.452 1623.33,145.401 1624.03,145.35 1624.73,145.299 1625.43,145.248 1626.13,145.197 1626.83,145.146 1627.53,145.095 1628.23,145.044 1628.93,144.994 1629.63,144.944 1630.33,144.893 1631.03,144.843 1631.73,144.793 1632.43,144.743 1633.13,144.693 1633.83,144.643 1634.53,144.594 1635.23,144.544 1635.93,144.495 1636.63,144.445 1637.33,144.396 1638.03,144.347 1638.73,144.298 1639.43,144.249 1640.13,144.2 1640.83,144.151 1641.53,144.103 1642.23,144.054 1642.93,144.006 1643.63,143.957 1644.33,143.909 1645.03,143.861 1645.73,143.813 1646.43,143.765 1647.13,143.717 1647.83,143.67 1648.53,143.622 1649.23,143.574 1649.93,143.527 1650.63,143.48 1651.33,143.432 1652.03,143.385 1652.73,143.338 1653.44,143.291 1654.14,143.245 1654.84,143.198 1655.54,143.151 1656.24,143.105 1656.94,143.058 1657.64,143.012 1658.34,142.966 1659.04,142.92 1659.74,142.873 1660.44,142.828 1661.14,142.782 1661.84,142.736 1662.54,142.69 1663.24,142.645 1663.94,142.599 1664.64,142.554 1665.34,142.509 1666.04,142.463 1666.74,142.418 1667.44,142.373 1668.14,142.328 1668.84,142.284 1669.54,142.239 1670.24,142.194 1670.94,142.15 1671.64,142.105 1672.34,142.061 1673.04,142.017 1673.74,141.973 1674.44,141.929 1675.14,141.885 1675.84,141.841 1676.54,141.797 1677.24,141.753 1677.94,141.71 1678.64,141.666 1679.34,141.623 1680.04,141.579 1680.74,141.536 1681.44,141.493 1682.14,141.45 1682.84,141.407 1683.54,141.364 1684.24,141.321 1684.94,141.279 1685.64,141.236 1686.34,141.193 1687.04,141.151 1687.74,141.109 1688.44,141.066 1689.14,141.024 1689.84,140.982 1690.54,140.94 1691.24,140.898 1691.94,140.857 1692.64,140.815 1693.34,140.773 1694.04,140.732 1694.74,140.69 1695.44,140.649 1696.14,140.608 1696.84,140.566 1697.54,140.525 1698.24,140.484 1698.94,140.443 1699.64,140.402 1700.34,140.362 1701.04,140.321 1701.74,140.28 1702.44,140.24 1703.14,140.199 1703.84,140.159 1704.54,140.119 1705.24,140.079 1705.94,140.039 1706.64,139.999 1707.34,139.959 1708.04,139.919 1708.74,139.879 1709.44,139.839 1710.14,139.8 1710.84,139.76 1711.55,139.721 1712.25,139.682 1712.95,139.642 1713.65,139.603 1714.35,139.564 1715.05,139.525 1715.75,139.486 1716.45,139.447 1717.15,139.408 1717.85,139.37 1718.55,139.331 1719.25,139.293 1719.95,139.254 1720.65,139.216 1721.35,139.178 1722.05,139.139 1722.75,139.101 1723.45,139.063 1724.15,139.025 1724.85,138.987 1725.55,138.95 1726.25,138.912 1726.95,138.874 1727.65,138.837 1728.35,138.799 1729.05,138.762 1729.75,138.724 1730.45,138.687 1731.15,138.65 1731.85,138.613 1732.55,138.576 1733.25,138.539 1733.95,138.502 1734.65,138.465 1735.35,138.429 1736.05,138.392 1736.75,138.355 1737.45,138.319 1738.15,138.283 1738.85,138.246 1739.55,138.21 1740.25,138.174 1740.95,138.138 1741.65,138.102 1742.35,138.066 1743.05,138.03 1743.75,137.994 1744.45,137.958 1745.15,137.923 1745.85,137.887 1746.55,137.852 1747.25,137.816 1747.95,137.781 1748.65,137.746 1749.35,137.711 1750.05,137.675 1750.75,137.64 1751.45,137.605 1752.15,137.571 1752.85,137.536 1753.55,137.501 1754.25,137.466 1754.95,137.432 1755.65,137.397 1756.35,137.363 1757.05,137.328 1757.75,137.294 1758.45,137.26 1759.15,137.226 1759.85,137.191 1760.55,137.157 1761.25,137.123 1761.95,137.09 1762.65,137.056 1763.35,137.022 1764.05,136.988 1764.75,136.955 1765.45,136.921 1766.15,136.888 1766.85,136.854 1767.55,136.821 1768.25,136.788 1768.95,136.755 1769.66,136.721 1770.36,136.688 1771.06,136.655 1771.76,136.622 1772.46,136.59 1773.16,136.557 1773.86,136.524 1774.56,136.492 1775.26,136.459 1775.96,136.426 1776.66,136.394 1777.36,136.362 1778.06,136.329 1778.76,136.297 1779.46,136.265 1780.16,136.233 1780.86,136.201 1781.56,136.169 1782.26,136.137 1782.96,136.105 1783.66,136.074 1784.36,136.042 1785.06,136.01 1785.76,135.979 1786.46,135.947 1787.16,135.916 1787.86,135.884 1788.56,135.853 1789.26,135.822 1789.96,135.791 1790.66,135.76 1791.36,135.729 1792.06,135.698 1792.76,135.667 1793.46,135.636 1794.16,135.605 1794.86,135.574 1795.56,135.544 1796.26,135.513 1796.96,135.483 1797.66,135.452 1798.36,135.422 1799.06,135.392 1799.76,135.361 1800.46,135.331 1801.16,135.301 1801.86,135.271 1802.56,135.241 1803.26,135.211 1803.96,135.181 1804.66,135.151 1805.36,135.122 1806.06,135.092 1806.76,135.062 1807.46,135.033 1808.16,135.003 1808.86,134.974 1809.56,134.944 1810.26,134.915 1810.96,134.886 1811.66,134.857 1812.36,134.827 1813.06,134.798 1813.76,134.769 1814.46,134.74 1815.16,134.712 1815.86,134.683 1816.56,134.654 1817.26,134.625 1817.96,134.597 1818.66,134.568 1819.36,134.539 1820.06,134.511 1820.76,134.483 1821.46,134.454 1822.16,134.426 1822.86,134.398 1823.56,134.37 1824.26,134.341 1824.96,134.313 1825.66,134.285 1826.36,134.257 1827.07,134.23 1827.77,134.202 1828.47,134.174 1829.17,134.146 1829.87,134.119 1830.57,134.091 1831.27,134.064 1831.97,134.036 1832.67,134.009 1833.37,133.981 1834.07,133.954 1834.77,133.927 1835.47,133.9 1836.17,133.872 1836.87,133.845 1837.57,133.818 1838.27,133.791 1838.97,133.765 1839.67,133.738 1840.37,133.711 1841.07,133.684 1841.77,133.657 1842.47,133.631 1843.17,133.604 1843.87,133.578 1844.57,133.551 1845.27,133.525 1845.97,133.499 1846.67,133.472 1847.37,133.446 1848.07,133.42 1848.77,133.394 1849.47,133.368 1850.17,133.342 1850.87,133.316 1851.57,133.29 1852.27,133.264 1852.97,133.238 1853.67,133.213 1854.37,133.187 1855.07,133.161 1855.77,133.136 1856.47,133.11 1857.17,133.085 1857.87,133.059 1858.57,133.034 1859.27,133.009 1859.97,132.983 1860.67,132.958 1861.37,132.933 1862.07,132.908 1862.77,132.883 1863.47,132.858 1864.17,132.833 1864.87,132.808 1865.57,132.783 1866.27,132.758 1866.97,132.734 1867.67,132.709 1868.37,132.684 1869.07,132.66 1869.77,132.635 1870.47,132.611 1871.17,132.586 1871.87,132.562 1872.57,132.538 1873.27,132.513 1873.97,132.489 1874.67,132.465 1875.37,132.441 1876.07,132.417 1876.77,132.393 1877.47,132.369 1878.17,132.345 1878.87,132.321 1879.57,132.297 1880.27,132.273 1880.97,132.25 1881.67,132.226 1882.37,132.202 1883.07,132.179 1883.77,132.155 1884.47,132.132 1885.18,132.108 1885.88,132.085 1886.58,132.062 1887.28,132.039 1887.98,132.015 1888.68,131.992 1889.38,131.969 1890.08,131.946 1890.78,131.923 1891.48,131.9 1892.18,131.877 1892.88,131.854 1893.58,131.831 1894.28,131.808 1894.98,131.786 1895.68,131.763 1896.38,131.74 1897.08,131.718 1897.78,131.695 1898.48,131.673 1899.18,131.65 1899.88,131.628 1900.58,131.606 1901.28,131.583 1901.98,131.561 1902.68,131.539 1903.38,131.517 1904.08,131.494 1904.78,131.472 1905.48,131.45 1906.18,131.428 1906.88,131.406 1907.58,131.385 1908.28,131.363 1908.98,131.341 1909.68,131.319 1910.38,131.297 1911.08,131.276 1911.78,131.254 1912.48,131.233 1913.18,131.211 1913.88,131.19 1914.58,131.168 1915.28,131.147 1915.98,131.125 1916.68,131.104 1917.38,131.083 1918.08,131.062 1918.78,131.04 1919.48,131.019 1920.18,130.998 1920.88,130.977 1921.58,130.956 1922.28,130.935 1922.98,130.914 1923.68,130.893 1924.38,130.873 1925.08,130.852 1925.78,130.831 1926.48,130.81 1927.18,130.79 1927.88,130.769 1928.58,130.749 1929.28,130.728 1929.98,130.708 1930.68,130.687 1931.38,130.667 1932.08,130.646 1932.78,130.626 1933.48,130.606 1934.18,130.586 1934.88,130.565 1935.58,130.545 1936.28,130.525 1936.98,130.505 1937.68,130.485 1938.38,130.465 1939.08,130.445 1939.78,130.425 1940.48,130.406 1941.18,130.386 1941.88,130.366 1942.58,130.346 1943.29,130.327 1943.99,130.307 1944.69,130.287 1945.39,130.268 1946.09,130.248 1946.79,130.229 1947.49,130.21 1948.19,130.19 1948.89,130.171 1949.59,130.151 1950.29,130.132 1950.99,130.113 1951.69,130.094 1952.39,130.075 1953.09,130.056 1953.79,130.037 1954.49,130.017 1955.19,129.999 1955.89,129.98 1956.59,129.961 1957.29,129.942 1957.99,129.923 1958.69,129.904 1959.39,129.885 1960.09,129.867 1960.79,129.848 1961.49,129.829 1962.19,129.811 1962.89,129.792 1963.59,129.774 1964.29,129.755 1964.99,129.737 1965.69,129.719 1966.39,129.7 1967.09,129.682 1967.79,129.664 1968.49,129.645 1969.19,129.627 1969.89,129.609 1970.59,129.591 1971.29,129.573 1971.99,129.555 1972.69,129.537 1973.39,129.519 1974.09,129.501 1974.79,129.483 1975.49,129.465 1976.19,129.447 1976.89,129.429 1977.59,129.412 1978.29,129.394 1978.99,129.376 1979.69,129.359 1980.39,129.341 1981.09,129.323 1981.79,129.306 1982.49,129.288 1983.19,129.271 1983.89,129.254 1984.59,129.236 1985.29,129.219 1985.99,129.202 1986.69,129.184 1987.39,129.167 1988.09,129.15 1988.79,129.133 1989.49,129.116 1990.19,129.099 1990.89,129.081 1991.59,129.064 1992.29,129.047 1992.99,129.03 1993.69,129.014 1994.39,128.997 1995.09,128.98 1995.79,128.963 1996.49,128.946 1997.19,128.93 1997.89,128.913 1998.59,128.896 1999.29,128.88 1999.99,128.863 2000.7,128.846 2001.4,128.83 2002.1,128.813 2002.8,128.797 2003.5,128.781 2004.2,128.764 2004.9,128.748 2005.6,128.731 2006.3,128.715 2007,128.699 2007.7,128.683 2008.4,128.667 2009.1,128.65 2009.8,128.634 2010.5,128.618 2011.2,128.602 2011.9,128.586 2012.6,128.57 2013.3,128.554 2014,128.538 2014.7,128.522 2015.4,128.507 2016.1,128.491 2016.8,128.475 2017.5,128.459 2018.2,128.444 2018.9,128.428 2019.6,128.412 2020.3,128.397 2021,128.381 2021.7,128.365 2022.4,128.35 2023.1,128.334 2023.8,128.319 2024.5,128.304 2025.2,128.288 2025.9,128.273 2026.6,128.258 2027.3,128.242 2028,128.227 2028.7,128.212 2029.4,128.197 2030.1,128.181 2030.8,128.166 2031.5,128.151 2032.2,128.136 2032.9,128.121 2033.6,128.106 2034.3,128.091 2035,128.076 2035.7,128.061 2036.4,128.046 2037.1,128.032 2037.8,128.017 2038.5,128.002 2039.2,127.987 2039.9,127.972 2040.6,127.958 2041.3,127.943 2042,127.928 2042.7,127.914 2043.4,127.899 2044.1,127.885 2044.8,127.87 2045.5,127.856 2046.2,127.841 2046.9,127.827 2047.6,127.813 2048.3,127.798 2049,127.784 2049.7,127.77 2050.4,127.755 2051.1,127.741 2051.8,127.727 2052.5,127.713 2053.2,127.699 2053.9,127.684 2054.6,127.67 2055.3,127.656 2056,127.642 2056.7,127.628 2057.4,127.614 2058.1,127.6 2058.81,127.586 2059.51,127.573 2060.21,127.559 2060.91,127.545 2061.61,127.531 2062.31,127.517 2063.01,127.504 2063.71,127.49 2064.41,127.476 2065.11,127.463 2065.81,127.449 2066.51,127.435 2067.21,127.422 2067.91,127.408 2068.61,127.395 2069.31,127.381 2070.01,127.368 2070.71,127.354 2071.41,127.341 2072.11,127.328 2072.81,127.314 2073.51,127.301 2074.21,127.288 2074.91,127.274 2075.61,127.261 2076.31,127.248 2077.01,127.235 2077.71,127.222 2078.41,127.209 2079.11,127.195 2079.81,127.182 2080.51,127.169 2081.21,127.156 2081.91,127.143 2082.61,127.13 2083.31,127.117 2084.01,127.105 2084.71,127.092 2085.41,127.079 2086.11,127.066 2086.81,127.053 2087.51,127.04 2088.21,127.028 2088.91,127.015 2089.61,127.002 2090.31,126.99 2091.01,126.977 2091.71,126.964 2092.41,126.952 2093.11,126.939 2093.81,126.927 2094.51,126.914 2095.21,126.902 2095.91,126.889 2096.61,126.877 2097.31,126.865 2098.01,126.852 2098.71,126.84 2099.41,126.828 2100.11,126.815 2100.81,126.803 2101.51,126.791 2102.21,126.779 2102.91,126.766 2103.61,126.754 2104.31,126.742 2105.01,126.73 2105.71,126.718 2106.41,126.706 2107.11,126.694 2107.81,126.682 2108.51,126.67 2109.21,126.658 2109.91,126.646 2110.61,126.634 2111.31,126.622 2112.01,126.61 2112.71,126.598 2113.41,126.587 2114.11,126.575 2114.81,126.563 2115.51,126.551 2116.22,126.54 2116.92,126.528 2117.62,126.516 2118.32,126.505 2119.02,126.493 2119.72,126.481 2120.42,126.47 2121.12,126.458 2121.82,126.447 2122.52,126.435 2123.22,126.424 2123.92,126.412 2124.62,126.401 2125.32,126.39 2126.02,126.378 2126.72,126.367 2127.42,126.356 2128.12,126.344 2128.82,126.333 2129.52,126.322 2130.22,126.31 2130.92,126.299 2131.62,126.288 2132.32,126.277 2133.02,126.266 2133.72,126.255 2134.42,126.244 2135.12,126.233 2135.82,126.222 2136.52,126.21 2137.22,126.199 2137.92,126.189 2138.62,126.178 2139.32,126.167 2140.02,126.156 2140.72,126.145 2141.42,126.134 2142.12,126.123 2142.82,126.112 2143.52,126.102 2144.22,126.091 2144.92,126.08 2145.62,126.069 2146.32,126.059 2147.02,126.048 2147.72,126.037 2148.42,126.027 2149.12,126.016 2149.82,126.005 2150.52,125.995 2151.22,125.984 2151.92,125.974 2152.62,125.963 2153.32,125.953 2154.02,125.942 2154.72,125.932 2155.42,125.922 2156.12,125.911 2156.82,125.901 2157.52,125.89 2158.22,125.88 2158.92,125.87 2159.62,125.86 2160.32,125.849 2161.02,125.839 2161.72,125.829 2162.42,125.819 2163.12,125.808 2163.82,125.798 2164.52,125.788 2165.22,125.778 2165.92,125.768 2166.62,125.758 2167.32,125.748 2168.02,125.738 2168.72,125.728 2169.42,125.718 2170.12,125.708 2170.82,125.698 2171.52,125.688 2172.22,125.678 2172.92,125.668 2173.62,125.658 2174.33,125.649 2175.03,125.639 2175.73,125.629 2176.43,125.619 2177.13,125.609 2177.83,125.6 2178.53,125.59 2179.23,125.58 2179.93,125.571 2180.63,125.561 2181.33,125.551 2182.03,125.542 2182.73,125.532 2183.43,125.523 2184.13,125.513 2184.83,125.503 2185.53,125.494 2186.23,125.484 2186.93,125.475 2187.63,125.466 2188.33,125.456 2189.03,125.447 2189.73,125.437 2190.43,125.428 2191.13,125.419 2191.83,125.409 2192.53,125.4 2193.23,125.391 2193.93,125.381 2194.63,125.372 2195.33,125.363 2196.03,125.354 2196.73,125.344 2197.43,125.335 2198.13,125.326 2198.83,125.317 2199.53,125.308 2200.23,125.299 2200.93,125.29 2201.63,125.281 2202.33,125.272 2203.03,125.263 2203.73,125.254 2204.43,125.245 2205.13,125.236 2205.83,125.227 2206.53,125.218 2207.23,125.209 2207.93,125.2 2208.63,125.191 2209.33,125.182 2210.03,125.173 2210.73,125.164 2211.43,125.156 2212.13,125.147 2212.83,125.138 2213.53,125.129 2214.23,125.121 2214.93,125.112 2215.63,125.103 2216.33,125.095 2217.03,125.086 2217.73,125.077 2218.43,125.069 2219.13,125.06 2219.83,125.052 2220.53,125.043 2221.23,125.034 2221.93,125.026 2222.63,125.017 2223.33,125.009 2224.03,125 2224.73,124.992 2225.43,124.983 2226.13,124.975 2226.83,124.967 2227.53,124.958 2228.23,124.95 2228.93,124.942 2229.63,124.933 2230.33,124.925 2231.03,124.917 2231.73,124.908 2232.44,124.9 2233.14,124.892 2233.84,124.884 2234.54,124.875 2235.24,124.867 2235.94,124.859 2236.64,124.851 2237.34,124.843 2238.04,124.835 2238.74,124.826 2239.44,124.818 2240.14,124.81 2240.84,124.802 2241.54,124.794 2242.24,124.786 2242.94,124.778 2243.64,124.77 2244.34,124.762 2245.04,124.754 2245.74,124.746 2246.44,124.738 2247.14,124.73 2247.84,124.723 2248.54,124.715 2249.24,124.707 2249.94,124.699 2250.64,124.691 2251.34,124.683 2252.04,124.676 2252.74,124.668 2253.44,124.66 2254.14,124.652 2254.84,124.645 2255.54,124.637 2256.24,124.629 2256.94,124.622 2257.64,124.614 2258.34,124.606 2259.04,124.599 2259.74,124.591 2260.44,124.583 2261.14,124.576 2261.84,124.568 2262.54,124.561 2263.24,124.553 2263.94,124.546 2264.64,124.538 2265.34,124.531 2266.04,124.523 2266.74,124.516 2267.44,124.508 2268.14,124.501 2268.84,124.493 2269.54,124.486 2270.24,124.479 2270.94,124.471 2271.64,124.464 2272.34,124.457 2273.04,124.449 2273.74,124.442 2274.44,124.435 2275.14,124.427 2275.84,124.42 2276.54,124.413 2277.24,124.406 2277.94,124.399 2278.64,124.391 2279.34,124.384 2280.04,124.377 2280.74,124.37 2281.44,124.363 2282.14,124.356 2282.84,124.348 2283.54,124.341 2284.24,124.334 2284.94,124.327 2285.64,124.32 2286.34,124.313 2287.04,124.306 2287.74,124.299 2288.44,124.292 2289.14,124.285 2289.85,124.278 2290.55,124.271 2291.25,124.264 2291.95,124.257 2292.65,124.251 "/>
<circle clip-path="url(#clip162)" cx="292.4" cy="1384.24" r="14.4" fill="#3da44d" fill-rule="evenodd" fill-opacity="1" stroke="#000000" stroke-opacity="1" stroke-width="3.2"/>
<circle clip-path="url(#clip162)" cx="325.739" cy="1273.79" r="14.4" fill="#3da44d" fill-rule="evenodd" fill-opacity="1" stroke="#000000" stroke-opacity="1" stroke-width="3.2"/>
<circle clip-path="url(#clip162)" cx="359.078" cy="1177.21" r="14.4" fill="#3da44d" fill-rule="evenodd" fill-opacity="1" stroke="#000000" stroke-opacity="1" stroke-width="3.2"/>
<circle clip-path="url(#clip162)" cx="392.417" cy="1018.79" r="14.4" fill="#3da44d" fill-rule="evenodd" fill-opacity="1" stroke="#000000" stroke-opacity="1" stroke-width="3.2"/>
<circle clip-path="url(#clip162)" cx="425.756" cy="1006.72" r="14.4" fill="#3da44d" fill-rule="evenodd" fill-opacity="1" stroke="#000000" stroke-opacity="1" stroke-width="3.2"/>
<circle clip-path="url(#clip162)" cx="459.095" cy="850.529" r="14.4" fill="#3da44d" fill-rule="evenodd" fill-opacity="1" stroke="#000000" stroke-opacity="1" stroke-width="3.2"/>
<circle clip-path="url(#clip162)" cx="492.434" cy="832.84" r="14.4" fill="#3da44d" fill-rule="evenodd" fill-opacity="1" stroke="#000000" stroke-opacity="1" stroke-width="3.2"/>
<circle clip-path="url(#clip162)" cx="525.773" cy="750.838" r="14.4" fill="#3da44d" fill-rule="evenodd" fill-opacity="1" stroke="#000000" stroke-opacity="1" stroke-width="3.2"/>
<circle clip-path="url(#clip162)" cx="559.112" cy="687.199" r="14.4" fill="#3da44d" fill-rule="evenodd" fill-opacity="1" stroke="#000000" stroke-opacity="1" stroke-width="3.2"/>
<circle clip-path="url(#clip162)" cx="592.452" cy="617.949" r="14.4" fill="#3da44d" fill-rule="evenodd" fill-opacity="1" stroke="#000000" stroke-opacity="1" stroke-width="3.2"/>
<circle clip-path="url(#clip162)" cx="625.791" cy="581.76" r="14.4" fill="#3da44d" fill-rule="evenodd" fill-opacity="1" stroke="#000000" stroke-opacity="1" stroke-width="3.2"/>
<circle clip-path="url(#clip162)" cx="659.13" cy="507.345" r="14.4" fill="#3da44d" fill-rule="evenodd" fill-opacity="1" stroke="#000000" stroke-opacity="1" stroke-width="3.2"/>
<circle clip-path="url(#clip162)" cx="692.469" cy="504.972" r="14.4" fill="#3da44d" fill-rule="evenodd" fill-opacity="1" stroke="#000000" stroke-opacity="1" stroke-width="3.2"/>
<circle clip-path="url(#clip162)" cx="725.808" cy="448.67" r="14.4" fill="#3da44d" fill-rule="evenodd" fill-opacity="1" stroke="#000000" stroke-opacity="1" stroke-width="3.2"/>
<circle clip-path="url(#clip162)" cx="759.147" cy="456.752" r="14.4" fill="#3da44d" fill-rule="evenodd" fill-opacity="1" stroke="#000000" stroke-opacity="1" stroke-width="3.2"/>
<circle clip-path="url(#clip162)" cx="792.486" cy="406.241" r="14.4" fill="#3da44d" fill-rule="evenodd" fill-opacity="1" stroke="#000000" stroke-opacity="1" stroke-width="3.2"/>
<circle clip-path="url(#clip162)" cx="825.825" cy="396.737" r="14.4" fill="#3da44d" fill-rule="evenodd" fill-opacity="1" stroke="#000000" stroke-opacity="1" stroke-width="3.2"/>
<circle clip-path="url(#clip162)" cx="859.164" cy="351.118" r="14.4" fill="#3da44d" fill-rule="evenodd" fill-opacity="1" stroke="#000000" stroke-opacity="1" stroke-width="3.2"/>
<circle clip-path="url(#clip162)" cx="892.503" cy="333.999" r="14.4" fill="#3da44d" fill-rule="evenodd" fill-opacity="1" stroke="#000000" stroke-opacity="1" stroke-width="3.2"/>
<circle clip-path="url(#clip162)" cx="925.843" cy="343.192" r="14.4" fill="#3da44d" fill-rule="evenodd" fill-opacity="1" stroke="#000000" stroke-opacity="1" stroke-width="3.2"/>
<circle clip-path="url(#clip162)" cx="959.182" cy="292.91" r="14.4" fill="#3da44d" fill-rule="evenodd" fill-opacity="1" stroke="#000000" stroke-opacity="1" stroke-width="3.2"/>
<circle clip-path="url(#clip162)" cx="992.521" cy="324.344" r="14.4" fill="#3da44d" fill-rule="evenodd" fill-opacity="1" stroke="#000000" stroke-opacity="1" stroke-width="3.2"/>
<circle clip-path="url(#clip162)" cx="1025.86" cy="262.325" r="14.4" fill="#3da44d" fill-rule="evenodd" fill-opacity="1" stroke="#000000" stroke-opacity="1" stroke-width="3.2"/>
<circle clip-path="url(#clip162)" cx="1059.2" cy="255.211" r="14.4" fill="#3da44d" fill-rule="evenodd" fill-opacity="1" stroke="#000000" stroke-opacity="1" stroke-width="3.2"/>
<circle clip-path="url(#clip162)" cx="1092.54" cy="246.365" r="14.4" fill="#3da44d" fill-rule="evenodd" fill-opacity="1" stroke="#000000" stroke-opacity="1" stroke-width="3.2"/>
<circle clip-path="url(#clip162)" cx="1125.88" cy="219.84" r="14.4" fill="#3da44d" fill-rule="evenodd" fill-opacity="1" stroke="#000000" stroke-opacity="1" stroke-width="3.2"/>
<circle clip-path="url(#clip162)" cx="1159.22" cy="236.795" r="14.4" fill="#3da44d" fill-rule="evenodd" fill-opacity="1" stroke="#000000" stroke-opacity="1" stroke-width="3.2"/>
<circle clip-path="url(#clip162)" cx="1192.56" cy="185.895" r="14.4" fill="#3da44d" fill-rule="evenodd" fill-opacity="1" stroke="#000000" stroke-opacity="1" stroke-width="3.2"/>
<circle clip-path="url(#clip162)" cx="1225.89" cy="249.379" r="14.4" fill="#3da44d" fill-rule="evenodd" fill-opacity="1" stroke="#000000" stroke-opacity="1" stroke-width="3.2"/>
<circle clip-path="url(#clip162)" cx="1259.23" cy="232.948" r="14.4" fill="#3da44d" fill-rule="evenodd" fill-opacity="1" stroke="#000000" stroke-opacity="1" stroke-width="3.2"/>
<circle clip-path="url(#clip162)" cx="1292.57" cy="162.455" r="14.4" fill="#3da44d" fill-rule="evenodd" fill-opacity="1" stroke="#000000" stroke-opacity="1" stroke-width="3.2"/>
<circle clip-path="url(#clip162)" cx="1325.91" cy="170.153" r="14.4" fill="#3da44d" fill-rule="evenodd" fill-opacity="1" stroke="#000000" stroke-opacity="1" stroke-width="3.2"/>
<circle clip-path="url(#clip162)" cx="1359.25" cy="133.449" r="14.4" fill="#3da44d" fill-rule="evenodd" fill-opacity="1" stroke="#000000" stroke-opacity="1" stroke-width="3.2"/>
<circle clip-path="url(#clip162)" cx="1392.59" cy="167.099" r="14.4" fill="#3da44d" fill-rule="evenodd" fill-opacity="1" stroke="#000000" stroke-opacity="1" stroke-width="3.2"/>
<circle clip-path="url(#clip162)" cx="1425.93" cy="225.1" r="14.4" fill="#3da44d" fill-rule="evenodd" fill-opacity="1" stroke="#000000" stroke-opacity="1" stroke-width="3.2"/>
<circle clip-path="url(#clip162)" cx="1459.27" cy="146.493" r="14.4" fill="#3da44d" fill-rule="evenodd" fill-opacity="1" stroke="#000000" stroke-opacity="1" stroke-width="3.2"/>
<circle clip-path="url(#clip162)" cx="1492.61" cy="243.909" r="14.4" fill="#3da44d" fill-rule="evenodd" fill-opacity="1" stroke="#000000" stroke-opacity="1" stroke-width="3.2"/>
<circle clip-path="url(#clip162)" cx="1525.95" cy="216.469" r="14.4" fill="#3da44d" fill-rule="evenodd" fill-opacity="1" stroke="#000000" stroke-opacity="1" stroke-width="3.2"/>
<circle clip-path="url(#clip162)" cx="1559.29" cy="135.951" r="14.4" fill="#3da44d" fill-rule="evenodd" fill-opacity="1" stroke="#000000" stroke-opacity="1" stroke-width="3.2"/>
<circle clip-path="url(#clip162)" cx="1592.62" cy="132.64" r="14.4" fill="#3da44d" fill-rule="evenodd" fill-opacity="1" stroke="#000000" stroke-opacity="1" stroke-width="3.2"/>
<circle clip-path="url(#clip162)" cx="1625.96" cy="123.583" r="14.4" fill="#3da44d" fill-rule="evenodd" fill-opacity="1" stroke="#000000" stroke-opacity="1" stroke-width="3.2"/>
<circle clip-path="url(#clip162)" cx="1659.3" cy="143.879" r="14.4" fill="#3da44d" fill-rule="evenodd" fill-opacity="1" stroke="#000000" stroke-opacity="1" stroke-width="3.2"/>
<circle clip-path="url(#clip162)" cx="1692.64" cy="197.498" r="14.4" fill="#3da44d" fill-rule="evenodd" fill-opacity="1" stroke="#000000" stroke-opacity="1" stroke-width="3.2"/>
<circle clip-path="url(#clip162)" cx="1725.98" cy="129.583" r="14.4" fill="#3da44d" fill-rule="evenodd" fill-opacity="1" stroke="#000000" stroke-opacity="1" stroke-width="3.2"/>
<circle clip-path="url(#clip162)" cx="1759.32" cy="121.158" r="14.4" fill="#3da44d" fill-rule="evenodd" fill-opacity="1" stroke="#000000" stroke-opacity="1" stroke-width="3.2"/>
<circle clip-path="url(#clip162)" cx="1792.66" cy="135.035" r="14.4" fill="#3da44d" fill-rule="evenodd" fill-opacity="1" stroke="#000000" stroke-opacity="1" stroke-width="3.2"/>
<circle clip-path="url(#clip162)" cx="1826" cy="150.288" r="14.4" fill="#3da44d" fill-rule="evenodd" fill-opacity="1" stroke="#000000" stroke-opacity="1" stroke-width="3.2"/>
<circle clip-path="url(#clip162)" cx="1859.34" cy="126.291" r="14.4" fill="#3da44d" fill-rule="evenodd" fill-opacity="1" stroke="#000000" stroke-opacity="1" stroke-width="3.2"/>
<circle clip-path="url(#clip162)" cx="1892.68" cy="129.151" r="14.4" fill="#3da44d" fill-rule="evenodd" fill-opacity="1" stroke="#000000" stroke-opacity="1" stroke-width="3.2"/>
<circle clip-path="url(#clip162)" cx="1926.02" cy="141.975" r="14.4" fill="#3da44d" fill-rule="evenodd" fill-opacity="1" stroke="#000000" stroke-opacity="1" stroke-width="3.2"/>
<circle clip-path="url(#clip162)" cx="1959.35" cy="159.702" r="14.4" fill="#3da44d" fill-rule="evenodd" fill-opacity="1" stroke="#000000" stroke-opacity="1" stroke-width="3.2"/>
<circle clip-path="url(#clip162)" cx="1992.69" cy="142.484" r="14.4" fill="#3da44d" fill-rule="evenodd" fill-opacity="1" stroke="#000000" stroke-opacity="1" stroke-width="3.2"/>
<circle clip-path="url(#clip162)" cx="2026.03" cy="146.883" r="14.4" fill="#3da44d" fill-rule="evenodd" fill-opacity="1" stroke="#000000" stroke-opacity="1" stroke-width="3.2"/>
<circle clip-path="url(#clip162)" cx="2059.37" cy="109.82" r="14.4" fill="#3da44d" fill-rule="evenodd" fill-opacity="1" stroke="#000000" stroke-opacity="1" stroke-width="3.2"/>
<circle clip-path="url(#clip162)" cx="2092.71" cy="157.36" r="14.4" fill="#3da44d" fill-rule="evenodd" fill-opacity="1" stroke="#000000" stroke-opacity="1" stroke-width="3.2"/>
<circle clip-path="url(#clip162)" cx="2126.05" cy="111.671" r="14.4" fill="#3da44d" fill-rule="evenodd" fill-opacity="1" stroke="#000000" stroke-opacity="1" stroke-width="3.2"/>
<circle clip-path="url(#clip162)" cx="2159.39" cy="86.1857" r="14.4" fill="#3da44d" fill-rule="evenodd" fill-opacity="1" stroke="#000000" stroke-opacity="1" stroke-width="3.2"/>
<circle clip-path="url(#clip162)" cx="2192.73" cy="140.988" r="14.4" fill="#3da44d" fill-rule="evenodd" fill-opacity="1" stroke="#000000" stroke-opacity="1" stroke-width="3.2"/>
<circle clip-path="url(#clip162)" cx="2226.07" cy="104.757" r="14.4" fill="#3da44d" fill-rule="evenodd" fill-opacity="1" stroke="#000000" stroke-opacity="1" stroke-width="3.2"/>
<circle clip-path="url(#clip162)" cx="2259.41" cy="138.301" r="14.4" fill="#3da44d" fill-rule="evenodd" fill-opacity="1" stroke="#000000" stroke-opacity="1" stroke-width="3.2"/>
<circle clip-path="url(#clip162)" cx="2292.75" cy="153.591" r="14.4" fill="#3da44d" fill-rule="evenodd" fill-opacity="1" stroke="#000000" stroke-opacity="1" stroke-width="3.2"/>
<path clip-path="url(#clip160)" d="M303.068 300.469 L993.227 300.469 L993.227 93.1086 L303.068 93.1086  Z" fill="#ffffff" fill-rule="evenodd" fill-opacity="1"/>
<polyline clip-path="url(#clip160)" style="stroke:#000000; stroke-linecap:round; stroke-linejoin:round; stroke-width:4; stroke-opacity:1; fill:none" points="303.068,300.469 993.227,300.469 993.227,93.1086 303.068,93.1086 303.068,300.469 "/>
<polyline clip-path="url(#clip160)" style="stroke:#009af9; stroke-linecap:round; stroke-linejoin:round; stroke-width:4; stroke-opacity:1; fill:none" points="326.628,144.949 467.986,144.949 "/>
<path clip-path="url(#clip160)" d="M496.221 131.511 L496.221 144.497 L502.101 144.497 Q505.365 144.497 507.147 142.807 Q508.929 141.118 508.929 137.993 Q508.929 134.891 507.147 133.201 Q505.365 131.511 502.101 131.511 L496.221 131.511 M491.545 127.669 L502.101 127.669 Q507.911 127.669 510.874 130.307 Q513.86 132.923 513.86 137.993 Q513.86 143.108 510.874 145.724 Q507.911 148.34 502.101 148.34 L496.221 148.34 L496.221 162.229 L491.545 162.229 L491.545 127.669 Z" fill="#000000" fill-rule="nonzero" fill-opacity="1" /><path clip-path="url(#clip160)" d="M521.36 158.293 L528.999 158.293 L528.999 131.928 L520.689 133.595 L520.689 129.335 L528.952 127.669 L533.628 127.669 L533.628 158.293 L541.267 158.293 L541.267 162.229 L521.36 162.229 L521.36 158.293 Z" fill="#000000" fill-rule="nonzero" fill-opacity="1" /><polyline clip-path="url(#clip160)" style="stroke:#e26f46; stroke-linecap:round; stroke-linejoin:round; stroke-width:4; stroke-opacity:1; fill:none" points="326.628,196.789 467.986,196.789 "/>
<path clip-path="url(#clip160)" d="M496.221 183.351 L496.221 196.337 L502.101 196.337 Q505.365 196.337 507.147 194.647 Q508.929 192.958 508.929 189.833 Q508.929 186.731 507.147 185.041 Q505.365 183.351 502.101 183.351 L496.221 183.351 M491.545 179.509 L502.101 179.509 Q507.911 179.509 510.874 182.147 Q513.86 184.763 513.86 189.833 Q513.86 194.948 510.874 197.564 Q507.911 200.18 502.101 200.18 L496.221 200.18 L496.221 214.069 L491.545 214.069 L491.545 179.509 Z" fill="#000000" fill-rule="nonzero" fill-opacity="1" /><path clip-path="url(#clip160)" d="M524.577 210.133 L540.897 210.133 L540.897 214.069 L518.953 214.069 L518.953 210.133 Q521.615 207.379 526.198 202.749 Q530.804 198.096 531.985 196.754 Q534.23 194.231 535.11 192.495 Q536.013 190.735 536.013 189.046 Q536.013 186.291 534.068 184.555 Q532.147 182.819 529.045 182.819 Q526.846 182.819 524.392 183.583 Q521.962 184.347 519.184 185.897 L519.184 181.175 Q522.008 180.041 524.462 179.462 Q526.915 178.884 528.952 178.884 Q534.323 178.884 537.517 181.569 Q540.712 184.254 540.712 188.745 Q540.712 190.874 539.901 192.796 Q539.114 194.694 537.008 197.286 Q536.429 197.958 533.327 201.175 Q530.226 204.37 524.577 210.133 Z" fill="#000000" fill-rule="nonzero" fill-opacity="1" /><circle clip-path="url(#clip160)" cx="397.307" cy="248.629" r="20.48" fill="#3da44d" fill-rule="evenodd" fill-opacity="1" stroke="#000000" stroke-opacity="1" stroke-width="4.55111"/>
<path clip-path="url(#clip160)" d="M491.545 231.349 L497.842 231.349 L513.166 260.261 L513.166 231.349 L517.703 231.349 L517.703 265.909 L511.406 265.909 L496.082 236.997 L496.082 265.909 L491.545 265.909 L491.545 231.349 Z" fill="#000000" fill-rule="nonzero" fill-opacity="1" /><path clip-path="url(#clip160)" d="M536.869 242.969 Q533.443 242.969 531.452 245.654 Q529.462 248.316 529.462 252.969 Q529.462 257.622 531.429 260.307 Q533.42 262.969 536.869 262.969 Q540.272 262.969 542.263 260.284 Q544.253 257.598 544.253 252.969 Q544.253 248.362 542.263 245.677 Q540.272 242.969 536.869 242.969 M536.869 239.358 Q542.425 239.358 545.596 242.969 Q548.767 246.58 548.767 252.969 Q548.767 259.335 545.596 262.969 Q542.425 266.58 536.869 266.58 Q531.29 266.58 528.119 262.969 Q524.971 259.335 524.971 252.969 Q524.971 246.58 528.119 242.969 Q531.29 239.358 536.869 239.358 Z" fill="#000000" fill-rule="nonzero" fill-opacity="1" /><path clip-path="url(#clip160)" d="M555.827 239.983 L560.087 239.983 L560.087 265.909 L555.827 265.909 L555.827 239.983 M555.827 229.89 L560.087 229.89 L560.087 235.284 L555.827 235.284 L555.827 229.89 Z" fill="#000000" fill-rule="nonzero" fill-opacity="1" /><path clip-path="url(#clip160)" d="M585.526 240.747 L585.526 244.774 Q583.721 243.849 581.776 243.386 Q579.832 242.923 577.749 242.923 Q574.577 242.923 572.98 243.895 Q571.406 244.867 571.406 246.811 Q571.406 248.293 572.54 249.149 Q573.674 249.983 577.1 250.747 L578.559 251.071 Q583.096 252.043 584.994 253.825 Q586.915 255.585 586.915 258.756 Q586.915 262.367 584.045 264.473 Q581.198 266.58 576.198 266.58 Q574.114 266.58 571.846 266.163 Q569.6 265.77 567.1 264.96 L567.1 260.561 Q569.462 261.788 571.753 262.413 Q574.045 263.015 576.29 263.015 Q579.299 263.015 580.92 261.997 Q582.54 260.955 582.54 259.08 Q582.54 257.344 581.36 256.418 Q580.202 255.492 576.244 254.636 L574.762 254.288 Q570.804 253.455 569.045 251.742 Q567.286 250.006 567.286 246.997 Q567.286 243.339 569.878 241.349 Q572.471 239.358 577.239 239.358 Q579.6 239.358 581.684 239.705 Q583.767 240.052 585.526 240.747 Z" fill="#000000" fill-rule="nonzero" fill-opacity="1" /><path clip-path="url(#clip160)" d="M604.484 268.316 Q602.679 272.946 600.966 274.358 Q599.253 275.77 596.383 275.77 L592.98 275.77 L592.98 272.205 L595.48 272.205 Q597.239 272.205 598.211 271.372 Q599.184 270.538 600.364 267.436 L601.128 265.492 L590.642 239.983 L595.156 239.983 L603.258 260.261 L611.359 239.983 L615.873 239.983 L604.484 268.316 Z" fill="#000000" fill-rule="nonzero" fill-opacity="1" /><path clip-path="url(#clip160)" d="M646.869 242.969 Q643.443 242.969 641.452 245.654 Q639.461 248.316 639.461 252.969 Q639.461 257.622 641.429 260.307 Q643.419 262.969 646.869 262.969 Q650.271 262.969 652.262 260.284 Q654.253 257.598 654.253 252.969 Q654.253 248.362 652.262 245.677 Q650.271 242.969 646.869 242.969 M646.869 239.358 Q652.424 239.358 655.595 242.969 Q658.767 246.58 658.767 252.969 Q658.767 259.335 655.595 262.969 Q652.424 266.58 646.869 266.58 Q641.29 266.58 638.119 262.969 Q634.97 259.335 634.97 252.969 Q634.97 246.58 638.119 242.969 Q641.29 239.358 646.869 239.358 Z" fill="#000000" fill-rule="nonzero" fill-opacity="1" /><path clip-path="url(#clip160)" d="M684.438 252.969 Q684.438 248.27 682.493 245.608 Q680.572 242.923 677.192 242.923 Q673.813 242.923 671.868 245.608 Q669.947 248.27 669.947 252.969 Q669.947 257.668 671.868 260.353 Q673.813 263.015 677.192 263.015 Q680.572 263.015 682.493 260.353 Q684.438 257.668 684.438 252.969 M669.947 243.918 Q671.29 241.603 673.327 240.492 Q675.387 239.358 678.234 239.358 Q682.956 239.358 685.896 243.108 Q688.859 246.858 688.859 252.969 Q688.859 259.08 685.896 262.83 Q682.956 266.58 678.234 266.58 Q675.387 266.58 673.327 265.469 Q671.29 264.335 669.947 262.02 L669.947 265.909 L665.665 265.909 L665.665 229.89 L669.947 229.89 L669.947 243.918 Z" fill="#000000" fill-rule="nonzero" fill-opacity="1" /><path clip-path="url(#clip160)" d="M712.447 240.747 L712.447 244.774 Q710.641 243.849 708.697 243.386 Q706.752 242.923 704.669 242.923 Q701.498 242.923 699.901 243.895 Q698.327 244.867 698.327 246.811 Q698.327 248.293 699.461 249.149 Q700.595 249.983 704.021 250.747 L705.479 251.071 Q710.016 252.043 711.914 253.825 Q713.836 255.585 713.836 258.756 Q713.836 262.367 710.965 264.473 Q708.118 266.58 703.118 266.58 Q701.035 266.58 698.766 266.163 Q696.521 265.77 694.021 264.96 L694.021 260.561 Q696.382 261.788 698.674 262.413 Q700.965 263.015 703.211 263.015 Q706.22 263.015 707.84 261.997 Q709.461 260.955 709.461 259.08 Q709.461 257.344 708.28 256.418 Q707.123 255.492 703.164 254.636 L701.683 254.288 Q697.725 253.455 695.965 251.742 Q694.206 250.006 694.206 246.997 Q694.206 243.339 696.799 241.349 Q699.391 239.358 704.16 239.358 Q706.521 239.358 708.604 239.705 Q710.688 240.052 712.447 240.747 Z" fill="#000000" fill-rule="nonzero" fill-opacity="1" /><path clip-path="url(#clip160)" d="M742.794 251.881 L742.794 253.964 L723.211 253.964 Q723.488 258.362 725.85 260.677 Q728.234 262.969 732.47 262.969 Q734.924 262.969 737.215 262.367 Q739.53 261.765 741.799 260.561 L741.799 264.589 Q739.507 265.561 737.099 266.071 Q734.692 266.58 732.215 266.58 Q726.012 266.58 722.377 262.969 Q718.766 259.358 718.766 253.2 Q718.766 246.835 722.192 243.108 Q725.641 239.358 731.475 239.358 Q736.706 239.358 739.738 242.737 Q742.794 246.094 742.794 251.881 M738.535 250.631 Q738.488 247.136 736.567 245.052 Q734.669 242.969 731.521 242.969 Q727.956 242.969 725.803 244.983 Q723.674 246.997 723.35 250.654 L738.535 250.631 Z" fill="#000000" fill-rule="nonzero" fill-opacity="1" /><path clip-path="url(#clip160)" d="M764.808 243.964 Q764.09 243.548 763.234 243.362 Q762.4 243.154 761.382 243.154 Q757.771 243.154 755.826 245.515 Q753.905 247.853 753.905 252.251 L753.905 265.909 L749.623 265.909 L749.623 239.983 L753.905 239.983 L753.905 244.011 Q755.248 241.649 757.4 240.515 Q759.553 239.358 762.632 239.358 Q763.072 239.358 763.604 239.427 Q764.136 239.474 764.785 239.589 L764.808 243.964 Z" fill="#000000" fill-rule="nonzero" fill-opacity="1" /><path clip-path="url(#clip160)" d="M766.22 239.983 L770.734 239.983 L778.835 261.742 L786.937 239.983 L791.451 239.983 L781.729 265.909 L775.942 265.909 L766.22 239.983 Z" fill="#000000" fill-rule="nonzero" fill-opacity="1" /><path clip-path="url(#clip160)" d="M819.506 251.881 L819.506 253.964 L799.923 253.964 Q800.201 258.362 802.562 260.677 Q804.946 262.969 809.182 262.969 Q811.636 262.969 813.928 262.367 Q816.243 261.765 818.511 260.561 L818.511 264.589 Q816.219 265.561 813.812 266.071 Q811.405 266.58 808.928 266.58 Q802.724 266.58 799.09 262.969 Q795.479 259.358 795.479 253.2 Q795.479 246.835 798.905 243.108 Q802.354 239.358 808.187 239.358 Q813.419 239.358 816.451 242.737 Q819.506 246.094 819.506 251.881 M815.247 250.631 Q815.201 247.136 813.28 245.052 Q811.382 242.969 808.233 242.969 Q804.669 242.969 802.516 244.983 Q800.386 246.997 800.062 250.654 L815.247 250.631 Z" fill="#000000" fill-rule="nonzero" fill-opacity="1" /><path clip-path="url(#clip160)" d="M843.557 243.918 L843.557 229.89 L847.816 229.89 L847.816 265.909 L843.557 265.909 L843.557 262.02 Q842.215 264.335 840.155 265.469 Q838.117 266.58 835.247 266.58 Q830.548 266.58 827.585 262.83 Q824.645 259.08 824.645 252.969 Q824.645 246.858 827.585 243.108 Q830.548 239.358 835.247 239.358 Q838.117 239.358 840.155 240.492 Q842.215 241.603 843.557 243.918 M829.043 252.969 Q829.043 257.668 830.965 260.353 Q832.909 263.015 836.289 263.015 Q839.668 263.015 841.613 260.353 Q843.557 257.668 843.557 252.969 Q843.557 248.27 841.613 245.608 Q839.668 242.923 836.289 242.923 Q832.909 242.923 830.965 245.608 Q829.043 248.27 829.043 252.969 Z" fill="#000000" fill-rule="nonzero" fill-opacity="1" /><path clip-path="url(#clip160)" d="M888.719 243.918 L888.719 229.89 L892.978 229.89 L892.978 265.909 L888.719 265.909 L888.719 262.02 Q887.376 264.335 885.316 265.469 Q883.279 266.58 880.409 266.58 Q875.71 266.58 872.747 262.83 Q869.807 259.08 869.807 252.969 Q869.807 246.858 872.747 243.108 Q875.71 239.358 880.409 239.358 Q883.279 239.358 885.316 240.492 Q887.376 241.603 888.719 243.918 M874.205 252.969 Q874.205 257.668 876.127 260.353 Q878.071 263.015 881.451 263.015 Q884.83 263.015 886.775 260.353 Q888.719 257.668 888.719 252.969 Q888.719 248.27 886.775 245.608 Q884.83 242.923 881.451 242.923 Q878.071 242.923 876.127 245.608 Q874.205 248.27 874.205 252.969 Z" fill="#000000" fill-rule="nonzero" fill-opacity="1" /><path clip-path="url(#clip160)" d="M913.534 252.876 Q908.372 252.876 906.381 254.057 Q904.39 255.237 904.39 258.085 Q904.39 260.353 905.872 261.696 Q907.376 263.015 909.946 263.015 Q913.487 263.015 915.617 260.515 Q917.77 257.992 917.77 253.825 L917.77 252.876 L913.534 252.876 M922.029 251.117 L922.029 265.909 L917.77 265.909 L917.77 261.973 Q916.312 264.335 914.136 265.469 Q911.96 266.58 908.812 266.58 Q904.83 266.58 902.469 264.358 Q900.131 262.112 900.131 258.362 Q900.131 253.987 903.048 251.765 Q905.987 249.543 911.798 249.543 L917.77 249.543 L917.77 249.126 Q917.77 246.187 915.825 244.589 Q913.904 242.969 910.409 242.969 Q908.187 242.969 906.08 243.501 Q903.974 244.034 902.029 245.099 L902.029 241.163 Q904.367 240.261 906.566 239.821 Q908.765 239.358 910.849 239.358 Q916.474 239.358 919.251 242.274 Q922.029 245.191 922.029 251.117 Z" fill="#000000" fill-rule="nonzero" fill-opacity="1" /><path clip-path="url(#clip160)" d="M935.015 232.622 L935.015 239.983 L943.788 239.983 L943.788 243.293 L935.015 243.293 L935.015 257.367 Q935.015 260.538 935.872 261.441 Q936.751 262.344 939.413 262.344 L943.788 262.344 L943.788 265.909 L939.413 265.909 Q934.483 265.909 932.608 264.08 Q930.733 262.228 930.733 257.367 L930.733 243.293 L927.608 243.293 L927.608 239.983 L930.733 239.983 L930.733 232.622 L935.015 232.622 Z" fill="#000000" fill-rule="nonzero" fill-opacity="1" /><path clip-path="url(#clip160)" d="M961.172 252.876 Q956.01 252.876 954.02 254.057 Q952.029 255.237 952.029 258.085 Q952.029 260.353 953.51 261.696 Q955.015 263.015 957.584 263.015 Q961.126 263.015 963.256 260.515 Q965.408 257.992 965.408 253.825 L965.408 252.876 L961.172 252.876 M969.668 251.117 L969.668 265.909 L965.408 265.909 L965.408 261.973 Q963.95 264.335 961.774 265.469 Q959.598 266.58 956.45 266.58 Q952.469 266.58 950.108 264.358 Q947.77 262.112 947.77 258.362 Q947.77 253.987 950.686 251.765 Q953.626 249.543 959.436 249.543 L965.408 249.543 L965.408 249.126 Q965.408 246.187 963.464 244.589 Q961.543 242.969 958.047 242.969 Q955.825 242.969 953.719 243.501 Q951.612 244.034 949.668 245.099 L949.668 241.163 Q952.006 240.261 954.205 239.821 Q956.404 239.358 958.487 239.358 Q964.112 239.358 966.89 242.274 Q969.668 245.191 969.668 251.117 Z" fill="#000000" fill-rule="nonzero" fill-opacity="1" /></svg>
