<?xml version="1.0" encoding="utf-8"?>
<svg xmlns="http://www.w3.org/2000/svg" xmlns:xlink="http://www.w3.org/1999/xlink" width="600" height="400" viewBox="0 0 2400 1600">
<defs>
  <clipPath id="clip020">
    <rect x="0" y="0" width="2400" height="1600"/>
  </clipPath>
</defs>
<path clip-path="url(#clip020)" d="M0 1600 L2400 1600 L2400 0 L0 0  Z" fill="#ffffff" fill-rule="evenodd" fill-opacity="1"/>
<defs>
  <clipPath id="clip021">
    <rect x="480" y="0" width="1681" height="1600"/>
  </clipPath>
</defs>
<path clip-path="url(#clip020)" d="M276.876 642.531 L2352.76 642.531 L2352.76 47.2441 L276.876 47.2441  Z" fill="#ffffff" fill-rule="evenodd" fill-opacity="1"/>
<defs>
  <clipPath id="clip022">
    <rect x="276" y="47" width="2077" height="596"/>
  </clipPath>
</defs>
<polyline clip-path="url(#clip022)" style="stroke:#000000; stroke-linecap:round; stroke-linejoin:round; stroke-width:2; stroke-opacity:0.1; fill:none" points="615.395,642.531 615.395,47.2441 "/>
<polyline clip-path="url(#clip022)" style="stroke:#000000; stroke-linecap:round; stroke-linejoin:round; stroke-width:2; stroke-opacity:0.1; fill:none" points="1174.93,642.531 1174.93,47.2441 "/>
<polyline clip-path="url(#clip022)" style="stroke:#000000; stroke-linecap:round; stroke-linejoin:round; stroke-width:2; stroke-opacity:0.1; fill:none" points="1734.47,642.531 1734.47,47.2441 "/>
<polyline clip-path="url(#clip022)" style="stroke:#000000; stroke-linecap:round; stroke-linejoin:round; stroke-width:2; stroke-opacity:0.1; fill:none" points="2294,642.531 2294,47.2441 "/>
<polyline clip-path="url(#clip022)" style="stroke:#000000; stroke-linecap:round; stroke-linejoin:round; stroke-width:2; stroke-opacity:0.1; fill:none" points="276.876,627.735 2352.76,627.735 "/>
<polyline clip-path="url(#clip022)" style="stroke:#000000; stroke-linecap:round; stroke-linejoin:round; stroke-width:2; stroke-opacity:0.1; fill:none" points="276.876,258.01 2352.76,258.01 "/>
<polyline clip-path="url(#clip020)" style="stroke:#000000; stroke-linecap:round; stroke-linejoin:round; stroke-width:4; stroke-opacity:1; fill:none" points="276.876,642.531 2352.76,642.531 "/>
<polyline clip-path="url(#clip020)" style="stroke:#000000; stroke-linecap:round; stroke-linejoin:round; stroke-width:4; stroke-opacity:1; fill:none" points="615.395,642.531 615.395,623.633 "/>
<polyline clip-path="url(#clip020)" style="stroke:#000000; stroke-linecap:round; stroke-linejoin:round; stroke-width:4; stroke-opacity:1; fill:none" points="1174.93,642.531 1174.93,623.633 "/>
<polyline clip-path="url(#clip020)" style="stroke:#000000; stroke-linecap:round; stroke-linejoin:round; stroke-width:4; stroke-opacity:1; fill:none" points="1734.47,642.531 1734.47,623.633 "/>
<polyline clip-path="url(#clip020)" style="stroke:#000000; stroke-linecap:round; stroke-linejoin:round; stroke-width:4; stroke-opacity:1; fill:none" points="2294,642.531 2294,623.633 "/>
<path clip-path="url(#clip020)" d="M565.661 716.655 L573.3 716.655 L573.3 690.29 L564.99 691.957 L564.99 687.697 L573.253 686.031 L577.929 686.031 L577.929 716.655 L585.568 716.655 L585.568 720.591 L565.661 720.591 L565.661 716.655 Z" fill="#000000" fill-rule="nonzero" fill-opacity="1" /><path clip-path="url(#clip020)" d="M605.012 689.109 Q601.401 689.109 599.573 692.674 Q597.767 696.216 597.767 703.345 Q597.767 710.452 599.573 714.017 Q601.401 717.558 605.012 717.558 Q608.647 717.558 610.452 714.017 Q612.281 710.452 612.281 703.345 Q612.281 696.216 610.452 692.674 Q608.647 689.109 605.012 689.109 M605.012 685.406 Q610.823 685.406 613.878 690.012 Q616.957 694.595 616.957 703.345 Q616.957 712.072 613.878 716.679 Q610.823 721.262 605.012 721.262 Q599.202 721.262 596.124 716.679 Q593.068 712.072 593.068 703.345 Q593.068 694.595 596.124 690.012 Q599.202 685.406 605.012 685.406 Z" fill="#000000" fill-rule="nonzero" fill-opacity="1" /><path clip-path="url(#clip020)" d="M616.957 679.507 L641.068 679.507 L641.068 682.704 L616.957 682.704 L616.957 679.507 Z" fill="#000000" fill-rule="nonzero" fill-opacity="1" /><path clip-path="url(#clip020)" d="M652.541 689.983 L665.801 689.983 L665.801 693.18 L647.971 693.18 L647.971 689.983 Q650.134 687.745 653.858 683.983 Q657.6 680.203 658.56 679.112 Q660.384 677.062 661.099 675.651 Q661.832 674.222 661.832 672.849 Q661.832 670.611 660.252 669.2 Q658.691 667.79 656.171 667.79 Q654.384 667.79 652.391 668.41 Q650.416 669.031 648.159 670.291 L648.159 666.454 Q650.453 665.533 652.447 665.063 Q654.441 664.592 656.096 664.592 Q660.459 664.592 663.055 666.774 Q665.65 668.956 665.65 672.605 Q665.65 674.335 664.992 675.896 Q664.352 677.438 662.641 679.545 Q662.171 680.09 659.65 682.704 Q657.13 685.3 652.541 689.983 Z" fill="#000000" fill-rule="nonzero" fill-opacity="1" /><path clip-path="url(#clip020)" d="M1139.91 716.655 L1147.55 716.655 L1147.55 690.29 L1139.24 691.957 L1139.24 687.697 L1147.51 686.031 L1152.18 686.031 L1152.18 716.655 L1159.82 716.655 L1159.82 720.591 L1139.91 720.591 L1139.91 716.655 Z" fill="#000000" fill-rule="nonzero" fill-opacity="1" /><path clip-path="url(#clip020)" d="M1179.27 689.109 Q1175.65 689.109 1173.83 692.674 Q1172.02 696.216 1172.02 703.345 Q1172.02 710.452 1173.83 714.017 Q1175.65 717.558 1179.27 717.558 Q1182.9 717.558 1184.71 714.017 Q1186.53 710.452 1186.53 703.345 Q1186.53 696.216 1184.71 692.674 Q1182.9 689.109 1179.27 689.109 M1179.27 685.406 Q1185.08 685.406 1188.13 690.012 Q1191.21 694.595 1191.21 703.345 Q1191.21 712.072 1188.13 716.679 Q1185.08 721.262 1179.27 721.262 Q1173.46 721.262 1170.38 716.679 Q1167.32 712.072 1167.32 703.345 Q1167.32 694.595 1170.38 690.012 Q1173.46 685.406 1179.27 685.406 Z" fill="#000000" fill-rule="nonzero" fill-opacity="1" /><path clip-path="url(#clip020)" d="M1200.92 667.602 Q1197.98 667.602 1196.5 670.498 Q1195.03 673.376 1195.03 679.168 Q1195.03 684.942 1196.5 687.839 Q1197.98 690.716 1200.92 690.716 Q1203.87 690.716 1205.34 687.839 Q1206.82 684.942 1206.82 679.168 Q1206.82 673.376 1205.34 670.498 Q1203.87 667.602 1200.92 667.602 M1200.92 664.592 Q1205.64 664.592 1208.12 668.335 Q1210.62 672.059 1210.62 679.168 Q1210.62 686.259 1208.12 690.002 Q1205.64 693.726 1200.92 693.726 Q1196.19 693.726 1193.69 690.002 Q1191.21 686.259 1191.21 679.168 Q1191.21 672.059 1193.69 668.335 Q1196.19 664.592 1200.92 664.592 Z" fill="#000000" fill-rule="nonzero" fill-opacity="1" /><path clip-path="url(#clip020)" d="M1700.24 716.655 L1707.88 716.655 L1707.88 690.29 L1699.57 691.957 L1699.57 687.697 L1707.83 686.031 L1712.51 686.031 L1712.51 716.655 L1720.15 716.655 L1720.15 720.591 L1700.24 720.591 L1700.24 716.655 Z" fill="#000000" fill-rule="nonzero" fill-opacity="1" /><path clip-path="url(#clip020)" d="M1739.59 689.109 Q1735.98 689.109 1734.15 692.674 Q1732.35 696.216 1732.35 703.345 Q1732.35 710.452 1734.15 714.017 Q1735.98 717.558 1739.59 717.558 Q1743.23 717.558 1745.03 714.017 Q1746.86 710.452 1746.86 703.345 Q1746.86 696.216 1745.03 692.674 Q1743.23 689.109 1739.59 689.109 M1739.59 685.406 Q1745.4 685.406 1748.46 690.012 Q1751.54 694.595 1751.54 703.345 Q1751.54 712.072 1748.46 716.679 Q1745.4 721.262 1739.59 721.262 Q1733.78 721.262 1730.7 716.679 Q1727.65 712.072 1727.65 703.345 Q1727.65 694.595 1730.7 690.012 Q1733.78 685.406 1739.59 685.406 Z" fill="#000000" fill-rule="nonzero" fill-opacity="1" /><path clip-path="url(#clip020)" d="M1756.11 689.983 L1769.37 689.983 L1769.37 693.18 L1751.54 693.18 L1751.54 689.983 Q1753.7 687.745 1757.42 683.983 Q1761.17 680.203 1762.13 679.112 Q1763.95 677.062 1764.66 675.651 Q1765.4 674.222 1765.4 672.849 Q1765.4 670.611 1763.82 669.2 Q1762.26 667.79 1759.74 667.79 Q1757.95 667.79 1755.96 668.41 Q1753.98 669.031 1751.72 670.291 L1751.72 666.454 Q1754.02 665.533 1756.01 665.063 Q1758.01 664.592 1759.66 664.592 Q1764.03 664.592 1766.62 666.774 Q1769.22 668.956 1769.22 672.605 Q1769.22 674.335 1768.56 675.896 Q1767.92 677.438 1766.21 679.545 Q1765.74 680.09 1763.22 682.704 Q1760.7 685.3 1756.11 689.983 Z" fill="#000000" fill-rule="nonzero" fill-opacity="1" /><path clip-path="url(#clip020)" d="M2258.46 716.655 L2266.1 716.655 L2266.1 690.29 L2257.79 691.957 L2257.79 687.697 L2266.05 686.031 L2270.73 686.031 L2270.73 716.655 L2278.37 716.655 L2278.37 720.591 L2258.46 720.591 L2258.46 716.655 Z" fill="#000000" fill-rule="nonzero" fill-opacity="1" /><path clip-path="url(#clip020)" d="M2297.81 689.109 Q2294.2 689.109 2292.37 692.674 Q2290.57 696.216 2290.57 703.345 Q2290.57 710.452 2292.37 714.017 Q2294.2 717.558 2297.81 717.558 Q2301.45 717.558 2303.25 714.017 Q2305.08 710.452 2305.08 703.345 Q2305.08 696.216 2303.25 692.674 Q2301.45 689.109 2297.81 689.109 M2297.81 685.406 Q2303.62 685.406 2306.68 690.012 Q2309.76 694.595 2309.76 703.345 Q2309.76 712.072 2306.68 716.679 Q2303.62 721.262 2297.81 721.262 Q2292 721.262 2288.92 716.679 Q2285.87 712.072 2285.87 703.345 Q2285.87 694.595 2288.92 690.012 Q2292 685.406 2297.81 685.406 Z" fill="#000000" fill-rule="nonzero" fill-opacity="1" /><path clip-path="url(#clip020)" d="M2322.43 668.41 L2312.84 683.4 L2322.43 683.4 L2322.43 668.41 M2321.44 665.1 L2326.21 665.1 L2326.21 683.4 L2330.22 683.4 L2330.22 686.56 L2326.21 686.56 L2326.21 693.18 L2322.43 693.18 L2322.43 686.56 L2309.76 686.56 L2309.76 682.892 L2321.44 665.1 Z" fill="#000000" fill-rule="nonzero" fill-opacity="1" /><polyline clip-path="url(#clip020)" style="stroke:#000000; stroke-linecap:round; stroke-linejoin:round; stroke-width:4; stroke-opacity:1; fill:none" points="276.876,642.531 276.876,47.2441 "/>
<polyline clip-path="url(#clip020)" style="stroke:#000000; stroke-linecap:round; stroke-linejoin:round; stroke-width:4; stroke-opacity:1; fill:none" points="276.876,627.735 295.773,627.735 "/>
<polyline clip-path="url(#clip020)" style="stroke:#000000; stroke-linecap:round; stroke-linejoin:round; stroke-width:4; stroke-opacity:1; fill:none" points="276.876,258.01 295.773,258.01 "/>
<path clip-path="url(#clip020)" d="M114.931 647.527 L122.57 647.527 L122.57 621.161 L114.26 622.828 L114.26 618.569 L122.524 616.902 L127.2 616.902 L127.2 647.527 L134.839 647.527 L134.839 651.462 L114.931 651.462 L114.931 647.527 Z" fill="#000000" fill-rule="nonzero" fill-opacity="1" /><path clip-path="url(#clip020)" d="M154.283 619.981 Q150.672 619.981 148.843 623.546 Q147.038 627.087 147.038 634.217 Q147.038 641.323 148.843 644.888 Q150.672 648.43 154.283 648.43 Q157.917 648.43 159.723 644.888 Q161.552 641.323 161.552 634.217 Q161.552 627.087 159.723 623.546 Q157.917 619.981 154.283 619.981 M154.283 616.277 Q160.093 616.277 163.149 620.884 Q166.227 625.467 166.227 634.217 Q166.227 642.944 163.149 647.55 Q160.093 652.133 154.283 652.133 Q148.473 652.133 145.394 647.55 Q142.339 642.944 142.339 634.217 Q142.339 625.467 145.394 620.884 Q148.473 616.277 154.283 616.277 Z" fill="#000000" fill-rule="nonzero" fill-opacity="1" /><path clip-path="url(#clip020)" d="M166.227 610.378 L190.339 610.378 L190.339 613.576 L166.227 613.576 L166.227 610.378 Z" fill="#000000" fill-rule="nonzero" fill-opacity="1" /><path clip-path="url(#clip020)" d="M199.197 620.854 L205.404 620.854 L205.404 599.432 L198.652 600.787 L198.652 597.326 L205.366 595.972 L209.166 595.972 L209.166 620.854 L215.372 620.854 L215.372 624.052 L199.197 624.052 L199.197 620.854 Z" fill="#000000" fill-rule="nonzero" fill-opacity="1" /><path clip-path="url(#clip020)" d="M231.171 598.473 Q228.237 598.473 226.751 601.37 Q225.284 604.247 225.284 610.04 Q225.284 615.814 226.751 618.71 Q228.237 621.588 231.171 621.588 Q234.124 621.588 235.591 618.71 Q237.076 615.814 237.076 610.04 Q237.076 604.247 235.591 601.37 Q234.124 598.473 231.171 598.473 M231.171 595.464 Q235.891 595.464 238.374 599.207 Q240.876 602.931 240.876 610.04 Q240.876 617.13 238.374 620.873 Q235.891 624.597 231.171 624.597 Q226.45 624.597 223.949 620.873 Q221.466 617.13 221.466 610.04 Q221.466 602.931 223.949 599.207 Q226.45 595.464 231.171 595.464 Z" fill="#000000" fill-rule="nonzero" fill-opacity="1" /><path clip-path="url(#clip020)" d="M170.17 277.803 L177.809 277.803 L177.809 251.437 L169.499 253.104 L169.499 248.845 L177.762 247.178 L182.438 247.178 L182.438 277.803 L190.077 277.803 L190.077 281.738 L170.17 281.738 L170.17 277.803 Z" fill="#000000" fill-rule="nonzero" fill-opacity="1" /><path clip-path="url(#clip020)" d="M209.522 250.257 Q205.91 250.257 204.082 253.821 Q202.276 257.363 202.276 264.493 Q202.276 271.599 204.082 275.164 Q205.91 278.706 209.522 278.706 Q213.156 278.706 214.961 275.164 Q216.79 271.599 216.79 264.493 Q216.79 257.363 214.961 253.821 Q213.156 250.257 209.522 250.257 M209.522 246.553 Q215.332 246.553 218.387 251.159 Q221.466 255.743 221.466 264.493 Q221.466 273.219 218.387 277.826 Q215.332 282.409 209.522 282.409 Q203.711 282.409 200.633 277.826 Q197.577 273.219 197.577 264.493 Q197.577 255.743 200.633 251.159 Q203.711 246.553 209.522 246.553 Z" fill="#000000" fill-rule="nonzero" fill-opacity="1" /><path clip-path="url(#clip020)" d="M231.171 228.749 Q228.237 228.749 226.751 231.645 Q225.284 234.523 225.284 240.316 Q225.284 246.09 226.751 248.986 Q228.237 251.864 231.171 251.864 Q234.124 251.864 235.591 248.986 Q237.076 246.09 237.076 240.316 Q237.076 234.523 235.591 231.645 Q234.124 228.749 231.171 228.749 M231.171 225.74 Q235.891 225.74 238.374 229.482 Q240.876 233.206 240.876 240.316 Q240.876 247.406 238.374 251.149 Q235.891 254.873 231.171 254.873 Q226.45 254.873 223.949 251.149 Q221.466 247.406 221.466 240.316 Q221.466 233.206 223.949 229.482 Q226.45 225.74 231.171 225.74 Z" fill="#000000" fill-rule="nonzero" fill-opacity="1" /><path clip-path="url(#clip020)" d="M16.4842 524.719 L16.4842 515.138 L48.8219 503.012 L16.4842 490.821 L16.4842 481.241 L64.0042 481.241 L64.0042 487.511 L22.277 487.511 L54.8694 499.765 L54.8694 506.226 L22.277 518.48 L64.0042 518.48 L64.0042 524.719 L16.4842 524.719 Z" fill="#000000" fill-rule="nonzero" fill-opacity="1" /><path clip-path="url(#clip020)" d="M46.0847 452.531 Q46.0847 459.629 47.7079 462.366 Q49.3312 465.104 53.2461 465.104 Q56.3653 465.104 58.2114 463.067 Q60.0256 460.998 60.0256 457.465 Q60.0256 452.595 56.5881 449.667 Q53.1188 446.707 47.3897 446.707 L46.0847 446.707 L46.0847 452.531 M43.6657 440.85 L64.0042 440.85 L64.0042 446.707 L58.5933 446.707 Q61.8398 448.712 63.3994 451.704 Q64.9272 454.696 64.9272 459.024 Q64.9272 464.499 61.8716 467.746 Q58.7843 470.96 53.6281 470.96 Q47.6125 470.96 44.5569 466.95 Q41.5014 462.908 41.5014 454.919 L41.5014 446.707 L40.9285 446.707 Q36.8862 446.707 34.6901 449.38 Q32.4621 452.022 32.4621 456.828 Q32.4621 459.884 33.1941 462.78 Q33.9262 465.677 35.3903 468.35 L29.9795 468.35 Q28.7381 465.136 28.1334 462.112 Q27.4968 459.088 27.4968 456.224 Q27.4968 448.489 31.5072 444.67 Q35.5176 440.85 43.6657 440.85 Z" fill="#000000" fill-rule="nonzero" fill-opacity="1" /><path clip-path="url(#clip020)" d="M45.7664 405.33 Q39.4007 405.33 35.8996 407.972 Q32.3984 410.581 32.3984 415.324 Q32.3984 420.035 35.8996 422.676 Q39.4007 425.286 45.7664 425.286 Q52.1003 425.286 55.6014 422.676 Q59.1026 420.035 59.1026 415.324 Q59.1026 410.581 55.6014 407.972 Q52.1003 405.33 45.7664 405.33 M59.58 399.473 Q68.683 399.473 73.1071 403.516 Q77.5631 407.558 77.5631 415.897 Q77.5631 418.984 77.0857 421.721 Q76.6401 424.459 75.6852 427.037 L69.9879 427.037 Q71.3884 424.459 72.0568 421.944 Q72.7252 419.43 72.7252 416.82 Q72.7252 411.059 69.7015 408.194 Q66.7096 405.33 60.6303 405.33 L57.7339 405.33 Q60.885 407.144 62.4446 409.977 Q64.0042 412.809 64.0042 416.756 Q64.0042 423.313 59.0071 427.323 Q54.01 431.334 45.7664 431.334 Q37.491 431.334 32.4939 427.323 Q27.4968 423.313 27.4968 416.756 Q27.4968 412.809 29.0564 409.977 Q30.616 407.144 33.7671 405.33 L28.3562 405.33 L28.3562 399.473 L59.58 399.473 Z" fill="#000000" fill-rule="nonzero" fill-opacity="1" /><path clip-path="url(#clip020)" d="M42.4881 357.778 L64.0042 357.778 L64.0042 363.634 L42.679 363.634 Q37.6183 363.634 35.1038 365.608 Q32.5894 367.581 32.5894 371.528 Q32.5894 376.27 35.6131 379.008 Q38.6368 381.745 43.8567 381.745 L64.0042 381.745 L64.0042 387.633 L28.3562 387.633 L28.3562 381.745 L33.8944 381.745 Q30.6797 379.644 29.0883 376.811 Q27.4968 373.947 27.4968 370.223 Q27.4968 364.08 31.3163 360.929 Q35.1038 357.778 42.4881 357.778 Z" fill="#000000" fill-rule="nonzero" fill-opacity="1" /><path clip-path="url(#clip020)" d="M28.3562 346.097 L28.3562 340.24 L64.0042 340.24 L64.0042 346.097 L28.3562 346.097 M14.479 346.097 L14.479 340.24 L21.895 340.24 L21.895 346.097 L14.479 346.097 Z" fill="#000000" fill-rule="nonzero" fill-opacity="1" /><path clip-path="url(#clip020)" d="M18.2347 322.194 L28.3562 322.194 L28.3562 310.131 L32.9077 310.131 L32.9077 322.194 L52.2594 322.194 Q56.6199 322.194 57.8613 321.016 Q59.1026 319.806 59.1026 316.146 L59.1026 310.131 L64.0042 310.131 L64.0042 316.146 Q64.0042 322.926 61.4897 325.504 Q58.9434 328.082 52.2594 328.082 L32.9077 328.082 L32.9077 332.379 L28.3562 332.379 L28.3562 328.082 L18.2347 328.082 L18.2347 322.194 Z" fill="#000000" fill-rule="nonzero" fill-opacity="1" /><path clip-path="url(#clip020)" d="M49.9359 303.033 L28.3562 303.033 L28.3562 297.176 L49.7131 297.176 Q54.7739 297.176 57.3202 295.203 Q59.8346 293.23 59.8346 289.283 Q59.8346 284.54 56.8109 281.803 Q53.7872 279.034 48.5673 279.034 L28.3562 279.034 L28.3562 273.178 L64.0042 273.178 L64.0042 279.034 L58.5296 279.034 Q61.7762 281.167 63.3676 283.999 Q64.9272 286.8 64.9272 290.524 Q64.9272 296.667 61.1078 299.85 Q57.2883 303.033 49.9359 303.033 M27.4968 288.296 L27.4968 288.296 Z" fill="#000000" fill-rule="nonzero" fill-opacity="1" /><path clip-path="url(#clip020)" d="M33.7671 237.657 L14.479 237.657 L14.479 231.801 L64.0042 231.801 L64.0042 237.657 L58.657 237.657 Q61.8398 239.503 63.3994 242.336 Q64.9272 245.137 64.9272 249.083 Q64.9272 255.545 59.771 259.619 Q54.6147 263.661 46.212 263.661 Q37.8093 263.661 32.6531 259.619 Q27.4968 255.545 27.4968 249.083 Q27.4968 245.137 29.0564 242.336 Q30.5842 239.503 33.7671 237.657 M46.212 257.614 Q52.6732 257.614 56.3653 254.972 Q60.0256 252.298 60.0256 247.651 Q60.0256 243.004 56.3653 240.331 Q52.6732 237.657 46.212 237.657 Q39.7508 237.657 36.0905 240.331 Q32.3984 243.004 32.3984 247.651 Q32.3984 252.298 36.0905 254.972 Q39.7508 257.614 46.212 257.614 Z" fill="#000000" fill-rule="nonzero" fill-opacity="1" /><path clip-path="url(#clip020)" d="M44.7161 189.246 L47.5806 189.246 L47.5806 216.173 Q53.6281 215.791 56.8109 212.544 Q59.9619 209.266 59.9619 203.441 Q59.9619 200.068 59.1344 196.917 Q58.3069 193.734 56.6518 190.614 L62.1899 190.614 Q63.5267 193.766 64.227 197.076 Q64.9272 200.386 64.9272 203.791 Q64.9272 212.322 59.9619 217.319 Q54.9967 222.284 46.5303 222.284 Q37.7774 222.284 32.6531 217.573 Q27.4968 212.831 27.4968 204.81 Q27.4968 197.617 32.1438 193.447 Q36.7589 189.246 44.7161 189.246 M42.9973 195.102 Q38.1912 195.166 35.3266 197.808 Q32.4621 200.418 32.4621 204.746 Q32.4621 209.648 35.2312 212.608 Q38.0002 215.536 43.0292 215.982 L42.9973 195.102 Z" fill="#000000" fill-rule="nonzero" fill-opacity="1" /><polyline clip-path="url(#clip022)" style="stroke:#009af9; stroke-linecap:round; stroke-linejoin:round; stroke-width:4; stroke-opacity:1; fill:none" points="335.627,64.5543 340.301,65.172 344.975,65.7897 349.649,66.4075 354.323,67.0253 358.997,67.643 363.67,68.2608 368.344,68.8786 373.018,69.4964 377.692,70.1142 382.366,70.732 387.04,71.3498 391.714,71.9676 396.388,72.5854 401.062,73.2033 405.736,73.8212 410.41,74.439 415.084,75.0569 419.758,75.6748 424.432,76.2928 429.105,76.9107 433.779,77.5287 438.453,78.1467 443.127,78.7647 447.801,79.3828 452.475,80.0009 457.149,80.619 461.823,81.2371 466.497,81.8553 471.171,82.4736 475.845,83.0918 480.519,83.7101 485.193,84.3285 489.867,84.9469 494.541,85.5654 499.214,86.184 503.888,86.8026 508.562,87.4213 513.236,88.0401 517.91,88.6589 522.584,89.2779 527.258,89.897 531.932,90.5161 536.606,91.1354 541.28,91.7549 545.954,92.3744 550.628,92.9941 555.302,93.614 559.976,94.234 564.65,94.8543 569.323,95.4747 573.997,96.0954 578.671,96.7163 583.345,97.3374 588.019,97.9589 592.693,98.5806 597.367,99.2026 602.041,99.825 606.715,100.448 611.389,101.071 616.063,101.695 620.737,102.319 625.411,102.943 630.085,103.568 634.759,104.194 639.432,104.82 644.106,105.447 648.78,106.075 653.454,106.704 658.128,107.333 662.802,107.964 667.476,108.595 672.15,109.227 676.824,109.861 681.498,110.496 686.172,111.132 690.846,111.769 695.52,112.408 700.194,113.049 704.868,113.691 709.541,114.336 714.215,114.982 718.889,115.631 723.563,116.282 728.237,116.935 732.911,117.591 737.585,118.25 742.259,118.912 746.933,119.577 751.607,120.246 756.281,120.919 760.955,121.595 765.629,122.276 770.303,122.961 774.976,123.651 779.65,124.346 784.324,125.046 788.998,125.752 793.672,126.464 798.346,127.182 803.02,127.907 807.694,128.639 812.368,129.378 817.042,130.125 821.716,130.88 826.39,131.643 831.064,132.415 835.738,133.196 840.412,133.986 845.085,134.786 849.759,135.596 854.433,136.417 859.107,137.248 863.781,138.089 868.455,138.942 873.129,139.806 877.803,140.681 882.477,141.568 887.151,142.466 891.825,143.376 896.499,144.298 901.173,145.231 905.847,146.176 910.521,147.133 915.194,148.101 919.868,149.08 924.542,150.071 929.216,151.072 933.89,152.084 938.564,153.107 943.238,154.14 947.912,155.182 952.586,156.234 957.26,157.295 961.934,158.365 966.608,159.443 971.282,160.53 975.956,161.623 980.63,162.724 985.303,163.832 989.977,164.947 994.651,166.067 999.325,167.193 1004,168.324 1008.67,169.459 1013.35,170.6 1018.02,171.744 1022.69,172.892 1027.37,174.043 1032.04,175.197 1036.72,176.354 1041.39,177.512 1046.06,178.673 1050.74,179.835 1055.41,180.997 1060.09,182.161 1064.76,183.325 1069.43,184.489 1074.11,185.653 1078.78,186.816 1083.46,187.978 1088.13,189.138 1092.8,190.297 1097.48,191.454 1102.15,192.608 1106.83,193.759 1111.5,194.907 1116.17,196.051 1120.85,197.192 1125.52,198.328 1130.2,199.459 1134.87,200.585 1139.54,201.706 1144.22,202.82 1148.89,203.928 1153.57,205.03 1158.24,206.124 1162.91,207.211 1167.59,208.289 1172.26,209.36 1176.93,210.421 1181.61,211.474 1186.28,212.517 1190.96,213.55 1195.63,214.573 1200.3,215.586 1204.98,216.589 1209.65,217.58 1214.33,218.56 1219,219.529 1223.67,220.487 1228.35,221.433 1233.02,222.368 1237.7,223.291 1242.37,224.202 1247.04,225.102 1251.72,225.991 1256.39,226.868 1261.07,227.734 1265.74,228.588 1270.41,229.432 1275.09,230.266 1279.76,231.089 1284.44,231.901 1289.11,232.704 1293.78,233.498 1298.46,234.282 1303.13,235.058 1307.8,235.825 1312.48,236.585 1317.15,237.336 1321.83,238.08 1326.5,238.818 1331.17,239.548 1335.85,240.273 1340.52,240.991 1345.2,241.704 1349.87,242.412 1354.54,243.115 1359.22,243.814 1363.89,244.509 1368.57,245.199 1373.24,245.887 1377.91,246.571 1382.59,247.252 1387.26,247.93 1391.94,248.606 1396.61,249.28 1401.28,249.952 1405.96,250.623 1410.63,251.292 1415.31,251.96 1419.98,252.627 1424.65,253.293 1429.33,253.958 1434,254.624 1438.67,255.289 1443.35,255.954 1448.02,256.619 1452.7,257.285 1457.37,257.951 1462.04,258.618 1466.72,259.285 1471.39,259.954 1476.07,260.624 1480.74,261.295 1485.41,261.968 1490.09,262.643 1494.76,263.32 1499.44,263.999 1504.11,264.682 1508.78,265.367 1513.46,266.056 1518.13,266.75 1522.81,267.448 1527.48,268.152 1532.15,268.862 1536.83,269.58 1541.5,270.307 1546.18,271.044 1550.85,271.793 1555.52,272.556 1560.2,273.334 1564.87,274.131 1569.55,274.949 1574.22,275.791 1578.89,276.66 1583.57,277.561 1588.24,278.496 1592.91,279.47 1597.59,280.486 1602.26,281.55 1606.94,282.664 1611.61,283.833 1616.28,285.059 1620.96,286.345 1625.63,287.693 1630.31,289.105 1634.98,290.58 1639.65,292.118 1644.33,293.718 1649,295.378 1653.68,297.096 1658.35,298.869 1663.02,300.692 1667.7,302.564 1672.37,304.48 1677.05,306.437 1681.72,308.432 1686.39,310.461 1691.07,312.522 1695.74,314.612 1700.42,316.728 1705.09,318.869 1709.76,321.032 1714.44,323.215 1719.11,325.418 1723.78,327.637 1728.46,329.873 1733.13,332.124 1737.81,334.389 1742.48,336.667 1747.15,338.958 1751.83,341.259 1756.5,343.572 1761.18,345.894 1765.85,348.226 1770.52,350.567 1775.2,352.916 1779.87,355.273 1784.55,357.637 1789.22,360.009 1793.89,362.387 1798.57,364.771 1803.24,367.16 1807.92,369.555 1812.59,371.956 1817.26,374.361 1821.94,376.77 1826.61,379.184 1831.29,381.601 1835.96,384.023 1840.63,386.447 1845.31,388.875 1849.98,391.306 1854.65,393.739 1859.33,396.176 1864,398.614 1868.68,401.055 1873.35,403.498 1878.02,405.943 1882.7,408.39 1887.37,410.839 1892.05,413.289 1896.72,415.741 1901.39,418.194 1906.07,420.648 1910.74,423.103 1915.42,425.56 1920.09,428.018 1924.76,430.476 1929.44,432.936 1934.11,435.396 1938.79,437.857 1943.46,440.319 1948.13,442.781 1952.81,445.244 1957.48,447.707 1962.16,450.172 1966.83,452.636 1971.5,455.101 1976.18,457.567 1980.85,460.032 1985.53,462.499 1990.2,464.965 1994.87,467.432 1999.55,469.899 2004.22,472.366 2008.89,474.834 2013.57,477.302 2018.24,479.77 2022.92,482.238 2027.59,484.707 2032.26,487.175 2036.94,489.644 2041.61,492.113 2046.29,494.582 2050.96,497.051 2055.63,499.52 2060.31,501.99 2064.98,504.459 2069.66,506.929 2074.33,509.399 2079,511.868 2083.68,514.338 2088.35,516.808 2093.03,519.278 2097.7,521.748 2102.37,524.218 2107.05,526.688 2111.72,529.158 2116.4,531.628 2121.07,534.099 2125.74,536.569 2130.42,539.039 2135.09,541.509 2139.76,543.98 2144.44,546.45 2149.11,548.921 2153.79,551.391 2158.46,553.861 2163.13,556.332 2167.81,558.802 2172.48,561.273 2177.16,563.743 2181.83,566.214 2186.5,568.685 2191.18,571.155 2195.85,573.626 2200.53,576.096 2205.2,578.567 2209.87,581.037 2214.55,583.508 2219.22,585.979 2223.9,588.449 2228.57,590.92 2233.24,593.39 2237.92,595.861 2242.59,598.332 2247.27,600.802 2251.94,603.273 2256.61,605.744 2261.29,608.214 2265.96,610.685 2270.63,613.156 2275.31,615.626 2279.98,618.097 2284.66,620.568 2289.33,623.038 2294,625.509 "/>
<polyline clip-path="url(#clip022)" style="stroke:#e26f46; stroke-linecap:round; stroke-linejoin:round; stroke-width:4; stroke-opacity:1; fill:none" points="335.627,64.0918 340.301,64.7096 344.975,65.3273 349.649,65.9451 354.323,66.5628 358.997,67.1806 363.67,67.7984 368.344,68.4161 373.018,69.0339 377.692,69.6517 382.366,70.2695 387.04,70.8873 391.714,71.5052 396.388,72.123 401.062,72.7409 405.736,73.3587 410.41,73.9766 415.084,74.5945 419.758,75.2124 424.432,75.8304 429.105,76.4483 433.779,77.0663 438.453,77.6843 443.127,78.3023 447.801,78.9204 452.475,79.5384 457.149,80.1566 461.823,80.7747 466.497,81.3929 471.171,82.0111 475.845,82.6294 480.519,83.2477 485.193,83.8661 489.867,84.4845 494.541,85.103 499.214,85.7216 503.888,86.3402 508.562,86.9589 513.236,87.5777 517.91,88.1965 522.584,88.8155 527.258,89.4346 531.932,90.0537 536.606,90.673 541.28,91.2924 545.954,91.912 550.628,92.5317 555.302,93.1516 559.976,93.7716 564.65,94.3919 569.323,95.0123 573.997,95.633 578.671,96.2539 583.345,96.875 588.019,97.4965 592.693,98.1182 597.367,98.7403 602.041,99.3627 606.715,99.9854 611.389,100.609 616.063,101.232 620.737,101.856 625.411,102.481 630.085,103.106 634.759,103.732 639.432,104.358 644.106,104.985 648.78,105.613 653.454,106.242 658.128,106.871 662.802,107.501 667.476,108.133 672.15,108.765 676.824,109.399 681.498,110.033 686.172,110.67 690.846,111.307 695.52,111.946 700.194,112.587 704.868,113.229 709.541,113.874 714.215,114.52 718.889,115.169 723.563,115.82 728.237,116.473 732.911,117.129 737.585,117.788 742.259,118.45 746.933,119.116 751.607,119.785 756.281,120.457 760.955,121.134 765.629,121.815 770.303,122.5 774.976,123.19 779.65,123.885 784.324,124.585 788.998,125.291 793.672,126.004 798.346,126.722 803.02,127.447 807.694,128.179 812.368,128.918 817.042,129.665 821.716,130.42 826.39,131.184 831.064,131.956 835.738,132.737 840.412,133.528 845.085,134.328 849.759,135.139 854.433,135.959 859.107,136.79 863.781,137.632 868.455,138.486 873.129,139.35 877.803,140.226 882.477,141.113 887.151,142.012 891.825,142.922 896.499,143.845 901.173,144.779 905.847,145.725 910.521,146.682 915.194,147.652 919.868,148.632 924.542,149.624 929.216,150.626 933.89,151.64 938.564,152.664 943.238,153.698 947.912,154.742 952.586,155.796 957.26,156.859 961.934,157.931 966.608,159.011 971.282,160.1 975.956,161.196 980.63,162.3 985.303,163.411 989.977,164.529 994.651,165.652 999.325,166.782 1004,167.917 1008.67,169.057 1013.35,170.202 1018.02,171.351 1022.69,172.505 1027.37,173.662 1032.04,174.822 1036.72,175.985 1041.39,177.151 1046.06,178.32 1050.74,179.49 1055.41,180.662 1060.09,181.835 1064.76,183.009 1069.43,184.184 1074.11,185.36 1078.78,186.536 1083.46,187.711 1088.13,188.886 1092.8,190.06 1097.48,191.233 1102.15,192.405 1106.83,193.575 1111.5,194.743 1116.17,195.909 1120.85,197.072 1125.52,198.231 1130.2,199.388 1134.87,200.54 1139.54,201.689 1144.22,202.833 1148.89,203.972 1153.57,205.106 1158.24,206.235 1162.91,207.357 1167.59,208.473 1172.26,209.582 1176.93,210.684 1181.61,211.779 1186.28,212.865 1190.96,213.943 1195.63,215.012 1200.3,216.071 1204.98,217.122 1209.65,218.162 1214.33,219.191 1219,220.21 1223.67,221.218 1228.35,222.214 1233.02,223.199 1237.7,224.172 1242.37,225.132 1247.04,226.081 1251.72,227.016 1256.39,227.939 1261.07,228.849 1265.74,229.746 1270.41,230.63 1275.09,231.501 1279.76,232.359 1284.44,233.204 1289.11,234.037 1293.78,234.856 1298.46,235.663 1303.13,236.457 1307.8,237.239 1312.48,238.008 1317.15,238.766 1321.83,239.512 1326.5,240.246 1331.17,240.969 1335.85,241.68 1340.52,242.381 1345.2,243.071 1349.87,243.752 1354.54,244.422 1359.22,245.082 1363.89,245.733 1368.57,246.375 1373.24,247.008 1377.91,247.632 1382.59,248.249 1387.26,248.857 1391.94,249.459 1396.61,250.054 1401.28,250.642 1405.96,251.225 1410.63,251.802 1415.31,252.374 1419.98,252.943 1424.65,253.508 1429.33,254.07 1434,254.63 1438.67,255.189 1443.35,255.747 1448.02,256.307 1452.7,256.867 1457.37,257.43 1462.04,257.997 1466.72,258.568 1471.39,259.145 1476.07,259.729 1480.74,260.32 1485.41,260.921 1490.09,261.532 1494.76,262.154 1499.44,262.789 1504.11,263.438 1508.78,264.102 1513.46,264.782 1518.13,265.479 1522.81,266.195 1527.48,266.93 1532.15,267.686 1536.83,268.463 1541.5,269.263 1546.18,270.086 1550.85,270.934 1555.52,271.807 1560.2,272.707 1564.87,273.634 1569.55,274.59 1574.22,275.575 1578.89,276.59 1583.57,277.636 1588.24,278.715 1592.91,279.827 1597.59,280.974 1602.26,282.156 1606.94,283.376 1611.61,284.633 1616.28,285.929 1620.96,287.265 1625.63,288.643 1630.31,290.063 1634.98,291.526 1639.65,293.033 1644.33,294.585 1649,296.181 1653.68,297.823 1658.35,299.51 1663.02,301.242 1667.7,303.018 1672.37,304.837 1677.05,306.699 1681.72,308.602 1686.39,310.545 1691.07,312.526 1695.74,314.543 1700.42,316.594 1705.09,318.679 1709.76,320.793 1714.44,322.937 1719.11,325.107 1723.78,327.302 1728.46,329.52 1733.13,331.759 1737.81,334.018 1742.48,336.294 1747.15,338.587 1751.83,340.896 1756.5,343.218 1761.18,345.552 1765.85,347.899 1770.52,350.255 1775.2,352.622 1779.87,354.997 1784.55,357.38 1789.22,359.771 1793.89,362.168 1798.57,364.571 1803.24,366.98 1807.92,369.394 1812.59,371.813 1817.26,374.236 1821.94,376.662 1826.61,379.093 1831.29,381.526 1835.96,383.963 1840.63,386.402 1845.31,388.844 1849.98,391.287 1854.65,393.734 1859.33,396.182 1864,398.631 1868.68,401.083 1873.35,403.536 1878.02,405.99 1882.7,408.446 1887.37,410.902 1892.05,413.36 1896.72,415.819 1901.39,418.279 1906.07,420.739 1910.74,423.2 1915.42,425.662 1920.09,428.125 1924.76,430.588 1929.44,433.052 1934.11,435.517 1938.79,437.981 1943.46,440.447 1948.13,442.912 1952.81,445.378 1957.48,447.845 1962.16,450.312 1966.83,452.779 1971.5,455.246 1976.18,457.714 1980.85,460.181 1985.53,462.649 1990.2,465.118 1994.87,467.586 1999.55,470.055 2004.22,472.523 2008.89,474.992 2013.57,477.461 2018.24,479.93 2022.92,482.4 2027.59,484.869 2032.26,487.338 2036.94,489.808 2041.61,492.278 2046.29,494.747 2050.96,497.217 2055.63,499.687 2060.31,502.157 2064.98,504.627 2069.66,507.097 2074.33,509.567 2079,512.037 2083.68,514.507 2088.35,516.978 2093.03,519.448 2097.7,521.918 2102.37,524.388 2107.05,526.859 2111.72,529.329 2116.4,531.8 2121.07,534.27 2125.74,536.74 2130.42,539.211 2135.09,541.681 2139.76,544.152 2144.44,546.622 2149.11,549.093 2153.79,551.563 2158.46,554.034 2163.13,556.505 2167.81,558.975 2172.48,561.446 2177.16,563.916 2181.83,566.387 2186.5,568.858 2191.18,571.328 2195.85,573.799 2200.53,576.269 2205.2,578.74 2209.87,581.211 2214.55,583.681 2219.22,586.152 2223.9,588.623 2228.57,591.093 2233.24,593.564 2237.92,596.035 2242.59,598.505 2247.27,600.976 2251.94,603.447 2256.61,605.917 2261.29,608.388 2265.96,610.859 2270.63,613.329 2275.31,615.8 2279.98,618.271 2284.66,620.742 2289.33,623.212 2294,625.683 "/>
<path clip-path="url(#clip020)" d="M1838.01 222.607 L2283.56 222.607 L2283.56 67.087 L1838.01 67.087  Z" fill="#ffffff" fill-rule="evenodd" fill-opacity="1"/>
<polyline clip-path="url(#clip020)" style="stroke:#000000; stroke-linecap:round; stroke-linejoin:round; stroke-width:4; stroke-opacity:1; fill:none" points="1838.01,222.607 2283.56,222.607 2283.56,67.087 1838.01,67.087 1838.01,222.607 "/>
<polyline clip-path="url(#clip020)" style="stroke:#009af9; stroke-linecap:round; stroke-linejoin:round; stroke-width:4; stroke-opacity:1; fill:none" points="1861.08,118.927 1999.47,118.927 "/>
<path clip-path="url(#clip020)" d="M2022.53 101.647 L2027.21 101.647 L2027.21 132.272 L2044.04 132.272 L2044.04 136.207 L2022.53 136.207 L2022.53 101.647 Z" fill="#000000" fill-rule="nonzero" fill-opacity="1" /><path clip-path="url(#clip020)" d="M2073.88 113.267 Q2070.45 113.267 2068.46 115.952 Q2066.47 118.614 2066.47 123.267 Q2066.47 127.92 2068.44 130.605 Q2070.43 133.267 2073.88 133.267 Q2077.28 133.267 2079.27 130.582 Q2081.26 127.897 2081.26 123.267 Q2081.26 118.661 2079.27 115.976 Q2077.28 113.267 2073.88 113.267 M2073.88 109.656 Q2079.43 109.656 2082.6 113.267 Q2085.77 116.878 2085.77 123.267 Q2085.77 129.633 2082.6 133.267 Q2079.43 136.878 2073.88 136.878 Q2068.3 136.878 2065.13 133.267 Q2061.98 129.633 2061.98 123.267 Q2061.98 116.878 2065.13 113.267 Q2068.3 109.656 2073.88 109.656 Z" fill="#000000" fill-rule="nonzero" fill-opacity="1" /><path clip-path="url(#clip020)" d="M2107.86 114.263 Q2107.14 113.846 2106.28 113.661 Q2105.45 113.452 2104.43 113.452 Q2100.82 113.452 2098.88 115.814 Q2096.95 118.152 2096.95 122.55 L2096.95 136.207 L2092.67 136.207 L2092.67 110.281 L2096.95 110.281 L2096.95 114.309 Q2098.3 111.948 2100.45 110.814 Q2102.6 109.656 2105.68 109.656 Q2106.12 109.656 2106.65 109.726 Q2107.19 109.772 2107.83 109.888 L2107.86 114.263 Z" fill="#000000" fill-rule="nonzero" fill-opacity="1" /><path clip-path="url(#clip020)" d="M2112.32 110.281 L2116.58 110.281 L2116.58 136.207 L2112.32 136.207 L2112.32 110.281 M2112.32 100.189 L2116.58 100.189 L2116.58 105.582 L2112.32 105.582 L2112.32 100.189 Z" fill="#000000" fill-rule="nonzero" fill-opacity="1" /><path clip-path="url(#clip020)" d="M2142.56 122.943 Q2142.56 118.314 2140.63 115.767 Q2138.74 113.221 2135.29 113.221 Q2131.86 113.221 2129.94 115.767 Q2128.04 118.314 2128.04 122.943 Q2128.04 127.55 2129.94 130.096 Q2131.86 132.642 2135.29 132.642 Q2138.74 132.642 2140.63 130.096 Q2142.56 127.55 2142.56 122.943 M2146.81 132.989 Q2146.81 139.61 2143.87 142.827 Q2140.94 146.068 2134.87 146.068 Q2132.62 146.068 2130.63 145.721 Q2128.64 145.397 2126.77 144.702 L2126.77 140.559 Q2128.64 141.577 2130.47 142.063 Q2132.3 142.55 2134.2 142.55 Q2138.39 142.55 2140.47 140.35 Q2142.56 138.175 2142.56 133.753 L2142.56 131.647 Q2141.24 133.938 2139.18 135.073 Q2137.12 136.207 2134.25 136.207 Q2129.48 136.207 2126.56 132.573 Q2123.64 128.939 2123.64 122.943 Q2123.64 116.925 2126.56 113.29 Q2129.48 109.656 2134.25 109.656 Q2137.12 109.656 2139.18 110.79 Q2141.24 111.925 2142.56 114.216 L2142.56 110.281 L2146.81 110.281 L2146.81 132.989 Z" fill="#000000" fill-rule="nonzero" fill-opacity="1" /><path clip-path="url(#clip020)" d="M2155.59 110.281 L2159.85 110.281 L2159.85 136.207 L2155.59 136.207 L2155.59 110.281 M2155.59 100.189 L2159.85 100.189 L2159.85 105.582 L2155.59 105.582 L2155.59 100.189 Z" fill="#000000" fill-rule="nonzero" fill-opacity="1" /><path clip-path="url(#clip020)" d="M2190.31 120.559 L2190.31 136.207 L2186.05 136.207 L2186.05 120.698 Q2186.05 117.017 2184.62 115.189 Q2183.18 113.36 2180.31 113.36 Q2176.86 113.36 2174.87 115.559 Q2172.88 117.758 2172.88 121.554 L2172.88 136.207 L2168.6 136.207 L2168.6 110.281 L2172.88 110.281 L2172.88 114.309 Q2174.41 111.971 2176.47 110.814 Q2178.55 109.656 2181.26 109.656 Q2185.73 109.656 2188.02 112.434 Q2190.31 115.189 2190.31 120.559 Z" fill="#000000" fill-rule="nonzero" fill-opacity="1" /><path clip-path="url(#clip020)" d="M2210.59 123.175 Q2205.43 123.175 2203.43 124.355 Q2201.44 125.536 2201.44 128.383 Q2201.44 130.651 2202.93 131.994 Q2204.43 133.313 2207 133.313 Q2210.54 133.313 2212.67 130.813 Q2214.82 128.29 2214.82 124.124 L2214.82 123.175 L2210.59 123.175 M2219.08 121.415 L2219.08 136.207 L2214.82 136.207 L2214.82 132.272 Q2213.37 134.633 2211.19 135.767 Q2209.01 136.878 2205.87 136.878 Q2201.88 136.878 2199.52 134.656 Q2197.18 132.411 2197.18 128.661 Q2197.18 124.286 2200.1 122.064 Q2203.04 119.841 2208.85 119.841 L2214.82 119.841 L2214.82 119.425 Q2214.82 116.485 2212.88 114.888 Q2210.96 113.267 2207.46 113.267 Q2205.24 113.267 2203.13 113.8 Q2201.03 114.332 2199.08 115.397 L2199.08 111.462 Q2201.42 110.559 2203.62 110.119 Q2205.82 109.656 2207.9 109.656 Q2213.53 109.656 2216.3 112.573 Q2219.08 115.489 2219.08 121.415 Z" fill="#000000" fill-rule="nonzero" fill-opacity="1" /><path clip-path="url(#clip020)" d="M2227.86 100.189 L2232.12 100.189 L2232.12 136.207 L2227.86 136.207 L2227.86 100.189 Z" fill="#000000" fill-rule="nonzero" fill-opacity="1" /><polyline clip-path="url(#clip020)" style="stroke:#e26f46; stroke-linecap:round; stroke-linejoin:round; stroke-width:4; stroke-opacity:1; fill:none" points="1861.08,170.767 1999.47,170.767 "/>
<path clip-path="url(#clip020)" d="M2022.53 153.487 L2027.21 153.487 L2027.21 184.112 L2044.04 184.112 L2044.04 188.047 L2022.53 188.047 L2022.53 153.487 Z" fill="#000000" fill-rule="nonzero" fill-opacity="1" /><path clip-path="url(#clip020)" d="M2080.4 171.843 Q2081.91 172.353 2083.32 174.019 Q2084.75 175.686 2086.19 178.603 L2090.94 188.047 L2085.91 188.047 L2081.49 179.181 Q2079.78 175.709 2078.16 174.575 Q2076.56 173.441 2073.78 173.441 L2068.69 173.441 L2068.69 188.047 L2064.01 188.047 L2064.01 153.487 L2074.57 153.487 Q2080.5 153.487 2083.41 155.964 Q2086.33 158.441 2086.33 163.441 Q2086.33 166.705 2084.8 168.857 Q2083.3 171.01 2080.4 171.843 M2068.69 157.33 L2068.69 169.598 L2074.57 169.598 Q2077.95 169.598 2079.66 168.047 Q2081.4 166.473 2081.4 163.441 Q2081.4 160.408 2079.66 158.88 Q2077.95 157.33 2074.57 157.33 L2068.69 157.33 Z" fill="#000000" fill-rule="nonzero" fill-opacity="1" /><path clip-path="url(#clip020)" d="M2116.81 174.019 L2116.81 176.103 L2097.23 176.103 Q2097.51 180.501 2099.87 182.816 Q2102.25 185.107 2106.49 185.107 Q2108.94 185.107 2111.24 184.505 Q2113.55 183.903 2115.82 182.7 L2115.82 186.728 Q2113.53 187.7 2111.12 188.209 Q2108.71 188.718 2106.24 188.718 Q2100.03 188.718 2096.4 185.107 Q2092.79 181.496 2092.79 175.339 Q2092.79 168.973 2096.21 165.246 Q2099.66 161.496 2105.5 161.496 Q2110.73 161.496 2113.76 164.876 Q2116.81 168.232 2116.81 174.019 M2112.56 172.769 Q2112.51 169.274 2110.59 167.191 Q2108.69 165.107 2105.54 165.107 Q2101.98 165.107 2099.82 167.121 Q2097.69 169.135 2097.37 172.792 L2112.56 172.769 Z" fill="#000000" fill-rule="nonzero" fill-opacity="1" /><path clip-path="url(#clip020)" d="M2140.87 166.056 L2140.87 152.029 L2145.12 152.029 L2145.12 188.047 L2140.87 188.047 L2140.87 184.158 Q2139.52 186.473 2137.46 187.607 Q2135.43 188.718 2132.56 188.718 Q2127.86 188.718 2124.89 184.968 Q2121.95 181.218 2121.95 175.107 Q2121.95 168.996 2124.89 165.246 Q2127.86 161.496 2132.56 161.496 Q2135.43 161.496 2137.46 162.63 Q2139.52 163.742 2140.87 166.056 M2126.35 175.107 Q2126.35 179.806 2128.27 182.491 Q2130.22 185.153 2133.6 185.153 Q2136.98 185.153 2138.92 182.491 Q2140.87 179.806 2140.87 175.107 Q2140.87 170.408 2138.92 167.746 Q2136.98 165.061 2133.6 165.061 Q2130.22 165.061 2128.27 167.746 Q2126.35 170.408 2126.35 175.107 Z" fill="#000000" fill-rule="nonzero" fill-opacity="1" /><path clip-path="url(#clip020)" d="M2153.46 177.816 L2153.46 162.121 L2157.72 162.121 L2157.72 177.654 Q2157.72 181.334 2159.15 183.186 Q2160.59 185.015 2163.46 185.015 Q2166.91 185.015 2168.9 182.816 Q2170.91 180.616 2170.91 176.82 L2170.91 162.121 L2175.17 162.121 L2175.17 188.047 L2170.91 188.047 L2170.91 184.066 Q2169.36 186.427 2167.3 187.584 Q2165.26 188.718 2162.56 188.718 Q2158.09 188.718 2155.77 185.941 Q2153.46 183.163 2153.46 177.816 M2164.18 161.496 L2164.18 161.496 Z" fill="#000000" fill-rule="nonzero" fill-opacity="1" /><path clip-path="url(#clip020)" d="M2202.6 163.117 L2202.6 167.098 Q2200.8 166.103 2198.97 165.617 Q2197.16 165.107 2195.31 165.107 Q2191.17 165.107 2188.87 167.746 Q2186.58 170.362 2186.58 175.107 Q2186.58 179.853 2188.87 182.491 Q2191.17 185.107 2195.31 185.107 Q2197.16 185.107 2198.97 184.621 Q2200.8 184.112 2202.6 183.116 L2202.6 187.052 Q2200.82 187.885 2198.9 188.302 Q2197 188.718 2194.85 188.718 Q2188.99 188.718 2185.54 185.038 Q2182.09 181.357 2182.09 175.107 Q2182.09 168.765 2185.56 165.13 Q2189.06 161.496 2195.12 161.496 Q2197.09 161.496 2198.97 161.913 Q2200.84 162.306 2202.6 163.117 Z" fill="#000000" fill-rule="nonzero" fill-opacity="1" /><path clip-path="url(#clip020)" d="M2232.18 174.019 L2232.18 176.103 L2212.6 176.103 Q2212.88 180.501 2215.24 182.816 Q2217.62 185.107 2221.86 185.107 Q2224.31 185.107 2226.61 184.505 Q2228.92 183.903 2231.19 182.7 L2231.19 186.728 Q2228.9 187.7 2226.49 188.209 Q2224.08 188.718 2221.61 188.718 Q2215.4 188.718 2211.77 185.107 Q2208.16 181.496 2208.16 175.339 Q2208.16 168.973 2211.58 165.246 Q2215.03 161.496 2220.87 161.496 Q2226.1 161.496 2229.13 164.876 Q2232.18 168.232 2232.18 174.019 M2227.93 172.769 Q2227.88 169.274 2225.96 167.191 Q2224.06 165.107 2220.91 165.107 Q2217.35 165.107 2215.19 167.121 Q2213.06 169.135 2212.74 172.792 L2227.93 172.769 Z" fill="#000000" fill-rule="nonzero" fill-opacity="1" /><path clip-path="url(#clip020)" d="M2256.24 166.056 L2256.24 152.029 L2260.49 152.029 L2260.49 188.047 L2256.24 188.047 L2256.24 184.158 Q2254.89 186.473 2252.83 187.607 Q2250.8 188.718 2247.93 188.718 Q2243.23 188.718 2240.26 184.968 Q2237.32 181.218 2237.32 175.107 Q2237.32 168.996 2240.26 165.246 Q2243.23 161.496 2247.93 161.496 Q2250.8 161.496 2252.83 162.63 Q2254.89 163.742 2256.24 166.056 M2241.72 175.107 Q2241.72 179.806 2243.64 182.491 Q2245.59 185.153 2248.97 185.153 Q2252.35 185.153 2254.29 182.491 Q2256.24 179.806 2256.24 175.107 Q2256.24 170.408 2254.29 167.746 Q2252.35 165.061 2248.97 165.061 Q2245.59 165.061 2243.64 167.746 Q2241.72 170.408 2241.72 175.107 Z" fill="#000000" fill-rule="nonzero" fill-opacity="1" /><path clip-path="url(#clip020)" d="M276.876 1410.9 L2352.76 1410.9 L2352.76 815.61 L276.876 815.61  Z" fill="#ffffff" fill-rule="evenodd" fill-opacity="1"/>
<defs>
  <clipPath id="clip023">
    <rect x="276" y="815" width="2077" height="596"/>
  </clipPath>
</defs>
<polyline clip-path="url(#clip023)" style="stroke:#000000; stroke-linecap:round; stroke-linejoin:round; stroke-width:2; stroke-opacity:0.1; fill:none" points="615.395,1410.9 615.395,815.61 "/>
<polyline clip-path="url(#clip023)" style="stroke:#000000; stroke-linecap:round; stroke-linejoin:round; stroke-width:2; stroke-opacity:0.1; fill:none" points="1174.93,1410.9 1174.93,815.61 "/>
<polyline clip-path="url(#clip023)" style="stroke:#000000; stroke-linecap:round; stroke-linejoin:round; stroke-width:2; stroke-opacity:0.1; fill:none" points="1734.47,1410.9 1734.47,815.61 "/>
<polyline clip-path="url(#clip023)" style="stroke:#000000; stroke-linecap:round; stroke-linejoin:round; stroke-width:2; stroke-opacity:0.1; fill:none" points="2294,1410.9 2294,815.61 "/>
<polyline clip-path="url(#clip023)" style="stroke:#000000; stroke-linecap:round; stroke-linejoin:round; stroke-width:2; stroke-opacity:0.1; fill:none" points="276.876,1374.56 2352.76,1374.56 "/>
<polyline clip-path="url(#clip023)" style="stroke:#000000; stroke-linecap:round; stroke-linejoin:round; stroke-width:2; stroke-opacity:0.1; fill:none" points="276.876,1270.11 2352.76,1270.11 "/>
<polyline clip-path="url(#clip023)" style="stroke:#000000; stroke-linecap:round; stroke-linejoin:round; stroke-width:2; stroke-opacity:0.1; fill:none" points="276.876,1165.67 2352.76,1165.67 "/>
<polyline clip-path="url(#clip023)" style="stroke:#000000; stroke-linecap:round; stroke-linejoin:round; stroke-width:2; stroke-opacity:0.1; fill:none" points="276.876,1061.23 2352.76,1061.23 "/>
<polyline clip-path="url(#clip023)" style="stroke:#000000; stroke-linecap:round; stroke-linejoin:round; stroke-width:2; stroke-opacity:0.1; fill:none" points="276.876,956.781 2352.76,956.781 "/>
<polyline clip-path="url(#clip023)" style="stroke:#000000; stroke-linecap:round; stroke-linejoin:round; stroke-width:2; stroke-opacity:0.1; fill:none" points="276.876,852.337 2352.76,852.337 "/>
<polyline clip-path="url(#clip020)" style="stroke:#000000; stroke-linecap:round; stroke-linejoin:round; stroke-width:4; stroke-opacity:1; fill:none" points="276.876,1410.9 2352.76,1410.9 "/>
<polyline clip-path="url(#clip020)" style="stroke:#000000; stroke-linecap:round; stroke-linejoin:round; stroke-width:4; stroke-opacity:1; fill:none" points="615.395,1410.9 615.395,1392 "/>
<polyline clip-path="url(#clip020)" style="stroke:#000000; stroke-linecap:round; stroke-linejoin:round; stroke-width:4; stroke-opacity:1; fill:none" points="1174.93,1410.9 1174.93,1392 "/>
<polyline clip-path="url(#clip020)" style="stroke:#000000; stroke-linecap:round; stroke-linejoin:round; stroke-width:4; stroke-opacity:1; fill:none" points="1734.47,1410.9 1734.47,1392 "/>
<polyline clip-path="url(#clip020)" style="stroke:#000000; stroke-linecap:round; stroke-linejoin:round; stroke-width:4; stroke-opacity:1; fill:none" points="2294,1410.9 2294,1392 "/>
<path clip-path="url(#clip020)" d="M565.661 1485.02 L573.3 1485.02 L573.3 1458.66 L564.99 1460.32 L564.99 1456.06 L573.253 1454.4 L577.929 1454.4 L577.929 1485.02 L585.568 1485.02 L585.568 1488.96 L565.661 1488.96 L565.661 1485.02 Z" fill="#000000" fill-rule="nonzero" fill-opacity="1" /><path clip-path="url(#clip020)" d="M605.012 1457.48 Q601.401 1457.48 599.573 1461.04 Q597.767 1464.58 597.767 1471.71 Q597.767 1478.82 599.573 1482.38 Q601.401 1485.92 605.012 1485.92 Q608.647 1485.92 610.452 1482.38 Q612.281 1478.82 612.281 1471.71 Q612.281 1464.58 610.452 1461.04 Q608.647 1457.48 605.012 1457.48 M605.012 1453.77 Q610.823 1453.77 613.878 1458.38 Q616.957 1462.96 616.957 1471.71 Q616.957 1480.44 613.878 1485.04 Q610.823 1489.63 605.012 1489.63 Q599.202 1489.63 596.124 1485.04 Q593.068 1480.44 593.068 1471.71 Q593.068 1462.96 596.124 1458.38 Q599.202 1453.77 605.012 1453.77 Z" fill="#000000" fill-rule="nonzero" fill-opacity="1" /><path clip-path="url(#clip020)" d="M616.957 1447.87 L641.068 1447.87 L641.068 1451.07 L616.957 1451.07 L616.957 1447.87 Z" fill="#000000" fill-rule="nonzero" fill-opacity="1" /><path clip-path="url(#clip020)" d="M652.541 1458.35 L665.801 1458.35 L665.801 1461.55 L647.971 1461.55 L647.971 1458.35 Q650.134 1456.11 653.858 1452.35 Q657.6 1448.57 658.56 1447.48 Q660.384 1445.43 661.099 1444.02 Q661.832 1442.59 661.832 1441.22 Q661.832 1438.98 660.252 1437.57 Q658.691 1436.16 656.171 1436.16 Q654.384 1436.16 652.391 1436.78 Q650.416 1437.4 648.159 1438.66 L648.159 1434.82 Q650.453 1433.9 652.447 1433.43 Q654.441 1432.96 656.096 1432.96 Q660.459 1432.96 663.055 1435.14 Q665.65 1437.32 665.65 1440.97 Q665.65 1442.7 664.992 1444.26 Q664.352 1445.8 662.641 1447.91 Q662.171 1448.46 659.65 1451.07 Q657.13 1453.67 652.541 1458.35 Z" fill="#000000" fill-rule="nonzero" fill-opacity="1" /><path clip-path="url(#clip020)" d="M1139.91 1485.02 L1147.55 1485.02 L1147.55 1458.66 L1139.24 1460.32 L1139.24 1456.06 L1147.51 1454.4 L1152.18 1454.4 L1152.18 1485.02 L1159.82 1485.02 L1159.82 1488.96 L1139.91 1488.96 L1139.91 1485.02 Z" fill="#000000" fill-rule="nonzero" fill-opacity="1" /><path clip-path="url(#clip020)" d="M1179.27 1457.48 Q1175.65 1457.48 1173.83 1461.04 Q1172.02 1464.58 1172.02 1471.71 Q1172.02 1478.82 1173.83 1482.38 Q1175.65 1485.92 1179.27 1485.92 Q1182.9 1485.92 1184.71 1482.38 Q1186.53 1478.82 1186.53 1471.71 Q1186.53 1464.58 1184.71 1461.04 Q1182.9 1457.48 1179.27 1457.48 M1179.27 1453.77 Q1185.08 1453.77 1188.13 1458.38 Q1191.21 1462.96 1191.21 1471.71 Q1191.21 1480.44 1188.13 1485.04 Q1185.08 1489.63 1179.27 1489.63 Q1173.46 1489.63 1170.38 1485.04 Q1167.32 1480.44 1167.32 1471.71 Q1167.32 1462.96 1170.38 1458.38 Q1173.46 1453.77 1179.27 1453.77 Z" fill="#000000" fill-rule="nonzero" fill-opacity="1" /><path clip-path="url(#clip020)" d="M1200.92 1435.97 Q1197.98 1435.97 1196.5 1438.86 Q1195.03 1441.74 1195.03 1447.53 Q1195.03 1453.31 1196.5 1456.2 Q1197.98 1459.08 1200.92 1459.08 Q1203.87 1459.08 1205.34 1456.2 Q1206.82 1453.31 1206.82 1447.53 Q1206.82 1441.74 1205.34 1438.86 Q1203.87 1435.97 1200.92 1435.97 M1200.92 1432.96 Q1205.64 1432.96 1208.12 1436.7 Q1210.62 1440.43 1210.62 1447.53 Q1210.62 1454.62 1208.12 1458.37 Q1205.64 1462.09 1200.92 1462.09 Q1196.19 1462.09 1193.69 1458.37 Q1191.21 1454.62 1191.21 1447.53 Q1191.21 1440.43 1193.69 1436.7 Q1196.19 1432.96 1200.92 1432.96 Z" fill="#000000" fill-rule="nonzero" fill-opacity="1" /><path clip-path="url(#clip020)" d="M1700.24 1485.02 L1707.88 1485.02 L1707.88 1458.66 L1699.57 1460.32 L1699.57 1456.06 L1707.83 1454.4 L1712.51 1454.4 L1712.51 1485.02 L1720.15 1485.02 L1720.15 1488.96 L1700.24 1488.96 L1700.24 1485.02 Z" fill="#000000" fill-rule="nonzero" fill-opacity="1" /><path clip-path="url(#clip020)" d="M1739.59 1457.48 Q1735.98 1457.48 1734.15 1461.04 Q1732.35 1464.58 1732.35 1471.71 Q1732.35 1478.82 1734.15 1482.38 Q1735.98 1485.92 1739.59 1485.92 Q1743.23 1485.92 1745.03 1482.38 Q1746.86 1478.82 1746.86 1471.71 Q1746.86 1464.58 1745.03 1461.04 Q1743.23 1457.48 1739.59 1457.48 M1739.59 1453.77 Q1745.4 1453.77 1748.46 1458.38 Q1751.54 1462.96 1751.54 1471.71 Q1751.54 1480.44 1748.46 1485.04 Q1745.4 1489.63 1739.59 1489.63 Q1733.78 1489.63 1730.7 1485.04 Q1727.65 1480.44 1727.65 1471.71 Q1727.65 1462.96 1730.7 1458.38 Q1733.78 1453.77 1739.59 1453.77 Z" fill="#000000" fill-rule="nonzero" fill-opacity="1" /><path clip-path="url(#clip020)" d="M1756.11 1458.35 L1769.37 1458.35 L1769.37 1461.55 L1751.54 1461.55 L1751.54 1458.35 Q1753.7 1456.11 1757.42 1452.35 Q1761.17 1448.57 1762.13 1447.48 Q1763.95 1445.43 1764.66 1444.02 Q1765.4 1442.59 1765.4 1441.22 Q1765.4 1438.98 1763.82 1437.57 Q1762.26 1436.16 1759.74 1436.16 Q1757.95 1436.16 1755.96 1436.78 Q1753.98 1437.4 1751.72 1438.66 L1751.72 1434.82 Q1754.02 1433.9 1756.01 1433.43 Q1758.01 1432.96 1759.66 1432.96 Q1764.03 1432.96 1766.62 1435.14 Q1769.22 1437.32 1769.22 1440.97 Q1769.22 1442.7 1768.56 1444.26 Q1767.92 1445.8 1766.21 1447.91 Q1765.74 1448.46 1763.22 1451.07 Q1760.7 1453.67 1756.11 1458.35 Z" fill="#000000" fill-rule="nonzero" fill-opacity="1" /><path clip-path="url(#clip020)" d="M2258.46 1485.02 L2266.1 1485.02 L2266.1 1458.66 L2257.79 1460.32 L2257.79 1456.06 L2266.05 1454.4 L2270.73 1454.4 L2270.73 1485.02 L2278.37 1485.02 L2278.37 1488.96 L2258.46 1488.96 L2258.46 1485.02 Z" fill="#000000" fill-rule="nonzero" fill-opacity="1" /><path clip-path="url(#clip020)" d="M2297.81 1457.48 Q2294.2 1457.48 2292.37 1461.04 Q2290.57 1464.58 2290.57 1471.71 Q2290.57 1478.82 2292.37 1482.38 Q2294.2 1485.92 2297.81 1485.92 Q2301.45 1485.92 2303.25 1482.38 Q2305.08 1478.82 2305.08 1471.71 Q2305.08 1464.58 2303.25 1461.04 Q2301.45 1457.48 2297.81 1457.48 M2297.81 1453.77 Q2303.62 1453.77 2306.68 1458.38 Q2309.76 1462.96 2309.76 1471.71 Q2309.76 1480.44 2306.68 1485.04 Q2303.62 1489.63 2297.81 1489.63 Q2292 1489.63 2288.92 1485.04 Q2285.87 1480.44 2285.87 1471.71 Q2285.87 1462.96 2288.92 1458.38 Q2292 1453.77 2297.81 1453.77 Z" fill="#000000" fill-rule="nonzero" fill-opacity="1" /><path clip-path="url(#clip020)" d="M2322.43 1436.78 L2312.84 1451.77 L2322.43 1451.77 L2322.43 1436.78 M2321.44 1433.47 L2326.21 1433.47 L2326.21 1451.77 L2330.22 1451.77 L2330.22 1454.93 L2326.21 1454.93 L2326.21 1461.55 L2322.43 1461.55 L2322.43 1454.93 L2309.76 1454.93 L2309.76 1451.26 L2321.44 1433.47 Z" fill="#000000" fill-rule="nonzero" fill-opacity="1" /><path clip-path="url(#clip020)" d="M1034.63 1526.67 L1061.94 1526.67 L1061.94 1532.08 L1041.06 1532.08 L1041.06 1546.08 L1059.9 1546.08 L1059.9 1551.49 L1041.06 1551.49 L1041.06 1574.19 L1034.63 1574.19 L1034.63 1526.67 Z" fill="#000000" fill-rule="nonzero" fill-opacity="1" /><path clip-path="url(#clip020)" d="M1087.78 1544.01 Q1086.8 1543.44 1085.62 1543.18 Q1084.47 1542.9 1083.07 1542.9 Q1078.11 1542.9 1075.43 1546.14 Q1072.79 1549.36 1072.79 1555.41 L1072.79 1574.19 L1066.9 1574.19 L1066.9 1538.54 L1072.79 1538.54 L1072.79 1544.08 Q1074.64 1540.83 1077.6 1539.27 Q1080.56 1537.68 1084.79 1537.68 Q1085.4 1537.68 1086.13 1537.77 Q1086.86 1537.84 1087.75 1538 L1087.78 1544.01 Z" fill="#000000" fill-rule="nonzero" fill-opacity="1" /><path clip-path="url(#clip020)" d="M1122.99 1554.9 L1122.99 1557.76 L1096.06 1557.76 Q1096.44 1563.81 1099.69 1566.99 Q1102.96 1570.14 1108.79 1570.14 Q1112.16 1570.14 1115.31 1569.32 Q1118.5 1568.49 1121.62 1566.83 L1121.62 1572.37 Q1118.47 1573.71 1115.16 1574.41 Q1111.85 1575.11 1108.44 1575.11 Q1099.91 1575.11 1094.91 1570.14 Q1089.95 1565.18 1089.95 1556.71 Q1089.95 1547.96 1094.66 1542.83 Q1099.4 1537.68 1107.42 1537.68 Q1114.61 1537.68 1118.78 1542.33 Q1122.99 1546.94 1122.99 1554.9 M1117.13 1553.18 Q1117.07 1548.37 1114.42 1545.51 Q1111.81 1542.64 1107.48 1542.64 Q1102.58 1542.64 1099.62 1545.41 Q1096.69 1548.18 1096.25 1553.21 L1117.13 1553.18 Z" fill="#000000" fill-rule="nonzero" fill-opacity="1" /><path clip-path="url(#clip020)" d="M1136.1 1556.39 Q1136.1 1562.85 1138.74 1566.55 Q1141.41 1570.21 1146.06 1570.21 Q1150.71 1570.21 1153.38 1566.55 Q1156.05 1562.85 1156.05 1556.39 Q1156.05 1549.93 1153.38 1546.27 Q1150.71 1542.58 1146.06 1542.58 Q1141.41 1542.58 1138.74 1546.27 Q1136.1 1549.93 1136.1 1556.39 M1156.05 1568.84 Q1154.21 1572.02 1151.38 1573.58 Q1148.58 1575.11 1144.63 1575.11 Q1138.17 1575.11 1134.09 1569.95 Q1130.05 1564.8 1130.05 1556.39 Q1130.05 1547.99 1134.09 1542.83 Q1138.17 1537.68 1144.63 1537.68 Q1148.58 1537.68 1151.38 1539.24 Q1154.21 1540.77 1156.05 1543.95 L1156.05 1538.54 L1161.91 1538.54 L1161.91 1587.74 L1156.05 1587.74 L1156.05 1568.84 Z" fill="#000000" fill-rule="nonzero" fill-opacity="1" /><path clip-path="url(#clip020)" d="M1173.37 1560.12 L1173.37 1538.54 L1179.23 1538.54 L1179.23 1559.89 Q1179.23 1564.96 1181.2 1567.5 Q1183.17 1570.02 1187.12 1570.02 Q1191.86 1570.02 1194.6 1566.99 Q1197.37 1563.97 1197.37 1558.75 L1197.37 1538.54 L1203.22 1538.54 L1203.22 1574.19 L1197.37 1574.19 L1197.37 1568.71 Q1195.24 1571.96 1192.4 1573.55 Q1189.6 1575.11 1185.88 1575.11 Q1179.74 1575.11 1176.55 1571.29 Q1173.37 1567.47 1173.37 1560.12 M1188.11 1537.68 L1188.11 1537.68 Z" fill="#000000" fill-rule="nonzero" fill-opacity="1" /><path clip-path="url(#clip020)" d="M1245.78 1554.9 L1245.78 1557.76 L1218.85 1557.76 Q1219.23 1563.81 1222.48 1566.99 Q1225.76 1570.14 1231.58 1570.14 Q1234.96 1570.14 1238.11 1569.32 Q1241.29 1568.49 1244.41 1566.83 L1244.41 1572.37 Q1241.26 1573.71 1237.95 1574.41 Q1234.64 1575.11 1231.23 1575.11 Q1222.7 1575.11 1217.71 1570.14 Q1212.74 1565.18 1212.74 1556.71 Q1212.74 1547.96 1217.45 1542.83 Q1222.19 1537.68 1230.22 1537.68 Q1237.41 1537.68 1241.58 1542.33 Q1245.78 1546.94 1245.78 1554.9 M1239.92 1553.18 Q1239.86 1548.37 1237.22 1545.51 Q1234.61 1542.64 1230.28 1542.64 Q1225.38 1542.64 1222.42 1545.41 Q1219.49 1548.18 1219.04 1553.21 L1239.92 1553.18 Z" fill="#000000" fill-rule="nonzero" fill-opacity="1" /><path clip-path="url(#clip020)" d="M1285.02 1552.67 L1285.02 1574.19 L1279.17 1574.19 L1279.17 1552.86 Q1279.17 1547.8 1277.19 1545.29 Q1275.22 1542.77 1271.27 1542.77 Q1266.53 1542.77 1263.79 1545.79 Q1261.06 1548.82 1261.06 1554.04 L1261.06 1574.19 L1255.17 1574.19 L1255.17 1538.54 L1261.06 1538.54 L1261.06 1544.08 Q1263.16 1540.86 1265.99 1539.27 Q1268.86 1537.68 1272.58 1537.68 Q1278.72 1537.68 1281.87 1541.5 Q1285.02 1545.29 1285.02 1552.67 Z" fill="#000000" fill-rule="nonzero" fill-opacity="1" /><path clip-path="url(#clip020)" d="M1322.36 1539.91 L1322.36 1545.38 Q1319.88 1544.01 1317.36 1543.34 Q1314.88 1542.64 1312.33 1542.64 Q1306.64 1542.64 1303.48 1546.27 Q1300.33 1549.87 1300.33 1556.39 Q1300.33 1562.92 1303.48 1566.55 Q1306.64 1570.14 1312.33 1570.14 Q1314.88 1570.14 1317.36 1569.47 Q1319.88 1568.77 1322.36 1567.41 L1322.36 1572.82 Q1319.91 1573.96 1317.27 1574.54 Q1314.66 1575.11 1311.7 1575.11 Q1303.64 1575.11 1298.9 1570.05 Q1294.16 1564.99 1294.16 1556.39 Q1294.16 1547.67 1298.93 1542.68 Q1303.74 1537.68 1312.08 1537.68 Q1314.78 1537.68 1317.36 1538.25 Q1319.94 1538.79 1322.36 1539.91 Z" fill="#000000" fill-rule="nonzero" fill-opacity="1" /><path clip-path="url(#clip020)" d="M1347.38 1577.5 Q1344.89 1583.86 1342.54 1585.8 Q1340.18 1587.74 1336.24 1587.74 L1331.56 1587.74 L1331.56 1582.84 L1334.99 1582.84 Q1337.41 1582.84 1338.75 1581.7 Q1340.09 1580.55 1341.71 1576.29 L1342.76 1573.61 L1328.34 1538.54 L1334.55 1538.54 L1345.69 1566.42 L1356.83 1538.54 L1363.04 1538.54 L1347.38 1577.5 Z" fill="#000000" fill-rule="nonzero" fill-opacity="1" /><path clip-path="url(#clip020)" d="M1391.3 1524.66 L1404.79 1524.66 L1404.79 1529.21 L1397.16 1529.21 L1397.16 1578.23 L1404.79 1578.23 L1404.79 1582.78 L1391.3 1582.78 L1391.3 1524.66 Z" fill="#000000" fill-rule="nonzero" fill-opacity="1" /><path clip-path="url(#clip020)" d="M1437.93 1544.01 Q1436.94 1543.44 1435.76 1543.18 Q1434.62 1542.9 1433.22 1542.9 Q1428.25 1542.9 1425.58 1546.14 Q1422.94 1549.36 1422.94 1555.41 L1422.94 1574.19 L1417.05 1574.19 L1417.05 1538.54 L1422.94 1538.54 L1422.94 1544.08 Q1424.78 1540.83 1427.74 1539.27 Q1430.7 1537.68 1434.94 1537.68 Q1435.54 1537.68 1436.27 1537.77 Q1437.01 1537.84 1437.9 1538 L1437.93 1544.01 Z" fill="#000000" fill-rule="nonzero" fill-opacity="1" /><path clip-path="url(#clip020)" d="M1460.27 1556.27 Q1453.17 1556.27 1450.44 1557.89 Q1447.7 1559.51 1447.7 1563.43 Q1447.7 1566.55 1449.74 1568.39 Q1451.81 1570.21 1455.34 1570.21 Q1460.21 1570.21 1463.14 1566.77 Q1466.1 1563.3 1466.1 1557.57 L1466.1 1556.27 L1460.27 1556.27 M1471.95 1553.85 L1471.95 1574.19 L1466.1 1574.19 L1466.1 1568.77 Q1464.09 1572.02 1461.1 1573.58 Q1458.11 1575.11 1453.78 1575.11 Q1448.3 1575.11 1445.06 1572.05 Q1441.84 1568.97 1441.84 1563.81 Q1441.84 1557.79 1445.85 1554.74 Q1449.9 1551.68 1457.88 1551.68 L1466.1 1551.68 L1466.1 1551.11 Q1466.1 1547.07 1463.42 1544.87 Q1460.78 1542.64 1455.98 1542.64 Q1452.92 1542.64 1450.02 1543.38 Q1447.13 1544.11 1444.45 1545.57 L1444.45 1540.16 Q1447.67 1538.92 1450.69 1538.31 Q1453.72 1537.68 1456.58 1537.68 Q1464.31 1537.68 1468.13 1541.69 Q1471.95 1545.7 1471.95 1553.85 Z" fill="#000000" fill-rule="nonzero" fill-opacity="1" /><path clip-path="url(#clip020)" d="M1507.47 1543.95 L1507.47 1524.66 L1513.33 1524.66 L1513.33 1574.19 L1507.47 1574.19 L1507.47 1568.84 Q1505.63 1572.02 1502.8 1573.58 Q1499.99 1575.11 1496.05 1575.11 Q1489.59 1575.11 1485.51 1569.95 Q1481.47 1564.8 1481.47 1556.39 Q1481.47 1547.99 1485.51 1542.83 Q1489.59 1537.68 1496.05 1537.68 Q1499.99 1537.68 1502.8 1539.24 Q1505.63 1540.77 1507.47 1543.95 M1487.52 1556.39 Q1487.52 1562.85 1490.16 1566.55 Q1492.83 1570.21 1497.48 1570.21 Q1502.13 1570.21 1504.8 1566.55 Q1507.47 1562.85 1507.47 1556.39 Q1507.47 1549.93 1504.8 1546.27 Q1502.13 1542.58 1497.48 1542.58 Q1492.83 1542.58 1490.16 1546.27 Q1487.52 1549.93 1487.52 1556.39 Z" fill="#000000" fill-rule="nonzero" fill-opacity="1" /><path clip-path="url(#clip020)" d="M1535.8 1526.67 L1541.21 1526.67 L1524.66 1580.23 L1519.25 1580.23 L1535.8 1526.67 Z" fill="#000000" fill-rule="nonzero" fill-opacity="1" /><path clip-path="url(#clip020)" d="M1570.08 1539.59 L1570.08 1545.13 Q1567.6 1543.85 1564.92 1543.22 Q1562.25 1542.58 1559.39 1542.58 Q1555.03 1542.58 1552.83 1543.92 Q1550.67 1545.25 1550.67 1547.93 Q1550.67 1549.96 1552.22 1551.14 Q1553.78 1552.29 1558.49 1553.34 L1560.5 1553.78 Q1566.74 1555.12 1569.35 1557.57 Q1571.99 1559.99 1571.99 1564.35 Q1571.99 1569.32 1568.04 1572.21 Q1564.13 1575.11 1557.25 1575.11 Q1554.39 1575.11 1551.27 1574.54 Q1548.18 1573.99 1544.75 1572.88 L1544.75 1566.83 Q1547.99 1568.52 1551.14 1569.38 Q1554.29 1570.21 1557.38 1570.21 Q1561.52 1570.21 1563.75 1568.81 Q1565.97 1567.37 1565.97 1564.8 Q1565.97 1562.41 1564.35 1561.14 Q1562.76 1559.86 1557.32 1558.68 L1555.28 1558.21 Q1549.84 1557.06 1547.42 1554.71 Q1545 1552.32 1545 1548.18 Q1545 1543.15 1548.56 1540.42 Q1552.13 1537.68 1558.69 1537.68 Q1561.93 1537.68 1564.8 1538.16 Q1567.66 1538.63 1570.08 1539.59 Z" fill="#000000" fill-rule="nonzero" fill-opacity="1" /><path clip-path="url(#clip020)" d="M1595 1524.66 L1595 1582.78 L1581.51 1582.78 L1581.51 1578.23 L1589.11 1578.23 L1589.11 1529.21 L1581.51 1529.21 L1581.51 1524.66 L1595 1524.66 Z" fill="#000000" fill-rule="nonzero" fill-opacity="1" /><polyline clip-path="url(#clip020)" style="stroke:#000000; stroke-linecap:round; stroke-linejoin:round; stroke-width:4; stroke-opacity:1; fill:none" points="276.876,1410.9 276.876,815.61 "/>
<polyline clip-path="url(#clip020)" style="stroke:#000000; stroke-linecap:round; stroke-linejoin:round; stroke-width:4; stroke-opacity:1; fill:none" points="276.876,1374.56 295.773,1374.56 "/>
<polyline clip-path="url(#clip020)" style="stroke:#000000; stroke-linecap:round; stroke-linejoin:round; stroke-width:4; stroke-opacity:1; fill:none" points="276.876,1270.11 295.773,1270.11 "/>
<polyline clip-path="url(#clip020)" style="stroke:#000000; stroke-linecap:round; stroke-linejoin:round; stroke-width:4; stroke-opacity:1; fill:none" points="276.876,1165.67 295.773,1165.67 "/>
<polyline clip-path="url(#clip020)" style="stroke:#000000; stroke-linecap:round; stroke-linejoin:round; stroke-width:4; stroke-opacity:1; fill:none" points="276.876,1061.23 295.773,1061.23 "/>
<polyline clip-path="url(#clip020)" style="stroke:#000000; stroke-linecap:round; stroke-linejoin:round; stroke-width:4; stroke-opacity:1; fill:none" points="276.876,956.781 295.773,956.781 "/>
<polyline clip-path="url(#clip020)" style="stroke:#000000; stroke-linecap:round; stroke-linejoin:round; stroke-width:4; stroke-opacity:1; fill:none" points="276.876,852.337 295.773,852.337 "/>
<path clip-path="url(#clip020)" d="M118.839 1375.01 L148.515 1375.01 L148.515 1378.95 L118.839 1378.95 L118.839 1375.01 Z" fill="#000000" fill-rule="nonzero" fill-opacity="1" /><path clip-path="url(#clip020)" d="M172.774 1373.2 Q176.13 1373.92 178.005 1376.19 Q179.904 1378.46 179.904 1381.79 Q179.904 1386.91 176.385 1389.71 Q172.867 1392.51 166.385 1392.51 Q164.209 1392.51 161.894 1392.07 Q159.603 1391.65 157.149 1390.8 L157.149 1386.28 Q159.094 1387.42 161.408 1388 Q163.723 1388.58 166.246 1388.58 Q170.644 1388.58 172.936 1386.84 Q175.251 1385.1 175.251 1381.79 Q175.251 1378.74 173.098 1377.02 Q170.968 1375.29 167.149 1375.29 L163.121 1375.29 L163.121 1371.45 L167.334 1371.45 Q170.783 1371.45 172.612 1370.08 Q174.441 1368.69 174.441 1366.1 Q174.441 1363.44 172.543 1362.02 Q170.668 1360.59 167.149 1360.59 Q165.228 1360.59 163.029 1361.01 Q160.83 1361.42 158.191 1362.3 L158.191 1358.14 Q160.853 1357.39 163.168 1357.02 Q165.506 1356.65 167.566 1356.65 Q172.89 1356.65 175.992 1359.08 Q179.093 1361.49 179.093 1365.61 Q179.093 1368.48 177.45 1370.47 Q175.806 1372.44 172.774 1373.2 Z" fill="#000000" fill-rule="nonzero" fill-opacity="1" /><path clip-path="url(#clip020)" d="M188.816 1357.28 L207.172 1357.28 L207.172 1361.21 L193.098 1361.21 L193.098 1369.69 Q194.117 1369.34 195.135 1369.18 Q196.154 1368.99 197.172 1368.99 Q202.959 1368.99 206.339 1372.16 Q209.718 1375.33 209.718 1380.75 Q209.718 1386.33 206.246 1389.43 Q202.774 1392.51 196.454 1392.51 Q194.279 1392.51 192.01 1392.14 Q189.765 1391.77 187.357 1391.03 L187.357 1386.33 Q189.441 1387.46 191.663 1388.02 Q193.885 1388.58 196.362 1388.58 Q200.366 1388.58 202.704 1386.47 Q205.042 1384.36 205.042 1380.75 Q205.042 1377.14 202.704 1375.03 Q200.366 1372.93 196.362 1372.93 Q194.487 1372.93 192.612 1373.34 Q190.76 1373.76 188.816 1374.64 L188.816 1357.28 Z" fill="#000000" fill-rule="nonzero" fill-opacity="1" /><path clip-path="url(#clip020)" d="M228.931 1360.36 Q225.32 1360.36 223.491 1363.92 Q221.686 1367.46 221.686 1374.59 Q221.686 1381.7 223.491 1385.27 Q225.32 1388.81 228.931 1388.81 Q232.565 1388.81 234.371 1385.27 Q236.2 1381.7 236.2 1374.59 Q236.2 1367.46 234.371 1363.92 Q232.565 1360.36 228.931 1360.36 M228.931 1356.65 Q234.741 1356.65 237.797 1361.26 Q240.876 1365.84 240.876 1374.59 Q240.876 1383.32 237.797 1387.93 Q234.741 1392.51 228.931 1392.51 Q223.121 1392.51 220.042 1387.93 Q216.987 1383.32 216.987 1374.59 Q216.987 1365.84 220.042 1361.26 Q223.121 1356.65 228.931 1356.65 Z" fill="#000000" fill-rule="nonzero" fill-opacity="1" /><path clip-path="url(#clip020)" d="M118.839 1270.57 L148.515 1270.57 L148.515 1274.5 L118.839 1274.5 L118.839 1270.57 Z" fill="#000000" fill-rule="nonzero" fill-opacity="1" /><path clip-path="url(#clip020)" d="M172.774 1268.76 Q176.13 1269.48 178.005 1271.75 Q179.904 1274.02 179.904 1277.35 Q179.904 1282.46 176.385 1285.27 Q172.867 1288.07 166.385 1288.07 Q164.209 1288.07 161.894 1287.63 Q159.603 1287.21 157.149 1286.35 L157.149 1281.84 Q159.094 1282.97 161.408 1283.55 Q163.723 1284.13 166.246 1284.13 Q170.644 1284.13 172.936 1282.39 Q175.251 1280.66 175.251 1277.35 Q175.251 1274.29 173.098 1272.58 Q170.968 1270.84 167.149 1270.84 L163.121 1270.84 L163.121 1267 L167.334 1267 Q170.783 1267 172.612 1265.64 Q174.441 1264.25 174.441 1261.65 Q174.441 1258.99 172.543 1257.58 Q170.668 1256.14 167.149 1256.14 Q165.228 1256.14 163.029 1256.56 Q160.83 1256.98 158.191 1257.86 L158.191 1253.69 Q160.853 1252.95 163.168 1252.58 Q165.506 1252.21 167.566 1252.21 Q172.89 1252.21 175.992 1254.64 Q179.093 1257.05 179.093 1261.17 Q179.093 1264.04 177.45 1266.03 Q175.806 1268 172.774 1268.76 Z" fill="#000000" fill-rule="nonzero" fill-opacity="1" /><path clip-path="url(#clip020)" d="M198.769 1255.91 Q195.158 1255.91 193.329 1259.48 Q191.524 1263.02 191.524 1270.15 Q191.524 1277.26 193.329 1280.82 Q195.158 1284.36 198.769 1284.36 Q202.403 1284.36 204.209 1280.82 Q206.038 1277.26 206.038 1270.15 Q206.038 1263.02 204.209 1259.48 Q202.403 1255.91 198.769 1255.91 M198.769 1252.21 Q204.579 1252.21 207.635 1256.82 Q210.714 1261.4 210.714 1270.15 Q210.714 1278.88 207.635 1283.48 Q204.579 1288.07 198.769 1288.07 Q192.959 1288.07 189.88 1283.48 Q186.825 1278.88 186.825 1270.15 Q186.825 1261.4 189.88 1256.82 Q192.959 1252.21 198.769 1252.21 Z" fill="#000000" fill-rule="nonzero" fill-opacity="1" /><path clip-path="url(#clip020)" d="M228.931 1255.91 Q225.32 1255.91 223.491 1259.48 Q221.686 1263.02 221.686 1270.15 Q221.686 1277.26 223.491 1280.82 Q225.32 1284.36 228.931 1284.36 Q232.565 1284.36 234.371 1280.82 Q236.2 1277.26 236.2 1270.15 Q236.2 1263.02 234.371 1259.48 Q232.565 1255.91 228.931 1255.91 M228.931 1252.21 Q234.741 1252.21 237.797 1256.82 Q240.876 1261.4 240.876 1270.15 Q240.876 1278.88 237.797 1283.48 Q234.741 1288.07 228.931 1288.07 Q223.121 1288.07 220.042 1283.48 Q216.987 1278.88 216.987 1270.15 Q216.987 1261.4 220.042 1256.82 Q223.121 1252.21 228.931 1252.21 Z" fill="#000000" fill-rule="nonzero" fill-opacity="1" /><path clip-path="url(#clip020)" d="M118.839 1166.12 L148.515 1166.12 L148.515 1170.06 L118.839 1170.06 L118.839 1166.12 Z" fill="#000000" fill-rule="nonzero" fill-opacity="1" /><path clip-path="url(#clip020)" d="M162.635 1179.02 L178.955 1179.02 L178.955 1182.95 L157.01 1182.95 L157.01 1179.02 Q159.672 1176.26 164.256 1171.63 Q168.862 1166.98 170.043 1165.64 Q172.288 1163.11 173.168 1161.38 Q174.07 1159.62 174.07 1157.93 Q174.07 1155.17 172.126 1153.44 Q170.205 1151.7 167.103 1151.7 Q164.904 1151.7 162.45 1152.46 Q160.019 1153.23 157.242 1154.78 L157.242 1150.06 Q160.066 1148.92 162.519 1148.34 Q164.973 1147.77 167.01 1147.77 Q172.381 1147.77 175.575 1150.45 Q178.769 1153.14 178.769 1157.63 Q178.769 1159.76 177.959 1161.68 Q177.172 1163.58 175.066 1166.17 Q174.487 1166.84 171.385 1170.06 Q168.283 1173.25 162.635 1179.02 Z" fill="#000000" fill-rule="nonzero" fill-opacity="1" /><path clip-path="url(#clip020)" d="M188.816 1148.39 L207.172 1148.39 L207.172 1152.33 L193.098 1152.33 L193.098 1160.8 Q194.117 1160.45 195.135 1160.29 Q196.154 1160.1 197.172 1160.1 Q202.959 1160.1 206.339 1163.27 Q209.718 1166.45 209.718 1171.86 Q209.718 1177.44 206.246 1180.54 Q202.774 1183.62 196.454 1183.62 Q194.279 1183.62 192.01 1183.25 Q189.765 1182.88 187.357 1182.14 L187.357 1177.44 Q189.441 1178.58 191.663 1179.13 Q193.885 1179.69 196.362 1179.69 Q200.366 1179.69 202.704 1177.58 Q205.042 1175.47 205.042 1171.86 Q205.042 1168.25 202.704 1166.14 Q200.366 1164.04 196.362 1164.04 Q194.487 1164.04 192.612 1164.45 Q190.76 1164.87 188.816 1165.75 L188.816 1148.39 Z" fill="#000000" fill-rule="nonzero" fill-opacity="1" /><path clip-path="url(#clip020)" d="M228.931 1151.47 Q225.32 1151.47 223.491 1155.03 Q221.686 1158.58 221.686 1165.7 Q221.686 1172.81 223.491 1176.38 Q225.32 1179.92 228.931 1179.92 Q232.565 1179.92 234.371 1176.38 Q236.2 1172.81 236.2 1165.7 Q236.2 1158.58 234.371 1155.03 Q232.565 1151.47 228.931 1151.47 M228.931 1147.77 Q234.741 1147.77 237.797 1152.37 Q240.876 1156.95 240.876 1165.7 Q240.876 1174.43 237.797 1179.04 Q234.741 1183.62 228.931 1183.62 Q223.121 1183.62 220.042 1179.04 Q216.987 1174.43 216.987 1165.7 Q216.987 1156.95 220.042 1152.37 Q223.121 1147.77 228.931 1147.77 Z" fill="#000000" fill-rule="nonzero" fill-opacity="1" /><path clip-path="url(#clip020)" d="M118.839 1061.68 L148.515 1061.68 L148.515 1065.61 L118.839 1065.61 L118.839 1061.68 Z" fill="#000000" fill-rule="nonzero" fill-opacity="1" /><path clip-path="url(#clip020)" d="M162.635 1074.57 L178.955 1074.57 L178.955 1078.51 L157.01 1078.51 L157.01 1074.57 Q159.672 1071.82 164.256 1067.19 Q168.862 1062.53 170.043 1061.19 Q172.288 1058.67 173.168 1056.93 Q174.07 1055.17 174.07 1053.48 Q174.07 1050.73 172.126 1048.99 Q170.205 1047.26 167.103 1047.26 Q164.904 1047.26 162.45 1048.02 Q160.019 1048.78 157.242 1050.33 L157.242 1045.61 Q160.066 1044.48 162.519 1043.9 Q164.973 1043.32 167.01 1043.32 Q172.381 1043.32 175.575 1046.01 Q178.769 1048.69 178.769 1053.18 Q178.769 1055.31 177.959 1057.23 Q177.172 1059.13 175.066 1061.72 Q174.487 1062.39 171.385 1065.61 Q168.283 1068.81 162.635 1074.57 Z" fill="#000000" fill-rule="nonzero" fill-opacity="1" /><path clip-path="url(#clip020)" d="M198.769 1047.02 Q195.158 1047.02 193.329 1050.59 Q191.524 1054.13 191.524 1061.26 Q191.524 1068.37 193.329 1071.93 Q195.158 1075.47 198.769 1075.47 Q202.403 1075.47 204.209 1071.93 Q206.038 1068.37 206.038 1061.26 Q206.038 1054.13 204.209 1050.59 Q202.403 1047.02 198.769 1047.02 M198.769 1043.32 Q204.579 1043.32 207.635 1047.93 Q210.714 1052.51 210.714 1061.26 Q210.714 1069.99 207.635 1074.59 Q204.579 1079.18 198.769 1079.18 Q192.959 1079.18 189.88 1074.59 Q186.825 1069.99 186.825 1061.26 Q186.825 1052.51 189.88 1047.93 Q192.959 1043.32 198.769 1043.32 Z" fill="#000000" fill-rule="nonzero" fill-opacity="1" /><path clip-path="url(#clip020)" d="M228.931 1047.02 Q225.32 1047.02 223.491 1050.59 Q221.686 1054.13 221.686 1061.26 Q221.686 1068.37 223.491 1071.93 Q225.32 1075.47 228.931 1075.47 Q232.565 1075.47 234.371 1071.93 Q236.2 1068.37 236.2 1061.26 Q236.2 1054.13 234.371 1050.59 Q232.565 1047.02 228.931 1047.02 M228.931 1043.32 Q234.741 1043.32 237.797 1047.93 Q240.876 1052.51 240.876 1061.26 Q240.876 1069.99 237.797 1074.59 Q234.741 1079.18 228.931 1079.18 Q223.121 1079.18 220.042 1074.59 Q216.987 1069.99 216.987 1061.26 Q216.987 1052.51 220.042 1047.93 Q223.121 1043.32 228.931 1043.32 Z" fill="#000000" fill-rule="nonzero" fill-opacity="1" /><path clip-path="url(#clip020)" d="M118.839 957.233 L148.515 957.233 L148.515 961.168 L118.839 961.168 L118.839 957.233 Z" fill="#000000" fill-rule="nonzero" fill-opacity="1" /><path clip-path="url(#clip020)" d="M159.418 970.126 L167.056 970.126 L167.056 943.76 L158.746 945.427 L158.746 941.168 L167.01 939.501 L171.686 939.501 L171.686 970.126 L179.325 970.126 L179.325 974.061 L159.418 974.061 L159.418 970.126 Z" fill="#000000" fill-rule="nonzero" fill-opacity="1" /><path clip-path="url(#clip020)" d="M188.816 939.501 L207.172 939.501 L207.172 943.436 L193.098 943.436 L193.098 951.909 Q194.117 951.561 195.135 951.399 Q196.154 951.214 197.172 951.214 Q202.959 951.214 206.339 954.385 Q209.718 957.557 209.718 962.973 Q209.718 968.552 206.246 971.654 Q202.774 974.733 196.454 974.733 Q194.279 974.733 192.01 974.362 Q189.765 973.992 187.357 973.251 L187.357 968.552 Q189.441 969.686 191.663 970.242 Q193.885 970.797 196.362 970.797 Q200.366 970.797 202.704 968.691 Q205.042 966.584 205.042 962.973 Q205.042 959.362 202.704 957.256 Q200.366 955.149 196.362 955.149 Q194.487 955.149 192.612 955.566 Q190.76 955.983 188.816 956.862 L188.816 939.501 Z" fill="#000000" fill-rule="nonzero" fill-opacity="1" /><path clip-path="url(#clip020)" d="M228.931 942.58 Q225.32 942.58 223.491 946.145 Q221.686 949.686 221.686 956.816 Q221.686 963.922 223.491 967.487 Q225.32 971.029 228.931 971.029 Q232.565 971.029 234.371 967.487 Q236.2 963.922 236.2 956.816 Q236.2 949.686 234.371 946.145 Q232.565 942.58 228.931 942.58 M228.931 938.876 Q234.741 938.876 237.797 943.483 Q240.876 948.066 240.876 956.816 Q240.876 965.543 237.797 970.149 Q234.741 974.733 228.931 974.733 Q223.121 974.733 220.042 970.149 Q216.987 965.543 216.987 956.816 Q216.987 948.066 220.042 943.483 Q223.121 938.876 228.931 938.876 Z" fill="#000000" fill-rule="nonzero" fill-opacity="1" /><path clip-path="url(#clip020)" d="M118.839 852.788 L148.515 852.788 L148.515 856.723 L118.839 856.723 L118.839 852.788 Z" fill="#000000" fill-rule="nonzero" fill-opacity="1" /><path clip-path="url(#clip020)" d="M159.418 865.682 L167.056 865.682 L167.056 839.316 L158.746 840.983 L158.746 836.723 L167.01 835.057 L171.686 835.057 L171.686 865.682 L179.325 865.682 L179.325 869.617 L159.418 869.617 L159.418 865.682 Z" fill="#000000" fill-rule="nonzero" fill-opacity="1" /><path clip-path="url(#clip020)" d="M198.769 838.135 Q195.158 838.135 193.329 841.7 Q191.524 845.242 191.524 852.371 Q191.524 859.478 193.329 863.043 Q195.158 866.584 198.769 866.584 Q202.403 866.584 204.209 863.043 Q206.038 859.478 206.038 852.371 Q206.038 845.242 204.209 841.7 Q202.403 838.135 198.769 838.135 M198.769 834.432 Q204.579 834.432 207.635 839.038 Q210.714 843.622 210.714 852.371 Q210.714 861.098 207.635 865.705 Q204.579 870.288 198.769 870.288 Q192.959 870.288 189.88 865.705 Q186.825 861.098 186.825 852.371 Q186.825 843.622 189.88 839.038 Q192.959 834.432 198.769 834.432 Z" fill="#000000" fill-rule="nonzero" fill-opacity="1" /><path clip-path="url(#clip020)" d="M228.931 838.135 Q225.32 838.135 223.491 841.7 Q221.686 845.242 221.686 852.371 Q221.686 859.478 223.491 863.043 Q225.32 866.584 228.931 866.584 Q232.565 866.584 234.371 863.043 Q236.2 859.478 236.2 852.371 Q236.2 845.242 234.371 841.7 Q232.565 838.135 228.931 838.135 M228.931 834.432 Q234.741 834.432 237.797 839.038 Q240.876 843.622 240.876 852.371 Q240.876 861.098 237.797 865.705 Q234.741 870.288 228.931 870.288 Q223.121 870.288 220.042 865.705 Q216.987 861.098 216.987 852.371 Q216.987 843.622 220.042 839.038 Q223.121 834.432 228.931 834.432 Z" fill="#000000" fill-rule="nonzero" fill-opacity="1" /><path clip-path="url(#clip020)" d="M26.3467 1295.36 L44.2025 1295.36 L44.2025 1287.28 Q44.2025 1282.79 41.879 1280.34 Q39.5555 1277.89 35.2587 1277.89 Q30.9936 1277.89 28.6701 1280.34 Q26.3467 1282.79 26.3467 1287.28 L26.3467 1295.36 M21.0631 1301.79 L21.0631 1287.28 Q21.0631 1279.29 24.6916 1275.21 Q28.2882 1271.11 35.2587 1271.11 Q42.2928 1271.11 45.8894 1275.21 Q49.486 1279.29 49.486 1287.28 L49.486 1295.36 L68.5831 1295.36 L68.5831 1301.79 L21.0631 1301.79 Z" fill="#000000" fill-rule="nonzero" fill-opacity="1" /><path clip-path="url(#clip020)" d="M47.067 1233.1 L68.5831 1233.1 L68.5831 1238.96 L47.258 1238.96 Q42.1973 1238.96 39.6828 1240.93 Q37.1684 1242.91 37.1684 1246.85 Q37.1684 1251.6 40.1921 1254.33 Q43.2158 1257.07 48.4357 1257.07 L68.5831 1257.07 L68.5831 1262.96 L19.0579 1262.96 L19.0579 1257.07 L38.4733 1257.07 Q35.2587 1254.97 33.6672 1252.14 Q32.0758 1249.27 32.0758 1245.55 Q32.0758 1239.41 35.8952 1236.25 Q39.6828 1233.1 47.067 1233.1 Z" fill="#000000" fill-rule="nonzero" fill-opacity="1" /><path clip-path="url(#clip020)" d="M50.6637 1205.22 Q50.6637 1212.32 52.2869 1215.06 Q53.9102 1217.79 57.8251 1217.79 Q60.9443 1217.79 62.7903 1215.76 Q64.6046 1213.69 64.6046 1210.16 Q64.6046 1205.29 61.1671 1202.36 Q57.6978 1199.4 51.9686 1199.4 L50.6637 1199.4 L50.6637 1205.22 M48.2447 1193.54 L68.5831 1193.54 L68.5831 1199.4 L63.1723 1199.4 Q66.4188 1201.4 67.9784 1204.39 Q69.5062 1207.39 69.5062 1211.71 Q69.5062 1217.19 66.4506 1220.44 Q63.3632 1223.65 58.207 1223.65 Q52.1914 1223.65 49.1359 1219.64 Q46.0804 1215.6 46.0804 1207.61 L46.0804 1199.4 L45.5074 1199.4 Q41.4652 1199.4 39.269 1202.07 Q37.041 1204.71 37.041 1209.52 Q37.041 1212.57 37.7731 1215.47 Q38.5052 1218.37 39.9693 1221.04 L34.5584 1221.04 Q33.3171 1217.83 32.7124 1214.8 Q32.0758 1211.78 32.0758 1208.91 Q32.0758 1201.18 36.0862 1197.36 Q40.0966 1193.54 48.2447 1193.54 Z" fill="#000000" fill-rule="nonzero" fill-opacity="1" /><path clip-path="url(#clip020)" d="M33.9855 1158.75 L39.5237 1158.75 Q38.2505 1161.23 37.614 1163.91 Q36.9774 1166.58 36.9774 1169.45 Q36.9774 1173.81 38.3142 1176 Q39.651 1178.17 42.3246 1178.17 Q44.3616 1178.17 45.5393 1176.61 Q46.6851 1175.05 47.7354 1170.34 L48.181 1168.33 Q49.5178 1162.09 51.9686 1159.48 Q54.3876 1156.84 58.7481 1156.84 Q63.7134 1156.84 66.6098 1160.79 Q69.5062 1164.7 69.5062 1171.58 Q69.5062 1174.44 68.9332 1177.56 Q68.3922 1180.65 67.2782 1184.09 L61.2307 1184.09 Q62.9176 1180.84 63.777 1177.69 Q64.6046 1174.54 64.6046 1171.45 Q64.6046 1167.31 63.2041 1165.09 Q61.7718 1162.86 59.1937 1162.86 Q56.8066 1162.86 55.5334 1164.48 Q54.2603 1166.07 53.0826 1171.52 L52.6052 1173.55 Q51.4594 1179 49.1041 1181.41 Q46.7169 1183.83 42.5792 1183.83 Q37.5503 1183.83 34.8131 1180.27 Q32.0758 1176.7 32.0758 1170.15 Q32.0758 1166.9 32.5532 1164.04 Q33.0307 1161.17 33.9855 1158.75 Z" fill="#000000" fill-rule="nonzero" fill-opacity="1" /><path clip-path="url(#clip020)" d="M49.295 1117.03 L52.1596 1117.03 L52.1596 1143.95 Q58.207 1143.57 61.3899 1140.32 Q64.5409 1137.05 64.5409 1131.22 Q64.5409 1127.85 63.7134 1124.7 Q62.8858 1121.51 61.2307 1118.39 L66.7689 1118.39 Q68.1057 1121.54 68.8059 1124.85 Q69.5062 1128.17 69.5062 1131.57 Q69.5062 1140.1 64.5409 1145.1 Q59.5757 1150.06 51.1093 1150.06 Q42.3564 1150.06 37.232 1145.35 Q32.0758 1140.61 32.0758 1132.59 Q32.0758 1125.4 36.7228 1121.23 Q41.3379 1117.03 49.295 1117.03 M47.5763 1122.88 Q42.7702 1122.95 39.9056 1125.59 Q37.041 1128.2 37.041 1132.53 Q37.041 1137.43 39.8101 1140.39 Q42.5792 1143.32 47.6081 1143.76 L47.5763 1122.88 Z" fill="#000000" fill-rule="nonzero" fill-opacity="1" /><path clip-path="url(#clip020)" d="M19.1216 1072.62 Q26.4421 1076.89 33.6036 1078.96 Q40.765 1081.03 48.1174 1081.03 Q55.4698 1081.03 62.6948 1078.96 Q69.8881 1076.86 77.1768 1072.62 L77.1768 1077.72 Q69.6971 1082.49 62.472 1084.88 Q55.247 1087.23 48.1174 1087.23 Q41.0196 1087.23 33.8264 1084.88 Q26.6331 1082.52 19.1216 1077.72 L19.1216 1072.62 Z" fill="#000000" fill-rule="nonzero" fill-opacity="1" /><path clip-path="url(#clip020)" d="M38.346 1037.8 L19.0579 1037.8 L19.0579 1031.95 L68.5831 1031.95 L68.5831 1037.8 L63.2359 1037.8 Q66.4188 1039.65 67.9784 1042.48 Q69.5062 1045.28 69.5062 1049.23 Q69.5062 1055.69 64.3499 1059.77 Q59.1937 1063.81 50.791 1063.81 Q42.3882 1063.81 37.232 1059.77 Q32.0758 1055.69 32.0758 1049.23 Q32.0758 1045.28 33.6354 1042.48 Q35.1632 1039.65 38.346 1037.8 M50.791 1057.76 Q57.2522 1057.76 60.9443 1055.12 Q64.6046 1052.44 64.6046 1047.8 Q64.6046 1043.15 60.9443 1040.48 Q57.2522 1037.8 50.791 1037.8 Q44.3298 1037.8 40.6695 1040.48 Q36.9774 1043.15 36.9774 1047.8 Q36.9774 1052.44 40.6695 1055.12 Q44.3298 1057.76 50.791 1057.76 Z" fill="#000000" fill-rule="nonzero" fill-opacity="1" /><path clip-path="url(#clip020)" d="M49.295 989.393 L52.1596 989.393 L52.1596 1016.32 Q58.207 1015.94 61.3899 1012.69 Q64.5409 1009.41 64.5409 1003.59 Q64.5409 1000.21 63.7134 997.063 Q62.8858 993.88 61.2307 990.761 L66.7689 990.761 Q68.1057 993.912 68.8059 997.222 Q69.5062 1000.53 69.5062 1003.94 Q69.5062 1012.47 64.5409 1017.47 Q59.5757 1022.43 51.1093 1022.43 Q42.3564 1022.43 37.232 1017.72 Q32.0758 1012.98 32.0758 1004.96 Q32.0758 997.764 36.7228 993.594 Q41.3379 989.393 49.295 989.393 M47.5763 995.249 Q42.7702 995.313 39.9056 997.954 Q37.041 1000.56 37.041 1004.89 Q37.041 1009.79 39.8101 1012.75 Q42.5792 1015.68 47.6081 1016.13 L47.5763 995.249 Z" fill="#000000" fill-rule="nonzero" fill-opacity="1" /><path clip-path="url(#clip020)" d="M50.3454 956.323 Q43.9797 956.323 40.4785 958.965 Q36.9774 961.574 36.9774 966.317 Q36.9774 971.028 40.4785 973.669 Q43.9797 976.279 50.3454 976.279 Q56.6793 976.279 60.1804 973.669 Q63.6815 971.028 63.6815 966.317 Q63.6815 961.574 60.1804 958.965 Q56.6793 956.323 50.3454 956.323 M64.159 950.466 Q73.2619 950.466 77.6861 954.509 Q82.1421 958.551 82.1421 966.89 Q82.1421 969.977 81.6647 972.714 Q81.2191 975.452 80.2642 978.03 L74.5669 978.03 Q75.9673 975.452 76.6357 972.937 Q77.3041 970.423 77.3041 967.813 Q77.3041 962.052 74.2804 959.187 Q71.2886 956.323 65.2093 956.323 L62.3129 956.323 Q65.4639 958.137 67.0235 960.97 Q68.5831 963.802 68.5831 967.749 Q68.5831 974.306 63.586 978.316 Q58.589 982.327 50.3454 982.327 Q42.07 982.327 37.0729 978.316 Q32.0758 974.306 32.0758 967.749 Q32.0758 963.802 33.6354 960.97 Q35.195 958.137 38.346 956.323 L32.9352 956.323 L32.9352 950.466 L64.159 950.466 Z" fill="#000000" fill-rule="nonzero" fill-opacity="1" /><path clip-path="url(#clip020)" d="M19.1216 939.326 L19.1216 934.234 Q26.6331 929.459 33.8264 927.104 Q41.0196 924.717 48.1174 924.717 Q55.247 924.717 62.472 927.104 Q69.6971 929.459 77.1768 934.234 L77.1768 939.326 Q69.8881 935.093 62.6948 933.024 Q55.4698 930.924 48.1174 930.924 Q40.765 930.924 33.6036 933.024 Q26.4421 935.093 19.1216 939.326 Z" fill="#000000" fill-rule="nonzero" fill-opacity="1" /><polyline clip-path="url(#clip023)" style="stroke:#009af9; stroke-linecap:round; stroke-linejoin:round; stroke-width:4; stroke-opacity:1; fill:none" points="335.627,832.458 340.301,832.507 344.975,832.557 349.649,832.609 354.323,832.663 358.997,832.718 363.67,832.776 368.344,832.835 373.018,832.897 377.692,832.96 382.366,833.026 387.04,833.094 391.714,833.165 396.388,833.238 401.062,833.314 405.736,833.392 410.41,833.473 415.084,833.558 419.758,833.645 424.432,833.736 429.105,833.83 433.779,833.928 438.453,834.029 443.127,834.134 447.801,834.244 452.475,834.357 457.149,834.474 461.823,834.596 466.497,834.723 471.171,834.855 475.845,834.991 480.519,835.133 485.193,835.28 489.867,835.433 494.541,835.592 499.214,835.756 503.888,835.928 508.562,836.105 513.236,836.29 517.91,836.482 522.584,836.681 527.258,836.888 531.932,837.103 536.606,837.326 541.28,837.558 545.954,837.798 550.628,838.049 555.302,838.308 559.976,838.578 564.65,838.858 569.323,839.149 573.997,839.452 578.671,839.766 583.345,840.092 588.019,840.431 592.693,840.782 597.367,841.148 602.041,841.527 606.715,841.921 611.389,842.33 616.063,842.755 620.737,843.196 625.411,843.654 630.085,844.129 634.759,844.623 639.432,845.135 644.106,845.666 648.78,846.218 653.454,846.791 658.128,847.385 662.802,848.001 667.476,848.641 672.15,849.304 676.824,849.992 681.498,850.705 686.172,851.444 690.846,852.211 695.52,853.005 700.194,853.828 704.868,854.68 709.541,855.563 714.215,856.478 718.889,857.424 723.563,858.403 728.237,859.416 732.911,860.463 737.585,861.546 742.259,862.665 746.933,863.821 751.607,865.014 756.281,866.245 760.955,867.514 765.629,868.823 770.303,870.172 774.976,871.56 779.65,872.988 784.324,874.457 788.998,875.966 793.672,877.515 798.346,879.103 803.02,880.732 807.694,882.399 812.368,884.104 817.042,885.847 821.716,887.625 826.39,889.439 831.064,891.286 835.738,893.164 840.412,895.072 845.085,897.008 849.759,898.969 854.433,900.953 859.107,902.956 863.781,904.977 868.455,907.012 873.129,909.058 877.803,911.111 882.477,913.167 887.151,915.225 891.825,917.278 896.499,919.325 901.173,921.361 905.847,923.382 910.521,925.385 915.194,927.365 919.868,929.32 924.542,931.245 929.216,933.138 933.89,934.995 938.564,936.812 943.238,938.587 947.912,940.316 952.586,941.998 957.26,943.629 961.934,945.208 966.608,946.731 971.282,948.198 975.956,949.606 980.63,950.953 985.303,952.239 989.977,953.462 994.651,954.621 999.325,955.714 1004,956.741 1008.67,957.701 1013.35,958.594 1018.02,959.419 1022.69,960.175 1027.37,960.863 1032.04,961.481 1036.72,962.03 1041.39,962.51 1046.06,962.92 1050.74,963.26 1055.41,963.531 1060.09,963.732 1064.76,963.864 1069.43,963.926 1074.11,963.919 1078.78,963.843 1083.46,963.699 1088.13,963.486 1092.8,963.204 1097.48,962.855 1102.15,962.439 1106.83,961.956 1111.5,961.407 1116.17,960.792 1120.85,960.112 1125.52,959.369 1130.2,958.562 1134.87,957.694 1139.54,956.765 1144.22,955.776 1148.89,954.73 1153.57,953.628 1158.24,952.471 1162.91,951.261 1167.59,950.002 1172.26,948.694 1176.93,947.342 1181.61,945.947 1186.28,944.512 1190.96,943.04 1195.63,941.536 1200.3,940.001 1204.98,938.441 1209.65,936.859 1214.33,935.258 1219,933.643 1223.67,932.018 1228.35,930.387 1233.02,928.755 1237.7,927.126 1242.37,925.504 1247.04,923.893 1251.72,922.299 1256.39,920.725 1261.07,919.176 1265.74,917.655 1270.41,916.166 1275.09,914.714 1279.76,913.302 1284.44,911.934 1289.11,910.613 1293.78,909.342 1298.46,908.124 1303.13,906.962 1307.8,905.859 1312.48,904.817 1317.15,903.839 1321.83,902.927 1326.5,902.083 1331.17,901.308 1335.85,900.605 1340.52,899.975 1345.2,899.419 1349.87,898.94 1354.54,898.538 1359.22,898.215 1363.89,897.972 1368.57,897.809 1373.24,897.73 1377.91,897.733 1382.59,897.821 1387.26,897.994 1391.94,898.254 1396.61,898.602 1401.28,899.038 1405.96,899.565 1410.63,900.183 1415.31,900.894 1419.98,901.699 1424.65,902.6 1429.33,903.598 1434,904.695 1438.67,905.893 1443.35,907.194 1448.02,908.6 1452.7,910.113 1457.37,911.737 1462.04,913.473 1466.72,915.325 1471.39,917.297 1476.07,919.392 1480.74,921.613 1485.41,923.966 1490.09,926.455 1494.76,929.085 1499.44,931.862 1504.11,934.793 1508.78,937.882 1513.46,941.138 1518.13,944.569 1522.81,948.181 1527.48,951.984 1532.15,955.987 1536.83,960.199 1541.5,964.629 1546.18,969.288 1550.85,974.185 1555.52,979.33 1560.2,984.732 1564.87,990.398 1569.55,996.338 1574.22,1002.55 1578.89,1009.05 1583.57,1015.83 1588.24,1022.89 1592.91,1030.22 1597.59,1037.82 1602.26,1045.66 1606.94,1053.73 1611.61,1062 1616.28,1070.45 1620.96,1079.03 1625.63,1087.72 1630.31,1096.47 1634.98,1105.24 1639.65,1114 1644.33,1122.71 1649,1131.33 1653.68,1139.84 1658.35,1148.2 1663.02,1156.39 1667.7,1164.39 1672.37,1172.2 1677.05,1179.8 1681.72,1187.19 1686.39,1194.36 1691.07,1201.31 1695.74,1208.04 1700.42,1214.56 1705.09,1220.87 1709.76,1226.97 1714.44,1232.87 1719.11,1238.58 1723.78,1244.1 1728.46,1249.44 1733.13,1254.6 1737.81,1259.59 1742.48,1264.41 1747.15,1269.07 1751.83,1273.58 1756.5,1277.94 1761.18,1282.15 1765.85,1286.21 1770.52,1290.15 1775.2,1293.94 1779.87,1297.62 1784.55,1301.16 1789.22,1304.58 1793.89,1307.89 1798.57,1311.08 1803.24,1314.17 1807.92,1317.14 1812.59,1320.01 1817.26,1322.78 1821.94,1325.46 1826.61,1328.04 1831.29,1330.53 1835.96,1332.92 1840.63,1335.24 1845.31,1337.47 1849.98,1339.62 1854.65,1341.69 1859.33,1343.69 1864,1345.62 1868.68,1347.48 1873.35,1349.26 1878.02,1350.99 1882.7,1352.65 1887.37,1354.25 1892.05,1355.79 1896.72,1357.27 1901.39,1358.7 1906.07,1360.08 1910.74,1361.41 1915.42,1362.68 1920.09,1363.91 1924.76,1365.1 1929.44,1366.23 1934.11,1367.33 1938.79,1368.39 1943.46,1369.41 1948.13,1370.38 1952.81,1371.33 1957.48,1372.23 1962.16,1373.11 1966.83,1373.95 1971.5,1374.76 1976.18,1375.54 1980.85,1376.29 1985.53,1377.01 1990.2,1377.7 1994.87,1378.37 1999.55,1379.02 2004.22,1379.63 2008.89,1380.23 2013.57,1380.8 2018.24,1381.36 2022.92,1381.89 2027.59,1382.4 2032.26,1382.89 2036.94,1383.36 2041.61,1383.82 2046.29,1384.26 2050.96,1384.68 2055.63,1385.09 2060.31,1385.48 2064.98,1385.85 2069.66,1386.21 2074.33,1386.56 2079,1386.9 2083.68,1387.22 2088.35,1387.53 2093.03,1387.83 2097.7,1388.12 2102.37,1388.39 2107.05,1388.66 2111.72,1388.92 2116.4,1389.16 2121.07,1389.4 2125.74,1389.63 2130.42,1389.85 2135.09,1390.06 2139.76,1390.26 2144.44,1390.46 2149.11,1390.65 2153.79,1390.83 2158.46,1391 2163.13,1391.17 2167.81,1391.33 2172.48,1391.49 2177.16,1391.64 2181.83,1391.78 2186.5,1391.92 2191.18,1392.05 2195.85,1392.18 2200.53,1392.3 2205.2,1392.42 2209.87,1392.54 2214.55,1392.65 2219.22,1392.75 2223.9,1392.85 2228.57,1392.95 2233.24,1393.05 2237.92,1393.14 2242.59,1393.22 2247.27,1393.31 2251.94,1393.39 2256.61,1393.47 2261.29,1393.54 2265.96,1393.61 2270.63,1393.68 2275.31,1393.75 2279.98,1393.81 2284.66,1393.87 2289.33,1393.93 2294,1393.99 "/>
<polyline clip-path="url(#clip023)" style="stroke:#e26f46; stroke-linecap:round; stroke-linejoin:round; stroke-width:4; stroke-opacity:1; fill:none" points="335.627,832.467 340.301,832.517 344.975,832.567 349.649,832.62 354.323,832.674 358.997,832.73 363.67,832.788 368.344,832.848 373.018,832.91 377.692,832.974 382.366,833.04 387.04,833.109 391.714,833.18 396.388,833.254 401.062,833.33 405.736,833.409 410.41,833.491 415.084,833.576 419.758,833.665 424.432,833.756 429.105,833.851 433.779,833.95 438.453,834.052 443.127,834.158 447.801,834.268 452.475,834.382 457.149,834.501 461.823,834.624 466.497,834.751 471.171,834.884 475.845,835.022 480.519,835.165 485.193,835.313 489.867,835.467 494.541,835.627 499.214,835.793 503.888,835.966 508.562,836.145 513.236,836.332 517.91,836.525 522.584,836.726 527.258,836.934 531.932,837.151 536.606,837.376 541.28,837.61 545.954,837.853 550.628,838.105 555.302,838.367 559.976,838.639 564.65,838.922 569.323,839.215 573.997,839.52 578.671,839.837 583.345,840.166 588.019,840.507 592.693,840.862 597.367,841.231 602.041,841.613 606.715,842.011 611.389,842.423 616.063,842.852 620.737,843.296 625.411,843.758 630.085,844.238 634.759,844.735 639.432,845.252 644.106,845.788 648.78,846.345 653.454,846.922 658.128,847.522 662.802,848.143 667.476,848.788 672.15,849.457 676.824,850.151 681.498,850.87 686.172,851.616 690.846,852.39 695.52,853.191 700.194,854.021 704.868,854.881 709.541,855.772 714.215,856.694 718.889,857.649 723.563,858.637 728.237,859.659 732.911,860.716 737.585,861.809 742.259,862.938 746.933,864.104 751.607,865.309 756.281,866.551 760.955,867.833 765.629,869.154 770.303,870.516 774.976,871.917 779.65,873.36 784.324,874.843 788.998,876.367 793.672,877.931 798.346,879.536 803.02,881.182 807.694,882.866 812.368,884.59 817.042,886.352 821.716,888.15 826.39,889.984 831.064,891.852 835.738,893.753 840.412,895.684 845.085,897.643 849.759,899.629 854.433,901.639 859.107,903.669 863.781,905.718 868.455,907.782 873.129,909.857 877.803,911.941 882.477,914.031 887.151,916.122 891.825,918.21 896.499,920.293 901.173,922.367 905.847,924.427 910.521,926.47 915.194,928.492 919.868,930.491 924.542,932.462 929.216,934.401 933.89,936.306 938.564,938.174 943.238,940.001 947.912,941.785 952.586,943.523 957.26,945.213 961.934,946.852 966.608,948.438 971.282,949.97 975.956,951.445 980.63,952.863 985.303,954.221 989.977,955.518 994.651,956.754 999.325,957.927 1004,959.036 1008.67,960.082 1013.35,961.062 1018.02,961.978 1022.69,962.828 1027.37,963.612 1032.04,964.329 1036.72,964.98 1041.39,965.565 1046.06,966.083 1050.74,966.534 1055.41,966.918 1060.09,967.236 1064.76,967.486 1069.43,967.67 1074.11,967.787 1078.78,967.838 1083.46,967.822 1088.13,967.739 1092.8,967.59 1097.48,967.374 1102.15,967.092 1106.83,966.744 1111.5,966.33 1116.17,965.85 1120.85,965.305 1125.52,964.695 1130.2,964.019 1134.87,963.28 1139.54,962.476 1144.22,961.608 1148.89,960.678 1153.57,959.686 1158.24,958.632 1162.91,957.518 1167.59,956.345 1172.26,955.114 1176.93,953.826 1181.61,952.484 1186.28,951.088 1190.96,949.64 1195.63,948.144 1200.3,946.601 1204.98,945.013 1209.65,943.384 1214.33,941.716 1219,940.012 1223.67,938.276 1228.35,936.512 1233.02,934.722 1237.7,932.911 1242.37,931.082 1247.04,929.24 1251.72,927.39 1256.39,925.534 1261.07,923.678 1265.74,921.827 1270.41,919.984 1275.09,918.155 1279.76,916.343 1284.44,914.553 1289.11,912.791 1293.78,911.059 1298.46,909.363 1303.13,907.706 1307.8,906.094 1312.48,904.53 1317.15,903.019 1321.83,901.563 1326.5,900.169 1331.17,898.838 1335.85,897.576 1340.52,896.386 1345.2,895.272 1349.87,894.238 1354.54,893.288 1359.22,892.425 1363.89,891.654 1368.57,890.978 1373.24,890.402 1377.91,889.93 1382.59,889.565 1387.26,889.313 1391.94,889.178 1396.61,889.163 1401.28,889.275 1405.96,889.516 1410.63,889.892 1415.31,890.407 1419.98,891.066 1424.65,891.874 1429.33,892.835 1434,893.954 1438.67,895.235 1443.35,896.681 1448.02,898.298 1452.7,900.088 1457.37,902.056 1462.04,904.203 1466.72,906.534 1471.39,909.05 1476.07,911.754 1480.74,914.647 1485.41,917.729 1490.09,921.003 1494.76,924.467 1499.44,928.123 1504.11,931.968 1508.78,936.003 1513.46,940.225 1518.13,944.633 1522.81,949.225 1527.48,953.999 1532.15,958.951 1536.83,964.079 1541.5,969.379 1546.18,974.849 1550.85,980.485 1555.52,986.284 1560.2,992.242 1564.87,998.355 1569.55,1004.62 1574.22,1011.03 1578.89,1017.59 1583.57,1024.28 1588.24,1031.11 1592.91,1038.07 1597.59,1045.16 1602.26,1052.36 1606.94,1059.67 1611.61,1067.09 1616.28,1074.6 1620.96,1082.19 1625.63,1089.86 1630.31,1097.59 1634.98,1105.37 1639.65,1113.18 1644.33,1121.01 1649,1128.85 1653.68,1136.67 1658.35,1144.45 1663.02,1152.19 1667.7,1159.86 1672.37,1167.45 1677.05,1174.94 1681.72,1182.31 1686.39,1189.56 1691.07,1196.66 1695.74,1203.61 1700.42,1210.4 1705.09,1217.02 1709.76,1223.46 1714.44,1229.73 1719.11,1235.8 1723.78,1241.7 1728.46,1247.4 1733.13,1252.92 1737.81,1258.26 1742.48,1263.41 1747.15,1268.38 1751.83,1273.18 1756.5,1277.8 1761.18,1282.26 1765.85,1286.55 1770.52,1290.69 1775.2,1294.67 1779.87,1298.5 1784.55,1302.18 1789.22,1305.73 1793.89,1309.14 1798.57,1312.42 1803.24,1315.58 1807.92,1318.62 1812.59,1321.54 1817.26,1324.35 1821.94,1327.05 1826.61,1329.65 1831.29,1332.14 1835.96,1334.55 1840.63,1336.86 1845.31,1339.08 1849.98,1341.22 1854.65,1343.28 1859.33,1345.25 1864,1347.16 1868.68,1348.99 1873.35,1350.75 1878.02,1352.44 1882.7,1354.07 1887.37,1355.63 1892.05,1357.14 1896.72,1358.59 1901.39,1359.99 1906.07,1361.33 1910.74,1362.62 1915.42,1363.86 1920.09,1365.05 1924.76,1366.2 1929.44,1367.31 1934.11,1368.37 1938.79,1369.39 1943.46,1370.38 1948.13,1371.33 1952.81,1372.24 1957.48,1373.11 1962.16,1373.96 1966.83,1374.77 1971.5,1375.55 1976.18,1376.3 1980.85,1377.03 1985.53,1377.72 1990.2,1378.39 1994.87,1379.03 1999.55,1379.65 2004.22,1380.25 2008.89,1380.82 2013.57,1381.38 2018.24,1381.91 2022.92,1382.42 2027.59,1382.91 2032.26,1383.38 2036.94,1383.84 2041.61,1384.28 2046.29,1384.7 2050.96,1385.11 2055.63,1385.5 2060.31,1385.87 2064.98,1386.23 2069.66,1386.58 2074.33,1386.92 2079,1387.24 2083.68,1387.55 2088.35,1387.85 2093.03,1388.13 2097.7,1388.41 2102.37,1388.67 2107.05,1388.93 2111.72,1389.18 2116.4,1389.41 2121.07,1389.64 2125.74,1389.86 2130.42,1390.07 2135.09,1390.27 2139.76,1390.47 2144.44,1390.66 2149.11,1390.84 2153.79,1391.01 2158.46,1391.18 2163.13,1391.34 2167.81,1391.49 2172.48,1391.64 2177.16,1391.79 2181.83,1391.93 2186.5,1392.06 2191.18,1392.19 2195.85,1392.31 2200.53,1392.43 2205.2,1392.54 2209.87,1392.65 2214.55,1392.76 2219.22,1392.86 2223.9,1392.96 2228.57,1393.05 2233.24,1393.14 2237.92,1393.23 2242.59,1393.31 2247.27,1393.39 2251.94,1393.47 2256.61,1393.54 2261.29,1393.62 2265.96,1393.69 2270.63,1393.75 2275.31,1393.82 2279.98,1393.88 2284.66,1393.94 2289.33,1393.99 2294,1394.05 "/>
</svg>
