<?xml version="1.0" encoding="utf-8"?>
<svg xmlns="http://www.w3.org/2000/svg" xmlns:xlink="http://www.w3.org/1999/xlink" width="600" height="400" viewBox="0 0 2400 1600">
<defs>
  <clipPath id="clip310">
    <rect x="0" y="0" width="2400" height="1600"/>
  </clipPath>
</defs>
<path clip-path="url(#clip310)" d="M0 1600 L2400 1600 L2400 0 L0 0  Z" fill="#ffffff" fill-rule="evenodd" fill-opacity="1"/>
<defs>
  <clipPath id="clip311">
    <rect x="480" y="0" width="1681" height="1600"/>
  </clipPath>
</defs>
<path clip-path="url(#clip310)" d="M211.325 1486.45 L2352.76 1486.45 L2352.76 123.472 L211.325 123.472  Z" fill="#ffffff" fill-rule="evenodd" fill-opacity="1"/>
<defs>
  <clipPath id="clip312">
    <rect x="211" y="123" width="2142" height="1364"/>
  </clipPath>
</defs>
<polyline clip-path="url(#clip312)" style="stroke:#000000; stroke-linecap:round; stroke-linejoin:round; stroke-width:2; stroke-opacity:0.1; fill:none" points="212.014,1486.45 212.014,123.472 "/>
<polyline clip-path="url(#clip312)" style="stroke:#000000; stroke-linecap:round; stroke-linejoin:round; stroke-width:2; stroke-opacity:0.1; fill:none" points="657.055,1486.45 657.055,123.472 "/>
<polyline clip-path="url(#clip312)" style="stroke:#000000; stroke-linecap:round; stroke-linejoin:round; stroke-width:2; stroke-opacity:0.1; fill:none" points="1102.1,1486.45 1102.1,123.472 "/>
<polyline clip-path="url(#clip312)" style="stroke:#000000; stroke-linecap:round; stroke-linejoin:round; stroke-width:2; stroke-opacity:0.1; fill:none" points="1547.14,1486.45 1547.14,123.472 "/>
<polyline clip-path="url(#clip312)" style="stroke:#000000; stroke-linecap:round; stroke-linejoin:round; stroke-width:2; stroke-opacity:0.1; fill:none" points="1992.18,1486.45 1992.18,123.472 "/>
<polyline clip-path="url(#clip310)" style="stroke:#000000; stroke-linecap:round; stroke-linejoin:round; stroke-width:4; stroke-opacity:1; fill:none" points="211.325,425.277 2352.76,425.277 "/>
<polyline clip-path="url(#clip310)" style="stroke:#000000; stroke-linecap:round; stroke-linejoin:round; stroke-width:4; stroke-opacity:0; fill:none" points="212.014,425.277 212.014,425.277 "/>
<polyline clip-path="url(#clip310)" style="stroke:#000000; stroke-linecap:round; stroke-linejoin:round; stroke-width:4; stroke-opacity:0; fill:none" points="657.055,425.277 657.055,425.277 "/>
<polyline clip-path="url(#clip310)" style="stroke:#000000; stroke-linecap:round; stroke-linejoin:round; stroke-width:4; stroke-opacity:0; fill:none" points="1102.1,425.277 1102.1,425.277 "/>
<polyline clip-path="url(#clip310)" style="stroke:#000000; stroke-linecap:round; stroke-linejoin:round; stroke-width:4; stroke-opacity:0; fill:none" points="1547.14,425.277 1547.14,425.277 "/>
<polyline clip-path="url(#clip310)" style="stroke:#000000; stroke-linecap:round; stroke-linejoin:round; stroke-width:4; stroke-opacity:0; fill:none" points="1992.18,425.277 1992.18,425.277 "/>
<path clip-path="url(#clip310)" d="M181.957 1532.02 L211.632 1532.02 L211.632 1535.95 L181.957 1535.95 L181.957 1532.02 Z" fill="#000000" fill-rule="nonzero" fill-opacity="1" /><path clip-path="url(#clip310)" d="M225.753 1544.91 L242.072 1544.91 L242.072 1548.85 L220.128 1548.85 L220.128 1544.91 Q222.79 1542.16 227.373 1537.53 Q231.98 1532.88 233.16 1531.53 Q235.405 1529.01 236.285 1527.27 Q237.188 1525.51 237.188 1523.82 Q237.188 1521.07 235.243 1519.33 Q233.322 1517.6 230.22 1517.6 Q228.021 1517.6 225.567 1518.36 Q223.137 1519.13 220.359 1520.68 L220.359 1515.95 Q223.183 1514.82 225.637 1514.24 Q228.091 1513.66 230.128 1513.66 Q235.498 1513.66 238.692 1516.35 Q241.887 1519.03 241.887 1523.52 Q241.887 1525.65 241.077 1527.57 Q240.29 1529.47 238.183 1532.07 Q237.604 1532.74 234.503 1535.95 Q231.401 1539.15 225.753 1544.91 Z" fill="#000000" fill-rule="nonzero" fill-opacity="1" /><path clip-path="url(#clip310)" d="M626.812 1532.02 L656.488 1532.02 L656.488 1535.95 L626.812 1535.95 L626.812 1532.02 Z" fill="#000000" fill-rule="nonzero" fill-opacity="1" /><path clip-path="url(#clip310)" d="M667.391 1544.91 L675.029 1544.91 L675.029 1518.55 L666.719 1520.21 L666.719 1515.95 L674.983 1514.29 L679.659 1514.29 L679.659 1544.91 L687.298 1544.91 L687.298 1548.85 L667.391 1548.85 L667.391 1544.91 Z" fill="#000000" fill-rule="nonzero" fill-opacity="1" /><path clip-path="url(#clip310)" d="M1102.1 1517.37 Q1098.48 1517.37 1096.66 1520.93 Q1094.85 1524.47 1094.85 1531.6 Q1094.85 1538.71 1096.66 1542.27 Q1098.48 1545.82 1102.1 1545.82 Q1105.73 1545.82 1107.54 1542.27 Q1109.36 1538.71 1109.36 1531.6 Q1109.36 1524.47 1107.54 1520.93 Q1105.73 1517.37 1102.1 1517.37 M1102.1 1513.66 Q1107.91 1513.66 1110.96 1518.27 Q1114.04 1522.85 1114.04 1531.6 Q1114.04 1540.33 1110.96 1544.94 Q1107.91 1549.52 1102.1 1549.52 Q1096.29 1549.52 1093.21 1544.94 Q1090.15 1540.33 1090.15 1531.6 Q1090.15 1522.85 1093.21 1518.27 Q1096.29 1513.66 1102.1 1513.66 Z" fill="#000000" fill-rule="nonzero" fill-opacity="1" /><path clip-path="url(#clip310)" d="M1537.52 1544.91 L1545.16 1544.91 L1545.16 1518.55 L1536.85 1520.21 L1536.85 1515.95 L1545.11 1514.29 L1549.79 1514.29 L1549.79 1544.91 L1557.43 1544.91 L1557.43 1548.85 L1537.52 1548.85 L1537.52 1544.91 Z" fill="#000000" fill-rule="nonzero" fill-opacity="1" /><path clip-path="url(#clip310)" d="M1986.83 1544.91 L2003.15 1544.91 L2003.15 1548.85 L1981.21 1548.85 L1981.21 1544.91 Q1983.87 1542.16 1988.45 1537.53 Q1993.06 1532.88 1994.24 1531.53 Q1996.48 1529.01 1997.36 1527.27 Q1998.27 1525.51 1998.27 1523.82 Q1998.27 1521.07 1996.32 1519.33 Q1994.4 1517.6 1991.3 1517.6 Q1989.1 1517.6 1986.64 1518.36 Q1984.21 1519.13 1981.44 1520.68 L1981.44 1515.95 Q1984.26 1514.82 1986.71 1514.24 Q1989.17 1513.66 1991.21 1513.66 Q1996.58 1513.66 1999.77 1516.35 Q2002.96 1519.03 2002.96 1523.52 Q2002.96 1525.65 2002.15 1527.57 Q2001.37 1529.47 1999.26 1532.07 Q1998.68 1532.74 1995.58 1535.95 Q1992.48 1539.15 1986.83 1544.91 Z" fill="#000000" fill-rule="nonzero" fill-opacity="1" /><polyline clip-path="url(#clip312)" style="stroke:#000000; stroke-linecap:round; stroke-linejoin:round; stroke-width:2; stroke-opacity:0.1; fill:none" points="211.325,1287.58 2352.76,1287.58 "/>
<polyline clip-path="url(#clip312)" style="stroke:#000000; stroke-linecap:round; stroke-linejoin:round; stroke-width:2; stroke-opacity:0.1; fill:none" points="211.325,1000.14 2352.76,1000.14 "/>
<polyline clip-path="url(#clip312)" style="stroke:#000000; stroke-linecap:round; stroke-linejoin:round; stroke-width:2; stroke-opacity:0.1; fill:none" points="211.325,712.71 2352.76,712.71 "/>
<polyline clip-path="url(#clip312)" style="stroke:#000000; stroke-linecap:round; stroke-linejoin:round; stroke-width:2; stroke-opacity:0.1; fill:none" points="211.325,425.277 2352.76,425.277 "/>
<polyline clip-path="url(#clip312)" style="stroke:#000000; stroke-linecap:round; stroke-linejoin:round; stroke-width:2; stroke-opacity:0.1; fill:none" points="211.325,137.844 2352.76,137.844 "/>
<polyline clip-path="url(#clip310)" style="stroke:#000000; stroke-linecap:round; stroke-linejoin:round; stroke-width:4; stroke-opacity:1; fill:none" points="1102.1,1486.45 1102.1,123.472 "/>
<polyline clip-path="url(#clip310)" style="stroke:#000000; stroke-linecap:round; stroke-linejoin:round; stroke-width:4; stroke-opacity:0; fill:none" points="1102.1,1287.58 1102.1,1287.58 "/>
<polyline clip-path="url(#clip310)" style="stroke:#000000; stroke-linecap:round; stroke-linejoin:round; stroke-width:4; stroke-opacity:0; fill:none" points="1102.1,1000.14 1102.1,1000.14 "/>
<polyline clip-path="url(#clip310)" style="stroke:#000000; stroke-linecap:round; stroke-linejoin:round; stroke-width:4; stroke-opacity:0; fill:none" points="1102.1,712.71 1102.1,712.71 "/>
<polyline clip-path="url(#clip310)" style="stroke:#000000; stroke-linecap:round; stroke-linejoin:round; stroke-width:4; stroke-opacity:0; fill:none" points="1102.1,425.277 1102.1,425.277 "/>
<polyline clip-path="url(#clip310)" style="stroke:#000000; stroke-linecap:round; stroke-linejoin:round; stroke-width:4; stroke-opacity:0; fill:none" points="1102.1,137.844 1102.1,137.844 "/>
<path clip-path="url(#clip310)" d="M114.26 1288.03 L143.936 1288.03 L143.936 1291.96 L114.26 1291.96 L114.26 1288.03 Z" fill="#000000" fill-rule="nonzero" fill-opacity="1" /><path clip-path="url(#clip310)" d="M168.195 1286.22 Q171.552 1286.94 173.427 1289.21 Q175.325 1291.48 175.325 1294.81 Q175.325 1299.93 171.806 1302.73 Q168.288 1305.53 161.806 1305.53 Q159.63 1305.53 157.315 1305.09 Q155.024 1304.67 152.57 1303.81 L152.57 1299.3 Q154.515 1300.43 156.829 1301.01 Q159.144 1301.59 161.667 1301.59 Q166.065 1301.59 168.357 1299.86 Q170.672 1298.12 170.672 1294.81 Q170.672 1291.75 168.519 1290.04 Q166.39 1288.3 162.57 1288.3 L158.542 1288.3 L158.542 1284.46 L162.755 1284.46 Q166.204 1284.46 168.033 1283.1 Q169.862 1281.71 169.862 1279.12 Q169.862 1276.45 167.964 1275.04 Q166.089 1273.61 162.57 1273.61 Q160.649 1273.61 158.45 1274.02 Q156.251 1274.44 153.612 1275.32 L153.612 1271.15 Q156.274 1270.41 158.589 1270.04 Q160.927 1269.67 162.987 1269.67 Q168.311 1269.67 171.413 1272.1 Q174.514 1274.51 174.514 1278.63 Q174.514 1281.5 172.871 1283.49 Q171.227 1285.46 168.195 1286.22 Z" fill="#000000" fill-rule="nonzero" fill-opacity="1" /><path clip-path="url(#clip310)" d="M115.209 1000.59 L144.885 1000.59 L144.885 1004.53 L115.209 1004.53 L115.209 1000.59 Z" fill="#000000" fill-rule="nonzero" fill-opacity="1" /><path clip-path="url(#clip310)" d="M159.005 1013.49 L175.325 1013.49 L175.325 1017.42 L153.38 1017.42 L153.38 1013.49 Q156.042 1010.73 160.626 1006.1 Q165.232 1001.45 166.413 1000.11 Q168.658 997.585 169.538 995.849 Q170.44 994.09 170.44 992.4 Q170.44 989.645 168.496 987.909 Q166.575 986.173 163.473 986.173 Q161.274 986.173 158.82 986.937 Q156.39 987.701 153.612 989.252 L153.612 984.529 Q156.436 983.395 158.89 982.816 Q161.343 982.238 163.38 982.238 Q168.751 982.238 171.945 984.923 Q175.139 987.608 175.139 992.099 Q175.139 994.228 174.329 996.15 Q173.542 998.048 171.436 1000.64 Q170.857 1001.31 167.755 1004.53 Q164.653 1007.72 159.005 1013.49 Z" fill="#000000" fill-rule="nonzero" fill-opacity="1" /><path clip-path="url(#clip310)" d="M114.839 713.161 L144.515 713.161 L144.515 717.096 L114.839 717.096 L114.839 713.161 Z" fill="#000000" fill-rule="nonzero" fill-opacity="1" /><path clip-path="url(#clip310)" d="M155.417 726.055 L163.056 726.055 L163.056 699.689 L154.746 701.356 L154.746 697.096 L163.01 695.43 L167.686 695.43 L167.686 726.055 L175.325 726.055 L175.325 729.99 L155.417 729.99 L155.417 726.055 Z" fill="#000000" fill-rule="nonzero" fill-opacity="1" /><path clip-path="url(#clip310)" d="M163.38 411.075 Q159.769 411.075 157.94 414.64 Q156.135 418.182 156.135 425.311 Q156.135 432.418 157.94 435.983 Q159.769 439.524 163.38 439.524 Q167.015 439.524 168.82 435.983 Q170.649 432.418 170.649 425.311 Q170.649 418.182 168.82 414.64 Q167.015 411.075 163.38 411.075 M163.38 407.372 Q169.19 407.372 172.246 411.978 Q175.325 416.562 175.325 425.311 Q175.325 434.038 172.246 438.645 Q169.19 443.228 163.38 443.228 Q157.57 443.228 154.491 438.645 Q151.436 434.038 151.436 425.311 Q151.436 416.562 154.491 411.978 Q157.57 407.372 163.38 407.372 Z" fill="#000000" fill-rule="nonzero" fill-opacity="1" /><path clip-path="url(#clip310)" d="M155.417 151.189 L163.056 151.189 L163.056 124.823 L154.746 126.49 L154.746 122.23 L163.01 120.564 L167.686 120.564 L167.686 151.189 L175.325 151.189 L175.325 155.124 L155.417 155.124 L155.417 151.189 Z" fill="#000000" fill-rule="nonzero" fill-opacity="1" /><path clip-path="url(#clip310)" d="M16.4842 879.025 L16.4842 838.826 L21.895 838.826 L21.895 855.695 L64.0042 855.695 L64.0042 862.156 L21.895 862.156 L21.895 879.025 L16.4842 879.025 Z" fill="#000000" fill-rule="nonzero" fill-opacity="1" /><path clip-path="url(#clip310)" d="M32.4621 830.136 Q32.4621 834.847 36.1542 837.584 Q39.8145 840.322 46.212 840.322 Q52.6095 840.322 56.3017 837.616 Q59.9619 834.879 59.9619 830.136 Q59.9619 825.458 56.2698 822.72 Q52.5777 819.983 46.212 819.983 Q39.8781 819.983 36.186 822.72 Q32.4621 825.458 32.4621 830.136 M27.4968 830.136 Q27.4968 822.498 32.4621 818.137 Q37.4273 813.777 46.212 813.777 Q54.9649 813.777 59.9619 818.137 Q64.9272 822.498 64.9272 830.136 Q64.9272 837.807 59.9619 842.168 Q54.9649 846.496 46.212 846.496 Q37.4273 846.496 32.4621 842.168 Q27.4968 837.807 27.4968 830.136 Z" fill="#000000" fill-rule="nonzero" fill-opacity="1" /><path clip-path="url(#clip310)" d="M55.9197 802.573 L55.9197 795.857 L64.0042 795.857 L64.0042 802.573 L55.9197 802.573 M30.2977 802.573 L30.2977 795.857 L38.3822 795.857 L38.3822 802.573 L30.2977 802.573 Z" fill="#000000" fill-rule="nonzero" fill-opacity="1" /><path clip-path="url(#clip310)" d="M67.3143 746.555 Q73.68 749.037 75.6216 751.393 Q77.5631 753.748 77.5631 757.695 L77.5631 762.373 L72.6615 762.373 L72.6615 758.936 Q72.6615 756.517 71.5157 755.18 Q70.3699 753.843 66.1048 752.22 L63.4312 751.17 L28.3562 765.588 L28.3562 759.382 L56.238 748.242 L28.3562 737.102 L28.3562 730.895 L67.3143 746.555 Z" fill="#000000" fill-rule="nonzero" fill-opacity="1" /><path clip-path="url(#clip310)" d="M876.423 12.096 L887.442 12.096 L914.259 62.6918 L914.259 12.096 L922.198 12.096 L922.198 72.576 L911.18 72.576 L884.363 21.9802 L884.363 72.576 L876.423 72.576 L876.423 12.096 Z" fill="#000000" fill-rule="nonzero" fill-opacity="1" /><path clip-path="url(#clip310)" d="M957.036 76.7889 Q953.877 84.8907 950.879 87.3618 Q947.881 89.8329 942.858 89.8329 L936.903 89.8329 L936.903 83.5945 L941.278 83.5945 Q944.357 83.5945 946.058 82.1361 Q947.76 80.6778 949.826 75.2496 L951.162 71.8468 L932.812 27.2059 L940.711 27.2059 L954.889 62.6918 L969.067 27.2059 L976.967 27.2059 L957.036 76.7889 Z" fill="#000000" fill-rule="nonzero" fill-opacity="1" /><path clip-path="url(#clip310)" d="M991.712 49.9314 Q991.712 58.1548 995.074 62.8538 Q998.477 67.5124 1004.39 67.5124 Q1010.31 67.5124 1013.71 62.8538 Q1017.11 58.1548 1017.11 49.9314 Q1017.11 41.7081 1013.71 37.0496 Q1010.31 32.3505 1004.39 32.3505 Q998.477 32.3505 995.074 37.0496 Q991.712 41.7081 991.712 49.9314 M1017.11 65.7705 Q1014.76 69.8214 1011.16 71.8063 Q1007.59 73.7508 1002.57 73.7508 Q994.345 73.7508 989.16 67.1883 Q984.015 60.6258 984.015 49.9314 Q984.015 39.2371 989.16 32.6746 Q994.345 26.1121 1002.57 26.1121 Q1007.59 26.1121 1011.16 28.0971 Q1014.76 30.0415 1017.11 34.0924 L1017.11 27.2059 L1024.56 27.2059 L1024.56 89.8329 L1017.11 89.8329 L1017.11 65.7705 Z" fill="#000000" fill-rule="nonzero" fill-opacity="1" /><path clip-path="url(#clip310)" d="M1039.15 54.671 L1039.15 27.2059 L1046.6 27.2059 L1046.6 54.3874 Q1046.6 60.8284 1049.11 64.0691 Q1051.62 67.2693 1056.65 67.2693 Q1062.68 67.2693 1066.17 63.421 Q1069.69 59.5726 1069.69 52.9291 L1069.69 27.2059 L1077.15 27.2059 L1077.15 72.576 L1069.69 72.576 L1069.69 65.6084 Q1066.98 69.7404 1063.37 71.7658 Q1059.81 73.7508 1055.07 73.7508 Q1047.25 73.7508 1043.2 68.8897 Q1039.15 64.0286 1039.15 54.671 M1057.9 26.1121 L1057.9 26.1121 Z" fill="#000000" fill-rule="nonzero" fill-opacity="1" /><path clip-path="url(#clip310)" d="M1092.5 27.2059 L1099.95 27.2059 L1099.95 72.576 L1092.5 72.576 L1092.5 27.2059 M1092.5 9.54393 L1099.95 9.54393 L1099.95 18.9825 L1092.5 18.9825 L1092.5 9.54393 Z" fill="#000000" fill-rule="nonzero" fill-opacity="1" /><path clip-path="url(#clip310)" d="M1144.47 28.5427 L1144.47 35.5912 Q1141.31 33.9709 1137.91 33.1607 Q1134.51 32.3505 1130.86 32.3505 Q1125.31 32.3505 1122.52 34.0519 Q1119.76 35.7533 1119.76 39.156 Q1119.76 41.7486 1121.75 43.2475 Q1123.73 44.7058 1129.73 46.0426 L1132.28 46.6097 Q1140.22 48.3111 1143.54 51.4303 Q1146.9 54.509 1146.9 60.0587 Q1146.9 66.3781 1141.88 70.0644 Q1136.9 73.7508 1128.15 73.7508 Q1124.5 73.7508 1120.53 73.0216 Q1116.6 72.3329 1112.23 70.9151 L1112.23 63.2184 Q1116.36 65.3654 1120.37 66.4591 Q1124.38 67.5124 1128.31 67.5124 Q1133.57 67.5124 1136.41 65.73 Q1139.25 63.9071 1139.25 60.6258 Q1139.25 57.5877 1137.18 55.9673 Q1135.15 54.3469 1128.23 52.8481 L1125.63 52.2405 Q1118.71 50.7821 1115.63 47.7845 Q1112.55 44.7463 1112.55 39.4801 Q1112.55 33.0797 1117.09 29.5959 Q1121.62 26.1121 1129.97 26.1121 Q1134.1 26.1121 1137.75 26.7198 Q1141.39 27.3274 1144.47 28.5427 Z" fill="#000000" fill-rule="nonzero" fill-opacity="1" /><path clip-path="url(#clip310)" d="M1166.14 14.324 L1166.14 27.2059 L1181.5 27.2059 L1181.5 32.9987 L1166.14 32.9987 L1166.14 57.6282 Q1166.14 63.1779 1167.64 64.7578 Q1169.18 66.3376 1173.84 66.3376 L1181.5 66.3376 L1181.5 72.576 L1173.84 72.576 Q1165.21 72.576 1161.93 69.3758 Q1158.65 66.1351 1158.65 57.6282 L1158.65 32.9987 L1153.18 32.9987 L1153.18 27.2059 L1158.65 27.2059 L1158.65 14.324 L1166.14 14.324 Z" fill="#000000" fill-rule="nonzero" fill-opacity="1" /><path clip-path="url(#clip310)" d="M1224.88 65.7705 L1224.88 89.8329 L1217.39 89.8329 L1217.39 27.2059 L1224.88 27.2059 L1224.88 34.0924 Q1227.23 30.0415 1230.8 28.0971 Q1234.4 26.1121 1239.38 26.1121 Q1247.65 26.1121 1252.79 32.6746 Q1257.98 39.2371 1257.98 49.9314 Q1257.98 60.6258 1252.79 67.1883 Q1247.65 73.7508 1239.38 73.7508 Q1234.4 73.7508 1230.8 71.8063 Q1227.23 69.8214 1224.88 65.7705 M1250.24 49.9314 Q1250.24 41.7081 1246.84 37.0496 Q1243.48 32.3505 1237.56 32.3505 Q1231.65 32.3505 1228.24 37.0496 Q1224.88 41.7081 1224.88 49.9314 Q1224.88 58.1548 1228.24 62.8538 Q1231.65 67.5124 1237.56 67.5124 Q1243.48 67.5124 1246.84 62.8538 Q1250.24 58.1548 1250.24 49.9314 Z" fill="#000000" fill-rule="nonzero" fill-opacity="1" /><path clip-path="url(#clip310)" d="M1270.33 9.54393 L1277.79 9.54393 L1277.79 72.576 L1270.33 72.576 L1270.33 9.54393 Z" fill="#000000" fill-rule="nonzero" fill-opacity="1" /><path clip-path="url(#clip310)" d="M1310.96 32.4315 Q1304.97 32.4315 1301.48 37.1306 Q1298 41.7891 1298 49.9314 Q1298 58.0738 1301.44 62.7728 Q1304.93 67.4314 1310.96 67.4314 Q1316.92 67.4314 1320.4 62.7323 Q1323.89 58.0333 1323.89 49.9314 Q1323.89 41.8701 1320.4 37.1711 Q1316.92 32.4315 1310.96 32.4315 M1310.96 26.1121 Q1320.69 26.1121 1326.24 32.4315 Q1331.79 38.7509 1331.79 49.9314 Q1331.79 61.0714 1326.24 67.4314 Q1320.69 73.7508 1310.96 73.7508 Q1301.2 73.7508 1295.65 67.4314 Q1290.14 61.0714 1290.14 49.9314 Q1290.14 38.7509 1295.65 32.4315 Q1301.2 26.1121 1310.96 26.1121 Z" fill="#000000" fill-rule="nonzero" fill-opacity="1" /><path clip-path="url(#clip310)" d="M1351.51 14.324 L1351.51 27.2059 L1366.87 27.2059 L1366.87 32.9987 L1351.51 32.9987 L1351.51 57.6282 Q1351.51 63.1779 1353.01 64.7578 Q1354.55 66.3376 1359.21 66.3376 L1366.87 66.3376 L1366.87 72.576 L1359.21 72.576 Q1350.58 72.576 1347.3 69.3758 Q1344.02 66.1351 1344.02 57.6282 L1344.02 32.9987 L1338.55 32.9987 L1338.55 27.2059 L1344.02 27.2059 L1344.02 14.324 L1351.51 14.324 Z" fill="#000000" fill-rule="nonzero" fill-opacity="1" /><path clip-path="url(#clip310)" d="M1426.01 9.54393 L1426.01 15.7418 L1418.88 15.7418 Q1414.87 15.7418 1413.29 17.3622 Q1411.75 18.9825 1411.75 23.1955 L1411.75 27.2059 L1424.02 27.2059 L1424.02 32.9987 L1411.75 32.9987 L1411.75 72.576 L1404.26 72.576 L1404.26 32.9987 L1397.13 32.9987 L1397.13 27.2059 L1404.26 27.2059 L1404.26 24.0462 Q1404.26 16.471 1407.78 13.0277 Q1411.3 9.54393 1418.96 9.54393 L1426.01 9.54393 Z" fill="#000000" fill-rule="nonzero" fill-opacity="1" /><path clip-path="url(#clip310)" d="M1458.54 34.1734 Q1457.28 33.4443 1455.78 33.1202 Q1454.33 32.7556 1452.54 32.7556 Q1446.22 32.7556 1442.82 36.8875 Q1439.46 40.9789 1439.46 48.6757 L1439.46 72.576 L1431.96 72.576 L1431.96 27.2059 L1439.46 27.2059 L1439.46 34.2544 Q1441.81 30.1225 1445.58 28.1376 Q1449.34 26.1121 1454.73 26.1121 Q1455.5 26.1121 1456.43 26.2337 Q1457.36 26.3147 1458.5 26.5172 L1458.54 34.1734 Z" fill="#000000" fill-rule="nonzero" fill-opacity="1" /><path clip-path="url(#clip310)" d="M1482.11 32.4315 Q1476.12 32.4315 1472.64 37.1306 Q1469.15 41.7891 1469.15 49.9314 Q1469.15 58.0738 1472.59 62.7728 Q1476.08 67.4314 1482.11 67.4314 Q1488.07 67.4314 1491.55 62.7323 Q1495.04 58.0333 1495.04 49.9314 Q1495.04 41.8701 1491.55 37.1711 Q1488.07 32.4315 1482.11 32.4315 M1482.11 26.1121 Q1491.84 26.1121 1497.39 32.4315 Q1502.94 38.7509 1502.94 49.9314 Q1502.94 61.0714 1497.39 67.4314 Q1491.84 73.7508 1482.11 73.7508 Q1472.35 73.7508 1466.8 67.4314 Q1461.29 61.0714 1461.29 49.9314 Q1461.29 38.7509 1466.8 32.4315 Q1472.35 26.1121 1482.11 26.1121 Z" fill="#000000" fill-rule="nonzero" fill-opacity="1" /><path clip-path="url(#clip310)" d="M1550.62 35.9153 Q1553.41 30.8922 1557.3 28.5022 Q1561.19 26.1121 1566.45 26.1121 Q1573.54 26.1121 1577.39 31.0947 Q1581.24 36.0368 1581.24 45.1919 L1581.24 72.576 L1573.75 72.576 L1573.75 45.4349 Q1573.75 38.913 1571.44 35.7533 Q1569.13 32.5936 1564.39 32.5936 Q1558.6 32.5936 1555.23 36.4419 Q1551.87 40.2903 1551.87 46.9338 L1551.87 72.576 L1544.38 72.576 L1544.38 45.4349 Q1544.38 38.8725 1542.07 35.7533 Q1539.76 32.5936 1534.94 32.5936 Q1529.23 32.5936 1525.86 36.4824 Q1522.5 40.3308 1522.5 46.9338 L1522.5 72.576 L1515.01 72.576 L1515.01 27.2059 L1522.5 27.2059 L1522.5 34.2544 Q1525.05 30.082 1528.62 28.0971 Q1532.18 26.1121 1537.09 26.1121 Q1542.03 26.1121 1545.47 28.6237 Q1548.95 31.1352 1550.62 35.9153 Z" fill="#000000" fill-rule="nonzero" fill-opacity="1" /><path clip-path="url(#clip310)" d="M1598.01 62.2867 L1606.56 62.2867 L1606.56 72.576 L1598.01 72.576 L1598.01 62.2867 M1598.01 29.6769 L1606.56 29.6769 L1606.56 39.9662 L1598.01 39.9662 L1598.01 29.6769 Z" fill="#000000" fill-rule="nonzero" fill-opacity="1" /><path clip-path="url(#clip310)" d="M1649.66 54.671 L1649.66 27.2059 L1657.11 27.2059 L1657.11 54.3874 Q1657.11 60.8284 1659.63 64.0691 Q1662.14 67.2693 1667.16 67.2693 Q1673.2 67.2693 1676.68 63.421 Q1680.2 59.5726 1680.2 52.9291 L1680.2 27.2059 L1687.66 27.2059 L1687.66 72.576 L1680.2 72.576 L1680.2 65.6084 Q1677.49 69.7404 1673.88 71.7658 Q1670.32 73.7508 1665.58 73.7508 Q1657.76 73.7508 1653.71 68.8897 Q1649.66 64.0286 1649.66 54.671 M1668.42 26.1121 L1668.42 26.1121 Z" fill="#000000" fill-rule="nonzero" fill-opacity="1" /><polyline clip-path="url(#clip312)" style="stroke:#009af9; stroke-linecap:round; stroke-linejoin:round; stroke-width:4; stroke-opacity:1; fill:none" points="2214.7,432.463 2214.7,432.745 2214.7,433.038 2214.7,433.343 2214.7,433.659 2214.7,433.988 2214.7,434.33 2214.7,434.686 2214.7,435.055 2214.7,435.439 2214.7,435.837 2214.7,436.252 2214.7,436.683 2214.7,437.13 2214.7,437.596 2214.7,438.079 2214.7,438.582 2214.7,439.104 2214.7,439.647 2214.7,440.211 2214.7,440.798 2214.7,441.407 2214.7,442.041 2214.7,442.699 2214.7,443.383 2214.7,444.095 2214.7,444.834 2214.7,445.602 2214.7,446.401 2214.7,447.231 2214.7,448.094 2214.7,448.991 2214.7,449.923 2214.7,450.892 2214.7,451.9 2214.7,452.947 2214.7,454.036 2214.69,455.167 2214.69,456.344 2214.69,457.567 2214.69,458.839 2214.69,460.161 2214.69,461.536 2214.69,462.965 2214.69,464.452 2214.69,465.997 2214.69,467.605 2214.69,469.276 2214.68,471.015 2214.68,472.823 2214.68,474.704 2214.67,476.66 2214.67,478.695 2214.67,480.813 2214.66,483.016 2214.66,485.309 2214.65,487.695 2214.64,490.179 2214.63,492.764 2214.62,495.455 2214.61,498.257 2214.59,501.176 2214.57,504.215 2214.55,507.381 2214.53,510.68 2214.5,514.118 2214.46,517.702 2214.42,521.438 2214.38,525.334 2214.33,529.398 2214.26,533.638 2214.19,538.064 2214.1,542.685 2214,547.512 2213.89,552.554 2213.75,557.825 2213.59,563.337 2213.4,569.103 2213.18,575.138 2212.92,581.458 2212.62,588.08 2212.26,595.022 2211.85,602.304 2211.36,609.948 2210.78,617.977 2210.11,626.417 2209.32,635.294 2208.39,644.64 2207.29,654.487 2206,664.869 2204.48,675.826 2202.69,687.4 2200.57,699.634 2198.08,712.579 2195.13,726.286 2191.65,740.814 2187.53,756.22 2182.65,772.571 2176.87,789.932 2170.02,808.371 2161.89,827.959 2152.24,848.762 2140.78,870.842 2127.17,894.251 2111,919.024 2091.81,945.171 2069.04,972.66 2042.07,1001.41 2010.18,1031.26 1972.61,1061.94 1928.52,1093.08 1877.07,1124.1 1817.48,1154.26 1749.1,1182.58 1671.59,1207.86 1585.02,1228.69 1490.07,1243.51 1388.18,1250.76 1281.61,1249.03 1173.39,1237.31 1067.13,1215.16 966.657,1182.89 875.547,1141.55 796.697,1092.89 731.998,1039.07 682.204,982.412 647.005,925.115 625.248,869.062 615.23,815.702 614.984,766.028 622.511,720.617 635.948,679.706 653.657,643.276 674.265,611.134 696.659,582.983 719.97,558.468 743.537,537.215 766.871,518.856 789.621,503.043 811.547,489.454 832.491,477.801 852.36,467.826 871.108,459.304 888.72,452.037 905.211,445.852 920.608,440.601 934.953,436.155 948.292,432.402 960.679,429.247 972.166,426.607 982.808,424.412 992.659,422.598 1001.77,421.114 1010.19,419.914 1017.97,418.958 1025.15,418.212 1031.77,417.645 1037.88,417.233 1043.51,416.953 1048.69,416.786 1053.46,416.714 1057.85,416.723 1061.88,416.8 1065.59,416.933 1068.99,417.114 1072.11,417.333 1074.96,417.582 1077.58,417.856 1079.97,418.149 1082.15,418.455 1084.15,418.77 1085.96,419.09 1087.61,419.412 1089.11,419.733 1090.48,420.051 1091.71,420.364 1092.83,420.67 1093.84,420.966 1094.75,421.254 1095.56,421.53 1096.3,421.795 1096.96,422.048 1097.55,422.289 1098.08,422.517 1098.56,422.732 1098.98,422.935 1099.35,423.125 1099.68,423.304 1099.98,423.47 1100.24,423.625 1100.47,423.769 1100.68,423.902 1100.86,424.025 1101.01,424.139 1101.15,424.243 1101.27,424.339 1101.38,424.427 1101.47,424.508 1101.56,424.582 1101.63,424.649 1101.69,424.71 1101.74,424.766 1101.79,424.816 1101.83,424.862 1101.87,424.904 1101.9,424.941 1101.93,424.975 1101.95,425.006 1101.97,425.034 1101.99,425.059 1102,425.081 1102.01,425.102 1102.03,425.12 1102.04,425.136 1102.04,425.151 1102.05,425.164 1102.06,425.176 1102.06,425.187 1102.07,425.196 1102.07,425.205 1102.07,425.212 1102.08,425.219 1102.08,425.225 1102.08,425.231 1102.08,425.236 1102.09,425.24 1102.09,425.244 1102.09,425.248 1102.09,425.251 1102.09,425.254 1102.09,425.256 1102.09,425.258 1102.09,425.26 1102.09,425.262 1102.09,425.264 1102.09,425.265 1102.09,425.266 1102.09,425.267 1102.09,425.268 1102.09,425.269 1102.09,425.27 1102.09,425.271 1102.1,425.272 1102.1,425.272 1102.1,425.273 1102.1,425.273 1102.1,425.273 1102.1,425.274 1102.1,425.274 1102.1,425.274 1102.1,425.275 1102.1,425.275 1102.1,425.275 1102.1,425.275 1102.1,425.275 1102.1,425.276 1102.1,425.276 1102.1,425.276 1102.1,425.276 1102.1,425.276 1102.1,425.276 1102.1,425.276 1102.1,425.276 1102.1,425.276 1102.1,425.276 1102.1,425.276 1102.1,425.276 1102.1,425.276 1102.1,425.277 1102.1,425.277 1102.1,425.277 1102.1,425.277 1102.1,425.277 1102.1,425.277 1102.1,425.277 1102.1,425.277 1102.1,425.277 1102.1,425.277 1102.1,425.277 1102.1,425.277 1102.1,425.277 1102.1,425.277 1102.1,425.277 1102.1,425.277 1102.1,425.277 1102.1,425.277 1102.1,425.277 1102.1,425.277 1102.1,425.277 1102.1,425.277 1102.1,425.277 1102.1,425.277 1102.1,425.277 1102.1,425.277 1102.1,425.277 1102.1,425.277 1102.1,425.277 1102.1,425.277 1102.1,425.277 1102.1,425.277 1102.1,425.277 1102.1,425.277 1102.1,425.277 1102.1,425.277 1102.1,425.277 1102.1,425.277 1102.1,425.277 1102.1,425.277 1102.1,425.277 1102.1,425.277 1102.1,425.277 1102.1,425.277 1102.1,425.277 1102.1,425.277 1102.1,425.277 1102.1,425.277 1102.1,425.277 1102.1,425.277 1102.1,425.277 1102.1,425.277 1102.1,425.277 1102.1,425.277 1102.1,425.277 1102.1,425.277 1102.1,425.277 1102.1,425.277 1102.1,425.277 1102.1,425.277 1102.1,425.277 1102.1,425.277 1102.1,425.277 1102.1,425.277 1102.1,425.277 1102.1,425.277 1102.1,425.277 1102.1,425.277 1102.1,425.277 1102.1,425.277 1102.1,425.277 1102.1,425.277 1102.1,425.277 1102.1,425.277 1102.1,425.277 1102.1,425.277 1102.1,425.277 1102.1,425.277 1102.1,425.277 1102.1,425.277 1102.1,425.277 1102.1,425.277 1102.1,425.277 1102.1,425.277 1102.1,425.277 1102.1,425.277 1102.1,425.277 1102.1,425.277 1102.1,425.277 1102.1,425.277 1102.1,425.277 1102.1,425.277 "/>
<line clip-path="url(#clip312)" x1="657.055" y1="425.277" x2="637.055" y2="405.277" style="stroke:#ff0000; stroke-width:4; stroke-opacity:1"/>
<line clip-path="url(#clip312)" x1="657.055" y1="425.277" x2="637.055" y2="445.277" style="stroke:#ff0000; stroke-width:4; stroke-opacity:1"/>
<line clip-path="url(#clip312)" x1="657.055" y1="425.277" x2="677.055" y2="445.277" style="stroke:#ff0000; stroke-width:4; stroke-opacity:1"/>
<line clip-path="url(#clip312)" x1="657.055" y1="425.277" x2="677.055" y2="405.277" style="stroke:#ff0000; stroke-width:4; stroke-opacity:1"/>
<path clip-path="url(#clip312)" d="M822.932 425.277 L822.824 420.89 L822.503 416.508 L821.967 412.134 L821.218 407.773 L820.256 403.43 L819.082 399.109 L817.698 394.813 L816.104 390.549 L814.303 386.318 L812.296 382.127 L810.085 377.978 L807.672 373.877 L805.06 369.827 L802.251 365.832 L799.249 361.897 L796.056 358.024 L792.675 354.219 L789.109 350.485 L785.363 346.825 L781.44 343.243 L777.344 339.743 L773.078 336.328 L768.648 333.002 L764.058 329.768 L759.312 326.629 L754.414 323.589 L749.371 320.65 L744.186 317.815 L738.866 315.087 L733.415 312.469 L727.838 309.964 L722.142 307.573 L716.332 305.3 L710.413 303.147 L704.393 301.115 L698.276 299.207 L692.069 297.424 L685.777 295.769 L679.408 294.244 L672.968 292.848 L666.462 291.585 L659.899 290.455 L653.283 289.46 L646.622 288.599 L639.922 287.876 L633.19 287.289 L626.432 286.839 L619.656 286.528 L612.869 286.355 L606.076 286.32 L599.285 286.424 L592.502 286.666 L585.734 287.047 L578.989 287.565 L572.272 288.22 L565.591 289.013 L558.951 289.941 L552.361 291.003 L545.825 292.2 L539.351 293.53 L532.946 294.99 L526.615 296.581 L520.365 298.3 L514.202 300.145 L508.133 302.115 L502.162 304.208 L496.297 306.422 L490.543 308.754 L484.906 311.202 L479.392 313.764 L474.005 316.437 L468.752 319.219 L463.637 322.106 L458.666 325.097 L453.844 328.187 L449.175 331.374 L444.664 334.654 L440.316 338.025 L436.135 341.483 L432.125 345.024 L428.29 348.645 L424.633 352.343 L421.16 356.113 L417.872 359.952 L414.774 363.857 L411.868 367.822 L409.157 371.845 L406.645 375.922 L404.333 380.047 L402.223 384.217 L400.319 388.429 L398.621 392.677 L397.132 396.958 L395.853 401.266 L394.785 405.599 L393.929 409.952 L393.287 414.319 L392.858 418.698 L392.643 423.083 L392.643 427.47 L392.858 431.856 L393.287 436.234 L393.929 440.602 L394.785 444.954 L395.853 449.287 L397.132 453.596 L398.621 457.877 L400.319 462.125 L402.223 466.336 L404.333 470.507 L406.645 474.632 L409.157 478.708 L411.868 482.731 L414.774 486.697 L417.872 490.601 L421.16 494.44 L424.633 498.211 L428.29 501.908 L432.125 505.53 L436.135 509.071 L440.316 512.529 L444.664 515.9 L449.175 519.18 L453.844 522.367 L458.666 525.457 L463.637 528.447 L468.752 531.334 L474.005 534.116 L479.392 536.789 L484.906 539.351 L490.543 541.799 L496.297 544.132 L502.162 546.345 L508.133 548.438 L514.202 550.408 L520.365 552.254 L526.615 553.973 L532.946 555.563 L539.351 557.024 L545.825 558.353 L552.361 559.55 L558.951 560.613 L565.591 561.541 L572.272 562.333 L578.989 562.989 L585.734 563.507 L592.502 563.887 L599.285 564.13 L606.076 564.234 L612.869 564.199 L619.656 564.026 L626.432 563.714 L633.19 563.265 L639.922 562.678 L646.622 561.954 L653.283 561.094 L659.899 560.098 L666.462 558.968 L672.968 557.705 L679.408 556.31 L685.777 554.784 L692.069 553.129 L698.276 551.347 L704.393 549.439 L710.413 547.407 L716.332 545.253 L722.142 542.98 L727.838 540.59 L733.415 538.084 L738.866 535.466 L744.186 532.739 L749.371 529.904 L754.414 526.965 L759.312 523.924 L764.058 520.785 L768.648 517.551 L773.078 514.225 L777.344 510.811 L781.44 507.311 L785.363 503.729 L789.109 500.069 L792.675 496.334 L796.056 492.529 L799.249 488.657 L802.251 484.721 L805.06 480.727 L807.672 476.676 L810.085 472.575 L812.296 468.427 L814.303 464.235 L816.104 460.005 L817.698 455.74 L819.082 451.445 L820.256 447.123 L821.218 442.78 L821.967 438.42 L822.503 434.046 L822.824 429.664 L822.932 425.277 L822.932 425.277 L822.824 425.277 L822.503 425.277 L821.967 425.277 L821.218 425.277 L820.256 425.277 L819.082 425.277 L817.698 425.277 L816.104 425.277 L814.303 425.277 L812.296 425.277 L810.085 425.277 L807.672 425.277 L805.06 425.277 L802.251 425.277 L799.249 425.277 L796.056 425.277 L792.675 425.277 L789.109 425.277 L785.363 425.277 L781.44 425.277 L777.344 425.277 L773.078 425.277 L768.648 425.277 L764.058 425.277 L759.312 425.277 L754.414 425.277 L749.371 425.277 L744.186 425.277 L738.866 425.277 L733.415 425.277 L727.838 425.277 L722.142 425.277 L716.332 425.277 L710.413 425.277 L704.393 425.277 L698.276 425.277 L692.069 425.277 L685.777 425.277 L679.408 425.277 L672.968 425.277 L666.462 425.277 L659.899 425.277 L653.283 425.277 L646.622 425.277 L639.922 425.277 L633.19 425.277 L626.432 425.277 L619.656 425.277 L612.869 425.277 L606.076 425.277 L599.285 425.277 L592.502 425.277 L585.734 425.277 L578.989 425.277 L572.272 425.277 L565.591 425.277 L558.951 425.277 L552.361 425.277 L545.825 425.277 L539.351 425.277 L532.946 425.277 L526.615 425.277 L520.365 425.277 L514.202 425.277 L508.133 425.277 L502.162 425.277 L496.297 425.277 L490.543 425.277 L484.906 425.277 L479.392 425.277 L474.005 425.277 L468.752 425.277 L463.637 425.277 L458.666 425.277 L453.844 425.277 L449.175 425.277 L444.664 425.277 L440.316 425.277 L436.135 425.277 L432.125 425.277 L428.29 425.277 L424.633 425.277 L421.16 425.277 L417.872 425.277 L414.774 425.277 L411.868 425.277 L409.157 425.277 L406.645 425.277 L404.333 425.277 L402.223 425.277 L400.319 425.277 L398.621 425.277 L397.132 425.277 L395.853 425.277 L394.785 425.277 L393.929 425.277 L393.287 425.277 L392.858 425.277 L392.643 425.277 L392.643 425.277 L392.858 425.277 L393.287 425.277 L393.929 425.277 L394.785 425.277 L395.853 425.277 L397.132 425.277 L398.621 425.277 L400.319 425.277 L402.223 425.277 L404.333 425.277 L406.645 425.277 L409.157 425.277 L411.868 425.277 L414.774 425.277 L417.872 425.277 L421.16 425.277 L424.633 425.277 L428.29 425.277 L432.125 425.277 L436.135 425.277 L440.316 425.277 L444.664 425.277 L449.175 425.277 L453.844 425.277 L458.666 425.277 L463.637 425.277 L468.752 425.277 L474.005 425.277 L479.392 425.277 L484.906 425.277 L490.543 425.277 L496.297 425.277 L502.162 425.277 L508.133 425.277 L514.202 425.277 L520.365 425.277 L526.615 425.277 L532.946 425.277 L539.351 425.277 L545.825 425.277 L552.361 425.277 L558.951 425.277 L565.591 425.277 L572.272 425.277 L578.989 425.277 L585.734 425.277 L592.502 425.277 L599.285 425.277 L606.076 425.277 L612.869 425.277 L619.656 425.277 L626.432 425.277 L633.19 425.277 L639.922 425.277 L646.622 425.277 L653.283 425.277 L659.899 425.277 L666.462 425.277 L672.968 425.277 L679.408 425.277 L685.777 425.277 L692.069 425.277 L698.276 425.277 L704.393 425.277 L710.413 425.277 L716.332 425.277 L722.142 425.277 L727.838 425.277 L733.415 425.277 L738.866 425.277 L744.186 425.277 L749.371 425.277 L754.414 425.277 L759.312 425.277 L764.058 425.277 L768.648 425.277 L773.078 425.277 L777.344 425.277 L781.44 425.277 L785.363 425.277 L789.109 425.277 L792.675 425.277 L796.056 425.277 L799.249 425.277 L802.251 425.277 L805.06 425.277 L807.672 425.277 L810.085 425.277 L812.296 425.277 L814.303 425.277 L816.104 425.277 L817.698 425.277 L819.082 425.277 L820.256 425.277 L821.218 425.277 L821.967 425.277 L822.503 425.277 L822.824 425.277 L822.932 425.277  Z" fill="#e26f46" fill-rule="evenodd" fill-opacity="0.5"/>
<polyline clip-path="url(#clip312)" style="stroke:#e26f46; stroke-linecap:round; stroke-linejoin:round; stroke-width:4; stroke-opacity:1; fill:none" points="822.932,425.277 822.824,420.89 822.503,416.508 821.967,412.134 821.218,407.773 820.256,403.43 819.082,399.109 817.698,394.813 816.104,390.549 814.303,386.318 812.296,382.127 810.085,377.978 807.672,373.877 805.06,369.827 802.251,365.832 799.249,361.897 796.056,358.024 792.675,354.219 789.109,350.485 785.363,346.825 781.44,343.243 777.344,339.743 773.078,336.328 768.648,333.002 764.058,329.768 759.312,326.629 754.414,323.589 749.371,320.65 744.186,317.815 738.866,315.087 733.415,312.469 727.838,309.964 722.142,307.573 716.332,305.3 710.413,303.147 704.393,301.115 698.276,299.207 692.069,297.424 685.777,295.769 679.408,294.244 672.968,292.848 666.462,291.585 659.899,290.455 653.283,289.46 646.622,288.599 639.922,287.876 633.19,287.289 626.432,286.839 619.656,286.528 612.869,286.355 606.076,286.32 599.285,286.424 592.502,286.666 585.734,287.047 578.989,287.565 572.272,288.22 565.591,289.013 558.951,289.941 552.361,291.003 545.825,292.2 539.351,293.53 532.946,294.99 526.615,296.581 520.365,298.3 514.202,300.145 508.133,302.115 502.162,304.208 496.297,306.422 490.543,308.754 484.906,311.202 479.392,313.764 474.005,316.437 468.752,319.219 463.637,322.106 458.666,325.097 453.844,328.187 449.175,331.374 444.664,334.654 440.316,338.025 436.135,341.483 432.125,345.024 428.29,348.645 424.633,352.343 421.16,356.113 417.872,359.952 414.774,363.857 411.868,367.822 409.157,371.845 406.645,375.922 404.333,380.047 402.223,384.217 400.319,388.429 398.621,392.677 397.132,396.958 395.853,401.266 394.785,405.599 393.929,409.952 393.287,414.319 392.858,418.698 392.643,423.083 392.643,427.47 392.858,431.856 393.287,436.234 393.929,440.602 394.785,444.954 395.853,449.287 397.132,453.596 398.621,457.877 400.319,462.125 402.223,466.336 404.333,470.507 406.645,474.632 409.157,478.708 411.868,482.731 414.774,486.697 417.872,490.601 421.16,494.44 424.633,498.211 428.29,501.908 432.125,505.53 436.135,509.071 440.316,512.529 444.664,515.9 449.175,519.18 453.844,522.367 458.666,525.457 463.637,528.447 468.752,531.334 474.005,534.116 479.392,536.789 484.906,539.351 490.543,541.799 496.297,544.132 502.162,546.345 508.133,548.438 514.202,550.408 520.365,552.254 526.615,553.973 532.946,555.563 539.351,557.024 545.825,558.353 552.361,559.55 558.951,560.613 565.591,561.541 572.272,562.333 578.989,562.989 585.734,563.507 592.502,563.887 599.285,564.13 606.076,564.234 612.869,564.199 619.656,564.026 626.432,563.714 633.19,563.265 639.922,562.678 646.622,561.954 653.283,561.094 659.899,560.098 666.462,558.968 672.968,557.705 679.408,556.31 685.777,554.784 692.069,553.129 698.276,551.347 704.393,549.439 710.413,547.407 716.332,545.253 722.142,542.98 727.838,540.59 733.415,538.084 738.866,535.466 744.186,532.739 749.371,529.904 754.414,526.965 759.312,523.924 764.058,520.785 768.648,517.551 773.078,514.225 777.344,510.811 781.44,507.311 785.363,503.729 789.109,500.069 792.675,496.334 796.056,492.529 799.249,488.657 802.251,484.721 805.06,480.727 807.672,476.676 810.085,472.575 812.296,468.427 814.303,464.235 816.104,460.005 817.698,455.74 819.082,451.445 820.256,447.123 821.218,442.78 821.967,438.42 822.503,434.046 822.824,429.664 822.932,425.277 "/>
<polyline clip-path="url(#clip312)" style="stroke:#3da44d; stroke-linecap:round; stroke-linejoin:round; stroke-width:4; stroke-opacity:1; fill:none" points="2352.76,780.547 2352.54,780.865 2352.33,781.196 2352.1,781.54 2351.86,781.897 2351.62,782.268 2351.36,782.654 2351.09,783.056 2350.82,783.472 2350.53,783.906 2350.23,784.356 2349.92,784.824 2349.6,785.31 2349.26,785.816 2348.92,786.341 2348.55,786.887 2348.18,787.454 2347.79,788.044 2347.38,788.657 2346.96,789.294 2346.52,789.956 2346.07,790.644 2345.59,791.359 2345.1,792.102 2344.59,792.875 2344.05,793.678 2343.5,794.512 2342.93,795.379 2342.33,796.281 2341.71,797.218 2341.06,798.192 2340.39,799.205 2339.69,800.257 2338.97,801.351 2338.22,802.488 2337.43,803.671 2336.62,804.899 2335.77,806.177 2334.89,807.505 2333.97,808.886 2333.02,810.321 2332.03,811.814 2331,813.365 2329.93,814.979 2328.82,816.656 2327.66,818.401 2326.46,820.215 2325.21,822.101 2323.9,824.063 2322.55,826.104 2321.14,828.226 2319.67,830.434 2318.14,832.731 2316.55,835.12 2314.9,837.605 2313.18,840.192 2311.39,842.883 2309.52,845.684 2307.57,848.6 2305.55,851.635 2303.44,854.794 2301.24,858.084 2298.94,861.509 2296.55,865.077 2294.05,868.794 2291.45,872.666 2288.73,876.701 2285.89,880.906 2282.93,885.29 2279.83,889.862 2276.58,894.629 2273.19,899.603 2269.64,904.793 2265.91,910.21 2262.01,915.866 2257.91,921.774 2253.61,927.946 2249.08,934.396 2244.32,941.141 2239.3,948.195 2234,955.576 2228.41,963.302 2222.49,971.393 2216.22,979.87 2209.57,988.755 2202.49,998.072 2194.96,1007.85 2186.92,1018.11 2178.31,1028.88 2169.09,1040.2 2159.18,1052.1 2148.5,1064.6 2136.96,1077.75 2124.46,1091.59 2110.89,1106.14 2096.09,1121.46 2079.91,1137.57 2062.17,1154.5 2042.66,1172.3 2021.13,1190.98 1997.3,1210.55 1970.85,1231.02 1941.39,1252.38 1908.51,1274.56 1871.73,1297.48 1830.51,1321.01 1784.24,1344.94 1732.29,1368.97 1673.97,1392.72 1608.6,1415.64 1535.54,1437.03 1454.25,1456 1364.41,1471.45 1266.03,1482.09 1159.62,1486.45 1046.31,1482.95 928.036,1470.05 807.589,1446.44 688.566,1411.24 575.162,1364.24 471.774,1306.08 382.49,1238.29 310.553,1163.21 257.937,1083.67 225.155,1002.72 211.325,923.221 214.447,847.554 231.815,777.487 260.419,714.122 297.298,657.967 339.763,609.051 385.536,567.058 432.779,531.457 480.085,501.602 526.424,476.809 571.078,456.407 613.581,439.768 653.655,426.323 691.167,415.569 726.085,407.07 758.446,400.449 788.337,395.389 815.876,391.617 841.195,388.909 864.438,387.072 885.748,385.948 905.268,385.405 923.134,385.331 939.478,385.634 954.421,386.238 968.077,387.08 980.554,388.106 991.949,389.274 1002.35,390.546 1011.85,391.893 1020.51,393.291 1028.41,394.718 1035.62,396.159 1042.18,397.599 1048.16,399.027 1053.6,400.435 1058.54,401.814 1063.04,403.16 1067.12,404.467 1070.83,405.731 1074.18,406.952 1077.22,408.125 1079.97,409.25 1082.45,410.326 1084.69,411.353 1086.7,412.33 1088.51,413.258 1090.13,414.137 1091.59,414.968 1092.89,415.752 1094.05,416.49 1095.08,417.184 1096,417.833 1096.81,418.442 1097.53,419.009 1098.16,419.538 1098.71,420.03 1099.2,420.486 1099.63,420.909 1100,421.299 1100.33,421.66 1100.61,421.992 1100.85,422.297 1101.06,422.577 1101.24,422.833 1101.39,423.068 1101.52,423.282 1101.63,423.477 1101.72,423.654 1101.8,423.816 1101.87,423.962 1101.92,424.095 1101.97,424.215 1102.01,424.324 1102.04,424.422 1102.06,424.51 1102.08,424.59 1102.1,424.662 1102.11,424.726 1102.12,424.784 1102.12,424.837 1102.13,424.883 1102.13,424.925 1102.13,424.963 1102.14,424.997 1102.14,425.027 1102.13,425.054 1102.13,425.078 1102.13,425.099 1102.13,425.118 1102.13,425.136 1102.13,425.151 1102.13,425.165 1102.12,425.177 1102.12,425.188 1102.12,425.198 1102.12,425.206 1102.12,425.214 1102.12,425.221 1102.11,425.227 1102.11,425.232 1102.11,425.237 1102.11,425.242 1102.11,425.245 1102.11,425.249 1102.11,425.252 1102.11,425.255 1102.1,425.257 1102.1,425.259 1102.1,425.261 1102.1,425.263 1102.1,425.264 1102.1,425.266 1102.1,425.267 1102.1,425.268 1102.1,425.269 1102.1,425.27 1102.1,425.271 1102.1,425.271 1102.1,425.272 1102.1,425.272 1102.1,425.273 1102.1,425.273 1102.1,425.274 1102.1,425.274 1102.1,425.274 1102.1,425.275 1102.1,425.275 1102.1,425.275 1102.1,425.275 1102.1,425.275 1102.1,425.276 1102.1,425.276 1102.1,425.276 1102.1,425.276 1102.1,425.276 1102.1,425.276 1102.1,425.276 1102.1,425.276 1102.1,425.276 1102.1,425.276 1102.1,425.276 1102.1,425.276 1102.1,425.276 1102.1,425.277 1102.1,425.277 1102.1,425.277 1102.1,425.277 1102.1,425.277 1102.1,425.277 1102.1,425.277 1102.1,425.277 1102.1,425.277 1102.1,425.277 1102.1,425.277 1102.1,425.277 1102.1,425.277 1102.1,425.277 1102.1,425.277 1102.1,425.277 1102.1,425.277 1102.1,425.277 1102.1,425.277 1102.1,425.277 1102.1,425.277 1102.1,425.277 1102.1,425.277 1102.1,425.277 1102.1,425.277 1102.1,425.277 1102.1,425.277 1102.1,425.277 1102.1,425.277 1102.1,425.277 1102.1,425.277 1102.1,425.277 1102.1,425.277 1102.1,425.277 1102.1,425.277 1102.1,425.277 1102.1,425.277 1102.1,425.277 1102.1,425.277 1102.1,425.277 1102.1,425.277 1102.1,425.277 1102.1,425.277 1102.1,425.277 1102.1,425.277 1102.1,425.277 1102.1,425.277 1102.1,425.277 1102.1,425.277 1102.1,425.277 1102.1,425.277 1102.1,425.277 1102.1,425.277 1102.1,425.277 1102.1,425.277 1102.1,425.277 1102.1,425.277 1102.1,425.277 1102.1,425.277 1102.1,425.277 1102.1,425.277 1102.1,425.277 1102.1,425.277 1102.1,425.277 1102.1,425.277 1102.1,425.277 1102.1,425.277 1102.1,425.277 1102.1,425.277 1102.1,425.277 1102.1,425.277 1102.1,425.277 1102.1,425.277 1102.1,425.277 1102.1,425.277 1102.1,425.277 1102.1,425.277 1102.1,425.277 1102.1,425.277 1102.1,425.277 1102.1,425.277 1102.1,425.277 1102.1,425.277 1102.1,425.277 1102.1,425.277 1102.1,425.277 1102.1,425.277 1102.1,425.277 1102.1,425.277 1102.1,425.277 1102.1,425.277 "/>
<line clip-path="url(#clip312)" x1="657.055" y1="425.277" x2="637.055" y2="405.277" style="stroke:#ff0000; stroke-width:4; stroke-opacity:1"/>
<line clip-path="url(#clip312)" x1="657.055" y1="425.277" x2="637.055" y2="445.277" style="stroke:#ff0000; stroke-width:4; stroke-opacity:1"/>
<line clip-path="url(#clip312)" x1="657.055" y1="425.277" x2="677.055" y2="445.277" style="stroke:#ff0000; stroke-width:4; stroke-opacity:1"/>
<line clip-path="url(#clip312)" x1="657.055" y1="425.277" x2="677.055" y2="405.277" style="stroke:#ff0000; stroke-width:4; stroke-opacity:1"/>
<path clip-path="url(#clip310)" d="M282.706 1441.02 L724.463 1441.02 L724.463 1285.5 L282.706 1285.5  Z" fill="#ffffff" fill-rule="evenodd" fill-opacity="1"/>
<polyline clip-path="url(#clip310)" style="stroke:#000000; stroke-linecap:round; stroke-linejoin:round; stroke-width:4; stroke-opacity:1; fill:none" points="282.706,1441.02 724.463,1441.02 724.463,1285.5 282.706,1285.5 282.706,1441.02 "/>
<path clip-path="url(#clip310)" d="M306.499 1358.07 L449.261 1358.07 L449.261 1316.6 L306.499 1316.6 L306.499 1358.07  Z" fill="#e26f46" fill-rule="evenodd" fill-opacity="0.5"/>
<polyline clip-path="url(#clip310)" style="stroke:#e26f46; stroke-linecap:round; stroke-linejoin:round; stroke-width:4; stroke-opacity:1; fill:none" points="306.499,1316.6 449.261,1316.6 "/>
<path clip-path="url(#clip310)" d="M484.953 1332.07 Q481.435 1332.07 479.537 1334.62 Q477.546 1337.28 477.546 1341.68 Q477.546 1346.33 479.513 1349.01 Q481.504 1351.68 484.953 1351.68 Q488.356 1351.68 490.347 1348.99 Q492.337 1346.31 492.337 1341.68 Q492.337 1337.44 490.347 1334.62 Q488.518 1332.07 484.953 1332.07 M484.953 1328.69 L499.097 1328.69 L499.097 1332.95 L494.328 1332.95 Q496.851 1336.56 496.851 1341.68 Q496.851 1348.04 493.68 1351.65 Q490.509 1355.29 484.953 1355.29 Q479.375 1355.29 476.226 1351.65 Q473.055 1348.04 473.055 1341.68 Q473.055 1335.26 476.226 1331.68 Q478.842 1328.69 484.953 1328.69 Z" fill="#000000" fill-rule="nonzero" fill-opacity="1" /><path clip-path="url(#clip310)" d="M520.578 1333.09 L550.254 1333.09 L550.254 1336.98 L520.578 1336.98 L520.578 1333.09 M520.578 1342.53 L550.254 1342.53 L550.254 1346.47 L520.578 1346.47 L520.578 1342.53 Z" fill="#000000" fill-rule="nonzero" fill-opacity="1" /><path clip-path="url(#clip310)" d="M585.416 1323.13 Q581.805 1323.13 579.976 1326.7 Q578.17 1330.24 578.17 1337.37 Q578.17 1344.48 579.976 1348.04 Q581.805 1351.58 585.416 1351.58 Q589.05 1351.58 590.855 1348.04 Q592.684 1344.48 592.684 1337.37 Q592.684 1330.24 590.855 1326.7 Q589.05 1323.13 585.416 1323.13 M585.416 1319.43 Q591.226 1319.43 594.281 1324.04 Q597.36 1328.62 597.36 1337.37 Q597.36 1346.1 594.281 1350.7 Q591.226 1355.29 585.416 1355.29 Q579.605 1355.29 576.527 1350.7 Q573.471 1346.1 573.471 1337.37 Q573.471 1328.62 576.527 1324.04 Q579.605 1319.43 585.416 1319.43 Z" fill="#000000" fill-rule="nonzero" fill-opacity="1" /><polyline clip-path="url(#clip310)" style="stroke:#3da44d; stroke-linecap:round; stroke-linejoin:round; stroke-width:4; stroke-opacity:1; fill:none" points="306.499,1389.18 449.261,1389.18 "/>
<path clip-path="url(#clip310)" d="M477.338 1402.57 L477.338 1416.32 L473.055 1416.32 L473.055 1380.53 L477.338 1380.53 L477.338 1384.46 Q478.68 1382.15 480.717 1381.04 Q482.777 1379.9 485.625 1379.9 Q490.347 1379.9 493.287 1383.65 Q496.249 1387.4 496.249 1393.52 Q496.249 1399.63 493.287 1403.38 Q490.347 1407.13 485.625 1407.13 Q482.777 1407.13 480.717 1406.02 Q478.68 1404.88 477.338 1402.57 M491.828 1393.52 Q491.828 1388.82 489.884 1386.15 Q487.962 1383.47 484.583 1383.47 Q481.203 1383.47 479.259 1386.15 Q477.338 1388.82 477.338 1393.52 Q477.338 1398.21 479.259 1400.9 Q481.203 1403.56 484.583 1403.56 Q487.962 1403.56 489.884 1400.9 Q491.828 1398.21 491.828 1393.52 Z" fill="#000000" fill-rule="nonzero" fill-opacity="1" /><path clip-path="url(#clip310)" d="M525.485 1392.43 L525.485 1394.51 L505.902 1394.51 Q506.18 1398.91 508.541 1401.22 Q510.925 1403.52 515.161 1403.52 Q517.615 1403.52 519.907 1402.91 Q522.222 1402.31 524.49 1401.11 L524.49 1405.14 Q522.198 1406.11 519.791 1406.62 Q517.384 1407.13 514.907 1407.13 Q508.703 1407.13 505.069 1403.52 Q501.458 1399.9 501.458 1393.75 Q501.458 1387.38 504.884 1383.65 Q508.333 1379.9 514.166 1379.9 Q519.397 1379.9 522.43 1383.28 Q525.485 1386.64 525.485 1392.43 M521.226 1391.18 Q521.18 1387.68 519.259 1385.6 Q517.36 1383.52 514.212 1383.52 Q510.648 1383.52 508.495 1385.53 Q506.365 1387.54 506.041 1391.2 L521.226 1391.18 Z" fill="#000000" fill-rule="nonzero" fill-opacity="1" /><path clip-path="url(#clip310)" d="M547.499 1384.51 Q546.782 1384.09 545.925 1383.91 Q545.092 1383.7 544.073 1383.7 Q540.462 1383.7 538.518 1386.06 Q536.596 1388.4 536.596 1392.8 L536.596 1406.46 L532.314 1406.46 L532.314 1380.53 L536.596 1380.53 L536.596 1384.56 Q537.939 1382.2 540.092 1381.06 Q542.245 1379.9 545.323 1379.9 Q545.763 1379.9 546.295 1379.97 Q546.828 1380.02 547.476 1380.14 L547.499 1384.51 Z" fill="#000000" fill-rule="nonzero" fill-opacity="1" /><path clip-path="url(#clip310)" d="M556.18 1373.17 L556.18 1380.53 L564.953 1380.53 L564.953 1383.84 L556.18 1383.84 L556.18 1397.91 Q556.18 1401.09 557.036 1401.99 Q557.916 1402.89 560.578 1402.89 L564.953 1402.89 L564.953 1406.46 L560.578 1406.46 Q555.647 1406.46 553.772 1404.63 Q551.897 1402.77 551.897 1397.91 L551.897 1383.84 L548.772 1383.84 L548.772 1380.53 L551.897 1380.53 L551.897 1373.17 L556.18 1373.17 Z" fill="#000000" fill-rule="nonzero" fill-opacity="1" /><path clip-path="url(#clip310)" d="M570.115 1396.22 L570.115 1380.53 L574.374 1380.53 L574.374 1396.06 Q574.374 1399.74 575.809 1401.59 Q577.244 1403.42 580.115 1403.42 Q583.564 1403.42 585.555 1401.22 Q587.568 1399.02 587.568 1395.23 L587.568 1380.53 L591.828 1380.53 L591.828 1406.46 L587.568 1406.46 L587.568 1402.47 Q586.017 1404.83 583.957 1405.99 Q581.92 1407.13 579.212 1407.13 Q574.744 1407.13 572.43 1404.35 Q570.115 1401.57 570.115 1396.22 M580.832 1379.9 L580.832 1379.9 Z" fill="#000000" fill-rule="nonzero" fill-opacity="1" /><path clip-path="url(#clip310)" d="M615.624 1384.51 Q614.906 1384.09 614.05 1383.91 Q613.216 1383.7 612.198 1383.7 Q608.587 1383.7 606.642 1386.06 Q604.721 1388.4 604.721 1392.8 L604.721 1406.46 L600.439 1406.46 L600.439 1380.53 L604.721 1380.53 L604.721 1384.56 Q606.064 1382.2 608.216 1381.06 Q610.369 1379.9 613.448 1379.9 Q613.888 1379.9 614.42 1379.97 Q614.953 1380.02 615.601 1380.14 L615.624 1384.51 Z" fill="#000000" fill-rule="nonzero" fill-opacity="1" /><path clip-path="url(#clip310)" d="M638.702 1393.52 Q638.702 1388.82 636.758 1386.15 Q634.837 1383.47 631.457 1383.47 Q628.077 1383.47 626.133 1386.15 Q624.212 1388.82 624.212 1393.52 Q624.212 1398.21 626.133 1400.9 Q628.077 1403.56 631.457 1403.56 Q634.837 1403.56 636.758 1400.9 Q638.702 1398.21 638.702 1393.52 M624.212 1384.46 Q625.554 1382.15 627.591 1381.04 Q629.652 1379.9 632.499 1379.9 Q637.221 1379.9 640.161 1383.65 Q643.124 1387.4 643.124 1393.52 Q643.124 1399.63 640.161 1403.38 Q637.221 1407.13 632.499 1407.13 Q629.652 1407.13 627.591 1406.02 Q625.554 1404.88 624.212 1402.57 L624.212 1406.46 L619.929 1406.46 L619.929 1370.44 L624.212 1370.44 L624.212 1384.46 Z" fill="#000000" fill-rule="nonzero" fill-opacity="1" /><path clip-path="url(#clip310)" d="M672.36 1392.43 L672.36 1394.51 L652.776 1394.51 Q653.054 1398.91 655.415 1401.22 Q657.8 1403.52 662.036 1403.52 Q664.489 1403.52 666.781 1402.91 Q669.096 1402.31 671.364 1401.11 L671.364 1405.14 Q669.073 1406.11 666.665 1406.62 Q664.258 1407.13 661.781 1407.13 Q655.577 1407.13 651.943 1403.52 Q648.332 1399.9 648.332 1393.75 Q648.332 1387.38 651.758 1383.65 Q655.207 1379.9 661.04 1379.9 Q666.272 1379.9 669.304 1383.28 Q672.36 1386.64 672.36 1392.43 M668.1 1391.18 Q668.054 1387.68 666.133 1385.6 Q664.235 1383.52 661.087 1383.52 Q657.522 1383.52 655.369 1385.53 Q653.239 1387.54 652.915 1391.2 L668.1 1391.18 Z" fill="#000000" fill-rule="nonzero" fill-opacity="1" /><path clip-path="url(#clip310)" d="M696.41 1384.46 L696.41 1370.44 L700.67 1370.44 L700.67 1406.46 L696.41 1406.46 L696.41 1402.57 Q695.068 1404.88 693.008 1406.02 Q690.971 1407.13 688.1 1407.13 Q683.401 1407.13 680.438 1403.38 Q677.498 1399.63 677.498 1393.52 Q677.498 1387.4 680.438 1383.65 Q683.401 1379.9 688.1 1379.9 Q690.971 1379.9 693.008 1381.04 Q695.068 1382.15 696.41 1384.46 M681.897 1393.52 Q681.897 1398.21 683.818 1400.9 Q685.762 1403.56 689.142 1403.56 Q692.522 1403.56 694.466 1400.9 Q696.41 1398.21 696.41 1393.52 Q696.41 1388.82 694.466 1386.15 Q692.522 1383.47 689.142 1383.47 Q685.762 1383.47 683.818 1386.15 Q681.897 1388.82 681.897 1393.52 Z" fill="#000000" fill-rule="nonzero" fill-opacity="1" /></svg>
