<?xml version="1.0" encoding="utf-8"?>
<svg xmlns="http://www.w3.org/2000/svg" xmlns:xlink="http://www.w3.org/1999/xlink" width="600" height="400" viewBox="0 0 2400 1600">
<defs>
  <clipPath id="clip970">
    <rect x="0" y="0" width="2400" height="1600"/>
  </clipPath>
</defs>
<path clip-path="url(#clip970)" d="M0 1600 L2400 1600 L2400 0 L0 0  Z" fill="#ffffff" fill-rule="evenodd" fill-opacity="1"/>
<defs>
  <clipPath id="clip971">
    <rect x="480" y="0" width="1681" height="1600"/>
  </clipPath>
</defs>
<path clip-path="url(#clip970)" d="M232.389 1423.18 L2352.76 1423.18 L2352.76 47.2441 L232.389 47.2441  Z" fill="#ffffff" fill-rule="evenodd" fill-opacity="1"/>
<defs>
  <clipPath id="clip972">
    <rect x="232" y="47" width="2121" height="1377"/>
  </clipPath>
</defs>
<polyline clip-path="url(#clip972)" style="stroke:#000000; stroke-linecap:round; stroke-linejoin:round; stroke-width:2; stroke-opacity:0.1; fill:none" points="292.4,1423.18 292.4,47.2441 "/>
<polyline clip-path="url(#clip972)" style="stroke:#000000; stroke-linecap:round; stroke-linejoin:round; stroke-width:2; stroke-opacity:0.1; fill:none" points="625.791,1423.18 625.791,47.2441 "/>
<polyline clip-path="url(#clip972)" style="stroke:#000000; stroke-linecap:round; stroke-linejoin:round; stroke-width:2; stroke-opacity:0.1; fill:none" points="959.182,1423.18 959.182,47.2441 "/>
<polyline clip-path="url(#clip972)" style="stroke:#000000; stroke-linecap:round; stroke-linejoin:round; stroke-width:2; stroke-opacity:0.1; fill:none" points="1292.57,1423.18 1292.57,47.2441 "/>
<polyline clip-path="url(#clip972)" style="stroke:#000000; stroke-linecap:round; stroke-linejoin:round; stroke-width:2; stroke-opacity:0.1; fill:none" points="1625.96,1423.18 1625.96,47.2441 "/>
<polyline clip-path="url(#clip972)" style="stroke:#000000; stroke-linecap:round; stroke-linejoin:round; stroke-width:2; stroke-opacity:0.1; fill:none" points="1959.35,1423.18 1959.35,47.2441 "/>
<polyline clip-path="url(#clip972)" style="stroke:#000000; stroke-linecap:round; stroke-linejoin:round; stroke-width:2; stroke-opacity:0.1; fill:none" points="2292.75,1423.18 2292.75,47.2441 "/>
<polyline clip-path="url(#clip970)" style="stroke:#000000; stroke-linecap:round; stroke-linejoin:round; stroke-width:4; stroke-opacity:1; fill:none" points="232.389,1423.18 2352.76,1423.18 "/>
<polyline clip-path="url(#clip970)" style="stroke:#000000; stroke-linecap:round; stroke-linejoin:round; stroke-width:4; stroke-opacity:1; fill:none" points="292.4,1423.18 292.4,1404.28 "/>
<polyline clip-path="url(#clip970)" style="stroke:#000000; stroke-linecap:round; stroke-linejoin:round; stroke-width:4; stroke-opacity:1; fill:none" points="625.791,1423.18 625.791,1404.28 "/>
<polyline clip-path="url(#clip970)" style="stroke:#000000; stroke-linecap:round; stroke-linejoin:round; stroke-width:4; stroke-opacity:1; fill:none" points="959.182,1423.18 959.182,1404.28 "/>
<polyline clip-path="url(#clip970)" style="stroke:#000000; stroke-linecap:round; stroke-linejoin:round; stroke-width:4; stroke-opacity:1; fill:none" points="1292.57,1423.18 1292.57,1404.28 "/>
<polyline clip-path="url(#clip970)" style="stroke:#000000; stroke-linecap:round; stroke-linejoin:round; stroke-width:4; stroke-opacity:1; fill:none" points="1625.96,1423.18 1625.96,1404.28 "/>
<polyline clip-path="url(#clip970)" style="stroke:#000000; stroke-linecap:round; stroke-linejoin:round; stroke-width:4; stroke-opacity:1; fill:none" points="1959.35,1423.18 1959.35,1404.28 "/>
<polyline clip-path="url(#clip970)" style="stroke:#000000; stroke-linecap:round; stroke-linejoin:round; stroke-width:4; stroke-opacity:1; fill:none" points="2292.75,1423.18 2292.75,1404.28 "/>
<path clip-path="url(#clip970)" d="M292.4 1454.1 Q288.789 1454.1 286.96 1457.66 Q285.154 1461.2 285.154 1468.33 Q285.154 1475.44 286.96 1479.01 Q288.789 1482.55 292.4 1482.55 Q296.034 1482.55 297.84 1479.01 Q299.668 1475.44 299.668 1468.33 Q299.668 1461.2 297.84 1457.66 Q296.034 1454.1 292.4 1454.1 M292.4 1450.39 Q298.21 1450.39 301.265 1455 Q304.344 1459.58 304.344 1468.33 Q304.344 1477.06 301.265 1481.67 Q298.21 1486.25 292.4 1486.25 Q286.59 1486.25 283.511 1481.67 Q280.455 1477.06 280.455 1468.33 Q280.455 1459.58 283.511 1455 Q286.59 1450.39 292.4 1450.39 Z" fill="#000000" fill-rule="nonzero" fill-opacity="1" /><path clip-path="url(#clip970)" d="M616.173 1481.64 L623.812 1481.64 L623.812 1455.28 L615.501 1456.95 L615.501 1452.69 L623.765 1451.02 L628.441 1451.02 L628.441 1481.64 L636.08 1481.64 L636.08 1485.58 L616.173 1485.58 L616.173 1481.64 Z" fill="#000000" fill-rule="nonzero" fill-opacity="1" /><path clip-path="url(#clip970)" d="M953.834 1481.64 L970.154 1481.64 L970.154 1485.58 L948.209 1485.58 L948.209 1481.64 Q950.872 1478.89 955.455 1474.26 Q960.061 1469.61 961.242 1468.27 Q963.487 1465.74 964.367 1464.01 Q965.27 1462.25 965.27 1460.56 Q965.27 1457.8 963.325 1456.07 Q961.404 1454.33 958.302 1454.33 Q956.103 1454.33 953.649 1455.09 Q951.219 1455.86 948.441 1457.41 L948.441 1452.69 Q951.265 1451.55 953.719 1450.97 Q956.172 1450.39 958.209 1450.39 Q963.58 1450.39 966.774 1453.08 Q969.969 1455.77 969.969 1460.26 Q969.969 1462.39 969.158 1464.31 Q968.371 1466.2 966.265 1468.8 Q965.686 1469.47 962.584 1472.69 Q959.483 1475.88 953.834 1481.64 Z" fill="#000000" fill-rule="nonzero" fill-opacity="1" /><path clip-path="url(#clip970)" d="M1296.82 1466.95 Q1300.18 1467.66 1302.05 1469.93 Q1303.95 1472.2 1303.95 1475.53 Q1303.95 1480.65 1300.43 1483.45 Q1296.91 1486.25 1290.43 1486.25 Q1288.26 1486.25 1285.94 1485.81 Q1283.65 1485.39 1281.2 1484.54 L1281.2 1480.02 Q1283.14 1481.16 1285.45 1481.74 Q1287.77 1482.32 1290.29 1482.32 Q1294.69 1482.32 1296.98 1480.58 Q1299.3 1478.84 1299.3 1475.53 Q1299.3 1472.48 1297.14 1470.77 Q1295.01 1469.03 1291.2 1469.03 L1287.17 1469.03 L1287.17 1465.19 L1291.38 1465.19 Q1294.83 1465.19 1296.66 1463.82 Q1298.49 1462.43 1298.49 1459.84 Q1298.49 1457.18 1296.59 1455.77 Q1294.71 1454.33 1291.2 1454.33 Q1289.27 1454.33 1287.07 1454.75 Q1284.88 1455.16 1282.24 1456.04 L1282.24 1451.88 Q1284.9 1451.14 1287.21 1450.77 Q1289.55 1450.39 1291.61 1450.39 Q1296.94 1450.39 1300.04 1452.83 Q1303.14 1455.23 1303.14 1459.35 Q1303.14 1462.22 1301.5 1464.21 Q1299.85 1466.18 1296.82 1466.95 Z" fill="#000000" fill-rule="nonzero" fill-opacity="1" /><path clip-path="url(#clip970)" d="M1628.97 1455.09 L1617.17 1473.54 L1628.97 1473.54 L1628.97 1455.09 M1627.75 1451.02 L1633.63 1451.02 L1633.63 1473.54 L1638.56 1473.54 L1638.56 1477.43 L1633.63 1477.43 L1633.63 1485.58 L1628.97 1485.58 L1628.97 1477.43 L1613.37 1477.43 L1613.37 1472.92 L1627.75 1451.02 Z" fill="#000000" fill-rule="nonzero" fill-opacity="1" /><path clip-path="url(#clip970)" d="M1949.63 1451.02 L1967.99 1451.02 L1967.99 1454.96 L1953.91 1454.96 L1953.91 1463.43 Q1954.93 1463.08 1955.95 1462.92 Q1956.97 1462.73 1957.99 1462.73 Q1963.78 1462.73 1967.16 1465.9 Q1970.54 1469.08 1970.54 1474.49 Q1970.54 1480.07 1967.06 1483.17 Q1963.59 1486.25 1957.27 1486.25 Q1955.1 1486.25 1952.83 1485.88 Q1950.58 1485.51 1948.17 1484.77 L1948.17 1480.07 Q1950.26 1481.2 1952.48 1481.76 Q1954.7 1482.32 1957.18 1482.32 Q1961.18 1482.32 1963.52 1480.21 Q1965.86 1478.1 1965.86 1474.49 Q1965.86 1470.88 1963.52 1468.77 Q1961.18 1466.67 1957.18 1466.67 Q1955.3 1466.67 1953.43 1467.08 Q1951.58 1467.5 1949.63 1468.38 L1949.63 1451.02 Z" fill="#000000" fill-rule="nonzero" fill-opacity="1" /><path clip-path="url(#clip970)" d="M2293.15 1466.44 Q2290 1466.44 2288.15 1468.59 Q2286.32 1470.74 2286.32 1474.49 Q2286.32 1478.22 2288.15 1480.39 Q2290 1482.55 2293.15 1482.55 Q2296.3 1482.55 2298.13 1480.39 Q2299.98 1478.22 2299.98 1474.49 Q2299.98 1470.74 2298.13 1468.59 Q2296.3 1466.44 2293.15 1466.44 M2302.43 1451.78 L2302.43 1456.04 Q2300.67 1455.21 2298.87 1454.77 Q2297.09 1454.33 2295.33 1454.33 Q2290.7 1454.33 2288.24 1457.45 Q2285.81 1460.58 2285.47 1466.9 Q2286.83 1464.89 2288.89 1463.82 Q2290.95 1462.73 2293.43 1462.73 Q2298.64 1462.73 2301.65 1465.9 Q2304.68 1469.05 2304.68 1474.49 Q2304.68 1479.82 2301.53 1483.03 Q2298.38 1486.25 2293.15 1486.25 Q2287.16 1486.25 2283.98 1481.67 Q2280.81 1477.06 2280.81 1468.33 Q2280.81 1460.14 2284.7 1455.28 Q2288.59 1450.39 2295.14 1450.39 Q2296.9 1450.39 2298.68 1450.74 Q2300.49 1451.09 2302.43 1451.78 Z" fill="#000000" fill-rule="nonzero" fill-opacity="1" /><path clip-path="url(#clip970)" d="M1162.74 1520.52 L1202.94 1520.52 L1202.94 1525.93 L1186.07 1525.93 L1186.07 1568.04 L1179.61 1568.04 L1179.61 1525.93 L1162.74 1525.93 L1162.74 1520.52 Z" fill="#000000" fill-rule="nonzero" fill-opacity="1" /><path clip-path="url(#clip970)" d="M1206.89 1532.4 L1212.75 1532.4 L1212.75 1568.04 L1206.89 1568.04 L1206.89 1532.4 M1206.89 1518.52 L1212.75 1518.52 L1212.75 1525.93 L1206.89 1525.93 L1206.89 1518.52 Z" fill="#000000" fill-rule="nonzero" fill-opacity="1" /><path clip-path="url(#clip970)" d="M1252.76 1539.24 Q1254.95 1535.29 1258.01 1533.41 Q1261.06 1531.54 1265.2 1531.54 Q1270.77 1531.54 1273.79 1535.45 Q1276.82 1539.33 1276.82 1546.53 L1276.82 1568.04 L1270.93 1568.04 L1270.93 1546.72 Q1270.93 1541.59 1269.11 1539.11 Q1267.3 1536.63 1263.58 1536.63 Q1259.03 1536.63 1256.38 1539.65 Q1253.74 1542.68 1253.74 1547.9 L1253.74 1568.04 L1247.85 1568.04 L1247.85 1546.72 Q1247.85 1541.56 1246.04 1539.11 Q1244.23 1536.63 1240.44 1536.63 Q1235.95 1536.63 1233.31 1539.68 Q1230.67 1542.71 1230.67 1547.9 L1230.67 1568.04 L1224.78 1568.04 L1224.78 1532.4 L1230.67 1532.4 L1230.67 1537.93 Q1232.67 1534.66 1235.47 1533.1 Q1238.27 1531.54 1242.12 1531.54 Q1246.01 1531.54 1248.71 1533.51 Q1251.45 1535.48 1252.76 1539.24 Z" fill="#000000" fill-rule="nonzero" fill-opacity="1" /><path clip-path="url(#clip970)" d="M1318.99 1548.76 L1318.99 1551.62 L1292.06 1551.62 Q1292.45 1557.67 1295.69 1560.85 Q1298.97 1564 1304.79 1564 Q1308.17 1564 1311.32 1563.17 Q1314.5 1562.35 1317.62 1560.69 L1317.62 1566.23 Q1314.47 1567.57 1311.16 1568.27 Q1307.85 1568.97 1304.44 1568.97 Q1295.91 1568.97 1290.92 1564 Q1285.95 1559.04 1285.95 1550.57 Q1285.95 1541.82 1290.66 1536.69 Q1295.41 1531.54 1303.43 1531.54 Q1310.62 1531.54 1314.79 1536.18 Q1318.99 1540.8 1318.99 1548.76 M1313.13 1547.04 Q1313.07 1542.23 1310.43 1539.37 Q1307.82 1536.5 1303.49 1536.5 Q1298.59 1536.5 1295.63 1539.27 Q1292.7 1542.04 1292.25 1547.07 L1313.13 1547.04 Z" fill="#000000" fill-rule="nonzero" fill-opacity="1" /><path clip-path="url(#clip970)" d="M1363.39 1518.58 Q1359.13 1525.9 1357.06 1533.06 Q1354.99 1540.23 1354.99 1547.58 Q1354.99 1554.93 1357.06 1562.16 Q1359.16 1569.35 1363.39 1576.64 L1358.3 1576.64 Q1353.52 1569.16 1351.14 1561.93 Q1348.78 1554.71 1348.78 1547.58 Q1348.78 1540.48 1351.14 1533.29 Q1353.49 1526.09 1358.3 1518.58 L1363.39 1518.58 Z" fill="#000000" fill-rule="nonzero" fill-opacity="1" /><path clip-path="url(#clip970)" d="M1397.48 1533.45 L1397.48 1538.98 Q1395 1537.71 1392.32 1537.07 Q1389.65 1536.44 1386.79 1536.44 Q1382.42 1536.44 1380.23 1537.77 Q1378.06 1539.11 1378.06 1541.79 Q1378.06 1543.82 1379.62 1545 Q1381.18 1546.15 1385.89 1547.2 L1387.9 1547.64 Q1394.14 1548.98 1396.75 1551.43 Q1399.39 1553.85 1399.39 1558.21 Q1399.39 1563.17 1395.44 1566.07 Q1391.53 1568.97 1384.65 1568.97 Q1381.79 1568.97 1378.67 1568.39 Q1375.58 1567.85 1372.14 1566.74 L1372.14 1560.69 Q1375.39 1562.38 1378.54 1563.24 Q1381.69 1564.07 1384.78 1564.07 Q1388.92 1564.07 1391.15 1562.66 Q1393.37 1561.23 1393.37 1558.65 Q1393.37 1556.27 1391.75 1554.99 Q1390.16 1553.72 1384.72 1552.54 L1382.68 1552.07 Q1377.24 1550.92 1374.82 1548.56 Q1372.4 1546.18 1372.4 1542.04 Q1372.4 1537.01 1375.96 1534.27 Q1379.53 1531.54 1386.08 1531.54 Q1389.33 1531.54 1392.2 1532.01 Q1395.06 1532.49 1397.48 1533.45 Z" fill="#000000" fill-rule="nonzero" fill-opacity="1" /><path clip-path="url(#clip970)" d="M1407.79 1518.58 L1412.88 1518.58 Q1417.66 1526.09 1420.01 1533.29 Q1422.4 1540.48 1422.4 1547.58 Q1422.4 1554.71 1420.01 1561.93 Q1417.66 1569.16 1412.88 1576.64 L1407.79 1576.64 Q1412.03 1569.35 1414.09 1562.16 Q1416.19 1554.93 1416.19 1547.58 Q1416.19 1540.23 1414.09 1533.06 Q1412.03 1525.9 1407.79 1518.58 Z" fill="#000000" fill-rule="nonzero" fill-opacity="1" /><polyline clip-path="url(#clip972)" style="stroke:#000000; stroke-linecap:round; stroke-linejoin:round; stroke-width:2; stroke-opacity:0.1; fill:none" points="232.389,1384.24 2352.76,1384.24 "/>
<polyline clip-path="url(#clip972)" style="stroke:#000000; stroke-linecap:round; stroke-linejoin:round; stroke-width:2; stroke-opacity:0.1; fill:none" points="232.389,1072.92 2352.76,1072.92 "/>
<polyline clip-path="url(#clip972)" style="stroke:#000000; stroke-linecap:round; stroke-linejoin:round; stroke-width:2; stroke-opacity:0.1; fill:none" points="232.389,761.607 2352.76,761.607 "/>
<polyline clip-path="url(#clip972)" style="stroke:#000000; stroke-linecap:round; stroke-linejoin:round; stroke-width:2; stroke-opacity:0.1; fill:none" points="232.389,450.291 2352.76,450.291 "/>
<polyline clip-path="url(#clip972)" style="stroke:#000000; stroke-linecap:round; stroke-linejoin:round; stroke-width:2; stroke-opacity:0.1; fill:none" points="232.389,138.975 2352.76,138.975 "/>
<polyline clip-path="url(#clip970)" style="stroke:#000000; stroke-linecap:round; stroke-linejoin:round; stroke-width:4; stroke-opacity:1; fill:none" points="232.389,1423.18 232.389,47.2441 "/>
<polyline clip-path="url(#clip970)" style="stroke:#000000; stroke-linecap:round; stroke-linejoin:round; stroke-width:4; stroke-opacity:1; fill:none" points="232.389,1384.24 251.287,1384.24 "/>
<polyline clip-path="url(#clip970)" style="stroke:#000000; stroke-linecap:round; stroke-linejoin:round; stroke-width:4; stroke-opacity:1; fill:none" points="232.389,1072.92 251.287,1072.92 "/>
<polyline clip-path="url(#clip970)" style="stroke:#000000; stroke-linecap:round; stroke-linejoin:round; stroke-width:4; stroke-opacity:1; fill:none" points="232.389,761.607 251.287,761.607 "/>
<polyline clip-path="url(#clip970)" style="stroke:#000000; stroke-linecap:round; stroke-linejoin:round; stroke-width:4; stroke-opacity:1; fill:none" points="232.389,450.291 251.287,450.291 "/>
<polyline clip-path="url(#clip970)" style="stroke:#000000; stroke-linecap:round; stroke-linejoin:round; stroke-width:4; stroke-opacity:1; fill:none" points="232.389,138.975 251.287,138.975 "/>
<path clip-path="url(#clip970)" d="M184.445 1370.04 Q180.834 1370.04 179.005 1373.6 Q177.2 1377.14 177.2 1384.27 Q177.2 1391.38 179.005 1394.94 Q180.834 1398.49 184.445 1398.49 Q188.079 1398.49 189.885 1394.94 Q191.713 1391.38 191.713 1384.27 Q191.713 1377.14 189.885 1373.6 Q188.079 1370.04 184.445 1370.04 M184.445 1366.33 Q190.255 1366.33 193.311 1370.94 Q196.389 1375.52 196.389 1384.27 Q196.389 1393 193.311 1397.61 Q190.255 1402.19 184.445 1402.19 Q178.635 1402.19 175.556 1397.61 Q172.501 1393 172.501 1384.27 Q172.501 1375.52 175.556 1370.94 Q178.635 1366.33 184.445 1366.33 Z" fill="#000000" fill-rule="nonzero" fill-opacity="1" /><path clip-path="url(#clip970)" d="M149.306 1086.27 L165.626 1086.27 L165.626 1090.2 L143.681 1090.2 L143.681 1086.27 Q146.343 1083.51 150.927 1078.88 Q155.533 1074.23 156.714 1072.89 Q158.959 1070.36 159.839 1068.63 Q160.741 1066.87 160.741 1065.18 Q160.741 1062.42 158.797 1060.69 Q156.876 1058.95 153.774 1058.95 Q151.575 1058.95 149.121 1059.72 Q146.691 1060.48 143.913 1062.03 L143.913 1057.31 Q146.737 1056.17 149.191 1055.6 Q151.644 1055.02 153.681 1055.02 Q159.052 1055.02 162.246 1057.7 Q165.44 1060.39 165.44 1064.88 Q165.44 1067.01 164.63 1068.93 Q163.843 1070.83 161.737 1073.42 Q161.158 1074.09 158.056 1077.31 Q154.954 1080.5 149.306 1086.27 Z" fill="#000000" fill-rule="nonzero" fill-opacity="1" /><path clip-path="url(#clip970)" d="M175.487 1055.64 L193.843 1055.64 L193.843 1059.58 L179.769 1059.58 L179.769 1068.05 Q180.788 1067.7 181.806 1067.54 Q182.825 1067.36 183.843 1067.36 Q189.63 1067.36 193.01 1070.53 Q196.389 1073.7 196.389 1079.11 Q196.389 1084.69 192.917 1087.8 Q189.445 1090.87 183.126 1090.87 Q180.95 1090.87 178.681 1090.5 Q176.436 1090.13 174.028 1089.39 L174.028 1084.69 Q176.112 1085.83 178.334 1086.38 Q180.556 1086.94 183.033 1086.94 Q187.038 1086.94 189.375 1084.83 Q191.713 1082.73 191.713 1079.11 Q191.713 1075.5 189.375 1073.4 Q187.038 1071.29 183.033 1071.29 Q181.158 1071.29 179.283 1071.71 Q177.431 1072.12 175.487 1073 L175.487 1055.64 Z" fill="#000000" fill-rule="nonzero" fill-opacity="1" /><path clip-path="url(#clip970)" d="M144.329 744.327 L162.686 744.327 L162.686 748.262 L148.612 748.262 L148.612 756.734 Q149.63 756.387 150.649 756.225 Q151.667 756.04 152.686 756.04 Q158.473 756.04 161.852 759.211 Q165.232 762.382 165.232 767.799 Q165.232 773.377 161.76 776.479 Q158.288 779.558 151.968 779.558 Q149.792 779.558 147.524 779.188 Q145.279 778.817 142.871 778.076 L142.871 773.377 Q144.954 774.512 147.177 775.067 Q149.399 775.623 151.876 775.623 Q155.88 775.623 158.218 773.516 Q160.556 771.41 160.556 767.799 Q160.556 764.188 158.218 762.081 Q155.88 759.975 151.876 759.975 Q150.001 759.975 148.126 760.391 Q146.274 760.808 144.329 761.688 L144.329 744.327 Z" fill="#000000" fill-rule="nonzero" fill-opacity="1" /><path clip-path="url(#clip970)" d="M184.445 747.405 Q180.834 747.405 179.005 750.97 Q177.2 754.512 177.2 761.641 Q177.2 768.748 179.005 772.313 Q180.834 775.854 184.445 775.854 Q188.079 775.854 189.885 772.313 Q191.713 768.748 191.713 761.641 Q191.713 754.512 189.885 750.97 Q188.079 747.405 184.445 747.405 M184.445 743.702 Q190.255 743.702 193.311 748.308 Q196.389 752.891 196.389 761.641 Q196.389 770.368 193.311 774.975 Q190.255 779.558 184.445 779.558 Q178.635 779.558 175.556 774.975 Q172.501 770.368 172.501 761.641 Q172.501 752.891 175.556 748.308 Q178.635 743.702 184.445 743.702 Z" fill="#000000" fill-rule="nonzero" fill-opacity="1" /><path clip-path="url(#clip970)" d="M144.098 433.011 L166.32 433.011 L166.32 435.002 L153.774 467.571 L148.89 467.571 L160.695 436.946 L144.098 436.946 L144.098 433.011 Z" fill="#000000" fill-rule="nonzero" fill-opacity="1" /><path clip-path="url(#clip970)" d="M175.487 433.011 L193.843 433.011 L193.843 436.946 L179.769 436.946 L179.769 445.418 Q180.788 445.071 181.806 444.909 Q182.825 444.724 183.843 444.724 Q189.63 444.724 193.01 447.895 Q196.389 451.066 196.389 456.483 Q196.389 462.062 192.917 465.163 Q189.445 468.242 183.126 468.242 Q180.95 468.242 178.681 467.872 Q176.436 467.501 174.028 466.761 L174.028 462.062 Q176.112 463.196 178.334 463.751 Q180.556 464.307 183.033 464.307 Q187.038 464.307 189.375 462.201 Q191.713 460.094 191.713 456.483 Q191.713 452.872 189.375 450.765 Q187.038 448.659 183.033 448.659 Q181.158 448.659 179.283 449.076 Q177.431 449.492 175.487 450.372 L175.487 433.011 Z" fill="#000000" fill-rule="nonzero" fill-opacity="1" /><path clip-path="url(#clip970)" d="M114.931 152.32 L122.57 152.32 L122.57 125.954 L114.26 127.621 L114.26 123.362 L122.524 121.695 L127.2 121.695 L127.2 152.32 L134.839 152.32 L134.839 156.255 L114.931 156.255 L114.931 152.32 Z" fill="#000000" fill-rule="nonzero" fill-opacity="1" /><path clip-path="url(#clip970)" d="M154.283 124.774 Q150.672 124.774 148.843 128.339 Q147.038 131.88 147.038 139.01 Q147.038 146.116 148.843 149.681 Q150.672 153.223 154.283 153.223 Q157.917 153.223 159.723 149.681 Q161.552 146.116 161.552 139.01 Q161.552 131.88 159.723 128.339 Q157.917 124.774 154.283 124.774 M154.283 121.07 Q160.093 121.07 163.149 125.677 Q166.227 130.26 166.227 139.01 Q166.227 147.737 163.149 152.343 Q160.093 156.926 154.283 156.926 Q148.473 156.926 145.394 152.343 Q142.339 147.737 142.339 139.01 Q142.339 130.26 145.394 125.677 Q148.473 121.07 154.283 121.07 Z" fill="#000000" fill-rule="nonzero" fill-opacity="1" /><path clip-path="url(#clip970)" d="M184.445 124.774 Q180.834 124.774 179.005 128.339 Q177.2 131.88 177.2 139.01 Q177.2 146.116 179.005 149.681 Q180.834 153.223 184.445 153.223 Q188.079 153.223 189.885 149.681 Q191.713 146.116 191.713 139.01 Q191.713 131.88 189.885 128.339 Q188.079 124.774 184.445 124.774 M184.445 121.07 Q190.255 121.07 193.311 125.677 Q196.389 130.26 196.389 139.01 Q196.389 147.737 193.311 152.343 Q190.255 156.926 184.445 156.926 Q178.635 156.926 175.556 152.343 Q172.501 147.737 172.501 139.01 Q172.501 130.26 175.556 125.677 Q178.635 121.07 184.445 121.07 Z" fill="#000000" fill-rule="nonzero" fill-opacity="1" /><path clip-path="url(#clip970)" d="M67.3143 733.525 Q73.68 736.008 75.6216 738.363 Q77.5631 740.718 77.5631 744.665 L77.5631 749.344 L72.6615 749.344 L72.6615 745.906 Q72.6615 743.487 71.5157 742.151 Q70.3699 740.814 66.1048 739.191 L63.4312 738.14 L28.3562 752.559 L28.3562 746.352 L56.238 735.212 L28.3562 724.072 L28.3562 717.865 L67.3143 733.525 Z" fill="#000000" fill-rule="nonzero" fill-opacity="1" /><polyline clip-path="url(#clip972)" style="stroke:#009af9; stroke-linecap:round; stroke-linejoin:round; stroke-width:4; stroke-opacity:1; fill:none" points="292.4,1384.24 302.401,1347.44 312.403,1311.72 322.405,1277.06 332.407,1243.42 342.408,1210.78 352.41,1179.11 362.412,1148.37 372.414,1118.53 382.415,1089.58 392.417,1061.49 402.419,1034.22 412.42,1007.77 422.422,982.089 432.424,957.171 442.426,932.99 452.427,909.523 462.429,886.75 472.431,864.65 482.433,843.203 492.434,822.39 502.436,802.192 512.438,782.591 522.439,763.569 532.441,745.11 542.443,727.196 552.445,709.811 562.446,692.94 572.448,676.568 582.45,660.68 592.452,645.261 602.453,630.298 612.455,615.777 622.457,601.686 632.459,588.011 642.46,574.74 652.462,561.861 662.464,549.363 672.465,537.234 682.467,525.464 692.469,514.041 702.471,502.956 712.472,492.199 722.474,481.76 732.476,471.629 742.478,461.797 752.479,452.257 762.481,442.998 772.483,434.012 782.484,425.293 792.486,416.831 802.488,408.619 812.49,400.65 822.491,392.916 832.493,385.411 842.495,378.128 852.497,371.06 862.498,364.201 872.5,357.544 882.502,351.084 892.503,344.816 902.505,338.732 912.507,332.828 922.509,327.099 932.51,321.539 942.512,316.144 952.514,310.908 962.516,305.826 972.517,300.895 982.519,296.11 992.521,291.466 1002.52,286.959 1012.52,282.585 1022.53,278.341 1032.53,274.222 1042.53,270.225 1052.53,266.346 1062.53,262.581 1072.53,258.928 1082.54,255.383 1092.54,251.943 1102.54,248.604 1112.54,245.364 1122.54,242.22 1132.54,239.168 1142.55,236.207 1152.55,233.334 1162.55,230.545 1172.55,227.839 1182.55,225.212 1192.56,222.664 1202.56,220.19 1212.56,217.79 1222.56,215.461 1232.56,213.2 1242.56,211.006 1252.57,208.878 1262.57,206.812 1272.57,204.807 1282.57,202.861 1292.57,200.973 1302.57,199.141 1312.58,197.363 1322.58,195.637 1332.58,193.962 1342.58,192.337 1352.58,190.76 1362.58,189.23 1372.59,187.744 1382.59,186.303 1392.59,184.904 1402.59,183.547 1412.59,182.23 1422.6,180.951 1432.6,179.711 1442.6,178.507 1452.6,177.338 1462.6,176.205 1472.6,175.104 1482.61,174.037 1492.61,173 1502.61,171.995 1512.61,171.019 1522.61,170.072 1532.61,169.153 1542.62,168.261 1552.62,167.395 1562.62,166.555 1572.62,165.74 1582.62,164.949 1592.62,164.182 1602.63,163.437 1612.63,162.714 1622.63,162.012 1632.63,161.331 1642.63,160.671 1652.63,160.029 1662.64,159.407 1672.64,158.803 1682.64,158.217 1692.64,157.649 1702.64,157.097 1712.65,156.561 1722.65,156.041 1732.65,155.537 1742.65,155.047 1752.65,154.572 1762.65,154.111 1772.66,153.664 1782.66,153.23 1792.66,152.809 1802.66,152.4 1812.66,152.003 1822.66,151.618 1832.67,151.244 1842.67,150.882 1852.67,150.53 1862.67,150.188 1872.67,149.857 1882.67,149.535 1892.68,149.223 1902.68,148.92 1912.68,148.626 1922.68,148.341 1932.68,148.064 1942.69,147.796 1952.69,147.535 1962.69,147.282 1972.69,147.037 1982.69,146.798 1992.69,146.567 2002.7,146.343 2012.7,146.125 2022.7,145.914 2032.7,145.709 2042.7,145.51 2052.7,145.316 2062.71,145.129 2072.71,144.947 2082.71,144.771 2092.71,144.599 2102.71,144.433 2112.71,144.272 2122.72,144.115 2132.72,143.963 2142.72,143.816 2152.72,143.673 2162.72,143.534 2172.72,143.399 2182.73,143.269 2192.73,143.142 2202.73,143.019 2212.73,142.899 2222.73,142.783 2232.74,142.671 2242.74,142.561 2252.74,142.455 2262.74,142.352 2272.74,142.253 2282.74,142.156 2292.75,142.062 "/>
<polyline clip-path="url(#clip972)" style="stroke:#e26f46; stroke-linecap:round; stroke-linejoin:round; stroke-width:4; stroke-opacity:1; fill:none" points="292.4,1384.24 293.1,1384.24 293.8,1384.22 294.5,1384.17 295.2,1384.07 295.9,1383.93 296.6,1383.72 297.301,1383.45 298.001,1383.11 298.701,1382.69 299.401,1382.19 300.101,1381.62 300.801,1380.97 301.501,1380.24 302.201,1379.43 302.902,1378.54 303.602,1377.57 304.302,1376.53 305.002,1375.42 305.702,1374.24 306.402,1372.99 307.102,1371.67 307.802,1370.29 308.503,1368.84 309.203,1367.34 309.903,1365.79 310.603,1364.18 311.303,1362.52 312.003,1360.81 312.703,1359.06 313.403,1357.26 314.103,1355.42 314.804,1353.54 315.504,1351.63 316.204,1349.69 316.904,1347.71 317.604,1345.7 318.304,1343.66 319.004,1341.6 319.704,1339.51 320.405,1337.4 321.105,1335.27 321.805,1333.12 322.505,1330.95 323.205,1328.77 323.905,1326.57 324.605,1324.35 325.305,1322.12 326.006,1319.88 326.706,1317.63 327.406,1315.37 328.106,1313.1 328.806,1310.82 329.506,1308.53 330.206,1306.24 330.906,1303.94 331.606,1301.63 332.307,1299.33 333.007,1297.01 333.707,1294.7 334.407,1292.38 335.107,1290.06 335.807,1287.73 336.507,1285.41 337.207,1283.09 337.908,1280.76 338.608,1278.43 339.308,1276.11 340.008,1273.78 340.708,1271.46 341.408,1269.13 342.108,1266.81 342.808,1264.49 343.509,1262.17 344.209,1259.85 344.909,1257.54 345.609,1255.23 346.309,1252.92 347.009,1250.61 347.709,1248.3 348.409,1246 349.11,1243.7 349.81,1241.41 350.51,1239.12 351.21,1236.83 351.91,1234.54 352.61,1232.26 353.31,1229.98 354.01,1227.71 354.71,1225.43 355.411,1223.17 356.111,1220.9 356.811,1218.65 357.511,1216.39 358.211,1214.14 358.911,1211.89 359.611,1209.65 360.311,1207.41 361.012,1205.17 361.712,1202.94 362.412,1200.72 363.112,1198.5 363.812,1196.28 364.512,1194.07 365.212,1191.86 365.912,1189.65 366.613,1187.45 367.313,1185.25 368.013,1183.06 368.713,1180.88 369.413,1178.69 370.113,1176.51 370.813,1174.34 371.513,1172.17 372.214,1170 372.914,1167.84 373.614,1165.69 374.314,1163.53 375.014,1161.39 375.714,1159.24 376.414,1157.1 377.114,1154.97 377.814,1152.84 378.515,1150.71 379.215,1148.59 379.915,1146.47 380.615,1144.36 381.315,1142.25 382.015,1140.15 382.715,1138.05 383.415,1135.95 384.116,1133.86 384.816,1131.78 385.516,1129.69 386.216,1127.62 386.916,1125.54 387.616,1123.47 388.316,1121.41 389.016,1119.35 389.717,1117.29 390.417,1115.24 391.117,1113.19 391.817,1111.15 392.517,1109.11 393.217,1107.07 393.917,1105.04 394.617,1103.02 395.318,1101 396.018,1098.98 396.718,1096.96 397.418,1094.95 398.118,1092.95 398.818,1090.95 399.518,1088.95 400.218,1086.96 400.918,1084.97 401.619,1082.99 402.319,1081 403.019,1079.03 403.719,1077.06 404.419,1075.09 405.119,1073.13 405.819,1071.17 406.519,1069.21 407.22,1067.26 407.92,1065.31 408.62,1063.37 409.32,1061.43 410.02,1059.49 410.72,1057.56 411.42,1055.64 412.12,1053.71 412.821,1051.79 413.521,1049.88 414.221,1047.97 414.921,1046.06 415.621,1044.16 416.321,1042.26 417.021,1040.36 417.721,1038.47 418.422,1036.59 419.122,1034.7 419.822,1032.82 420.522,1030.95 421.222,1029.08 421.922,1027.21 422.622,1025.35 423.322,1023.49 424.022,1021.63 424.723,1019.78 425.423,1017.93 426.123,1016.09 426.823,1014.25 427.523,1012.41 428.223,1010.58 428.923,1008.75 429.623,1006.93 430.324,1005.11 431.024,1003.29 431.724,1001.48 432.424,999.668 433.124,997.862 433.824,996.061 434.524,994.263 435.224,992.468 435.925,990.678 436.625,988.891 437.325,987.108 438.025,985.329 438.725,983.554 439.425,981.782 440.125,980.014 440.825,978.25 441.526,976.489 442.226,974.732 442.926,972.979 443.626,971.229 444.326,969.483 445.026,967.741 445.726,966.002 446.426,964.268 447.126,962.536 447.827,960.809 448.527,959.085 449.227,957.364 449.927,955.647 450.627,953.934 451.327,952.224 452.027,950.518 452.727,948.816 453.428,947.117 454.128,945.422 454.828,943.73 455.528,942.042 456.228,940.357 456.928,938.676 457.628,936.998 458.328,935.324 459.029,933.654 459.729,931.987 460.429,930.323 461.129,928.663 461.829,927.006 462.529,925.353 463.229,923.704 463.929,922.057 464.629,920.415 465.33,918.775 466.03,917.139 466.73,915.507 467.43,913.878 468.13,912.252 468.83,910.63 469.53,909.011 470.23,907.396 470.931,905.784 471.631,904.176 472.331,902.57 473.031,900.968 473.731,899.37 474.431,897.775 475.131,896.183 475.831,894.594 476.532,893.009 477.232,891.428 477.932,889.849 478.632,888.274 479.332,886.702 480.032,885.133 480.732,883.568 481.432,882.006 482.133,880.447 482.833,878.892 483.533,877.34 484.233,875.791 484.933,874.245 485.633,872.703 486.333,871.163 487.033,869.627 487.733,868.095 488.434,866.565 489.134,865.039 489.834,863.516 490.534,861.996 491.234,860.479 491.934,858.965 492.634,857.455 493.334,855.948 494.035,854.444 494.735,852.943 495.435,851.445 496.135,849.95 496.835,848.459 497.535,846.971 498.235,845.485 498.935,844.003 499.636,842.524 500.336,841.048 501.036,839.576 501.736,838.106 502.436,836.639 503.136,835.176 503.836,833.715 504.536,832.258 505.237,830.803 505.937,829.352 506.637,827.904 507.337,826.459 508.037,825.016 508.737,823.577 509.437,822.141 510.137,820.708 510.837,819.278 511.538,817.851 512.238,816.426 512.938,815.005 513.638,813.587 514.338,812.172 515.038,810.76 515.738,809.35 516.438,807.944 517.139,806.541 517.839,805.14 518.539,803.743 519.239,802.348 519.939,800.957 520.639,799.568 521.339,798.182 522.039,796.799 522.74,795.419 523.44,794.042 524.14,792.668 524.84,791.297 525.54,789.928 526.24,788.563 526.94,787.2 527.64,785.84 528.341,784.483 529.041,783.129 529.741,781.778 530.441,780.429 531.141,779.084 531.841,777.741 532.541,776.401 533.241,775.064 533.941,773.729 534.642,772.398 535.342,771.069 536.042,769.743 536.742,768.42 537.442,767.099 538.142,765.782 538.842,764.467 539.542,763.154 540.243,761.845 540.943,760.538 541.643,759.234 542.343,757.933 543.043,756.635 543.743,755.339 544.443,754.046 545.143,752.756 545.844,751.468 546.544,750.183 547.244,748.901 547.944,747.622 548.644,746.345 549.344,745.071 550.044,743.799 550.744,742.53 551.445,741.264 552.145,740.001 552.845,738.74 553.545,737.482 554.245,736.226 554.945,734.973 555.645,733.723 556.345,732.475 557.045,731.23 557.746,729.988 558.446,728.748 559.146,727.511 559.846,726.276 560.546,725.044 561.246,723.815 561.946,722.588 562.646,721.364 563.347,720.142 564.047,718.923 564.747,717.706 565.447,716.492 566.147,715.281 566.847,714.072 567.547,712.865 568.247,711.661 568.948,710.46 569.648,709.261 570.348,708.065 571.048,706.871 571.748,705.679 572.448,704.491 573.148,703.304 573.848,702.12 574.548,700.939 575.249,699.76 575.949,698.584 576.649,697.41 577.349,696.238 578.049,695.069 578.749,693.903 579.449,692.739 580.149,691.577 580.85,690.418 581.55,689.261 582.25,688.106 582.95,686.955 583.65,685.805 584.35,684.658 585.05,683.513 585.75,682.371 586.451,681.231 587.151,680.093 587.851,678.958 588.551,677.825 589.251,676.695 589.951,675.567 590.651,674.441 591.351,673.318 592.052,672.197 592.752,671.078 593.452,669.962 594.152,668.848 594.852,667.737 595.552,666.628 596.252,665.521 596.952,664.416 597.652,663.314 598.353,662.214 599.053,661.116 599.753,660.021 600.453,658.928 601.153,657.837 601.853,656.749 602.553,655.662 603.253,654.578 603.954,653.497 604.654,652.417 605.354,651.34 606.054,650.266 606.754,649.193 607.454,648.123 608.154,647.055 608.854,645.989 609.555,644.925 610.255,643.864 610.955,642.805 611.655,641.748 612.355,640.693 613.055,639.64 613.755,638.59 614.455,637.542 615.156,636.496 615.856,635.452 616.556,634.411 617.256,633.372 617.956,632.334 618.656,631.299 619.356,630.267 620.056,629.236 620.756,628.208 621.457,627.181 622.157,626.157 622.857,625.135 623.557,624.115 624.257,623.097 624.957,622.082 625.657,621.068 626.357,620.057 627.058,619.048 627.758,618.041 628.458,617.036 629.158,616.033 629.858,615.032 630.558,614.034 631.258,613.037 631.958,612.042 632.659,611.05 633.359,610.06 634.059,609.071 634.759,608.085 635.459,607.101 636.159,606.119 636.859,605.139 637.559,604.161 638.26,603.185 638.96,602.212 639.66,601.24 640.36,600.27 641.06,599.302 641.76,598.337 642.46,597.373 643.16,596.411 643.86,595.452 644.561,594.494 645.261,593.539 645.961,592.585 646.661,591.633 647.361,590.684 648.061,589.736 648.761,588.791 649.461,587.847 650.162,586.905 650.862,585.966 651.562,585.028 652.262,584.092 652.962,583.159 653.662,582.227 654.362,581.297 655.062,580.369 655.763,579.443 656.463,578.519 657.163,577.597 657.863,576.677 658.563,575.759 659.263,574.842 659.963,573.928 660.663,573.016 661.364,572.105 662.064,571.196 662.764,570.29 663.464,569.385 664.164,568.482 664.864,567.581 665.564,566.682 666.264,565.785 666.964,564.889 667.665,563.996 668.365,563.104 669.065,562.214 669.765,561.327 670.465,560.441 671.165,559.556 671.865,558.674 672.565,557.794 673.266,556.915 673.966,556.038 674.666,555.163 675.366,554.29 676.066,553.419 676.766,552.55 677.466,551.682 678.166,550.816 678.867,549.952 679.567,549.09 680.267,548.23 680.967,547.371 681.667,546.515 682.367,545.66 683.067,544.806 683.767,543.955 684.468,543.106 685.168,542.258 685.868,541.412 686.568,540.568 687.268,539.725 687.968,538.884 688.668,538.045 689.368,537.208 690.068,536.373 690.769,535.539 691.469,534.707 692.169,533.877 692.869,533.049 693.569,532.222 694.269,531.397 694.969,530.574 695.669,529.752 696.37,528.933 697.07,528.115 697.77,527.298 698.47,526.484 699.17,525.671 699.87,524.859 700.57,524.05 701.27,523.242 701.971,522.436 702.671,521.632 703.371,520.829 704.071,520.028 704.771,519.228 705.471,518.431 706.171,517.635 706.871,516.84 707.571,516.048 708.272,515.257 708.972,514.467 709.672,513.68 710.372,512.894 711.072,512.109 711.772,511.326 712.472,510.545 713.172,509.766 713.873,508.988 714.573,508.212 715.273,507.437 715.973,506.664 716.673,505.893 717.373,505.123 718.073,504.355 718.773,503.589 719.474,502.824 720.174,502.06 720.874,501.299 721.574,500.539 722.274,499.78 722.974,499.023 723.674,498.268 724.374,497.514 725.075,496.762 725.775,496.011 726.475,495.263 727.175,494.515 727.875,493.769 728.575,493.025 729.275,492.282 729.975,491.541 730.675,490.801 731.376,490.063 732.076,489.327 732.776,488.592 733.476,487.858 734.176,487.127 734.876,486.396 735.576,485.667 736.276,484.94 736.977,484.214 737.677,483.49 738.377,482.767 739.077,482.046 739.777,481.327 740.477,480.608 741.177,479.892 741.877,479.176 742.578,478.463 743.278,477.751 743.978,477.04 744.678,476.331 745.378,475.623 746.078,474.917 746.778,474.212 747.478,473.509 748.179,472.807 748.879,472.107 749.579,471.408 750.279,470.711 750.979,470.015 751.679,469.32 752.379,468.627 753.079,467.936 753.779,467.246 754.48,466.557 755.18,465.87 755.88,465.184 756.58,464.5 757.28,463.817 757.98,463.135 758.68,462.455 759.38,461.777 760.081,461.099 760.781,460.424 761.481,459.749 762.181,459.076 762.881,458.405 763.581,457.735 764.281,457.066 764.981,456.399 765.682,455.733 766.382,455.068 767.082,454.405 767.782,453.744 768.482,453.083 769.182,452.424 769.882,451.767 770.582,451.111 771.283,450.456 771.983,449.802 772.683,449.15 773.383,448.5 774.083,447.85 774.783,447.202 775.483,446.556 776.183,445.911 776.883,445.267 777.584,444.624 778.284,443.983 778.984,443.343 779.684,442.705 780.384,442.068 781.084,441.432 781.784,440.797 782.484,440.164 783.185,439.532 783.885,438.902 784.585,438.272 785.285,437.645 785.985,437.018 786.685,436.393 787.385,435.769 788.085,435.146 788.786,434.525 789.486,433.905 790.186,433.286 790.886,432.669 791.586,432.053 792.286,431.438 792.986,430.824 793.686,430.212 794.387,429.601 795.087,428.992 795.787,428.383 796.487,427.776 797.187,427.17 797.887,426.566 798.587,425.962 799.287,425.36 799.987,424.76 800.688,424.16 801.388,423.562 802.088,422.965 802.788,422.369 803.488,421.774 804.188,421.181 804.888,420.589 805.588,419.998 806.289,419.409 806.989,418.821 807.689,418.234 808.389,417.648 809.089,417.063 809.789,416.48 810.489,415.898 811.189,415.317 811.89,414.737 812.59,414.158 813.29,413.581 813.99,413.005 814.69,412.43 815.39,411.857 816.09,411.284 816.79,410.713 817.49,410.143 818.191,409.574 818.891,409.006 819.591,408.44 820.291,407.875 820.991,407.311 821.691,406.748 822.391,406.186 823.091,405.625 823.792,405.066 824.492,404.508 825.192,403.951 825.892,403.395 826.592,402.84 827.292,402.287 827.992,401.734 828.692,401.183 829.393,400.633 830.093,400.084 830.793,399.536 831.493,398.99 832.193,398.444 832.893,397.9 833.593,397.357 834.293,396.815 834.994,396.274 835.694,395.734 836.394,395.195 837.094,394.658 837.794,394.122 838.494,393.586 839.194,393.052 839.894,392.519 840.594,391.987 841.295,391.457 841.995,390.927 842.695,390.398 843.395,389.871 844.095,389.345 844.795,388.819 845.495,388.295 846.195,387.772 846.896,387.25 847.596,386.729 848.296,386.21 848.996,385.691 849.696,385.173 850.396,384.657 851.096,384.142 851.796,383.627 852.497,383.114 853.197,382.602 853.897,382.091 854.597,381.581 855.297,381.072 855.997,380.564 856.697,380.057 857.397,379.551 858.098,379.047 858.798,378.543 859.498,378.041 860.198,377.539 860.898,377.039 861.598,376.539 862.298,376.041 862.998,375.544 863.698,375.047 864.399,374.552 865.099,374.058 865.799,373.565 866.499,373.073 867.199,372.582 867.899,372.091 868.599,371.602 869.299,371.114 870,370.627 870.7,370.141 871.4,369.657 872.1,369.173 872.8,368.69 873.5,368.208 874.2,367.727 874.9,367.247 875.601,366.768 876.301,366.29 877.001,365.813 877.701,365.338 878.401,364.863 879.101,364.389 879.801,363.916 880.501,363.444 881.202,362.973 881.902,362.503 882.602,362.034 883.302,361.566 884.002,361.1 884.702,360.634 885.402,360.169 886.102,359.705 886.802,359.241 887.503,358.779 888.203,358.318 888.903,357.858 889.603,357.399 890.303,356.941 891.003,356.484 891.703,356.027 892.403,355.572 893.104,355.118 893.804,354.664 894.504,354.212 895.204,353.76 895.904,353.31 896.604,352.86 897.304,352.411 898.004,351.963 898.705,351.517 899.405,351.071 900.105,350.626 900.805,350.182 901.505,349.739 902.205,349.297 902.905,348.855 903.605,348.415 904.306,347.976 905.006,347.537 905.706,347.1 906.406,346.663 907.106,346.228 907.806,345.793 908.506,345.359 909.206,344.926 909.906,344.494 910.607,344.063 911.307,343.633 912.007,343.203 912.707,342.775 913.407,342.347 914.107,341.921 914.807,341.495 915.507,341.07 916.208,340.646 916.908,340.223 917.608,339.801 918.308,339.38 919.008,338.959 919.708,338.54 920.408,338.121 921.108,337.703 921.809,337.286 922.509,336.87 923.209,336.455 923.909,336.041 924.609,335.627 925.309,335.215 926.009,334.803 926.709,334.392 927.409,333.983 928.11,333.573 928.81,333.165 929.51,332.758 930.21,332.351 930.91,331.946 931.61,331.541 932.31,331.137 933.01,330.734 933.711,330.332 934.411,329.93 935.111,329.529 935.811,329.13 936.511,328.731 937.211,328.333 937.911,327.936 938.611,327.539 939.312,327.144 940.012,326.749 940.712,326.355 941.412,325.962 942.112,325.57 942.812,325.178 943.512,324.788 944.212,324.398 944.913,324.009 945.613,323.621 946.313,323.233 947.013,322.847 947.713,322.461 948.413,322.076 949.113,321.692 949.813,321.309 950.513,320.926 951.214,320.544 951.914,320.164 952.614,319.783 953.314,319.404 954.014,319.026 954.714,318.648 955.414,318.271 956.114,317.895 956.815,317.52 957.515,317.145 958.215,316.771 958.915,316.398 959.615,316.026 960.315,315.655 961.015,315.284 961.715,314.914 962.416,314.545 963.116,314.177 963.816,313.809 964.516,313.442 965.216,313.076 965.916,312.711 966.616,312.347 967.316,311.983 968.017,311.62 968.717,311.258 969.417,310.897 970.117,310.536 970.817,310.176 971.517,309.817 972.217,309.458 972.917,309.101 973.617,308.744 974.318,308.388 975.018,308.032 975.718,307.678 976.418,307.324 977.118,306.971 977.818,306.618 978.518,306.267 979.218,305.916 979.919,305.565 980.619,305.216 981.319,304.867 982.019,304.519 982.719,304.172 983.419,303.825 984.119,303.48 984.819,303.134 985.52,302.79 986.22,302.446 986.92,302.104 987.62,301.761 988.32,301.42 989.02,301.079 989.72,300.739 990.42,300.4 991.121,300.061 991.821,299.723 992.521,299.386 993.221,299.049 993.921,298.714 994.621,298.378 995.321,298.044 996.021,297.71 996.721,297.377 997.422,297.045 998.122,296.713 998.822,296.383 999.522,296.052 1000.22,295.723 1000.92,295.394 1001.62,295.066 1002.32,294.738 1003.02,294.412 1003.72,294.086 1004.42,293.76 1005.12,293.435 1005.82,293.111 1006.52,292.788 1007.22,292.465 1007.92,292.143 1008.62,291.822 1009.32,291.501 1010.02,291.182 1010.72,290.862 1011.42,290.544 1012.12,290.226 1012.82,289.908 1013.52,289.592 1014.22,289.276 1014.92,288.96 1015.62,288.646 1016.32,288.332 1017.02,288.019 1017.73,287.706 1018.43,287.394 1019.13,287.082 1019.83,286.772 1020.53,286.462 1021.23,286.152 1021.93,285.844 1022.63,285.536 1023.33,285.228 1024.03,284.921 1024.73,284.615 1025.43,284.31 1026.13,284.005 1026.83,283.7 1027.53,283.397 1028.23,283.094 1028.93,282.792 1029.63,282.49 1030.33,282.189 1031.03,281.888 1031.73,281.589 1032.43,281.289 1033.13,280.991 1033.83,280.693 1034.53,280.396 1035.23,280.099 1035.93,279.803 1036.63,279.507 1037.33,279.213 1038.03,278.918 1038.73,278.625 1039.43,278.332 1040.13,278.04 1040.83,277.748 1041.53,277.457 1042.23,277.166 1042.93,276.876 1043.63,276.587 1044.33,276.298 1045.03,276.01 1045.73,275.723 1046.43,275.436 1047.13,275.15 1047.83,274.864 1048.53,274.579 1049.23,274.294 1049.93,274.011 1050.63,273.727 1051.33,273.445 1052.03,273.163 1052.73,272.881 1053.43,272.6 1054.13,272.32 1054.83,272.04 1055.53,271.761 1056.23,271.482 1056.93,271.204 1057.63,270.927 1058.33,270.65 1059.03,270.374 1059.73,270.098 1060.43,269.823 1061.13,269.549 1061.83,269.275 1062.53,269.002 1063.23,268.729 1063.93,268.457 1064.63,268.185 1065.33,267.914 1066.03,267.643 1066.73,267.373 1067.43,267.104 1068.13,266.835 1068.83,266.567 1069.53,266.299 1070.23,266.032 1070.93,265.766 1071.63,265.5 1072.33,265.234 1073.03,264.97 1073.73,264.705 1074.43,264.441 1075.14,264.178 1075.84,263.916 1076.54,263.653 1077.24,263.392 1077.94,263.131 1078.64,262.87 1079.34,262.611 1080.04,262.351 1080.74,262.092 1081.44,261.834 1082.14,261.576 1082.84,261.319 1083.54,261.063 1084.24,260.806 1084.94,260.551 1085.64,260.296 1086.34,260.041 1087.04,259.787 1087.74,259.534 1088.44,259.281 1089.14,259.029 1089.84,258.777 1090.54,258.525 1091.24,258.275 1091.94,258.024 1092.64,257.775 1093.34,257.525 1094.04,257.277 1094.74,257.029 1095.44,256.781 1096.14,256.534 1096.84,256.287 1097.54,256.041 1098.24,255.795 1098.94,255.55 1099.64,255.306 1100.34,255.062 1101.04,254.818 1101.74,254.575 1102.44,254.333 1103.14,254.091 1103.84,253.849 1104.54,253.608 1105.24,253.368 1105.94,253.128 1106.64,252.888 1107.34,252.649 1108.04,252.411 1108.74,252.173 1109.44,251.936 1110.14,251.699 1110.84,251.462 1111.54,251.226 1112.24,250.991 1112.94,250.756 1113.64,250.521 1114.34,250.287 1115.04,250.054 1115.74,249.821 1116.44,249.588 1117.14,249.356 1117.84,249.124 1118.54,248.893 1119.24,248.663 1119.94,248.433 1120.64,248.203 1121.34,247.974 1122.04,247.745 1122.74,247.517 1123.44,247.289 1124.14,247.062 1124.84,246.835 1125.54,246.609 1126.24,246.383 1126.94,246.158 1127.64,245.933 1128.34,245.709 1129.04,245.485 1129.74,245.262 1130.44,245.039 1131.14,244.816 1131.84,244.594 1132.54,244.372 1133.25,244.151 1133.95,243.931 1134.65,243.711 1135.35,243.491 1136.05,243.272 1136.75,243.053 1137.45,242.834 1138.15,242.617 1138.85,242.399 1139.55,242.182 1140.25,241.966 1140.95,241.75 1141.65,241.534 1142.35,241.319 1143.05,241.104 1143.75,240.89 1144.45,240.676 1145.15,240.463 1145.85,240.25 1146.55,240.037 1147.25,239.825 1147.95,239.614 1148.65,239.403 1149.35,239.192 1150.05,238.982 1150.75,238.772 1151.45,238.563 1152.15,238.354 1152.85,238.145 1153.55,237.937 1154.25,237.73 1154.95,237.522 1155.65,237.316 1156.35,237.109 1157.05,236.904 1157.75,236.698 1158.45,236.493 1159.15,236.289 1159.85,236.084 1160.55,235.881 1161.25,235.677 1161.95,235.475 1162.65,235.272 1163.35,235.07 1164.05,234.869 1164.75,234.667 1165.45,234.467 1166.15,234.266 1166.85,234.066 1167.55,233.867 1168.25,233.668 1168.95,233.469 1169.65,233.271 1170.35,233.073 1171.05,232.876 1171.75,232.679 1172.45,232.482 1173.15,232.286 1173.85,232.09 1174.55,231.895 1175.25,231.7 1175.95,231.506 1176.65,231.311 1177.35,231.118 1178.05,230.924 1178.75,230.732 1179.45,230.539 1180.15,230.347 1180.85,230.155 1181.55,229.964 1182.25,229.773 1182.95,229.583 1183.65,229.393 1184.35,229.203 1185.05,229.014 1185.75,228.825 1186.45,228.636 1187.15,228.448 1187.85,228.26 1188.55,228.073 1189.25,227.886 1189.95,227.7 1190.66,227.514 1191.36,227.328 1192.06,227.143 1192.76,226.958 1193.46,226.773 1194.16,226.589 1194.86,226.405 1195.56,226.222 1196.26,226.039 1196.96,225.856 1197.66,225.674 1198.36,225.492 1199.06,225.31 1199.76,225.129 1200.46,224.948 1201.16,224.768 1201.86,224.588 1202.56,224.409 1203.26,224.229 1203.96,224.05 1204.66,223.872 1205.36,223.694 1206.06,223.516 1206.76,223.339 1207.46,223.162 1208.16,222.985 1208.86,222.809 1209.56,222.633 1210.26,222.458 1210.96,222.283 1211.66,222.108 1212.36,221.933 1213.06,221.759 1213.76,221.586 1214.46,221.412 1215.16,221.239 1215.86,221.067 1216.56,220.895 1217.26,220.723 1217.96,220.551 1218.66,220.38 1219.36,220.209 1220.06,220.039 1220.76,219.869 1221.46,219.699 1222.16,219.53 1222.86,219.361 1223.56,219.192 1224.26,219.024 1224.96,218.856 1225.66,218.688 1226.36,218.521 1227.06,218.354 1227.76,218.188 1228.46,218.022 1229.16,217.856 1229.86,217.69 1230.56,217.525 1231.26,217.36 1231.96,217.196 1232.66,217.032 1233.36,216.868 1234.06,216.705 1234.76,216.542 1235.46,216.379 1236.16,216.217 1236.86,216.055 1237.56,215.893 1238.26,215.732 1238.96,215.571 1239.66,215.41 1240.36,215.25 1241.06,215.09 1241.76,214.93 1242.46,214.77 1243.16,214.611 1243.86,214.453 1244.56,214.294 1245.26,214.136 1245.96,213.979 1246.66,213.821 1247.36,213.664 1248.06,213.508 1248.77,213.351 1249.47,213.195 1250.17,213.04 1250.87,212.884 1251.57,212.729 1252.27,212.575 1252.97,212.42 1253.67,212.266 1254.37,212.112 1255.07,211.959 1255.77,211.806 1256.47,211.653 1257.17,211.501 1257.87,211.348 1258.57,211.197 1259.27,211.045 1259.97,210.894 1260.67,210.743 1261.37,210.592 1262.07,210.442 1262.77,210.292 1263.47,210.143 1264.17,209.993 1264.87,209.844 1265.57,209.696 1266.27,209.547 1266.97,209.399 1267.67,209.252 1268.37,209.104 1269.07,208.957 1269.77,208.81 1270.47,208.664 1271.17,208.518 1271.87,208.372 1272.57,208.226 1273.27,208.081 1273.97,207.936 1274.67,207.791 1275.37,207.647 1276.07,207.503 1276.77,207.359 1277.47,207.216 1278.17,207.072 1278.87,206.93 1279.57,206.787 1280.27,206.645 1280.97,206.503 1281.67,206.361 1282.37,206.22 1283.07,206.079 1283.77,205.938 1284.47,205.797 1285.17,205.657 1285.87,205.517 1286.57,205.378 1287.27,205.238 1287.97,205.099 1288.67,204.961 1289.37,204.822 1290.07,204.684 1290.77,204.546 1291.47,204.409 1292.17,204.272 1292.87,204.135 1293.57,203.998 1294.27,203.861 1294.97,203.725 1295.67,203.59 1296.37,203.454 1297.07,203.319 1297.77,203.184 1298.47,203.049 1299.17,202.915 1299.87,202.78 1300.57,202.647 1301.27,202.513 1301.97,202.38 1302.67,202.247 1303.37,202.114 1304.07,201.982 1304.77,201.849 1305.47,201.717 1306.17,201.586 1306.88,201.455 1307.58,201.323 1308.28,201.193 1308.98,201.062 1309.68,200.932 1310.38,200.802 1311.08,200.672 1311.78,200.543 1312.48,200.414 1313.18,200.285 1313.88,200.156 1314.58,200.028 1315.28,199.9 1315.98,199.772 1316.68,199.644 1317.38,199.517 1318.08,199.39 1318.78,199.263 1319.48,199.137 1320.18,199.011 1320.88,198.885 1321.58,198.759 1322.28,198.634 1322.98,198.508 1323.68,198.384 1324.38,198.259 1325.08,198.135 1325.78,198.011 1326.48,197.887 1327.18,197.763 1327.88,197.64 1328.58,197.517 1329.28,197.394 1329.98,197.271 1330.68,197.149 1331.38,197.027 1332.08,196.905 1332.78,196.784 1333.48,196.662 1334.18,196.541 1334.88,196.421 1335.58,196.3 1336.28,196.18 1336.98,196.06 1337.68,195.94 1338.38,195.821 1339.08,195.701 1339.78,195.582 1340.48,195.464 1341.18,195.345 1341.88,195.227 1342.58,195.109 1343.28,194.991 1343.98,194.874 1344.68,194.756 1345.38,194.639 1346.08,194.523 1346.78,194.406 1347.48,194.29 1348.18,194.174 1348.88,194.058 1349.58,193.942 1350.28,193.827 1350.98,193.712 1351.68,193.597 1352.38,193.483 1353.08,193.368 1353.78,193.254 1354.48,193.14 1355.18,193.027 1355.88,192.913 1356.58,192.8 1357.28,192.687 1357.98,192.574 1358.68,192.462 1359.38,192.35 1360.08,192.238 1360.78,192.126 1361.48,192.015 1362.18,191.903 1362.88,191.792 1363.58,191.682 1364.29,191.571 1364.99,191.461 1365.69,191.351 1366.39,191.241 1367.09,191.131 1367.79,191.022 1368.49,190.912 1369.19,190.803 1369.89,190.695 1370.59,190.586 1371.29,190.478 1371.99,190.37 1372.69,190.262 1373.39,190.155 1374.09,190.047 1374.79,189.94 1375.49,189.833 1376.19,189.726 1376.89,189.62 1377.59,189.514 1378.29,189.408 1378.99,189.302 1379.69,189.196 1380.39,189.091 1381.09,188.986 1381.79,188.881 1382.49,188.776 1383.19,188.672 1383.89,188.567 1384.59,188.463 1385.29,188.36 1385.99,188.256 1386.69,188.153 1387.39,188.049 1388.09,187.947 1388.79,187.844 1389.49,187.741 1390.19,187.639 1390.89,187.537 1391.59,187.435 1392.29,187.333 1392.99,187.232 1393.69,187.131 1394.39,187.03 1395.09,186.929 1395.79,186.828 1396.49,186.728 1397.19,186.628 1397.89,186.528 1398.59,186.428 1399.29,186.328 1399.99,186.229 1400.69,186.13 1401.39,186.031 1402.09,185.932 1402.79,185.834 1403.49,185.736 1404.19,185.637 1404.89,185.54 1405.59,185.442 1406.29,185.344 1406.99,185.247 1407.69,185.15 1408.39,185.053 1409.09,184.957 1409.79,184.86 1410.49,184.764 1411.19,184.668 1411.89,184.572 1412.59,184.476 1413.29,184.381 1413.99,184.286 1414.69,184.19 1415.39,184.096 1416.09,184.001 1416.79,183.907 1417.49,183.812 1418.19,183.718 1418.89,183.624 1419.59,183.531 1420.29,183.437 1420.99,183.344 1421.69,183.251 1422.4,183.158 1423.1,183.065 1423.8,182.973 1424.5,182.88 1425.2,182.788 1425.9,182.696 1426.6,182.605 1427.3,182.513 1428,182.422 1428.7,182.331 1429.4,182.24 1430.1,182.149 1430.8,182.058 1431.5,181.968 1432.2,181.878 1432.9,181.788 1433.6,181.698 1434.3,181.608 1435,181.519 1435.7,181.43 1436.4,181.341 1437.1,181.252 1437.8,181.163 1438.5,181.075 1439.2,180.986 1439.9,180.898 1440.6,180.81 1441.3,180.723 1442,180.635 1442.7,180.548 1443.4,180.46 1444.1,180.373 1444.8,180.286 1445.5,180.2 1446.2,180.113 1446.9,180.027 1447.6,179.941 1448.3,179.855 1449,179.769 1449.7,179.684 1450.4,179.598 1451.1,179.513 1451.8,179.428 1452.5,179.343 1453.2,179.258 1453.9,179.174 1454.6,179.09 1455.3,179.005 1456,178.921 1456.7,178.838 1457.4,178.754 1458.1,178.671 1458.8,178.587 1459.5,178.504 1460.2,178.421 1460.9,178.339 1461.6,178.256 1462.3,178.174 1463,178.091 1463.7,178.009 1464.4,177.927 1465.1,177.846 1465.8,177.764 1466.5,177.683 1467.2,177.602 1467.9,177.521 1468.6,177.44 1469.3,177.359 1470,177.278 1470.7,177.198 1471.4,177.118 1472.1,177.038 1472.8,176.958 1473.5,176.878 1474.2,176.799 1474.9,176.72 1475.6,176.64 1476.3,176.561 1477,176.482 1477.7,176.404 1478.4,176.325 1479.1,176.247 1479.8,176.169 1480.51,176.091 1481.21,176.013 1481.91,175.935 1482.61,175.858 1483.31,175.78 1484.01,175.703 1484.71,175.626 1485.41,175.549 1486.11,175.472 1486.81,175.396 1487.51,175.319 1488.21,175.243 1488.91,175.167 1489.61,175.091 1490.31,175.015 1491.01,174.94 1491.71,174.864 1492.41,174.789 1493.11,174.714 1493.81,174.639 1494.51,174.564 1495.21,174.489 1495.91,174.415 1496.61,174.341 1497.31,174.266 1498.01,174.192 1498.71,174.119 1499.41,174.045 1500.11,173.971 1500.81,173.898 1501.51,173.825 1502.21,173.751 1502.91,173.678 1503.61,173.606 1504.31,173.533 1505.01,173.461 1505.71,173.388 1506.41,173.316 1507.11,173.244 1507.81,173.172 1508.51,173.1 1509.21,173.029 1509.91,172.957 1510.61,172.886 1511.31,172.815 1512.01,172.744 1512.71,172.673 1513.41,172.602 1514.11,172.532 1514.81,172.461 1515.51,172.391 1516.21,172.321 1516.91,172.251 1517.61,172.181 1518.31,172.112 1519.01,172.042 1519.71,171.973 1520.41,171.904 1521.11,171.834 1521.81,171.766 1522.51,171.697 1523.21,171.628 1523.91,171.56 1524.61,171.491 1525.31,171.423 1526.01,171.355 1526.71,171.287 1527.41,171.219 1528.11,171.152 1528.81,171.084 1529.51,171.017 1530.21,170.95 1530.91,170.882 1531.61,170.816 1532.31,170.749 1533.01,170.682 1533.71,170.616 1534.41,170.549 1535.11,170.483 1535.81,170.417 1536.51,170.351 1537.21,170.285 1537.92,170.219 1538.62,170.154 1539.32,170.088 1540.02,170.023 1540.72,169.958 1541.42,169.893 1542.12,169.828 1542.82,169.763 1543.52,169.699 1544.22,169.634 1544.92,169.57 1545.62,169.506 1546.32,169.442 1547.02,169.378 1547.72,169.314 1548.42,169.251 1549.12,169.187 1549.82,169.124 1550.52,169.06 1551.22,168.997 1551.92,168.934 1552.62,168.871 1553.32,168.809 1554.02,168.746 1554.72,168.684 1555.42,168.621 1556.12,168.559 1556.82,168.497 1557.52,168.435 1558.22,168.373 1558.92,168.312 1559.62,168.25 1560.32,168.189 1561.02,168.127 1561.72,168.066 1562.42,168.005 1563.12,167.944 1563.82,167.884 1564.52,167.823 1565.22,167.762 1565.92,167.702 1566.62,167.642 1567.32,167.582 1568.02,167.522 1568.72,167.462 1569.42,167.402 1570.12,167.342 1570.82,167.283 1571.52,167.224 1572.22,167.164 1572.92,167.105 1573.62,167.046 1574.32,166.987 1575.02,166.928 1575.72,166.87 1576.42,166.811 1577.12,166.753 1577.82,166.695 1578.52,166.636 1579.22,166.578 1579.92,166.521 1580.62,166.463 1581.32,166.405 1582.02,166.348 1582.72,166.29 1583.42,166.233 1584.12,166.176 1584.82,166.119 1585.52,166.062 1586.22,166.005 1586.92,165.948 1587.62,165.892 1588.32,165.835 1589.02,165.779 1589.72,165.722 1590.42,165.666 1591.12,165.61 1591.82,165.555 1592.52,165.499 1593.22,165.443 1593.92,165.388 1594.62,165.332 1595.32,165.277 1596.03,165.222 1596.73,165.167 1597.43,165.112 1598.13,165.057 1598.83,165.002 1599.53,164.948 1600.23,164.893 1600.93,164.839 1601.63,164.784 1602.33,164.73 1603.03,164.676 1603.73,164.622 1604.43,164.569 1605.13,164.515 1605.83,164.461 1606.53,164.408 1607.23,164.354 1607.93,164.301 1608.63,164.248 1609.33,164.195 1610.03,164.142 1610.73,164.089 1611.43,164.037 1612.13,163.984 1612.83,163.932 1613.53,163.879 1614.23,163.827 1614.93,163.775 1615.63,163.723 1616.33,163.671 1617.03,163.619 1617.73,163.567 1618.43,163.516 1619.13,163.464 1619.83,163.413 1620.53,163.362 1621.23,163.311 1621.93,163.26 1622.63,163.209 1623.33,163.158 1624.03,163.107 1624.73,163.056 1625.43,163.006 1626.13,162.956 1626.83,162.905 1627.53,162.855 1628.23,162.805 1628.93,162.755 1629.63,162.705 1630.33,162.655 1631.03,162.606 1631.73,162.556 1632.43,162.507 1633.13,162.457 1633.83,162.408 1634.53,162.359 1635.23,162.31 1635.93,162.261 1636.63,162.212 1637.33,162.163 1638.03,162.115 1638.73,162.066 1639.43,162.018 1640.13,161.969 1640.83,161.921 1641.53,161.873 1642.23,161.825 1642.93,161.777 1643.63,161.729 1644.33,161.681 1645.03,161.634 1645.73,161.586 1646.43,161.539 1647.13,161.491 1647.83,161.444 1648.53,161.397 1649.23,161.35 1649.93,161.303 1650.63,161.256 1651.33,161.209 1652.03,161.163 1652.73,161.116 1653.44,161.07 1654.14,161.023 1654.84,160.977 1655.54,160.931 1656.24,160.885 1656.94,160.839 1657.64,160.793 1658.34,160.747 1659.04,160.702 1659.74,160.656 1660.44,160.611 1661.14,160.565 1661.84,160.52 1662.54,160.475 1663.24,160.43 1663.94,160.385 1664.64,160.34 1665.34,160.295 1666.04,160.25 1666.74,160.206 1667.44,160.161 1668.14,160.117 1668.84,160.072 1669.54,160.028 1670.24,159.984 1670.94,159.94 1671.64,159.896 1672.34,159.852 1673.04,159.808 1673.74,159.764 1674.44,159.721 1675.14,159.677 1675.84,159.634 1676.54,159.59 1677.24,159.547 1677.94,159.504 1678.64,159.461 1679.34,159.418 1680.04,159.375 1680.74,159.332 1681.44,159.29 1682.14,159.247 1682.84,159.204 1683.54,159.162 1684.24,159.12 1684.94,159.077 1685.64,159.035 1686.34,158.993 1687.04,158.951 1687.74,158.909 1688.44,158.867 1689.14,158.826 1689.84,158.784 1690.54,158.743 1691.24,158.701 1691.94,158.66 1692.64,158.618 1693.34,158.577 1694.04,158.536 1694.74,158.495 1695.44,158.454 1696.14,158.413 1696.84,158.372 1697.54,158.332 1698.24,158.291 1698.94,158.251 1699.64,158.21 1700.34,158.17 1701.04,158.13 1701.74,158.089 1702.44,158.049 1703.14,158.009 1703.84,157.969 1704.54,157.93 1705.24,157.89 1705.94,157.85 1706.64,157.81 1707.34,157.771 1708.04,157.732 1708.74,157.692 1709.44,157.653 1710.14,157.614 1710.84,157.575 1711.55,157.536 1712.25,157.497 1712.95,157.458 1713.65,157.419 1714.35,157.38 1715.05,157.342 1715.75,157.303 1716.45,157.265 1717.15,157.226 1717.85,157.188 1718.55,157.15 1719.25,157.112 1719.95,157.074 1720.65,157.036 1721.35,156.998 1722.05,156.96 1722.75,156.922 1723.45,156.885 1724.15,156.847 1724.85,156.81 1725.55,156.772 1726.25,156.735 1726.95,156.698 1727.65,156.66 1728.35,156.623 1729.05,156.586 1729.75,156.549 1730.45,156.513 1731.15,156.476 1731.85,156.439 1732.55,156.402 1733.25,156.366 1733.95,156.329 1734.65,156.293 1735.35,156.257 1736.05,156.22 1736.75,156.184 1737.45,156.148 1738.15,156.112 1738.85,156.076 1739.55,156.04 1740.25,156.004 1740.95,155.969 1741.65,155.933 1742.35,155.897 1743.05,155.862 1743.75,155.827 1744.45,155.791 1745.15,155.756 1745.85,155.721 1746.55,155.686 1747.25,155.651 1747.95,155.616 1748.65,155.581 1749.35,155.546 1750.05,155.511 1750.75,155.476 1751.45,155.442 1752.15,155.407 1752.85,155.373 1753.55,155.338 1754.25,155.304 1754.95,155.27 1755.65,155.236 1756.35,155.201 1757.05,155.167 1757.75,155.133 1758.45,155.1 1759.15,155.066 1759.85,155.032 1760.55,154.998 1761.25,154.965 1761.95,154.931 1762.65,154.898 1763.35,154.864 1764.05,154.831 1764.75,154.798 1765.45,154.764 1766.15,154.731 1766.85,154.698 1767.55,154.665 1768.25,154.632 1768.95,154.6 1769.66,154.567 1770.36,154.534 1771.06,154.501 1771.76,154.469 1772.46,154.436 1773.16,154.404 1773.86,154.372 1774.56,154.339 1775.26,154.307 1775.96,154.275 1776.66,154.243 1777.36,154.211 1778.06,154.179 1778.76,154.147 1779.46,154.115 1780.16,154.083 1780.86,154.052 1781.56,154.02 1782.26,153.988 1782.96,153.957 1783.66,153.925 1784.36,153.894 1785.06,153.863 1785.76,153.832 1786.46,153.8 1787.16,153.769 1787.86,153.738 1788.56,153.707 1789.26,153.676 1789.96,153.646 1790.66,153.615 1791.36,153.584 1792.06,153.553 1792.76,153.523 1793.46,153.492 1794.16,153.462 1794.86,153.431 1795.56,153.401 1796.26,153.371 1796.96,153.341 1797.66,153.311 1798.36,153.28 1799.06,153.25 1799.76,153.221 1800.46,153.191 1801.16,153.161 1801.86,153.131 1802.56,153.101 1803.26,153.072 1803.96,153.042 1804.66,153.013 1805.36,152.983 1806.06,152.954 1806.76,152.924 1807.46,152.895 1808.16,152.866 1808.86,152.837 1809.56,152.808 1810.26,152.779 1810.96,152.75 1811.66,152.721 1812.36,152.692 1813.06,152.663 1813.76,152.635 1814.46,152.606 1815.16,152.577 1815.86,152.549 1816.56,152.52 1817.26,152.492 1817.96,152.464 1818.66,152.435 1819.36,152.407 1820.06,152.379 1820.76,152.351 1821.46,152.323 1822.16,152.295 1822.86,152.267 1823.56,152.239 1824.26,152.211 1824.96,152.183 1825.66,152.156 1826.36,152.128 1827.07,152.1 1827.77,152.073 1828.47,152.045 1829.17,152.018 1829.87,151.991 1830.57,151.963 1831.27,151.936 1831.97,151.909 1832.67,151.882 1833.37,151.855 1834.07,151.828 1834.77,151.801 1835.47,151.774 1836.17,151.747 1836.87,151.72 1837.57,151.693 1838.27,151.667 1838.97,151.64 1839.67,151.613 1840.37,151.587 1841.07,151.56 1841.77,151.534 1842.47,151.508 1843.17,151.481 1843.87,151.455 1844.57,151.429 1845.27,151.403 1845.97,151.377 1846.67,151.351 1847.37,151.325 1848.07,151.299 1848.77,151.273 1849.47,151.247 1850.17,151.222 1850.87,151.196 1851.57,151.17 1852.27,151.145 1852.97,151.119 1853.67,151.094 1854.37,151.068 1855.07,151.043 1855.77,151.018 1856.47,150.992 1857.17,150.967 1857.87,150.942 1858.57,150.917 1859.27,150.892 1859.97,150.867 1860.67,150.842 1861.37,150.817 1862.07,150.792 1862.77,150.767 1863.47,150.743 1864.17,150.718 1864.87,150.693 1865.57,150.669 1866.27,150.644 1866.97,150.62 1867.67,150.595 1868.37,150.571 1869.07,150.546 1869.77,150.522 1870.47,150.498 1871.17,150.474 1871.87,150.45 1872.57,150.426 1873.27,150.402 1873.97,150.378 1874.67,150.354 1875.37,150.33 1876.07,150.306 1876.77,150.282 1877.47,150.259 1878.17,150.235 1878.87,150.211 1879.57,150.188 1880.27,150.164 1880.97,150.141 1881.67,150.117 1882.37,150.094 1883.07,150.071 1883.77,150.047 1884.47,150.024 1885.18,150.001 1885.88,149.978 1886.58,149.955 1887.28,149.932 1887.98,149.909 1888.68,149.886 1889.38,149.863 1890.08,149.84 1890.78,149.817 1891.48,149.794 1892.18,149.772 1892.88,149.749 1893.58,149.726 1894.28,149.704 1894.98,149.681 1895.68,149.659 1896.38,149.637 1897.08,149.614 1897.78,149.592 1898.48,149.57 1899.18,149.547 1899.88,149.525 1900.58,149.503 1901.28,149.481 1901.98,149.459 1902.68,149.437 1903.38,149.415 1904.08,149.393 1904.78,149.371 1905.48,149.349 1906.18,149.328 1906.88,149.306 1907.58,149.284 1908.28,149.263 1908.98,149.241 1909.68,149.22 1910.38,149.198 1911.08,149.177 1911.78,149.155 1912.48,149.134 1913.18,149.113 1913.88,149.091 1914.58,149.07 1915.28,149.049 1915.98,149.028 1916.68,149.007 1917.38,148.986 1918.08,148.965 1918.78,148.944 1919.48,148.923 1920.18,148.902 1920.88,148.881 1921.58,148.86 1922.28,148.84 1922.98,148.819 1923.68,148.798 1924.38,148.778 1925.08,148.757 1925.78,148.736 1926.48,148.716 1927.18,148.696 1927.88,148.675 1928.58,148.655 1929.28,148.635 1929.98,148.614 1930.68,148.594 1931.38,148.574 1932.08,148.554 1932.78,148.534 1933.48,148.514 1934.18,148.494 1934.88,148.474 1935.58,148.454 1936.28,148.434 1936.98,148.414 1937.68,148.394 1938.38,148.374 1939.08,148.355 1939.78,148.335 1940.48,148.315 1941.18,148.296 1941.88,148.276 1942.58,148.257 1943.29,148.237 1943.99,148.218 1944.69,148.198 1945.39,148.179 1946.09,148.16 1946.79,148.14 1947.49,148.121 1948.19,148.102 1948.89,148.083 1949.59,148.064 1950.29,148.045 1950.99,148.026 1951.69,148.007 1952.39,147.988 1953.09,147.969 1953.79,147.95 1954.49,147.931 1955.19,147.912 1955.89,147.894 1956.59,147.875 1957.29,147.856 1957.99,147.838 1958.69,147.819 1959.39,147.801 1960.09,147.782 1960.79,147.764 1961.49,147.745 1962.19,147.727 1962.89,147.708 1963.59,147.69 1964.29,147.672 1964.99,147.653 1965.69,147.635 1966.39,147.617 1967.09,147.599 1967.79,147.581 1968.49,147.563 1969.19,147.545 1969.89,147.527 1970.59,147.509 1971.29,147.491 1971.99,147.473 1972.69,147.455 1973.39,147.438 1974.09,147.42 1974.79,147.402 1975.49,147.384 1976.19,147.367 1976.89,147.349 1977.59,147.332 1978.29,147.314 1978.99,147.297 1979.69,147.279 1980.39,147.262 1981.09,147.244 1981.79,147.227 1982.49,147.21 1983.19,147.192 1983.89,147.175 1984.59,147.158 1985.29,147.141 1985.99,147.124 1986.69,147.107 1987.39,147.089 1988.09,147.072 1988.79,147.055 1989.49,147.038 1990.19,147.022 1990.89,147.005 1991.59,146.988 1992.29,146.971 1992.99,146.954 1993.69,146.938 1994.39,146.921 1995.09,146.904 1995.79,146.888 1996.49,146.871 1997.19,146.854 1997.89,146.838 1998.59,146.821 1999.29,146.805 1999.99,146.788 2000.7,146.772 2001.4,146.756 2002.1,146.739 2002.8,146.723 2003.5,146.707 2004.2,146.691 2004.9,146.674 2005.6,146.658 2006.3,146.642 2007,146.626 2007.7,146.61 2008.4,146.594 2009.1,146.578 2009.8,146.562 2010.5,146.546 2011.2,146.53 2011.9,146.514 2012.6,146.499 2013.3,146.483 2014,146.467 2014.7,146.451 2015.4,146.436 2016.1,146.42 2016.8,146.404 2017.5,146.389 2018.2,146.373 2018.9,146.358 2019.6,146.342 2020.3,146.327 2021,146.311 2021.7,146.296 2022.4,146.281 2023.1,146.265 2023.8,146.25 2024.5,146.235 2025.2,146.22 2025.9,146.204 2026.6,146.189 2027.3,146.174 2028,146.159 2028.7,146.144 2029.4,146.129 2030.1,146.114 2030.8,146.099 2031.5,146.084 2032.2,146.069 2032.9,146.054 2033.6,146.039 2034.3,146.024 2035,146.01 2035.7,145.995 2036.4,145.98 2037.1,145.965 2037.8,145.951 2038.5,145.936 2039.2,145.922 2039.9,145.907 2040.6,145.892 2041.3,145.878 2042,145.863 2042.7,145.849 2043.4,145.835 2044.1,145.82 2044.8,145.806 2045.5,145.792 2046.2,145.777 2046.9,145.763 2047.6,145.749 2048.3,145.735 2049,145.72 2049.7,145.706 2050.4,145.692 2051.1,145.678 2051.8,145.664 2052.5,145.65 2053.2,145.636 2053.9,145.622 2054.6,145.608 2055.3,145.594 2056,145.58 2056.7,145.566 2057.4,145.552 2058.1,145.539 2058.81,145.525 2059.51,145.511 2060.21,145.497 2060.91,145.484 2061.61,145.47 2062.31,145.456 2063.01,145.443 2063.71,145.429 2064.41,145.416 2065.11,145.402 2065.81,145.389 2066.51,145.375 2067.21,145.362 2067.91,145.349 2068.61,145.335 2069.31,145.322 2070.01,145.308 2070.71,145.295 2071.41,145.282 2072.11,145.269 2072.81,145.256 2073.51,145.242 2074.21,145.229 2074.91,145.216 2075.61,145.203 2076.31,145.19 2077.01,145.177 2077.71,145.164 2078.41,145.151 2079.11,145.138 2079.81,145.125 2080.51,145.112 2081.21,145.099 2081.91,145.086 2082.61,145.074 2083.31,145.061 2084.01,145.048 2084.71,145.035 2085.41,145.023 2086.11,145.01 2086.81,144.997 2087.51,144.985 2088.21,144.972 2088.91,144.959 2089.61,144.947 2090.31,144.934 2091.01,144.922 2091.71,144.909 2092.41,144.897 2093.11,144.884 2093.81,144.872 2094.51,144.86 2095.21,144.847 2095.91,144.835 2096.61,144.823 2097.31,144.81 2098.01,144.798 2098.71,144.786 2099.41,144.774 2100.11,144.762 2100.81,144.749 2101.51,144.737 2102.21,144.725 2102.91,144.713 2103.61,144.701 2104.31,144.689 2105.01,144.677 2105.71,144.665 2106.41,144.653 2107.11,144.641 2107.81,144.629 2108.51,144.618 2109.21,144.606 2109.91,144.594 2110.61,144.582 2111.31,144.57 2112.01,144.559 2112.71,144.547 2113.41,144.535 2114.11,144.524 2114.81,144.512 2115.51,144.5 2116.22,144.489 2116.92,144.477 2117.62,144.466 2118.32,144.454 2119.02,144.443 2119.72,144.431 2120.42,144.42 2121.12,144.408 2121.82,144.397 2122.52,144.386 2123.22,144.374 2123.92,144.363 2124.62,144.352 2125.32,144.34 2126.02,144.329 2126.72,144.318 2127.42,144.307 2128.12,144.295 2128.82,144.284 2129.52,144.273 2130.22,144.262 2130.92,144.251 2131.62,144.24 2132.32,144.229 2133.02,144.218 2133.72,144.207 2134.42,144.196 2135.12,144.185 2135.82,144.174 2136.52,144.163 2137.22,144.152 2137.92,144.141 2138.62,144.13 2139.32,144.12 2140.02,144.109 2140.72,144.098 2141.42,144.087 2142.12,144.077 2142.82,144.066 2143.52,144.055 2144.22,144.045 2144.92,144.034 2145.62,144.023 2146.32,144.013 2147.02,144.002 2147.72,143.992 2148.42,143.981 2149.12,143.971 2149.82,143.96 2150.52,143.95 2151.22,143.939 2151.92,143.929 2152.62,143.918 2153.32,143.908 2154.02,143.898 2154.72,143.887 2155.42,143.877 2156.12,143.867 2156.82,143.857 2157.52,143.846 2158.22,143.836 2158.92,143.826 2159.62,143.816 2160.32,143.806 2161.02,143.795 2161.72,143.785 2162.42,143.775 2163.12,143.765 2163.82,143.755 2164.52,143.745 2165.22,143.735 2165.92,143.725 2166.62,143.715 2167.32,143.705 2168.02,143.695 2168.72,143.685 2169.42,143.675 2170.12,143.666 2170.82,143.656 2171.52,143.646 2172.22,143.636 2172.92,143.626 2173.62,143.617 2174.33,143.607 2175.03,143.597 2175.73,143.587 2176.43,143.578 2177.13,143.568 2177.83,143.558 2178.53,143.549 2179.23,143.539 2179.93,143.53 2180.63,143.52 2181.33,143.511 2182.03,143.501 2182.73,143.492 2183.43,143.482 2184.13,143.473 2184.83,143.463 2185.53,143.454 2186.23,143.444 2186.93,143.435 2187.63,143.426 2188.33,143.416 2189.03,143.407 2189.73,143.398 2190.43,143.388 2191.13,143.379 2191.83,143.37 2192.53,143.361 2193.23,143.352 2193.93,143.342 2194.63,143.333 2195.33,143.324 2196.03,143.315 2196.73,143.306 2197.43,143.297 2198.13,143.288 2198.83,143.279 2199.53,143.27 2200.23,143.261 2200.93,143.252 2201.63,143.243 2202.33,143.234 2203.03,143.225 2203.73,143.216 2204.43,143.207 2205.13,143.198 2205.83,143.189 2206.53,143.18 2207.23,143.172 2207.93,143.163 2208.63,143.154 2209.33,143.145 2210.03,143.136 2210.73,143.128 2211.43,143.119 2212.13,143.11 2212.83,143.102 2213.53,143.093 2214.23,143.084 2214.93,143.076 2215.63,143.067 2216.33,143.059 2217.03,143.05 2217.73,143.041 2218.43,143.033 2219.13,143.024 2219.83,143.016 2220.53,143.007 2221.23,142.999 2221.93,142.99 2222.63,142.982 2223.33,142.974 2224.03,142.965 2224.73,142.957 2225.43,142.949 2226.13,142.94 2226.83,142.932 2227.53,142.924 2228.23,142.915 2228.93,142.907 2229.63,142.899 2230.33,142.891 2231.03,142.882 2231.73,142.874 2232.44,142.866 2233.14,142.858 2233.84,142.85 2234.54,142.842 2235.24,142.833 2235.94,142.825 2236.64,142.817 2237.34,142.809 2238.04,142.801 2238.74,142.793 2239.44,142.785 2240.14,142.777 2240.84,142.769 2241.54,142.761 2242.24,142.753 2242.94,142.745 2243.64,142.737 2244.34,142.73 2245.04,142.722 2245.74,142.714 2246.44,142.706 2247.14,142.698 2247.84,142.69 2248.54,142.683 2249.24,142.675 2249.94,142.667 2250.64,142.659 2251.34,142.651 2252.04,142.644 2252.74,142.636 2253.44,142.628 2254.14,142.621 2254.84,142.613 2255.54,142.605 2256.24,142.598 2256.94,142.59 2257.64,142.583 2258.34,142.575 2259.04,142.568 2259.74,142.56 2260.44,142.552 2261.14,142.545 2261.84,142.537 2262.54,142.53 2263.24,142.523 2263.94,142.515 2264.64,142.508 2265.34,142.5 2266.04,142.493 2266.74,142.486 2267.44,142.478 2268.14,142.471 2268.84,142.463 2269.54,142.456 2270.24,142.449 2270.94,142.442 2271.64,142.434 2272.34,142.427 2273.04,142.42 2273.74,142.413 2274.44,142.405 2275.14,142.398 2275.84,142.391 2276.54,142.384 2277.24,142.377 2277.94,142.37 2278.64,142.362 2279.34,142.355 2280.04,142.348 2280.74,142.341 2281.44,142.334 2282.14,142.327 2282.84,142.32 2283.54,142.313 2284.24,142.306 2284.94,142.299 2285.64,142.292 2286.34,142.285 2287.04,142.278 2287.74,142.271 2288.44,142.264 2289.14,142.257 2289.85,142.25 2290.55,142.244 2291.25,142.237 2291.95,142.23 2292.65,142.223 "/>
<circle clip-path="url(#clip972)" cx="292.4" cy="1312.67" r="14.4" fill="#3da44d" fill-rule="evenodd" fill-opacity="1" stroke="#000000" stroke-opacity="1" stroke-width="3.2"/>
<circle clip-path="url(#clip972)" cx="325.739" cy="1253.77" r="14.4" fill="#3da44d" fill-rule="evenodd" fill-opacity="1" stroke="#000000" stroke-opacity="1" stroke-width="3.2"/>
<circle clip-path="url(#clip972)" cx="359.078" cy="1178.5" r="14.4" fill="#3da44d" fill-rule="evenodd" fill-opacity="1" stroke="#000000" stroke-opacity="1" stroke-width="3.2"/>
<circle clip-path="url(#clip972)" cx="392.417" cy="1072.62" r="14.4" fill="#3da44d" fill-rule="evenodd" fill-opacity="1" stroke="#000000" stroke-opacity="1" stroke-width="3.2"/>
<circle clip-path="url(#clip972)" cx="425.756" cy="972.7" r="14.4" fill="#3da44d" fill-rule="evenodd" fill-opacity="1" stroke="#000000" stroke-opacity="1" stroke-width="3.2"/>
<circle clip-path="url(#clip972)" cx="459.095" cy="887.841" r="14.4" fill="#3da44d" fill-rule="evenodd" fill-opacity="1" stroke="#000000" stroke-opacity="1" stroke-width="3.2"/>
<circle clip-path="url(#clip972)" cx="492.434" cy="852.403" r="14.4" fill="#3da44d" fill-rule="evenodd" fill-opacity="1" stroke="#000000" stroke-opacity="1" stroke-width="3.2"/>
<circle clip-path="url(#clip972)" cx="525.773" cy="746.192" r="14.4" fill="#3da44d" fill-rule="evenodd" fill-opacity="1" stroke="#000000" stroke-opacity="1" stroke-width="3.2"/>
<circle clip-path="url(#clip972)" cx="559.112" cy="688.144" r="14.4" fill="#3da44d" fill-rule="evenodd" fill-opacity="1" stroke="#000000" stroke-opacity="1" stroke-width="3.2"/>
<circle clip-path="url(#clip972)" cx="592.452" cy="653.242" r="14.4" fill="#3da44d" fill-rule="evenodd" fill-opacity="1" stroke="#000000" stroke-opacity="1" stroke-width="3.2"/>
<circle clip-path="url(#clip972)" cx="625.791" cy="609.791" r="14.4" fill="#3da44d" fill-rule="evenodd" fill-opacity="1" stroke="#000000" stroke-opacity="1" stroke-width="3.2"/>
<circle clip-path="url(#clip972)" cx="659.13" cy="563.101" r="14.4" fill="#3da44d" fill-rule="evenodd" fill-opacity="1" stroke="#000000" stroke-opacity="1" stroke-width="3.2"/>
<circle clip-path="url(#clip972)" cx="692.469" cy="540.357" r="14.4" fill="#3da44d" fill-rule="evenodd" fill-opacity="1" stroke="#000000" stroke-opacity="1" stroke-width="3.2"/>
<circle clip-path="url(#clip972)" cx="725.808" cy="533.712" r="14.4" fill="#3da44d" fill-rule="evenodd" fill-opacity="1" stroke="#000000" stroke-opacity="1" stroke-width="3.2"/>
<circle clip-path="url(#clip972)" cx="759.147" cy="448.934" r="14.4" fill="#3da44d" fill-rule="evenodd" fill-opacity="1" stroke="#000000" stroke-opacity="1" stroke-width="3.2"/>
<circle clip-path="url(#clip972)" cx="792.486" cy="427.943" r="14.4" fill="#3da44d" fill-rule="evenodd" fill-opacity="1" stroke="#000000" stroke-opacity="1" stroke-width="3.2"/>
<circle clip-path="url(#clip972)" cx="825.825" cy="393.087" r="14.4" fill="#3da44d" fill-rule="evenodd" fill-opacity="1" stroke="#000000" stroke-opacity="1" stroke-width="3.2"/>
<circle clip-path="url(#clip972)" cx="859.164" cy="375.872" r="14.4" fill="#3da44d" fill-rule="evenodd" fill-opacity="1" stroke="#000000" stroke-opacity="1" stroke-width="3.2"/>
<circle clip-path="url(#clip972)" cx="892.503" cy="353.867" r="14.4" fill="#3da44d" fill-rule="evenodd" fill-opacity="1" stroke="#000000" stroke-opacity="1" stroke-width="3.2"/>
<circle clip-path="url(#clip972)" cx="925.843" cy="376.174" r="14.4" fill="#3da44d" fill-rule="evenodd" fill-opacity="1" stroke="#000000" stroke-opacity="1" stroke-width="3.2"/>
<circle clip-path="url(#clip972)" cx="959.182" cy="298.278" r="14.4" fill="#3da44d" fill-rule="evenodd" fill-opacity="1" stroke="#000000" stroke-opacity="1" stroke-width="3.2"/>
<circle clip-path="url(#clip972)" cx="992.521" cy="288.633" r="14.4" fill="#3da44d" fill-rule="evenodd" fill-opacity="1" stroke="#000000" stroke-opacity="1" stroke-width="3.2"/>
<circle clip-path="url(#clip972)" cx="1025.86" cy="257.128" r="14.4" fill="#3da44d" fill-rule="evenodd" fill-opacity="1" stroke="#000000" stroke-opacity="1" stroke-width="3.2"/>
<circle clip-path="url(#clip972)" cx="1059.2" cy="268.22" r="14.4" fill="#3da44d" fill-rule="evenodd" fill-opacity="1" stroke="#000000" stroke-opacity="1" stroke-width="3.2"/>
<circle clip-path="url(#clip972)" cx="1092.54" cy="246.002" r="14.4" fill="#3da44d" fill-rule="evenodd" fill-opacity="1" stroke="#000000" stroke-opacity="1" stroke-width="3.2"/>
<circle clip-path="url(#clip972)" cx="1125.88" cy="214.046" r="14.4" fill="#3da44d" fill-rule="evenodd" fill-opacity="1" stroke="#000000" stroke-opacity="1" stroke-width="3.2"/>
<circle clip-path="url(#clip972)" cx="1159.22" cy="220.901" r="14.4" fill="#3da44d" fill-rule="evenodd" fill-opacity="1" stroke="#000000" stroke-opacity="1" stroke-width="3.2"/>
<circle clip-path="url(#clip972)" cx="1192.56" cy="227.483" r="14.4" fill="#3da44d" fill-rule="evenodd" fill-opacity="1" stroke="#000000" stroke-opacity="1" stroke-width="3.2"/>
<circle clip-path="url(#clip972)" cx="1225.89" cy="210.437" r="14.4" fill="#3da44d" fill-rule="evenodd" fill-opacity="1" stroke="#000000" stroke-opacity="1" stroke-width="3.2"/>
<circle clip-path="url(#clip972)" cx="1259.23" cy="244.555" r="14.4" fill="#3da44d" fill-rule="evenodd" fill-opacity="1" stroke="#000000" stroke-opacity="1" stroke-width="3.2"/>
<circle clip-path="url(#clip972)" cx="1292.57" cy="185.354" r="14.4" fill="#3da44d" fill-rule="evenodd" fill-opacity="1" stroke="#000000" stroke-opacity="1" stroke-width="3.2"/>
<circle clip-path="url(#clip972)" cx="1325.91" cy="147.51" r="14.4" fill="#3da44d" fill-rule="evenodd" fill-opacity="1" stroke="#000000" stroke-opacity="1" stroke-width="3.2"/>
<circle clip-path="url(#clip972)" cx="1359.25" cy="133.044" r="14.4" fill="#3da44d" fill-rule="evenodd" fill-opacity="1" stroke="#000000" stroke-opacity="1" stroke-width="3.2"/>
<circle clip-path="url(#clip972)" cx="1392.59" cy="183.536" r="14.4" fill="#3da44d" fill-rule="evenodd" fill-opacity="1" stroke="#000000" stroke-opacity="1" stroke-width="3.2"/>
<circle clip-path="url(#clip972)" cx="1425.93" cy="173.977" r="14.4" fill="#3da44d" fill-rule="evenodd" fill-opacity="1" stroke="#000000" stroke-opacity="1" stroke-width="3.2"/>
<circle clip-path="url(#clip972)" cx="1459.27" cy="156.69" r="14.4" fill="#3da44d" fill-rule="evenodd" fill-opacity="1" stroke="#000000" stroke-opacity="1" stroke-width="3.2"/>
<circle clip-path="url(#clip972)" cx="1492.61" cy="169.299" r="14.4" fill="#3da44d" fill-rule="evenodd" fill-opacity="1" stroke="#000000" stroke-opacity="1" stroke-width="3.2"/>
<circle clip-path="url(#clip972)" cx="1525.95" cy="152.189" r="14.4" fill="#3da44d" fill-rule="evenodd" fill-opacity="1" stroke="#000000" stroke-opacity="1" stroke-width="3.2"/>
<circle clip-path="url(#clip972)" cx="1559.29" cy="122.563" r="14.4" fill="#3da44d" fill-rule="evenodd" fill-opacity="1" stroke="#000000" stroke-opacity="1" stroke-width="3.2"/>
<circle clip-path="url(#clip972)" cx="1592.62" cy="175.392" r="14.4" fill="#3da44d" fill-rule="evenodd" fill-opacity="1" stroke="#000000" stroke-opacity="1" stroke-width="3.2"/>
<circle clip-path="url(#clip972)" cx="1625.96" cy="154.873" r="14.4" fill="#3da44d" fill-rule="evenodd" fill-opacity="1" stroke="#000000" stroke-opacity="1" stroke-width="3.2"/>
<circle clip-path="url(#clip972)" cx="1659.3" cy="139.263" r="14.4" fill="#3da44d" fill-rule="evenodd" fill-opacity="1" stroke="#000000" stroke-opacity="1" stroke-width="3.2"/>
<circle clip-path="url(#clip972)" cx="1692.64" cy="169.201" r="14.4" fill="#3da44d" fill-rule="evenodd" fill-opacity="1" stroke="#000000" stroke-opacity="1" stroke-width="3.2"/>
<circle clip-path="url(#clip972)" cx="1725.98" cy="144.594" r="14.4" fill="#3da44d" fill-rule="evenodd" fill-opacity="1" stroke="#000000" stroke-opacity="1" stroke-width="3.2"/>
<circle clip-path="url(#clip972)" cx="1759.32" cy="156.026" r="14.4" fill="#3da44d" fill-rule="evenodd" fill-opacity="1" stroke="#000000" stroke-opacity="1" stroke-width="3.2"/>
<circle clip-path="url(#clip972)" cx="1792.66" cy="178.538" r="14.4" fill="#3da44d" fill-rule="evenodd" fill-opacity="1" stroke="#000000" stroke-opacity="1" stroke-width="3.2"/>
<circle clip-path="url(#clip972)" cx="1826" cy="134.579" r="14.4" fill="#3da44d" fill-rule="evenodd" fill-opacity="1" stroke="#000000" stroke-opacity="1" stroke-width="3.2"/>
<circle clip-path="url(#clip972)" cx="1859.34" cy="149.222" r="14.4" fill="#3da44d" fill-rule="evenodd" fill-opacity="1" stroke="#000000" stroke-opacity="1" stroke-width="3.2"/>
<circle clip-path="url(#clip972)" cx="1892.68" cy="123.321" r="14.4" fill="#3da44d" fill-rule="evenodd" fill-opacity="1" stroke="#000000" stroke-opacity="1" stroke-width="3.2"/>
<circle clip-path="url(#clip972)" cx="1926.02" cy="163.413" r="14.4" fill="#3da44d" fill-rule="evenodd" fill-opacity="1" stroke="#000000" stroke-opacity="1" stroke-width="3.2"/>
<circle clip-path="url(#clip972)" cx="1959.35" cy="186.485" r="14.4" fill="#3da44d" fill-rule="evenodd" fill-opacity="1" stroke="#000000" stroke-opacity="1" stroke-width="3.2"/>
<circle clip-path="url(#clip972)" cx="1992.69" cy="130.816" r="14.4" fill="#3da44d" fill-rule="evenodd" fill-opacity="1" stroke="#000000" stroke-opacity="1" stroke-width="3.2"/>
<circle clip-path="url(#clip972)" cx="2026.03" cy="110.846" r="14.4" fill="#3da44d" fill-rule="evenodd" fill-opacity="1" stroke="#000000" stroke-opacity="1" stroke-width="3.2"/>
<circle clip-path="url(#clip972)" cx="2059.37" cy="165.85" r="14.4" fill="#3da44d" fill-rule="evenodd" fill-opacity="1" stroke="#000000" stroke-opacity="1" stroke-width="3.2"/>
<circle clip-path="url(#clip972)" cx="2092.71" cy="139.252" r="14.4" fill="#3da44d" fill-rule="evenodd" fill-opacity="1" stroke="#000000" stroke-opacity="1" stroke-width="3.2"/>
<circle clip-path="url(#clip972)" cx="2126.05" cy="86.1857" r="14.4" fill="#3da44d" fill-rule="evenodd" fill-opacity="1" stroke="#000000" stroke-opacity="1" stroke-width="3.2"/>
<circle clip-path="url(#clip972)" cx="2159.39" cy="151.172" r="14.4" fill="#3da44d" fill-rule="evenodd" fill-opacity="1" stroke="#000000" stroke-opacity="1" stroke-width="3.2"/>
<circle clip-path="url(#clip972)" cx="2192.73" cy="124.937" r="14.4" fill="#3da44d" fill-rule="evenodd" fill-opacity="1" stroke="#000000" stroke-opacity="1" stroke-width="3.2"/>
<circle clip-path="url(#clip972)" cx="2226.07" cy="161.691" r="14.4" fill="#3da44d" fill-rule="evenodd" fill-opacity="1" stroke="#000000" stroke-opacity="1" stroke-width="3.2"/>
<circle clip-path="url(#clip972)" cx="2259.41" cy="137.124" r="14.4" fill="#3da44d" fill-rule="evenodd" fill-opacity="1" stroke="#000000" stroke-opacity="1" stroke-width="3.2"/>
<circle clip-path="url(#clip972)" cx="2292.75" cy="184.41" r="14.4" fill="#3da44d" fill-rule="evenodd" fill-opacity="1" stroke="#000000" stroke-opacity="1" stroke-width="3.2"/>
<path clip-path="url(#clip970)" d="M303.068 300.469 L993.227 300.469 L993.227 93.1086 L303.068 93.1086  Z" fill="#ffffff" fill-rule="evenodd" fill-opacity="1"/>
<polyline clip-path="url(#clip970)" style="stroke:#000000; stroke-linecap:round; stroke-linejoin:round; stroke-width:4; stroke-opacity:1; fill:none" points="303.068,300.469 993.227,300.469 993.227,93.1086 303.068,93.1086 303.068,300.469 "/>
<polyline clip-path="url(#clip970)" style="stroke:#009af9; stroke-linecap:round; stroke-linejoin:round; stroke-width:4; stroke-opacity:1; fill:none" points="326.628,144.949 467.986,144.949 "/>
<path clip-path="url(#clip970)" d="M496.221 131.511 L496.221 144.497 L502.101 144.497 Q505.365 144.497 507.147 142.807 Q508.929 141.118 508.929 137.993 Q508.929 134.891 507.147 133.201 Q505.365 131.511 502.101 131.511 L496.221 131.511 M491.545 127.669 L502.101 127.669 Q507.911 127.669 510.874 130.307 Q513.86 132.923 513.86 137.993 Q513.86 143.108 510.874 145.724 Q507.911 148.34 502.101 148.34 L496.221 148.34 L496.221 162.229 L491.545 162.229 L491.545 127.669 Z" fill="#000000" fill-rule="nonzero" fill-opacity="1" /><path clip-path="url(#clip970)" d="M521.36 158.293 L528.999 158.293 L528.999 131.928 L520.689 133.595 L520.689 129.335 L528.952 127.669 L533.628 127.669 L533.628 158.293 L541.267 158.293 L541.267 162.229 L521.36 162.229 L521.36 158.293 Z" fill="#000000" fill-rule="nonzero" fill-opacity="1" /><polyline clip-path="url(#clip970)" style="stroke:#e26f46; stroke-linecap:round; stroke-linejoin:round; stroke-width:4; stroke-opacity:1; fill:none" points="326.628,196.789 467.986,196.789 "/>
<path clip-path="url(#clip970)" d="M496.221 183.351 L496.221 196.337 L502.101 196.337 Q505.365 196.337 507.147 194.647 Q508.929 192.958 508.929 189.833 Q508.929 186.731 507.147 185.041 Q505.365 183.351 502.101 183.351 L496.221 183.351 M491.545 179.509 L502.101 179.509 Q507.911 179.509 510.874 182.147 Q513.86 184.763 513.86 189.833 Q513.86 194.948 510.874 197.564 Q507.911 200.18 502.101 200.18 L496.221 200.18 L496.221 214.069 L491.545 214.069 L491.545 179.509 Z" fill="#000000" fill-rule="nonzero" fill-opacity="1" /><path clip-path="url(#clip970)" d="M524.577 210.133 L540.897 210.133 L540.897 214.069 L518.953 214.069 L518.953 210.133 Q521.615 207.379 526.198 202.749 Q530.804 198.096 531.985 196.754 Q534.23 194.231 535.11 192.495 Q536.013 190.735 536.013 189.046 Q536.013 186.291 534.068 184.555 Q532.147 182.819 529.045 182.819 Q526.846 182.819 524.392 183.583 Q521.962 184.347 519.184 185.897 L519.184 181.175 Q522.008 180.041 524.462 179.462 Q526.915 178.884 528.952 178.884 Q534.323 178.884 537.517 181.569 Q540.712 184.254 540.712 188.745 Q540.712 190.874 539.901 192.796 Q539.114 194.694 537.008 197.286 Q536.429 197.958 533.327 201.175 Q530.226 204.37 524.577 210.133 Z" fill="#000000" fill-rule="nonzero" fill-opacity="1" /><circle clip-path="url(#clip970)" cx="397.307" cy="248.629" r="20.48" fill="#3da44d" fill-rule="evenodd" fill-opacity="1" stroke="#000000" stroke-opacity="1" stroke-width="4.55111"/>
<path clip-path="url(#clip970)" d="M491.545 231.349 L497.842 231.349 L513.166 260.261 L513.166 231.349 L517.703 231.349 L517.703 265.909 L511.406 265.909 L496.082 236.997 L496.082 265.909 L491.545 265.909 L491.545 231.349 Z" fill="#000000" fill-rule="nonzero" fill-opacity="1" /><path clip-path="url(#clip970)" d="M536.869 242.969 Q533.443 242.969 531.452 245.654 Q529.462 248.316 529.462 252.969 Q529.462 257.622 531.429 260.307 Q533.42 262.969 536.869 262.969 Q540.272 262.969 542.263 260.284 Q544.253 257.598 544.253 252.969 Q544.253 248.362 542.263 245.677 Q540.272 242.969 536.869 242.969 M536.869 239.358 Q542.425 239.358 545.596 242.969 Q548.767 246.58 548.767 252.969 Q548.767 259.335 545.596 262.969 Q542.425 266.58 536.869 266.58 Q531.29 266.58 528.119 262.969 Q524.971 259.335 524.971 252.969 Q524.971 246.58 528.119 242.969 Q531.29 239.358 536.869 239.358 Z" fill="#000000" fill-rule="nonzero" fill-opacity="1" /><path clip-path="url(#clip970)" d="M555.827 239.983 L560.087 239.983 L560.087 265.909 L555.827 265.909 L555.827 239.983 M555.827 229.89 L560.087 229.89 L560.087 235.284 L555.827 235.284 L555.827 229.89 Z" fill="#000000" fill-rule="nonzero" fill-opacity="1" /><path clip-path="url(#clip970)" d="M585.526 240.747 L585.526 244.774 Q583.721 243.849 581.776 243.386 Q579.832 242.923 577.749 242.923 Q574.577 242.923 572.98 243.895 Q571.406 244.867 571.406 246.811 Q571.406 248.293 572.54 249.149 Q573.674 249.983 577.1 250.747 L578.559 251.071 Q583.096 252.043 584.994 253.825 Q586.915 255.585 586.915 258.756 Q586.915 262.367 584.045 264.473 Q581.198 266.58 576.198 266.58 Q574.114 266.58 571.846 266.163 Q569.6 265.77 567.1 264.96 L567.1 260.561 Q569.462 261.788 571.753 262.413 Q574.045 263.015 576.29 263.015 Q579.299 263.015 580.92 261.997 Q582.54 260.955 582.54 259.08 Q582.54 257.344 581.36 256.418 Q580.202 255.492 576.244 254.636 L574.762 254.288 Q570.804 253.455 569.045 251.742 Q567.286 250.006 567.286 246.997 Q567.286 243.339 569.878 241.349 Q572.471 239.358 577.239 239.358 Q579.6 239.358 581.684 239.705 Q583.767 240.052 585.526 240.747 Z" fill="#000000" fill-rule="nonzero" fill-opacity="1" /><path clip-path="url(#clip970)" d="M604.484 268.316 Q602.679 272.946 600.966 274.358 Q599.253 275.77 596.383 275.77 L592.98 275.77 L592.98 272.205 L595.48 272.205 Q597.239 272.205 598.211 271.372 Q599.184 270.538 600.364 267.436 L601.128 265.492 L590.642 239.983 L595.156 239.983 L603.258 260.261 L611.359 239.983 L615.873 239.983 L604.484 268.316 Z" fill="#000000" fill-rule="nonzero" fill-opacity="1" /><path clip-path="url(#clip970)" d="M646.869 242.969 Q643.443 242.969 641.452 245.654 Q639.461 248.316 639.461 252.969 Q639.461 257.622 641.429 260.307 Q643.419 262.969 646.869 262.969 Q650.271 262.969 652.262 260.284 Q654.253 257.598 654.253 252.969 Q654.253 248.362 652.262 245.677 Q650.271 242.969 646.869 242.969 M646.869 239.358 Q652.424 239.358 655.595 242.969 Q658.767 246.58 658.767 252.969 Q658.767 259.335 655.595 262.969 Q652.424 266.58 646.869 266.58 Q641.29 266.58 638.119 262.969 Q634.97 259.335 634.97 252.969 Q634.97 246.58 638.119 242.969 Q641.29 239.358 646.869 239.358 Z" fill="#000000" fill-rule="nonzero" fill-opacity="1" /><path clip-path="url(#clip970)" d="M684.438 252.969 Q684.438 248.27 682.493 245.608 Q680.572 242.923 677.192 242.923 Q673.813 242.923 671.868 245.608 Q669.947 248.27 669.947 252.969 Q669.947 257.668 671.868 260.353 Q673.813 263.015 677.192 263.015 Q680.572 263.015 682.493 260.353 Q684.438 257.668 684.438 252.969 M669.947 243.918 Q671.29 241.603 673.327 240.492 Q675.387 239.358 678.234 239.358 Q682.956 239.358 685.896 243.108 Q688.859 246.858 688.859 252.969 Q688.859 259.08 685.896 262.83 Q682.956 266.58 678.234 266.58 Q675.387 266.58 673.327 265.469 Q671.29 264.335 669.947 262.02 L669.947 265.909 L665.665 265.909 L665.665 229.89 L669.947 229.89 L669.947 243.918 Z" fill="#000000" fill-rule="nonzero" fill-opacity="1" /><path clip-path="url(#clip970)" d="M712.447 240.747 L712.447 244.774 Q710.641 243.849 708.697 243.386 Q706.752 242.923 704.669 242.923 Q701.498 242.923 699.901 243.895 Q698.327 244.867 698.327 246.811 Q698.327 248.293 699.461 249.149 Q700.595 249.983 704.021 250.747 L705.479 251.071 Q710.016 252.043 711.914 253.825 Q713.836 255.585 713.836 258.756 Q713.836 262.367 710.965 264.473 Q708.118 266.58 703.118 266.58 Q701.035 266.58 698.766 266.163 Q696.521 265.77 694.021 264.96 L694.021 260.561 Q696.382 261.788 698.674 262.413 Q700.965 263.015 703.211 263.015 Q706.22 263.015 707.84 261.997 Q709.461 260.955 709.461 259.08 Q709.461 257.344 708.28 256.418 Q707.123 255.492 703.164 254.636 L701.683 254.288 Q697.725 253.455 695.965 251.742 Q694.206 250.006 694.206 246.997 Q694.206 243.339 696.799 241.349 Q699.391 239.358 704.16 239.358 Q706.521 239.358 708.604 239.705 Q710.688 240.052 712.447 240.747 Z" fill="#000000" fill-rule="nonzero" fill-opacity="1" /><path clip-path="url(#clip970)" d="M742.794 251.881 L742.794 253.964 L723.211 253.964 Q723.488 258.362 725.85 260.677 Q728.234 262.969 732.47 262.969 Q734.924 262.969 737.215 262.367 Q739.53 261.765 741.799 260.561 L741.799 264.589 Q739.507 265.561 737.099 266.071 Q734.692 266.58 732.215 266.58 Q726.012 266.58 722.377 262.969 Q718.766 259.358 718.766 253.2 Q718.766 246.835 722.192 243.108 Q725.641 239.358 731.475 239.358 Q736.706 239.358 739.738 242.737 Q742.794 246.094 742.794 251.881 M738.535 250.631 Q738.488 247.136 736.567 245.052 Q734.669 242.969 731.521 242.969 Q727.956 242.969 725.803 244.983 Q723.674 246.997 723.35 250.654 L738.535 250.631 Z" fill="#000000" fill-rule="nonzero" fill-opacity="1" /><path clip-path="url(#clip970)" d="M764.808 243.964 Q764.09 243.548 763.234 243.362 Q762.4 243.154 761.382 243.154 Q757.771 243.154 755.826 245.515 Q753.905 247.853 753.905 252.251 L753.905 265.909 L749.623 265.909 L749.623 239.983 L753.905 239.983 L753.905 244.011 Q755.248 241.649 757.4 240.515 Q759.553 239.358 762.632 239.358 Q763.072 239.358 763.604 239.427 Q764.136 239.474 764.785 239.589 L764.808 243.964 Z" fill="#000000" fill-rule="nonzero" fill-opacity="1" /><path clip-path="url(#clip970)" d="M766.22 239.983 L770.734 239.983 L778.835 261.742 L786.937 239.983 L791.451 239.983 L781.729 265.909 L775.942 265.909 L766.22 239.983 Z" fill="#000000" fill-rule="nonzero" fill-opacity="1" /><path clip-path="url(#clip970)" d="M819.506 251.881 L819.506 253.964 L799.923 253.964 Q800.201 258.362 802.562 260.677 Q804.946 262.969 809.182 262.969 Q811.636 262.969 813.928 262.367 Q816.243 261.765 818.511 260.561 L818.511 264.589 Q816.219 265.561 813.812 266.071 Q811.405 266.58 808.928 266.58 Q802.724 266.58 799.09 262.969 Q795.479 259.358 795.479 253.2 Q795.479 246.835 798.905 243.108 Q802.354 239.358 808.187 239.358 Q813.419 239.358 816.451 242.737 Q819.506 246.094 819.506 251.881 M815.247 250.631 Q815.201 247.136 813.28 245.052 Q811.382 242.969 808.233 242.969 Q804.669 242.969 802.516 244.983 Q800.386 246.997 800.062 250.654 L815.247 250.631 Z" fill="#000000" fill-rule="nonzero" fill-opacity="1" /><path clip-path="url(#clip970)" d="M843.557 243.918 L843.557 229.89 L847.816 229.89 L847.816 265.909 L843.557 265.909 L843.557 262.02 Q842.215 264.335 840.155 265.469 Q838.117 266.58 835.247 266.58 Q830.548 266.58 827.585 262.83 Q824.645 259.08 824.645 252.969 Q824.645 246.858 827.585 243.108 Q830.548 239.358 835.247 239.358 Q838.117 239.358 840.155 240.492 Q842.215 241.603 843.557 243.918 M829.043 252.969 Q829.043 257.668 830.965 260.353 Q832.909 263.015 836.289 263.015 Q839.668 263.015 841.613 260.353 Q843.557 257.668 843.557 252.969 Q843.557 248.27 841.613 245.608 Q839.668 242.923 836.289 242.923 Q832.909 242.923 830.965 245.608 Q829.043 248.27 829.043 252.969 Z" fill="#000000" fill-rule="nonzero" fill-opacity="1" /><path clip-path="url(#clip970)" d="M888.719 243.918 L888.719 229.89 L892.978 229.89 L892.978 265.909 L888.719 265.909 L888.719 262.02 Q887.376 264.335 885.316 265.469 Q883.279 266.58 880.409 266.58 Q875.71 266.58 872.747 262.83 Q869.807 259.08 869.807 252.969 Q869.807 246.858 872.747 243.108 Q875.71 239.358 880.409 239.358 Q883.279 239.358 885.316 240.492 Q887.376 241.603 888.719 243.918 M874.205 252.969 Q874.205 257.668 876.127 260.353 Q878.071 263.015 881.451 263.015 Q884.83 263.015 886.775 260.353 Q888.719 257.668 888.719 252.969 Q888.719 248.27 886.775 245.608 Q884.83 242.923 881.451 242.923 Q878.071 242.923 876.127 245.608 Q874.205 248.27 874.205 252.969 Z" fill="#000000" fill-rule="nonzero" fill-opacity="1" /><path clip-path="url(#clip970)" d="M913.534 252.876 Q908.372 252.876 906.381 254.057 Q904.39 255.237 904.39 258.085 Q904.39 260.353 905.872 261.696 Q907.376 263.015 909.946 263.015 Q913.487 263.015 915.617 260.515 Q917.77 257.992 917.77 253.825 L917.77 252.876 L913.534 252.876 M922.029 251.117 L922.029 265.909 L917.77 265.909 L917.77 261.973 Q916.312 264.335 914.136 265.469 Q911.96 266.58 908.812 266.58 Q904.83 266.58 902.469 264.358 Q900.131 262.112 900.131 258.362 Q900.131 253.987 903.048 251.765 Q905.987 249.543 911.798 249.543 L917.77 249.543 L917.77 249.126 Q917.77 246.187 915.825 244.589 Q913.904 242.969 910.409 242.969 Q908.187 242.969 906.08 243.501 Q903.974 244.034 902.029 245.099 L902.029 241.163 Q904.367 240.261 906.566 239.821 Q908.765 239.358 910.849 239.358 Q916.474 239.358 919.251 242.274 Q922.029 245.191 922.029 251.117 Z" fill="#000000" fill-rule="nonzero" fill-opacity="1" /><path clip-path="url(#clip970)" d="M935.015 232.622 L935.015 239.983 L943.788 239.983 L943.788 243.293 L935.015 243.293 L935.015 257.367 Q935.015 260.538 935.872 261.441 Q936.751 262.344 939.413 262.344 L943.788 262.344 L943.788 265.909 L939.413 265.909 Q934.483 265.909 932.608 264.08 Q930.733 262.228 930.733 257.367 L930.733 243.293 L927.608 243.293 L927.608 239.983 L930.733 239.983 L930.733 232.622 L935.015 232.622 Z" fill="#000000" fill-rule="nonzero" fill-opacity="1" /><path clip-path="url(#clip970)" d="M961.172 252.876 Q956.01 252.876 954.02 254.057 Q952.029 255.237 952.029 258.085 Q952.029 260.353 953.51 261.696 Q955.015 263.015 957.584 263.015 Q961.126 263.015 963.256 260.515 Q965.408 257.992 965.408 253.825 L965.408 252.876 L961.172 252.876 M969.668 251.117 L969.668 265.909 L965.408 265.909 L965.408 261.973 Q963.95 264.335 961.774 265.469 Q959.598 266.58 956.45 266.58 Q952.469 266.58 950.108 264.358 Q947.77 262.112 947.77 258.362 Q947.77 253.987 950.686 251.765 Q953.626 249.543 959.436 249.543 L965.408 249.543 L965.408 249.126 Q965.408 246.187 963.464 244.589 Q961.543 242.969 958.047 242.969 Q955.825 242.969 953.719 243.501 Q951.612 244.034 949.668 245.099 L949.668 241.163 Q952.006 240.261 954.205 239.821 Q956.404 239.358 958.487 239.358 Q964.112 239.358 966.89 242.274 Q969.668 245.191 969.668 251.117 Z" fill="#000000" fill-rule="nonzero" fill-opacity="1" /></svg>
