<?xml version="1.0" encoding="utf-8"?>
<svg xmlns="http://www.w3.org/2000/svg" xmlns:xlink="http://www.w3.org/1999/xlink" width="600" height="400" viewBox="0 0 2400 1600">
<defs>
  <clipPath id="clip150">
    <rect x="0" y="0" width="2400" height="1600"/>
  </clipPath>
</defs>
<path clip-path="url(#clip150)" d="M0 1600 L2400 1600 L2400 0 L0 0  Z" fill="#ffffff" fill-rule="evenodd" fill-opacity="1"/>
<defs>
  <clipPath id="clip151">
    <rect x="480" y="0" width="1681" height="1600"/>
  </clipPath>
</defs>
<path clip-path="url(#clip150)" d="M249.542 1423.18 L2352.76 1423.18 L2352.76 47.2441 L249.542 47.2441  Z" fill="#ffffff" fill-rule="evenodd" fill-opacity="1"/>
<defs>
  <clipPath id="clip152">
    <rect x="249" y="47" width="2104" height="1377"/>
  </clipPath>
</defs>
<polyline clip-path="url(#clip152)" style="stroke:#000000; stroke-linecap:round; stroke-linejoin:round; stroke-width:2; stroke-opacity:0.1; fill:none" points="309.067,1423.18 309.067,47.2441 "/>
<polyline clip-path="url(#clip152)" style="stroke:#000000; stroke-linecap:round; stroke-linejoin:round; stroke-width:2; stroke-opacity:0.1; fill:none" points="970.72,1423.18 970.72,47.2441 "/>
<polyline clip-path="url(#clip152)" style="stroke:#000000; stroke-linecap:round; stroke-linejoin:round; stroke-width:2; stroke-opacity:0.1; fill:none" points="1632.37,1423.18 1632.37,47.2441 "/>
<polyline clip-path="url(#clip152)" style="stroke:#000000; stroke-linecap:round; stroke-linejoin:round; stroke-width:2; stroke-opacity:0.1; fill:none" points="2294.02,1423.18 2294.02,47.2441 "/>
<polyline clip-path="url(#clip150)" style="stroke:#000000; stroke-linecap:round; stroke-linejoin:round; stroke-width:4; stroke-opacity:1; fill:none" points="249.542,1423.18 2352.76,1423.18 "/>
<polyline clip-path="url(#clip150)" style="stroke:#000000; stroke-linecap:round; stroke-linejoin:round; stroke-width:4; stroke-opacity:1; fill:none" points="309.067,1423.18 309.067,1404.28 "/>
<polyline clip-path="url(#clip150)" style="stroke:#000000; stroke-linecap:round; stroke-linejoin:round; stroke-width:4; stroke-opacity:1; fill:none" points="970.72,1423.18 970.72,1404.28 "/>
<polyline clip-path="url(#clip150)" style="stroke:#000000; stroke-linecap:round; stroke-linejoin:round; stroke-width:4; stroke-opacity:1; fill:none" points="1632.37,1423.18 1632.37,1404.28 "/>
<polyline clip-path="url(#clip150)" style="stroke:#000000; stroke-linecap:round; stroke-linejoin:round; stroke-width:4; stroke-opacity:1; fill:none" points="2294.02,1423.18 2294.02,1404.28 "/>
<path clip-path="url(#clip150)" d="M286.451 1454.1 Q282.84 1454.1 281.012 1457.66 Q279.206 1461.2 279.206 1468.33 Q279.206 1475.44 281.012 1479.01 Q282.84 1482.55 286.451 1482.55 Q290.086 1482.55 291.891 1479.01 Q293.72 1475.44 293.72 1468.33 Q293.72 1461.2 291.891 1457.66 Q290.086 1454.1 286.451 1454.1 M286.451 1450.39 Q292.261 1450.39 295.317 1455 Q298.396 1459.58 298.396 1468.33 Q298.396 1477.06 295.317 1481.67 Q292.261 1486.25 286.451 1486.25 Q280.641 1486.25 277.562 1481.67 Q274.507 1477.06 274.507 1468.33 Q274.507 1459.58 277.562 1455 Q280.641 1450.39 286.451 1450.39 Z" fill="#000000" fill-rule="nonzero" fill-opacity="1" /><path clip-path="url(#clip150)" d="M306.613 1479.7 L311.497 1479.7 L311.497 1485.58 L306.613 1485.58 L306.613 1479.7 Z" fill="#000000" fill-rule="nonzero" fill-opacity="1" /><path clip-path="url(#clip150)" d="M331.683 1454.1 Q328.071 1454.1 326.243 1457.66 Q324.437 1461.2 324.437 1468.33 Q324.437 1475.44 326.243 1479.01 Q328.071 1482.55 331.683 1482.55 Q335.317 1482.55 337.122 1479.01 Q338.951 1475.44 338.951 1468.33 Q338.951 1461.2 337.122 1457.66 Q335.317 1454.1 331.683 1454.1 M331.683 1450.39 Q337.493 1450.39 340.548 1455 Q343.627 1459.58 343.627 1468.33 Q343.627 1477.06 340.548 1481.67 Q337.493 1486.25 331.683 1486.25 Q325.872 1486.25 322.794 1481.67 Q319.738 1477.06 319.738 1468.33 Q319.738 1459.58 322.794 1455 Q325.872 1450.39 331.683 1450.39 Z" fill="#000000" fill-rule="nonzero" fill-opacity="1" /><path clip-path="url(#clip150)" d="M948.717 1454.1 Q945.106 1454.1 943.278 1457.66 Q941.472 1461.2 941.472 1468.33 Q941.472 1475.44 943.278 1479.01 Q945.106 1482.55 948.717 1482.55 Q952.352 1482.55 954.157 1479.01 Q955.986 1475.44 955.986 1468.33 Q955.986 1461.2 954.157 1457.66 Q952.352 1454.1 948.717 1454.1 M948.717 1450.39 Q954.528 1450.39 957.583 1455 Q960.662 1459.58 960.662 1468.33 Q960.662 1477.06 957.583 1481.67 Q954.528 1486.25 948.717 1486.25 Q942.907 1486.25 939.829 1481.67 Q936.773 1477.06 936.773 1468.33 Q936.773 1459.58 939.829 1455 Q942.907 1450.39 948.717 1450.39 Z" fill="#000000" fill-rule="nonzero" fill-opacity="1" /><path clip-path="url(#clip150)" d="M968.879 1479.7 L973.764 1479.7 L973.764 1485.58 L968.879 1485.58 L968.879 1479.7 Z" fill="#000000" fill-rule="nonzero" fill-opacity="1" /><path clip-path="url(#clip150)" d="M984.759 1481.64 L992.398 1481.64 L992.398 1455.28 L984.088 1456.95 L984.088 1452.69 L992.351 1451.02 L997.027 1451.02 L997.027 1481.64 L1004.67 1481.64 L1004.67 1485.58 L984.759 1485.58 L984.759 1481.64 Z" fill="#000000" fill-rule="nonzero" fill-opacity="1" /><path clip-path="url(#clip150)" d="M1610.56 1454.1 Q1606.94 1454.1 1605.12 1457.66 Q1603.31 1461.2 1603.31 1468.33 Q1603.31 1475.44 1605.12 1479.01 Q1606.94 1482.55 1610.56 1482.55 Q1614.19 1482.55 1616 1479.01 Q1617.82 1475.44 1617.82 1468.33 Q1617.82 1461.2 1616 1457.66 Q1614.19 1454.1 1610.56 1454.1 M1610.56 1450.39 Q1616.37 1450.39 1619.42 1455 Q1622.5 1459.58 1622.5 1468.33 Q1622.5 1477.06 1619.42 1481.67 Q1616.37 1486.25 1610.56 1486.25 Q1604.75 1486.25 1601.67 1481.67 Q1598.61 1477.06 1598.61 1468.33 Q1598.61 1459.58 1601.67 1455 Q1604.75 1450.39 1610.56 1450.39 Z" fill="#000000" fill-rule="nonzero" fill-opacity="1" /><path clip-path="url(#clip150)" d="M1630.72 1479.7 L1635.6 1479.7 L1635.6 1485.58 L1630.72 1485.58 L1630.72 1479.7 Z" fill="#000000" fill-rule="nonzero" fill-opacity="1" /><path clip-path="url(#clip150)" d="M1649.81 1481.64 L1666.13 1481.64 L1666.13 1485.58 L1644.19 1485.58 L1644.19 1481.64 Q1646.85 1478.89 1651.43 1474.26 Q1656.04 1469.61 1657.22 1468.27 Q1659.47 1465.74 1660.35 1464.01 Q1661.25 1462.25 1661.25 1460.56 Q1661.25 1457.8 1659.31 1456.07 Q1657.38 1454.33 1654.28 1454.33 Q1652.08 1454.33 1649.63 1455.09 Q1647.2 1455.86 1644.42 1457.41 L1644.42 1452.69 Q1647.24 1451.55 1649.7 1450.97 Q1652.15 1450.39 1654.19 1450.39 Q1659.56 1450.39 1662.75 1453.08 Q1665.95 1455.77 1665.95 1460.26 Q1665.95 1462.39 1665.14 1464.31 Q1664.35 1466.2 1662.24 1468.8 Q1661.67 1469.47 1658.56 1472.69 Q1655.46 1475.88 1649.81 1481.64 Z" fill="#000000" fill-rule="nonzero" fill-opacity="1" /><path clip-path="url(#clip150)" d="M2271.73 1454.1 Q2268.12 1454.1 2266.29 1457.66 Q2264.49 1461.2 2264.49 1468.33 Q2264.49 1475.44 2266.29 1479.01 Q2268.12 1482.55 2271.73 1482.55 Q2275.37 1482.55 2277.17 1479.01 Q2279 1475.44 2279 1468.33 Q2279 1461.2 2277.17 1457.66 Q2275.37 1454.1 2271.73 1454.1 M2271.73 1450.39 Q2277.54 1450.39 2280.6 1455 Q2283.68 1459.58 2283.68 1468.33 Q2283.68 1477.06 2280.6 1481.67 Q2277.54 1486.25 2271.73 1486.25 Q2265.92 1486.25 2262.84 1481.67 Q2259.79 1477.06 2259.79 1468.33 Q2259.79 1459.58 2262.84 1455 Q2265.92 1450.39 2271.73 1450.39 Z" fill="#000000" fill-rule="nonzero" fill-opacity="1" /><path clip-path="url(#clip150)" d="M2291.9 1479.7 L2296.78 1479.7 L2296.78 1485.58 L2291.9 1485.58 L2291.9 1479.7 Z" fill="#000000" fill-rule="nonzero" fill-opacity="1" /><path clip-path="url(#clip150)" d="M2321.13 1466.95 Q2324.49 1467.66 2326.36 1469.93 Q2328.26 1472.2 2328.26 1475.53 Q2328.26 1480.65 2324.74 1483.45 Q2321.22 1486.25 2314.74 1486.25 Q2312.57 1486.25 2310.25 1485.81 Q2307.96 1485.39 2305.51 1484.54 L2305.51 1480.02 Q2307.45 1481.16 2309.77 1481.74 Q2312.08 1482.32 2314.6 1482.32 Q2319 1482.32 2321.29 1480.58 Q2323.61 1478.84 2323.61 1475.53 Q2323.61 1472.48 2321.46 1470.77 Q2319.33 1469.03 2315.51 1469.03 L2311.48 1469.03 L2311.48 1465.19 L2315.69 1465.19 Q2319.14 1465.19 2320.97 1463.82 Q2322.8 1462.43 2322.8 1459.84 Q2322.8 1457.18 2320.9 1455.77 Q2319.02 1454.33 2315.51 1454.33 Q2313.59 1454.33 2311.39 1454.75 Q2309.19 1455.16 2306.55 1456.04 L2306.55 1451.88 Q2309.21 1451.14 2311.52 1450.77 Q2313.86 1450.39 2315.92 1450.39 Q2321.25 1450.39 2324.35 1452.83 Q2327.45 1455.23 2327.45 1459.35 Q2327.45 1462.22 2325.81 1464.21 Q2324.16 1466.18 2321.13 1466.95 Z" fill="#000000" fill-rule="nonzero" fill-opacity="1" /><path clip-path="url(#clip150)" d="M1171.32 1520.52 L1211.52 1520.52 L1211.52 1525.93 L1194.65 1525.93 L1194.65 1568.04 L1188.19 1568.04 L1188.19 1525.93 L1171.32 1525.93 L1171.32 1520.52 Z" fill="#000000" fill-rule="nonzero" fill-opacity="1" /><path clip-path="url(#clip150)" d="M1215.47 1532.4 L1221.32 1532.4 L1221.32 1568.04 L1215.47 1568.04 L1215.47 1532.4 M1215.47 1518.52 L1221.32 1518.52 L1221.32 1525.93 L1215.47 1525.93 L1215.47 1518.52 Z" fill="#000000" fill-rule="nonzero" fill-opacity="1" /><path clip-path="url(#clip150)" d="M1261.33 1539.24 Q1263.53 1535.29 1266.58 1533.41 Q1269.64 1531.54 1273.78 1531.54 Q1279.35 1531.54 1282.37 1535.45 Q1285.39 1539.33 1285.39 1546.53 L1285.39 1568.04 L1279.51 1568.04 L1279.51 1546.72 Q1279.51 1541.59 1277.69 1539.11 Q1275.88 1536.63 1272.15 1536.63 Q1267.6 1536.63 1264.96 1539.65 Q1262.32 1542.68 1262.32 1547.9 L1262.32 1568.04 L1256.43 1568.04 L1256.43 1546.72 Q1256.43 1541.56 1254.62 1539.11 Q1252.8 1536.63 1249.01 1536.63 Q1244.53 1536.63 1241.88 1539.68 Q1239.24 1542.71 1239.24 1547.9 L1239.24 1568.04 L1233.35 1568.04 L1233.35 1532.4 L1239.24 1532.4 L1239.24 1537.93 Q1241.25 1534.66 1244.05 1533.1 Q1246.85 1531.54 1250.7 1531.54 Q1254.58 1531.54 1257.29 1533.51 Q1260.03 1535.48 1261.33 1539.24 Z" fill="#000000" fill-rule="nonzero" fill-opacity="1" /><path clip-path="url(#clip150)" d="M1327.57 1548.76 L1327.57 1551.62 L1300.64 1551.62 Q1301.02 1557.67 1304.27 1560.85 Q1307.55 1564 1313.37 1564 Q1316.74 1564 1319.9 1563.17 Q1323.08 1562.35 1326.2 1560.69 L1326.2 1566.23 Q1323.05 1567.57 1319.74 1568.27 Q1316.43 1568.97 1313.02 1568.97 Q1304.49 1568.97 1299.49 1564 Q1294.53 1559.04 1294.53 1550.57 Q1294.53 1541.82 1299.24 1536.69 Q1303.98 1531.54 1312 1531.54 Q1319.2 1531.54 1323.37 1536.18 Q1327.57 1540.8 1327.57 1548.76 M1321.71 1547.04 Q1321.65 1542.23 1319 1539.37 Q1316.39 1536.5 1312.07 1536.5 Q1307.16 1536.5 1304.2 1539.27 Q1301.28 1542.04 1300.83 1547.07 L1321.71 1547.04 Z" fill="#000000" fill-rule="nonzero" fill-opacity="1" /><path clip-path="url(#clip150)" d="M1371.97 1518.58 Q1367.7 1525.9 1365.63 1533.06 Q1363.56 1540.23 1363.56 1547.58 Q1363.56 1554.93 1365.63 1562.16 Q1367.73 1569.35 1371.97 1576.64 L1366.87 1576.64 Q1362.1 1569.16 1359.71 1561.93 Q1357.36 1554.71 1357.36 1547.58 Q1357.36 1540.48 1359.71 1533.29 Q1362.07 1526.09 1366.87 1518.58 L1371.97 1518.58 Z" fill="#000000" fill-rule="nonzero" fill-opacity="1" /><path clip-path="url(#clip150)" d="M1406.06 1533.45 L1406.06 1538.98 Q1403.57 1537.71 1400.9 1537.07 Q1398.23 1536.44 1395.36 1536.44 Q1391 1536.44 1388.8 1537.77 Q1386.64 1539.11 1386.64 1541.79 Q1386.64 1543.82 1388.2 1545 Q1389.76 1546.15 1394.47 1547.2 L1396.48 1547.64 Q1402.71 1548.98 1405.32 1551.43 Q1407.97 1553.85 1407.97 1558.21 Q1407.97 1563.17 1404.02 1566.07 Q1400.1 1568.97 1393.23 1568.97 Q1390.36 1568.97 1387.25 1568.39 Q1384.16 1567.85 1380.72 1566.74 L1380.72 1560.69 Q1383.97 1562.38 1387.12 1563.24 Q1390.27 1564.07 1393.36 1564.07 Q1397.49 1564.07 1399.72 1562.66 Q1401.95 1561.23 1401.95 1558.65 Q1401.95 1556.27 1400.33 1554.99 Q1398.74 1553.72 1393.29 1552.54 L1391.26 1552.07 Q1385.81 1550.92 1383.39 1548.56 Q1380.97 1546.18 1380.97 1542.04 Q1380.97 1537.01 1384.54 1534.27 Q1388.1 1531.54 1394.66 1531.54 Q1397.91 1531.54 1400.77 1532.01 Q1403.64 1532.49 1406.06 1533.45 Z" fill="#000000" fill-rule="nonzero" fill-opacity="1" /><path clip-path="url(#clip150)" d="M1416.37 1518.58 L1421.46 1518.58 Q1426.24 1526.09 1428.59 1533.29 Q1430.98 1540.48 1430.98 1547.58 Q1430.98 1554.71 1428.59 1561.93 Q1426.24 1569.16 1421.46 1576.64 L1416.37 1576.64 Q1420.6 1569.35 1422.67 1562.16 Q1424.77 1554.93 1424.77 1547.58 Q1424.77 1540.23 1422.67 1533.06 Q1420.6 1525.9 1416.37 1518.58 Z" fill="#000000" fill-rule="nonzero" fill-opacity="1" /><polyline clip-path="url(#clip152)" style="stroke:#000000; stroke-linecap:round; stroke-linejoin:round; stroke-width:2; stroke-opacity:0.1; fill:none" points="249.542,1384.24 2352.76,1384.24 "/>
<polyline clip-path="url(#clip152)" style="stroke:#000000; stroke-linecap:round; stroke-linejoin:round; stroke-width:2; stroke-opacity:0.1; fill:none" points="249.542,1062.97 2352.76,1062.97 "/>
<polyline clip-path="url(#clip152)" style="stroke:#000000; stroke-linecap:round; stroke-linejoin:round; stroke-width:2; stroke-opacity:0.1; fill:none" points="249.542,741.702 2352.76,741.702 "/>
<polyline clip-path="url(#clip152)" style="stroke:#000000; stroke-linecap:round; stroke-linejoin:round; stroke-width:2; stroke-opacity:0.1; fill:none" points="249.542,420.434 2352.76,420.434 "/>
<polyline clip-path="url(#clip152)" style="stroke:#000000; stroke-linecap:round; stroke-linejoin:round; stroke-width:2; stroke-opacity:0.1; fill:none" points="249.542,99.1662 2352.76,99.1662 "/>
<polyline clip-path="url(#clip150)" style="stroke:#000000; stroke-linecap:round; stroke-linejoin:round; stroke-width:4; stroke-opacity:1; fill:none" points="249.542,1423.18 249.542,47.2441 "/>
<polyline clip-path="url(#clip150)" style="stroke:#000000; stroke-linecap:round; stroke-linejoin:round; stroke-width:4; stroke-opacity:1; fill:none" points="249.542,1384.24 268.44,1384.24 "/>
<polyline clip-path="url(#clip150)" style="stroke:#000000; stroke-linecap:round; stroke-linejoin:round; stroke-width:4; stroke-opacity:1; fill:none" points="249.542,1062.97 268.44,1062.97 "/>
<polyline clip-path="url(#clip150)" style="stroke:#000000; stroke-linecap:round; stroke-linejoin:round; stroke-width:4; stroke-opacity:1; fill:none" points="249.542,741.702 268.44,741.702 "/>
<polyline clip-path="url(#clip150)" style="stroke:#000000; stroke-linecap:round; stroke-linejoin:round; stroke-width:4; stroke-opacity:1; fill:none" points="249.542,420.434 268.44,420.434 "/>
<polyline clip-path="url(#clip150)" style="stroke:#000000; stroke-linecap:round; stroke-linejoin:round; stroke-width:4; stroke-opacity:1; fill:none" points="249.542,99.1662 268.44,99.1662 "/>
<path clip-path="url(#clip150)" d="M126.205 1370.04 Q122.593 1370.04 120.765 1373.6 Q118.959 1377.14 118.959 1384.27 Q118.959 1391.38 120.765 1394.94 Q122.593 1398.49 126.205 1398.49 Q129.839 1398.49 131.644 1394.94 Q133.473 1391.38 133.473 1384.27 Q133.473 1377.14 131.644 1373.6 Q129.839 1370.04 126.205 1370.04 M126.205 1366.33 Q132.015 1366.33 135.07 1370.94 Q138.149 1375.52 138.149 1384.27 Q138.149 1393 135.07 1397.61 Q132.015 1402.19 126.205 1402.19 Q120.394 1402.19 117.316 1397.61 Q114.26 1393 114.26 1384.27 Q114.26 1375.52 117.316 1370.94 Q120.394 1366.33 126.205 1366.33 Z" fill="#000000" fill-rule="nonzero" fill-opacity="1" /><path clip-path="url(#clip150)" d="M146.366 1395.64 L151.251 1395.64 L151.251 1401.52 L146.366 1401.52 L146.366 1395.64 Z" fill="#000000" fill-rule="nonzero" fill-opacity="1" /><path clip-path="url(#clip150)" d="M171.436 1370.04 Q167.825 1370.04 165.996 1373.6 Q164.19 1377.14 164.19 1384.27 Q164.19 1391.38 165.996 1394.94 Q167.825 1398.49 171.436 1398.49 Q175.07 1398.49 176.876 1394.94 Q178.704 1391.38 178.704 1384.27 Q178.704 1377.14 176.876 1373.6 Q175.07 1370.04 171.436 1370.04 M171.436 1366.33 Q177.246 1366.33 180.301 1370.94 Q183.38 1375.52 183.38 1384.27 Q183.38 1393 180.301 1397.61 Q177.246 1402.19 171.436 1402.19 Q165.626 1402.19 162.547 1397.61 Q159.491 1393 159.491 1384.27 Q159.491 1375.52 162.547 1370.94 Q165.626 1366.33 171.436 1366.33 Z" fill="#000000" fill-rule="nonzero" fill-opacity="1" /><path clip-path="url(#clip150)" d="M201.598 1370.04 Q197.987 1370.04 196.158 1373.6 Q194.352 1377.14 194.352 1384.27 Q194.352 1391.38 196.158 1394.94 Q197.987 1398.49 201.598 1398.49 Q205.232 1398.49 207.037 1394.94 Q208.866 1391.38 208.866 1384.27 Q208.866 1377.14 207.037 1373.6 Q205.232 1370.04 201.598 1370.04 M201.598 1366.33 Q207.408 1366.33 210.463 1370.94 Q213.542 1375.52 213.542 1384.27 Q213.542 1393 210.463 1397.61 Q207.408 1402.19 201.598 1402.19 Q195.787 1402.19 192.709 1397.61 Q189.653 1393 189.653 1384.27 Q189.653 1375.52 192.709 1370.94 Q195.787 1366.33 201.598 1366.33 Z" fill="#000000" fill-rule="nonzero" fill-opacity="1" /><path clip-path="url(#clip150)" d="M127.2 1048.77 Q123.589 1048.77 121.76 1052.33 Q119.955 1055.88 119.955 1063 Q119.955 1070.11 121.76 1073.68 Q123.589 1077.22 127.2 1077.22 Q130.834 1077.22 132.64 1073.68 Q134.468 1070.11 134.468 1063 Q134.468 1055.88 132.64 1052.33 Q130.834 1048.77 127.2 1048.77 M127.2 1045.07 Q133.01 1045.07 136.066 1049.67 Q139.144 1054.26 139.144 1063 Q139.144 1071.73 136.066 1076.34 Q133.01 1080.92 127.2 1080.92 Q121.39 1080.92 118.311 1076.34 Q115.256 1071.73 115.256 1063 Q115.256 1054.26 118.311 1049.67 Q121.39 1045.07 127.2 1045.07 Z" fill="#000000" fill-rule="nonzero" fill-opacity="1" /><path clip-path="url(#clip150)" d="M147.362 1074.37 L152.246 1074.37 L152.246 1080.25 L147.362 1080.25 L147.362 1074.37 Z" fill="#000000" fill-rule="nonzero" fill-opacity="1" /><path clip-path="url(#clip150)" d="M166.459 1076.32 L182.778 1076.32 L182.778 1080.25 L160.834 1080.25 L160.834 1076.32 Q163.496 1073.56 168.079 1068.93 Q172.686 1064.28 173.866 1062.94 Q176.112 1060.41 176.991 1058.68 Q177.894 1056.92 177.894 1055.23 Q177.894 1052.47 175.95 1050.74 Q174.028 1049 170.927 1049 Q168.727 1049 166.274 1049.76 Q163.843 1050.53 161.065 1052.08 L161.065 1047.36 Q163.89 1046.22 166.343 1045.64 Q168.797 1045.07 170.834 1045.07 Q176.204 1045.07 179.399 1047.75 Q182.593 1050.44 182.593 1054.93 Q182.593 1057.06 181.783 1058.98 Q180.996 1060.88 178.889 1063.47 Q178.311 1064.14 175.209 1067.36 Q172.107 1070.55 166.459 1076.32 Z" fill="#000000" fill-rule="nonzero" fill-opacity="1" /><path clip-path="url(#clip150)" d="M192.639 1045.69 L210.996 1045.69 L210.996 1049.63 L196.922 1049.63 L196.922 1058.1 Q197.94 1057.75 198.959 1057.59 Q199.977 1057.4 200.996 1057.4 Q206.783 1057.4 210.162 1060.57 Q213.542 1063.75 213.542 1069.16 Q213.542 1074.74 210.07 1077.84 Q206.598 1080.92 200.278 1080.92 Q198.102 1080.92 195.834 1080.55 Q193.588 1080.18 191.181 1079.44 L191.181 1074.74 Q193.264 1075.88 195.487 1076.43 Q197.709 1076.99 200.186 1076.99 Q204.19 1076.99 206.528 1074.88 Q208.866 1072.77 208.866 1069.16 Q208.866 1065.55 206.528 1063.44 Q204.19 1061.34 200.186 1061.34 Q198.311 1061.34 196.436 1061.75 Q194.584 1062.17 192.639 1063.05 L192.639 1045.69 Z" fill="#000000" fill-rule="nonzero" fill-opacity="1" /><path clip-path="url(#clip150)" d="M126.205 727.501 Q122.593 727.501 120.765 731.066 Q118.959 734.607 118.959 741.737 Q118.959 748.843 120.765 752.408 Q122.593 755.95 126.205 755.95 Q129.839 755.95 131.644 752.408 Q133.473 748.843 133.473 741.737 Q133.473 734.607 131.644 731.066 Q129.839 727.501 126.205 727.501 M126.205 723.797 Q132.015 723.797 135.07 728.404 Q138.149 732.987 138.149 741.737 Q138.149 750.464 135.07 755.07 Q132.015 759.654 126.205 759.654 Q120.394 759.654 117.316 755.07 Q114.26 750.464 114.26 741.737 Q114.26 732.987 117.316 728.404 Q120.394 723.797 126.205 723.797 Z" fill="#000000" fill-rule="nonzero" fill-opacity="1" /><path clip-path="url(#clip150)" d="M146.366 753.103 L151.251 753.103 L151.251 758.982 L146.366 758.982 L146.366 753.103 Z" fill="#000000" fill-rule="nonzero" fill-opacity="1" /><path clip-path="url(#clip150)" d="M161.482 724.422 L179.839 724.422 L179.839 728.357 L165.765 728.357 L165.765 736.83 Q166.783 736.482 167.802 736.32 Q168.82 736.135 169.839 736.135 Q175.626 736.135 179.005 739.306 Q182.385 742.478 182.385 747.894 Q182.385 753.473 178.913 756.575 Q175.44 759.654 169.121 759.654 Q166.945 759.654 164.677 759.283 Q162.431 758.913 160.024 758.172 L160.024 753.473 Q162.107 754.607 164.329 755.163 Q166.552 755.718 169.028 755.718 Q173.033 755.718 175.371 753.612 Q177.709 751.505 177.709 747.894 Q177.709 744.283 175.371 742.177 Q173.033 740.07 169.028 740.07 Q167.153 740.07 165.278 740.487 Q163.427 740.904 161.482 741.783 L161.482 724.422 Z" fill="#000000" fill-rule="nonzero" fill-opacity="1" /><path clip-path="url(#clip150)" d="M201.598 727.501 Q197.987 727.501 196.158 731.066 Q194.352 734.607 194.352 741.737 Q194.352 748.843 196.158 752.408 Q197.987 755.95 201.598 755.95 Q205.232 755.95 207.037 752.408 Q208.866 748.843 208.866 741.737 Q208.866 734.607 207.037 731.066 Q205.232 727.501 201.598 727.501 M201.598 723.797 Q207.408 723.797 210.463 728.404 Q213.542 732.987 213.542 741.737 Q213.542 750.464 210.463 755.07 Q207.408 759.654 201.598 759.654 Q195.787 759.654 192.709 755.07 Q189.653 750.464 189.653 741.737 Q189.653 732.987 192.709 728.404 Q195.787 723.797 201.598 723.797 Z" fill="#000000" fill-rule="nonzero" fill-opacity="1" /><path clip-path="url(#clip150)" d="M127.2 406.233 Q123.589 406.233 121.76 409.798 Q119.955 413.339 119.955 420.469 Q119.955 427.575 121.76 431.14 Q123.589 434.682 127.2 434.682 Q130.834 434.682 132.64 431.14 Q134.468 427.575 134.468 420.469 Q134.468 413.339 132.64 409.798 Q130.834 406.233 127.2 406.233 M127.2 402.529 Q133.01 402.529 136.066 407.136 Q139.144 411.719 139.144 420.469 Q139.144 429.196 136.066 433.802 Q133.01 438.386 127.2 438.386 Q121.39 438.386 118.311 433.802 Q115.256 429.196 115.256 420.469 Q115.256 411.719 118.311 407.136 Q121.39 402.529 127.2 402.529 Z" fill="#000000" fill-rule="nonzero" fill-opacity="1" /><path clip-path="url(#clip150)" d="M147.362 431.835 L152.246 431.835 L152.246 437.714 L147.362 437.714 L147.362 431.835 Z" fill="#000000" fill-rule="nonzero" fill-opacity="1" /><path clip-path="url(#clip150)" d="M161.251 403.154 L183.473 403.154 L183.473 405.145 L170.927 437.714 L166.042 437.714 L177.848 407.089 L161.251 407.089 L161.251 403.154 Z" fill="#000000" fill-rule="nonzero" fill-opacity="1" /><path clip-path="url(#clip150)" d="M192.639 403.154 L210.996 403.154 L210.996 407.089 L196.922 407.089 L196.922 415.562 Q197.94 415.214 198.959 415.052 Q199.977 414.867 200.996 414.867 Q206.783 414.867 210.162 418.038 Q213.542 421.21 213.542 426.626 Q213.542 432.205 210.07 435.307 Q206.598 438.386 200.278 438.386 Q198.102 438.386 195.834 438.015 Q193.588 437.645 191.181 436.904 L191.181 432.205 Q193.264 433.339 195.487 433.895 Q197.709 434.45 200.186 434.45 Q204.19 434.45 206.528 432.344 Q208.866 430.237 208.866 426.626 Q208.866 423.015 206.528 420.909 Q204.19 418.802 200.186 418.802 Q198.311 418.802 196.436 419.219 Q194.584 419.636 192.639 420.515 L192.639 403.154 Z" fill="#000000" fill-rule="nonzero" fill-opacity="1" /><path clip-path="url(#clip150)" d="M117.015 112.511 L124.654 112.511 L124.654 86.1454 L116.343 87.8121 L116.343 83.5529 L124.607 81.8862 L129.283 81.8862 L129.283 112.511 L136.922 112.511 L136.922 116.446 L117.015 116.446 L117.015 112.511 Z" fill="#000000" fill-rule="nonzero" fill-opacity="1" /><path clip-path="url(#clip150)" d="M146.366 110.567 L151.251 110.567 L151.251 116.446 L146.366 116.446 L146.366 110.567 Z" fill="#000000" fill-rule="nonzero" fill-opacity="1" /><path clip-path="url(#clip150)" d="M171.436 84.9649 Q167.825 84.9649 165.996 88.5297 Q164.19 92.0713 164.19 99.2009 Q164.19 106.307 165.996 109.872 Q167.825 113.414 171.436 113.414 Q175.07 113.414 176.876 109.872 Q178.704 106.307 178.704 99.2009 Q178.704 92.0713 176.876 88.5297 Q175.07 84.9649 171.436 84.9649 M171.436 81.2612 Q177.246 81.2612 180.301 85.8677 Q183.38 90.451 183.38 99.2009 Q183.38 107.928 180.301 112.534 Q177.246 117.117 171.436 117.117 Q165.626 117.117 162.547 112.534 Q159.491 107.928 159.491 99.2009 Q159.491 90.451 162.547 85.8677 Q165.626 81.2612 171.436 81.2612 Z" fill="#000000" fill-rule="nonzero" fill-opacity="1" /><path clip-path="url(#clip150)" d="M201.598 84.9649 Q197.987 84.9649 196.158 88.5297 Q194.352 92.0713 194.352 99.2009 Q194.352 106.307 196.158 109.872 Q197.987 113.414 201.598 113.414 Q205.232 113.414 207.037 109.872 Q208.866 106.307 208.866 99.2009 Q208.866 92.0713 207.037 88.5297 Q205.232 84.9649 201.598 84.9649 M201.598 81.2612 Q207.408 81.2612 210.463 85.8677 Q213.542 90.451 213.542 99.2009 Q213.542 107.928 210.463 112.534 Q207.408 117.117 201.598 117.117 Q195.787 117.117 192.709 112.534 Q189.653 107.928 189.653 99.2009 Q189.653 90.451 192.709 85.8677 Q195.787 81.2612 201.598 81.2612 Z" fill="#000000" fill-rule="nonzero" fill-opacity="1" /><path clip-path="url(#clip150)" d="M67.3143 733.525 Q73.68 736.008 75.6216 738.363 Q77.5631 740.718 77.5631 744.665 L77.5631 749.344 L72.6615 749.344 L72.6615 745.906 Q72.6615 743.487 71.5157 742.151 Q70.3699 740.814 66.1048 739.191 L63.4312 738.14 L28.3562 752.559 L28.3562 746.352 L56.238 735.212 L28.3562 724.072 L28.3562 717.865 L67.3143 733.525 Z" fill="#000000" fill-rule="nonzero" fill-opacity="1" /><polyline clip-path="url(#clip152)" style="stroke:#009af9; stroke-linecap:round; stroke-linejoin:round; stroke-width:4; stroke-opacity:1; fill:none" points="309.067,1384.24 314.559,1281.93 320.05,1187.84 325.542,1101.32 331.034,1021.76 336.526,948.593 342.017,881.312 347.509,819.441 353.001,762.545 358.492,710.224 363.984,662.111 369.476,617.866 374.968,577.179 380.459,539.764 385.951,505.358 391.443,473.718 396.934,444.622 402.426,417.867 407.918,393.262 413.41,370.636 418.901,349.83 424.393,330.697 429.885,313.102 435.376,296.922 440.868,282.043 446.36,268.361 451.852,255.778 457.343,244.208 462.835,233.568 468.327,223.783 473.818,214.786 479.31,206.512 484.802,198.903 490.294,191.906 495.785,185.472 501.277,179.555 506.769,174.114 512.26,169.11 517.752,164.509 523.244,160.278 528.736,156.387 534.227,152.808 539.719,149.518 545.211,146.492 550.703,143.71 556.194,141.151 561.686,138.798 567.178,136.634 572.669,134.645 578.161,132.815 583.653,131.132 589.145,129.585 594.636,128.162 600.128,126.853 605.62,125.65 611.111,124.544 616.603,123.526 622.095,122.59 627.587,121.73 633.078,120.939 638.57,120.211 644.062,119.542 649.553,118.927 655.045,118.361 660.537,117.84 666.029,117.362 671.52,116.922 677.012,116.517 682.504,116.145 687.995,115.803 693.487,115.488 698.979,115.199 704.471,114.933 709.962,114.688 715.454,114.463 720.946,114.256 726.437,114.066 731.929,113.891 737.421,113.73 742.913,113.582 748.404,113.446 753.896,113.321 759.388,113.206 764.879,113.1 770.371,113.003 775.863,112.913 781.355,112.831 786.846,112.755 792.338,112.685 797.83,112.621 803.321,112.563 808.813,112.509 814.305,112.459 819.797,112.413 825.288,112.371 830.78,112.332 836.272,112.297 841.764,112.264 847.255,112.234 852.747,112.206 858.239,112.181 863.73,112.157 869.222,112.136 874.714,112.116 880.206,112.098 885.697,112.081 891.189,112.066 896.681,112.052 902.172,112.039 907.664,112.027 913.156,112.016 918.648,112.005 924.139,111.996 929.631,111.988 935.123,111.98 940.614,111.972 946.106,111.966 951.598,111.96 957.09,111.954 962.581,111.949 968.073,111.944 973.565,111.94 979.056,111.936 984.548,111.932 990.04,111.929 995.532,111.925 1001.02,111.923 1006.52,111.92 1012.01,111.918 1017.5,111.915 1022.99,111.913 1028.48,111.911 1033.97,111.91 1039.47,111.908 1044.96,111.907 1050.45,111.905 1055.94,111.904 1061.43,111.903 1066.92,111.902 1072.42,111.901 1077.91,111.9 1083.4,111.899 1088.89,111.898 1094.38,111.898 1099.87,111.897 1105.37,111.896 1110.86,111.896 1116.35,111.895 1121.84,111.895 1127.33,111.894 1132.82,111.894 1138.32,111.894 1143.81,111.893 1149.3,111.893 1154.79,111.893 1160.28,111.893 1165.77,111.892 1171.27,111.892 1176.76,111.892 1182.25,111.892 1187.74,111.892 1193.23,111.891 1198.73,111.891 1204.22,111.891 1209.71,111.891 1215.2,111.891 1220.69,111.891 1226.18,111.891 1231.68,111.891 1237.17,111.891 1242.66,111.891 1248.15,111.89 1253.64,111.89 1259.13,111.89 1264.63,111.89 1270.12,111.89 1275.61,111.89 1281.1,111.89 1286.59,111.89 1292.08,111.89 1297.58,111.89 1303.07,111.89 1308.56,111.89 1314.05,111.89 1319.54,111.89 1325.03,111.89 1330.53,111.89 1336.02,111.89 1341.51,111.89 1347,111.89 1352.49,111.89 1357.98,111.89 1363.48,111.89 1368.97,111.89 1374.46,111.89 1379.95,111.89 1385.44,111.89 1390.94,111.89 1396.43,111.89 1401.92,111.89 1407.41,111.89 1412.9,111.89 1418.39,111.89 1423.89,111.89 1429.38,111.89 1434.87,111.89 1440.36,111.89 1445.85,111.89 1451.34,111.89 1456.84,111.89 1462.33,111.89 1467.82,111.89 1473.31,111.89 1478.8,111.89 1484.29,111.89 1489.79,111.89 1495.28,111.89 1500.77,111.89 1506.26,111.89 1511.75,111.89 1517.24,111.89 1522.74,111.89 1528.23,111.89 1533.72,111.89 1539.21,111.89 1544.7,111.89 1550.2,111.89 1555.69,111.89 1561.18,111.89 1566.67,111.89 1572.16,111.89 1577.65,111.89 1583.15,111.89 1588.64,111.89 1594.13,111.89 1599.62,111.89 1605.11,111.89 1610.6,111.89 1616.1,111.89 1621.59,111.89 1627.08,111.89 1632.57,111.89 1638.06,111.89 1643.55,111.89 1649.05,111.89 1654.54,111.89 1660.03,111.89 1665.52,111.89 1671.01,111.89 1676.5,111.89 1682,111.89 1687.49,111.89 1692.98,111.89 1698.47,111.89 1703.96,111.89 1709.45,111.89 1714.95,111.89 1720.44,111.89 1725.93,111.89 1731.42,111.89 1736.91,111.89 1742.41,111.89 1747.9,111.89 1753.39,111.89 1758.88,111.89 1764.37,111.89 1769.86,111.89 1775.36,111.89 1780.85,111.89 1786.34,111.89 1791.83,111.89 1797.32,111.89 1802.81,111.89 1808.31,111.89 1813.8,111.89 1819.29,111.89 1824.78,111.89 1830.27,111.89 1835.76,111.89 1841.26,111.89 1846.75,111.89 1852.24,111.89 1857.73,111.89 1863.22,111.89 1868.71,111.89 1874.21,111.89 1879.7,111.89 1885.19,111.89 1890.68,111.89 1896.17,111.89 1901.66,111.89 1907.16,111.89 1912.65,111.89 1918.14,111.89 1923.63,111.89 1929.12,111.89 1934.62,111.89 1940.11,111.89 1945.6,111.89 1951.09,111.89 1956.58,111.89 1962.07,111.89 1967.57,111.89 1973.06,111.89 1978.55,111.89 1984.04,111.89 1989.53,111.89 1995.02,111.89 2000.52,111.89 2006.01,111.89 2011.5,111.89 2016.99,111.89 2022.48,111.89 2027.97,111.89 2033.47,111.89 2038.96,111.89 2044.45,111.89 2049.94,111.89 2055.43,111.89 2060.92,111.89 2066.42,111.89 2071.91,111.89 2077.4,111.89 2082.89,111.89 2088.38,111.89 2093.88,111.89 2099.37,111.89 2104.86,111.89 2110.35,111.89 2115.84,111.89 2121.33,111.89 2126.83,111.89 2132.32,111.89 2137.81,111.89 2143.3,111.89 2148.79,111.89 2154.28,111.89 2159.78,111.89 2165.27,111.89 2170.76,111.89 2176.25,111.89 2181.74,111.89 2187.23,111.89 2192.73,111.89 2198.22,111.89 2203.71,111.89 2209.2,111.89 2214.69,111.89 2220.18,111.89 2225.68,111.89 2231.17,111.89 2236.66,111.89 2242.15,111.89 2247.64,111.89 2253.13,111.89 2258.63,111.89 2264.12,111.89 2269.61,111.89 2275.1,111.89 2280.59,111.89 2286.09,111.89 2291.58,111.89 "/>
<polyline clip-path="url(#clip152)" style="stroke:#3da44d; stroke-linecap:round; stroke-linejoin:round; stroke-width:4; stroke-opacity:1; fill:none" points="309.067,1384.24 314.625,1280.66 320.183,1185.34 325.741,1097.64 331.298,1016.93 336.856,942.657 342.414,874.314 347.972,811.424 353.53,753.553 359.088,700.3 364.646,651.296 370.204,606.202 375.762,564.707 381.319,526.523 386.877,491.386 392.435,459.052 397.993,429.299 403.551,401.92 409.109,376.725 414.667,353.541 420.225,332.208 425.782,312.576 431.34,294.511 436.898,277.887 442.456,262.59 448.014,248.514 453.572,235.561 459.13,223.641 464.688,212.673 470.246,202.58 475.803,193.292 481.361,184.745 486.919,176.881 492.477,169.643 498.035,162.984 503.593,156.856 509.151,151.216 514.709,146.027 520.266,141.252 525.824,136.858 531.382,132.815 536.94,129.094 542.498,125.67 548.056,122.519 553.614,119.62 559.172,116.952 564.73,114.497 570.287,112.238 575.845,110.159 581.403,108.246 586.961,106.486 592.519,104.866 598.077,103.375 603.635,102.004 609.193,100.741 614.75,99.5799 620.308,98.5111 625.866,97.5275 631.424,96.6225 636.982,95.7897 642.54,95.0233 648.098,94.3181 653.656,93.6692 659.214,93.072 664.771,92.5225 670.329,92.0169 675.887,91.5516 681.445,91.1234 687.003,90.7294 692.561,90.3668 698.119,90.0332 703.677,89.7261 709.234,89.4436 714.792,89.1837 720.35,88.9444 725.908,88.7243 731.466,88.5217 737.024,88.3353 742.582,88.1638 748.14,88.0059 753.698,87.8607 759.255,87.727 764.813,87.604 770.371,87.4909 775.929,87.3867 781.487,87.2909 787.045,87.2027 792.603,87.1215 798.161,87.0468 803.718,86.9781 809.276,86.9149 814.834,86.8567 820.392,86.8032 825.95,86.7539 831.508,86.7085 837.066,86.6668 842.624,86.6284 848.182,86.5931 853.739,86.5606 859.297,86.5307 864.855,86.5031 870.413,86.4778 875.971,86.4545 881.529,86.433 887.087,86.4133 892.645,86.3951 898.202,86.3784 903.76,86.363 909.318,86.3489 914.876,86.3359 920.434,86.3239 925.992,86.3129 931.55,86.3027 937.108,86.2934 942.666,86.2848 948.223,86.2769 953.781,86.2696 959.339,86.2629 964.897,86.2567 970.455,86.2511 976.013,86.2458 981.571,86.241 987.129,86.2366 992.686,86.2326 998.244,86.2288 1003.8,86.2254 1009.36,86.2222 1014.92,86.2193 1020.48,86.2166 1026.03,86.2141 1031.59,86.2119 1037.15,86.2098 1042.71,86.2079 1048.27,86.2061 1053.82,86.2045 1059.38,86.203 1064.94,86.2016 1070.5,86.2003 1076.05,86.1991 1081.61,86.1981 1087.17,86.1971 1092.73,86.1962 1098.29,86.1953 1103.84,86.1946 1109.4,86.1938 1114.96,86.1932 1120.52,86.1926 1126.08,86.192 1131.63,86.1915 1137.19,86.1911 1142.75,86.1906 1148.31,86.1902 1153.87,86.1899 1159.42,86.1895 1164.98,86.1892 1170.54,86.1889 1176.1,86.1887 1181.65,86.1884 1187.21,86.1882 1192.77,86.188 1198.33,86.1878 1203.89,86.1877 1209.44,86.1875 1215,86.1874 1220.56,86.1872 1226.12,86.1871 1231.68,86.187 1237.23,86.1869 1242.79,86.1868 1248.35,86.1867 1253.91,86.1866 1259.46,86.1865 1265.02,86.1865 1270.58,86.1864 1276.14,86.1863 1281.7,86.1863 1287.25,86.1862 1292.81,86.1862 1298.37,86.1862 1303.93,86.1861 1309.49,86.1861 1315.04,86.186 1320.6,86.186 1326.16,86.186 1331.72,86.186 1337.28,86.1859 1342.83,86.1859 1348.39,86.1859 1353.95,86.1859 1359.51,86.1859 1365.06,86.1859 1370.62,86.1858 1376.18,86.1858 1381.74,86.1858 1387.3,86.1858 1392.85,86.1858 1398.41,86.1858 1403.97,86.1858 1409.53,86.1858 1415.09,86.1858 1420.64,86.1857 1426.2,86.1857 1431.76,86.1857 1437.32,86.1857 1442.87,86.1857 1448.43,86.1857 1453.99,86.1857 1459.55,86.1857 1465.11,86.1857 1470.66,86.1857 1476.22,86.1857 1481.78,86.1857 1487.34,86.1857 1492.9,86.1857 1498.45,86.1857 1504.01,86.1857 1509.57,86.1857 1515.13,86.1857 1520.69,86.1857 1526.24,86.1857 1531.8,86.1857 1537.36,86.1857 1542.92,86.1857 1548.47,86.1857 1554.03,86.1857 1559.59,86.1857 1565.15,86.1857 1570.71,86.1857 1576.26,86.1857 1581.82,86.1857 1587.38,86.1857 1592.94,86.1857 1598.5,86.1857 1604.05,86.1857 1609.61,86.1857 1615.17,86.1857 1620.73,86.1857 1626.29,86.1857 1631.84,86.1857 1637.4,86.1857 1642.96,86.1857 1648.52,86.1857 1654.07,86.1857 1659.63,86.1857 1665.19,86.1857 1670.75,86.1857 1676.31,86.1857 1681.86,86.1857 1687.42,86.1857 1692.98,86.1857 1698.54,86.1857 1704.1,86.1857 1709.65,86.1857 1715.21,86.1857 1720.77,86.1857 1726.33,86.1857 1731.88,86.1857 1737.44,86.1857 1743,86.1857 1748.56,86.1857 1754.12,86.1857 1759.67,86.1857 1765.23,86.1857 1770.79,86.1857 1776.35,86.1857 1781.91,86.1857 1787.46,86.1857 1793.02,86.1857 1798.58,86.1857 1804.14,86.1857 1809.7,86.1857 1815.25,86.1857 1820.81,86.1857 1826.37,86.1857 1831.93,86.1857 1837.48,86.1857 1843.04,86.1857 1848.6,86.1857 1854.16,86.1857 1859.72,86.1857 1865.27,86.1857 1870.83,86.1857 1876.39,86.1857 1881.95,86.1857 1887.51,86.1857 1893.06,86.1857 1898.62,86.1857 1904.18,86.1857 1909.74,86.1857 1915.29,86.1857 1920.85,86.1857 1926.41,86.1857 1931.97,86.1857 1937.53,86.1857 1943.08,86.1857 1948.64,86.1857 1954.2,86.1857 1959.76,86.1857 1965.32,86.1857 1970.87,86.1857 1976.43,86.1857 1981.99,86.1857 1987.55,86.1857 1993.11,86.1857 1998.66,86.1857 2004.22,86.1857 2009.78,86.1857 2015.34,86.1857 2020.89,86.1857 2026.45,86.1857 2032.01,86.1857 2037.57,86.1857 2043.13,86.1857 2048.68,86.1857 2054.24,86.1857 2059.8,86.1857 2065.36,86.1857 2070.92,86.1857 2076.47,86.1857 2082.03,86.1857 2087.59,86.1857 2093.15,86.1857 2098.71,86.1857 2104.26,86.1857 2109.82,86.1857 2115.38,86.1857 2120.94,86.1857 2126.49,86.1857 2132.05,86.1857 2137.61,86.1857 2143.17,86.1857 2148.73,86.1857 2154.28,86.1857 2159.84,86.1857 2165.4,86.1857 2170.96,86.1857 2176.52,86.1857 2182.07,86.1857 2187.63,86.1857 2193.19,86.1857 2198.75,86.1857 2204.3,86.1857 2209.86,86.1857 2215.42,86.1857 2220.98,86.1857 2226.54,86.1857 2232.09,86.1857 2237.65,86.1857 2243.21,86.1857 2248.77,86.1857 2254.33,86.1857 2259.88,86.1857 2265.44,86.1857 2271,86.1857 2276.56,86.1857 2282.12,86.1857 2287.67,86.1857 2293.23,86.1857 "/>
</svg>
