<?xml version="1.0" encoding="utf-8"?>
<svg xmlns="http://www.w3.org/2000/svg" xmlns:xlink="http://www.w3.org/1999/xlink" width="600" height="400" viewBox="0 0 2400 1600">
<defs>
  <clipPath id="clip440">
    <rect x="0" y="0" width="2400" height="1600"/>
  </clipPath>
</defs>
<path clip-path="url(#clip440)" d="M0 1600 L2400 1600 L2400 0 L0 0  Z" fill="#ffffff" fill-rule="evenodd" fill-opacity="1"/>
<defs>
  <clipPath id="clip441">
    <rect x="480" y="0" width="1681" height="1600"/>
  </clipPath>
</defs>
<path clip-path="url(#clip440)" d="M232.389 1423.18 L2352.76 1423.18 L2352.76 47.2441 L232.389 47.2441  Z" fill="#ffffff" fill-rule="evenodd" fill-opacity="1"/>
<defs>
  <clipPath id="clip442">
    <rect x="232" y="47" width="2121" height="1377"/>
  </clipPath>
</defs>
<polyline clip-path="url(#clip442)" style="stroke:#000000; stroke-linecap:round; stroke-linejoin:round; stroke-width:2; stroke-opacity:0.1; fill:none" points="292.4,1423.18 292.4,47.2441 "/>
<polyline clip-path="url(#clip442)" style="stroke:#000000; stroke-linecap:round; stroke-linejoin:round; stroke-width:2; stroke-opacity:0.1; fill:none" points="625.791,1423.18 625.791,47.2441 "/>
<polyline clip-path="url(#clip442)" style="stroke:#000000; stroke-linecap:round; stroke-linejoin:round; stroke-width:2; stroke-opacity:0.1; fill:none" points="959.182,1423.18 959.182,47.2441 "/>
<polyline clip-path="url(#clip442)" style="stroke:#000000; stroke-linecap:round; stroke-linejoin:round; stroke-width:2; stroke-opacity:0.1; fill:none" points="1292.57,1423.18 1292.57,47.2441 "/>
<polyline clip-path="url(#clip442)" style="stroke:#000000; stroke-linecap:round; stroke-linejoin:round; stroke-width:2; stroke-opacity:0.1; fill:none" points="1625.96,1423.18 1625.96,47.2441 "/>
<polyline clip-path="url(#clip442)" style="stroke:#000000; stroke-linecap:round; stroke-linejoin:round; stroke-width:2; stroke-opacity:0.1; fill:none" points="1959.35,1423.18 1959.35,47.2441 "/>
<polyline clip-path="url(#clip442)" style="stroke:#000000; stroke-linecap:round; stroke-linejoin:round; stroke-width:2; stroke-opacity:0.1; fill:none" points="2292.75,1423.18 2292.75,47.2441 "/>
<polyline clip-path="url(#clip440)" style="stroke:#000000; stroke-linecap:round; stroke-linejoin:round; stroke-width:4; stroke-opacity:1; fill:none" points="232.389,1423.18 2352.76,1423.18 "/>
<polyline clip-path="url(#clip440)" style="stroke:#000000; stroke-linecap:round; stroke-linejoin:round; stroke-width:4; stroke-opacity:1; fill:none" points="292.4,1423.18 292.4,1404.28 "/>
<polyline clip-path="url(#clip440)" style="stroke:#000000; stroke-linecap:round; stroke-linejoin:round; stroke-width:4; stroke-opacity:1; fill:none" points="625.791,1423.18 625.791,1404.28 "/>
<polyline clip-path="url(#clip440)" style="stroke:#000000; stroke-linecap:round; stroke-linejoin:round; stroke-width:4; stroke-opacity:1; fill:none" points="959.182,1423.18 959.182,1404.28 "/>
<polyline clip-path="url(#clip440)" style="stroke:#000000; stroke-linecap:round; stroke-linejoin:round; stroke-width:4; stroke-opacity:1; fill:none" points="1292.57,1423.18 1292.57,1404.28 "/>
<polyline clip-path="url(#clip440)" style="stroke:#000000; stroke-linecap:round; stroke-linejoin:round; stroke-width:4; stroke-opacity:1; fill:none" points="1625.96,1423.18 1625.96,1404.28 "/>
<polyline clip-path="url(#clip440)" style="stroke:#000000; stroke-linecap:round; stroke-linejoin:round; stroke-width:4; stroke-opacity:1; fill:none" points="1959.35,1423.18 1959.35,1404.28 "/>
<polyline clip-path="url(#clip440)" style="stroke:#000000; stroke-linecap:round; stroke-linejoin:round; stroke-width:4; stroke-opacity:1; fill:none" points="2292.75,1423.18 2292.75,1404.28 "/>
<path clip-path="url(#clip440)" d="M292.4 1454.1 Q288.789 1454.1 286.96 1457.66 Q285.154 1461.2 285.154 1468.33 Q285.154 1475.44 286.96 1479.01 Q288.789 1482.55 292.4 1482.55 Q296.034 1482.55 297.84 1479.01 Q299.668 1475.44 299.668 1468.33 Q299.668 1461.2 297.84 1457.66 Q296.034 1454.1 292.4 1454.1 M292.4 1450.39 Q298.21 1450.39 301.265 1455 Q304.344 1459.58 304.344 1468.33 Q304.344 1477.06 301.265 1481.67 Q298.21 1486.25 292.4 1486.25 Q286.59 1486.25 283.511 1481.67 Q280.455 1477.06 280.455 1468.33 Q280.455 1459.58 283.511 1455 Q286.59 1450.39 292.4 1450.39 Z" fill="#000000" fill-rule="nonzero" fill-opacity="1" /><path clip-path="url(#clip440)" d="M616.173 1481.64 L623.812 1481.64 L623.812 1455.28 L615.501 1456.95 L615.501 1452.69 L623.765 1451.02 L628.441 1451.02 L628.441 1481.64 L636.08 1481.64 L636.08 1485.58 L616.173 1485.58 L616.173 1481.64 Z" fill="#000000" fill-rule="nonzero" fill-opacity="1" /><path clip-path="url(#clip440)" d="M953.834 1481.64 L970.154 1481.64 L970.154 1485.58 L948.209 1485.58 L948.209 1481.64 Q950.872 1478.89 955.455 1474.26 Q960.061 1469.61 961.242 1468.27 Q963.487 1465.74 964.367 1464.01 Q965.27 1462.25 965.27 1460.56 Q965.27 1457.8 963.325 1456.07 Q961.404 1454.33 958.302 1454.33 Q956.103 1454.33 953.649 1455.09 Q951.219 1455.86 948.441 1457.41 L948.441 1452.69 Q951.265 1451.55 953.719 1450.97 Q956.172 1450.39 958.209 1450.39 Q963.58 1450.39 966.774 1453.08 Q969.969 1455.77 969.969 1460.26 Q969.969 1462.39 969.158 1464.31 Q968.371 1466.2 966.265 1468.8 Q965.686 1469.47 962.584 1472.69 Q959.483 1475.88 953.834 1481.64 Z" fill="#000000" fill-rule="nonzero" fill-opacity="1" /><path clip-path="url(#clip440)" d="M1296.82 1466.95 Q1300.18 1467.66 1302.05 1469.93 Q1303.95 1472.2 1303.95 1475.53 Q1303.95 1480.65 1300.43 1483.45 Q1296.91 1486.25 1290.43 1486.25 Q1288.26 1486.25 1285.94 1485.81 Q1283.65 1485.39 1281.2 1484.54 L1281.2 1480.02 Q1283.14 1481.16 1285.45 1481.74 Q1287.77 1482.32 1290.29 1482.32 Q1294.69 1482.32 1296.98 1480.58 Q1299.3 1478.84 1299.3 1475.53 Q1299.3 1472.48 1297.14 1470.77 Q1295.01 1469.03 1291.2 1469.03 L1287.17 1469.03 L1287.17 1465.19 L1291.38 1465.19 Q1294.83 1465.19 1296.66 1463.82 Q1298.49 1462.43 1298.49 1459.84 Q1298.49 1457.18 1296.59 1455.77 Q1294.71 1454.33 1291.2 1454.33 Q1289.27 1454.33 1287.07 1454.75 Q1284.88 1455.16 1282.24 1456.04 L1282.24 1451.88 Q1284.9 1451.14 1287.21 1450.77 Q1289.55 1450.39 1291.61 1450.39 Q1296.94 1450.39 1300.04 1452.83 Q1303.14 1455.23 1303.14 1459.35 Q1303.14 1462.22 1301.5 1464.21 Q1299.85 1466.18 1296.82 1466.95 Z" fill="#000000" fill-rule="nonzero" fill-opacity="1" /><path clip-path="url(#clip440)" d="M1628.97 1455.09 L1617.17 1473.54 L1628.97 1473.54 L1628.97 1455.09 M1627.75 1451.02 L1633.63 1451.02 L1633.63 1473.54 L1638.56 1473.54 L1638.56 1477.43 L1633.63 1477.43 L1633.63 1485.58 L1628.97 1485.58 L1628.97 1477.43 L1613.37 1477.43 L1613.37 1472.92 L1627.75 1451.02 Z" fill="#000000" fill-rule="nonzero" fill-opacity="1" /><path clip-path="url(#clip440)" d="M1949.63 1451.02 L1967.99 1451.02 L1967.99 1454.96 L1953.91 1454.96 L1953.91 1463.43 Q1954.93 1463.08 1955.95 1462.92 Q1956.97 1462.73 1957.99 1462.73 Q1963.78 1462.73 1967.16 1465.9 Q1970.54 1469.08 1970.54 1474.49 Q1970.54 1480.07 1967.06 1483.17 Q1963.59 1486.25 1957.27 1486.25 Q1955.1 1486.25 1952.83 1485.88 Q1950.58 1485.51 1948.17 1484.77 L1948.17 1480.07 Q1950.26 1481.2 1952.48 1481.76 Q1954.7 1482.32 1957.18 1482.32 Q1961.18 1482.32 1963.52 1480.21 Q1965.86 1478.1 1965.86 1474.49 Q1965.86 1470.88 1963.52 1468.77 Q1961.18 1466.67 1957.18 1466.67 Q1955.3 1466.67 1953.43 1467.08 Q1951.58 1467.5 1949.63 1468.38 L1949.63 1451.02 Z" fill="#000000" fill-rule="nonzero" fill-opacity="1" /><path clip-path="url(#clip440)" d="M2293.15 1466.44 Q2290 1466.44 2288.15 1468.59 Q2286.32 1470.74 2286.32 1474.49 Q2286.32 1478.22 2288.15 1480.39 Q2290 1482.55 2293.15 1482.55 Q2296.3 1482.55 2298.13 1480.39 Q2299.98 1478.22 2299.98 1474.49 Q2299.98 1470.74 2298.13 1468.59 Q2296.3 1466.44 2293.15 1466.44 M2302.43 1451.78 L2302.43 1456.04 Q2300.67 1455.21 2298.87 1454.77 Q2297.09 1454.33 2295.33 1454.33 Q2290.7 1454.33 2288.24 1457.45 Q2285.81 1460.58 2285.47 1466.9 Q2286.83 1464.89 2288.89 1463.82 Q2290.95 1462.73 2293.43 1462.73 Q2298.64 1462.73 2301.65 1465.9 Q2304.68 1469.05 2304.68 1474.49 Q2304.68 1479.82 2301.53 1483.03 Q2298.38 1486.25 2293.15 1486.25 Q2287.16 1486.25 2283.98 1481.67 Q2280.81 1477.06 2280.81 1468.33 Q2280.81 1460.14 2284.7 1455.28 Q2288.59 1450.39 2295.14 1450.39 Q2296.9 1450.39 2298.68 1450.74 Q2300.49 1451.09 2302.43 1451.78 Z" fill="#000000" fill-rule="nonzero" fill-opacity="1" /><path clip-path="url(#clip440)" d="M1162.74 1520.52 L1202.94 1520.52 L1202.94 1525.93 L1186.07 1525.93 L1186.07 1568.04 L1179.61 1568.04 L1179.61 1525.93 L1162.74 1525.93 L1162.74 1520.52 Z" fill="#000000" fill-rule="nonzero" fill-opacity="1" /><path clip-path="url(#clip440)" d="M1206.89 1532.4 L1212.75 1532.4 L1212.75 1568.04 L1206.89 1568.04 L1206.89 1532.4 M1206.89 1518.52 L1212.75 1518.52 L1212.75 1525.93 L1206.89 1525.93 L1206.89 1518.52 Z" fill="#000000" fill-rule="nonzero" fill-opacity="1" /><path clip-path="url(#clip440)" d="M1252.76 1539.24 Q1254.95 1535.29 1258.01 1533.41 Q1261.06 1531.54 1265.2 1531.54 Q1270.77 1531.54 1273.79 1535.45 Q1276.82 1539.33 1276.82 1546.53 L1276.82 1568.04 L1270.93 1568.04 L1270.93 1546.72 Q1270.93 1541.59 1269.11 1539.11 Q1267.3 1536.63 1263.58 1536.63 Q1259.03 1536.63 1256.38 1539.65 Q1253.74 1542.68 1253.74 1547.9 L1253.74 1568.04 L1247.85 1568.04 L1247.85 1546.72 Q1247.85 1541.56 1246.04 1539.11 Q1244.23 1536.63 1240.44 1536.63 Q1235.95 1536.63 1233.31 1539.68 Q1230.67 1542.71 1230.67 1547.9 L1230.67 1568.04 L1224.78 1568.04 L1224.78 1532.4 L1230.67 1532.4 L1230.67 1537.93 Q1232.67 1534.66 1235.47 1533.1 Q1238.27 1531.54 1242.12 1531.54 Q1246.01 1531.54 1248.71 1533.51 Q1251.45 1535.48 1252.76 1539.24 Z" fill="#000000" fill-rule="nonzero" fill-opacity="1" /><path clip-path="url(#clip440)" d="M1318.99 1548.76 L1318.99 1551.62 L1292.06 1551.62 Q1292.45 1557.67 1295.69 1560.85 Q1298.97 1564 1304.79 1564 Q1308.17 1564 1311.32 1563.17 Q1314.5 1562.35 1317.62 1560.69 L1317.62 1566.23 Q1314.47 1567.57 1311.16 1568.27 Q1307.85 1568.97 1304.44 1568.97 Q1295.91 1568.97 1290.92 1564 Q1285.95 1559.04 1285.95 1550.57 Q1285.95 1541.82 1290.66 1536.69 Q1295.41 1531.54 1303.43 1531.54 Q1310.62 1531.54 1314.79 1536.18 Q1318.99 1540.8 1318.99 1548.76 M1313.13 1547.04 Q1313.07 1542.23 1310.43 1539.37 Q1307.82 1536.5 1303.49 1536.5 Q1298.59 1536.5 1295.63 1539.27 Q1292.7 1542.04 1292.25 1547.07 L1313.13 1547.04 Z" fill="#000000" fill-rule="nonzero" fill-opacity="1" /><path clip-path="url(#clip440)" d="M1363.39 1518.58 Q1359.13 1525.9 1357.06 1533.06 Q1354.99 1540.23 1354.99 1547.58 Q1354.99 1554.93 1357.06 1562.16 Q1359.16 1569.35 1363.39 1576.64 L1358.3 1576.64 Q1353.52 1569.16 1351.14 1561.93 Q1348.78 1554.71 1348.78 1547.58 Q1348.78 1540.48 1351.14 1533.29 Q1353.49 1526.09 1358.3 1518.58 L1363.39 1518.58 Z" fill="#000000" fill-rule="nonzero" fill-opacity="1" /><path clip-path="url(#clip440)" d="M1397.48 1533.45 L1397.48 1538.98 Q1395 1537.71 1392.32 1537.07 Q1389.65 1536.44 1386.79 1536.44 Q1382.42 1536.44 1380.23 1537.77 Q1378.06 1539.11 1378.06 1541.79 Q1378.06 1543.82 1379.62 1545 Q1381.18 1546.15 1385.89 1547.2 L1387.9 1547.64 Q1394.14 1548.98 1396.75 1551.43 Q1399.39 1553.85 1399.39 1558.21 Q1399.39 1563.17 1395.44 1566.07 Q1391.53 1568.97 1384.65 1568.97 Q1381.79 1568.97 1378.67 1568.39 Q1375.58 1567.85 1372.14 1566.74 L1372.14 1560.69 Q1375.39 1562.38 1378.54 1563.24 Q1381.69 1564.07 1384.78 1564.07 Q1388.92 1564.07 1391.15 1562.66 Q1393.37 1561.23 1393.37 1558.65 Q1393.37 1556.27 1391.75 1554.99 Q1390.16 1553.72 1384.72 1552.54 L1382.68 1552.07 Q1377.24 1550.92 1374.82 1548.56 Q1372.4 1546.18 1372.4 1542.04 Q1372.4 1537.01 1375.96 1534.27 Q1379.53 1531.54 1386.08 1531.54 Q1389.33 1531.54 1392.2 1532.01 Q1395.06 1532.49 1397.48 1533.45 Z" fill="#000000" fill-rule="nonzero" fill-opacity="1" /><path clip-path="url(#clip440)" d="M1407.79 1518.58 L1412.88 1518.58 Q1417.66 1526.09 1420.01 1533.29 Q1422.4 1540.48 1422.4 1547.58 Q1422.4 1554.71 1420.01 1561.93 Q1417.66 1569.16 1412.88 1576.64 L1407.79 1576.64 Q1412.03 1569.35 1414.09 1562.16 Q1416.19 1554.93 1416.19 1547.58 Q1416.19 1540.23 1414.09 1533.06 Q1412.03 1525.9 1407.79 1518.58 Z" fill="#000000" fill-rule="nonzero" fill-opacity="1" /><polyline clip-path="url(#clip442)" style="stroke:#000000; stroke-linecap:round; stroke-linejoin:round; stroke-width:2; stroke-opacity:0.1; fill:none" points="232.389,1384.24 2352.76,1384.24 "/>
<polyline clip-path="url(#clip442)" style="stroke:#000000; stroke-linecap:round; stroke-linejoin:round; stroke-width:2; stroke-opacity:0.1; fill:none" points="232.389,1067.67 2352.76,1067.67 "/>
<polyline clip-path="url(#clip442)" style="stroke:#000000; stroke-linecap:round; stroke-linejoin:round; stroke-width:2; stroke-opacity:0.1; fill:none" points="232.389,751.111 2352.76,751.111 "/>
<polyline clip-path="url(#clip442)" style="stroke:#000000; stroke-linecap:round; stroke-linejoin:round; stroke-width:2; stroke-opacity:0.1; fill:none" points="232.389,434.548 2352.76,434.548 "/>
<polyline clip-path="url(#clip442)" style="stroke:#000000; stroke-linecap:round; stroke-linejoin:round; stroke-width:2; stroke-opacity:0.1; fill:none" points="232.389,117.984 2352.76,117.984 "/>
<polyline clip-path="url(#clip440)" style="stroke:#000000; stroke-linecap:round; stroke-linejoin:round; stroke-width:4; stroke-opacity:1; fill:none" points="232.389,1423.18 232.389,47.2441 "/>
<polyline clip-path="url(#clip440)" style="stroke:#000000; stroke-linecap:round; stroke-linejoin:round; stroke-width:4; stroke-opacity:1; fill:none" points="232.389,1384.24 251.287,1384.24 "/>
<polyline clip-path="url(#clip440)" style="stroke:#000000; stroke-linecap:round; stroke-linejoin:round; stroke-width:4; stroke-opacity:1; fill:none" points="232.389,1067.67 251.287,1067.67 "/>
<polyline clip-path="url(#clip440)" style="stroke:#000000; stroke-linecap:round; stroke-linejoin:round; stroke-width:4; stroke-opacity:1; fill:none" points="232.389,751.111 251.287,751.111 "/>
<polyline clip-path="url(#clip440)" style="stroke:#000000; stroke-linecap:round; stroke-linejoin:round; stroke-width:4; stroke-opacity:1; fill:none" points="232.389,434.548 251.287,434.548 "/>
<polyline clip-path="url(#clip440)" style="stroke:#000000; stroke-linecap:round; stroke-linejoin:round; stroke-width:4; stroke-opacity:1; fill:none" points="232.389,117.984 251.287,117.984 "/>
<path clip-path="url(#clip440)" d="M184.445 1370.04 Q180.834 1370.04 179.005 1373.6 Q177.2 1377.14 177.2 1384.27 Q177.2 1391.38 179.005 1394.94 Q180.834 1398.49 184.445 1398.49 Q188.079 1398.49 189.885 1394.94 Q191.713 1391.38 191.713 1384.27 Q191.713 1377.14 189.885 1373.6 Q188.079 1370.04 184.445 1370.04 M184.445 1366.33 Q190.255 1366.33 193.311 1370.94 Q196.389 1375.52 196.389 1384.27 Q196.389 1393 193.311 1397.61 Q190.255 1402.19 184.445 1402.19 Q178.635 1402.19 175.556 1397.61 Q172.501 1393 172.501 1384.27 Q172.501 1375.52 175.556 1370.94 Q178.635 1366.33 184.445 1366.33 Z" fill="#000000" fill-rule="nonzero" fill-opacity="1" /><path clip-path="url(#clip440)" d="M149.306 1081.02 L165.626 1081.02 L165.626 1084.95 L143.681 1084.95 L143.681 1081.02 Q146.343 1078.26 150.927 1073.64 Q155.533 1068.98 156.714 1067.64 Q158.959 1065.12 159.839 1063.38 Q160.741 1061.62 160.741 1059.93 Q160.741 1057.18 158.797 1055.44 Q156.876 1053.7 153.774 1053.7 Q151.575 1053.7 149.121 1054.47 Q146.691 1055.23 143.913 1056.78 L143.913 1052.06 Q146.737 1050.93 149.191 1050.35 Q151.644 1049.77 153.681 1049.77 Q159.052 1049.77 162.246 1052.45 Q165.44 1055.14 165.44 1059.63 Q165.44 1061.76 164.63 1063.68 Q163.843 1065.58 161.737 1068.17 Q161.158 1068.84 158.056 1072.06 Q154.954 1075.26 149.306 1081.02 Z" fill="#000000" fill-rule="nonzero" fill-opacity="1" /><path clip-path="url(#clip440)" d="M175.487 1050.39 L193.843 1050.39 L193.843 1054.33 L179.769 1054.33 L179.769 1062.8 Q180.788 1062.45 181.806 1062.29 Q182.825 1062.11 183.843 1062.11 Q189.63 1062.11 193.01 1065.28 Q196.389 1068.45 196.389 1073.87 Q196.389 1079.45 192.917 1082.55 Q189.445 1085.63 183.126 1085.63 Q180.95 1085.63 178.681 1085.26 Q176.436 1084.89 174.028 1084.14 L174.028 1079.45 Q176.112 1080.58 178.334 1081.14 Q180.556 1081.69 183.033 1081.69 Q187.038 1081.69 189.375 1079.58 Q191.713 1077.48 191.713 1073.87 Q191.713 1070.26 189.375 1068.15 Q187.038 1066.04 183.033 1066.04 Q181.158 1066.04 179.283 1066.46 Q177.431 1066.88 175.487 1067.76 L175.487 1050.39 Z" fill="#000000" fill-rule="nonzero" fill-opacity="1" /><path clip-path="url(#clip440)" d="M144.329 733.831 L162.686 733.831 L162.686 737.766 L148.612 737.766 L148.612 746.239 Q149.63 745.891 150.649 745.729 Q151.667 745.544 152.686 745.544 Q158.473 745.544 161.852 748.715 Q165.232 751.887 165.232 757.303 Q165.232 762.882 161.76 765.984 Q158.288 769.062 151.968 769.062 Q149.792 769.062 147.524 768.692 Q145.279 768.322 142.871 767.581 L142.871 762.882 Q144.954 764.016 147.177 764.572 Q149.399 765.127 151.876 765.127 Q155.88 765.127 158.218 763.021 Q160.556 760.914 160.556 757.303 Q160.556 753.692 158.218 751.586 Q155.88 749.479 151.876 749.479 Q150.001 749.479 148.126 749.896 Q146.274 750.313 144.329 751.192 L144.329 733.831 Z" fill="#000000" fill-rule="nonzero" fill-opacity="1" /><path clip-path="url(#clip440)" d="M184.445 736.91 Q180.834 736.91 179.005 740.475 Q177.2 744.016 177.2 751.146 Q177.2 758.252 179.005 761.817 Q180.834 765.359 184.445 765.359 Q188.079 765.359 189.885 761.817 Q191.713 758.252 191.713 751.146 Q191.713 744.016 189.885 740.475 Q188.079 736.91 184.445 736.91 M184.445 733.206 Q190.255 733.206 193.311 737.813 Q196.389 742.396 196.389 751.146 Q196.389 759.873 193.311 764.479 Q190.255 769.062 184.445 769.062 Q178.635 769.062 175.556 764.479 Q172.501 759.873 172.501 751.146 Q172.501 742.396 175.556 737.813 Q178.635 733.206 184.445 733.206 Z" fill="#000000" fill-rule="nonzero" fill-opacity="1" /><path clip-path="url(#clip440)" d="M144.098 417.268 L166.32 417.268 L166.32 419.258 L153.774 451.828 L148.89 451.828 L160.695 421.203 L144.098 421.203 L144.098 417.268 Z" fill="#000000" fill-rule="nonzero" fill-opacity="1" /><path clip-path="url(#clip440)" d="M175.487 417.268 L193.843 417.268 L193.843 421.203 L179.769 421.203 L179.769 429.675 Q180.788 429.328 181.806 429.166 Q182.825 428.981 183.843 428.981 Q189.63 428.981 193.01 432.152 Q196.389 435.323 196.389 440.74 Q196.389 446.318 192.917 449.42 Q189.445 452.499 183.126 452.499 Q180.95 452.499 178.681 452.129 Q176.436 451.758 174.028 451.017 L174.028 446.318 Q176.112 447.453 178.334 448.008 Q180.556 448.564 183.033 448.564 Q187.038 448.564 189.375 446.457 Q191.713 444.351 191.713 440.74 Q191.713 437.129 189.375 435.022 Q187.038 432.916 183.033 432.916 Q181.158 432.916 179.283 433.332 Q177.431 433.749 175.487 434.629 L175.487 417.268 Z" fill="#000000" fill-rule="nonzero" fill-opacity="1" /><path clip-path="url(#clip440)" d="M114.931 131.329 L122.57 131.329 L122.57 104.963 L114.26 106.63 L114.26 102.371 L122.524 100.704 L127.2 100.704 L127.2 131.329 L134.839 131.329 L134.839 135.264 L114.931 135.264 L114.931 131.329 Z" fill="#000000" fill-rule="nonzero" fill-opacity="1" /><path clip-path="url(#clip440)" d="M154.283 103.783 Q150.672 103.783 148.843 107.348 Q147.038 110.889 147.038 118.019 Q147.038 125.125 148.843 128.69 Q150.672 132.232 154.283 132.232 Q157.917 132.232 159.723 128.69 Q161.552 125.125 161.552 118.019 Q161.552 110.889 159.723 107.348 Q157.917 103.783 154.283 103.783 M154.283 100.079 Q160.093 100.079 163.149 104.686 Q166.227 109.269 166.227 118.019 Q166.227 126.746 163.149 131.352 Q160.093 135.935 154.283 135.935 Q148.473 135.935 145.394 131.352 Q142.339 126.746 142.339 118.019 Q142.339 109.269 145.394 104.686 Q148.473 100.079 154.283 100.079 Z" fill="#000000" fill-rule="nonzero" fill-opacity="1" /><path clip-path="url(#clip440)" d="M184.445 103.783 Q180.834 103.783 179.005 107.348 Q177.2 110.889 177.2 118.019 Q177.2 125.125 179.005 128.69 Q180.834 132.232 184.445 132.232 Q188.079 132.232 189.885 128.69 Q191.713 125.125 191.713 118.019 Q191.713 110.889 189.885 107.348 Q188.079 103.783 184.445 103.783 M184.445 100.079 Q190.255 100.079 193.311 104.686 Q196.389 109.269 196.389 118.019 Q196.389 126.746 193.311 131.352 Q190.255 135.935 184.445 135.935 Q178.635 135.935 175.556 131.352 Q172.501 126.746 172.501 118.019 Q172.501 109.269 175.556 104.686 Q178.635 100.079 184.445 100.079 Z" fill="#000000" fill-rule="nonzero" fill-opacity="1" /><path clip-path="url(#clip440)" d="M67.3143 733.525 Q73.68 736.008 75.6216 738.363 Q77.5631 740.718 77.5631 744.665 L77.5631 749.344 L72.6615 749.344 L72.6615 745.906 Q72.6615 743.487 71.5157 742.151 Q70.3699 740.814 66.1048 739.191 L63.4312 738.14 L28.3562 752.559 L28.3562 746.352 L56.238 735.212 L28.3562 724.072 L28.3562 717.865 L67.3143 733.525 Z" fill="#000000" fill-rule="nonzero" fill-opacity="1" /><polyline clip-path="url(#clip442)" style="stroke:#009af9; stroke-linecap:round; stroke-linejoin:round; stroke-width:4; stroke-opacity:1; fill:none" points="292.4,1384.24 302.401,1346.81 312.403,1310.5 322.405,1275.25 332.407,1241.05 342.408,1207.86 352.41,1175.65 362.412,1144.39 372.414,1114.05 382.415,1084.62 392.417,1056.05 402.419,1028.32 412.42,1001.42 422.422,975.31 432.424,949.972 442.426,925.383 452.427,901.521 462.429,878.364 472.431,855.892 482.433,834.083 492.434,812.919 502.436,792.381 512.438,772.449 522.439,753.107 532.441,734.336 542.443,716.12 552.445,698.443 562.446,681.287 572.448,664.639 582.45,648.483 592.452,632.805 602.453,617.589 612.455,602.824 622.457,588.495 632.459,574.589 642.46,561.094 652.462,547.998 662.464,535.29 672.465,522.956 682.467,510.988 692.469,499.373 702.471,488.101 712.472,477.162 722.474,466.547 732.476,456.245 742.478,446.248 752.479,436.547 762.481,427.132 772.483,417.995 782.484,409.128 792.486,400.524 802.488,392.173 812.49,384.07 822.491,376.206 832.493,368.574 842.495,361.168 852.497,353.981 862.498,347.006 872.5,340.238 882.502,333.669 892.503,327.295 902.505,321.108 912.507,315.105 922.509,309.279 932.51,303.626 942.512,298.139 952.514,292.815 962.516,287.648 972.517,282.634 982.519,277.767 992.521,273.045 1002.52,268.462 1012.52,264.015 1022.53,259.699 1032.53,255.511 1042.53,251.446 1052.53,247.502 1062.53,243.674 1072.53,239.959 1082.54,236.354 1092.54,232.856 1102.54,229.461 1112.54,226.166 1122.54,222.969 1132.54,219.866 1142.55,216.855 1152.55,213.933 1162.55,211.098 1172.55,208.346 1182.55,205.675 1192.56,203.083 1202.56,200.568 1212.56,198.128 1222.56,195.759 1232.56,193.46 1242.56,191.23 1252.57,189.065 1262.57,186.964 1272.57,184.926 1282.57,182.947 1292.57,181.027 1302.57,179.164 1312.58,177.356 1322.58,175.601 1332.58,173.898 1342.58,172.246 1352.58,170.642 1362.58,169.086 1372.59,167.576 1382.59,166.11 1392.59,164.688 1402.59,163.307 1412.59,161.968 1422.6,160.668 1432.6,159.406 1442.6,158.182 1452.6,156.994 1462.6,155.841 1472.6,154.722 1482.61,153.637 1492.61,152.583 1502.61,151.56 1512.61,150.568 1522.61,149.605 1532.61,148.67 1542.62,147.764 1552.62,146.883 1562.62,146.029 1572.62,145.2 1582.62,144.396 1592.62,143.616 1602.63,142.858 1612.63,142.123 1622.63,141.409 1632.63,140.717 1642.63,140.045 1652.63,139.393 1662.64,138.761 1672.64,138.147 1682.64,137.551 1692.64,136.972 1702.64,136.411 1712.65,135.867 1722.65,135.338 1732.65,134.825 1742.65,134.327 1752.65,133.844 1762.65,133.376 1772.66,132.921 1782.66,132.479 1792.66,132.051 1802.66,131.635 1812.66,131.232 1822.66,130.84 1832.67,130.46 1842.67,130.092 1852.67,129.734 1862.67,129.386 1872.67,129.049 1882.67,128.722 1892.68,128.405 1902.68,128.097 1912.68,127.798 1922.68,127.508 1932.68,127.227 1942.69,126.954 1952.69,126.688 1962.69,126.431 1972.69,126.182 1982.69,125.939 1992.69,125.704 2002.7,125.476 2012.7,125.255 2022.7,125.04 2032.7,124.831 2042.7,124.629 2052.7,124.432 2062.71,124.242 2072.71,124.057 2082.71,123.877 2092.71,123.703 2102.71,123.534 2112.71,123.37 2122.72,123.211 2132.72,123.057 2142.72,122.907 2152.72,122.761 2162.72,122.62 2172.72,122.483 2182.73,122.35 2192.73,122.221 2202.73,122.096 2212.73,121.974 2222.73,121.856 2232.74,121.742 2242.74,121.631 2252.74,121.523 2262.74,121.418 2272.74,121.317 2282.74,121.218 2292.75,121.123 "/>
<polyline clip-path="url(#clip442)" style="stroke:#e26f46; stroke-linecap:round; stroke-linejoin:round; stroke-width:4; stroke-opacity:1; fill:none" points="292.4,1384.24 293.1,1384.24 293.8,1384.22 294.5,1384.16 295.2,1384.07 295.9,1383.92 296.6,1383.71 297.301,1383.44 298.001,1383.09 298.701,1382.66 299.401,1382.16 300.101,1381.58 300.801,1380.91 301.501,1380.17 302.201,1379.35 302.902,1378.44 303.602,1377.46 304.302,1376.4 305.002,1375.27 305.702,1374.07 306.402,1372.8 307.102,1371.46 307.802,1370.05 308.503,1368.59 309.203,1367.06 309.903,1365.48 310.603,1363.84 311.303,1362.15 312.003,1360.41 312.703,1358.63 313.403,1356.8 314.103,1354.93 314.804,1353.03 315.504,1351.08 316.204,1349.1 316.904,1347.09 317.604,1345.05 318.304,1342.98 319.004,1340.88 319.704,1338.76 320.405,1336.61 321.105,1334.45 321.805,1332.26 322.505,1330.05 323.205,1327.83 323.905,1325.59 324.605,1323.34 325.305,1321.07 326.006,1318.8 326.706,1316.51 327.406,1314.21 328.106,1311.9 328.806,1309.58 329.506,1307.25 330.206,1304.92 330.906,1302.58 331.606,1300.24 332.307,1297.89 333.007,1295.54 333.707,1293.19 334.407,1290.83 335.107,1288.47 335.807,1286.11 336.507,1283.74 337.207,1281.38 337.908,1279.02 338.608,1276.65 339.308,1274.29 340.008,1271.92 340.708,1269.56 341.408,1267.19 342.108,1264.83 342.808,1262.47 343.509,1260.11 344.209,1257.76 344.909,1255.4 345.609,1253.05 346.309,1250.7 347.009,1248.36 347.709,1246.01 348.409,1243.67 349.11,1241.33 349.81,1239 350.51,1236.67 351.21,1234.34 351.91,1232.02 352.61,1229.7 353.31,1227.38 354.01,1225.07 354.71,1222.76 355.411,1220.45 356.111,1218.15 356.811,1215.85 357.511,1213.56 358.211,1211.27 358.911,1208.99 359.611,1206.71 360.311,1204.43 361.012,1202.16 361.712,1199.89 362.412,1197.62 363.112,1195.37 363.812,1193.11 364.512,1190.86 365.212,1188.61 365.912,1186.37 366.613,1184.13 367.313,1181.9 368.013,1179.67 368.713,1177.45 369.413,1175.23 370.113,1173.01 370.813,1170.8 371.513,1168.6 372.214,1166.39 372.914,1164.2 373.614,1162 374.314,1159.81 375.014,1157.63 375.714,1155.45 376.414,1153.28 377.114,1151.1 377.814,1148.94 378.515,1146.78 379.215,1144.62 379.915,1142.47 380.615,1140.32 381.315,1138.17 382.015,1136.04 382.715,1133.9 383.415,1131.77 384.116,1129.64 384.816,1127.52 385.516,1125.4 386.216,1123.29 386.916,1121.18 387.616,1119.08 388.316,1116.98 389.016,1114.88 389.717,1112.79 390.417,1110.71 391.117,1108.62 391.817,1106.55 392.517,1104.47 393.217,1102.4 393.917,1100.34 394.617,1098.28 395.318,1096.22 396.018,1094.17 396.718,1092.12 397.418,1090.08 398.118,1088.04 398.818,1086 399.518,1083.97 400.218,1081.95 400.918,1079.92 401.619,1077.91 402.319,1075.89 403.019,1073.88 403.719,1071.88 404.419,1069.88 405.119,1067.88 405.819,1065.89 406.519,1063.9 407.22,1061.92 407.92,1059.94 408.62,1057.96 409.32,1055.99 410.02,1054.02 410.72,1052.06 411.42,1050.1 412.12,1048.14 412.821,1046.19 413.521,1044.24 414.221,1042.3 414.921,1040.36 415.621,1038.43 416.321,1036.49 417.021,1034.57 417.721,1032.65 418.422,1030.73 419.122,1028.81 419.822,1026.9 420.522,1024.99 421.222,1023.09 421.922,1021.19 422.622,1019.3 423.322,1017.41 424.022,1015.52 424.723,1013.64 425.423,1011.76 426.123,1009.88 426.823,1008.01 427.523,1006.15 428.223,1004.28 428.923,1002.42 429.623,1000.57 430.324,998.717 431.024,996.869 431.724,995.025 432.424,993.185 433.124,991.349 433.824,989.517 434.524,987.689 435.224,985.865 435.925,984.044 436.625,982.227 437.325,980.414 438.025,978.605 438.725,976.799 439.425,974.998 440.125,973.2 440.825,971.406 441.526,969.616 442.226,967.829 442.926,966.046 443.626,964.267 444.326,962.492 445.026,960.72 445.726,958.952 446.426,957.188 447.126,955.428 447.827,953.671 448.527,951.918 449.227,950.168 449.927,948.423 450.627,946.681 451.327,944.942 452.027,943.207 452.727,941.476 453.428,939.749 454.128,938.025 454.828,936.305 455.528,934.588 456.228,932.875 456.928,931.165 457.628,929.459 458.328,927.757 459.029,926.058 459.729,924.363 460.429,922.672 461.129,920.984 461.829,919.299 462.529,917.618 463.229,915.941 463.929,914.267 464.629,912.596 465.33,910.929 466.03,909.266 466.73,907.606 467.43,905.949 468.13,904.296 468.83,902.647 469.53,901.001 470.23,899.358 470.931,897.719 471.631,896.083 472.331,894.451 473.031,892.822 473.731,891.197 474.431,889.575 475.131,887.956 475.831,886.341 476.532,884.729 477.232,883.12 477.932,881.515 478.632,879.914 479.332,878.315 480.032,876.72 480.732,875.128 481.432,873.54 482.133,871.955 482.833,870.373 483.533,868.795 484.233,867.22 484.933,865.648 485.633,864.08 486.333,862.515 487.033,860.953 487.733,859.394 488.434,857.839 489.134,856.287 489.834,854.738 490.534,853.192 491.234,851.65 491.934,850.111 492.634,848.575 493.334,847.043 494.035,845.513 494.735,843.987 495.435,842.464 496.135,840.944 496.835,839.428 497.535,837.914 498.235,836.404 498.935,834.897 499.636,833.393 500.336,831.892 501.036,830.394 501.736,828.9 502.436,827.409 503.136,825.92 503.836,824.435 504.536,822.953 505.237,821.474 505.937,819.999 506.637,818.526 507.337,817.056 508.037,815.59 508.737,814.126 509.437,812.666 510.137,811.209 510.837,809.754 511.538,808.303 512.238,806.855 512.938,805.41 513.638,803.968 514.338,802.529 515.038,801.093 515.738,799.66 516.438,798.23 517.139,796.803 517.839,795.379 518.539,793.958 519.239,792.54 519.939,791.125 520.639,789.712 521.339,788.303 522.039,786.897 522.74,785.494 523.44,784.094 524.14,782.696 524.84,781.302 525.54,779.91 526.24,778.522 526.94,777.136 527.64,775.753 528.341,774.373 529.041,772.996 529.741,771.622 530.441,770.251 531.141,768.883 531.841,767.517 532.541,766.155 533.241,764.795 533.941,763.438 534.642,762.084 535.342,760.733 536.042,759.385 536.742,758.039 537.442,756.696 538.142,755.356 538.842,754.019 539.542,752.685 540.243,751.354 540.943,750.025 541.643,748.699 542.343,747.376 543.043,746.056 543.743,744.738 544.443,743.423 545.143,742.111 545.844,740.802 546.544,739.495 547.244,738.192 547.944,736.89 548.644,735.592 549.344,734.297 550.044,733.004 550.744,731.713 551.445,730.426 552.145,729.141 552.845,727.859 553.545,726.58 554.245,725.303 554.945,724.029 555.645,722.758 556.345,721.489 557.045,720.223 557.746,718.959 558.446,717.699 559.146,716.441 559.846,715.185 560.546,713.932 561.246,712.682 561.946,711.435 562.646,710.19 563.347,708.947 564.047,707.708 564.747,706.471 565.447,705.236 566.147,704.004 566.847,702.775 567.547,701.548 568.247,700.324 568.948,699.102 569.648,697.883 570.348,696.667 571.048,695.453 571.748,694.241 572.448,693.032 573.148,691.826 573.848,690.622 574.548,689.421 575.249,688.222 575.949,687.026 576.649,685.832 577.349,684.641 578.049,683.452 578.749,682.266 579.449,681.082 580.149,679.901 580.85,678.722 581.55,677.546 582.25,676.372 582.95,675.201 583.65,674.032 584.35,672.865 585.05,671.701 585.75,670.54 586.451,669.381 587.151,668.224 587.851,667.07 588.551,665.918 589.251,664.768 589.951,663.621 590.651,662.477 591.351,661.334 592.052,660.194 592.752,659.057 593.452,657.922 594.152,656.789 594.852,655.659 595.552,654.531 596.252,653.405 596.952,652.282 597.652,651.161 598.353,650.043 599.053,648.927 599.753,647.813 600.453,646.701 601.153,645.592 601.853,644.486 602.553,643.381 603.253,642.279 603.954,641.179 604.654,640.081 605.354,638.986 606.054,637.893 606.754,636.803 607.454,635.714 608.154,634.628 608.854,633.544 609.555,632.463 610.255,631.383 610.955,630.306 611.655,629.232 612.355,628.159 613.055,627.089 613.755,626.021 614.455,624.955 615.156,623.892 615.856,622.83 616.556,621.771 617.256,620.714 617.956,619.66 618.656,618.607 619.356,617.557 620.056,616.509 620.756,615.463 621.457,614.42 622.157,613.378 622.857,612.339 623.557,611.302 624.257,610.267 624.957,609.235 625.657,608.204 626.357,607.176 627.058,606.149 627.758,605.125 628.458,604.103 629.158,603.084 629.858,602.066 630.558,601.05 631.258,600.037 631.958,599.026 632.659,598.017 633.359,597.01 634.059,596.005 634.759,595.002 635.459,594.001 636.159,593.003 636.859,592.006 637.559,591.012 638.26,590.02 638.96,589.029 639.66,588.041 640.36,587.055 641.06,586.071 641.76,585.089 642.46,584.109 643.16,583.131 643.86,582.156 644.561,581.182 645.261,580.21 645.961,579.24 646.661,578.273 647.361,577.307 648.061,576.344 648.761,575.382 649.461,574.423 650.162,573.465 650.862,572.51 651.562,571.556 652.262,570.605 652.962,569.655 653.662,568.708 654.362,567.762 655.062,566.818 655.763,565.877 656.463,564.937 657.163,564 657.863,563.064 658.563,562.13 659.263,561.199 659.963,560.269 660.663,559.341 661.364,558.415 662.064,557.491 662.764,556.569 663.464,555.649 664.164,554.731 664.864,553.815 665.564,552.901 666.264,551.988 666.964,551.078 667.665,550.169 668.365,549.263 669.065,548.358 669.765,547.455 670.465,546.554 671.165,545.655 671.865,544.758 672.565,543.863 673.266,542.969 673.966,542.078 674.666,541.188 675.366,540.3 676.066,539.414 676.766,538.53 677.466,537.648 678.166,536.768 678.867,535.889 679.567,535.012 680.267,534.138 680.967,533.265 681.667,532.393 682.367,531.524 683.067,530.656 683.767,529.791 684.468,528.927 685.168,528.065 685.868,527.205 686.568,526.346 687.268,525.489 687.968,524.635 688.668,523.781 689.368,522.93 690.068,522.081 690.769,521.233 691.469,520.387 692.169,519.543 692.869,518.701 693.569,517.86 694.269,517.021 694.969,516.184 695.669,515.349 696.37,514.515 697.07,513.683 697.77,512.853 698.47,512.025 699.17,511.198 699.87,510.373 700.57,509.55 701.27,508.729 701.971,507.909 702.671,507.091 703.371,506.275 704.071,505.46 704.771,504.647 705.471,503.836 706.171,503.027 706.871,502.219 707.571,501.413 708.272,500.609 708.972,499.806 709.672,499.005 710.372,498.206 711.072,497.408 711.772,496.612 712.472,495.818 713.172,495.025 713.873,494.234 714.573,493.445 715.273,492.657 715.973,491.871 716.673,491.087 717.373,490.304 718.073,489.523 718.773,488.744 719.474,487.966 720.174,487.19 720.874,486.415 721.574,485.642 722.274,484.871 722.974,484.101 723.674,483.333 724.374,482.567 725.075,481.802 725.775,481.039 726.475,480.277 727.175,479.517 727.875,478.759 728.575,478.002 729.275,477.247 729.975,476.493 730.675,475.741 731.376,474.991 732.076,474.242 732.776,473.494 733.476,472.749 734.176,472.004 734.876,471.262 735.576,470.521 736.276,469.781 736.977,469.043 737.677,468.307 738.377,467.572 739.077,466.838 739.777,466.106 740.477,465.376 741.177,464.647 741.877,463.92 742.578,463.194 743.278,462.47 743.978,461.748 744.678,461.026 745.378,460.307 746.078,459.589 746.778,458.872 747.478,458.157 748.179,457.443 748.879,456.731 749.579,456.021 750.279,455.312 750.979,454.604 751.679,453.898 752.379,453.193 753.079,452.49 753.779,451.788 754.48,451.088 755.18,450.389 755.88,449.692 756.58,448.996 757.28,448.302 757.98,447.609 758.68,446.917 759.38,446.227 760.081,445.538 760.781,444.851 761.481,444.166 762.181,443.481 762.881,442.799 763.581,442.117 764.281,441.437 764.981,440.759 765.682,440.082 766.382,439.406 767.082,438.732 767.782,438.059 768.482,437.387 769.182,436.717 769.882,436.049 770.582,435.381 771.283,434.715 771.983,434.051 772.683,433.388 773.383,432.726 774.083,432.066 774.783,431.407 775.483,430.75 776.183,430.094 776.883,429.439 777.584,428.785 778.284,428.133 778.984,427.483 779.684,426.834 780.384,426.186 781.084,425.539 781.784,424.894 782.484,424.25 783.185,423.608 783.885,422.966 784.585,422.327 785.285,421.688 785.985,421.051 786.685,420.415 787.385,419.781 788.085,419.148 788.786,418.516 789.486,417.886 790.186,417.256 790.886,416.629 791.586,416.002 792.286,415.377 792.986,414.753 793.686,414.131 794.387,413.509 795.087,412.889 795.787,412.271 796.487,411.653 797.187,411.037 797.887,410.422 798.587,409.809 799.287,409.197 799.987,408.586 800.688,407.976 801.388,407.368 802.088,406.761 802.788,406.155 803.488,405.551 804.188,404.947 804.888,404.345 805.588,403.745 806.289,403.145 806.989,402.547 807.689,401.95 808.389,401.354 809.089,400.76 809.789,400.167 810.489,399.575 811.189,398.984 811.89,398.394 812.59,397.806 813.29,397.219 813.99,396.633 814.69,396.049 815.39,395.466 816.09,394.883 816.79,394.303 817.49,393.723 818.191,393.144 818.891,392.567 819.591,391.991 820.291,391.416 820.991,390.843 821.691,390.27 822.391,389.699 823.091,389.129 823.792,388.56 824.492,387.993 825.192,387.426 825.892,386.861 826.592,386.297 827.292,385.734 827.992,385.173 828.692,384.612 829.393,384.053 830.093,383.495 830.793,382.938 831.493,382.382 832.193,381.827 832.893,381.274 833.593,380.721 834.293,380.17 834.994,379.62 835.694,379.071 836.394,378.523 837.094,377.977 837.794,377.432 838.494,376.887 839.194,376.344 839.894,375.802 840.594,375.261 841.295,374.722 841.995,374.183 842.695,373.646 843.395,373.109 844.095,372.574 844.795,372.04 845.495,371.507 846.195,370.975 846.896,370.444 847.596,369.915 848.296,369.386 848.996,368.859 849.696,368.333 850.396,367.807 851.096,367.283 851.796,366.76 852.497,366.239 853.197,365.718 853.897,365.198 854.597,364.679 855.297,364.162 855.997,363.645 856.697,363.13 857.397,362.616 858.098,362.103 858.798,361.591 859.498,361.08 860.198,360.57 860.898,360.061 861.598,359.553 862.298,359.046 862.998,358.54 863.698,358.036 864.399,357.532 865.099,357.03 865.799,356.528 866.499,356.028 867.199,355.528 867.899,355.03 868.599,354.533 869.299,354.037 870,353.541 870.7,353.047 871.4,352.554 872.1,352.062 872.8,351.571 873.5,351.081 874.2,350.592 874.9,350.104 875.601,349.617 876.301,349.131 877.001,348.646 877.701,348.162 878.401,347.679 879.101,347.198 879.801,346.717 880.501,346.237 881.202,345.758 881.902,345.28 882.602,344.803 883.302,344.328 884.002,343.853 884.702,343.379 885.402,342.906 886.102,342.434 886.802,341.963 887.503,341.494 888.203,341.025 888.903,340.557 889.603,340.09 890.303,339.624 891.003,339.159 891.703,338.695 892.403,338.232 893.104,337.77 893.804,337.309 894.504,336.849 895.204,336.39 895.904,335.932 896.604,335.474 897.304,335.018 898.004,334.563 898.705,334.108 899.405,333.655 900.105,333.203 900.805,332.751 901.505,332.301 902.205,331.851 902.905,331.402 903.605,330.955 904.306,330.508 905.006,330.062 905.706,329.617 906.406,329.173 907.106,328.73 907.806,328.288 908.506,327.847 909.206,327.407 909.906,326.967 910.607,326.529 911.307,326.091 912.007,325.655 912.707,325.219 913.407,324.784 914.107,324.351 914.807,323.918 915.507,323.486 916.208,323.055 916.908,322.624 917.608,322.195 918.308,321.767 919.008,321.339 919.708,320.913 920.408,320.487 921.108,320.062 921.809,319.638 922.509,319.215 923.209,318.793 923.909,318.372 924.609,317.951 925.309,317.532 926.009,317.113 926.709,316.696 927.409,316.279 928.11,315.863 928.81,315.448 929.51,315.033 930.21,314.62 930.91,314.208 931.61,313.796 932.31,313.385 933.01,312.975 933.711,312.566 934.411,312.158 935.111,311.751 935.811,311.344 936.511,310.939 937.211,310.534 937.911,310.13 938.611,309.727 939.312,309.325 940.012,308.923 940.712,308.523 941.412,308.123 942.112,307.724 942.812,307.326 943.512,306.929 944.212,306.532 944.913,306.137 945.613,305.742 946.313,305.348 947.013,304.955 947.713,304.563 948.413,304.172 949.113,303.781 949.813,303.391 950.513,303.002 951.214,302.614 951.914,302.227 952.614,301.84 953.314,301.455 954.014,301.07 954.714,300.686 955.414,300.302 956.114,299.92 956.815,299.538 957.515,299.157 958.215,298.777 958.915,298.398 959.615,298.02 960.315,297.642 961.015,297.265 961.715,296.889 962.416,296.514 963.116,296.139 963.816,295.765 964.516,295.392 965.216,295.02 965.916,294.649 966.616,294.278 967.316,293.908 968.017,293.539 968.717,293.171 969.417,292.804 970.117,292.437 970.817,292.071 971.517,291.706 972.217,291.341 972.917,290.978 973.617,290.615 974.318,290.253 975.018,289.891 975.718,289.531 976.418,289.171 977.118,288.812 977.818,288.453 978.518,288.096 979.218,287.739 979.919,287.383 980.619,287.027 981.319,286.673 982.019,286.319 982.719,285.966 983.419,285.613 984.119,285.262 984.819,284.911 985.52,284.561 986.22,284.211 986.92,283.862 987.62,283.514 988.32,283.167 989.02,282.821 989.72,282.475 990.42,282.13 991.121,281.785 991.821,281.442 992.521,281.099 993.221,280.757 993.921,280.415 994.621,280.074 995.321,279.734 996.021,279.395 996.721,279.057 997.422,278.719 998.122,278.381 998.822,278.045 999.522,277.709 1000.22,277.374 1000.92,277.04 1001.62,276.706 1002.32,276.373 1003.02,276.041 1003.72,275.709 1004.42,275.378 1005.12,275.048 1005.82,274.719 1006.52,274.39 1007.22,274.062 1007.92,273.734 1008.62,273.408 1009.32,273.082 1010.02,272.756 1010.72,272.432 1011.42,272.108 1012.12,271.784 1012.82,271.462 1013.52,271.14 1014.22,270.818 1014.92,270.498 1015.62,270.178 1016.32,269.859 1017.02,269.54 1017.73,269.222 1018.43,268.905 1019.13,268.588 1019.83,268.272 1020.53,267.957 1021.23,267.642 1021.93,267.328 1022.63,267.015 1023.33,266.702 1024.03,266.39 1024.73,266.079 1025.43,265.768 1026.13,265.458 1026.83,265.149 1027.53,264.84 1028.23,264.532 1028.93,264.225 1029.63,263.918 1030.33,263.612 1031.03,263.306 1031.73,263.002 1032.43,262.697 1033.13,262.394 1033.83,262.091 1034.53,261.789 1035.23,261.487 1035.93,261.186 1036.63,260.885 1037.33,260.586 1038.03,260.286 1038.73,259.988 1039.43,259.69 1040.13,259.393 1040.83,259.096 1041.53,258.8 1042.23,258.505 1042.93,258.21 1043.63,257.916 1044.33,257.622 1045.03,257.329 1045.73,257.037 1046.43,256.745 1047.13,256.454 1047.83,256.164 1048.53,255.874 1049.23,255.585 1049.93,255.296 1050.63,255.008 1051.33,254.72 1052.03,254.434 1052.73,254.147 1053.43,253.862 1054.13,253.577 1054.83,253.292 1055.53,253.008 1056.23,252.725 1056.93,252.442 1057.63,252.16 1058.33,251.879 1059.03,251.598 1059.73,251.318 1060.43,251.038 1061.13,250.759 1061.83,250.48 1062.53,250.202 1063.23,249.925 1063.93,249.648 1064.63,249.372 1065.33,249.096 1066.03,248.821 1066.73,248.547 1067.43,248.273 1068.13,248 1068.83,247.727 1069.53,247.455 1070.23,247.183 1070.93,246.912 1071.63,246.642 1072.33,246.372 1073.03,246.102 1073.73,245.834 1074.43,245.565 1075.14,245.298 1075.84,245.031 1076.54,244.764 1077.24,244.498 1077.94,244.233 1078.64,243.968 1079.34,243.704 1080.04,243.44 1080.74,243.177 1081.44,242.914 1082.14,242.652 1082.84,242.391 1083.54,242.13 1084.24,241.869 1084.94,241.609 1085.64,241.35 1086.34,241.091 1087.04,240.833 1087.74,240.575 1088.44,240.318 1089.14,240.061 1089.84,239.805 1090.54,239.55 1091.24,239.295 1091.94,239.04 1092.64,238.786 1093.34,238.533 1094.04,238.28 1094.74,238.028 1095.44,237.776 1096.14,237.524 1096.84,237.274 1097.54,237.023 1098.24,236.774 1098.94,236.525 1099.64,236.276 1100.34,236.028 1101.04,235.78 1101.74,235.533 1102.44,235.286 1103.14,235.04 1103.84,234.795 1104.54,234.55 1105.24,234.305 1105.94,234.061 1106.64,233.818 1107.34,233.575 1108.04,233.332 1108.74,233.09 1109.44,232.849 1110.14,232.608 1110.84,232.367 1111.54,232.127 1112.24,231.888 1112.94,231.649 1113.64,231.411 1114.34,231.173 1115.04,230.935 1115.74,230.698 1116.44,230.462 1117.14,230.226 1117.84,229.99 1118.54,229.755 1119.24,229.521 1119.94,229.287 1120.64,229.053 1121.34,228.82 1122.04,228.588 1122.74,228.356 1123.44,228.124 1124.14,227.893 1124.84,227.663 1125.54,227.433 1126.24,227.203 1126.94,226.974 1127.64,226.745 1128.34,226.517 1129.04,226.289 1129.74,226.062 1130.44,225.835 1131.14,225.609 1131.84,225.383 1132.54,225.158 1133.25,224.933 1133.95,224.709 1134.65,224.485 1135.35,224.262 1136.05,224.039 1136.75,223.816 1137.45,223.594 1138.15,223.373 1138.85,223.152 1139.55,222.931 1140.25,222.711 1140.95,222.491 1141.65,222.272 1142.35,222.053 1143.05,221.835 1143.75,221.617 1144.45,221.4 1145.15,221.183 1145.85,220.966 1146.55,220.75 1147.25,220.534 1147.95,220.319 1148.65,220.105 1149.35,219.89 1150.05,219.677 1150.75,219.463 1151.45,219.25 1152.15,219.038 1152.85,218.826 1153.55,218.614 1154.25,218.403 1154.95,218.193 1155.65,217.983 1156.35,217.773 1157.05,217.563 1157.75,217.354 1158.45,217.146 1159.15,216.938 1159.85,216.73 1160.55,216.523 1161.25,216.317 1161.95,216.11 1162.65,215.904 1163.35,215.699 1164.05,215.494 1164.75,215.289 1165.45,215.085 1166.15,214.882 1166.85,214.678 1167.55,214.476 1168.25,214.273 1168.95,214.071 1169.65,213.87 1170.35,213.668 1171.05,213.468 1171.75,213.267 1172.45,213.067 1173.15,212.868 1173.85,212.669 1174.55,212.47 1175.25,212.272 1175.95,212.074 1176.65,211.877 1177.35,211.68 1178.05,211.483 1178.75,211.287 1179.45,211.092 1180.15,210.896 1180.85,210.701 1181.55,210.507 1182.25,210.313 1182.95,210.119 1183.65,209.926 1184.35,209.733 1185.05,209.54 1185.75,209.348 1186.45,209.157 1187.15,208.965 1187.85,208.775 1188.55,208.584 1189.25,208.394 1189.95,208.204 1190.66,208.015 1191.36,207.826 1192.06,207.638 1192.76,207.45 1193.46,207.262 1194.16,207.075 1194.86,206.888 1195.56,206.701 1196.26,206.515 1196.96,206.33 1197.66,206.144 1198.36,205.959 1199.06,205.775 1199.76,205.591 1200.46,205.407 1201.16,205.223 1201.86,205.04 1202.56,204.858 1203.26,204.675 1203.96,204.494 1204.66,204.312 1205.36,204.131 1206.06,203.95 1206.76,203.77 1207.46,203.59 1208.16,203.41 1208.86,203.231 1209.56,203.052 1210.26,202.874 1210.96,202.696 1211.66,202.518 1212.36,202.341 1213.06,202.164 1213.76,201.987 1214.46,201.811 1215.16,201.635 1215.86,201.46 1216.56,201.285 1217.26,201.11 1217.96,200.935 1218.66,200.761 1219.36,200.588 1220.06,200.414 1220.76,200.242 1221.46,200.069 1222.16,199.897 1222.86,199.725 1223.56,199.554 1224.26,199.382 1224.96,199.212 1225.66,199.041 1226.36,198.871 1227.06,198.702 1227.76,198.532 1228.46,198.363 1229.16,198.195 1229.86,198.026 1230.56,197.858 1231.26,197.691 1231.96,197.524 1232.66,197.357 1233.36,197.19 1234.06,197.024 1234.76,196.858 1235.46,196.693 1236.16,196.528 1236.86,196.363 1237.56,196.199 1238.26,196.034 1238.96,195.871 1239.66,195.707 1240.36,195.544 1241.06,195.382 1241.76,195.219 1242.46,195.057 1243.16,194.896 1243.86,194.734 1244.56,194.573 1245.26,194.412 1245.96,194.252 1246.66,194.092 1247.36,193.933 1248.06,193.773 1248.77,193.614 1249.47,193.456 1250.17,193.297 1250.87,193.139 1251.57,192.982 1252.27,192.824 1252.97,192.667 1253.67,192.511 1254.37,192.354 1255.07,192.198 1255.77,192.043 1256.47,191.887 1257.17,191.732 1257.87,191.577 1258.57,191.423 1259.27,191.269 1259.97,191.115 1260.67,190.962 1261.37,190.809 1262.07,190.656 1262.77,190.504 1263.47,190.351 1264.17,190.2 1264.87,190.048 1265.57,189.897 1266.27,189.746 1266.97,189.596 1267.67,189.445 1268.37,189.295 1269.07,189.146 1269.77,188.996 1270.47,188.848 1271.17,188.699 1271.87,188.551 1272.57,188.402 1273.27,188.255 1273.97,188.107 1274.67,187.96 1275.37,187.813 1276.07,187.667 1276.77,187.521 1277.47,187.375 1278.17,187.229 1278.87,187.084 1279.57,186.939 1280.27,186.794 1280.97,186.65 1281.67,186.506 1282.37,186.362 1283.07,186.219 1283.77,186.076 1284.47,185.933 1285.17,185.79 1285.87,185.648 1286.57,185.506 1287.27,185.365 1287.97,185.223 1288.67,185.082 1289.37,184.941 1290.07,184.801 1290.77,184.661 1291.47,184.521 1292.17,184.381 1292.87,184.242 1293.57,184.103 1294.27,183.964 1294.97,183.826 1295.67,183.688 1296.37,183.55 1297.07,183.412 1297.77,183.275 1298.47,183.138 1299.17,183.001 1299.87,182.865 1300.57,182.729 1301.27,182.593 1301.97,182.458 1302.67,182.322 1303.37,182.187 1304.07,182.053 1304.77,181.918 1305.47,181.784 1306.17,181.65 1306.88,181.517 1307.58,181.383 1308.28,181.25 1308.98,181.118 1309.68,180.985 1310.38,180.853 1311.08,180.721 1311.78,180.59 1312.48,180.458 1313.18,180.327 1313.88,180.197 1314.58,180.066 1315.28,179.936 1315.98,179.806 1316.68,179.676 1317.38,179.547 1318.08,179.418 1318.78,179.289 1319.48,179.16 1320.18,179.032 1320.88,178.904 1321.58,178.776 1322.28,178.648 1322.98,178.521 1323.68,178.394 1324.38,178.267 1325.08,178.141 1325.78,178.015 1326.48,177.889 1327.18,177.763 1327.88,177.638 1328.58,177.513 1329.28,177.388 1329.98,177.263 1330.68,177.139 1331.38,177.015 1332.08,176.891 1332.78,176.767 1333.48,176.644 1334.18,176.521 1334.88,176.398 1335.58,176.275 1336.28,176.153 1336.98,176.031 1337.68,175.909 1338.38,175.788 1339.08,175.667 1339.78,175.546 1340.48,175.425 1341.18,175.304 1341.88,175.184 1342.58,175.064 1343.28,174.944 1343.98,174.825 1344.68,174.706 1345.38,174.587 1346.08,174.468 1346.78,174.349 1347.48,174.231 1348.18,174.113 1348.88,173.995 1349.58,173.878 1350.28,173.761 1350.98,173.644 1351.68,173.527 1352.38,173.41 1353.08,173.294 1353.78,173.178 1354.48,173.062 1355.18,172.947 1355.88,172.831 1356.58,172.716 1357.28,172.602 1357.98,172.487 1358.68,172.373 1359.38,172.259 1360.08,172.145 1360.78,172.031 1361.48,171.918 1362.18,171.805 1362.88,171.692 1363.58,171.579 1364.29,171.467 1364.99,171.354 1365.69,171.242 1366.39,171.131 1367.09,171.019 1367.79,170.908 1368.49,170.797 1369.19,170.686 1369.89,170.576 1370.59,170.465 1371.29,170.355 1371.99,170.245 1372.69,170.136 1373.39,170.026 1374.09,169.917 1374.79,169.808 1375.49,169.699 1376.19,169.591 1376.89,169.483 1377.59,169.375 1378.29,169.267 1378.99,169.159 1379.69,169.052 1380.39,168.945 1381.09,168.838 1381.79,168.731 1382.49,168.625 1383.19,168.519 1383.89,168.412 1384.59,168.307 1385.29,168.201 1385.99,168.096 1386.69,167.991 1387.39,167.886 1388.09,167.781 1388.79,167.677 1389.49,167.572 1390.19,167.468 1390.89,167.365 1391.59,167.261 1392.29,167.158 1392.99,167.054 1393.69,166.951 1394.39,166.849 1395.09,166.746 1395.79,166.644 1396.49,166.542 1397.19,166.44 1397.89,166.338 1398.59,166.237 1399.29,166.136 1399.99,166.035 1400.69,165.934 1401.39,165.833 1402.09,165.733 1402.79,165.633 1403.49,165.533 1404.19,165.433 1404.89,165.334 1405.59,165.234 1406.29,165.135 1406.99,165.036 1407.69,164.937 1408.39,164.839 1409.09,164.741 1409.79,164.643 1410.49,164.545 1411.19,164.447 1411.89,164.35 1412.59,164.252 1413.29,164.155 1413.99,164.058 1414.69,163.962 1415.39,163.865 1416.09,163.769 1416.79,163.673 1417.49,163.577 1418.19,163.481 1418.89,163.386 1419.59,163.291 1420.29,163.196 1420.99,163.101 1421.69,163.006 1422.4,162.912 1423.1,162.818 1423.8,162.724 1424.5,162.63 1425.2,162.536 1425.9,162.443 1426.6,162.349 1427.3,162.256 1428,162.163 1428.7,162.071 1429.4,161.978 1430.1,161.886 1430.8,161.794 1431.5,161.702 1432.2,161.61 1432.9,161.519 1433.6,161.427 1434.3,161.336 1435,161.245 1435.7,161.154 1436.4,161.064 1437.1,160.974 1437.8,160.883 1438.5,160.793 1439.2,160.704 1439.9,160.614 1440.6,160.525 1441.3,160.435 1442,160.346 1442.7,160.257 1443.4,160.169 1444.1,160.08 1444.8,159.992 1445.5,159.904 1446.2,159.816 1446.9,159.728 1447.6,159.64 1448.3,159.553 1449,159.466 1449.7,159.379 1450.4,159.292 1451.1,159.205 1451.8,159.119 1452.5,159.033 1453.2,158.947 1453.9,158.861 1454.6,158.775 1455.3,158.689 1456,158.604 1456.7,158.519 1457.4,158.434 1458.1,158.349 1458.8,158.264 1459.5,158.18 1460.2,158.095 1460.9,158.011 1461.6,157.927 1462.3,157.843 1463,157.76 1463.7,157.676 1464.4,157.593 1465.1,157.51 1465.8,157.427 1466.5,157.344 1467.2,157.262 1467.9,157.179 1468.6,157.097 1469.3,157.015 1470,156.933 1470.7,156.851 1471.4,156.77 1472.1,156.689 1472.8,156.607 1473.5,156.526 1474.2,156.445 1474.9,156.365 1475.6,156.284 1476.3,156.204 1477,156.124 1477.7,156.044 1478.4,155.964 1479.1,155.884 1479.8,155.805 1480.51,155.725 1481.21,155.646 1481.91,155.567 1482.61,155.488 1483.31,155.41 1484.01,155.331 1484.71,155.253 1485.41,155.175 1486.11,155.097 1486.81,155.019 1487.51,154.941 1488.21,154.864 1488.91,154.786 1489.61,154.709 1490.31,154.632 1491.01,154.555 1491.71,154.478 1492.41,154.402 1493.11,154.325 1493.81,154.249 1494.51,154.173 1495.21,154.097 1495.91,154.021 1496.61,153.946 1497.31,153.87 1498.01,153.795 1498.71,153.72 1499.41,153.645 1500.11,153.57 1500.81,153.496 1501.51,153.421 1502.21,153.347 1502.91,153.273 1503.61,153.198 1504.31,153.125 1505.01,153.051 1505.71,152.977 1506.41,152.904 1507.11,152.831 1507.81,152.758 1508.51,152.685 1509.21,152.612 1509.91,152.539 1510.61,152.467 1511.31,152.394 1512.01,152.322 1512.71,152.25 1513.41,152.178 1514.11,152.107 1514.81,152.035 1515.51,151.964 1516.21,151.892 1516.91,151.821 1517.61,151.75 1518.31,151.679 1519.01,151.609 1519.71,151.538 1520.41,151.468 1521.11,151.397 1521.81,151.327 1522.51,151.257 1523.21,151.188 1523.91,151.118 1524.61,151.048 1525.31,150.979 1526.01,150.91 1526.71,150.841 1527.41,150.772 1528.11,150.703 1528.81,150.634 1529.51,150.566 1530.21,150.498 1530.91,150.429 1531.61,150.361 1532.31,150.293 1533.01,150.226 1533.71,150.158 1534.41,150.09 1535.11,150.023 1535.81,149.956 1536.51,149.889 1537.21,149.822 1537.92,149.755 1538.62,149.688 1539.32,149.622 1540.02,149.556 1540.72,149.489 1541.42,149.423 1542.12,149.357 1542.82,149.292 1543.52,149.226 1544.22,149.16 1544.92,149.095 1545.62,149.03 1546.32,148.965 1547.02,148.9 1547.72,148.835 1548.42,148.77 1549.12,148.705 1549.82,148.641 1550.52,148.577 1551.22,148.512 1551.92,148.448 1552.62,148.384 1553.32,148.321 1554.02,148.257 1554.72,148.194 1555.42,148.13 1556.12,148.067 1556.82,148.004 1557.52,147.941 1558.22,147.878 1558.92,147.815 1559.62,147.753 1560.32,147.69 1561.02,147.628 1561.72,147.566 1562.42,147.504 1563.12,147.442 1563.82,147.38 1564.52,147.318 1565.22,147.257 1565.92,147.195 1566.62,147.134 1567.32,147.073 1568.02,147.012 1568.72,146.951 1569.42,146.89 1570.12,146.83 1570.82,146.769 1571.52,146.709 1572.22,146.648 1572.92,146.588 1573.62,146.528 1574.32,146.468 1575.02,146.409 1575.72,146.349 1576.42,146.29 1577.12,146.23 1577.82,146.171 1578.52,146.112 1579.22,146.053 1579.92,145.994 1580.62,145.935 1581.32,145.877 1582.02,145.818 1582.72,145.76 1583.42,145.701 1584.12,145.643 1584.82,145.585 1585.52,145.527 1586.22,145.469 1586.92,145.412 1587.62,145.354 1588.32,145.297 1589.02,145.24 1589.72,145.182 1590.42,145.125 1591.12,145.068 1591.82,145.012 1592.52,144.955 1593.22,144.898 1593.92,144.842 1594.62,144.786 1595.32,144.729 1596.03,144.673 1596.73,144.617 1597.43,144.561 1598.13,144.506 1598.83,144.45 1599.53,144.394 1600.23,144.339 1600.93,144.284 1601.63,144.229 1602.33,144.174 1603.03,144.119 1603.73,144.064 1604.43,144.009 1605.13,143.954 1605.83,143.9 1606.53,143.846 1607.23,143.791 1607.93,143.737 1608.63,143.683 1609.33,143.629 1610.03,143.575 1610.73,143.522 1611.43,143.468 1612.13,143.415 1612.83,143.361 1613.53,143.308 1614.23,143.255 1614.93,143.202 1615.63,143.149 1616.33,143.096 1617.03,143.044 1617.73,142.991 1618.43,142.939 1619.13,142.886 1619.83,142.834 1620.53,142.782 1621.23,142.73 1621.93,142.678 1622.63,142.626 1623.33,142.574 1624.03,142.523 1624.73,142.471 1625.43,142.42 1626.13,142.369 1626.83,142.318 1627.53,142.267 1628.23,142.216 1628.93,142.165 1629.63,142.114 1630.33,142.063 1631.03,142.013 1631.73,141.963 1632.43,141.912 1633.13,141.862 1633.83,141.812 1634.53,141.762 1635.23,141.712 1635.93,141.662 1636.63,141.613 1637.33,141.563 1638.03,141.514 1638.73,141.464 1639.43,141.415 1640.13,141.366 1640.83,141.317 1641.53,141.268 1642.23,141.219 1642.93,141.17 1643.63,141.122 1644.33,141.073 1645.03,141.025 1645.73,140.976 1646.43,140.928 1647.13,140.88 1647.83,140.832 1648.53,140.784 1649.23,140.736 1649.93,140.688 1650.63,140.641 1651.33,140.593 1652.03,140.546 1652.73,140.499 1653.44,140.451 1654.14,140.404 1654.84,140.357 1655.54,140.31 1656.24,140.263 1656.94,140.217 1657.64,140.17 1658.34,140.123 1659.04,140.077 1659.74,140.031 1660.44,139.984 1661.14,139.938 1661.84,139.892 1662.54,139.846 1663.24,139.8 1663.94,139.755 1664.64,139.709 1665.34,139.663 1666.04,139.618 1666.74,139.572 1667.44,139.527 1668.14,139.482 1668.84,139.437 1669.54,139.392 1670.24,139.347 1670.94,139.302 1671.64,139.257 1672.34,139.213 1673.04,139.168 1673.74,139.124 1674.44,139.08 1675.14,139.035 1675.84,138.991 1676.54,138.947 1677.24,138.903 1677.94,138.859 1678.64,138.815 1679.34,138.772 1680.04,138.728 1680.74,138.685 1681.44,138.641 1682.14,138.598 1682.84,138.555 1683.54,138.511 1684.24,138.468 1684.94,138.425 1685.64,138.382 1686.34,138.34 1687.04,138.297 1687.74,138.254 1688.44,138.212 1689.14,138.169 1689.84,138.127 1690.54,138.085 1691.24,138.043 1691.94,138.001 1692.64,137.959 1693.34,137.917 1694.04,137.875 1694.74,137.833 1695.44,137.791 1696.14,137.75 1696.84,137.708 1697.54,137.667 1698.24,137.626 1698.94,137.585 1699.64,137.543 1700.34,137.502 1701.04,137.462 1701.74,137.421 1702.44,137.38 1703.14,137.339 1703.84,137.299 1704.54,137.258 1705.24,137.218 1705.94,137.177 1706.64,137.137 1707.34,137.097 1708.04,137.057 1708.74,137.017 1709.44,136.977 1710.14,136.937 1710.84,136.897 1711.55,136.858 1712.25,136.818 1712.95,136.778 1713.65,136.739 1714.35,136.7 1715.05,136.66 1715.75,136.621 1716.45,136.582 1717.15,136.543 1717.85,136.504 1718.55,136.465 1719.25,136.427 1719.95,136.388 1720.65,136.349 1721.35,136.311 1722.05,136.272 1722.75,136.234 1723.45,136.196 1724.15,136.157 1724.85,136.119 1725.55,136.081 1726.25,136.043 1726.95,136.005 1727.65,135.968 1728.35,135.93 1729.05,135.892 1729.75,135.855 1730.45,135.817 1731.15,135.78 1731.85,135.742 1732.55,135.705 1733.25,135.668 1733.95,135.631 1734.65,135.594 1735.35,135.557 1736.05,135.52 1736.75,135.483 1737.45,135.447 1738.15,135.41 1738.85,135.373 1739.55,135.337 1740.25,135.301 1740.95,135.264 1741.65,135.228 1742.35,135.192 1743.05,135.156 1743.75,135.12 1744.45,135.084 1745.15,135.048 1745.85,135.012 1746.55,134.976 1747.25,134.941 1747.95,134.905 1748.65,134.87 1749.35,134.834 1750.05,134.799 1750.75,134.764 1751.45,134.728 1752.15,134.693 1752.85,134.658 1753.55,134.623 1754.25,134.588 1754.95,134.553 1755.65,134.519 1756.35,134.484 1757.05,134.449 1757.75,134.415 1758.45,134.38 1759.15,134.346 1759.85,134.312 1760.55,134.277 1761.25,134.243 1761.95,134.209 1762.65,134.175 1763.35,134.141 1764.05,134.107 1764.75,134.073 1765.45,134.04 1766.15,134.006 1766.85,133.972 1767.55,133.939 1768.25,133.905 1768.95,133.872 1769.66,133.839 1770.36,133.805 1771.06,133.772 1771.76,133.739 1772.46,133.706 1773.16,133.673 1773.86,133.64 1774.56,133.607 1775.26,133.575 1775.96,133.542 1776.66,133.509 1777.36,133.477 1778.06,133.444 1778.76,133.412 1779.46,133.379 1780.16,133.347 1780.86,133.315 1781.56,133.283 1782.26,133.251 1782.96,133.218 1783.66,133.187 1784.36,133.155 1785.06,133.123 1785.76,133.091 1786.46,133.059 1787.16,133.028 1787.86,132.996 1788.56,132.965 1789.26,132.933 1789.96,132.902 1790.66,132.871 1791.36,132.839 1792.06,132.808 1792.76,132.777 1793.46,132.746 1794.16,132.715 1794.86,132.684 1795.56,132.653 1796.26,132.623 1796.96,132.592 1797.66,132.561 1798.36,132.531 1799.06,132.5 1799.76,132.47 1800.46,132.439 1801.16,132.409 1801.86,132.379 1802.56,132.349 1803.26,132.318 1803.96,132.288 1804.66,132.258 1805.36,132.228 1806.06,132.199 1806.76,132.169 1807.46,132.139 1808.16,132.109 1808.86,132.08 1809.56,132.05 1810.26,132.021 1810.96,131.991 1811.66,131.962 1812.36,131.932 1813.06,131.903 1813.76,131.874 1814.46,131.845 1815.16,131.816 1815.86,131.787 1816.56,131.758 1817.26,131.729 1817.96,131.7 1818.66,131.671 1819.36,131.643 1820.06,131.614 1820.76,131.585 1821.46,131.557 1822.16,131.528 1822.86,131.5 1823.56,131.472 1824.26,131.443 1824.96,131.415 1825.66,131.387 1826.36,131.359 1827.07,131.331 1827.77,131.303 1828.47,131.275 1829.17,131.247 1829.87,131.219 1830.57,131.191 1831.27,131.164 1831.97,131.136 1832.67,131.108 1833.37,131.081 1834.07,131.053 1834.77,131.026 1835.47,130.998 1836.17,130.971 1836.87,130.944 1837.57,130.917 1838.27,130.89 1838.97,130.863 1839.67,130.836 1840.37,130.809 1841.07,130.782 1841.77,130.755 1842.47,130.728 1843.17,130.701 1843.87,130.675 1844.57,130.648 1845.27,130.621 1845.97,130.595 1846.67,130.568 1847.37,130.542 1848.07,130.516 1848.77,130.489 1849.47,130.463 1850.17,130.437 1850.87,130.411 1851.57,130.385 1852.27,130.359 1852.97,130.333 1853.67,130.307 1854.37,130.281 1855.07,130.255 1855.77,130.23 1856.47,130.204 1857.17,130.178 1857.87,130.153 1858.57,130.127 1859.27,130.102 1859.97,130.076 1860.67,130.051 1861.37,130.026 1862.07,130 1862.77,129.975 1863.47,129.95 1864.17,129.925 1864.87,129.9 1865.57,129.875 1866.27,129.85 1866.97,129.825 1867.67,129.8 1868.37,129.775 1869.07,129.751 1869.77,129.726 1870.47,129.701 1871.17,129.677 1871.87,129.652 1872.57,129.628 1873.27,129.603 1873.97,129.579 1874.67,129.555 1875.37,129.53 1876.07,129.506 1876.77,129.482 1877.47,129.458 1878.17,129.434 1878.87,129.41 1879.57,129.386 1880.27,129.362 1880.97,129.338 1881.67,129.314 1882.37,129.29 1883.07,129.267 1883.77,129.243 1884.47,129.219 1885.18,129.196 1885.88,129.172 1886.58,129.149 1887.28,129.125 1887.98,129.102 1888.68,129.079 1889.38,129.055 1890.08,129.032 1890.78,129.009 1891.48,128.986 1892.18,128.963 1892.88,128.94 1893.58,128.917 1894.28,128.894 1894.98,128.871 1895.68,128.848 1896.38,128.825 1897.08,128.803 1897.78,128.78 1898.48,128.757 1899.18,128.735 1899.88,128.712 1900.58,128.69 1901.28,128.667 1901.98,128.645 1902.68,128.622 1903.38,128.6 1904.08,128.578 1904.78,128.556 1905.48,128.533 1906.18,128.511 1906.88,128.489 1907.58,128.467 1908.28,128.445 1908.98,128.423 1909.68,128.401 1910.38,128.379 1911.08,128.358 1911.78,128.336 1912.48,128.314 1913.18,128.292 1913.88,128.271 1914.58,128.249 1915.28,128.228 1915.98,128.206 1916.68,128.185 1917.38,128.163 1918.08,128.142 1918.78,128.121 1919.48,128.099 1920.18,128.078 1920.88,128.057 1921.58,128.036 1922.28,128.015 1922.98,127.994 1923.68,127.973 1924.38,127.952 1925.08,127.931 1925.78,127.91 1926.48,127.889 1927.18,127.868 1927.88,127.848 1928.58,127.827 1929.28,127.806 1929.98,127.786 1930.68,127.765 1931.38,127.745 1932.08,127.724 1932.78,127.704 1933.48,127.683 1934.18,127.663 1934.88,127.643 1935.58,127.623 1936.28,127.602 1936.98,127.582 1937.68,127.562 1938.38,127.542 1939.08,127.522 1939.78,127.502 1940.48,127.482 1941.18,127.462 1941.88,127.442 1942.58,127.422 1943.29,127.402 1943.99,127.383 1944.69,127.363 1945.39,127.343 1946.09,127.324 1946.79,127.304 1947.49,127.284 1948.19,127.265 1948.89,127.246 1949.59,127.226 1950.29,127.207 1950.99,127.187 1951.69,127.168 1952.39,127.149 1953.09,127.13 1953.79,127.11 1954.49,127.091 1955.19,127.072 1955.89,127.053 1956.59,127.034 1957.29,127.015 1957.99,126.996 1958.69,126.977 1959.39,126.958 1960.09,126.94 1960.79,126.921 1961.49,126.902 1962.19,126.883 1962.89,126.865 1963.59,126.846 1964.29,126.827 1964.99,126.809 1965.69,126.79 1966.39,126.772 1967.09,126.753 1967.79,126.735 1968.49,126.717 1969.19,126.698 1969.89,126.68 1970.59,126.662 1971.29,126.644 1971.99,126.625 1972.69,126.607 1973.39,126.589 1974.09,126.571 1974.79,126.553 1975.49,126.535 1976.19,126.517 1976.89,126.499 1977.59,126.481 1978.29,126.464 1978.99,126.446 1979.69,126.428 1980.39,126.41 1981.09,126.393 1981.79,126.375 1982.49,126.357 1983.19,126.34 1983.89,126.322 1984.59,126.305 1985.29,126.287 1985.99,126.27 1986.69,126.253 1987.39,126.235 1988.09,126.218 1988.79,126.201 1989.49,126.183 1990.19,126.166 1990.89,126.149 1991.59,126.132 1992.29,126.115 1992.99,126.098 1993.69,126.081 1994.39,126.064 1995.09,126.047 1995.79,126.03 1996.49,126.013 1997.19,125.996 1997.89,125.979 1998.59,125.963 1999.29,125.946 1999.99,125.929 2000.7,125.913 2001.4,125.896 2002.1,125.879 2002.8,125.863 2003.5,125.846 2004.2,125.83 2004.9,125.813 2005.6,125.797 2006.3,125.78 2007,125.764 2007.7,125.748 2008.4,125.732 2009.1,125.715 2009.8,125.699 2010.5,125.683 2011.2,125.667 2011.9,125.651 2012.6,125.634 2013.3,125.618 2014,125.602 2014.7,125.586 2015.4,125.571 2016.1,125.555 2016.8,125.539 2017.5,125.523 2018.2,125.507 2018.9,125.491 2019.6,125.476 2020.3,125.46 2021,125.444 2021.7,125.428 2022.4,125.413 2023.1,125.397 2023.8,125.382 2024.5,125.366 2025.2,125.351 2025.9,125.335 2026.6,125.32 2027.3,125.304 2028,125.289 2028.7,125.274 2029.4,125.258 2030.1,125.243 2030.8,125.228 2031.5,125.213 2032.2,125.198 2032.9,125.182 2033.6,125.167 2034.3,125.152 2035,125.137 2035.7,125.122 2036.4,125.107 2037.1,125.092 2037.8,125.077 2038.5,125.063 2039.2,125.048 2039.9,125.033 2040.6,125.018 2041.3,125.003 2042,124.989 2042.7,124.974 2043.4,124.959 2044.1,124.945 2044.8,124.93 2045.5,124.915 2046.2,124.901 2046.9,124.886 2047.6,124.872 2048.3,124.857 2049,124.843 2049.7,124.829 2050.4,124.814 2051.1,124.8 2051.8,124.786 2052.5,124.771 2053.2,124.757 2053.9,124.743 2054.6,124.729 2055.3,124.715 2056,124.701 2056.7,124.686 2057.4,124.672 2058.1,124.658 2058.81,124.644 2059.51,124.63 2060.21,124.616 2060.91,124.603 2061.61,124.589 2062.31,124.575 2063.01,124.561 2063.71,124.547 2064.41,124.533 2065.11,124.52 2065.81,124.506 2066.51,124.492 2067.21,124.479 2067.91,124.465 2068.61,124.451 2069.31,124.438 2070.01,124.424 2070.71,124.411 2071.41,124.397 2072.11,124.384 2072.81,124.37 2073.51,124.357 2074.21,124.344 2074.91,124.33 2075.61,124.317 2076.31,124.304 2077.01,124.29 2077.71,124.277 2078.41,124.264 2079.11,124.251 2079.81,124.238 2080.51,124.225 2081.21,124.211 2081.91,124.198 2082.61,124.185 2083.31,124.172 2084.01,124.159 2084.71,124.146 2085.41,124.134 2086.11,124.121 2086.81,124.108 2087.51,124.095 2088.21,124.082 2088.91,124.069 2089.61,124.057 2090.31,124.044 2091.01,124.031 2091.71,124.018 2092.41,124.006 2093.11,123.993 2093.81,123.98 2094.51,123.968 2095.21,123.955 2095.91,123.943 2096.61,123.93 2097.31,123.918 2098.01,123.905 2098.71,123.893 2099.41,123.881 2100.11,123.868 2100.81,123.856 2101.51,123.844 2102.21,123.831 2102.91,123.819 2103.61,123.807 2104.31,123.795 2105.01,123.782 2105.71,123.77 2106.41,123.758 2107.11,123.746 2107.81,123.734 2108.51,123.722 2109.21,123.71 2109.91,123.698 2110.61,123.686 2111.31,123.674 2112.01,123.662 2112.71,123.65 2113.41,123.638 2114.11,123.626 2114.81,123.614 2115.51,123.603 2116.22,123.591 2116.92,123.579 2117.62,123.567 2118.32,123.556 2119.02,123.544 2119.72,123.532 2120.42,123.521 2121.12,123.509 2121.82,123.497 2122.52,123.486 2123.22,123.474 2123.92,123.463 2124.62,123.451 2125.32,123.44 2126.02,123.428 2126.72,123.417 2127.42,123.406 2128.12,123.394 2128.82,123.383 2129.52,123.371 2130.22,123.36 2130.92,123.349 2131.62,123.338 2132.32,123.326 2133.02,123.315 2133.72,123.304 2134.42,123.293 2135.12,123.282 2135.82,123.271 2136.52,123.26 2137.22,123.248 2137.92,123.237 2138.62,123.226 2139.32,123.215 2140.02,123.204 2140.72,123.193 2141.42,123.183 2142.12,123.172 2142.82,123.161 2143.52,123.15 2144.22,123.139 2144.92,123.128 2145.62,123.117 2146.32,123.107 2147.02,123.096 2147.72,123.085 2148.42,123.075 2149.12,123.064 2149.82,123.053 2150.52,123.043 2151.22,123.032 2151.92,123.021 2152.62,123.011 2153.32,123 2154.02,122.99 2154.72,122.979 2155.42,122.969 2156.12,122.958 2156.82,122.948 2157.52,122.937 2158.22,122.927 2158.92,122.917 2159.62,122.906 2160.32,122.896 2161.02,122.886 2161.72,122.875 2162.42,122.865 2163.12,122.855 2163.82,122.845 2164.52,122.834 2165.22,122.824 2165.92,122.814 2166.62,122.804 2167.32,122.794 2168.02,122.784 2168.72,122.774 2169.42,122.764 2170.12,122.754 2170.82,122.744 2171.52,122.734 2172.22,122.724 2172.92,122.714 2173.62,122.704 2174.33,122.694 2175.03,122.684 2175.73,122.674 2176.43,122.664 2177.13,122.655 2177.83,122.645 2178.53,122.635 2179.23,122.625 2179.93,122.616 2180.63,122.606 2181.33,122.596 2182.03,122.586 2182.73,122.577 2183.43,122.567 2184.13,122.558 2184.83,122.548 2185.53,122.538 2186.23,122.529 2186.93,122.519 2187.63,122.51 2188.33,122.5 2189.03,122.491 2189.73,122.481 2190.43,122.472 2191.13,122.462 2191.83,122.453 2192.53,122.444 2193.23,122.434 2193.93,122.425 2194.63,122.416 2195.33,122.406 2196.03,122.397 2196.73,122.388 2197.43,122.379 2198.13,122.369 2198.83,122.36 2199.53,122.351 2200.23,122.342 2200.93,122.333 2201.63,122.324 2202.33,122.315 2203.03,122.305 2203.73,122.296 2204.43,122.287 2205.13,122.278 2205.83,122.269 2206.53,122.26 2207.23,122.251 2207.93,122.242 2208.63,122.233 2209.33,122.225 2210.03,122.216 2210.73,122.207 2211.43,122.198 2212.13,122.189 2212.83,122.18 2213.53,122.171 2214.23,122.163 2214.93,122.154 2215.63,122.145 2216.33,122.136 2217.03,122.128 2217.73,122.119 2218.43,122.11 2219.13,122.102 2219.83,122.093 2220.53,122.084 2221.23,122.076 2221.93,122.067 2222.63,122.059 2223.33,122.05 2224.03,122.042 2224.73,122.033 2225.43,122.025 2226.13,122.016 2226.83,122.008 2227.53,121.999 2228.23,121.991 2228.93,121.982 2229.63,121.974 2230.33,121.966 2231.03,121.957 2231.73,121.949 2232.44,121.941 2233.14,121.932 2233.84,121.924 2234.54,121.916 2235.24,121.908 2235.94,121.899 2236.64,121.891 2237.34,121.883 2238.04,121.875 2238.74,121.867 2239.44,121.858 2240.14,121.85 2240.84,121.842 2241.54,121.834 2242.24,121.826 2242.94,121.818 2243.64,121.81 2244.34,121.802 2245.04,121.794 2245.74,121.786 2246.44,121.778 2247.14,121.77 2247.84,121.762 2248.54,121.754 2249.24,121.746 2249.94,121.738 2250.64,121.73 2251.34,121.723 2252.04,121.715 2252.74,121.707 2253.44,121.699 2254.14,121.691 2254.84,121.683 2255.54,121.676 2256.24,121.668 2256.94,121.66 2257.64,121.653 2258.34,121.645 2259.04,121.637 2259.74,121.629 2260.44,121.622 2261.14,121.614 2261.84,121.607 2262.54,121.599 2263.24,121.591 2263.94,121.584 2264.64,121.576 2265.34,121.569 2266.04,121.561 2266.74,121.554 2267.44,121.546 2268.14,121.539 2268.84,121.531 2269.54,121.524 2270.24,121.516 2270.94,121.509 2271.64,121.502 2272.34,121.494 2273.04,121.487 2273.74,121.48 2274.44,121.472 2275.14,121.465 2275.84,121.458 2276.54,121.45 2277.24,121.443 2277.94,121.436 2278.64,121.429 2279.34,121.421 2280.04,121.414 2280.74,121.407 2281.44,121.4 2282.14,121.393 2282.84,121.385 2283.54,121.378 2284.24,121.371 2284.94,121.364 2285.64,121.357 2286.34,121.35 2287.04,121.343 2287.74,121.336 2288.44,121.329 2289.14,121.322 2289.85,121.315 2290.55,121.308 2291.25,121.301 2291.95,121.294 2292.65,121.287 "/>
<circle clip-path="url(#clip442)" cx="292.4" cy="1345.86" r="14.4" fill="#3da44d" fill-rule="evenodd" fill-opacity="1" stroke="#000000" stroke-opacity="1" stroke-width="3.2"/>
<circle clip-path="url(#clip442)" cx="325.739" cy="1286.71" r="14.4" fill="#3da44d" fill-rule="evenodd" fill-opacity="1" stroke="#000000" stroke-opacity="1" stroke-width="3.2"/>
<circle clip-path="url(#clip442)" cx="359.078" cy="1140.97" r="14.4" fill="#3da44d" fill-rule="evenodd" fill-opacity="1" stroke="#000000" stroke-opacity="1" stroke-width="3.2"/>
<circle clip-path="url(#clip442)" cx="392.417" cy="1062.9" r="14.4" fill="#3da44d" fill-rule="evenodd" fill-opacity="1" stroke="#000000" stroke-opacity="1" stroke-width="3.2"/>
<circle clip-path="url(#clip442)" cx="425.756" cy="988.055" r="14.4" fill="#3da44d" fill-rule="evenodd" fill-opacity="1" stroke="#000000" stroke-opacity="1" stroke-width="3.2"/>
<circle clip-path="url(#clip442)" cx="459.095" cy="924.974" r="14.4" fill="#3da44d" fill-rule="evenodd" fill-opacity="1" stroke="#000000" stroke-opacity="1" stroke-width="3.2"/>
<circle clip-path="url(#clip442)" cx="492.434" cy="804.874" r="14.4" fill="#3da44d" fill-rule="evenodd" fill-opacity="1" stroke="#000000" stroke-opacity="1" stroke-width="3.2"/>
<circle clip-path="url(#clip442)" cx="525.773" cy="791.207" r="14.4" fill="#3da44d" fill-rule="evenodd" fill-opacity="1" stroke="#000000" stroke-opacity="1" stroke-width="3.2"/>
<circle clip-path="url(#clip442)" cx="559.112" cy="686.399" r="14.4" fill="#3da44d" fill-rule="evenodd" fill-opacity="1" stroke="#000000" stroke-opacity="1" stroke-width="3.2"/>
<circle clip-path="url(#clip442)" cx="592.452" cy="621.045" r="14.4" fill="#3da44d" fill-rule="evenodd" fill-opacity="1" stroke="#000000" stroke-opacity="1" stroke-width="3.2"/>
<circle clip-path="url(#clip442)" cx="625.791" cy="580.446" r="14.4" fill="#3da44d" fill-rule="evenodd" fill-opacity="1" stroke="#000000" stroke-opacity="1" stroke-width="3.2"/>
<circle clip-path="url(#clip442)" cx="659.13" cy="591.245" r="14.4" fill="#3da44d" fill-rule="evenodd" fill-opacity="1" stroke="#000000" stroke-opacity="1" stroke-width="3.2"/>
<circle clip-path="url(#clip442)" cx="692.469" cy="518.856" r="14.4" fill="#3da44d" fill-rule="evenodd" fill-opacity="1" stroke="#000000" stroke-opacity="1" stroke-width="3.2"/>
<circle clip-path="url(#clip442)" cx="725.808" cy="481.783" r="14.4" fill="#3da44d" fill-rule="evenodd" fill-opacity="1" stroke="#000000" stroke-opacity="1" stroke-width="3.2"/>
<circle clip-path="url(#clip442)" cx="759.147" cy="438.097" r="14.4" fill="#3da44d" fill-rule="evenodd" fill-opacity="1" stroke="#000000" stroke-opacity="1" stroke-width="3.2"/>
<circle clip-path="url(#clip442)" cx="792.486" cy="366.133" r="14.4" fill="#3da44d" fill-rule="evenodd" fill-opacity="1" stroke="#000000" stroke-opacity="1" stroke-width="3.2"/>
<circle clip-path="url(#clip442)" cx="825.825" cy="358.444" r="14.4" fill="#3da44d" fill-rule="evenodd" fill-opacity="1" stroke="#000000" stroke-opacity="1" stroke-width="3.2"/>
<circle clip-path="url(#clip442)" cx="859.164" cy="320.385" r="14.4" fill="#3da44d" fill-rule="evenodd" fill-opacity="1" stroke="#000000" stroke-opacity="1" stroke-width="3.2"/>
<circle clip-path="url(#clip442)" cx="892.503" cy="346.471" r="14.4" fill="#3da44d" fill-rule="evenodd" fill-opacity="1" stroke="#000000" stroke-opacity="1" stroke-width="3.2"/>
<circle clip-path="url(#clip442)" cx="925.843" cy="352.337" r="14.4" fill="#3da44d" fill-rule="evenodd" fill-opacity="1" stroke="#000000" stroke-opacity="1" stroke-width="3.2"/>
<circle clip-path="url(#clip442)" cx="959.182" cy="259.727" r="14.4" fill="#3da44d" fill-rule="evenodd" fill-opacity="1" stroke="#000000" stroke-opacity="1" stroke-width="3.2"/>
<circle clip-path="url(#clip442)" cx="992.521" cy="261.878" r="14.4" fill="#3da44d" fill-rule="evenodd" fill-opacity="1" stroke="#000000" stroke-opacity="1" stroke-width="3.2"/>
<circle clip-path="url(#clip442)" cx="1025.86" cy="323.808" r="14.4" fill="#3da44d" fill-rule="evenodd" fill-opacity="1" stroke="#000000" stroke-opacity="1" stroke-width="3.2"/>
<circle clip-path="url(#clip442)" cx="1059.2" cy="261.11" r="14.4" fill="#3da44d" fill-rule="evenodd" fill-opacity="1" stroke="#000000" stroke-opacity="1" stroke-width="3.2"/>
<circle clip-path="url(#clip442)" cx="1092.54" cy="214.491" r="14.4" fill="#3da44d" fill-rule="evenodd" fill-opacity="1" stroke="#000000" stroke-opacity="1" stroke-width="3.2"/>
<circle clip-path="url(#clip442)" cx="1125.88" cy="248.064" r="14.4" fill="#3da44d" fill-rule="evenodd" fill-opacity="1" stroke="#000000" stroke-opacity="1" stroke-width="3.2"/>
<circle clip-path="url(#clip442)" cx="1159.22" cy="248.332" r="14.4" fill="#3da44d" fill-rule="evenodd" fill-opacity="1" stroke="#000000" stroke-opacity="1" stroke-width="3.2"/>
<circle clip-path="url(#clip442)" cx="1192.56" cy="233.906" r="14.4" fill="#3da44d" fill-rule="evenodd" fill-opacity="1" stroke="#000000" stroke-opacity="1" stroke-width="3.2"/>
<circle clip-path="url(#clip442)" cx="1225.89" cy="210.152" r="14.4" fill="#3da44d" fill-rule="evenodd" fill-opacity="1" stroke="#000000" stroke-opacity="1" stroke-width="3.2"/>
<circle clip-path="url(#clip442)" cx="1259.23" cy="198.265" r="14.4" fill="#3da44d" fill-rule="evenodd" fill-opacity="1" stroke="#000000" stroke-opacity="1" stroke-width="3.2"/>
<circle clip-path="url(#clip442)" cx="1292.57" cy="168.38" r="14.4" fill="#3da44d" fill-rule="evenodd" fill-opacity="1" stroke="#000000" stroke-opacity="1" stroke-width="3.2"/>
<circle clip-path="url(#clip442)" cx="1325.91" cy="201.285" r="14.4" fill="#3da44d" fill-rule="evenodd" fill-opacity="1" stroke="#000000" stroke-opacity="1" stroke-width="3.2"/>
<circle clip-path="url(#clip442)" cx="1359.25" cy="137.165" r="14.4" fill="#3da44d" fill-rule="evenodd" fill-opacity="1" stroke="#000000" stroke-opacity="1" stroke-width="3.2"/>
<circle clip-path="url(#clip442)" cx="1392.59" cy="159.871" r="14.4" fill="#3da44d" fill-rule="evenodd" fill-opacity="1" stroke="#000000" stroke-opacity="1" stroke-width="3.2"/>
<circle clip-path="url(#clip442)" cx="1425.93" cy="150.431" r="14.4" fill="#3da44d" fill-rule="evenodd" fill-opacity="1" stroke="#000000" stroke-opacity="1" stroke-width="3.2"/>
<circle clip-path="url(#clip442)" cx="1459.27" cy="112.073" r="14.4" fill="#3da44d" fill-rule="evenodd" fill-opacity="1" stroke="#000000" stroke-opacity="1" stroke-width="3.2"/>
<circle clip-path="url(#clip442)" cx="1492.61" cy="140.506" r="14.4" fill="#3da44d" fill-rule="evenodd" fill-opacity="1" stroke="#000000" stroke-opacity="1" stroke-width="3.2"/>
<circle clip-path="url(#clip442)" cx="1525.95" cy="180.468" r="14.4" fill="#3da44d" fill-rule="evenodd" fill-opacity="1" stroke="#000000" stroke-opacity="1" stroke-width="3.2"/>
<circle clip-path="url(#clip442)" cx="1559.29" cy="141.897" r="14.4" fill="#3da44d" fill-rule="evenodd" fill-opacity="1" stroke="#000000" stroke-opacity="1" stroke-width="3.2"/>
<circle clip-path="url(#clip442)" cx="1592.62" cy="145.697" r="14.4" fill="#3da44d" fill-rule="evenodd" fill-opacity="1" stroke="#000000" stroke-opacity="1" stroke-width="3.2"/>
<circle clip-path="url(#clip442)" cx="1625.96" cy="130.709" r="14.4" fill="#3da44d" fill-rule="evenodd" fill-opacity="1" stroke="#000000" stroke-opacity="1" stroke-width="3.2"/>
<circle clip-path="url(#clip442)" cx="1659.3" cy="186.308" r="14.4" fill="#3da44d" fill-rule="evenodd" fill-opacity="1" stroke="#000000" stroke-opacity="1" stroke-width="3.2"/>
<circle clip-path="url(#clip442)" cx="1692.64" cy="123.472" r="14.4" fill="#3da44d" fill-rule="evenodd" fill-opacity="1" stroke="#000000" stroke-opacity="1" stroke-width="3.2"/>
<circle clip-path="url(#clip442)" cx="1725.98" cy="125.959" r="14.4" fill="#3da44d" fill-rule="evenodd" fill-opacity="1" stroke="#000000" stroke-opacity="1" stroke-width="3.2"/>
<circle clip-path="url(#clip442)" cx="1759.32" cy="118.927" r="14.4" fill="#3da44d" fill-rule="evenodd" fill-opacity="1" stroke="#000000" stroke-opacity="1" stroke-width="3.2"/>
<circle clip-path="url(#clip442)" cx="1792.66" cy="110.515" r="14.4" fill="#3da44d" fill-rule="evenodd" fill-opacity="1" stroke="#000000" stroke-opacity="1" stroke-width="3.2"/>
<circle clip-path="url(#clip442)" cx="1826" cy="128.417" r="14.4" fill="#3da44d" fill-rule="evenodd" fill-opacity="1" stroke="#000000" stroke-opacity="1" stroke-width="3.2"/>
<circle clip-path="url(#clip442)" cx="1859.34" cy="86.1857" r="14.4" fill="#3da44d" fill-rule="evenodd" fill-opacity="1" stroke="#000000" stroke-opacity="1" stroke-width="3.2"/>
<circle clip-path="url(#clip442)" cx="1892.68" cy="125.879" r="14.4" fill="#3da44d" fill-rule="evenodd" fill-opacity="1" stroke="#000000" stroke-opacity="1" stroke-width="3.2"/>
<circle clip-path="url(#clip442)" cx="1926.02" cy="137.743" r="14.4" fill="#3da44d" fill-rule="evenodd" fill-opacity="1" stroke="#000000" stroke-opacity="1" stroke-width="3.2"/>
<circle clip-path="url(#clip442)" cx="1959.35" cy="174.159" r="14.4" fill="#3da44d" fill-rule="evenodd" fill-opacity="1" stroke="#000000" stroke-opacity="1" stroke-width="3.2"/>
<circle clip-path="url(#clip442)" cx="1992.69" cy="175.183" r="14.4" fill="#3da44d" fill-rule="evenodd" fill-opacity="1" stroke="#000000" stroke-opacity="1" stroke-width="3.2"/>
<circle clip-path="url(#clip442)" cx="2026.03" cy="117.629" r="14.4" fill="#3da44d" fill-rule="evenodd" fill-opacity="1" stroke="#000000" stroke-opacity="1" stroke-width="3.2"/>
<circle clip-path="url(#clip442)" cx="2059.37" cy="90.7631" r="14.4" fill="#3da44d" fill-rule="evenodd" fill-opacity="1" stroke="#000000" stroke-opacity="1" stroke-width="3.2"/>
<circle clip-path="url(#clip442)" cx="2092.71" cy="146.285" r="14.4" fill="#3da44d" fill-rule="evenodd" fill-opacity="1" stroke="#000000" stroke-opacity="1" stroke-width="3.2"/>
<circle clip-path="url(#clip442)" cx="2126.05" cy="156.831" r="14.4" fill="#3da44d" fill-rule="evenodd" fill-opacity="1" stroke="#000000" stroke-opacity="1" stroke-width="3.2"/>
<circle clip-path="url(#clip442)" cx="2159.39" cy="134.348" r="14.4" fill="#3da44d" fill-rule="evenodd" fill-opacity="1" stroke="#000000" stroke-opacity="1" stroke-width="3.2"/>
<circle clip-path="url(#clip442)" cx="2192.73" cy="183.719" r="14.4" fill="#3da44d" fill-rule="evenodd" fill-opacity="1" stroke="#000000" stroke-opacity="1" stroke-width="3.2"/>
<circle clip-path="url(#clip442)" cx="2226.07" cy="133.551" r="14.4" fill="#3da44d" fill-rule="evenodd" fill-opacity="1" stroke="#000000" stroke-opacity="1" stroke-width="3.2"/>
<circle clip-path="url(#clip442)" cx="2259.41" cy="123.266" r="14.4" fill="#3da44d" fill-rule="evenodd" fill-opacity="1" stroke="#000000" stroke-opacity="1" stroke-width="3.2"/>
<circle clip-path="url(#clip442)" cx="2292.75" cy="137.63" r="14.4" fill="#3da44d" fill-rule="evenodd" fill-opacity="1" stroke="#000000" stroke-opacity="1" stroke-width="3.2"/>
<path clip-path="url(#clip440)" d="M303.068 300.469 L993.227 300.469 L993.227 93.1086 L303.068 93.1086  Z" fill="#ffffff" fill-rule="evenodd" fill-opacity="1"/>
<polyline clip-path="url(#clip440)" style="stroke:#000000; stroke-linecap:round; stroke-linejoin:round; stroke-width:4; stroke-opacity:1; fill:none" points="303.068,300.469 993.227,300.469 993.227,93.1086 303.068,93.1086 303.068,300.469 "/>
<polyline clip-path="url(#clip440)" style="stroke:#009af9; stroke-linecap:round; stroke-linejoin:round; stroke-width:4; stroke-opacity:1; fill:none" points="326.628,144.949 467.986,144.949 "/>
<path clip-path="url(#clip440)" d="M496.221 131.511 L496.221 144.497 L502.101 144.497 Q505.365 144.497 507.147 142.807 Q508.929 141.118 508.929 137.993 Q508.929 134.891 507.147 133.201 Q505.365 131.511 502.101 131.511 L496.221 131.511 M491.545 127.669 L502.101 127.669 Q507.911 127.669 510.874 130.307 Q513.86 132.923 513.86 137.993 Q513.86 143.108 510.874 145.724 Q507.911 148.34 502.101 148.34 L496.221 148.34 L496.221 162.229 L491.545 162.229 L491.545 127.669 Z" fill="#000000" fill-rule="nonzero" fill-opacity="1" /><path clip-path="url(#clip440)" d="M521.36 158.293 L528.999 158.293 L528.999 131.928 L520.689 133.595 L520.689 129.335 L528.952 127.669 L533.628 127.669 L533.628 158.293 L541.267 158.293 L541.267 162.229 L521.36 162.229 L521.36 158.293 Z" fill="#000000" fill-rule="nonzero" fill-opacity="1" /><polyline clip-path="url(#clip440)" style="stroke:#e26f46; stroke-linecap:round; stroke-linejoin:round; stroke-width:4; stroke-opacity:1; fill:none" points="326.628,196.789 467.986,196.789 "/>
<path clip-path="url(#clip440)" d="M496.221 183.351 L496.221 196.337 L502.101 196.337 Q505.365 196.337 507.147 194.647 Q508.929 192.958 508.929 189.833 Q508.929 186.731 507.147 185.041 Q505.365 183.351 502.101 183.351 L496.221 183.351 M491.545 179.509 L502.101 179.509 Q507.911 179.509 510.874 182.147 Q513.86 184.763 513.86 189.833 Q513.86 194.948 510.874 197.564 Q507.911 200.18 502.101 200.18 L496.221 200.18 L496.221 214.069 L491.545 214.069 L491.545 179.509 Z" fill="#000000" fill-rule="nonzero" fill-opacity="1" /><path clip-path="url(#clip440)" d="M524.577 210.133 L540.897 210.133 L540.897 214.069 L518.953 214.069 L518.953 210.133 Q521.615 207.379 526.198 202.749 Q530.804 198.096 531.985 196.754 Q534.23 194.231 535.11 192.495 Q536.013 190.735 536.013 189.046 Q536.013 186.291 534.068 184.555 Q532.147 182.819 529.045 182.819 Q526.846 182.819 524.392 183.583 Q521.962 184.347 519.184 185.897 L519.184 181.175 Q522.008 180.041 524.462 179.462 Q526.915 178.884 528.952 178.884 Q534.323 178.884 537.517 181.569 Q540.712 184.254 540.712 188.745 Q540.712 190.874 539.901 192.796 Q539.114 194.694 537.008 197.286 Q536.429 197.958 533.327 201.175 Q530.226 204.37 524.577 210.133 Z" fill="#000000" fill-rule="nonzero" fill-opacity="1" /><circle clip-path="url(#clip440)" cx="397.307" cy="248.629" r="20.48" fill="#3da44d" fill-rule="evenodd" fill-opacity="1" stroke="#000000" stroke-opacity="1" stroke-width="4.55111"/>
<path clip-path="url(#clip440)" d="M491.545 231.349 L497.842 231.349 L513.166 260.261 L513.166 231.349 L517.703 231.349 L517.703 265.909 L511.406 265.909 L496.082 236.997 L496.082 265.909 L491.545 265.909 L491.545 231.349 Z" fill="#000000" fill-rule="nonzero" fill-opacity="1" /><path clip-path="url(#clip440)" d="M536.869 242.969 Q533.443 242.969 531.452 245.654 Q529.462 248.316 529.462 252.969 Q529.462 257.622 531.429 260.307 Q533.42 262.969 536.869 262.969 Q540.272 262.969 542.263 260.284 Q544.253 257.598 544.253 252.969 Q544.253 248.362 542.263 245.677 Q540.272 242.969 536.869 242.969 M536.869 239.358 Q542.425 239.358 545.596 242.969 Q548.767 246.58 548.767 252.969 Q548.767 259.335 545.596 262.969 Q542.425 266.58 536.869 266.58 Q531.29 266.58 528.119 262.969 Q524.971 259.335 524.971 252.969 Q524.971 246.58 528.119 242.969 Q531.29 239.358 536.869 239.358 Z" fill="#000000" fill-rule="nonzero" fill-opacity="1" /><path clip-path="url(#clip440)" d="M555.827 239.983 L560.087 239.983 L560.087 265.909 L555.827 265.909 L555.827 239.983 M555.827 229.89 L560.087 229.89 L560.087 235.284 L555.827 235.284 L555.827 229.89 Z" fill="#000000" fill-rule="nonzero" fill-opacity="1" /><path clip-path="url(#clip440)" d="M585.526 240.747 L585.526 244.774 Q583.721 243.849 581.776 243.386 Q579.832 242.923 577.749 242.923 Q574.577 242.923 572.98 243.895 Q571.406 244.867 571.406 246.811 Q571.406 248.293 572.54 249.149 Q573.674 249.983 577.1 250.747 L578.559 251.071 Q583.096 252.043 584.994 253.825 Q586.915 255.585 586.915 258.756 Q586.915 262.367 584.045 264.473 Q581.198 266.58 576.198 266.58 Q574.114 266.58 571.846 266.163 Q569.6 265.77 567.1 264.96 L567.1 260.561 Q569.462 261.788 571.753 262.413 Q574.045 263.015 576.29 263.015 Q579.299 263.015 580.92 261.997 Q582.54 260.955 582.54 259.08 Q582.54 257.344 581.36 256.418 Q580.202 255.492 576.244 254.636 L574.762 254.288 Q570.804 253.455 569.045 251.742 Q567.286 250.006 567.286 246.997 Q567.286 243.339 569.878 241.349 Q572.471 239.358 577.239 239.358 Q579.6 239.358 581.684 239.705 Q583.767 240.052 585.526 240.747 Z" fill="#000000" fill-rule="nonzero" fill-opacity="1" /><path clip-path="url(#clip440)" d="M604.484 268.316 Q602.679 272.946 600.966 274.358 Q599.253 275.77 596.383 275.77 L592.98 275.77 L592.98 272.205 L595.48 272.205 Q597.239 272.205 598.211 271.372 Q599.184 270.538 600.364 267.436 L601.128 265.492 L590.642 239.983 L595.156 239.983 L603.258 260.261 L611.359 239.983 L615.873 239.983 L604.484 268.316 Z" fill="#000000" fill-rule="nonzero" fill-opacity="1" /><path clip-path="url(#clip440)" d="M646.869 242.969 Q643.443 242.969 641.452 245.654 Q639.461 248.316 639.461 252.969 Q639.461 257.622 641.429 260.307 Q643.419 262.969 646.869 262.969 Q650.271 262.969 652.262 260.284 Q654.253 257.598 654.253 252.969 Q654.253 248.362 652.262 245.677 Q650.271 242.969 646.869 242.969 M646.869 239.358 Q652.424 239.358 655.595 242.969 Q658.767 246.58 658.767 252.969 Q658.767 259.335 655.595 262.969 Q652.424 266.58 646.869 266.58 Q641.29 266.58 638.119 262.969 Q634.97 259.335 634.97 252.969 Q634.97 246.58 638.119 242.969 Q641.29 239.358 646.869 239.358 Z" fill="#000000" fill-rule="nonzero" fill-opacity="1" /><path clip-path="url(#clip440)" d="M684.438 252.969 Q684.438 248.27 682.493 245.608 Q680.572 242.923 677.192 242.923 Q673.813 242.923 671.868 245.608 Q669.947 248.27 669.947 252.969 Q669.947 257.668 671.868 260.353 Q673.813 263.015 677.192 263.015 Q680.572 263.015 682.493 260.353 Q684.438 257.668 684.438 252.969 M669.947 243.918 Q671.29 241.603 673.327 240.492 Q675.387 239.358 678.234 239.358 Q682.956 239.358 685.896 243.108 Q688.859 246.858 688.859 252.969 Q688.859 259.08 685.896 262.83 Q682.956 266.58 678.234 266.58 Q675.387 266.58 673.327 265.469 Q671.29 264.335 669.947 262.02 L669.947 265.909 L665.665 265.909 L665.665 229.89 L669.947 229.89 L669.947 243.918 Z" fill="#000000" fill-rule="nonzero" fill-opacity="1" /><path clip-path="url(#clip440)" d="M712.447 240.747 L712.447 244.774 Q710.641 243.849 708.697 243.386 Q706.752 242.923 704.669 242.923 Q701.498 242.923 699.901 243.895 Q698.327 244.867 698.327 246.811 Q698.327 248.293 699.461 249.149 Q700.595 249.983 704.021 250.747 L705.479 251.071 Q710.016 252.043 711.914 253.825 Q713.836 255.585 713.836 258.756 Q713.836 262.367 710.965 264.473 Q708.118 266.58 703.118 266.58 Q701.035 266.58 698.766 266.163 Q696.521 265.77 694.021 264.96 L694.021 260.561 Q696.382 261.788 698.674 262.413 Q700.965 263.015 703.211 263.015 Q706.22 263.015 707.84 261.997 Q709.461 260.955 709.461 259.08 Q709.461 257.344 708.28 256.418 Q707.123 255.492 703.164 254.636 L701.683 254.288 Q697.725 253.455 695.965 251.742 Q694.206 250.006 694.206 246.997 Q694.206 243.339 696.799 241.349 Q699.391 239.358 704.16 239.358 Q706.521 239.358 708.604 239.705 Q710.688 240.052 712.447 240.747 Z" fill="#000000" fill-rule="nonzero" fill-opacity="1" /><path clip-path="url(#clip440)" d="M742.794 251.881 L742.794 253.964 L723.211 253.964 Q723.488 258.362 725.85 260.677 Q728.234 262.969 732.47 262.969 Q734.924 262.969 737.215 262.367 Q739.53 261.765 741.799 260.561 L741.799 264.589 Q739.507 265.561 737.099 266.071 Q734.692 266.58 732.215 266.58 Q726.012 266.58 722.377 262.969 Q718.766 259.358 718.766 253.2 Q718.766 246.835 722.192 243.108 Q725.641 239.358 731.475 239.358 Q736.706 239.358 739.738 242.737 Q742.794 246.094 742.794 251.881 M738.535 250.631 Q738.488 247.136 736.567 245.052 Q734.669 242.969 731.521 242.969 Q727.956 242.969 725.803 244.983 Q723.674 246.997 723.35 250.654 L738.535 250.631 Z" fill="#000000" fill-rule="nonzero" fill-opacity="1" /><path clip-path="url(#clip440)" d="M764.808 243.964 Q764.09 243.548 763.234 243.362 Q762.4 243.154 761.382 243.154 Q757.771 243.154 755.826 245.515 Q753.905 247.853 753.905 252.251 L753.905 265.909 L749.623 265.909 L749.623 239.983 L753.905 239.983 L753.905 244.011 Q755.248 241.649 757.4 240.515 Q759.553 239.358 762.632 239.358 Q763.072 239.358 763.604 239.427 Q764.136 239.474 764.785 239.589 L764.808 243.964 Z" fill="#000000" fill-rule="nonzero" fill-opacity="1" /><path clip-path="url(#clip440)" d="M766.22 239.983 L770.734 239.983 L778.835 261.742 L786.937 239.983 L791.451 239.983 L781.729 265.909 L775.942 265.909 L766.22 239.983 Z" fill="#000000" fill-rule="nonzero" fill-opacity="1" /><path clip-path="url(#clip440)" d="M819.506 251.881 L819.506 253.964 L799.923 253.964 Q800.201 258.362 802.562 260.677 Q804.946 262.969 809.182 262.969 Q811.636 262.969 813.928 262.367 Q816.243 261.765 818.511 260.561 L818.511 264.589 Q816.219 265.561 813.812 266.071 Q811.405 266.58 808.928 266.58 Q802.724 266.58 799.09 262.969 Q795.479 259.358 795.479 253.2 Q795.479 246.835 798.905 243.108 Q802.354 239.358 808.187 239.358 Q813.419 239.358 816.451 242.737 Q819.506 246.094 819.506 251.881 M815.247 250.631 Q815.201 247.136 813.28 245.052 Q811.382 242.969 808.233 242.969 Q804.669 242.969 802.516 244.983 Q800.386 246.997 800.062 250.654 L815.247 250.631 Z" fill="#000000" fill-rule="nonzero" fill-opacity="1" /><path clip-path="url(#clip440)" d="M843.557 243.918 L843.557 229.89 L847.816 229.89 L847.816 265.909 L843.557 265.909 L843.557 262.02 Q842.215 264.335 840.155 265.469 Q838.117 266.58 835.247 266.58 Q830.548 266.58 827.585 262.83 Q824.645 259.08 824.645 252.969 Q824.645 246.858 827.585 243.108 Q830.548 239.358 835.247 239.358 Q838.117 239.358 840.155 240.492 Q842.215 241.603 843.557 243.918 M829.043 252.969 Q829.043 257.668 830.965 260.353 Q832.909 263.015 836.289 263.015 Q839.668 263.015 841.613 260.353 Q843.557 257.668 843.557 252.969 Q843.557 248.27 841.613 245.608 Q839.668 242.923 836.289 242.923 Q832.909 242.923 830.965 245.608 Q829.043 248.27 829.043 252.969 Z" fill="#000000" fill-rule="nonzero" fill-opacity="1" /><path clip-path="url(#clip440)" d="M888.719 243.918 L888.719 229.89 L892.978 229.89 L892.978 265.909 L888.719 265.909 L888.719 262.02 Q887.376 264.335 885.316 265.469 Q883.279 266.58 880.409 266.58 Q875.71 266.58 872.747 262.83 Q869.807 259.08 869.807 252.969 Q869.807 246.858 872.747 243.108 Q875.71 239.358 880.409 239.358 Q883.279 239.358 885.316 240.492 Q887.376 241.603 888.719 243.918 M874.205 252.969 Q874.205 257.668 876.127 260.353 Q878.071 263.015 881.451 263.015 Q884.83 263.015 886.775 260.353 Q888.719 257.668 888.719 252.969 Q888.719 248.27 886.775 245.608 Q884.83 242.923 881.451 242.923 Q878.071 242.923 876.127 245.608 Q874.205 248.27 874.205 252.969 Z" fill="#000000" fill-rule="nonzero" fill-opacity="1" /><path clip-path="url(#clip440)" d="M913.534 252.876 Q908.372 252.876 906.381 254.057 Q904.39 255.237 904.39 258.085 Q904.39 260.353 905.872 261.696 Q907.376 263.015 909.946 263.015 Q913.487 263.015 915.617 260.515 Q917.77 257.992 917.77 253.825 L917.77 252.876 L913.534 252.876 M922.029 251.117 L922.029 265.909 L917.77 265.909 L917.77 261.973 Q916.312 264.335 914.136 265.469 Q911.96 266.58 908.812 266.58 Q904.83 266.58 902.469 264.358 Q900.131 262.112 900.131 258.362 Q900.131 253.987 903.048 251.765 Q905.987 249.543 911.798 249.543 L917.77 249.543 L917.77 249.126 Q917.77 246.187 915.825 244.589 Q913.904 242.969 910.409 242.969 Q908.187 242.969 906.08 243.501 Q903.974 244.034 902.029 245.099 L902.029 241.163 Q904.367 240.261 906.566 239.821 Q908.765 239.358 910.849 239.358 Q916.474 239.358 919.251 242.274 Q922.029 245.191 922.029 251.117 Z" fill="#000000" fill-rule="nonzero" fill-opacity="1" /><path clip-path="url(#clip440)" d="M935.015 232.622 L935.015 239.983 L943.788 239.983 L943.788 243.293 L935.015 243.293 L935.015 257.367 Q935.015 260.538 935.872 261.441 Q936.751 262.344 939.413 262.344 L943.788 262.344 L943.788 265.909 L939.413 265.909 Q934.483 265.909 932.608 264.08 Q930.733 262.228 930.733 257.367 L930.733 243.293 L927.608 243.293 L927.608 239.983 L930.733 239.983 L930.733 232.622 L935.015 232.622 Z" fill="#000000" fill-rule="nonzero" fill-opacity="1" /><path clip-path="url(#clip440)" d="M961.172 252.876 Q956.01 252.876 954.02 254.057 Q952.029 255.237 952.029 258.085 Q952.029 260.353 953.51 261.696 Q955.015 263.015 957.584 263.015 Q961.126 263.015 963.256 260.515 Q965.408 257.992 965.408 253.825 L965.408 252.876 L961.172 252.876 M969.668 251.117 L969.668 265.909 L965.408 265.909 L965.408 261.973 Q963.95 264.335 961.774 265.469 Q959.598 266.58 956.45 266.58 Q952.469 266.58 950.108 264.358 Q947.77 262.112 947.77 258.362 Q947.77 253.987 950.686 251.765 Q953.626 249.543 959.436 249.543 L965.408 249.543 L965.408 249.126 Q965.408 246.187 963.464 244.589 Q961.543 242.969 958.047 242.969 Q955.825 242.969 953.719 243.501 Q951.612 244.034 949.668 245.099 L949.668 241.163 Q952.006 240.261 954.205 239.821 Q956.404 239.358 958.487 239.358 Q964.112 239.358 966.89 242.274 Q969.668 245.191 969.668 251.117 Z" fill="#000000" fill-rule="nonzero" fill-opacity="1" /></svg>
