<?xml version="1.0" encoding="utf-8"?>
<svg xmlns="http://www.w3.org/2000/svg" xmlns:xlink="http://www.w3.org/1999/xlink" width="600" height="400" viewBox="0 0 2400 1600">
<defs>
  <clipPath id="clip920">
    <rect x="0" y="0" width="2400" height="1600"/>
  </clipPath>
</defs>
<path clip-path="url(#clip920)" d="M0 1600 L2400 1600 L2400 0 L0 0  Z" fill="#ffffff" fill-rule="evenodd" fill-opacity="1"/>
<defs>
  <clipPath id="clip921">
    <rect x="480" y="0" width="1681" height="1600"/>
  </clipPath>
</defs>
<path clip-path="url(#clip920)" d="M213.607 1410.9 L2352.76 1410.9 L2352.76 123.472 L213.607 123.472  Z" fill="#ffffff" fill-rule="evenodd" fill-opacity="1"/>
<defs>
  <clipPath id="clip922">
    <rect x="213" y="123" width="2140" height="1288"/>
  </clipPath>
</defs>
<polyline clip-path="url(#clip922)" style="stroke:#000000; stroke-linecap:round; stroke-linejoin:round; stroke-width:2; stroke-opacity:0.1; fill:none" points="223.239,1410.9 223.239,123.472 "/>
<polyline clip-path="url(#clip922)" style="stroke:#000000; stroke-linecap:round; stroke-linejoin:round; stroke-width:2; stroke-opacity:0.1; fill:none" points="727.755,1410.9 727.755,123.472 "/>
<polyline clip-path="url(#clip922)" style="stroke:#000000; stroke-linecap:round; stroke-linejoin:round; stroke-width:2; stroke-opacity:0.1; fill:none" points="1232.27,1410.9 1232.27,123.472 "/>
<polyline clip-path="url(#clip922)" style="stroke:#000000; stroke-linecap:round; stroke-linejoin:round; stroke-width:2; stroke-opacity:0.1; fill:none" points="1736.79,1410.9 1736.79,123.472 "/>
<polyline clip-path="url(#clip922)" style="stroke:#000000; stroke-linecap:round; stroke-linejoin:round; stroke-width:2; stroke-opacity:0.1; fill:none" points="2241.3,1410.9 2241.3,123.472 "/>
<polyline clip-path="url(#clip922)" style="stroke:#000000; stroke-linecap:round; stroke-linejoin:round; stroke-width:2; stroke-opacity:0.1; fill:none" points="213.607,1199.02 2352.76,1199.02 "/>
<polyline clip-path="url(#clip922)" style="stroke:#000000; stroke-linecap:round; stroke-linejoin:round; stroke-width:2; stroke-opacity:0.1; fill:none" points="213.607,718.083 2352.76,718.083 "/>
<polyline clip-path="url(#clip922)" style="stroke:#000000; stroke-linecap:round; stroke-linejoin:round; stroke-width:2; stroke-opacity:0.1; fill:none" points="213.607,237.141 2352.76,237.141 "/>
<polyline clip-path="url(#clip920)" style="stroke:#000000; stroke-linecap:round; stroke-linejoin:round; stroke-width:4; stroke-opacity:1; fill:none" points="213.607,1410.9 2352.76,1410.9 "/>
<polyline clip-path="url(#clip920)" style="stroke:#000000; stroke-linecap:round; stroke-linejoin:round; stroke-width:4; stroke-opacity:1; fill:none" points="223.239,1410.9 223.239,1392 "/>
<polyline clip-path="url(#clip920)" style="stroke:#000000; stroke-linecap:round; stroke-linejoin:round; stroke-width:4; stroke-opacity:1; fill:none" points="727.755,1410.9 727.755,1392 "/>
<polyline clip-path="url(#clip920)" style="stroke:#000000; stroke-linecap:round; stroke-linejoin:round; stroke-width:4; stroke-opacity:1; fill:none" points="1232.27,1410.9 1232.27,1392 "/>
<polyline clip-path="url(#clip920)" style="stroke:#000000; stroke-linecap:round; stroke-linejoin:round; stroke-width:4; stroke-opacity:1; fill:none" points="1736.79,1410.9 1736.79,1392 "/>
<polyline clip-path="url(#clip920)" style="stroke:#000000; stroke-linecap:round; stroke-linejoin:round; stroke-width:4; stroke-opacity:1; fill:none" points="2241.3,1410.9 2241.3,1392 "/>
<path clip-path="url(#clip920)" d="M172.658 1485.02 L180.297 1485.02 L180.297 1458.66 L171.987 1460.32 L171.987 1456.06 L180.251 1454.4 L184.927 1454.4 L184.927 1485.02 L192.565 1485.02 L192.565 1488.96 L172.658 1488.96 L172.658 1485.02 Z" fill="#000000" fill-rule="nonzero" fill-opacity="1" /><path clip-path="url(#clip920)" d="M212.01 1457.48 Q208.399 1457.48 206.57 1461.04 Q204.764 1464.58 204.764 1471.71 Q204.764 1478.82 206.57 1482.38 Q208.399 1485.92 212.01 1485.92 Q215.644 1485.92 217.449 1482.38 Q219.278 1478.82 219.278 1471.71 Q219.278 1464.58 217.449 1461.04 Q215.644 1457.48 212.01 1457.48 M212.01 1453.77 Q217.82 1453.77 220.875 1458.38 Q223.954 1462.96 223.954 1471.71 Q223.954 1480.44 220.875 1485.04 Q217.82 1489.63 212.01 1489.63 Q206.2 1489.63 203.121 1485.04 Q200.065 1480.44 200.065 1471.71 Q200.065 1462.96 203.121 1458.38 Q206.2 1453.77 212.01 1453.77 Z" fill="#000000" fill-rule="nonzero" fill-opacity="1" /><path clip-path="url(#clip920)" d="M223.954 1447.87 L248.066 1447.87 L248.066 1451.07 L223.954 1451.07 L223.954 1447.87 Z" fill="#000000" fill-rule="nonzero" fill-opacity="1" /><path clip-path="url(#clip920)" d="M266.704 1436.78 L257.112 1451.77 L266.704 1451.77 L266.704 1436.78 M265.707 1433.47 L270.484 1433.47 L270.484 1451.77 L274.491 1451.77 L274.491 1454.93 L270.484 1454.93 L270.484 1461.55 L266.704 1461.55 L266.704 1454.93 L254.028 1454.93 L254.028 1451.26 L265.707 1433.47 Z" fill="#000000" fill-rule="nonzero" fill-opacity="1" /><path clip-path="url(#clip920)" d="M678.021 1485.02 L685.659 1485.02 L685.659 1458.66 L677.349 1460.32 L677.349 1456.06 L685.613 1454.4 L690.289 1454.4 L690.289 1485.02 L697.928 1485.02 L697.928 1488.96 L678.021 1488.96 L678.021 1485.02 Z" fill="#000000" fill-rule="nonzero" fill-opacity="1" /><path clip-path="url(#clip920)" d="M717.372 1457.48 Q713.761 1457.48 711.932 1461.04 Q710.127 1464.58 710.127 1471.71 Q710.127 1478.82 711.932 1482.38 Q713.761 1485.92 717.372 1485.92 Q721.006 1485.92 722.812 1482.38 Q724.641 1478.82 724.641 1471.71 Q724.641 1464.58 722.812 1461.04 Q721.006 1457.48 717.372 1457.48 M717.372 1453.77 Q723.182 1453.77 726.238 1458.38 Q729.317 1462.96 729.317 1471.71 Q729.317 1480.44 726.238 1485.04 Q723.182 1489.63 717.372 1489.63 Q711.562 1489.63 708.483 1485.04 Q705.428 1480.44 705.428 1471.71 Q705.428 1462.96 708.483 1458.38 Q711.562 1453.77 717.372 1453.77 Z" fill="#000000" fill-rule="nonzero" fill-opacity="1" /><path clip-path="url(#clip920)" d="M729.317 1447.87 L753.428 1447.87 L753.428 1451.07 L729.317 1451.07 L729.317 1447.87 Z" fill="#000000" fill-rule="nonzero" fill-opacity="1" /><path clip-path="url(#clip920)" d="M764.901 1458.35 L778.16 1458.35 L778.16 1461.55 L760.331 1461.55 L760.331 1458.35 Q762.493 1456.11 766.217 1452.35 Q769.96 1448.57 770.919 1447.48 Q772.744 1445.43 773.458 1444.02 Q774.192 1442.59 774.192 1441.22 Q774.192 1438.98 772.612 1437.57 Q771.051 1436.16 768.531 1436.16 Q766.744 1436.16 764.75 1436.78 Q762.776 1437.4 760.519 1438.66 L760.519 1434.82 Q762.813 1433.9 764.807 1433.43 Q766.8 1432.96 768.456 1432.96 Q772.819 1432.96 775.414 1435.14 Q778.01 1437.32 778.01 1440.97 Q778.01 1442.7 777.352 1444.26 Q776.712 1445.8 775.001 1447.91 Q774.53 1448.46 772.01 1451.07 Q769.49 1453.67 764.901 1458.35 Z" fill="#000000" fill-rule="nonzero" fill-opacity="1" /><path clip-path="url(#clip920)" d="M1197.25 1485.02 L1204.89 1485.02 L1204.89 1458.66 L1196.58 1460.32 L1196.58 1456.06 L1204.85 1454.4 L1209.52 1454.4 L1209.52 1485.02 L1217.16 1485.02 L1217.16 1488.96 L1197.25 1488.96 L1197.25 1485.02 Z" fill="#000000" fill-rule="nonzero" fill-opacity="1" /><path clip-path="url(#clip920)" d="M1236.61 1457.48 Q1232.99 1457.48 1231.17 1461.04 Q1229.36 1464.58 1229.36 1471.71 Q1229.36 1478.82 1231.17 1482.38 Q1232.99 1485.92 1236.61 1485.92 Q1240.24 1485.92 1242.05 1482.38 Q1243.87 1478.82 1243.87 1471.71 Q1243.87 1464.58 1242.05 1461.04 Q1240.24 1457.48 1236.61 1457.48 M1236.61 1453.77 Q1242.42 1453.77 1245.47 1458.38 Q1248.55 1462.96 1248.55 1471.71 Q1248.55 1480.44 1245.47 1485.04 Q1242.42 1489.63 1236.61 1489.63 Q1230.8 1489.63 1227.72 1485.04 Q1224.66 1480.44 1224.66 1471.71 Q1224.66 1462.96 1227.72 1458.38 Q1230.8 1453.77 1236.61 1453.77 Z" fill="#000000" fill-rule="nonzero" fill-opacity="1" /><path clip-path="url(#clip920)" d="M1258.25 1435.97 Q1255.32 1435.97 1253.83 1438.86 Q1252.37 1441.74 1252.37 1447.53 Q1252.37 1453.31 1253.83 1456.2 Q1255.32 1459.08 1258.25 1459.08 Q1261.21 1459.08 1262.67 1456.2 Q1264.16 1453.31 1264.16 1447.53 Q1264.16 1441.74 1262.67 1438.86 Q1261.21 1435.97 1258.25 1435.97 M1258.25 1432.96 Q1262.98 1432.96 1265.46 1436.7 Q1267.96 1440.43 1267.96 1447.53 Q1267.96 1454.62 1265.46 1458.37 Q1262.98 1462.09 1258.25 1462.09 Q1253.53 1462.09 1251.03 1458.37 Q1248.55 1454.62 1248.55 1447.53 Q1248.55 1440.43 1251.03 1436.7 Q1253.53 1432.96 1258.25 1432.96 Z" fill="#000000" fill-rule="nonzero" fill-opacity="1" /><path clip-path="url(#clip920)" d="M1702.56 1485.02 L1710.2 1485.02 L1710.2 1458.66 L1701.89 1460.32 L1701.89 1456.06 L1710.15 1454.4 L1714.83 1454.4 L1714.83 1485.02 L1722.47 1485.02 L1722.47 1488.96 L1702.56 1488.96 L1702.56 1485.02 Z" fill="#000000" fill-rule="nonzero" fill-opacity="1" /><path clip-path="url(#clip920)" d="M1741.91 1457.48 Q1738.3 1457.48 1736.47 1461.04 Q1734.67 1464.58 1734.67 1471.71 Q1734.67 1478.82 1736.47 1482.38 Q1738.3 1485.92 1741.91 1485.92 Q1745.55 1485.92 1747.35 1482.38 Q1749.18 1478.82 1749.18 1471.71 Q1749.18 1464.58 1747.35 1461.04 Q1745.55 1457.48 1741.91 1457.48 M1741.91 1453.77 Q1747.72 1453.77 1750.78 1458.38 Q1753.86 1462.96 1753.86 1471.71 Q1753.86 1480.44 1750.78 1485.04 Q1747.72 1489.63 1741.91 1489.63 Q1736.1 1489.63 1733.02 1485.04 Q1729.97 1480.44 1729.97 1471.71 Q1729.97 1462.96 1733.02 1458.38 Q1736.1 1453.77 1741.91 1453.77 Z" fill="#000000" fill-rule="nonzero" fill-opacity="1" /><path clip-path="url(#clip920)" d="M1758.43 1458.35 L1771.69 1458.35 L1771.69 1461.55 L1753.86 1461.55 L1753.86 1458.35 Q1756.02 1456.11 1759.74 1452.35 Q1763.49 1448.57 1764.44 1447.48 Q1766.27 1445.43 1766.98 1444.02 Q1767.72 1442.59 1767.72 1441.22 Q1767.72 1438.98 1766.14 1437.57 Q1764.58 1436.16 1762.06 1436.16 Q1760.27 1436.16 1758.28 1436.78 Q1756.3 1437.4 1754.04 1438.66 L1754.04 1434.82 Q1756.34 1433.9 1758.33 1433.43 Q1760.33 1432.96 1761.98 1432.96 Q1766.34 1432.96 1768.94 1435.14 Q1771.54 1437.32 1771.54 1440.97 Q1771.54 1442.7 1770.88 1444.26 Q1770.24 1445.8 1768.53 1447.91 Q1768.06 1448.46 1765.54 1451.07 Q1763.02 1453.67 1758.43 1458.35 Z" fill="#000000" fill-rule="nonzero" fill-opacity="1" /><path clip-path="url(#clip920)" d="M2205.76 1485.02 L2213.4 1485.02 L2213.4 1458.66 L2205.09 1460.32 L2205.09 1456.06 L2213.35 1454.4 L2218.03 1454.4 L2218.03 1485.02 L2225.67 1485.02 L2225.67 1488.96 L2205.76 1488.96 L2205.76 1485.02 Z" fill="#000000" fill-rule="nonzero" fill-opacity="1" /><path clip-path="url(#clip920)" d="M2245.11 1457.48 Q2241.5 1457.48 2239.67 1461.04 Q2237.87 1464.58 2237.87 1471.71 Q2237.87 1478.82 2239.67 1482.38 Q2241.5 1485.92 2245.11 1485.92 Q2248.75 1485.92 2250.55 1482.38 Q2252.38 1478.82 2252.38 1471.71 Q2252.38 1464.58 2250.55 1461.04 Q2248.75 1457.48 2245.11 1457.48 M2245.11 1453.77 Q2250.92 1453.77 2253.98 1458.38 Q2257.06 1462.96 2257.06 1471.71 Q2257.06 1480.44 2253.98 1485.04 Q2250.92 1489.63 2245.11 1489.63 Q2239.3 1489.63 2236.22 1485.04 Q2233.17 1480.44 2233.17 1471.71 Q2233.17 1462.96 2236.22 1458.38 Q2239.3 1453.77 2245.11 1453.77 Z" fill="#000000" fill-rule="nonzero" fill-opacity="1" /><path clip-path="url(#clip920)" d="M2269.73 1436.78 L2260.14 1451.77 L2269.73 1451.77 L2269.73 1436.78 M2268.74 1433.47 L2273.51 1433.47 L2273.51 1451.77 L2277.52 1451.77 L2277.52 1454.93 L2273.51 1454.93 L2273.51 1461.55 L2269.73 1461.55 L2269.73 1454.93 L2257.06 1454.93 L2257.06 1451.26 L2268.74 1433.47 Z" fill="#000000" fill-rule="nonzero" fill-opacity="1" /><path clip-path="url(#clip920)" d="M1043.4 1526.67 L1070.71 1526.67 L1070.71 1532.08 L1049.83 1532.08 L1049.83 1546.08 L1068.67 1546.08 L1068.67 1551.49 L1049.83 1551.49 L1049.83 1574.19 L1043.4 1574.19 L1043.4 1526.67 Z" fill="#000000" fill-rule="nonzero" fill-opacity="1" /><path clip-path="url(#clip920)" d="M1096.56 1544.01 Q1095.57 1543.44 1094.39 1543.18 Q1093.24 1542.9 1091.84 1542.9 Q1086.88 1542.9 1084.21 1546.14 Q1081.56 1549.36 1081.56 1555.41 L1081.56 1574.19 L1075.68 1574.19 L1075.68 1538.54 L1081.56 1538.54 L1081.56 1544.08 Q1083.41 1540.83 1086.37 1539.27 Q1089.33 1537.68 1093.56 1537.68 Q1094.17 1537.68 1094.9 1537.77 Q1095.63 1537.84 1096.52 1538 L1096.56 1544.01 Z" fill="#000000" fill-rule="nonzero" fill-opacity="1" /><path clip-path="url(#clip920)" d="M1131.76 1554.9 L1131.76 1557.76 L1104.83 1557.76 Q1105.21 1563.81 1108.46 1566.99 Q1111.74 1570.14 1117.56 1570.14 Q1120.94 1570.14 1124.09 1569.32 Q1127.27 1568.49 1130.39 1566.83 L1130.39 1572.37 Q1127.24 1573.71 1123.93 1574.41 Q1120.62 1575.11 1117.21 1575.11 Q1108.68 1575.11 1103.68 1570.14 Q1098.72 1565.18 1098.72 1556.71 Q1098.72 1547.96 1103.43 1542.83 Q1108.17 1537.68 1116.19 1537.68 Q1123.39 1537.68 1127.56 1542.33 Q1131.76 1546.94 1131.76 1554.9 M1125.9 1553.18 Q1125.84 1548.37 1123.2 1545.51 Q1120.59 1542.64 1116.26 1542.64 Q1111.36 1542.64 1108.4 1545.41 Q1105.47 1548.18 1105.02 1553.21 L1125.9 1553.18 Z" fill="#000000" fill-rule="nonzero" fill-opacity="1" /><path clip-path="url(#clip920)" d="M1144.87 1556.39 Q1144.87 1562.85 1147.51 1566.55 Q1150.19 1570.21 1154.83 1570.21 Q1159.48 1570.21 1162.15 1566.55 Q1164.83 1562.85 1164.83 1556.39 Q1164.83 1549.93 1162.15 1546.27 Q1159.48 1542.58 1154.83 1542.58 Q1150.19 1542.58 1147.51 1546.27 Q1144.87 1549.93 1144.87 1556.39 M1164.83 1568.84 Q1162.98 1572.02 1160.15 1573.58 Q1157.35 1575.11 1153.4 1575.11 Q1146.94 1575.11 1142.87 1569.95 Q1138.82 1564.8 1138.82 1556.39 Q1138.82 1547.99 1142.87 1542.83 Q1146.94 1537.68 1153.4 1537.68 Q1157.35 1537.68 1160.15 1539.24 Q1162.98 1540.77 1164.83 1543.95 L1164.83 1538.54 L1170.68 1538.54 L1170.68 1587.74 L1164.83 1587.74 L1164.83 1568.84 Z" fill="#000000" fill-rule="nonzero" fill-opacity="1" /><path clip-path="url(#clip920)" d="M1182.14 1560.12 L1182.14 1538.54 L1188 1538.54 L1188 1559.89 Q1188 1564.96 1189.97 1567.5 Q1191.95 1570.02 1195.89 1570.02 Q1200.63 1570.02 1203.37 1566.99 Q1206.14 1563.97 1206.14 1558.75 L1206.14 1538.54 L1212 1538.54 L1212 1574.19 L1206.14 1574.19 L1206.14 1568.71 Q1204.01 1571.96 1201.18 1573.55 Q1198.37 1575.11 1194.65 1575.11 Q1188.51 1575.11 1185.32 1571.29 Q1182.14 1567.47 1182.14 1560.12 M1196.88 1537.68 L1196.88 1537.68 Z" fill="#000000" fill-rule="nonzero" fill-opacity="1" /><path clip-path="url(#clip920)" d="M1254.55 1554.9 L1254.55 1557.76 L1227.62 1557.76 Q1228.01 1563.81 1231.25 1566.99 Q1234.53 1570.14 1240.36 1570.14 Q1243.73 1570.14 1246.88 1569.32 Q1250.06 1568.49 1253.18 1566.83 L1253.18 1572.37 Q1250.03 1573.71 1246.72 1574.41 Q1243.41 1575.11 1240.01 1575.11 Q1231.48 1575.11 1226.48 1570.14 Q1221.51 1565.18 1221.51 1556.71 Q1221.51 1547.96 1226.22 1542.83 Q1230.97 1537.68 1238.99 1537.68 Q1246.18 1537.68 1250.35 1542.33 Q1254.55 1546.94 1254.55 1554.9 M1248.7 1553.18 Q1248.63 1548.37 1245.99 1545.51 Q1243.38 1542.64 1239.05 1542.64 Q1234.15 1542.64 1231.19 1545.41 Q1228.26 1548.18 1227.82 1553.21 L1248.7 1553.18 Z" fill="#000000" fill-rule="nonzero" fill-opacity="1" /><path clip-path="url(#clip920)" d="M1293.8 1552.67 L1293.8 1574.19 L1287.94 1574.19 L1287.94 1552.86 Q1287.94 1547.8 1285.97 1545.29 Q1283.99 1542.77 1280.05 1542.77 Q1275.3 1542.77 1272.57 1545.79 Q1269.83 1548.82 1269.83 1554.04 L1269.83 1574.19 L1263.94 1574.19 L1263.94 1538.54 L1269.83 1538.54 L1269.83 1544.08 Q1271.93 1540.86 1274.76 1539.27 Q1277.63 1537.68 1281.35 1537.68 Q1287.49 1537.68 1290.65 1541.5 Q1293.8 1545.29 1293.8 1552.67 Z" fill="#000000" fill-rule="nonzero" fill-opacity="1" /><path clip-path="url(#clip920)" d="M1331.13 1539.91 L1331.13 1545.38 Q1328.65 1544.01 1326.13 1543.34 Q1323.65 1542.64 1321.11 1542.64 Q1315.41 1542.64 1312.26 1546.27 Q1309.11 1549.87 1309.11 1556.39 Q1309.11 1562.92 1312.26 1566.55 Q1315.41 1570.14 1321.11 1570.14 Q1323.65 1570.14 1326.13 1569.47 Q1328.65 1568.77 1331.13 1567.41 L1331.13 1572.82 Q1328.68 1573.96 1326.04 1574.54 Q1323.43 1575.11 1320.47 1575.11 Q1312.42 1575.11 1307.67 1570.05 Q1302.93 1564.99 1302.93 1556.39 Q1302.93 1547.67 1307.71 1542.68 Q1312.51 1537.68 1320.85 1537.68 Q1323.56 1537.68 1326.13 1538.25 Q1328.71 1538.79 1331.13 1539.91 Z" fill="#000000" fill-rule="nonzero" fill-opacity="1" /><path clip-path="url(#clip920)" d="M1356.15 1577.5 Q1353.67 1583.86 1351.31 1585.8 Q1348.96 1587.74 1345.01 1587.74 L1340.33 1587.74 L1340.33 1582.84 L1343.77 1582.84 Q1346.19 1582.84 1347.52 1581.7 Q1348.86 1580.55 1350.48 1576.29 L1351.53 1573.61 L1337.12 1538.54 L1343.32 1538.54 L1354.46 1566.42 L1365.6 1538.54 L1371.81 1538.54 L1356.15 1577.5 Z" fill="#000000" fill-rule="nonzero" fill-opacity="1" /><path clip-path="url(#clip920)" d="M1414.68 1524.72 Q1410.42 1532.04 1408.35 1539.21 Q1406.28 1546.37 1406.28 1553.72 Q1406.28 1561.07 1408.35 1568.3 Q1410.45 1575.49 1414.68 1582.78 L1409.59 1582.78 Q1404.81 1575.3 1402.43 1568.07 Q1400.07 1560.85 1400.07 1553.72 Q1400.07 1546.62 1402.43 1539.43 Q1404.78 1532.24 1409.59 1524.72 L1414.68 1524.72 Z" fill="#000000" fill-rule="nonzero" fill-opacity="1" /><path clip-path="url(#clip920)" d="M1426.3 1526.67 L1432.73 1526.67 L1432.73 1546.14 L1456.09 1546.14 L1456.09 1526.67 L1462.52 1526.67 L1462.52 1574.19 L1456.09 1574.19 L1456.09 1551.56 L1432.73 1551.56 L1432.73 1574.19 L1426.3 1574.19 L1426.3 1526.67 Z" fill="#000000" fill-rule="nonzero" fill-opacity="1" /><path clip-path="url(#clip920)" d="M1472.51 1538.54 L1500.33 1538.54 L1500.33 1543.88 L1478.31 1569.51 L1500.33 1569.51 L1500.33 1574.19 L1471.72 1574.19 L1471.72 1568.84 L1493.74 1543.22 L1472.51 1543.22 L1472.51 1538.54 Z" fill="#000000" fill-rule="nonzero" fill-opacity="1" /><path clip-path="url(#clip920)" d="M1508.35 1524.72 L1513.45 1524.72 Q1518.22 1532.24 1520.57 1539.43 Q1522.96 1546.62 1522.96 1553.72 Q1522.96 1560.85 1520.57 1568.07 Q1518.22 1575.3 1513.45 1582.78 L1508.35 1582.78 Q1512.59 1575.49 1514.65 1568.3 Q1516.76 1561.07 1516.76 1553.72 Q1516.76 1546.37 1514.65 1539.21 Q1512.59 1532.04 1508.35 1524.72 Z" fill="#000000" fill-rule="nonzero" fill-opacity="1" /><polyline clip-path="url(#clip920)" style="stroke:#000000; stroke-linecap:round; stroke-linejoin:round; stroke-width:4; stroke-opacity:1; fill:none" points="213.607,1410.9 213.607,123.472 "/>
<polyline clip-path="url(#clip920)" style="stroke:#000000; stroke-linecap:round; stroke-linejoin:round; stroke-width:4; stroke-opacity:1; fill:none" points="213.607,1199.02 232.505,1199.02 "/>
<polyline clip-path="url(#clip920)" style="stroke:#000000; stroke-linecap:round; stroke-linejoin:round; stroke-width:4; stroke-opacity:1; fill:none" points="213.607,718.083 232.505,718.083 "/>
<polyline clip-path="url(#clip920)" style="stroke:#000000; stroke-linecap:round; stroke-linejoin:round; stroke-width:4; stroke-opacity:1; fill:none" points="213.607,237.141 232.505,237.141 "/>
<path clip-path="url(#clip920)" d="M51.6634 1218.82 L59.3023 1218.82 L59.3023 1192.45 L50.9921 1194.12 L50.9921 1189.86 L59.256 1188.19 L63.9319 1188.19 L63.9319 1218.82 L71.5707 1218.82 L71.5707 1222.75 L51.6634 1222.75 L51.6634 1218.82 Z" fill="#000000" fill-rule="nonzero" fill-opacity="1" /><path clip-path="url(#clip920)" d="M91.0151 1191.27 Q87.404 1191.27 85.5753 1194.84 Q83.7697 1198.38 83.7697 1205.51 Q83.7697 1212.61 85.5753 1216.18 Q87.404 1219.72 91.0151 1219.72 Q94.6493 1219.72 96.4548 1216.18 Q98.2835 1212.61 98.2835 1205.51 Q98.2835 1198.38 96.4548 1194.84 Q94.6493 1191.27 91.0151 1191.27 M91.0151 1187.57 Q96.8252 1187.57 99.8808 1192.17 Q102.959 1196.76 102.959 1205.51 Q102.959 1214.23 99.8808 1218.84 Q96.8252 1223.42 91.0151 1223.42 Q85.2049 1223.42 82.1262 1218.84 Q79.0707 1214.23 79.0707 1205.51 Q79.0707 1196.76 82.1262 1192.17 Q85.2049 1187.57 91.0151 1187.57 Z" fill="#000000" fill-rule="nonzero" fill-opacity="1" /><path clip-path="url(#clip920)" d="M102.959 1181.67 L127.071 1181.67 L127.071 1184.87 L102.959 1184.87 L102.959 1181.67 Z" fill="#000000" fill-rule="nonzero" fill-opacity="1" /><path clip-path="url(#clip920)" d="M135.929 1192.14 L142.136 1192.14 L142.136 1170.72 L135.384 1172.08 L135.384 1168.62 L142.098 1167.26 L145.898 1167.26 L145.898 1192.14 L152.104 1192.14 L152.104 1195.34 L135.929 1195.34 L135.929 1192.14 Z" fill="#000000" fill-rule="nonzero" fill-opacity="1" /><path clip-path="url(#clip920)" d="M167.903 1169.76 Q164.969 1169.76 163.483 1172.66 Q162.016 1175.54 162.016 1181.33 Q162.016 1187.1 163.483 1190 Q164.969 1192.88 167.903 1192.88 Q170.855 1192.88 172.322 1190 Q173.808 1187.1 173.808 1181.33 Q173.808 1175.54 172.322 1172.66 Q170.855 1169.76 167.903 1169.76 M167.903 1166.75 Q172.623 1166.75 175.106 1170.5 Q177.607 1174.22 177.607 1181.33 Q177.607 1188.42 175.106 1192.16 Q172.623 1195.89 167.903 1195.89 Q163.182 1195.89 160.68 1192.16 Q158.198 1188.42 158.198 1181.33 Q158.198 1174.22 160.68 1170.5 Q163.182 1166.75 167.903 1166.75 Z" fill="#000000" fill-rule="nonzero" fill-opacity="1" /><path clip-path="url(#clip920)" d="M76.9787 737.875 L84.6175 737.875 L84.6175 711.51 L76.3074 713.176 L76.3074 708.917 L84.5712 707.25 L89.2471 707.25 L89.2471 737.875 L96.886 737.875 L96.886 741.81 L76.9787 741.81 L76.9787 737.875 Z" fill="#000000" fill-rule="nonzero" fill-opacity="1" /><path clip-path="url(#clip920)" d="M116.33 710.329 Q112.719 710.329 110.891 713.894 Q109.085 717.435 109.085 724.565 Q109.085 731.671 110.891 735.236 Q112.719 738.778 116.33 738.778 Q119.965 738.778 121.77 735.236 Q123.599 731.671 123.599 724.565 Q123.599 717.435 121.77 713.894 Q119.965 710.329 116.33 710.329 M116.33 706.625 Q122.14 706.625 125.196 711.232 Q128.275 715.815 128.275 724.565 Q128.275 733.292 125.196 737.898 Q122.14 742.482 116.33 742.482 Q110.52 742.482 107.441 737.898 Q104.386 733.292 104.386 724.565 Q104.386 715.815 107.441 711.232 Q110.52 706.625 116.33 706.625 Z" fill="#000000" fill-rule="nonzero" fill-opacity="1" /><path clip-path="url(#clip920)" d="M128.275 700.727 L152.386 700.727 L152.386 703.924 L128.275 703.924 L128.275 700.727 Z" fill="#000000" fill-rule="nonzero" fill-opacity="1" /><path clip-path="url(#clip920)" d="M160.624 686.32 L175.539 686.32 L175.539 689.517 L164.103 689.517 L164.103 696.401 Q164.931 696.119 165.759 695.987 Q166.586 695.837 167.414 695.837 Q172.116 695.837 174.862 698.413 Q177.607 700.99 177.607 705.391 Q177.607 709.924 174.786 712.444 Q171.965 714.945 166.831 714.945 Q165.063 714.945 163.22 714.644 Q161.395 714.343 159.439 713.742 L159.439 709.924 Q161.132 710.845 162.937 711.297 Q164.743 711.748 166.755 711.748 Q170.009 711.748 171.909 710.036 Q173.808 708.325 173.808 705.391 Q173.808 702.457 171.909 700.745 Q170.009 699.034 166.755 699.034 Q165.232 699.034 163.709 699.372 Q162.204 699.711 160.624 700.426 L160.624 686.32 Z" fill="#000000" fill-rule="nonzero" fill-opacity="1" /><path clip-path="url(#clip920)" d="M106.902 256.934 L114.541 256.934 L114.541 230.568 L106.231 232.235 L106.231 227.976 L114.494 226.309 L119.17 226.309 L119.17 256.934 L126.809 256.934 L126.809 260.869 L106.902 260.869 L106.902 256.934 Z" fill="#000000" fill-rule="nonzero" fill-opacity="1" /><path clip-path="url(#clip920)" d="M146.253 229.388 Q142.642 229.388 140.814 232.953 Q139.008 236.494 139.008 243.624 Q139.008 250.73 140.814 254.295 Q142.642 257.837 146.253 257.837 Q149.888 257.837 151.693 254.295 Q153.522 250.73 153.522 243.624 Q153.522 236.494 151.693 232.953 Q149.888 229.388 146.253 229.388 M146.253 225.684 Q152.064 225.684 155.119 230.29 Q158.198 234.874 158.198 243.624 Q158.198 252.351 155.119 256.957 Q152.064 261.54 146.253 261.54 Q140.443 261.54 137.365 256.957 Q134.309 252.351 134.309 243.624 Q134.309 234.874 137.365 230.29 Q140.443 225.684 146.253 225.684 Z" fill="#000000" fill-rule="nonzero" fill-opacity="1" /><path clip-path="url(#clip920)" d="M167.903 207.88 Q164.969 207.88 163.483 210.776 Q162.016 213.654 162.016 219.447 Q162.016 225.221 163.483 228.117 Q164.969 230.995 167.903 230.995 Q170.855 230.995 172.322 228.117 Q173.808 225.221 173.808 219.447 Q173.808 213.654 172.322 210.776 Q170.855 207.88 167.903 207.88 M167.903 204.871 Q172.623 204.871 175.106 208.614 Q177.607 212.338 177.607 219.447 Q177.607 226.537 175.106 230.28 Q172.623 234.004 167.903 234.004 Q163.182 234.004 160.68 230.28 Q158.198 226.537 158.198 219.447 Q158.198 212.338 160.68 208.614 Q163.182 204.871 167.903 204.871 Z" fill="#000000" fill-rule="nonzero" fill-opacity="1" /><path clip-path="url(#clip920)" d="M828.346 14.0809 L828.346 22.0612 Q823.688 19.8332 819.556 18.7395 Q815.424 17.6457 811.575 17.6457 Q804.891 17.6457 801.246 20.2383 Q797.64 22.8309 797.64 27.611 Q797.64 31.6214 800.03 33.6873 Q802.461 35.7128 809.185 36.9686 L814.127 37.9813 Q823.283 39.7232 827.617 44.1387 Q831.992 48.5136 831.992 55.8863 Q831.992 64.6767 826.078 69.2137 Q820.204 73.7508 808.821 73.7508 Q804.527 73.7508 799.666 72.7785 Q794.845 71.8063 789.66 69.9024 L789.66 61.4765 Q794.643 64.2716 799.423 65.6895 Q804.203 67.1073 808.821 67.1073 Q815.829 67.1073 819.637 64.3527 Q823.445 61.598 823.445 56.4939 Q823.445 52.0379 820.69 49.5264 Q817.976 47.0148 811.737 45.759 L806.755 44.7868 Q797.6 42.9639 793.508 39.075 Q789.417 35.1862 789.417 28.2591 Q789.417 20.2383 795.048 15.6203 Q800.719 11.0023 810.644 11.0023 Q814.897 11.0023 819.313 11.7719 Q823.728 12.5416 828.346 14.0809 Z" fill="#000000" fill-rule="nonzero" fill-opacity="1" /><path clip-path="url(#clip920)" d="M851.639 65.7705 L851.639 89.8329 L844.145 89.8329 L844.145 27.2059 L851.639 27.2059 L851.639 34.0924 Q853.988 30.0415 857.553 28.0971 Q861.158 26.1121 866.141 26.1121 Q874.405 26.1121 879.55 32.6746 Q884.735 39.2371 884.735 49.9314 Q884.735 60.6258 879.55 67.1883 Q874.405 73.7508 866.141 73.7508 Q861.158 73.7508 857.553 71.8063 Q853.988 69.8214 851.639 65.7705 M876.998 49.9314 Q876.998 41.7081 873.595 37.0496 Q870.233 32.3505 864.318 32.3505 Q858.404 32.3505 855.001 37.0496 Q851.639 41.7081 851.639 49.9314 Q851.639 58.1548 855.001 62.8538 Q858.404 67.5124 864.318 67.5124 Q870.233 67.5124 873.595 62.8538 Q876.998 58.1548 876.998 49.9314 Z" fill="#000000" fill-rule="nonzero" fill-opacity="1" /><path clip-path="url(#clip920)" d="M935.898 48.0275 L935.898 51.6733 L901.627 51.6733 Q902.113 59.3701 906.245 63.421 Q910.417 67.4314 917.831 67.4314 Q922.125 67.4314 926.135 66.3781 Q930.186 65.3249 934.156 63.2184 L934.156 70.267 Q930.145 71.9684 925.932 72.8596 Q921.72 73.7508 917.385 73.7508 Q906.529 73.7508 900.169 67.4314 Q893.849 61.1119 893.849 50.3365 Q893.849 39.1965 899.845 32.6746 Q905.88 26.1121 916.089 26.1121 Q925.244 26.1121 930.55 32.0264 Q935.898 37.9003 935.898 48.0275 M928.444 45.84 Q928.363 39.7232 925.001 36.0774 Q921.679 32.4315 916.17 32.4315 Q909.931 32.4315 906.164 35.9558 Q902.437 39.4801 901.87 45.8805 L928.444 45.84 Z" fill="#000000" fill-rule="nonzero" fill-opacity="1" /><path clip-path="url(#clip920)" d="M980.782 28.9478 L980.782 35.9153 Q977.622 34.1734 974.422 33.3227 Q971.262 32.4315 968.021 32.4315 Q960.77 32.4315 956.76 37.0496 Q952.749 41.6271 952.749 49.9314 Q952.749 58.2358 956.76 62.8538 Q960.77 67.4314 968.021 67.4314 Q971.262 67.4314 974.422 66.5807 Q977.622 65.6895 980.782 63.9476 L980.782 70.8341 Q977.662 72.2924 974.3 73.0216 Q970.979 73.7508 967.211 73.7508 Q956.962 73.7508 950.927 67.3098 Q944.891 60.8689 944.891 49.9314 Q944.891 38.832 950.967 32.472 Q957.084 26.1121 967.697 26.1121 Q971.141 26.1121 974.422 26.8413 Q977.703 27.5299 980.782 28.9478 Z" fill="#000000" fill-rule="nonzero" fill-opacity="1" /><path clip-path="url(#clip920)" d="M993.745 27.2059 L1001.2 27.2059 L1001.2 72.576 L993.745 72.576 L993.745 27.2059 M993.745 9.54393 L1001.2 9.54393 L1001.2 18.9825 L993.745 18.9825 L993.745 9.54393 Z" fill="#000000" fill-rule="nonzero" fill-opacity="1" /><path clip-path="url(#clip920)" d="M1039.76 9.54393 L1039.76 15.7418 L1032.63 15.7418 Q1028.62 15.7418 1027.04 17.3622 Q1025.5 18.9825 1025.5 23.1955 L1025.5 27.2059 L1037.78 27.2059 L1037.78 32.9987 L1025.5 32.9987 L1025.5 72.576 L1018.01 72.576 L1018.01 32.9987 L1010.88 32.9987 L1010.88 27.2059 L1018.01 27.2059 L1018.01 24.0462 Q1018.01 16.471 1021.53 13.0277 Q1025.06 9.54393 1032.71 9.54393 L1039.76 9.54393 Z" fill="#000000" fill-rule="nonzero" fill-opacity="1" /><path clip-path="url(#clip920)" d="M1046 27.2059 L1053.45 27.2059 L1053.45 72.576 L1046 72.576 L1046 27.2059 M1046 9.54393 L1053.45 9.54393 L1053.45 18.9825 L1046 18.9825 L1046 9.54393 Z" fill="#000000" fill-rule="nonzero" fill-opacity="1" /><path clip-path="url(#clip920)" d="M1101.7 28.9478 L1101.7 35.9153 Q1098.54 34.1734 1095.34 33.3227 Q1092.18 32.4315 1088.94 32.4315 Q1081.69 32.4315 1077.68 37.0496 Q1073.67 41.6271 1073.67 49.9314 Q1073.67 58.2358 1077.68 62.8538 Q1081.69 67.4314 1088.94 67.4314 Q1092.18 67.4314 1095.34 66.5807 Q1098.54 65.6895 1101.7 63.9476 L1101.7 70.8341 Q1098.58 72.2924 1095.22 73.0216 Q1091.9 73.7508 1088.13 73.7508 Q1077.88 73.7508 1071.85 67.3098 Q1065.81 60.8689 1065.81 49.9314 Q1065.81 38.832 1071.89 32.472 Q1078 26.1121 1088.62 26.1121 Q1092.06 26.1121 1095.34 26.8413 Q1098.62 27.5299 1101.7 28.9478 Z" fill="#000000" fill-rule="nonzero" fill-opacity="1" /><path clip-path="url(#clip920)" d="M1135.28 49.7694 Q1126.25 49.7694 1122.77 51.8354 Q1119.28 53.9013 1119.28 58.8839 Q1119.28 62.8538 1121.87 65.2034 Q1124.51 67.5124 1129 67.5124 Q1135.2 67.5124 1138.93 63.1374 Q1142.7 58.7219 1142.7 51.4303 L1142.7 49.7694 L1135.28 49.7694 M1150.15 46.6907 L1150.15 72.576 L1142.7 72.576 L1142.7 65.6895 Q1140.14 69.8214 1136.34 71.8063 Q1132.53 73.7508 1127.02 73.7508 Q1120.05 73.7508 1115.92 69.8619 Q1111.83 65.9325 1111.83 59.3701 Q1111.83 51.7138 1116.93 47.825 Q1122.08 43.9361 1132.25 43.9361 L1142.7 43.9361 L1142.7 43.2069 Q1142.7 38.0623 1139.29 35.2672 Q1135.93 32.4315 1129.81 32.4315 Q1125.93 32.4315 1122.24 33.3632 Q1118.55 34.295 1115.15 36.1584 L1115.15 29.2718 Q1119.24 27.692 1123.09 26.9223 Q1126.94 26.1121 1130.58 26.1121 Q1140.43 26.1121 1145.29 31.2163 Q1150.15 36.3204 1150.15 46.6907 Z" fill="#000000" fill-rule="nonzero" fill-opacity="1" /><path clip-path="url(#clip920)" d="M1172.88 14.324 L1172.88 27.2059 L1188.23 27.2059 L1188.23 32.9987 L1172.88 32.9987 L1172.88 57.6282 Q1172.88 63.1779 1174.37 64.7578 Q1175.91 66.3376 1180.57 66.3376 L1188.23 66.3376 L1188.23 72.576 L1180.57 72.576 Q1171.94 72.576 1168.66 69.3758 Q1165.38 66.1351 1165.38 57.6282 L1165.38 32.9987 L1159.91 32.9987 L1159.91 27.2059 L1165.38 27.2059 L1165.38 14.324 L1172.88 14.324 Z" fill="#000000" fill-rule="nonzero" fill-opacity="1" /><path clip-path="url(#clip920)" d="M1198.03 27.2059 L1205.49 27.2059 L1205.49 72.576 L1198.03 72.576 L1198.03 27.2059 M1198.03 9.54393 L1205.49 9.54393 L1205.49 18.9825 L1198.03 18.9825 L1198.03 9.54393 Z" fill="#000000" fill-rule="nonzero" fill-opacity="1" /><path clip-path="url(#clip920)" d="M1238.66 32.4315 Q1232.67 32.4315 1229.18 37.1306 Q1225.7 41.7891 1225.7 49.9314 Q1225.7 58.0738 1229.14 62.7728 Q1232.63 67.4314 1238.66 67.4314 Q1244.62 67.4314 1248.1 62.7323 Q1251.58 58.0333 1251.58 49.9314 Q1251.58 41.8701 1248.1 37.1711 Q1244.62 32.4315 1238.66 32.4315 M1238.66 26.1121 Q1248.38 26.1121 1253.93 32.4315 Q1259.48 38.7509 1259.48 49.9314 Q1259.48 61.0714 1253.93 67.4314 Q1248.38 73.7508 1238.66 73.7508 Q1228.9 73.7508 1223.35 67.4314 Q1217.84 61.0714 1217.84 49.9314 Q1217.84 38.7509 1223.35 32.4315 Q1228.9 26.1121 1238.66 26.1121 Z" fill="#000000" fill-rule="nonzero" fill-opacity="1" /><path clip-path="url(#clip920)" d="M1309.55 45.1919 L1309.55 72.576 L1302.1 72.576 L1302.1 45.4349 Q1302.1 38.994 1299.59 35.7938 Q1297.08 32.5936 1292.05 32.5936 Q1286.02 32.5936 1282.53 36.4419 Q1279.05 40.2903 1279.05 46.9338 L1279.05 72.576 L1271.56 72.576 L1271.56 27.2059 L1279.05 27.2059 L1279.05 34.2544 Q1281.72 30.163 1285.33 28.1376 Q1288.97 26.1121 1293.71 26.1121 Q1301.53 26.1121 1305.54 30.9732 Q1309.55 35.7938 1309.55 45.1919 Z" fill="#000000" fill-rule="nonzero" fill-opacity="1" /><path clip-path="url(#clip920)" d="M1379.71 28.5427 L1379.71 35.5912 Q1376.56 33.9709 1373.15 33.1607 Q1369.75 32.3505 1366.1 32.3505 Q1360.55 32.3505 1357.76 34.0519 Q1355 35.7533 1355 39.156 Q1355 41.7486 1356.99 43.2475 Q1358.97 44.7058 1364.97 46.0426 L1367.52 46.6097 Q1375.46 48.3111 1378.78 51.4303 Q1382.15 54.509 1382.15 60.0587 Q1382.15 66.3781 1377.12 70.0644 Q1372.14 73.7508 1363.39 73.7508 Q1359.74 73.7508 1355.77 73.0216 Q1351.84 72.3329 1347.47 70.9151 L1347.47 63.2184 Q1351.6 65.3654 1355.61 66.4591 Q1359.62 67.5124 1363.55 67.5124 Q1368.82 67.5124 1371.65 65.73 Q1374.49 63.9071 1374.49 60.6258 Q1374.49 57.5877 1372.42 55.9673 Q1370.4 54.3469 1363.47 52.8481 L1360.88 52.2405 Q1353.95 50.7821 1350.87 47.7845 Q1347.79 44.7463 1347.79 39.4801 Q1347.79 33.0797 1352.33 29.5959 Q1356.87 26.1121 1365.21 26.1121 Q1369.34 26.1121 1372.99 26.7198 Q1376.64 27.3274 1379.71 28.5427 Z" fill="#000000" fill-rule="nonzero" fill-opacity="1" /><path clip-path="url(#clip920)" d="M1394.01 27.2059 L1401.47 27.2059 L1401.47 72.576 L1394.01 72.576 L1394.01 27.2059 M1394.01 9.54393 L1401.47 9.54393 L1401.47 18.9825 L1394.01 18.9825 L1394.01 9.54393 Z" fill="#000000" fill-rule="nonzero" fill-opacity="1" /><path clip-path="url(#clip920)" d="M1446.92 49.3643 Q1446.92 41.2625 1443.56 36.8065 Q1440.24 32.3505 1434.2 32.3505 Q1428.2 32.3505 1424.84 36.8065 Q1421.52 41.2625 1421.52 49.3643 Q1421.52 57.4256 1424.84 61.8816 Q1428.2 66.3376 1434.2 66.3376 Q1440.24 66.3376 1443.56 61.8816 Q1446.92 57.4256 1446.92 49.3643 M1454.37 66.9452 Q1454.37 78.5308 1449.23 84.1616 Q1444.08 89.8329 1433.47 89.8329 Q1429.54 89.8329 1426.06 89.2252 Q1422.57 88.6581 1419.29 87.4428 L1419.29 80.1917 Q1422.57 81.9741 1425.77 82.8248 Q1428.97 83.6755 1432.3 83.6755 Q1439.63 83.6755 1443.27 79.8271 Q1446.92 76.0193 1446.92 68.282 L1446.92 64.5957 Q1444.61 68.6061 1441 70.5911 Q1437.4 72.576 1432.38 72.576 Q1424.03 72.576 1418.93 66.2161 Q1413.82 59.8562 1413.82 49.3643 Q1413.82 38.832 1418.93 32.472 Q1424.03 26.1121 1432.38 26.1121 Q1437.4 26.1121 1441 28.0971 Q1444.61 30.082 1446.92 34.0924 L1446.92 27.2059 L1454.37 27.2059 L1454.37 66.9452 Z" fill="#000000" fill-rule="nonzero" fill-opacity="1" /><path clip-path="url(#clip920)" d="M1505.05 35.9153 Q1507.84 30.8922 1511.73 28.5022 Q1515.62 26.1121 1520.89 26.1121 Q1527.98 26.1121 1531.83 31.0947 Q1535.67 36.0368 1535.67 45.1919 L1535.67 72.576 L1528.18 72.576 L1528.18 45.4349 Q1528.18 38.913 1525.87 35.7533 Q1523.56 32.5936 1518.82 32.5936 Q1513.03 32.5936 1509.67 36.4419 Q1506.31 40.2903 1506.31 46.9338 L1506.31 72.576 L1498.81 72.576 L1498.81 45.4349 Q1498.81 38.8725 1496.5 35.7533 Q1494.19 32.5936 1489.37 32.5936 Q1483.66 32.5936 1480.3 36.4824 Q1476.94 40.3308 1476.94 46.9338 L1476.94 72.576 L1469.44 72.576 L1469.44 27.2059 L1476.94 27.2059 L1476.94 34.2544 Q1479.49 30.082 1483.05 28.0971 Q1486.62 26.1121 1491.52 26.1121 Q1496.46 26.1121 1499.91 28.6237 Q1503.39 31.1352 1505.05 35.9153 Z" fill="#000000" fill-rule="nonzero" fill-opacity="1" /><path clip-path="url(#clip920)" d="M1571.16 49.7694 Q1562.13 49.7694 1558.64 51.8354 Q1555.16 53.9013 1555.16 58.8839 Q1555.16 62.8538 1557.75 65.2034 Q1560.39 67.5124 1564.88 67.5124 Q1571.08 67.5124 1574.81 63.1374 Q1578.57 58.7219 1578.57 51.4303 L1578.57 49.7694 L1571.16 49.7694 M1586.03 46.6907 L1586.03 72.576 L1578.57 72.576 L1578.57 65.6895 Q1576.02 69.8214 1572.21 71.8063 Q1568.41 73.7508 1562.9 73.7508 Q1555.93 73.7508 1551.8 69.8619 Q1547.71 65.9325 1547.71 59.3701 Q1547.71 51.7138 1552.81 47.825 Q1557.95 43.9361 1568.12 43.9361 L1578.57 43.9361 L1578.57 43.2069 Q1578.57 38.0623 1575.17 35.2672 Q1571.81 32.4315 1565.69 32.4315 Q1561.8 32.4315 1558.12 33.3632 Q1554.43 34.295 1551.03 36.1584 L1551.03 29.2718 Q1555.12 27.692 1558.97 26.9223 Q1562.82 26.1121 1566.46 26.1121 Q1576.31 26.1121 1581.17 31.2163 Q1586.03 36.3204 1586.03 46.6907 Z" fill="#000000" fill-rule="nonzero" fill-opacity="1" /><path clip-path="url(#clip920)" d="M1634.96 65.7705 L1634.96 89.8329 L1627.47 89.8329 L1627.47 27.2059 L1634.96 27.2059 L1634.96 34.0924 Q1637.31 30.0415 1640.88 28.0971 Q1644.48 26.1121 1649.46 26.1121 Q1657.73 26.1121 1662.87 32.6746 Q1668.06 39.2371 1668.06 49.9314 Q1668.06 60.6258 1662.87 67.1883 Q1657.73 73.7508 1649.46 73.7508 Q1644.48 73.7508 1640.88 71.8063 Q1637.31 69.8214 1634.96 65.7705 M1660.32 49.9314 Q1660.32 41.7081 1656.92 37.0496 Q1653.56 32.3505 1647.64 32.3505 Q1641.73 32.3505 1638.32 37.0496 Q1634.96 41.7081 1634.96 49.9314 Q1634.96 58.1548 1638.32 62.8538 Q1641.73 67.5124 1647.64 67.5124 Q1653.56 67.5124 1656.92 62.8538 Q1660.32 58.1548 1660.32 49.9314 Z" fill="#000000" fill-rule="nonzero" fill-opacity="1" /><path clip-path="url(#clip920)" d="M1680.41 9.54393 L1687.87 9.54393 L1687.87 72.576 L1680.41 72.576 L1680.41 9.54393 Z" fill="#000000" fill-rule="nonzero" fill-opacity="1" /><path clip-path="url(#clip920)" d="M1721.04 32.4315 Q1715.05 32.4315 1711.56 37.1306 Q1708.08 41.7891 1708.08 49.9314 Q1708.08 58.0738 1711.52 62.7728 Q1715.01 67.4314 1721.04 67.4314 Q1727 67.4314 1730.48 62.7323 Q1733.97 58.0333 1733.97 49.9314 Q1733.97 41.8701 1730.48 37.1711 Q1727 32.4315 1721.04 32.4315 M1721.04 26.1121 Q1730.77 26.1121 1736.32 32.4315 Q1741.87 38.7509 1741.87 49.9314 Q1741.87 61.0714 1736.32 67.4314 Q1730.77 73.7508 1721.04 73.7508 Q1711.28 73.7508 1705.73 67.4314 Q1700.22 61.0714 1700.22 49.9314 Q1700.22 38.7509 1705.73 32.4315 Q1711.28 26.1121 1721.04 26.1121 Z" fill="#000000" fill-rule="nonzero" fill-opacity="1" /><path clip-path="url(#clip920)" d="M1761.59 14.324 L1761.59 27.2059 L1776.95 27.2059 L1776.95 32.9987 L1761.59 32.9987 L1761.59 57.6282 Q1761.59 63.1779 1763.09 64.7578 Q1764.63 66.3376 1769.29 66.3376 L1776.95 66.3376 L1776.95 72.576 L1769.29 72.576 Q1760.66 72.576 1757.38 69.3758 Q1754.1 66.1351 1754.1 57.6282 L1754.1 32.9987 L1748.63 32.9987 L1748.63 27.2059 L1754.1 27.2059 L1754.1 14.324 L1761.59 14.324 Z" fill="#000000" fill-rule="nonzero" fill-opacity="1" /><polyline clip-path="url(#clip922)" style="stroke:#0000ff; stroke-linecap:round; stroke-linejoin:round; stroke-width:4; stroke-opacity:1; fill:none" points="274.149,578.019 284.24,574.214 294.33,570.403 304.42,566.586 314.511,562.763 324.601,558.937 334.691,555.107 344.782,551.274 354.872,547.438 364.962,543.601 375.053,539.761 385.143,535.921 395.233,532.079 405.324,528.236 415.414,524.393 425.504,520.549 435.595,516.704 445.685,512.859 455.775,509.013 465.866,505.167 475.956,501.321 486.046,497.474 496.137,493.628 506.227,489.781 516.317,485.934 526.407,482.087 536.498,478.24 546.588,474.393 556.678,470.546 566.769,466.698 576.859,462.851 586.949,459.004 597.04,455.156 607.13,451.309 617.22,447.462 627.311,443.614 637.401,439.767 647.491,435.919 657.582,432.072 667.672,428.224 677.762,424.377 687.853,420.529 697.943,416.682 708.033,412.834 718.124,408.987 728.214,405.139 738.304,401.292 748.395,397.444 758.485,393.597 768.575,389.749 778.666,385.902 788.756,382.054 798.846,378.207 808.937,374.36 819.027,370.512 829.117,366.665 839.207,362.818 849.298,358.97 859.388,355.123 869.478,351.276 879.569,347.429 889.659,343.582 899.749,339.735 909.84,335.888 919.93,332.042 930.02,328.195 940.111,324.349 950.201,320.504 960.291,316.658 970.382,312.814 980.472,308.97 990.562,305.127 1000.65,301.285 1010.74,297.444 1020.83,293.606 1030.92,289.77 1041.01,285.938 1051.1,282.11 1061.19,278.289 1071.28,274.477 1081.38,270.677 1091.47,266.893 1101.56,263.132 1111.65,259.403 1121.74,255.716 1131.83,252.088 1141.92,248.54 1152.01,245.101 1162.1,241.805 1172.19,238.697 1182.28,235.829 1192.37,233.26 1202.46,231.048 1212.55,229.245 1222.64,227.888 1232.73,226.987 1242.82,226.527 1252.91,226.464 1263,226.735 1273.09,227.266 1283.18,227.981 1293.27,228.809 1303.36,229.692 1313.45,230.583 1323.54,231.446 1333.63,232.257 1343.72,233.001 1353.81,233.671 1363.9,234.263 1373.99,234.778 1384.08,235.221 1394.18,235.597 1404.27,235.912 1414.36,236.172 1424.45,236.385 1434.54,236.557 1444.63,236.695 1454.72,236.803 1464.81,236.888 1474.9,236.953 1484.99,237.002 1495.08,237.04 1505.17,237.068 1515.26,237.088 1525.35,237.103 1535.44,237.114 1545.53,237.122 1555.62,237.128 1565.71,237.132 1575.8,237.135 1585.89,237.137 1595.98,237.138 1606.07,237.139 1616.16,237.14 1626.25,237.14 1636.34,237.141 1646.43,237.141 1656.52,237.141 1666.61,237.141 1676.7,237.141 1686.79,237.141 1696.88,237.141 1706.98,237.141 1717.07,237.141 1727.16,237.141 1737.25,237.141 1747.34,237.141 1757.43,237.141 1767.52,237.141 1777.61,237.141 1787.7,237.141 1797.79,237.141 1807.88,237.141 1817.97,237.141 1828.06,237.141 1838.15,237.141 1848.24,237.141 1858.33,237.141 1868.42,237.141 1878.51,237.141 1888.6,237.141 1898.69,237.141 1908.78,237.141 1918.87,237.141 1928.96,237.141 1939.05,237.141 1949.14,237.141 1959.23,237.141 1969.32,237.141 1979.41,237.141 1989.5,237.141 1999.59,237.141 2009.68,237.141 2019.78,237.141 2029.87,237.141 2039.96,237.141 2050.05,237.141 2060.14,237.141 2070.23,237.141 2080.32,237.141 2090.41,237.141 2100.5,237.141 2110.59,237.141 2120.68,237.141 2130.77,237.141 2140.86,237.141 2150.95,237.141 2161.04,237.141 2171.13,237.141 2181.22,237.141 2191.31,237.141 2201.4,237.141 2211.49,237.141 2221.58,237.141 2231.67,237.141 2241.76,237.141 2251.85,237.141 2261.94,237.141 2272.03,237.141 2282.12,237.141 2292.21,237.141 "/>
<polyline clip-path="url(#clip922)" style="stroke:#ff0000; stroke-linecap:round; stroke-linejoin:round; stroke-width:4; stroke-opacity:1; fill:none" points="274.149,714.993 284.24,711.18 294.33,707.361 304.42,703.537 314.511,699.709 324.601,695.878 334.691,692.043 344.782,688.206 354.872,684.368 364.962,680.527 375.053,676.684 385.143,672.841 395.233,668.995 405.324,665.149 415.414,661.302 425.504,657.453 435.595,653.603 445.685,649.752 455.775,645.899 465.866,642.045 475.956,638.188 486.046,634.33 496.137,630.469 506.227,626.606 516.317,622.738 526.407,618.867 536.498,614.991 546.588,611.109 556.678,607.219 566.769,603.322 576.859,599.414 586.949,595.494 597.04,591.56 607.13,587.609 617.22,583.638 627.311,579.642 637.401,575.618 647.491,571.561 657.582,567.463 667.672,563.319 677.762,559.12 687.853,554.858 697.943,550.522 708.033,546.103 718.124,541.588 728.214,536.966 738.304,532.223 748.395,527.347 758.485,522.327 768.575,517.152 778.666,511.813 788.756,506.303 798.846,500.617 808.937,494.754 819.027,488.716 829.117,482.508 839.207,476.135 849.298,469.608 859.388,462.937 869.478,456.135 879.569,449.213 889.659,442.185 899.749,435.062 909.84,427.856 919.93,420.579 930.02,413.239 940.111,405.847 950.201,398.41 960.291,390.936 970.382,383.43 980.472,375.9 990.562,368.349 1000.65,360.782 1010.74,353.204 1020.83,345.619 1030.92,338.03 1041.01,330.442 1051.1,322.859 1061.19,315.285 1071.28,307.726 1081.38,300.189 1091.47,292.681 1101.56,285.213 1111.65,277.797 1121.74,270.451 1131.83,263.196 1141.92,256.059 1152.01,249.075 1162.1,242.29 1172.19,235.757 1182.28,229.538 1192.37,223.703 1202.46,218.324 1212.55,213.466 1222.64,209.18 1232.73,205.491 1242.82,202.4 1252.91,199.875 1263,197.869 1273.09,196.317 1283.18,195.154 1293.27,194.32 1303.36,193.759 1313.45,193.431 1323.54,193.301 1333.63,193.346 1343.72,193.553 1353.81,193.911 1363.9,194.42 1373.99,195.078 1384.08,195.891 1394.18,196.865 1404.27,198.004 1414.36,199.317 1424.45,200.809 1434.54,202.482 1444.63,204.34 1454.72,206.381 1464.81,208.601 1474.9,210.994 1484.99,213.552 1495.08,216.264 1505.17,219.119 1515.26,222.105 1525.35,225.208 1535.44,228.416 1545.53,231.716 1555.62,235.098 1565.71,238.55 1575.8,242.062 1585.89,245.627 1595.98,249.237 1606.07,252.885 1616.16,256.565 1626.25,260.272 1636.34,264.002 1646.43,267.751 1656.52,271.516 1666.61,275.295 1676.7,279.086 1686.79,282.886 1696.88,286.693 1706.98,290.508 1717.07,294.328 1727.16,298.152 1737.25,301.981 1747.34,305.812 1757.43,309.647 1767.52,313.483 1777.61,317.321 1787.7,321.161 1797.79,325.003 1807.88,328.845 1817.97,332.688 1828.06,336.532 1838.15,340.376 1848.24,344.221 1858.33,348.067 1868.42,351.912 1878.51,355.759 1888.6,359.605 1898.69,363.451 1908.78,367.298 1918.87,371.145 1928.96,374.992 1939.05,378.839 1949.14,382.686 1959.23,386.533 1969.32,390.38 1979.41,394.228 1989.5,398.075 1999.59,401.922 2009.68,405.77 2019.78,409.617 2029.87,413.465 2039.96,417.312 2050.05,421.16 2060.14,425.007 2070.23,428.855 2080.32,432.702 2090.41,436.55 2100.5,440.397 2110.59,444.245 2120.68,448.092 2130.77,451.94 2140.86,455.787 2150.95,459.635 2161.04,463.482 2171.13,467.33 2181.22,471.177 2191.31,475.025 2201.4,478.872 2211.49,482.72 2221.58,486.567 2231.67,490.415 2241.76,494.262 2251.85,498.11 2261.94,501.957 2272.03,505.805 2282.12,509.653 2292.21,513.5 "/>
<polyline clip-path="url(#clip922)" style="stroke:#008000; stroke-linecap:round; stroke-linejoin:round; stroke-width:4; stroke-opacity:1; fill:none" points="274.149,237.143 284.24,237.143 294.33,237.143 304.42,237.143 314.511,237.143 324.601,237.143 334.691,237.143 344.782,237.143 354.872,237.143 364.962,237.143 375.053,237.143 385.143,237.143 395.233,237.143 405.324,237.143 415.414,237.143 425.504,237.143 435.595,237.143 445.685,237.143 455.775,237.143 465.866,237.143 475.956,237.143 486.046,237.143 496.137,237.143 506.227,237.143 516.317,237.143 526.407,237.143 536.498,237.143 546.588,237.143 556.678,237.143 566.769,237.143 576.859,237.143 586.949,237.143 597.04,237.143 607.13,237.143 617.22,237.143 627.311,237.143 637.401,237.143 647.491,237.143 657.582,237.143 667.672,237.143 677.762,237.143 687.853,237.143 697.943,237.143 708.033,237.143 718.124,237.144 728.214,237.144 738.304,237.144 748.395,237.144 758.485,237.144 768.575,237.145 778.666,237.145 788.756,237.146 798.846,237.146 808.937,237.147 819.027,237.148 829.117,237.149 839.207,237.15 849.298,237.152 859.388,237.154 869.478,237.156 879.569,237.159 889.659,237.162 899.749,237.166 909.84,237.17 919.93,237.176 930.02,237.183 940.111,237.191 950.201,237.201 960.291,237.212 970.382,237.227 980.472,237.244 990.562,237.265 1000.65,237.291 1010.74,237.322 1020.83,237.36 1030.92,237.407 1041.01,237.464 1051.1,237.534 1061.19,237.62 1071.28,237.728 1081.38,237.861 1091.47,238.028 1101.56,238.239 1111.65,238.504 1121.74,238.841 1131.83,239.271 1141.92,239.821 1152.01,240.527 1162.1,241.431 1172.19,242.588 1182.28,244.06 1192.37,245.917 1202.46,248.231 1212.55,251.066 1222.64,254.473 1232.73,258.478 1242.82,263.08 1252.91,268.249 1263,273.937 1273.09,280.079 1283.18,286.611 1293.27,293.471 1303.36,300.606 1313.45,307.971 1323.54,315.536 1333.63,323.277 1343.72,331.178 1353.81,339.232 1363.9,347.435 1373.99,355.788 1384.08,364.297 1394.18,372.965 1404.27,381.8 1414.36,390.807 1424.45,399.994 1434.54,409.363 1444.63,418.915 1454.72,428.651 1464.81,438.566 1474.9,448.654 1484.99,458.907 1495.08,469.314 1505.17,479.865 1515.26,490.545 1525.35,501.343 1535.44,512.246 1545.53,523.242 1555.62,534.318 1565.71,545.465 1575.8,556.673 1585.89,567.933 1595.98,579.238 1606.07,590.581 1616.16,601.956 1626.25,613.358 1636.34,624.783 1646.43,636.227 1656.52,647.688 1666.61,659.162 1676.7,670.647 1686.79,682.142 1696.88,693.645 1706.98,705.154 1717.07,716.669 1727.16,728.189 1737.25,739.712 1747.34,751.239 1757.43,762.768 1767.52,774.3 1777.61,785.833 1787.7,797.368 1797.79,808.905 1807.88,820.442 1817.97,831.98 1828.06,843.519 1838.15,855.059 1848.24,866.599 1858.33,878.139 1868.42,889.68 1878.51,901.221 1888.6,912.762 1898.69,924.304 1908.78,935.846 1918.87,947.388 1928.96,958.93 1939.05,970.472 1949.14,982.014 1959.23,993.556 1969.32,1005.1 1979.41,1016.64 1989.5,1028.18 1999.59,1039.73 2009.68,1051.27 2019.78,1062.81 2029.87,1074.35 2039.96,1085.9 2050.05,1097.44 2060.14,1108.98 2070.23,1120.52 2080.32,1132.07 2090.41,1143.61 2100.5,1155.15 2110.59,1166.69 2120.68,1178.24 2130.77,1189.78 2140.86,1201.32 2150.95,1212.86 2161.04,1224.41 2171.13,1235.95 2181.22,1247.49 2191.31,1259.03 2201.4,1270.58 2211.49,1282.12 2221.58,1293.66 2231.67,1305.2 2241.76,1316.75 2251.85,1328.29 2261.94,1339.83 2272.03,1351.37 2282.12,1362.92 2292.21,1374.46 "/>
<polyline clip-path="url(#clip922)" style="stroke:#0000ff; stroke-linecap:round; stroke-linejoin:round; stroke-width:8; stroke-opacity:1; fill:none" stroke-dasharray="32, 20" points="274.149,578.019 284.24,574.214 294.33,570.403 304.42,566.586 314.511,562.763 324.601,558.937 334.691,555.107 344.782,551.274 354.872,547.438 364.962,543.601 375.053,539.761 385.143,535.921 395.233,532.079 405.324,528.236 415.414,524.393 425.504,520.549 435.595,516.704 445.685,512.859 455.775,509.013 465.866,505.167 475.956,501.321 486.046,497.474 496.137,493.628 506.227,489.781 516.317,485.934 526.407,482.087 536.498,478.24 546.588,474.393 556.678,470.546 566.769,466.698 576.859,462.851 586.949,459.004 597.04,455.156 607.13,451.309 617.22,447.462 627.311,443.614 637.401,439.767 647.491,435.919 657.582,432.072 667.672,428.224 677.762,424.377 687.853,420.529 697.943,416.682 708.033,412.834 718.124,408.987 728.214,405.139 738.304,401.292 748.395,397.444 758.485,393.597 768.575,389.749 778.666,385.902 788.756,382.054 798.846,378.207 808.937,374.36 819.027,370.512 829.117,366.665 839.207,362.818 849.298,358.97 859.388,355.123 869.478,351.276 879.569,347.429 889.659,343.582 899.749,339.735 909.84,335.888 919.93,332.042 930.02,328.195 940.111,324.349 950.201,320.503 960.291,316.657 970.382,312.812 980.472,308.968 990.562,305.123 1000.65,301.28 1010.74,297.437 1020.83,293.596 1030.92,289.755 1041.01,285.916 1051.1,282.079 1061.19,278.243 1071.28,274.41 1081.38,270.58 1091.47,266.754 1101.56,262.932 1111.65,259.115 1121.74,255.304 1131.83,251.5 1141.92,247.705 1152.01,243.92 1162.1,240.148 1172.19,236.391 1182.28,232.652 1192.37,228.934 1202.46,225.241 1212.55,221.578 1222.64,217.95 1232.73,214.363 1242.82,210.825 1252.91,207.343 1263,203.927 1273.09,200.587 1283.18,197.333 1293.27,194.178 1303.36,191.134 1313.45,188.213 1323.54,185.428 1333.63,182.789 1343.72,180.309 1353.81,177.994 1363.9,175.853 1373.99,173.887 1384.08,172.098 1394.18,170.484 1404.27,169.039 1414.36,167.756 1424.45,166.625 1434.54,165.636 1444.63,164.776 1454.72,164.032 1464.81,163.393 1474.9,162.846 1484.99,162.38 1495.08,161.984 1505.17,161.649 1515.26,161.366 1525.35,161.128 1535.44,160.928 1545.53,160.76 1555.62,160.619 1565.71,160.501 1575.8,160.403 1585.89,160.32 1595.98,160.252 1606.07,160.194 1616.16,160.147 1626.25,160.107 1636.34,160.074 1646.43,160.046 1656.52,160.023 1666.61,160.004 1676.7,159.988 1686.79,159.974 1696.88,159.963 1706.98,159.954 1717.07,159.947 1727.16,159.94 1737.25,159.935 1747.34,159.93 1757.43,159.927 1767.52,159.924 1777.61,159.921 1787.7,159.919 1797.79,159.917 1807.88,159.916 1817.97,159.915 1828.06,159.914 1838.15,159.913 1848.24,159.912 1858.33,159.912 1868.42,159.911 1878.51,159.911 1888.6,159.91 1898.69,159.91 1908.78,159.91 1918.87,159.91 1928.96,159.909 1939.05,159.909 1949.14,159.909 1959.23,159.909 1969.32,159.909 1979.41,159.909 1989.5,159.909 1999.59,159.909 2009.68,159.909 2019.78,159.909 2029.87,159.909 2039.96,159.909 2050.05,159.909 2060.14,159.909 2070.23,159.909 2080.32,159.909 2090.41,159.909 2100.5,159.909 2110.59,159.909 2120.68,159.909 2130.77,159.909 2140.86,159.909 2150.95,159.909 2161.04,159.909 2171.13,159.909 2181.22,159.909 2191.31,159.909 2201.4,159.909 2211.49,159.909 2221.58,159.909 2231.67,159.909 2241.76,159.909 2251.85,159.909 2261.94,159.909 2272.03,159.909 2282.12,159.909 2292.21,159.909 "/>
<polyline clip-path="url(#clip922)" style="stroke:#ff0000; stroke-linecap:round; stroke-linejoin:round; stroke-width:8; stroke-opacity:1; fill:none" stroke-dasharray="32, 20" points="274.149,188.864 284.24,188.864 294.33,188.864 304.42,188.864 314.511,188.864 324.601,188.864 334.691,188.864 344.782,188.864 354.872,188.864 364.962,188.864 375.053,188.864 385.143,188.864 395.233,188.864 405.324,188.864 415.414,188.864 425.504,188.864 435.595,188.864 445.685,188.864 455.775,188.864 465.866,188.864 475.956,188.864 486.046,188.864 496.137,188.864 506.227,188.864 516.317,188.864 526.407,188.864 536.498,188.864 546.588,188.864 556.678,188.864 566.769,188.864 576.859,188.864 586.949,188.864 597.04,188.864 607.13,188.864 617.22,188.864 627.311,188.864 637.401,188.864 647.491,188.864 657.582,188.864 667.672,188.864 677.762,188.864 687.853,188.864 697.943,188.864 708.033,188.864 718.124,188.864 728.214,188.864 738.304,188.864 748.395,188.864 758.485,188.864 768.575,188.864 778.666,188.864 788.756,188.864 798.846,188.864 808.937,188.864 819.027,188.864 829.117,188.864 839.207,188.864 849.298,188.864 859.388,188.864 869.478,188.864 879.569,188.864 889.659,188.864 899.749,188.864 909.84,188.864 919.93,188.864 930.02,188.864 940.111,188.864 950.201,188.864 960.291,188.864 970.382,188.864 980.472,188.864 990.562,188.864 1000.65,188.864 1010.74,188.864 1020.83,188.864 1030.92,188.864 1041.01,188.864 1051.1,188.864 1061.19,188.864 1071.28,188.864 1081.38,188.864 1091.47,188.864 1101.56,188.864 1111.65,188.864 1121.74,188.864 1131.83,188.864 1141.92,188.864 1152.01,188.864 1162.1,188.864 1172.19,188.864 1182.28,188.864 1192.37,188.864 1202.46,188.864 1212.55,188.864 1222.64,188.864 1232.73,188.864 1242.82,188.864 1252.91,188.864 1263,188.864 1273.09,188.864 1283.18,188.864 1293.27,188.864 1303.36,188.864 1313.45,188.864 1323.54,188.864 1333.63,188.864 1343.72,188.864 1353.81,188.864 1363.9,188.864 1373.99,188.864 1384.08,188.864 1394.18,188.864 1404.27,188.864 1414.36,188.864 1424.45,188.864 1434.54,188.864 1444.63,188.864 1454.72,188.864 1464.81,188.864 1474.9,188.864 1484.99,188.864 1495.08,188.864 1505.17,188.864 1515.26,188.864 1525.35,188.864 1535.44,188.864 1545.53,188.864 1555.62,188.864 1565.71,188.864 1575.8,188.864 1585.89,188.864 1595.98,188.864 1606.07,188.864 1616.16,188.864 1626.25,188.864 1636.34,188.864 1646.43,188.864 1656.52,188.864 1666.61,188.864 1676.7,188.864 1686.79,188.864 1696.88,188.864 1706.98,188.864 1717.07,188.864 1727.16,188.864 1737.25,188.864 1747.34,188.864 1757.43,188.864 1767.52,188.864 1777.61,188.864 1787.7,188.864 1797.79,188.864 1807.88,188.864 1817.97,188.864 1828.06,188.864 1838.15,188.864 1848.24,188.864 1858.33,188.864 1868.42,188.864 1878.51,188.864 1888.6,188.864 1898.69,188.864 1908.78,188.864 1918.87,188.864 1928.96,188.864 1939.05,188.864 1949.14,188.864 1959.23,188.864 1969.32,188.864 1979.41,188.864 1989.5,188.864 1999.59,188.864 2009.68,188.864 2019.78,188.864 2029.87,188.864 2039.96,188.864 2050.05,188.864 2060.14,188.864 2070.23,188.864 2080.32,188.864 2090.41,188.864 2100.5,188.864 2110.59,188.864 2120.68,188.864 2130.77,188.864 2140.86,188.864 2150.95,188.864 2161.04,188.864 2171.13,188.864 2181.22,188.864 2191.31,188.864 2201.4,188.864 2211.49,188.864 2221.58,188.864 2231.67,188.864 2241.76,188.864 2251.85,188.864 2261.94,188.864 2272.03,188.864 2282.12,188.864 2292.21,188.864 "/>
<path clip-path="url(#clip920)" d="M1852.1 477.426 L2281.45 477.426 L2281.45 166.386 L1852.1 166.386  Z" fill="#ffffff" fill-rule="evenodd" fill-opacity="1"/>
<polyline clip-path="url(#clip920)" style="stroke:#000000; stroke-linecap:round; stroke-linejoin:round; stroke-width:4; stroke-opacity:1; fill:none" points="1852.1,477.426 2281.45,477.426 2281.45,166.386 1852.1,166.386 1852.1,477.426 "/>
<polyline clip-path="url(#clip920)" style="stroke:#0000ff; stroke-linecap:round; stroke-linejoin:round; stroke-width:4; stroke-opacity:1; fill:none" points="1875.87,218.226 2018.48,218.226 "/>
<path clip-path="url(#clip920)" d="M2054.14 212.96 Q2050.62 212.96 2048.73 215.506 Q2046.73 218.168 2046.73 222.567 Q2046.73 227.219 2048.7 229.904 Q2050.69 232.566 2054.14 232.566 Q2057.54 232.566 2059.54 229.881 Q2061.53 227.196 2061.53 222.567 Q2061.53 218.33 2059.54 215.506 Q2057.71 212.96 2054.14 212.96 M2054.14 209.58 L2068.29 209.58 L2068.29 213.84 L2063.52 213.84 Q2066.04 217.451 2066.04 222.567 Q2066.04 228.932 2062.87 232.543 Q2059.7 236.178 2054.14 236.178 Q2048.56 236.178 2045.42 232.543 Q2042.24 228.932 2042.24 222.567 Q2042.24 216.155 2045.42 212.567 Q2048.03 209.58 2054.14 209.58 Z" fill="#000000" fill-rule="nonzero" fill-opacity="1" /><path clip-path="url(#clip920)" d="M2084.37 199.534 Q2081.27 204.858 2079.77 210.067 Q2078.26 215.275 2078.26 220.622 Q2078.26 225.969 2079.77 231.224 Q2081.29 236.455 2084.37 241.756 L2080.67 241.756 Q2077.2 236.316 2075.46 231.062 Q2073.75 225.807 2073.75 220.622 Q2073.75 215.46 2075.46 210.229 Q2077.17 204.997 2080.67 199.534 L2084.37 199.534 Z" fill="#000000" fill-rule="nonzero" fill-opacity="1" /><path clip-path="url(#clip920)" d="M2113.54 202.081 L2113.54 206.641 Q2110.88 205.368 2108.52 204.743 Q2106.16 204.118 2103.96 204.118 Q2100.14 204.118 2098.05 205.599 Q2095.99 207.081 2095.99 209.812 Q2095.99 212.104 2097.36 213.284 Q2098.75 214.442 2102.59 215.159 L2105.41 215.738 Q2110.65 216.733 2113.12 219.256 Q2115.62 221.756 2115.62 225.969 Q2115.62 230.992 2112.24 233.585 Q2108.89 236.178 2102.38 236.178 Q2099.93 236.178 2097.15 235.622 Q2094.4 235.066 2091.43 233.979 L2091.43 229.164 Q2094.28 230.761 2097.01 231.571 Q2099.74 232.381 2102.38 232.381 Q2106.39 232.381 2108.56 230.807 Q2110.74 229.233 2110.74 226.317 Q2110.74 223.77 2109.16 222.335 Q2107.61 220.9 2104.05 220.182 L2101.2 219.627 Q2095.97 218.585 2093.63 216.363 Q2091.29 214.141 2091.29 210.182 Q2091.29 205.599 2094.51 202.96 Q2097.75 200.321 2103.42 200.321 Q2105.85 200.321 2108.38 200.761 Q2110.9 201.201 2113.54 202.081 Z" fill="#000000" fill-rule="nonzero" fill-opacity="1" /><path clip-path="url(#clip920)" d="M2122.06 199.534 L2125.76 199.534 Q2129.23 204.997 2130.95 210.229 Q2132.68 215.46 2132.68 220.622 Q2132.68 225.807 2130.95 231.062 Q2129.23 236.316 2125.76 241.756 L2122.06 241.756 Q2125.14 236.455 2126.64 231.224 Q2128.17 225.969 2128.17 220.622 Q2128.17 215.275 2126.64 210.067 Q2125.14 204.858 2122.06 199.534 Z" fill="#000000" fill-rule="nonzero" fill-opacity="1" /><polyline clip-path="url(#clip920)" style="stroke:#ff0000; stroke-linecap:round; stroke-linejoin:round; stroke-width:4; stroke-opacity:1; fill:none" points="1875.87,270.066 2018.48,270.066 "/>
<path clip-path="url(#clip920)" d="M2054.14 264.8 Q2050.62 264.8 2048.73 267.346 Q2046.73 270.008 2046.73 274.407 Q2046.73 279.059 2048.7 281.744 Q2050.69 284.406 2054.14 284.406 Q2057.54 284.406 2059.54 281.721 Q2061.53 279.036 2061.53 274.407 Q2061.53 270.17 2059.54 267.346 Q2057.71 264.8 2054.14 264.8 M2054.14 261.42 L2068.29 261.42 L2068.29 265.68 L2063.52 265.68 Q2066.04 269.291 2066.04 274.407 Q2066.04 280.772 2062.87 284.383 Q2059.7 288.018 2054.14 288.018 Q2048.56 288.018 2045.42 284.383 Q2042.24 280.772 2042.24 274.407 Q2042.24 267.995 2045.42 264.407 Q2048.03 261.42 2054.14 261.42 Z" fill="#000000" fill-rule="nonzero" fill-opacity="1" /><path clip-path="url(#clip920)" d="M2084.37 251.374 Q2081.27 256.698 2079.77 261.907 Q2078.26 267.115 2078.26 272.462 Q2078.26 277.809 2079.77 283.064 Q2081.29 288.295 2084.37 293.596 L2080.67 293.596 Q2077.2 288.156 2075.46 282.902 Q2073.75 277.647 2073.75 272.462 Q2073.75 267.3 2075.46 262.069 Q2077.17 256.837 2080.67 251.374 L2084.37 251.374 Z" fill="#000000" fill-rule="nonzero" fill-opacity="1" /><path clip-path="url(#clip920)" d="M2118.7 255.448 L2118.7 260.379 Q2116.34 258.18 2113.66 257.092 Q2110.99 256.004 2107.98 256.004 Q2102.06 256.004 2098.91 259.638 Q2095.76 263.249 2095.76 270.101 Q2095.76 276.93 2098.91 280.564 Q2102.06 284.175 2107.98 284.175 Q2110.99 284.175 2113.66 283.087 Q2116.34 281.999 2118.7 279.8 L2118.7 284.684 Q2116.25 286.351 2113.49 287.184 Q2110.76 288.018 2107.71 288.018 Q2099.86 288.018 2095.35 283.226 Q2090.83 278.411 2090.83 270.101 Q2090.83 261.768 2095.35 256.976 Q2099.86 252.161 2107.71 252.161 Q2110.81 252.161 2113.54 252.995 Q2116.29 253.805 2118.7 255.448 Z" fill="#000000" fill-rule="nonzero" fill-opacity="1" /><path clip-path="url(#clip920)" d="M2146.64 253.921 L2146.64 258.481 Q2143.98 257.208 2141.62 256.583 Q2139.26 255.958 2137.06 255.958 Q2133.24 255.958 2131.16 257.439 Q2129.1 258.921 2129.1 261.652 Q2129.1 263.944 2130.46 265.124 Q2131.85 266.282 2135.69 266.999 L2138.52 267.578 Q2143.75 268.573 2146.22 271.096 Q2148.72 273.596 2148.72 277.809 Q2148.72 282.832 2145.35 285.425 Q2141.99 288.018 2135.48 288.018 Q2133.03 288.018 2130.25 287.462 Q2127.5 286.906 2124.54 285.819 L2124.54 281.004 Q2127.38 282.601 2130.11 283.411 Q2132.85 284.221 2135.48 284.221 Q2139.49 284.221 2141.66 282.647 Q2143.84 281.073 2143.84 278.157 Q2143.84 275.61 2142.27 274.175 Q2140.72 272.74 2137.15 272.022 L2134.3 271.467 Q2129.07 270.425 2126.73 268.203 Q2124.4 265.981 2124.4 262.022 Q2124.4 257.439 2127.61 254.8 Q2130.85 252.161 2136.53 252.161 Q2138.96 252.161 2141.48 252.601 Q2144 253.041 2146.64 253.921 Z" fill="#000000" fill-rule="nonzero" fill-opacity="1" /><path clip-path="url(#clip920)" d="M2155.16 251.374 L2158.86 251.374 Q2162.34 256.837 2164.05 262.069 Q2165.78 267.3 2165.78 272.462 Q2165.78 277.647 2164.05 282.902 Q2162.34 288.156 2158.86 293.596 L2155.16 293.596 Q2158.24 288.295 2159.74 283.064 Q2161.27 277.809 2161.27 272.462 Q2161.27 267.115 2159.74 261.907 Q2158.24 256.698 2155.16 251.374 Z" fill="#000000" fill-rule="nonzero" fill-opacity="1" /><polyline clip-path="url(#clip920)" style="stroke:#008000; stroke-linecap:round; stroke-linejoin:round; stroke-width:4; stroke-opacity:1; fill:none" points="1875.87,321.906 2018.48,321.906 "/>
<path clip-path="url(#clip920)" d="M2054.14 316.64 Q2050.62 316.64 2048.73 319.186 Q2046.73 321.848 2046.73 326.247 Q2046.73 330.899 2048.7 333.584 Q2050.69 336.246 2054.14 336.246 Q2057.54 336.246 2059.54 333.561 Q2061.53 330.876 2061.53 326.247 Q2061.53 322.01 2059.54 319.186 Q2057.71 316.64 2054.14 316.64 M2054.14 313.26 L2068.29 313.26 L2068.29 317.52 L2063.52 317.52 Q2066.04 321.131 2066.04 326.247 Q2066.04 332.612 2062.87 336.223 Q2059.7 339.858 2054.14 339.858 Q2048.56 339.858 2045.42 336.223 Q2042.24 332.612 2042.24 326.247 Q2042.24 319.835 2045.42 316.247 Q2048.03 313.26 2054.14 313.26 Z" fill="#000000" fill-rule="nonzero" fill-opacity="1" /><path clip-path="url(#clip920)" d="M2084.37 303.214 Q2081.27 308.538 2079.77 313.747 Q2078.26 318.955 2078.26 324.302 Q2078.26 329.649 2079.77 334.904 Q2081.29 340.135 2084.37 345.436 L2080.67 345.436 Q2077.2 339.996 2075.46 334.742 Q2073.75 329.487 2073.75 324.302 Q2073.75 319.14 2075.46 313.909 Q2077.17 308.677 2080.67 303.214 L2084.37 303.214 Z" fill="#000000" fill-rule="nonzero" fill-opacity="1" /><path clip-path="url(#clip920)" d="M2088.03 304.626 L2117.27 304.626 L2117.27 308.561 L2105 308.561 L2105 339.186 L2100.3 339.186 L2100.3 308.561 L2088.03 308.561 L2088.03 304.626 Z" fill="#000000" fill-rule="nonzero" fill-opacity="1" /><path clip-path="url(#clip920)" d="M2120.92 303.214 L2124.63 303.214 Q2128.1 308.677 2129.81 313.909 Q2131.55 319.14 2131.55 324.302 Q2131.55 329.487 2129.81 334.742 Q2128.1 339.996 2124.63 345.436 L2120.92 345.436 Q2124 340.135 2125.51 334.904 Q2127.04 329.649 2127.04 324.302 Q2127.04 318.955 2125.51 313.747 Q2124 308.538 2120.92 303.214 Z" fill="#000000" fill-rule="nonzero" fill-opacity="1" /><polyline clip-path="url(#clip920)" style="stroke:#0000ff; stroke-linecap:round; stroke-linejoin:round; stroke-width:8; stroke-opacity:1; fill:none" stroke-dasharray="32, 20" points="1875.87,373.746 2018.48,373.746 "/>
<path clip-path="url(#clip920)" d="M2049.86 369.175 L2055.53 385.193 L2063.63 365.1 L2068.15 365.1 L2057.66 391.026 L2057.66 400.887 L2053.4 400.887 L2053.4 391.026 L2046.6 371.675 Q2045.58 368.758 2043.38 368.758 L2042.24 368.758 L2042.24 365.1 L2043.86 365.1 Q2048.42 365.1 2049.86 369.175 Z" fill="#000000" fill-rule="nonzero" fill-opacity="1" /><path clip-path="url(#clip920)" d="M2099.14 368.48 Q2095.62 368.48 2093.73 371.026 Q2091.73 373.688 2091.73 378.087 Q2091.73 382.739 2093.7 385.424 Q2095.69 388.086 2099.14 388.086 Q2102.54 388.086 2104.54 385.401 Q2106.53 382.716 2106.53 378.087 Q2106.53 373.85 2104.54 371.026 Q2102.71 368.48 2099.14 368.48 M2099.14 365.1 L2113.29 365.1 L2113.29 369.36 L2108.52 369.36 Q2111.04 372.971 2111.04 378.087 Q2111.04 384.452 2107.87 388.063 Q2104.7 391.698 2099.14 391.698 Q2093.56 391.698 2090.42 388.063 Q2087.24 384.452 2087.24 378.087 Q2087.24 371.675 2090.42 368.087 Q2093.03 365.1 2099.14 365.1 Z" fill="#000000" fill-rule="nonzero" fill-opacity="1" /><path clip-path="url(#clip920)" d="M2129.37 355.054 Q2126.27 360.378 2124.77 365.587 Q2123.26 370.795 2123.26 376.142 Q2123.26 381.489 2124.77 386.744 Q2126.29 391.975 2129.37 397.276 L2125.67 397.276 Q2122.2 391.836 2120.46 386.582 Q2118.75 381.327 2118.75 376.142 Q2118.75 370.98 2120.46 365.749 Q2122.17 360.517 2125.67 355.054 L2129.37 355.054 Z" fill="#000000" fill-rule="nonzero" fill-opacity="1" /><path clip-path="url(#clip920)" d="M2134.74 356.466 L2139.47 356.466 L2146.73 385.679 L2153.98 356.466 L2159.23 356.466 L2166.5 385.679 L2173.75 356.466 L2178.49 356.466 L2169.81 391.026 L2163.93 391.026 L2156.64 361.026 L2149.28 391.026 L2143.4 391.026 L2134.74 356.466 Z" fill="#000000" fill-rule="nonzero" fill-opacity="1" /><path clip-path="url(#clip920)" d="M2194.35 376.559 L2194.35 378.804 Q2193.22 378.295 2191.99 378.04 Q2190.78 377.786 2189.47 377.786 Q2187.45 377.786 2186.46 378.318 Q2185.46 378.874 2185.46 379.962 Q2185.46 380.795 2186.18 381.258 Q2186.9 381.744 2189.05 382.161 L2189.97 382.346 Q2192.87 382.901 2194.03 383.874 Q2195.23 384.869 2195.23 386.651 Q2195.23 388.665 2193.42 389.846 Q2191.64 391.026 2188.49 391.026 Q2187.17 391.026 2185.74 390.795 Q2184.33 390.563 2182.75 390.124 L2182.75 387.647 Q2184.23 388.341 2185.69 388.688 Q2187.13 389.036 2188.54 389.036 Q2190.44 389.036 2191.46 388.457 Q2192.47 387.878 2192.47 386.836 Q2192.47 385.864 2191.73 385.332 Q2191.09 384.869 2188.52 384.336 L2187.59 384.151 Q2185.09 383.665 2183.98 382.716 Q2182.87 381.744 2182.87 380.054 Q2182.87 378.017 2184.51 376.906 Q2186.13 375.772 2189.14 375.772 Q2190.62 375.772 2191.94 375.98 Q2193.26 376.165 2194.35 376.559 Z" fill="#000000" fill-rule="nonzero" fill-opacity="1" /><path clip-path="url(#clip920)" d="M2200.9 366.142 L2219.58 366.142 L2219.58 368.341 L2200.9 368.341 L2200.9 366.142 Z" fill="#000000" fill-rule="nonzero" fill-opacity="1" /><path clip-path="url(#clip920)" d="M2226.36 373.017 L2231.09 373.017 L2231.09 358.874 L2225.92 359.823 L2225.92 357.138 L2231.25 356.235 L2234.42 356.235 L2234.42 373.017 L2239.16 373.017 L2239.16 375.563 L2226.36 375.563 L2226.36 373.017 Z" fill="#000000" fill-rule="nonzero" fill-opacity="1" /><path clip-path="url(#clip920)" d="M2245.55 355.054 L2249.26 355.054 Q2252.73 360.517 2254.44 365.749 Q2256.18 370.98 2256.18 376.142 Q2256.18 381.327 2254.44 386.582 Q2252.73 391.836 2249.26 397.276 L2245.55 397.276 Q2248.63 391.975 2250.14 386.744 Q2251.66 381.489 2251.66 376.142 Q2251.66 370.795 2250.14 365.587 Q2248.63 360.378 2245.55 355.054 Z" fill="#000000" fill-rule="nonzero" fill-opacity="1" /><polyline clip-path="url(#clip920)" style="stroke:#ff0000; stroke-linecap:round; stroke-linejoin:round; stroke-width:8; stroke-opacity:1; fill:none" stroke-dasharray="32, 20" points="1875.87,425.586 2018.48,425.586 "/>
<path clip-path="url(#clip920)" d="M2049.86 421.015 L2055.53 437.033 L2063.63 416.94 L2068.15 416.94 L2057.66 442.866 L2057.66 452.727 L2053.4 452.727 L2053.4 442.866 L2046.6 423.515 Q2045.58 420.598 2043.38 420.598 L2042.24 420.598 L2042.24 416.94 L2043.86 416.94 Q2048.42 416.94 2049.86 421.015 Z" fill="#000000" fill-rule="nonzero" fill-opacity="1" /><path clip-path="url(#clip920)" d="M2099.14 420.32 Q2095.62 420.32 2093.73 422.866 Q2091.73 425.528 2091.73 429.927 Q2091.73 434.579 2093.7 437.264 Q2095.69 439.926 2099.14 439.926 Q2102.54 439.926 2104.54 437.241 Q2106.53 434.556 2106.53 429.927 Q2106.53 425.69 2104.54 422.866 Q2102.71 420.32 2099.14 420.32 M2099.14 416.94 L2113.29 416.94 L2113.29 421.2 L2108.52 421.2 Q2111.04 424.811 2111.04 429.927 Q2111.04 436.292 2107.87 439.903 Q2104.7 443.538 2099.14 443.538 Q2093.56 443.538 2090.42 439.903 Q2087.24 436.292 2087.24 429.927 Q2087.24 423.515 2090.42 419.927 Q2093.03 416.94 2099.14 416.94 Z" fill="#000000" fill-rule="nonzero" fill-opacity="1" /><path clip-path="url(#clip920)" d="M2129.37 406.894 Q2126.27 412.218 2124.77 417.427 Q2123.26 422.635 2123.26 427.982 Q2123.26 433.329 2124.77 438.584 Q2126.29 443.815 2129.37 449.116 L2125.67 449.116 Q2122.2 443.676 2120.46 438.422 Q2118.75 433.167 2118.75 427.982 Q2118.75 422.82 2120.46 417.589 Q2122.17 412.357 2125.67 406.894 L2129.37 406.894 Z" fill="#000000" fill-rule="nonzero" fill-opacity="1" /><path clip-path="url(#clip920)" d="M2134.74 408.306 L2139.47 408.306 L2146.73 437.519 L2153.98 408.306 L2159.23 408.306 L2166.5 437.519 L2173.75 408.306 L2178.49 408.306 L2169.81 442.866 L2163.93 442.866 L2156.64 412.866 L2149.28 442.866 L2143.4 442.866 L2134.74 408.306 Z" fill="#000000" fill-rule="nonzero" fill-opacity="1" /><path clip-path="url(#clip920)" d="M2182.59 437.126 L2182.59 428.352 L2185.28 428.352 L2185.28 437.056 Q2185.28 439.116 2186.18 440.135 Q2187.08 441.176 2188.89 441.176 Q2191.06 441.176 2192.31 439.926 Q2193.59 438.7 2193.59 436.57 L2193.59 428.352 L2196.27 428.352 L2196.27 442.866 L2193.59 442.866 L2193.59 440.644 Q2192.59 441.964 2191.32 442.612 Q2190.02 443.237 2188.31 443.237 Q2185.51 443.237 2184.05 441.686 Q2182.59 440.135 2182.59 437.126 Z" fill="#000000" fill-rule="nonzero" fill-opacity="1" /><path clip-path="url(#clip920)" d="M2202.41 417.982 L2221.09 417.982 L2221.09 420.181 L2202.41 420.181 L2202.41 417.982 Z" fill="#000000" fill-rule="nonzero" fill-opacity="1" /><path clip-path="url(#clip920)" d="M2227.87 424.857 L2232.59 424.857 L2232.59 410.714 L2227.43 411.663 L2227.43 408.978 L2232.75 408.075 L2235.92 408.075 L2235.92 424.857 L2240.67 424.857 L2240.67 427.403 L2227.87 427.403 L2227.87 424.857 Z" fill="#000000" fill-rule="nonzero" fill-opacity="1" /><path clip-path="url(#clip920)" d="M2247.06 406.894 L2250.76 406.894 Q2254.23 412.357 2255.95 417.589 Q2257.68 422.82 2257.68 427.982 Q2257.68 433.167 2255.95 438.422 Q2254.23 443.676 2250.76 449.116 L2247.06 449.116 Q2250.14 443.815 2251.64 438.584 Q2253.17 433.329 2253.17 427.982 Q2253.17 422.635 2251.64 417.427 Q2250.14 412.218 2247.06 406.894 Z" fill="#000000" fill-rule="nonzero" fill-opacity="1" /></svg>
