<?xml version="1.0" encoding="utf-8"?>
<svg xmlns="http://www.w3.org/2000/svg" xmlns:xlink="http://www.w3.org/1999/xlink" width="640" height="480" viewBox="0 0 2560 1920">
<defs>
  <clipPath id="clip950">
    <rect x="0" y="0" width="2560" height="1920"/>
  </clipPath>
</defs>
<path clip-path="url(#clip950)" d="M0 1920 L2560 1920 L2560 0 L0 0  Z" fill="#ffffff" fill-rule="evenodd" fill-opacity="1"/>
<defs>
  <clipPath id="clip951">
    <rect x="512" y="0" width="1793" height="1793"/>
  </clipPath>
</defs>
<path clip-path="url(#clip950)" d="M257.082 769.72 L2512.76 769.72 L2512.76 47.2441 L257.082 47.2441  Z" fill="#ffffff" fill-rule="evenodd" fill-opacity="1"/>
<defs>
  <clipPath id="clip952">
    <rect x="257" y="47" width="2257" height="723"/>
  </clipPath>
</defs>
<polyline clip-path="url(#clip952)" style="stroke:#000000; stroke-linecap:round; stroke-linejoin:round; stroke-width:2; stroke-opacity:0.1; fill:none" points="320.922,769.72 320.922,47.2441 "/>
<polyline clip-path="url(#clip952)" style="stroke:#000000; stroke-linecap:round; stroke-linejoin:round; stroke-width:2; stroke-opacity:0.1; fill:none" points="852.92,769.72 852.92,47.2441 "/>
<polyline clip-path="url(#clip952)" style="stroke:#000000; stroke-linecap:round; stroke-linejoin:round; stroke-width:2; stroke-opacity:0.1; fill:none" points="1384.92,769.72 1384.92,47.2441 "/>
<polyline clip-path="url(#clip952)" style="stroke:#000000; stroke-linecap:round; stroke-linejoin:round; stroke-width:2; stroke-opacity:0.1; fill:none" points="1916.92,769.72 1916.92,47.2441 "/>
<polyline clip-path="url(#clip952)" style="stroke:#000000; stroke-linecap:round; stroke-linejoin:round; stroke-width:2; stroke-opacity:0.1; fill:none" points="2448.92,769.72 2448.92,47.2441 "/>
<polyline clip-path="url(#clip950)" style="stroke:#000000; stroke-linecap:round; stroke-linejoin:round; stroke-width:4; stroke-opacity:1; fill:none" points="257.082,769.72 2512.76,769.72 "/>
<polyline clip-path="url(#clip950)" style="stroke:#000000; stroke-linecap:round; stroke-linejoin:round; stroke-width:4; stroke-opacity:1; fill:none" points="320.922,769.72 320.922,750.822 "/>
<polyline clip-path="url(#clip950)" style="stroke:#000000; stroke-linecap:round; stroke-linejoin:round; stroke-width:4; stroke-opacity:1; fill:none" points="852.92,769.72 852.92,750.822 "/>
<polyline clip-path="url(#clip950)" style="stroke:#000000; stroke-linecap:round; stroke-linejoin:round; stroke-width:4; stroke-opacity:1; fill:none" points="1384.92,769.72 1384.92,750.822 "/>
<polyline clip-path="url(#clip950)" style="stroke:#000000; stroke-linecap:round; stroke-linejoin:round; stroke-width:4; stroke-opacity:1; fill:none" points="1916.92,769.72 1916.92,750.822 "/>
<polyline clip-path="url(#clip950)" style="stroke:#000000; stroke-linecap:round; stroke-linejoin:round; stroke-width:4; stroke-opacity:1; fill:none" points="2448.92,769.72 2448.92,750.822 "/>
<path clip-path="url(#clip950)" d="M320.922 801.919 Q317.311 801.919 315.482 805.483 Q313.677 809.025 313.677 816.155 Q313.677 823.261 315.482 826.826 Q317.311 830.367 320.922 830.367 Q324.556 830.367 326.362 826.826 Q328.19 823.261 328.19 816.155 Q328.19 809.025 326.362 805.483 Q324.556 801.919 320.922 801.919 M320.922 798.215 Q326.732 798.215 329.788 802.821 Q332.866 807.405 332.866 816.155 Q332.866 824.881 329.788 829.488 Q326.732 834.071 320.922 834.071 Q315.112 834.071 312.033 829.488 Q308.977 824.881 308.977 816.155 Q308.977 807.405 312.033 802.821 Q315.112 798.215 320.922 798.215 Z" fill="#000000" fill-rule="nonzero" fill-opacity="1" /><path clip-path="url(#clip950)" d="M843.198 798.84 L861.555 798.84 L861.555 802.775 L847.481 802.775 L847.481 811.247 Q848.499 810.9 849.518 810.738 Q850.536 810.553 851.555 810.553 Q857.342 810.553 860.721 813.724 Q864.101 816.895 864.101 822.312 Q864.101 827.891 860.629 830.992 Q857.157 834.071 850.837 834.071 Q848.661 834.071 846.393 833.701 Q844.147 833.33 841.74 832.59 L841.74 827.891 Q843.823 829.025 846.045 829.58 Q848.268 830.136 850.745 830.136 Q854.749 830.136 857.087 828.03 Q859.425 825.923 859.425 822.312 Q859.425 818.701 857.087 816.594 Q854.749 814.488 850.745 814.488 Q848.87 814.488 846.995 814.905 Q845.143 815.321 843.198 816.201 L843.198 798.84 Z" fill="#000000" fill-rule="nonzero" fill-opacity="1" /><path clip-path="url(#clip950)" d="M1359.61 829.465 L1367.25 829.465 L1367.25 803.099 L1358.94 804.766 L1358.94 800.507 L1367.2 798.84 L1371.88 798.84 L1371.88 829.465 L1379.51 829.465 L1379.51 833.4 L1359.61 833.4 L1359.61 829.465 Z" fill="#000000" fill-rule="nonzero" fill-opacity="1" /><path clip-path="url(#clip950)" d="M1398.96 801.919 Q1395.35 801.919 1393.52 805.483 Q1391.71 809.025 1391.71 816.155 Q1391.71 823.261 1393.52 826.826 Q1395.35 830.367 1398.96 830.367 Q1402.59 830.367 1404.4 826.826 Q1406.23 823.261 1406.23 816.155 Q1406.23 809.025 1404.4 805.483 Q1402.59 801.919 1398.96 801.919 M1398.96 798.215 Q1404.77 798.215 1407.82 802.821 Q1410.9 807.405 1410.9 816.155 Q1410.9 824.881 1407.82 829.488 Q1404.77 834.071 1398.96 834.071 Q1393.15 834.071 1390.07 829.488 Q1387.01 824.881 1387.01 816.155 Q1387.01 807.405 1390.07 802.821 Q1393.15 798.215 1398.96 798.215 Z" fill="#000000" fill-rule="nonzero" fill-opacity="1" /><path clip-path="url(#clip950)" d="M1892.1 829.465 L1899.74 829.465 L1899.74 803.099 L1891.43 804.766 L1891.43 800.507 L1899.7 798.84 L1904.37 798.84 L1904.37 829.465 L1912.01 829.465 L1912.01 833.4 L1892.1 833.4 L1892.1 829.465 Z" fill="#000000" fill-rule="nonzero" fill-opacity="1" /><path clip-path="url(#clip950)" d="M1921.5 798.84 L1939.86 798.84 L1939.86 802.775 L1925.78 802.775 L1925.78 811.247 Q1926.8 810.9 1927.82 810.738 Q1928.84 810.553 1929.86 810.553 Q1935.64 810.553 1939.02 813.724 Q1942.4 816.895 1942.4 822.312 Q1942.4 827.891 1938.93 830.992 Q1935.46 834.071 1929.14 834.071 Q1926.96 834.071 1924.7 833.701 Q1922.45 833.33 1920.04 832.59 L1920.04 827.891 Q1922.13 829.025 1924.35 829.58 Q1926.57 830.136 1929.05 830.136 Q1933.05 830.136 1935.39 828.03 Q1937.73 825.923 1937.73 822.312 Q1937.73 818.701 1935.39 816.594 Q1933.05 814.488 1929.05 814.488 Q1927.17 814.488 1925.3 814.905 Q1923.45 815.321 1921.5 816.201 L1921.5 798.84 Z" fill="#000000" fill-rule="nonzero" fill-opacity="1" /><path clip-path="url(#clip950)" d="M2427.69 829.465 L2444.01 829.465 L2444.01 833.4 L2422.06 833.4 L2422.06 829.465 Q2424.73 826.71 2429.31 822.08 Q2433.92 817.428 2435.1 816.085 Q2437.34 813.562 2438.22 811.826 Q2439.12 810.067 2439.12 808.377 Q2439.12 805.622 2437.18 803.886 Q2435.26 802.15 2432.16 802.15 Q2429.96 802.15 2427.5 802.914 Q2425.07 803.678 2422.3 805.229 L2422.3 800.507 Q2425.12 799.372 2427.57 798.794 Q2430.03 798.215 2432.06 798.215 Q2437.43 798.215 2440.63 800.9 Q2443.82 803.585 2443.82 808.076 Q2443.82 810.206 2443.01 812.127 Q2442.23 814.025 2440.12 816.618 Q2439.54 817.289 2436.44 820.506 Q2433.34 823.701 2427.69 829.465 Z" fill="#000000" fill-rule="nonzero" fill-opacity="1" /><path clip-path="url(#clip950)" d="M2463.82 801.919 Q2460.21 801.919 2458.38 805.483 Q2456.58 809.025 2456.58 816.155 Q2456.58 823.261 2458.38 826.826 Q2460.21 830.367 2463.82 830.367 Q2467.46 830.367 2469.26 826.826 Q2471.09 823.261 2471.09 816.155 Q2471.09 809.025 2469.26 805.483 Q2467.46 801.919 2463.82 801.919 M2463.82 798.215 Q2469.63 798.215 2472.69 802.821 Q2475.77 807.405 2475.77 816.155 Q2475.77 824.881 2472.69 829.488 Q2469.63 834.071 2463.82 834.071 Q2458.01 834.071 2454.93 829.488 Q2451.88 824.881 2451.88 816.155 Q2451.88 807.405 2454.93 802.821 Q2458.01 798.215 2463.82 798.215 Z" fill="#000000" fill-rule="nonzero" fill-opacity="1" /><path clip-path="url(#clip950)" d="M1255.09 869.464 L1295.29 869.464 L1295.29 874.875 L1278.42 874.875 L1278.42 916.984 L1271.96 916.984 L1271.96 874.875 L1255.09 874.875 L1255.09 869.464 Z" fill="#000000" fill-rule="nonzero" fill-opacity="1" /><path clip-path="url(#clip950)" d="M1299.24 881.336 L1305.09 881.336 L1305.09 916.984 L1299.24 916.984 L1299.24 881.336 M1299.24 867.459 L1305.09 867.459 L1305.09 874.875 L1299.24 874.875 L1299.24 867.459 Z" fill="#000000" fill-rule="nonzero" fill-opacity="1" /><path clip-path="url(#clip950)" d="M1345.1 888.179 Q1347.3 884.232 1350.35 882.354 Q1353.41 880.477 1357.55 880.477 Q1363.12 880.477 1366.14 884.391 Q1369.16 888.275 1369.16 895.468 L1369.16 916.984 L1363.28 916.984 L1363.28 895.659 Q1363.28 890.534 1361.46 888.052 Q1359.65 885.569 1355.92 885.569 Q1351.37 885.569 1348.73 888.593 Q1346.09 891.617 1346.09 896.836 L1346.09 916.984 L1340.2 916.984 L1340.2 895.659 Q1340.2 890.503 1338.39 888.052 Q1336.57 885.569 1332.78 885.569 Q1328.3 885.569 1325.65 888.625 Q1323.01 891.648 1323.01 896.836 L1323.01 916.984 L1317.12 916.984 L1317.12 881.336 L1323.01 881.336 L1323.01 886.874 Q1325.02 883.596 1327.82 882.036 Q1330.62 880.477 1334.47 880.477 Q1338.35 880.477 1341.06 882.45 Q1343.8 884.423 1345.1 888.179 Z" fill="#000000" fill-rule="nonzero" fill-opacity="1" /><path clip-path="url(#clip950)" d="M1411.34 897.696 L1411.34 900.56 L1384.41 900.56 Q1384.79 906.608 1388.04 909.791 Q1391.32 912.942 1397.14 912.942 Q1400.51 912.942 1403.67 912.114 Q1406.85 911.287 1409.97 909.631 L1409.97 915.17 Q1406.82 916.506 1403.51 917.207 Q1400.2 917.907 1396.79 917.907 Q1388.26 917.907 1383.26 912.942 Q1378.3 907.976 1378.3 899.51 Q1378.3 890.757 1383.01 885.633 Q1387.75 880.477 1395.77 880.477 Q1402.97 880.477 1407.14 885.123 Q1411.34 889.739 1411.34 897.696 M1405.48 895.977 Q1405.42 891.171 1402.77 888.306 Q1400.16 885.442 1395.84 885.442 Q1390.93 885.442 1387.97 888.211 Q1385.05 890.98 1384.6 896.009 L1405.48 895.977 Z" fill="#000000" fill-rule="nonzero" fill-opacity="1" /><path clip-path="url(#clip950)" d="M1455.74 867.522 Q1451.47 874.843 1449.4 882.004 Q1447.33 889.166 1447.33 896.518 Q1447.33 903.87 1449.4 911.096 Q1451.5 918.289 1455.74 925.578 L1450.64 925.578 Q1445.87 918.098 1443.48 910.873 Q1441.13 903.648 1441.13 896.518 Q1441.13 889.42 1443.48 882.227 Q1445.84 875.034 1450.64 867.522 L1455.74 867.522 Z" fill="#000000" fill-rule="nonzero" fill-opacity="1" /><path clip-path="url(#clip950)" d="M1489.83 882.386 L1489.83 887.924 Q1487.34 886.651 1484.67 886.015 Q1482 885.378 1479.13 885.378 Q1474.77 885.378 1472.57 886.715 Q1470.41 888.052 1470.41 890.725 Q1470.41 892.762 1471.97 893.94 Q1473.53 895.086 1478.24 896.136 L1480.25 896.582 Q1486.48 897.919 1489.09 900.369 Q1491.74 902.788 1491.74 907.149 Q1491.74 912.114 1487.79 915.01 Q1483.87 917.907 1477 917.907 Q1474.13 917.907 1471.02 917.334 Q1467.93 916.793 1464.49 915.679 L1464.49 909.631 Q1467.74 911.318 1470.89 912.178 Q1474.04 913.005 1477.13 913.005 Q1481.26 913.005 1483.49 911.605 Q1485.72 910.173 1485.72 907.594 Q1485.72 905.207 1484.1 903.934 Q1482.51 902.661 1477.06 901.483 L1475.03 901.006 Q1469.58 899.86 1467.16 897.505 Q1464.74 895.118 1464.74 890.98 Q1464.74 885.951 1468.31 883.214 Q1471.87 880.477 1478.43 880.477 Q1481.68 880.477 1484.54 880.954 Q1487.41 881.431 1489.83 882.386 Z" fill="#000000" fill-rule="nonzero" fill-opacity="1" /><path clip-path="url(#clip950)" d="M1500.14 867.522 L1505.23 867.522 Q1510.01 875.034 1512.36 882.227 Q1514.75 889.42 1514.75 896.518 Q1514.75 903.648 1512.36 910.873 Q1510.01 918.098 1505.23 925.578 L1500.14 925.578 Q1504.37 918.289 1506.44 911.096 Q1508.54 903.87 1508.54 896.518 Q1508.54 889.166 1506.44 882.004 Q1504.37 874.843 1500.14 867.522 Z" fill="#000000" fill-rule="nonzero" fill-opacity="1" /><polyline clip-path="url(#clip952)" style="stroke:#000000; stroke-linecap:round; stroke-linejoin:round; stroke-width:2; stroke-opacity:0.1; fill:none" points="257.082,749.272 2512.76,749.272 "/>
<polyline clip-path="url(#clip952)" style="stroke:#000000; stroke-linecap:round; stroke-linejoin:round; stroke-width:2; stroke-opacity:0.1; fill:none" points="257.082,574.393 2512.76,574.393 "/>
<polyline clip-path="url(#clip952)" style="stroke:#000000; stroke-linecap:round; stroke-linejoin:round; stroke-width:2; stroke-opacity:0.1; fill:none" points="257.082,399.514 2512.76,399.514 "/>
<polyline clip-path="url(#clip952)" style="stroke:#000000; stroke-linecap:round; stroke-linejoin:round; stroke-width:2; stroke-opacity:0.1; fill:none" points="257.082,224.634 2512.76,224.634 "/>
<polyline clip-path="url(#clip952)" style="stroke:#000000; stroke-linecap:round; stroke-linejoin:round; stroke-width:2; stroke-opacity:0.1; fill:none" points="257.082,49.7548 2512.76,49.7548 "/>
<polyline clip-path="url(#clip950)" style="stroke:#000000; stroke-linecap:round; stroke-linejoin:round; stroke-width:4; stroke-opacity:1; fill:none" points="257.082,769.72 257.082,47.2441 "/>
<polyline clip-path="url(#clip950)" style="stroke:#000000; stroke-linecap:round; stroke-linejoin:round; stroke-width:4; stroke-opacity:1; fill:none" points="257.082,749.272 275.98,749.272 "/>
<polyline clip-path="url(#clip950)" style="stroke:#000000; stroke-linecap:round; stroke-linejoin:round; stroke-width:4; stroke-opacity:1; fill:none" points="257.082,574.393 275.98,574.393 "/>
<polyline clip-path="url(#clip950)" style="stroke:#000000; stroke-linecap:round; stroke-linejoin:round; stroke-width:4; stroke-opacity:1; fill:none" points="257.082,399.514 275.98,399.514 "/>
<polyline clip-path="url(#clip950)" style="stroke:#000000; stroke-linecap:round; stroke-linejoin:round; stroke-width:4; stroke-opacity:1; fill:none" points="257.082,224.634 275.98,224.634 "/>
<polyline clip-path="url(#clip950)" style="stroke:#000000; stroke-linecap:round; stroke-linejoin:round; stroke-width:4; stroke-opacity:1; fill:none" points="257.082,49.7548 275.98,49.7548 "/>
<path clip-path="url(#clip950)" d="M131.345 735.071 Q127.733 735.071 125.905 738.636 Q124.099 742.178 124.099 749.307 Q124.099 756.414 125.905 759.978 Q127.733 763.52 131.345 763.52 Q134.979 763.52 136.784 759.978 Q138.613 756.414 138.613 749.307 Q138.613 742.178 136.784 738.636 Q134.979 735.071 131.345 735.071 M131.345 731.367 Q137.155 731.367 140.21 735.974 Q143.289 740.557 143.289 749.307 Q143.289 758.034 140.21 762.64 Q137.155 767.224 131.345 767.224 Q125.534 767.224 122.456 762.64 Q119.4 758.034 119.4 749.307 Q119.4 740.557 122.456 735.974 Q125.534 731.367 131.345 731.367 Z" fill="#000000" fill-rule="nonzero" fill-opacity="1" /><path clip-path="url(#clip950)" d="M151.506 760.673 L156.391 760.673 L156.391 766.552 L151.506 766.552 L151.506 760.673 Z" fill="#000000" fill-rule="nonzero" fill-opacity="1" /><path clip-path="url(#clip950)" d="M176.576 735.071 Q172.965 735.071 171.136 738.636 Q169.33 742.178 169.33 749.307 Q169.33 756.414 171.136 759.978 Q172.965 763.52 176.576 763.52 Q180.21 763.52 182.016 759.978 Q183.844 756.414 183.844 749.307 Q183.844 742.178 182.016 738.636 Q180.21 735.071 176.576 735.071 M176.576 731.367 Q182.386 731.367 185.441 735.974 Q188.52 740.557 188.52 749.307 Q188.52 758.034 185.441 762.64 Q182.386 767.224 176.576 767.224 Q170.766 767.224 167.687 762.64 Q164.631 758.034 164.631 749.307 Q164.631 740.557 167.687 735.974 Q170.766 731.367 176.576 731.367 Z" fill="#000000" fill-rule="nonzero" fill-opacity="1" /><path clip-path="url(#clip950)" d="M206.738 735.071 Q203.127 735.071 201.298 738.636 Q199.492 742.178 199.492 749.307 Q199.492 756.414 201.298 759.978 Q203.127 763.52 206.738 763.52 Q210.372 763.52 212.177 759.978 Q214.006 756.414 214.006 749.307 Q214.006 742.178 212.177 738.636 Q210.372 735.071 206.738 735.071 M206.738 731.367 Q212.548 731.367 215.603 735.974 Q218.682 740.557 218.682 749.307 Q218.682 758.034 215.603 762.64 Q212.548 767.224 206.738 767.224 Q200.927 767.224 197.849 762.64 Q194.793 758.034 194.793 749.307 Q194.793 740.557 197.849 735.974 Q200.927 731.367 206.738 731.367 Z" fill="#000000" fill-rule="nonzero" fill-opacity="1" /><path clip-path="url(#clip950)" d="M132.34 560.192 Q128.729 560.192 126.9 563.756 Q125.095 567.298 125.095 574.428 Q125.095 581.534 126.9 585.099 Q128.729 588.641 132.34 588.641 Q135.974 588.641 137.78 585.099 Q139.608 581.534 139.608 574.428 Q139.608 567.298 137.78 563.756 Q135.974 560.192 132.34 560.192 M132.34 556.488 Q138.15 556.488 141.206 561.094 Q144.284 565.678 144.284 574.428 Q144.284 583.155 141.206 587.761 Q138.15 592.344 132.34 592.344 Q126.53 592.344 123.451 587.761 Q120.396 583.155 120.396 574.428 Q120.396 565.678 123.451 561.094 Q126.53 556.488 132.34 556.488 Z" fill="#000000" fill-rule="nonzero" fill-opacity="1" /><path clip-path="url(#clip950)" d="M152.502 585.793 L157.386 585.793 L157.386 591.673 L152.502 591.673 L152.502 585.793 Z" fill="#000000" fill-rule="nonzero" fill-opacity="1" /><path clip-path="url(#clip950)" d="M171.599 587.738 L187.918 587.738 L187.918 591.673 L165.974 591.673 L165.974 587.738 Q168.636 584.983 173.219 580.354 Q177.826 575.701 179.006 574.358 Q181.252 571.835 182.131 570.099 Q183.034 568.34 183.034 566.65 Q183.034 563.895 181.09 562.159 Q179.168 560.423 176.067 560.423 Q173.867 560.423 171.414 561.187 Q168.983 561.951 166.205 563.502 L166.205 558.78 Q169.03 557.645 171.483 557.067 Q173.937 556.488 175.974 556.488 Q181.344 556.488 184.539 559.173 Q187.733 561.858 187.733 566.349 Q187.733 568.479 186.923 570.4 Q186.136 572.298 184.029 574.891 Q183.451 575.562 180.349 578.78 Q177.247 581.974 171.599 587.738 Z" fill="#000000" fill-rule="nonzero" fill-opacity="1" /><path clip-path="url(#clip950)" d="M197.779 557.113 L216.136 557.113 L216.136 561.048 L202.062 561.048 L202.062 569.52 Q203.08 569.173 204.099 569.011 Q205.117 568.826 206.136 568.826 Q211.923 568.826 215.302 571.997 Q218.682 575.168 218.682 580.585 Q218.682 586.164 215.21 589.266 Q211.738 592.344 205.418 592.344 Q203.242 592.344 200.974 591.974 Q198.728 591.604 196.321 590.863 L196.321 586.164 Q198.404 587.298 200.627 587.854 Q202.849 588.409 205.326 588.409 Q209.33 588.409 211.668 586.303 Q214.006 584.196 214.006 580.585 Q214.006 576.974 211.668 574.868 Q209.33 572.761 205.326 572.761 Q203.451 572.761 201.576 573.178 Q199.724 573.594 197.779 574.474 L197.779 557.113 Z" fill="#000000" fill-rule="nonzero" fill-opacity="1" /><path clip-path="url(#clip950)" d="M131.345 385.312 Q127.733 385.312 125.905 388.877 Q124.099 392.419 124.099 399.548 Q124.099 406.655 125.905 410.22 Q127.733 413.761 131.345 413.761 Q134.979 413.761 136.784 410.22 Q138.613 406.655 138.613 399.548 Q138.613 392.419 136.784 388.877 Q134.979 385.312 131.345 385.312 M131.345 381.609 Q137.155 381.609 140.21 386.215 Q143.289 390.798 143.289 399.548 Q143.289 408.275 140.21 412.882 Q137.155 417.465 131.345 417.465 Q125.534 417.465 122.456 412.882 Q119.4 408.275 119.4 399.548 Q119.4 390.798 122.456 386.215 Q125.534 381.609 131.345 381.609 Z" fill="#000000" fill-rule="nonzero" fill-opacity="1" /><path clip-path="url(#clip950)" d="M151.506 410.914 L156.391 410.914 L156.391 416.794 L151.506 416.794 L151.506 410.914 Z" fill="#000000" fill-rule="nonzero" fill-opacity="1" /><path clip-path="url(#clip950)" d="M166.622 382.234 L184.979 382.234 L184.979 386.169 L170.905 386.169 L170.905 394.641 Q171.923 394.294 172.942 394.132 Q173.96 393.947 174.979 393.947 Q180.766 393.947 184.145 397.118 Q187.525 400.289 187.525 405.706 Q187.525 411.284 184.053 414.386 Q180.58 417.465 174.261 417.465 Q172.085 417.465 169.817 417.095 Q167.571 416.724 165.164 415.983 L165.164 411.284 Q167.247 412.419 169.469 412.974 Q171.692 413.53 174.168 413.53 Q178.173 413.53 180.511 411.423 Q182.849 409.317 182.849 405.706 Q182.849 402.095 180.511 399.988 Q178.173 397.882 174.168 397.882 Q172.293 397.882 170.418 398.298 Q168.567 398.715 166.622 399.595 L166.622 382.234 Z" fill="#000000" fill-rule="nonzero" fill-opacity="1" /><path clip-path="url(#clip950)" d="M206.738 385.312 Q203.127 385.312 201.298 388.877 Q199.492 392.419 199.492 399.548 Q199.492 406.655 201.298 410.22 Q203.127 413.761 206.738 413.761 Q210.372 413.761 212.177 410.22 Q214.006 406.655 214.006 399.548 Q214.006 392.419 212.177 388.877 Q210.372 385.312 206.738 385.312 M206.738 381.609 Q212.548 381.609 215.603 386.215 Q218.682 390.798 218.682 399.548 Q218.682 408.275 215.603 412.882 Q212.548 417.465 206.738 417.465 Q200.927 417.465 197.849 412.882 Q194.793 408.275 194.793 399.548 Q194.793 390.798 197.849 386.215 Q200.927 381.609 206.738 381.609 Z" fill="#000000" fill-rule="nonzero" fill-opacity="1" /><path clip-path="url(#clip950)" d="M132.34 210.433 Q128.729 210.433 126.9 213.998 Q125.095 217.539 125.095 224.669 Q125.095 231.775 126.9 235.34 Q128.729 238.882 132.34 238.882 Q135.974 238.882 137.78 235.34 Q139.608 231.775 139.608 224.669 Q139.608 217.539 137.78 213.998 Q135.974 210.433 132.34 210.433 M132.34 206.729 Q138.15 206.729 141.206 211.336 Q144.284 215.919 144.284 224.669 Q144.284 233.396 141.206 238.002 Q138.15 242.585 132.34 242.585 Q126.53 242.585 123.451 238.002 Q120.396 233.396 120.396 224.669 Q120.396 215.919 123.451 211.336 Q126.53 206.729 132.34 206.729 Z" fill="#000000" fill-rule="nonzero" fill-opacity="1" /><path clip-path="url(#clip950)" d="M152.502 236.035 L157.386 236.035 L157.386 241.914 L152.502 241.914 L152.502 236.035 Z" fill="#000000" fill-rule="nonzero" fill-opacity="1" /><path clip-path="url(#clip950)" d="M166.391 207.354 L188.613 207.354 L188.613 209.345 L176.067 241.914 L171.182 241.914 L182.988 211.289 L166.391 211.289 L166.391 207.354 Z" fill="#000000" fill-rule="nonzero" fill-opacity="1" /><path clip-path="url(#clip950)" d="M197.779 207.354 L216.136 207.354 L216.136 211.289 L202.062 211.289 L202.062 219.762 Q203.08 219.414 204.099 219.252 Q205.117 219.067 206.136 219.067 Q211.923 219.067 215.302 222.238 Q218.682 225.41 218.682 230.826 Q218.682 236.405 215.21 239.507 Q211.738 242.585 205.418 242.585 Q203.242 242.585 200.974 242.215 Q198.728 241.845 196.321 241.104 L196.321 236.405 Q198.404 237.539 200.627 238.095 Q202.849 238.65 205.326 238.65 Q209.33 238.65 211.668 236.544 Q214.006 234.437 214.006 230.826 Q214.006 227.215 211.668 225.109 Q209.33 223.002 205.326 223.002 Q203.451 223.002 201.576 223.419 Q199.724 223.836 197.779 224.715 L197.779 207.354 Z" fill="#000000" fill-rule="nonzero" fill-opacity="1" /><path clip-path="url(#clip950)" d="M122.155 63.0996 L129.794 63.0996 L129.794 36.734 L121.483 38.4007 L121.483 34.1415 L129.747 32.4748 L134.423 32.4748 L134.423 63.0996 L142.062 63.0996 L142.062 67.0348 L122.155 67.0348 L122.155 63.0996 Z" fill="#000000" fill-rule="nonzero" fill-opacity="1" /><path clip-path="url(#clip950)" d="M151.506 61.1552 L156.391 61.1552 L156.391 67.0348 L151.506 67.0348 L151.506 61.1552 Z" fill="#000000" fill-rule="nonzero" fill-opacity="1" /><path clip-path="url(#clip950)" d="M176.576 35.5535 Q172.965 35.5535 171.136 39.1183 Q169.33 42.6599 169.33 49.7895 Q169.33 56.896 171.136 60.4608 Q172.965 64.0024 176.576 64.0024 Q180.21 64.0024 182.016 60.4608 Q183.844 56.896 183.844 49.7895 Q183.844 42.6599 182.016 39.1183 Q180.21 35.5535 176.576 35.5535 M176.576 31.8498 Q182.386 31.8498 185.441 36.4563 Q188.52 41.0396 188.52 49.7895 Q188.52 58.5163 185.441 63.1228 Q182.386 67.7061 176.576 67.7061 Q170.766 67.7061 167.687 63.1228 Q164.631 58.5163 164.631 49.7895 Q164.631 41.0396 167.687 36.4563 Q170.766 31.8498 176.576 31.8498 Z" fill="#000000" fill-rule="nonzero" fill-opacity="1" /><path clip-path="url(#clip950)" d="M206.738 35.5535 Q203.127 35.5535 201.298 39.1183 Q199.492 42.6599 199.492 49.7895 Q199.492 56.896 201.298 60.4608 Q203.127 64.0024 206.738 64.0024 Q210.372 64.0024 212.177 60.4608 Q214.006 56.896 214.006 49.7895 Q214.006 42.6599 212.177 39.1183 Q210.372 35.5535 206.738 35.5535 M206.738 31.8498 Q212.548 31.8498 215.603 36.4563 Q218.682 41.0396 218.682 49.7895 Q218.682 58.5163 215.603 63.1228 Q212.548 67.7061 206.738 67.7061 Q200.927 67.7061 197.849 63.1228 Q194.793 58.5163 194.793 49.7895 Q194.793 41.0396 197.849 36.4563 Q200.927 31.8498 206.738 31.8498 Z" fill="#000000" fill-rule="nonzero" fill-opacity="1" /><path clip-path="url(#clip950)" d="M70.0543 451.132 Q76.42 453.615 78.3616 455.97 Q80.3031 458.325 80.3031 462.272 L80.3031 466.951 L75.4015 466.951 L75.4015 463.514 Q75.4015 461.095 74.2557 459.758 Q73.1099 458.421 68.8448 456.798 L66.1712 455.747 L31.0962 470.166 L31.0962 463.959 L58.978 452.819 L31.0962 441.679 L31.0962 435.473 L70.0543 451.132 Z" fill="#000000" fill-rule="nonzero" fill-opacity="1" /><path clip-path="url(#clip950)" d="M17.2826 413.32 Q24.6032 417.585 31.7646 419.654 Q38.926 421.723 46.2784 421.723 Q53.6308 421.723 60.8559 419.654 Q68.0491 417.553 75.3379 413.32 L75.3379 418.412 Q67.8582 423.187 60.6331 425.574 Q53.408 427.929 46.2784 427.929 Q39.1806 427.929 31.9874 425.574 Q24.7942 423.219 17.2826 418.412 L17.2826 413.32 Z" fill="#000000" fill-rule="nonzero" fill-opacity="1" /><path clip-path="url(#clip950)" d="M61.3333 400.016 L61.3333 389.512 L25.0806 389.512 L27.3723 400.939 L21.5158 400.939 L19.2242 389.576 L19.2242 383.146 L61.3333 383.146 L61.3333 372.643 L66.7442 372.643 L66.7442 400.016 L61.3333 400.016 Z" fill="#000000" fill-rule="nonzero" fill-opacity="1" /><path clip-path="url(#clip950)" d="M17.2826 361.408 L17.2826 356.315 Q24.7942 351.541 31.9874 349.185 Q39.1806 346.798 46.2784 346.798 Q53.408 346.798 60.6331 349.185 Q67.8582 351.541 75.3379 356.315 L75.3379 361.408 Q68.0491 357.174 60.8559 355.106 Q53.6308 353.005 46.2784 353.005 Q38.926 353.005 31.7646 355.106 Q24.6032 357.174 17.2826 361.408 Z" fill="#000000" fill-rule="nonzero" fill-opacity="1" /><polyline clip-path="url(#clip952)" style="stroke:#009af9; stroke-linecap:round; stroke-linejoin:round; stroke-width:4; stroke-opacity:1; fill:none" points="320.922,749.272 331.562,748.797 342.202,747.427 352.842,745.241 363.482,742.312 374.122,738.708 384.762,734.492 395.402,729.722 406.042,724.452 416.682,718.733 427.322,712.61 437.962,706.127 448.602,699.323 459.241,692.236 469.881,684.898 480.521,677.341 491.161,669.595 501.801,661.686 512.441,653.638 523.081,645.475 533.721,637.216 544.361,628.882 555.001,620.49 565.641,612.056 576.281,603.596 586.921,595.122 597.561,586.647 608.201,578.184 618.841,569.741 629.481,561.328 640.121,552.955 650.761,544.629 661.401,536.357 672.041,528.146 682.681,520.001 693.321,511.927 703.961,503.93 714.601,496.013 725.241,488.18 735.881,480.434 746.521,472.779 757.161,465.216 767.801,457.747 778.441,450.376 789.081,443.102 799.721,435.928 810.361,428.855 821.001,421.882 831.64,415.012 842.28,408.244 852.92,401.579 863.56,395.016 874.2,388.556 884.84,382.199 895.48,375.943 906.12,369.789 916.76,363.737 927.4,357.785 938.04,351.933 948.68,346.18 959.32,340.526 969.96,334.969 980.6,329.508 991.24,324.143 1001.88,318.872 1012.52,313.695 1023.16,308.61 1033.8,303.616 1044.44,298.712 1055.08,293.897 1065.72,289.17 1076.36,284.529 1087,279.973 1097.64,275.501 1108.28,271.111 1118.92,266.803 1129.56,262.576 1140.2,258.427 1150.84,254.356 1161.48,250.362 1172.12,246.442 1182.76,242.597 1193.4,238.825 1204.04,235.124 1214.68,231.493 1225.32,227.932 1235.96,224.439 1246.6,221.012 1257.24,217.652 1267.88,214.355 1278.52,211.122 1289.16,207.952 1299.8,204.842 1310.44,201.792 1321.08,198.802 1331.72,195.869 1342.36,192.993 1353,190.173 1363.64,187.407 1374.28,184.696 1384.92,182.037 1395.56,179.43 1406.2,176.873 1416.84,174.367 1427.48,171.909 1438.12,169.5 1448.76,167.137 1459.4,164.821 1470.04,162.55 1480.68,160.323 1491.32,158.14 1501.96,156 1512.6,153.902 1523.24,151.845 1533.88,149.828 1544.52,147.851 1555.16,145.913 1565.8,144.013 1576.44,142.15 1587.08,140.324 1597.72,138.534 1608.36,136.779 1619,135.059 1629.64,133.372 1640.28,131.719 1650.92,130.098 1661.56,128.51 1672.2,126.952 1682.84,125.425 1693.48,123.929 1704.12,122.461 1714.76,121.023 1725.4,119.613 1736.04,118.231 1746.68,116.877 1757.32,115.549 1767.96,114.247 1778.6,112.971 1789.24,111.72 1799.88,110.494 1810.52,109.292 1821.16,108.114 1831.8,106.959 1842.44,105.827 1853.08,104.717 1863.72,103.629 1874.36,102.563 1885,101.518 1895.64,100.493 1906.28,99.4892 1916.92,98.5048 1927.56,97.5398 1938.2,96.594 1948.84,95.6668 1959.48,94.758 1970.12,93.8672 1980.76,92.9939 1991.4,92.138 2002.04,91.299 2012.68,90.4766 2023.32,89.6704 2033.96,88.8802 2044.6,88.1056 2055.24,87.3464 2065.88,86.6022 2076.52,85.8727 2087.16,85.1576 2097.8,84.4567 2108.44,83.7697 2119.08,83.0963 2129.72,82.4362 2140.36,81.7891 2151,81.1549 2161.64,80.5332 2172.28,79.9238 2182.92,79.3265 2193.56,78.741 2204.2,78.1671 2214.84,77.6046 2225.48,77.0531 2236.12,76.5126 2246.76,75.9829 2257.4,75.4635 2268.04,74.9545 2278.68,74.4556 2289.32,73.9665 2299.96,73.4871 2310.6,73.0172 2321.24,72.5566 2331.88,72.1051 2342.52,71.6626 2353.16,71.2288 2363.8,70.8036 2374.44,70.3868 2385.08,69.9783 2395.72,69.5779 2406.36,69.1854 2417,68.8006 2427.64,68.4235 2438.28,68.0539 2448.92,67.6915 "/>
<polyline clip-path="url(#clip952)" style="stroke:#e26f46; stroke-linecap:round; stroke-linejoin:round; stroke-width:4; stroke-opacity:1; fill:none" points="320.922,749.272 331.562,749.272 342.202,749.272 352.842,749.272 363.482,749.272 374.122,749.272 384.762,749.272 395.402,749.272 406.042,749.272 416.682,749.272 427.322,749.272 437.962,749.272 448.602,749.272 459.241,749.272 469.881,749.272 480.521,749.272 491.161,749.272 501.801,749.272 512.441,749.272 523.081,749.272 533.721,749.272 544.361,749.272 555.001,749.272 565.641,749.272 576.281,749.272 586.921,749.272 597.561,749.272 608.201,749.272 618.841,749.272 629.481,749.272 640.121,749.272 650.761,749.272 661.401,749.272 672.041,749.272 682.681,749.272 693.321,749.272 703.961,749.272 714.601,749.272 725.241,749.272 735.881,749.272 746.521,749.272 757.161,749.272 767.801,749.272 778.441,749.272 789.081,749.272 799.721,749.272 810.361,749.272 821.001,749.272 831.64,749.272 842.28,749.272 852.92,749.272 863.56,749.272 874.2,749.272 884.84,749.272 895.48,749.272 906.12,749.272 916.76,749.272 927.4,749.272 938.04,749.272 948.68,749.272 959.32,749.272 969.96,749.272 980.6,749.272 991.24,749.272 1001.88,749.272 1012.52,749.272 1023.16,749.272 1033.8,749.272 1044.44,749.272 1055.08,749.272 1065.72,749.272 1076.36,749.272 1087,749.272 1097.64,749.272 1108.28,749.272 1118.92,749.272 1129.56,749.272 1140.2,749.272 1150.84,749.272 1161.48,749.272 1172.12,749.272 1182.76,749.272 1193.4,749.272 1204.04,749.272 1214.68,749.272 1225.32,749.272 1235.96,749.272 1246.6,749.272 1257.24,749.272 1267.88,749.272 1278.52,749.272 1289.16,749.272 1299.8,749.272 1310.44,749.272 1321.08,749.272 1331.72,749.272 1342.36,749.272 1353,749.272 1363.64,749.272 1374.28,749.272 1384.92,749.272 1395.56,749.272 1406.2,749.272 1416.84,749.272 1427.48,749.272 1438.12,749.272 1448.76,749.272 1459.4,749.272 1470.04,749.272 1480.68,749.272 1491.32,749.272 1501.96,749.272 1512.6,749.272 1523.24,749.272 1533.88,749.272 1544.52,749.272 1555.16,749.272 1565.8,749.272 1576.44,749.272 1587.08,749.272 1597.72,749.272 1608.36,749.272 1619,749.272 1629.64,749.272 1640.28,749.272 1650.92,749.272 1661.56,749.272 1672.2,749.272 1682.84,749.272 1693.48,749.272 1704.12,749.272 1714.76,749.272 1725.4,749.272 1736.04,749.272 1746.68,749.272 1757.32,749.272 1767.96,749.272 1778.6,749.272 1789.24,749.272 1799.88,749.272 1810.52,749.272 1821.16,749.272 1831.8,749.272 1842.44,749.272 1853.08,749.272 1863.72,749.272 1874.36,749.272 1885,749.272 1895.64,749.272 1906.28,749.272 1916.92,749.272 1927.56,749.272 1938.2,749.272 1948.84,749.272 1959.48,749.272 1970.12,749.272 1980.76,749.272 1991.4,749.272 2002.04,749.272 2012.68,749.272 2023.32,749.272 2033.96,749.272 2044.6,749.272 2055.24,749.272 2065.88,749.272 2076.52,749.272 2087.16,749.272 2097.8,749.272 2108.44,749.272 2119.08,749.272 2129.72,749.272 2140.36,749.272 2151,749.272 2161.64,749.272 2172.28,749.272 2182.92,749.272 2193.56,749.272 2204.2,749.272 2214.84,749.272 2225.48,749.272 2236.12,749.272 2246.76,749.272 2257.4,749.272 2268.04,749.272 2278.68,749.272 2289.32,749.272 2299.96,749.272 2310.6,749.272 2321.24,749.272 2331.88,749.272 2342.52,749.272 2353.16,749.272 2363.8,749.272 2374.44,749.272 2385.08,749.272 2395.72,749.272 2406.36,749.272 2417,749.272 2427.64,749.272 2438.28,749.272 2448.92,749.272 "/>
<path clip-path="url(#clip950)" d="M332.271 226.847 L778.833 226.847 L778.833 71.3266 L332.271 71.3266  Z" fill="#ffffff" fill-rule="evenodd" fill-opacity="1"/>
<polyline clip-path="url(#clip950)" style="stroke:#000000; stroke-linecap:round; stroke-linejoin:round; stroke-width:4; stroke-opacity:1; fill:none" points="332.271,226.847 778.833,226.847 778.833,71.3266 332.271,71.3266 332.271,226.847 "/>
<polyline clip-path="url(#clip950)" style="stroke:#009af9; stroke-linecap:round; stroke-linejoin:round; stroke-width:4; stroke-opacity:1; fill:none" points="357.334,123.167 507.712,123.167 "/>
<path clip-path="url(#clip950)" d="M532.776 105.887 L552.637 105.887 L552.637 109.822 L537.451 109.822 L537.451 120.007 L551.155 120.007 L551.155 123.942 L537.451 123.942 L537.451 140.447 L532.776 140.447 L532.776 105.887 Z" fill="#000000" fill-rule="nonzero" fill-opacity="1" /><path clip-path="url(#clip950)" d="M571.433 118.502 Q570.715 118.086 569.859 117.9 Q569.025 117.692 568.007 117.692 Q564.396 117.692 562.451 120.053 Q560.53 122.391 560.53 126.789 L560.53 140.447 L556.248 140.447 L556.248 114.521 L560.53 114.521 L560.53 118.549 Q561.873 116.187 564.025 115.053 Q566.178 113.896 569.257 113.896 Q569.697 113.896 570.229 113.965 Q570.761 114.012 571.41 114.127 L571.433 118.502 Z" fill="#000000" fill-rule="nonzero" fill-opacity="1" /><path clip-path="url(#clip950)" d="M584.905 117.507 Q581.479 117.507 579.488 120.192 Q577.497 122.854 577.497 127.507 Q577.497 132.16 579.465 134.845 Q581.456 137.507 584.905 137.507 Q588.308 137.507 590.298 134.822 Q592.289 132.136 592.289 127.507 Q592.289 122.9 590.298 120.215 Q588.308 117.507 584.905 117.507 M584.905 113.896 Q590.46 113.896 593.632 117.507 Q596.803 121.118 596.803 127.507 Q596.803 133.873 593.632 137.507 Q590.46 141.118 584.905 141.118 Q579.326 141.118 576.155 137.507 Q573.007 133.873 573.007 127.507 Q573.007 121.118 576.155 117.507 Q579.326 113.896 584.905 113.896 Z" fill="#000000" fill-rule="nonzero" fill-opacity="1" /><path clip-path="url(#clip950)" d="M624.048 119.498 Q625.645 116.627 627.868 115.262 Q630.09 113.896 633.099 113.896 Q637.15 113.896 639.349 116.743 Q641.548 119.567 641.548 124.799 L641.548 140.447 L637.266 140.447 L637.266 124.937 Q637.266 121.211 635.946 119.405 Q634.627 117.6 631.918 117.6 Q628.608 117.6 626.687 119.799 Q624.766 121.998 624.766 125.794 L624.766 140.447 L620.483 140.447 L620.483 124.937 Q620.483 121.187 619.164 119.405 Q617.844 117.6 615.09 117.6 Q611.826 117.6 609.905 119.822 Q607.983 122.021 607.983 125.794 L607.983 140.447 L603.701 140.447 L603.701 114.521 L607.983 114.521 L607.983 118.549 Q609.442 116.164 611.479 115.03 Q613.516 113.896 616.317 113.896 Q619.141 113.896 621.108 115.331 Q623.099 116.766 624.048 119.498 Z" fill="#000000" fill-rule="nonzero" fill-opacity="1" /><path clip-path="url(#clip950)" d="M664.673 130.215 L664.673 114.521 L668.932 114.521 L668.932 130.053 Q668.932 133.734 670.367 135.586 Q671.803 137.414 674.673 137.414 Q678.122 137.414 680.113 135.215 Q682.127 133.016 682.127 129.22 L682.127 114.521 L686.386 114.521 L686.386 140.447 L682.127 140.447 L682.127 136.465 Q680.576 138.826 678.515 139.984 Q676.478 141.118 673.77 141.118 Q669.303 141.118 666.988 138.34 Q664.673 135.562 664.673 130.215 M675.39 113.896 L675.39 113.896 Z" fill="#000000" fill-rule="nonzero" fill-opacity="1" /><path clip-path="url(#clip950)" d="M705.39 104.475 Q702.288 109.799 700.784 115.007 Q699.279 120.215 699.279 125.562 Q699.279 130.91 700.784 136.164 Q702.312 141.396 705.39 146.697 L701.687 146.697 Q698.214 141.257 696.478 136.002 Q694.765 130.748 694.765 125.562 Q694.765 120.4 696.478 115.169 Q698.191 109.938 701.687 104.475 L705.39 104.475 Z" fill="#000000" fill-rule="nonzero" fill-opacity="1" /><path clip-path="url(#clip950)" d="M715.066 136.511 L722.705 136.511 L722.705 110.146 L714.395 111.813 L714.395 107.553 L722.659 105.887 L727.335 105.887 L727.335 136.511 L734.973 136.511 L734.973 140.447 L715.066 140.447 L715.066 136.511 Z" fill="#000000" fill-rule="nonzero" fill-opacity="1" /><path clip-path="url(#clip950)" d="M743.145 104.475 L746.848 104.475 Q750.321 109.938 752.034 115.169 Q753.77 120.4 753.77 125.562 Q753.77 130.748 752.034 136.002 Q750.321 141.257 746.848 146.697 L743.145 146.697 Q746.223 141.396 747.728 136.164 Q749.256 130.91 749.256 125.562 Q749.256 120.215 747.728 115.007 Q746.223 109.799 743.145 104.475 Z" fill="#000000" fill-rule="nonzero" fill-opacity="1" /><polyline clip-path="url(#clip950)" style="stroke:#e26f46; stroke-linecap:round; stroke-linejoin:round; stroke-width:4; stroke-opacity:1; fill:none" points="357.334,175.007 507.712,175.007 "/>
<path clip-path="url(#clip950)" d="M532.776 157.727 L552.637 157.727 L552.637 161.662 L537.451 161.662 L537.451 171.847 L551.155 171.847 L551.155 175.782 L537.451 175.782 L537.451 192.287 L532.776 192.287 L532.776 157.727 Z" fill="#000000" fill-rule="nonzero" fill-opacity="1" /><path clip-path="url(#clip950)" d="M571.433 170.342 Q570.715 169.926 569.859 169.74 Q569.025 169.532 568.007 169.532 Q564.396 169.532 562.451 171.893 Q560.53 174.231 560.53 178.629 L560.53 192.287 L556.248 192.287 L556.248 166.361 L560.53 166.361 L560.53 170.389 Q561.873 168.027 564.025 166.893 Q566.178 165.736 569.257 165.736 Q569.697 165.736 570.229 165.805 Q570.761 165.852 571.41 165.967 L571.433 170.342 Z" fill="#000000" fill-rule="nonzero" fill-opacity="1" /><path clip-path="url(#clip950)" d="M584.905 169.347 Q581.479 169.347 579.488 172.032 Q577.497 174.694 577.497 179.347 Q577.497 184 579.465 186.685 Q581.456 189.347 584.905 189.347 Q588.308 189.347 590.298 186.662 Q592.289 183.976 592.289 179.347 Q592.289 174.74 590.298 172.055 Q588.308 169.347 584.905 169.347 M584.905 165.736 Q590.46 165.736 593.632 169.347 Q596.803 172.958 596.803 179.347 Q596.803 185.713 593.632 189.347 Q590.46 192.958 584.905 192.958 Q579.326 192.958 576.155 189.347 Q573.007 185.713 573.007 179.347 Q573.007 172.958 576.155 169.347 Q579.326 165.736 584.905 165.736 Z" fill="#000000" fill-rule="nonzero" fill-opacity="1" /><path clip-path="url(#clip950)" d="M624.048 171.338 Q625.645 168.467 627.868 167.102 Q630.09 165.736 633.099 165.736 Q637.15 165.736 639.349 168.583 Q641.548 171.407 641.548 176.639 L641.548 192.287 L637.266 192.287 L637.266 176.777 Q637.266 173.051 635.946 171.245 Q634.627 169.44 631.918 169.44 Q628.608 169.44 626.687 171.639 Q624.766 173.838 624.766 177.634 L624.766 192.287 L620.483 192.287 L620.483 176.777 Q620.483 173.027 619.164 171.245 Q617.844 169.44 615.09 169.44 Q611.826 169.44 609.905 171.662 Q607.983 173.861 607.983 177.634 L607.983 192.287 L603.701 192.287 L603.701 166.361 L607.983 166.361 L607.983 170.389 Q609.442 168.004 611.479 166.87 Q613.516 165.736 616.317 165.736 Q619.141 165.736 621.108 167.171 Q623.099 168.606 624.048 171.338 Z" fill="#000000" fill-rule="nonzero" fill-opacity="1" /><path clip-path="url(#clip950)" d="M664.673 182.055 L664.673 166.361 L668.932 166.361 L668.932 181.893 Q668.932 185.574 670.367 187.426 Q671.803 189.254 674.673 189.254 Q678.122 189.254 680.113 187.055 Q682.127 184.856 682.127 181.06 L682.127 166.361 L686.386 166.361 L686.386 192.287 L682.127 192.287 L682.127 188.305 Q680.576 190.666 678.515 191.824 Q676.478 192.958 673.77 192.958 Q669.303 192.958 666.988 190.18 Q664.673 187.402 664.673 182.055 M675.39 165.736 L675.39 165.736 Z" fill="#000000" fill-rule="nonzero" fill-opacity="1" /><path clip-path="url(#clip950)" d="M705.39 156.315 Q702.288 161.639 700.784 166.847 Q699.279 172.055 699.279 177.402 Q699.279 182.75 700.784 188.004 Q702.312 193.236 705.39 198.537 L701.687 198.537 Q698.214 193.097 696.478 187.842 Q694.765 182.588 694.765 177.402 Q694.765 172.24 696.478 167.009 Q698.191 161.778 701.687 156.315 L705.39 156.315 Z" fill="#000000" fill-rule="nonzero" fill-opacity="1" /><path clip-path="url(#clip950)" d="M718.284 188.351 L734.603 188.351 L734.603 192.287 L712.659 192.287 L712.659 188.351 Q715.321 185.597 719.904 180.967 Q724.511 176.314 725.691 174.972 Q727.936 172.449 728.816 170.713 Q729.719 168.953 729.719 167.264 Q729.719 164.509 727.774 162.773 Q725.853 161.037 722.751 161.037 Q720.552 161.037 718.099 161.801 Q715.668 162.565 712.89 164.115 L712.89 159.393 Q715.714 158.259 718.168 157.68 Q720.622 157.102 722.659 157.102 Q728.029 157.102 731.224 159.787 Q734.418 162.472 734.418 166.963 Q734.418 169.092 733.608 171.014 Q732.821 172.912 730.714 175.504 Q730.136 176.176 727.034 179.393 Q723.932 182.588 718.284 188.351 Z" fill="#000000" fill-rule="nonzero" fill-opacity="1" /><path clip-path="url(#clip950)" d="M743.145 156.315 L746.848 156.315 Q750.321 161.778 752.034 167.009 Q753.77 172.24 753.77 177.402 Q753.77 182.588 752.034 187.842 Q750.321 193.097 746.848 198.537 L743.145 198.537 Q746.223 193.236 747.728 188.004 Q749.256 182.75 749.256 177.402 Q749.256 172.055 747.728 166.847 Q746.223 161.639 743.145 156.315 Z" fill="#000000" fill-rule="nonzero" fill-opacity="1" /><path clip-path="url(#clip950)" d="M257.082 1729.72 L2512.76 1729.72 L2512.76 1007.24 L257.082 1007.24  Z" fill="#ffffff" fill-rule="evenodd" fill-opacity="1"/>
<defs>
  <clipPath id="clip953">
    <rect x="257" y="1007" width="2257" height="723"/>
  </clipPath>
</defs>
<polyline clip-path="url(#clip953)" style="stroke:#000000; stroke-linecap:round; stroke-linejoin:round; stroke-width:2; stroke-opacity:0.1; fill:none" points="320.922,1729.72 320.922,1007.24 "/>
<polyline clip-path="url(#clip953)" style="stroke:#000000; stroke-linecap:round; stroke-linejoin:round; stroke-width:2; stroke-opacity:0.1; fill:none" points="852.92,1729.72 852.92,1007.24 "/>
<polyline clip-path="url(#clip953)" style="stroke:#000000; stroke-linecap:round; stroke-linejoin:round; stroke-width:2; stroke-opacity:0.1; fill:none" points="1384.92,1729.72 1384.92,1007.24 "/>
<polyline clip-path="url(#clip953)" style="stroke:#000000; stroke-linecap:round; stroke-linejoin:round; stroke-width:2; stroke-opacity:0.1; fill:none" points="1916.92,1729.72 1916.92,1007.24 "/>
<polyline clip-path="url(#clip953)" style="stroke:#000000; stroke-linecap:round; stroke-linejoin:round; stroke-width:2; stroke-opacity:0.1; fill:none" points="2448.92,1729.72 2448.92,1007.24 "/>
<polyline clip-path="url(#clip950)" style="stroke:#000000; stroke-linecap:round; stroke-linejoin:round; stroke-width:4; stroke-opacity:1; fill:none" points="257.082,1729.72 2512.76,1729.72 "/>
<polyline clip-path="url(#clip950)" style="stroke:#000000; stroke-linecap:round; stroke-linejoin:round; stroke-width:4; stroke-opacity:1; fill:none" points="320.922,1729.72 320.922,1710.82 "/>
<polyline clip-path="url(#clip950)" style="stroke:#000000; stroke-linecap:round; stroke-linejoin:round; stroke-width:4; stroke-opacity:1; fill:none" points="852.92,1729.72 852.92,1710.82 "/>
<polyline clip-path="url(#clip950)" style="stroke:#000000; stroke-linecap:round; stroke-linejoin:round; stroke-width:4; stroke-opacity:1; fill:none" points="1384.92,1729.72 1384.92,1710.82 "/>
<polyline clip-path="url(#clip950)" style="stroke:#000000; stroke-linecap:round; stroke-linejoin:round; stroke-width:4; stroke-opacity:1; fill:none" points="1916.92,1729.72 1916.92,1710.82 "/>
<polyline clip-path="url(#clip950)" style="stroke:#000000; stroke-linecap:round; stroke-linejoin:round; stroke-width:4; stroke-opacity:1; fill:none" points="2448.92,1729.72 2448.92,1710.82 "/>
<path clip-path="url(#clip950)" d="M320.922 1761.92 Q317.311 1761.92 315.482 1765.48 Q313.677 1769.02 313.677 1776.15 Q313.677 1783.26 315.482 1786.83 Q317.311 1790.37 320.922 1790.37 Q324.556 1790.37 326.362 1786.83 Q328.19 1783.26 328.19 1776.15 Q328.19 1769.02 326.362 1765.48 Q324.556 1761.92 320.922 1761.92 M320.922 1758.21 Q326.732 1758.21 329.788 1762.82 Q332.866 1767.4 332.866 1776.15 Q332.866 1784.88 329.788 1789.49 Q326.732 1794.07 320.922 1794.07 Q315.112 1794.07 312.033 1789.49 Q308.977 1784.88 308.977 1776.15 Q308.977 1767.4 312.033 1762.82 Q315.112 1758.21 320.922 1758.21 Z" fill="#000000" fill-rule="nonzero" fill-opacity="1" /><path clip-path="url(#clip950)" d="M843.198 1758.84 L861.555 1758.84 L861.555 1762.78 L847.481 1762.78 L847.481 1771.25 Q848.499 1770.9 849.518 1770.74 Q850.536 1770.55 851.555 1770.55 Q857.342 1770.55 860.721 1773.72 Q864.101 1776.9 864.101 1782.31 Q864.101 1787.89 860.629 1790.99 Q857.157 1794.07 850.837 1794.07 Q848.661 1794.07 846.393 1793.7 Q844.147 1793.33 841.74 1792.59 L841.74 1787.89 Q843.823 1789.02 846.045 1789.58 Q848.268 1790.14 850.745 1790.14 Q854.749 1790.14 857.087 1788.03 Q859.425 1785.92 859.425 1782.31 Q859.425 1778.7 857.087 1776.59 Q854.749 1774.49 850.745 1774.49 Q848.87 1774.49 846.995 1774.9 Q845.143 1775.32 843.198 1776.2 L843.198 1758.84 Z" fill="#000000" fill-rule="nonzero" fill-opacity="1" /><path clip-path="url(#clip950)" d="M1359.61 1789.46 L1367.25 1789.46 L1367.25 1763.1 L1358.94 1764.77 L1358.94 1760.51 L1367.2 1758.84 L1371.88 1758.84 L1371.88 1789.46 L1379.51 1789.46 L1379.51 1793.4 L1359.61 1793.4 L1359.61 1789.46 Z" fill="#000000" fill-rule="nonzero" fill-opacity="1" /><path clip-path="url(#clip950)" d="M1398.96 1761.92 Q1395.35 1761.92 1393.52 1765.48 Q1391.71 1769.02 1391.71 1776.15 Q1391.71 1783.26 1393.52 1786.83 Q1395.35 1790.37 1398.96 1790.37 Q1402.59 1790.37 1404.4 1786.83 Q1406.23 1783.26 1406.23 1776.15 Q1406.23 1769.02 1404.4 1765.48 Q1402.59 1761.92 1398.96 1761.92 M1398.96 1758.21 Q1404.77 1758.21 1407.82 1762.82 Q1410.9 1767.4 1410.9 1776.15 Q1410.9 1784.88 1407.82 1789.49 Q1404.77 1794.07 1398.96 1794.07 Q1393.15 1794.07 1390.07 1789.49 Q1387.01 1784.88 1387.01 1776.15 Q1387.01 1767.4 1390.07 1762.82 Q1393.15 1758.21 1398.96 1758.21 Z" fill="#000000" fill-rule="nonzero" fill-opacity="1" /><path clip-path="url(#clip950)" d="M1892.1 1789.46 L1899.74 1789.46 L1899.74 1763.1 L1891.43 1764.77 L1891.43 1760.51 L1899.7 1758.84 L1904.37 1758.84 L1904.37 1789.46 L1912.01 1789.46 L1912.01 1793.4 L1892.1 1793.4 L1892.1 1789.46 Z" fill="#000000" fill-rule="nonzero" fill-opacity="1" /><path clip-path="url(#clip950)" d="M1921.5 1758.84 L1939.86 1758.84 L1939.86 1762.78 L1925.78 1762.78 L1925.78 1771.25 Q1926.8 1770.9 1927.82 1770.74 Q1928.84 1770.55 1929.86 1770.55 Q1935.64 1770.55 1939.02 1773.72 Q1942.4 1776.9 1942.4 1782.31 Q1942.4 1787.89 1938.93 1790.99 Q1935.46 1794.07 1929.14 1794.07 Q1926.96 1794.07 1924.7 1793.7 Q1922.45 1793.33 1920.04 1792.59 L1920.04 1787.89 Q1922.13 1789.02 1924.35 1789.58 Q1926.57 1790.14 1929.05 1790.14 Q1933.05 1790.14 1935.39 1788.03 Q1937.73 1785.92 1937.73 1782.31 Q1937.73 1778.7 1935.39 1776.59 Q1933.05 1774.49 1929.05 1774.49 Q1927.17 1774.49 1925.3 1774.9 Q1923.45 1775.32 1921.5 1776.2 L1921.5 1758.84 Z" fill="#000000" fill-rule="nonzero" fill-opacity="1" /><path clip-path="url(#clip950)" d="M2427.69 1789.46 L2444.01 1789.46 L2444.01 1793.4 L2422.06 1793.4 L2422.06 1789.46 Q2424.73 1786.71 2429.31 1782.08 Q2433.92 1777.43 2435.1 1776.09 Q2437.34 1773.56 2438.22 1771.83 Q2439.12 1770.07 2439.12 1768.38 Q2439.12 1765.62 2437.18 1763.89 Q2435.26 1762.15 2432.16 1762.15 Q2429.96 1762.15 2427.5 1762.91 Q2425.07 1763.68 2422.3 1765.23 L2422.3 1760.51 Q2425.12 1759.37 2427.57 1758.79 Q2430.03 1758.21 2432.06 1758.21 Q2437.43 1758.21 2440.63 1760.9 Q2443.82 1763.59 2443.82 1768.08 Q2443.82 1770.21 2443.01 1772.13 Q2442.23 1774.02 2440.12 1776.62 Q2439.54 1777.29 2436.44 1780.51 Q2433.34 1783.7 2427.69 1789.46 Z" fill="#000000" fill-rule="nonzero" fill-opacity="1" /><path clip-path="url(#clip950)" d="M2463.82 1761.92 Q2460.21 1761.92 2458.38 1765.48 Q2456.58 1769.02 2456.58 1776.15 Q2456.58 1783.26 2458.38 1786.83 Q2460.21 1790.37 2463.82 1790.37 Q2467.46 1790.37 2469.26 1786.83 Q2471.09 1783.26 2471.09 1776.15 Q2471.09 1769.02 2469.26 1765.48 Q2467.46 1761.92 2463.82 1761.92 M2463.82 1758.21 Q2469.63 1758.21 2472.69 1762.82 Q2475.77 1767.4 2475.77 1776.15 Q2475.77 1784.88 2472.69 1789.49 Q2469.63 1794.07 2463.82 1794.07 Q2458.01 1794.07 2454.93 1789.49 Q2451.88 1784.88 2451.88 1776.15 Q2451.88 1767.4 2454.93 1762.82 Q2458.01 1758.21 2463.82 1758.21 Z" fill="#000000" fill-rule="nonzero" fill-opacity="1" /><path clip-path="url(#clip950)" d="M1255.09 1829.46 L1295.29 1829.46 L1295.29 1834.87 L1278.42 1834.87 L1278.42 1876.98 L1271.96 1876.98 L1271.96 1834.87 L1255.09 1834.87 L1255.09 1829.46 Z" fill="#000000" fill-rule="nonzero" fill-opacity="1" /><path clip-path="url(#clip950)" d="M1299.24 1841.34 L1305.09 1841.34 L1305.09 1876.98 L1299.24 1876.98 L1299.24 1841.34 M1299.24 1827.46 L1305.09 1827.46 L1305.09 1834.87 L1299.24 1834.87 L1299.24 1827.46 Z" fill="#000000" fill-rule="nonzero" fill-opacity="1" /><path clip-path="url(#clip950)" d="M1345.1 1848.18 Q1347.3 1844.23 1350.35 1842.35 Q1353.41 1840.48 1357.55 1840.48 Q1363.12 1840.48 1366.14 1844.39 Q1369.16 1848.27 1369.16 1855.47 L1369.16 1876.98 L1363.28 1876.98 L1363.28 1855.66 Q1363.28 1850.53 1361.46 1848.05 Q1359.65 1845.57 1355.92 1845.57 Q1351.37 1845.57 1348.73 1848.59 Q1346.09 1851.62 1346.09 1856.84 L1346.09 1876.98 L1340.2 1876.98 L1340.2 1855.66 Q1340.2 1850.5 1338.39 1848.05 Q1336.57 1845.57 1332.78 1845.57 Q1328.3 1845.57 1325.65 1848.62 Q1323.01 1851.65 1323.01 1856.84 L1323.01 1876.98 L1317.12 1876.98 L1317.12 1841.34 L1323.01 1841.34 L1323.01 1846.87 Q1325.02 1843.6 1327.82 1842.04 Q1330.62 1840.48 1334.47 1840.48 Q1338.35 1840.48 1341.06 1842.45 Q1343.8 1844.42 1345.1 1848.18 Z" fill="#000000" fill-rule="nonzero" fill-opacity="1" /><path clip-path="url(#clip950)" d="M1411.34 1857.7 L1411.34 1860.56 L1384.41 1860.56 Q1384.79 1866.61 1388.04 1869.79 Q1391.32 1872.94 1397.14 1872.94 Q1400.51 1872.94 1403.67 1872.11 Q1406.85 1871.29 1409.97 1869.63 L1409.97 1875.17 Q1406.82 1876.51 1403.51 1877.21 Q1400.2 1877.91 1396.79 1877.91 Q1388.26 1877.91 1383.26 1872.94 Q1378.3 1867.98 1378.3 1859.51 Q1378.3 1850.76 1383.01 1845.63 Q1387.75 1840.48 1395.77 1840.48 Q1402.97 1840.48 1407.14 1845.12 Q1411.34 1849.74 1411.34 1857.7 M1405.48 1855.98 Q1405.42 1851.17 1402.77 1848.31 Q1400.16 1845.44 1395.84 1845.44 Q1390.93 1845.44 1387.97 1848.21 Q1385.05 1850.98 1384.6 1856.01 L1405.48 1855.98 Z" fill="#000000" fill-rule="nonzero" fill-opacity="1" /><path clip-path="url(#clip950)" d="M1455.74 1827.52 Q1451.47 1834.84 1449.4 1842 Q1447.33 1849.17 1447.33 1856.52 Q1447.33 1863.87 1449.4 1871.1 Q1451.5 1878.29 1455.74 1885.58 L1450.64 1885.58 Q1445.87 1878.1 1443.48 1870.87 Q1441.13 1863.65 1441.13 1856.52 Q1441.13 1849.42 1443.48 1842.23 Q1445.84 1835.03 1450.64 1827.52 L1455.74 1827.52 Z" fill="#000000" fill-rule="nonzero" fill-opacity="1" /><path clip-path="url(#clip950)" d="M1489.83 1842.39 L1489.83 1847.92 Q1487.34 1846.65 1484.67 1846.01 Q1482 1845.38 1479.13 1845.38 Q1474.77 1845.38 1472.57 1846.71 Q1470.41 1848.05 1470.41 1850.73 Q1470.41 1852.76 1471.97 1853.94 Q1473.53 1855.09 1478.24 1856.14 L1480.25 1856.58 Q1486.48 1857.92 1489.09 1860.37 Q1491.74 1862.79 1491.74 1867.15 Q1491.74 1872.11 1487.79 1875.01 Q1483.87 1877.91 1477 1877.91 Q1474.13 1877.91 1471.02 1877.33 Q1467.93 1876.79 1464.49 1875.68 L1464.49 1869.63 Q1467.74 1871.32 1470.89 1872.18 Q1474.04 1873.01 1477.13 1873.01 Q1481.26 1873.01 1483.49 1871.6 Q1485.72 1870.17 1485.72 1867.59 Q1485.72 1865.21 1484.1 1863.93 Q1482.51 1862.66 1477.06 1861.48 L1475.03 1861.01 Q1469.58 1859.86 1467.16 1857.5 Q1464.74 1855.12 1464.74 1850.98 Q1464.74 1845.95 1468.31 1843.21 Q1471.87 1840.48 1478.43 1840.48 Q1481.68 1840.48 1484.54 1840.95 Q1487.41 1841.43 1489.83 1842.39 Z" fill="#000000" fill-rule="nonzero" fill-opacity="1" /><path clip-path="url(#clip950)" d="M1500.14 1827.52 L1505.23 1827.52 Q1510.01 1835.03 1512.36 1842.23 Q1514.75 1849.42 1514.75 1856.52 Q1514.75 1863.65 1512.36 1870.87 Q1510.01 1878.1 1505.23 1885.58 L1500.14 1885.58 Q1504.37 1878.29 1506.44 1871.1 Q1508.54 1863.87 1508.54 1856.52 Q1508.54 1849.17 1506.44 1842 Q1504.37 1834.84 1500.14 1827.52 Z" fill="#000000" fill-rule="nonzero" fill-opacity="1" /><polyline clip-path="url(#clip953)" style="stroke:#000000; stroke-linecap:round; stroke-linejoin:round; stroke-width:2; stroke-opacity:0.1; fill:none" points="257.082,1709.27 2512.76,1709.27 "/>
<polyline clip-path="url(#clip953)" style="stroke:#000000; stroke-linecap:round; stroke-linejoin:round; stroke-width:2; stroke-opacity:0.1; fill:none" points="257.082,1534.39 2512.76,1534.39 "/>
<polyline clip-path="url(#clip953)" style="stroke:#000000; stroke-linecap:round; stroke-linejoin:round; stroke-width:2; stroke-opacity:0.1; fill:none" points="257.082,1359.51 2512.76,1359.51 "/>
<polyline clip-path="url(#clip953)" style="stroke:#000000; stroke-linecap:round; stroke-linejoin:round; stroke-width:2; stroke-opacity:0.1; fill:none" points="257.082,1184.63 2512.76,1184.63 "/>
<polyline clip-path="url(#clip953)" style="stroke:#000000; stroke-linecap:round; stroke-linejoin:round; stroke-width:2; stroke-opacity:0.1; fill:none" points="257.082,1009.75 2512.76,1009.75 "/>
<polyline clip-path="url(#clip950)" style="stroke:#000000; stroke-linecap:round; stroke-linejoin:round; stroke-width:4; stroke-opacity:1; fill:none" points="257.082,1729.72 257.082,1007.24 "/>
<polyline clip-path="url(#clip950)" style="stroke:#000000; stroke-linecap:round; stroke-linejoin:round; stroke-width:4; stroke-opacity:1; fill:none" points="257.082,1709.27 275.98,1709.27 "/>
<polyline clip-path="url(#clip950)" style="stroke:#000000; stroke-linecap:round; stroke-linejoin:round; stroke-width:4; stroke-opacity:1; fill:none" points="257.082,1534.39 275.98,1534.39 "/>
<polyline clip-path="url(#clip950)" style="stroke:#000000; stroke-linecap:round; stroke-linejoin:round; stroke-width:4; stroke-opacity:1; fill:none" points="257.082,1359.51 275.98,1359.51 "/>
<polyline clip-path="url(#clip950)" style="stroke:#000000; stroke-linecap:round; stroke-linejoin:round; stroke-width:4; stroke-opacity:1; fill:none" points="257.082,1184.63 275.98,1184.63 "/>
<polyline clip-path="url(#clip950)" style="stroke:#000000; stroke-linecap:round; stroke-linejoin:round; stroke-width:4; stroke-opacity:1; fill:none" points="257.082,1009.75 275.98,1009.75 "/>
<path clip-path="url(#clip950)" d="M131.345 1695.07 Q127.733 1695.07 125.905 1698.64 Q124.099 1702.18 124.099 1709.31 Q124.099 1716.41 125.905 1719.98 Q127.733 1723.52 131.345 1723.52 Q134.979 1723.52 136.784 1719.98 Q138.613 1716.41 138.613 1709.31 Q138.613 1702.18 136.784 1698.64 Q134.979 1695.07 131.345 1695.07 M131.345 1691.37 Q137.155 1691.37 140.21 1695.97 Q143.289 1700.56 143.289 1709.31 Q143.289 1718.03 140.21 1722.64 Q137.155 1727.22 131.345 1727.22 Q125.534 1727.22 122.456 1722.64 Q119.4 1718.03 119.4 1709.31 Q119.4 1700.56 122.456 1695.97 Q125.534 1691.37 131.345 1691.37 Z" fill="#000000" fill-rule="nonzero" fill-opacity="1" /><path clip-path="url(#clip950)" d="M151.506 1720.67 L156.391 1720.67 L156.391 1726.55 L151.506 1726.55 L151.506 1720.67 Z" fill="#000000" fill-rule="nonzero" fill-opacity="1" /><path clip-path="url(#clip950)" d="M176.576 1695.07 Q172.965 1695.07 171.136 1698.64 Q169.33 1702.18 169.33 1709.31 Q169.33 1716.41 171.136 1719.98 Q172.965 1723.52 176.576 1723.52 Q180.21 1723.52 182.016 1719.98 Q183.844 1716.41 183.844 1709.31 Q183.844 1702.18 182.016 1698.64 Q180.21 1695.07 176.576 1695.07 M176.576 1691.37 Q182.386 1691.37 185.441 1695.97 Q188.52 1700.56 188.52 1709.31 Q188.52 1718.03 185.441 1722.64 Q182.386 1727.22 176.576 1727.22 Q170.766 1727.22 167.687 1722.64 Q164.631 1718.03 164.631 1709.31 Q164.631 1700.56 167.687 1695.97 Q170.766 1691.37 176.576 1691.37 Z" fill="#000000" fill-rule="nonzero" fill-opacity="1" /><path clip-path="url(#clip950)" d="M206.738 1695.07 Q203.127 1695.07 201.298 1698.64 Q199.492 1702.18 199.492 1709.31 Q199.492 1716.41 201.298 1719.98 Q203.127 1723.52 206.738 1723.52 Q210.372 1723.52 212.177 1719.98 Q214.006 1716.41 214.006 1709.31 Q214.006 1702.18 212.177 1698.64 Q210.372 1695.07 206.738 1695.07 M206.738 1691.37 Q212.548 1691.37 215.603 1695.97 Q218.682 1700.56 218.682 1709.31 Q218.682 1718.03 215.603 1722.64 Q212.548 1727.22 206.738 1727.22 Q200.927 1727.22 197.849 1722.64 Q194.793 1718.03 194.793 1709.31 Q194.793 1700.56 197.849 1695.97 Q200.927 1691.37 206.738 1691.37 Z" fill="#000000" fill-rule="nonzero" fill-opacity="1" /><path clip-path="url(#clip950)" d="M132.34 1520.19 Q128.729 1520.19 126.9 1523.76 Q125.095 1527.3 125.095 1534.43 Q125.095 1541.53 126.9 1545.1 Q128.729 1548.64 132.34 1548.64 Q135.974 1548.64 137.78 1545.1 Q139.608 1541.53 139.608 1534.43 Q139.608 1527.3 137.78 1523.76 Q135.974 1520.19 132.34 1520.19 M132.34 1516.49 Q138.15 1516.49 141.206 1521.09 Q144.284 1525.68 144.284 1534.43 Q144.284 1543.15 141.206 1547.76 Q138.15 1552.34 132.34 1552.34 Q126.53 1552.34 123.451 1547.76 Q120.396 1543.15 120.396 1534.43 Q120.396 1525.68 123.451 1521.09 Q126.53 1516.49 132.34 1516.49 Z" fill="#000000" fill-rule="nonzero" fill-opacity="1" /><path clip-path="url(#clip950)" d="M152.502 1545.79 L157.386 1545.79 L157.386 1551.67 L152.502 1551.67 L152.502 1545.79 Z" fill="#000000" fill-rule="nonzero" fill-opacity="1" /><path clip-path="url(#clip950)" d="M171.599 1547.74 L187.918 1547.74 L187.918 1551.67 L165.974 1551.67 L165.974 1547.74 Q168.636 1544.98 173.219 1540.35 Q177.826 1535.7 179.006 1534.36 Q181.252 1531.84 182.131 1530.1 Q183.034 1528.34 183.034 1526.65 Q183.034 1523.9 181.09 1522.16 Q179.168 1520.42 176.067 1520.42 Q173.867 1520.42 171.414 1521.19 Q168.983 1521.95 166.205 1523.5 L166.205 1518.78 Q169.03 1517.65 171.483 1517.07 Q173.937 1516.49 175.974 1516.49 Q181.344 1516.49 184.539 1519.17 Q187.733 1521.86 187.733 1526.35 Q187.733 1528.48 186.923 1530.4 Q186.136 1532.3 184.029 1534.89 Q183.451 1535.56 180.349 1538.78 Q177.247 1541.97 171.599 1547.74 Z" fill="#000000" fill-rule="nonzero" fill-opacity="1" /><path clip-path="url(#clip950)" d="M197.779 1517.11 L216.136 1517.11 L216.136 1521.05 L202.062 1521.05 L202.062 1529.52 Q203.08 1529.17 204.099 1529.01 Q205.117 1528.83 206.136 1528.83 Q211.923 1528.83 215.302 1532 Q218.682 1535.17 218.682 1540.59 Q218.682 1546.16 215.21 1549.27 Q211.738 1552.34 205.418 1552.34 Q203.242 1552.34 200.974 1551.97 Q198.728 1551.6 196.321 1550.86 L196.321 1546.16 Q198.404 1547.3 200.627 1547.85 Q202.849 1548.41 205.326 1548.41 Q209.33 1548.41 211.668 1546.3 Q214.006 1544.2 214.006 1540.59 Q214.006 1536.97 211.668 1534.87 Q209.33 1532.76 205.326 1532.76 Q203.451 1532.76 201.576 1533.18 Q199.724 1533.59 197.779 1534.47 L197.779 1517.11 Z" fill="#000000" fill-rule="nonzero" fill-opacity="1" /><path clip-path="url(#clip950)" d="M131.345 1345.31 Q127.733 1345.31 125.905 1348.88 Q124.099 1352.42 124.099 1359.55 Q124.099 1366.65 125.905 1370.22 Q127.733 1373.76 131.345 1373.76 Q134.979 1373.76 136.784 1370.22 Q138.613 1366.65 138.613 1359.55 Q138.613 1352.42 136.784 1348.88 Q134.979 1345.31 131.345 1345.31 M131.345 1341.61 Q137.155 1341.61 140.21 1346.22 Q143.289 1350.8 143.289 1359.55 Q143.289 1368.28 140.21 1372.88 Q137.155 1377.46 131.345 1377.46 Q125.534 1377.46 122.456 1372.88 Q119.4 1368.28 119.4 1359.55 Q119.4 1350.8 122.456 1346.22 Q125.534 1341.61 131.345 1341.61 Z" fill="#000000" fill-rule="nonzero" fill-opacity="1" /><path clip-path="url(#clip950)" d="M151.506 1370.91 L156.391 1370.91 L156.391 1376.79 L151.506 1376.79 L151.506 1370.91 Z" fill="#000000" fill-rule="nonzero" fill-opacity="1" /><path clip-path="url(#clip950)" d="M166.622 1342.23 L184.979 1342.23 L184.979 1346.17 L170.905 1346.17 L170.905 1354.64 Q171.923 1354.29 172.942 1354.13 Q173.96 1353.95 174.979 1353.95 Q180.766 1353.95 184.145 1357.12 Q187.525 1360.29 187.525 1365.71 Q187.525 1371.28 184.053 1374.39 Q180.58 1377.46 174.261 1377.46 Q172.085 1377.46 169.817 1377.09 Q167.571 1376.72 165.164 1375.98 L165.164 1371.28 Q167.247 1372.42 169.469 1372.97 Q171.692 1373.53 174.168 1373.53 Q178.173 1373.53 180.511 1371.42 Q182.849 1369.32 182.849 1365.71 Q182.849 1362.09 180.511 1359.99 Q178.173 1357.88 174.168 1357.88 Q172.293 1357.88 170.418 1358.3 Q168.567 1358.71 166.622 1359.59 L166.622 1342.23 Z" fill="#000000" fill-rule="nonzero" fill-opacity="1" /><path clip-path="url(#clip950)" d="M206.738 1345.31 Q203.127 1345.31 201.298 1348.88 Q199.492 1352.42 199.492 1359.55 Q199.492 1366.65 201.298 1370.22 Q203.127 1373.76 206.738 1373.76 Q210.372 1373.76 212.177 1370.22 Q214.006 1366.65 214.006 1359.55 Q214.006 1352.42 212.177 1348.88 Q210.372 1345.31 206.738 1345.31 M206.738 1341.61 Q212.548 1341.61 215.603 1346.22 Q218.682 1350.8 218.682 1359.55 Q218.682 1368.28 215.603 1372.88 Q212.548 1377.46 206.738 1377.46 Q200.927 1377.46 197.849 1372.88 Q194.793 1368.28 194.793 1359.55 Q194.793 1350.8 197.849 1346.22 Q200.927 1341.61 206.738 1341.61 Z" fill="#000000" fill-rule="nonzero" fill-opacity="1" /><path clip-path="url(#clip950)" d="M132.34 1170.43 Q128.729 1170.43 126.9 1174 Q125.095 1177.54 125.095 1184.67 Q125.095 1191.78 126.9 1195.34 Q128.729 1198.88 132.34 1198.88 Q135.974 1198.88 137.78 1195.34 Q139.608 1191.78 139.608 1184.67 Q139.608 1177.54 137.78 1174 Q135.974 1170.43 132.34 1170.43 M132.34 1166.73 Q138.15 1166.73 141.206 1171.34 Q144.284 1175.92 144.284 1184.67 Q144.284 1193.4 141.206 1198 Q138.15 1202.59 132.34 1202.59 Q126.53 1202.59 123.451 1198 Q120.396 1193.4 120.396 1184.67 Q120.396 1175.92 123.451 1171.34 Q126.53 1166.73 132.34 1166.73 Z" fill="#000000" fill-rule="nonzero" fill-opacity="1" /><path clip-path="url(#clip950)" d="M152.502 1196.03 L157.386 1196.03 L157.386 1201.91 L152.502 1201.91 L152.502 1196.03 Z" fill="#000000" fill-rule="nonzero" fill-opacity="1" /><path clip-path="url(#clip950)" d="M166.391 1167.35 L188.613 1167.35 L188.613 1169.34 L176.067 1201.91 L171.182 1201.91 L182.988 1171.29 L166.391 1171.29 L166.391 1167.35 Z" fill="#000000" fill-rule="nonzero" fill-opacity="1" /><path clip-path="url(#clip950)" d="M197.779 1167.35 L216.136 1167.35 L216.136 1171.29 L202.062 1171.29 L202.062 1179.76 Q203.08 1179.41 204.099 1179.25 Q205.117 1179.07 206.136 1179.07 Q211.923 1179.07 215.302 1182.24 Q218.682 1185.41 218.682 1190.83 Q218.682 1196.4 215.21 1199.51 Q211.738 1202.59 205.418 1202.59 Q203.242 1202.59 200.974 1202.22 Q198.728 1201.84 196.321 1201.1 L196.321 1196.4 Q198.404 1197.54 200.627 1198.09 Q202.849 1198.65 205.326 1198.65 Q209.33 1198.65 211.668 1196.54 Q214.006 1194.44 214.006 1190.83 Q214.006 1187.22 211.668 1185.11 Q209.33 1183 205.326 1183 Q203.451 1183 201.576 1183.42 Q199.724 1183.84 197.779 1184.72 L197.779 1167.35 Z" fill="#000000" fill-rule="nonzero" fill-opacity="1" /><path clip-path="url(#clip950)" d="M122.155 1023.1 L129.794 1023.1 L129.794 996.734 L121.483 998.401 L121.483 994.141 L129.747 992.475 L134.423 992.475 L134.423 1023.1 L142.062 1023.1 L142.062 1027.03 L122.155 1027.03 L122.155 1023.1 Z" fill="#000000" fill-rule="nonzero" fill-opacity="1" /><path clip-path="url(#clip950)" d="M151.506 1021.16 L156.391 1021.16 L156.391 1027.03 L151.506 1027.03 L151.506 1021.16 Z" fill="#000000" fill-rule="nonzero" fill-opacity="1" /><path clip-path="url(#clip950)" d="M176.576 995.553 Q172.965 995.553 171.136 999.118 Q169.33 1002.66 169.33 1009.79 Q169.33 1016.9 171.136 1020.46 Q172.965 1024 176.576 1024 Q180.21 1024 182.016 1020.46 Q183.844 1016.9 183.844 1009.79 Q183.844 1002.66 182.016 999.118 Q180.21 995.553 176.576 995.553 M176.576 991.85 Q182.386 991.85 185.441 996.456 Q188.52 1001.04 188.52 1009.79 Q188.52 1018.52 185.441 1023.12 Q182.386 1027.71 176.576 1027.71 Q170.766 1027.71 167.687 1023.12 Q164.631 1018.52 164.631 1009.79 Q164.631 1001.04 167.687 996.456 Q170.766 991.85 176.576 991.85 Z" fill="#000000" fill-rule="nonzero" fill-opacity="1" /><path clip-path="url(#clip950)" d="M206.738 995.553 Q203.127 995.553 201.298 999.118 Q199.492 1002.66 199.492 1009.79 Q199.492 1016.9 201.298 1020.46 Q203.127 1024 206.738 1024 Q210.372 1024 212.177 1020.46 Q214.006 1016.9 214.006 1009.79 Q214.006 1002.66 212.177 999.118 Q210.372 995.553 206.738 995.553 M206.738 991.85 Q212.548 991.85 215.603 996.456 Q218.682 1001.04 218.682 1009.79 Q218.682 1018.52 215.603 1023.12 Q212.548 1027.71 206.738 1027.71 Q200.927 1027.71 197.849 1023.12 Q194.793 1018.52 194.793 1009.79 Q194.793 1001.04 197.849 996.456 Q200.927 991.85 206.738 991.85 Z" fill="#000000" fill-rule="nonzero" fill-opacity="1" /><path clip-path="url(#clip950)" d="M70.0543 1411.13 Q76.42 1413.61 78.3616 1415.97 Q80.3031 1418.33 80.3031 1422.27 L80.3031 1426.95 L75.4015 1426.95 L75.4015 1423.51 Q75.4015 1421.09 74.2557 1419.76 Q73.1099 1418.42 68.8448 1416.8 L66.1712 1415.75 L31.0962 1430.17 L31.0962 1423.96 L58.978 1412.82 L31.0962 1401.68 L31.0962 1395.47 L70.0543 1411.13 Z" fill="#000000" fill-rule="nonzero" fill-opacity="1" /><path clip-path="url(#clip950)" d="M17.2826 1373.32 Q24.6032 1377.58 31.7646 1379.65 Q38.926 1381.72 46.2784 1381.72 Q53.6308 1381.72 60.8559 1379.65 Q68.0491 1377.55 75.3379 1373.32 L75.3379 1378.41 Q67.8582 1383.19 60.6331 1385.57 Q53.408 1387.93 46.2784 1387.93 Q39.1806 1387.93 31.9874 1385.57 Q24.7942 1383.22 17.2826 1378.41 L17.2826 1373.32 Z" fill="#000000" fill-rule="nonzero" fill-opacity="1" /><path clip-path="url(#clip950)" d="M61.3333 1355.59 L61.3333 1333.15 L66.7442 1333.15 L66.7442 1363.33 L61.3333 1363.33 Q57.5457 1359.67 51.18 1353.36 Q44.7825 1347.03 42.9364 1345.41 Q39.4671 1342.32 37.08 1341.11 Q34.661 1339.87 32.3375 1339.87 Q28.5499 1339.87 26.1628 1342.54 Q23.7756 1345.18 23.7756 1349.45 Q23.7756 1352.47 24.826 1355.85 Q25.8763 1359.19 28.0088 1363.01 L21.5158 1363.01 Q19.9562 1359.12 19.1605 1355.75 Q18.3648 1352.38 18.3648 1349.58 Q18.3648 1342.19 22.0569 1337.8 Q25.749 1333.41 31.9237 1333.41 Q34.852 1333.41 37.4937 1334.52 Q40.1037 1335.6 43.6685 1338.5 Q44.5915 1339.3 49.0157 1343.56 Q53.408 1347.83 61.3333 1355.59 Z" fill="#000000" fill-rule="nonzero" fill-opacity="1" /><path clip-path="url(#clip950)" d="M17.2826 1321.41 L17.2826 1316.32 Q24.7942 1311.54 31.9874 1309.19 Q39.1806 1306.8 46.2784 1306.8 Q53.408 1306.8 60.6331 1309.19 Q67.8582 1311.54 75.3379 1316.32 L75.3379 1321.41 Q68.0491 1317.17 60.8559 1315.11 Q53.6308 1313 46.2784 1313 Q38.926 1313 31.7646 1315.11 Q24.6032 1317.17 17.2826 1321.41 Z" fill="#000000" fill-rule="nonzero" fill-opacity="1" /><polyline clip-path="url(#clip953)" style="stroke:#009af9; stroke-linecap:round; stroke-linejoin:round; stroke-width:4; stroke-opacity:1; fill:none" points="320.922,1709.27 331.562,1709.27 342.202,1709.27 352.842,1709.27 363.482,1709.27 374.122,1709.27 384.762,1709.27 395.402,1709.27 406.042,1709.27 416.682,1709.27 427.322,1709.27 437.962,1709.27 448.602,1709.27 459.241,1709.27 469.881,1709.27 480.521,1709.27 491.161,1709.27 501.801,1709.27 512.441,1709.27 523.081,1709.27 533.721,1709.27 544.361,1709.27 555.001,1709.27 565.641,1709.27 576.281,1709.27 586.921,1709.27 597.561,1709.27 608.201,1709.27 618.841,1709.27 629.481,1709.27 640.121,1709.27 650.761,1709.27 661.401,1709.27 672.041,1709.27 682.681,1709.27 693.321,1709.27 703.961,1709.27 714.601,1709.27 725.241,1709.27 735.881,1709.27 746.521,1709.27 757.161,1709.27 767.801,1709.27 778.441,1709.27 789.081,1709.27 799.721,1709.27 810.361,1709.27 821.001,1709.27 831.64,1709.27 842.28,1709.27 852.92,1709.27 863.56,1709.27 874.2,1709.27 884.84,1709.27 895.48,1709.27 906.12,1709.27 916.76,1709.27 927.4,1709.27 938.04,1709.27 948.68,1709.27 959.32,1709.27 969.96,1709.27 980.6,1709.27 991.24,1709.27 1001.88,1709.27 1012.52,1709.27 1023.16,1709.27 1033.8,1709.27 1044.44,1709.27 1055.08,1709.27 1065.72,1709.27 1076.36,1709.27 1087,1709.27 1097.64,1709.27 1108.28,1709.27 1118.92,1709.27 1129.56,1709.27 1140.2,1709.27 1150.84,1709.27 1161.48,1709.27 1172.12,1709.27 1182.76,1709.27 1193.4,1709.27 1204.04,1709.27 1214.68,1709.27 1225.32,1709.27 1235.96,1709.27 1246.6,1709.27 1257.24,1709.27 1267.88,1709.27 1278.52,1709.27 1289.16,1709.27 1299.8,1709.27 1310.44,1709.27 1321.08,1709.27 1331.72,1709.27 1342.36,1709.27 1353,1709.27 1363.64,1709.27 1374.28,1709.27 1384.92,1709.27 1395.56,1709.27 1406.2,1709.27 1416.84,1709.27 1427.48,1709.27 1438.12,1709.27 1448.76,1709.27 1459.4,1709.27 1470.04,1709.27 1480.68,1709.27 1491.32,1709.27 1501.96,1709.27 1512.6,1709.27 1523.24,1709.27 1533.88,1709.27 1544.52,1709.27 1555.16,1709.27 1565.8,1709.27 1576.44,1709.27 1587.08,1709.27 1597.72,1709.27 1608.36,1709.27 1619,1709.27 1629.64,1709.27 1640.28,1709.27 1650.92,1709.27 1661.56,1709.27 1672.2,1709.27 1682.84,1709.27 1693.48,1709.27 1704.12,1709.27 1714.76,1709.27 1725.4,1709.27 1736.04,1709.27 1746.68,1709.27 1757.32,1709.27 1767.96,1709.27 1778.6,1709.27 1789.24,1709.27 1799.88,1709.27 1810.52,1709.27 1821.16,1709.27 1831.8,1709.27 1842.44,1709.27 1853.08,1709.27 1863.72,1709.27 1874.36,1709.27 1885,1709.27 1895.64,1709.27 1906.28,1709.27 1916.92,1709.27 1927.56,1709.27 1938.2,1709.27 1948.84,1709.27 1959.48,1709.27 1970.12,1709.27 1980.76,1709.27 1991.4,1709.27 2002.04,1709.27 2012.68,1709.27 2023.32,1709.27 2033.96,1709.27 2044.6,1709.27 2055.24,1709.27 2065.88,1709.27 2076.52,1709.27 2087.16,1709.27 2097.8,1709.27 2108.44,1709.27 2119.08,1709.27 2129.72,1709.27 2140.36,1709.27 2151,1709.27 2161.64,1709.27 2172.28,1709.27 2182.92,1709.27 2193.56,1709.27 2204.2,1709.27 2214.84,1709.27 2225.48,1709.27 2236.12,1709.27 2246.76,1709.27 2257.4,1709.27 2268.04,1709.27 2278.68,1709.27 2289.32,1709.27 2299.96,1709.27 2310.6,1709.27 2321.24,1709.27 2331.88,1709.27 2342.52,1709.27 2353.16,1709.27 2363.8,1709.27 2374.44,1709.27 2385.08,1709.27 2395.72,1709.27 2406.36,1709.27 2417,1709.27 2427.64,1709.27 2438.28,1709.27 2448.92,1709.27 "/>
<polyline clip-path="url(#clip953)" style="stroke:#e26f46; stroke-linecap:round; stroke-linejoin:round; stroke-width:4; stroke-opacity:1; fill:none" points="320.922,1709.27 331.562,1708.8 342.202,1707.43 352.842,1705.24 363.482,1702.31 374.122,1698.71 384.762,1694.49 395.402,1689.72 406.042,1684.45 416.682,1678.73 427.322,1672.61 437.962,1666.13 448.602,1659.32 459.241,1652.24 469.881,1644.9 480.521,1637.34 491.161,1629.6 501.801,1621.69 512.441,1613.64 523.081,1605.47 533.721,1597.22 544.361,1588.88 555.001,1580.49 565.641,1572.06 576.281,1563.6 586.921,1555.12 597.561,1546.65 608.201,1538.18 618.841,1529.74 629.481,1521.33 640.121,1512.96 650.761,1504.63 661.401,1496.36 672.041,1488.15 682.681,1480 693.321,1471.93 703.961,1463.93 714.601,1456.01 725.241,1448.18 735.881,1440.43 746.521,1432.78 757.161,1425.22 767.801,1417.75 778.441,1410.38 789.081,1403.1 799.721,1395.93 810.361,1388.85 821.001,1381.88 831.64,1375.01 842.28,1368.24 852.92,1361.58 863.56,1355.02 874.2,1348.56 884.84,1342.2 895.48,1335.94 906.12,1329.79 916.76,1323.74 927.4,1317.79 938.04,1311.93 948.68,1306.18 959.32,1300.53 969.96,1294.97 980.6,1289.51 991.24,1284.14 1001.88,1278.87 1012.52,1273.7 1023.16,1268.61 1033.8,1263.62 1044.44,1258.71 1055.08,1253.9 1065.72,1249.17 1076.36,1244.53 1087,1239.97 1097.64,1235.5 1108.28,1231.11 1118.92,1226.8 1129.56,1222.58 1140.2,1218.43 1150.84,1214.36 1161.48,1210.36 1172.12,1206.44 1182.76,1202.6 1193.4,1198.82 1204.04,1195.12 1214.68,1191.49 1225.32,1187.93 1235.96,1184.44 1246.6,1181.01 1257.24,1177.65 1267.88,1174.36 1278.52,1171.12 1289.16,1167.95 1299.8,1164.84 1310.44,1161.79 1321.08,1158.8 1331.72,1155.87 1342.36,1152.99 1353,1150.17 1363.64,1147.41 1374.28,1144.7 1384.92,1142.04 1395.56,1139.43 1406.2,1136.87 1416.84,1134.37 1427.48,1131.91 1438.12,1129.5 1448.76,1127.14 1459.4,1124.82 1470.04,1122.55 1480.68,1120.32 1491.32,1118.14 1501.96,1116 1512.6,1113.9 1523.24,1111.85 1533.88,1109.83 1544.52,1107.85 1555.16,1105.91 1565.8,1104.01 1576.44,1102.15 1587.08,1100.32 1597.72,1098.53 1608.36,1096.78 1619,1095.06 1629.64,1093.37 1640.28,1091.72 1650.92,1090.1 1661.56,1088.51 1672.2,1086.95 1682.84,1085.43 1693.48,1083.93 1704.12,1082.46 1714.76,1081.02 1725.4,1079.61 1736.04,1078.23 1746.68,1076.88 1757.32,1075.55 1767.96,1074.25 1778.6,1072.97 1789.24,1071.72 1799.88,1070.49 1810.52,1069.29 1821.16,1068.11 1831.8,1066.96 1842.44,1065.83 1853.08,1064.72 1863.72,1063.63 1874.36,1062.56 1885,1061.52 1895.64,1060.49 1906.28,1059.49 1916.92,1058.5 1927.56,1057.54 1938.2,1056.59 1948.84,1055.67 1959.48,1054.76 1970.12,1053.87 1980.76,1052.99 1991.4,1052.14 2002.04,1051.3 2012.68,1050.48 2023.32,1049.67 2033.96,1048.88 2044.6,1048.11 2055.24,1047.35 2065.88,1046.6 2076.52,1045.87 2087.16,1045.16 2097.8,1044.46 2108.44,1043.77 2119.08,1043.1 2129.72,1042.44 2140.36,1041.79 2151,1041.15 2161.64,1040.53 2172.28,1039.92 2182.92,1039.33 2193.56,1038.74 2204.2,1038.17 2214.84,1037.6 2225.48,1037.05 2236.12,1036.51 2246.76,1035.98 2257.4,1035.46 2268.04,1034.95 2278.68,1034.46 2289.32,1033.97 2299.96,1033.49 2310.6,1033.02 2321.24,1032.56 2331.88,1032.11 2342.52,1031.66 2353.16,1031.23 2363.8,1030.8 2374.44,1030.39 2385.08,1029.98 2395.72,1029.58 2406.36,1029.19 2417,1028.8 2427.64,1028.42 2438.28,1028.05 2448.92,1027.69 "/>
<path clip-path="url(#clip950)" d="M332.271 1186.85 L778.833 1186.85 L778.833 1031.33 L332.271 1031.33  Z" fill="#ffffff" fill-rule="evenodd" fill-opacity="1"/>
<polyline clip-path="url(#clip950)" style="stroke:#000000; stroke-linecap:round; stroke-linejoin:round; stroke-width:4; stroke-opacity:1; fill:none" points="332.271,1186.85 778.833,1186.85 778.833,1031.33 332.271,1031.33 332.271,1186.85 "/>
<polyline clip-path="url(#clip950)" style="stroke:#009af9; stroke-linecap:round; stroke-linejoin:round; stroke-width:4; stroke-opacity:1; fill:none" points="357.334,1083.17 507.712,1083.17 "/>
<path clip-path="url(#clip950)" d="M532.776 1065.89 L552.637 1065.89 L552.637 1069.82 L537.451 1069.82 L537.451 1080.01 L551.155 1080.01 L551.155 1083.94 L537.451 1083.94 L537.451 1100.45 L532.776 1100.45 L532.776 1065.89 Z" fill="#000000" fill-rule="nonzero" fill-opacity="1" /><path clip-path="url(#clip950)" d="M571.433 1078.5 Q570.715 1078.09 569.859 1077.9 Q569.025 1077.69 568.007 1077.69 Q564.396 1077.69 562.451 1080.05 Q560.53 1082.39 560.53 1086.79 L560.53 1100.45 L556.248 1100.45 L556.248 1074.52 L560.53 1074.52 L560.53 1078.55 Q561.873 1076.19 564.025 1075.05 Q566.178 1073.9 569.257 1073.9 Q569.697 1073.9 570.229 1073.97 Q570.761 1074.01 571.41 1074.13 L571.433 1078.5 Z" fill="#000000" fill-rule="nonzero" fill-opacity="1" /><path clip-path="url(#clip950)" d="M584.905 1077.51 Q581.479 1077.51 579.488 1080.19 Q577.497 1082.85 577.497 1087.51 Q577.497 1092.16 579.465 1094.84 Q581.456 1097.51 584.905 1097.51 Q588.308 1097.51 590.298 1094.82 Q592.289 1092.14 592.289 1087.51 Q592.289 1082.9 590.298 1080.22 Q588.308 1077.51 584.905 1077.51 M584.905 1073.9 Q590.46 1073.9 593.632 1077.51 Q596.803 1081.12 596.803 1087.51 Q596.803 1093.87 593.632 1097.51 Q590.46 1101.12 584.905 1101.12 Q579.326 1101.12 576.155 1097.51 Q573.007 1093.87 573.007 1087.51 Q573.007 1081.12 576.155 1077.51 Q579.326 1073.9 584.905 1073.9 Z" fill="#000000" fill-rule="nonzero" fill-opacity="1" /><path clip-path="url(#clip950)" d="M624.048 1079.5 Q625.645 1076.63 627.868 1075.26 Q630.09 1073.9 633.099 1073.9 Q637.15 1073.9 639.349 1076.74 Q641.548 1079.57 641.548 1084.8 L641.548 1100.45 L637.266 1100.45 L637.266 1084.94 Q637.266 1081.21 635.946 1079.41 Q634.627 1077.6 631.918 1077.6 Q628.608 1077.6 626.687 1079.8 Q624.766 1082 624.766 1085.79 L624.766 1100.45 L620.483 1100.45 L620.483 1084.94 Q620.483 1081.19 619.164 1079.41 Q617.844 1077.6 615.09 1077.6 Q611.826 1077.6 609.905 1079.82 Q607.983 1082.02 607.983 1085.79 L607.983 1100.45 L603.701 1100.45 L603.701 1074.52 L607.983 1074.52 L607.983 1078.55 Q609.442 1076.16 611.479 1075.03 Q613.516 1073.9 616.317 1073.9 Q619.141 1073.9 621.108 1075.33 Q623.099 1076.77 624.048 1079.5 Z" fill="#000000" fill-rule="nonzero" fill-opacity="1" /><path clip-path="url(#clip950)" d="M664.673 1090.22 L664.673 1074.52 L668.932 1074.52 L668.932 1090.05 Q668.932 1093.73 670.367 1095.59 Q671.803 1097.41 674.673 1097.41 Q678.122 1097.41 680.113 1095.22 Q682.127 1093.02 682.127 1089.22 L682.127 1074.52 L686.386 1074.52 L686.386 1100.45 L682.127 1100.45 L682.127 1096.47 Q680.576 1098.83 678.515 1099.98 Q676.478 1101.12 673.77 1101.12 Q669.303 1101.12 666.988 1098.34 Q664.673 1095.56 664.673 1090.22 M675.39 1073.9 L675.39 1073.9 Z" fill="#000000" fill-rule="nonzero" fill-opacity="1" /><path clip-path="url(#clip950)" d="M705.39 1064.47 Q702.288 1069.8 700.784 1075.01 Q699.279 1080.22 699.279 1085.56 Q699.279 1090.91 700.784 1096.16 Q702.312 1101.4 705.39 1106.7 L701.687 1106.7 Q698.214 1101.26 696.478 1096 Q694.765 1090.75 694.765 1085.56 Q694.765 1080.4 696.478 1075.17 Q698.191 1069.94 701.687 1064.47 L705.39 1064.47 Z" fill="#000000" fill-rule="nonzero" fill-opacity="1" /><path clip-path="url(#clip950)" d="M715.066 1096.51 L722.705 1096.51 L722.705 1070.15 L714.395 1071.81 L714.395 1067.55 L722.659 1065.89 L727.335 1065.89 L727.335 1096.51 L734.973 1096.51 L734.973 1100.45 L715.066 1100.45 L715.066 1096.51 Z" fill="#000000" fill-rule="nonzero" fill-opacity="1" /><path clip-path="url(#clip950)" d="M743.145 1064.47 L746.848 1064.47 Q750.321 1069.94 752.034 1075.17 Q753.77 1080.4 753.77 1085.56 Q753.77 1090.75 752.034 1096 Q750.321 1101.26 746.848 1106.7 L743.145 1106.7 Q746.223 1101.4 747.728 1096.16 Q749.256 1090.91 749.256 1085.56 Q749.256 1080.22 747.728 1075.01 Q746.223 1069.8 743.145 1064.47 Z" fill="#000000" fill-rule="nonzero" fill-opacity="1" /><polyline clip-path="url(#clip950)" style="stroke:#e26f46; stroke-linecap:round; stroke-linejoin:round; stroke-width:4; stroke-opacity:1; fill:none" points="357.334,1135.01 507.712,1135.01 "/>
<path clip-path="url(#clip950)" d="M532.776 1117.73 L552.637 1117.73 L552.637 1121.66 L537.451 1121.66 L537.451 1131.85 L551.155 1131.85 L551.155 1135.78 L537.451 1135.78 L537.451 1152.29 L532.776 1152.29 L532.776 1117.73 Z" fill="#000000" fill-rule="nonzero" fill-opacity="1" /><path clip-path="url(#clip950)" d="M571.433 1130.34 Q570.715 1129.93 569.859 1129.74 Q569.025 1129.53 568.007 1129.53 Q564.396 1129.53 562.451 1131.89 Q560.53 1134.23 560.53 1138.63 L560.53 1152.29 L556.248 1152.29 L556.248 1126.36 L560.53 1126.36 L560.53 1130.39 Q561.873 1128.03 564.025 1126.89 Q566.178 1125.74 569.257 1125.74 Q569.697 1125.74 570.229 1125.81 Q570.761 1125.85 571.41 1125.97 L571.433 1130.34 Z" fill="#000000" fill-rule="nonzero" fill-opacity="1" /><path clip-path="url(#clip950)" d="M584.905 1129.35 Q581.479 1129.35 579.488 1132.03 Q577.497 1134.69 577.497 1139.35 Q577.497 1144 579.465 1146.68 Q581.456 1149.35 584.905 1149.35 Q588.308 1149.35 590.298 1146.66 Q592.289 1143.98 592.289 1139.35 Q592.289 1134.74 590.298 1132.06 Q588.308 1129.35 584.905 1129.35 M584.905 1125.74 Q590.46 1125.74 593.632 1129.35 Q596.803 1132.96 596.803 1139.35 Q596.803 1145.71 593.632 1149.35 Q590.46 1152.96 584.905 1152.96 Q579.326 1152.96 576.155 1149.35 Q573.007 1145.71 573.007 1139.35 Q573.007 1132.96 576.155 1129.35 Q579.326 1125.74 584.905 1125.74 Z" fill="#000000" fill-rule="nonzero" fill-opacity="1" /><path clip-path="url(#clip950)" d="M624.048 1131.34 Q625.645 1128.47 627.868 1127.1 Q630.09 1125.74 633.099 1125.74 Q637.15 1125.74 639.349 1128.58 Q641.548 1131.41 641.548 1136.64 L641.548 1152.29 L637.266 1152.29 L637.266 1136.78 Q637.266 1133.05 635.946 1131.25 Q634.627 1129.44 631.918 1129.44 Q628.608 1129.44 626.687 1131.64 Q624.766 1133.84 624.766 1137.63 L624.766 1152.29 L620.483 1152.29 L620.483 1136.78 Q620.483 1133.03 619.164 1131.25 Q617.844 1129.44 615.09 1129.44 Q611.826 1129.44 609.905 1131.66 Q607.983 1133.86 607.983 1137.63 L607.983 1152.29 L603.701 1152.29 L603.701 1126.36 L607.983 1126.36 L607.983 1130.39 Q609.442 1128 611.479 1126.87 Q613.516 1125.74 616.317 1125.74 Q619.141 1125.74 621.108 1127.17 Q623.099 1128.61 624.048 1131.34 Z" fill="#000000" fill-rule="nonzero" fill-opacity="1" /><path clip-path="url(#clip950)" d="M664.673 1142.06 L664.673 1126.36 L668.932 1126.36 L668.932 1141.89 Q668.932 1145.57 670.367 1147.43 Q671.803 1149.25 674.673 1149.25 Q678.122 1149.25 680.113 1147.06 Q682.127 1144.86 682.127 1141.06 L682.127 1126.36 L686.386 1126.36 L686.386 1152.29 L682.127 1152.29 L682.127 1148.31 Q680.576 1150.67 678.515 1151.82 Q676.478 1152.96 673.77 1152.96 Q669.303 1152.96 666.988 1150.18 Q664.673 1147.4 664.673 1142.06 M675.39 1125.74 L675.39 1125.74 Z" fill="#000000" fill-rule="nonzero" fill-opacity="1" /><path clip-path="url(#clip950)" d="M705.39 1116.31 Q702.288 1121.64 700.784 1126.85 Q699.279 1132.06 699.279 1137.4 Q699.279 1142.75 700.784 1148 Q702.312 1153.24 705.39 1158.54 L701.687 1158.54 Q698.214 1153.1 696.478 1147.84 Q694.765 1142.59 694.765 1137.4 Q694.765 1132.24 696.478 1127.01 Q698.191 1121.78 701.687 1116.31 L705.39 1116.31 Z" fill="#000000" fill-rule="nonzero" fill-opacity="1" /><path clip-path="url(#clip950)" d="M718.284 1148.35 L734.603 1148.35 L734.603 1152.29 L712.659 1152.29 L712.659 1148.35 Q715.321 1145.6 719.904 1140.97 Q724.511 1136.31 725.691 1134.97 Q727.936 1132.45 728.816 1130.71 Q729.719 1128.95 729.719 1127.26 Q729.719 1124.51 727.774 1122.77 Q725.853 1121.04 722.751 1121.04 Q720.552 1121.04 718.099 1121.8 Q715.668 1122.56 712.89 1124.12 L712.89 1119.39 Q715.714 1118.26 718.168 1117.68 Q720.622 1117.1 722.659 1117.1 Q728.029 1117.1 731.224 1119.79 Q734.418 1122.47 734.418 1126.96 Q734.418 1129.09 733.608 1131.01 Q732.821 1132.91 730.714 1135.5 Q730.136 1136.18 727.034 1139.39 Q723.932 1142.59 718.284 1148.35 Z" fill="#000000" fill-rule="nonzero" fill-opacity="1" /><path clip-path="url(#clip950)" d="M743.145 1116.31 L746.848 1116.31 Q750.321 1121.78 752.034 1127.01 Q753.77 1132.24 753.77 1137.4 Q753.77 1142.59 752.034 1147.84 Q750.321 1153.1 746.848 1158.54 L743.145 1158.54 Q746.223 1153.24 747.728 1148 Q749.256 1142.75 749.256 1137.4 Q749.256 1132.06 747.728 1126.85 Q746.223 1121.64 743.145 1116.31 Z" fill="#000000" fill-rule="nonzero" fill-opacity="1" /></svg>
