<?xml version="1.0" encoding="utf-8"?>
<svg xmlns="http://www.w3.org/2000/svg" xmlns:xlink="http://www.w3.org/1999/xlink" width="600" height="400" viewBox="0 0 2400 1600">
<defs>
  <clipPath id="clip700">
    <rect x="0" y="0" width="2400" height="1600"/>
  </clipPath>
</defs>
<path clip-path="url(#clip700)" d="M0 1600 L2400 1600 L2400 0 L0 0  Z" fill="#ffffff" fill-rule="evenodd" fill-opacity="1"/>
<defs>
  <clipPath id="clip701">
    <rect x="480" y="0" width="1681" height="1600"/>
  </clipPath>
</defs>
<path clip-path="url(#clip700)" d="M232.389 1423.18 L2352.76 1423.18 L2352.76 47.2441 L232.389 47.2441  Z" fill="#ffffff" fill-rule="evenodd" fill-opacity="1"/>
<defs>
  <clipPath id="clip702">
    <rect x="232" y="47" width="2121" height="1377"/>
  </clipPath>
</defs>
<polyline clip-path="url(#clip702)" style="stroke:#000000; stroke-linecap:round; stroke-linejoin:round; stroke-width:2; stroke-opacity:0.1; fill:none" points="292.4,1423.18 292.4,47.2441 "/>
<polyline clip-path="url(#clip702)" style="stroke:#000000; stroke-linecap:round; stroke-linejoin:round; stroke-width:2; stroke-opacity:0.1; fill:none" points="625.791,1423.18 625.791,47.2441 "/>
<polyline clip-path="url(#clip702)" style="stroke:#000000; stroke-linecap:round; stroke-linejoin:round; stroke-width:2; stroke-opacity:0.1; fill:none" points="959.182,1423.18 959.182,47.2441 "/>
<polyline clip-path="url(#clip702)" style="stroke:#000000; stroke-linecap:round; stroke-linejoin:round; stroke-width:2; stroke-opacity:0.1; fill:none" points="1292.57,1423.18 1292.57,47.2441 "/>
<polyline clip-path="url(#clip702)" style="stroke:#000000; stroke-linecap:round; stroke-linejoin:round; stroke-width:2; stroke-opacity:0.1; fill:none" points="1625.96,1423.18 1625.96,47.2441 "/>
<polyline clip-path="url(#clip702)" style="stroke:#000000; stroke-linecap:round; stroke-linejoin:round; stroke-width:2; stroke-opacity:0.1; fill:none" points="1959.35,1423.18 1959.35,47.2441 "/>
<polyline clip-path="url(#clip702)" style="stroke:#000000; stroke-linecap:round; stroke-linejoin:round; stroke-width:2; stroke-opacity:0.1; fill:none" points="2292.75,1423.18 2292.75,47.2441 "/>
<polyline clip-path="url(#clip702)" style="stroke:#000000; stroke-linecap:round; stroke-linejoin:round; stroke-width:2; stroke-opacity:0.1; fill:none" points="232.389,1384.24 2352.76,1384.24 "/>
<polyline clip-path="url(#clip702)" style="stroke:#000000; stroke-linecap:round; stroke-linejoin:round; stroke-width:2; stroke-opacity:0.1; fill:none" points="232.389,1073.27 2352.76,1073.27 "/>
<polyline clip-path="url(#clip702)" style="stroke:#000000; stroke-linecap:round; stroke-linejoin:round; stroke-width:2; stroke-opacity:0.1; fill:none" points="232.389,762.305 2352.76,762.305 "/>
<polyline clip-path="url(#clip702)" style="stroke:#000000; stroke-linecap:round; stroke-linejoin:round; stroke-width:2; stroke-opacity:0.1; fill:none" points="232.389,451.339 2352.76,451.339 "/>
<polyline clip-path="url(#clip702)" style="stroke:#000000; stroke-linecap:round; stroke-linejoin:round; stroke-width:2; stroke-opacity:0.1; fill:none" points="232.389,140.372 2352.76,140.372 "/>
<polyline clip-path="url(#clip700)" style="stroke:#000000; stroke-linecap:round; stroke-linejoin:round; stroke-width:4; stroke-opacity:1; fill:none" points="232.389,1423.18 2352.76,1423.18 "/>
<polyline clip-path="url(#clip700)" style="stroke:#000000; stroke-linecap:round; stroke-linejoin:round; stroke-width:4; stroke-opacity:1; fill:none" points="292.4,1423.18 292.4,1404.28 "/>
<polyline clip-path="url(#clip700)" style="stroke:#000000; stroke-linecap:round; stroke-linejoin:round; stroke-width:4; stroke-opacity:1; fill:none" points="625.791,1423.18 625.791,1404.28 "/>
<polyline clip-path="url(#clip700)" style="stroke:#000000; stroke-linecap:round; stroke-linejoin:round; stroke-width:4; stroke-opacity:1; fill:none" points="959.182,1423.18 959.182,1404.28 "/>
<polyline clip-path="url(#clip700)" style="stroke:#000000; stroke-linecap:round; stroke-linejoin:round; stroke-width:4; stroke-opacity:1; fill:none" points="1292.57,1423.18 1292.57,1404.28 "/>
<polyline clip-path="url(#clip700)" style="stroke:#000000; stroke-linecap:round; stroke-linejoin:round; stroke-width:4; stroke-opacity:1; fill:none" points="1625.96,1423.18 1625.96,1404.28 "/>
<polyline clip-path="url(#clip700)" style="stroke:#000000; stroke-linecap:round; stroke-linejoin:round; stroke-width:4; stroke-opacity:1; fill:none" points="1959.35,1423.18 1959.35,1404.28 "/>
<polyline clip-path="url(#clip700)" style="stroke:#000000; stroke-linecap:round; stroke-linejoin:round; stroke-width:4; stroke-opacity:1; fill:none" points="2292.75,1423.18 2292.75,1404.28 "/>
<path clip-path="url(#clip700)" d="M292.4 1454.1 Q288.789 1454.1 286.96 1457.66 Q285.154 1461.2 285.154 1468.33 Q285.154 1475.44 286.96 1479.01 Q288.789 1482.55 292.4 1482.55 Q296.034 1482.55 297.84 1479.01 Q299.668 1475.44 299.668 1468.33 Q299.668 1461.2 297.84 1457.66 Q296.034 1454.1 292.4 1454.1 M292.4 1450.39 Q298.21 1450.39 301.265 1455 Q304.344 1459.58 304.344 1468.33 Q304.344 1477.06 301.265 1481.67 Q298.21 1486.25 292.4 1486.25 Q286.59 1486.25 283.511 1481.67 Q280.455 1477.06 280.455 1468.33 Q280.455 1459.58 283.511 1455 Q286.59 1450.39 292.4 1450.39 Z" fill="#000000" fill-rule="nonzero" fill-opacity="1" /><path clip-path="url(#clip700)" d="M616.173 1481.64 L623.812 1481.64 L623.812 1455.28 L615.501 1456.95 L615.501 1452.69 L623.765 1451.02 L628.441 1451.02 L628.441 1481.64 L636.08 1481.64 L636.08 1485.58 L616.173 1485.58 L616.173 1481.64 Z" fill="#000000" fill-rule="nonzero" fill-opacity="1" /><path clip-path="url(#clip700)" d="M953.834 1481.64 L970.154 1481.64 L970.154 1485.58 L948.209 1485.58 L948.209 1481.64 Q950.872 1478.89 955.455 1474.26 Q960.061 1469.61 961.242 1468.27 Q963.487 1465.74 964.367 1464.01 Q965.27 1462.25 965.27 1460.56 Q965.27 1457.8 963.325 1456.07 Q961.404 1454.33 958.302 1454.33 Q956.103 1454.33 953.649 1455.09 Q951.219 1455.86 948.441 1457.41 L948.441 1452.69 Q951.265 1451.55 953.719 1450.97 Q956.172 1450.39 958.209 1450.39 Q963.58 1450.39 966.774 1453.08 Q969.969 1455.77 969.969 1460.26 Q969.969 1462.39 969.158 1464.31 Q968.371 1466.2 966.265 1468.8 Q965.686 1469.47 962.584 1472.69 Q959.483 1475.88 953.834 1481.64 Z" fill="#000000" fill-rule="nonzero" fill-opacity="1" /><path clip-path="url(#clip700)" d="M1296.82 1466.95 Q1300.18 1467.66 1302.05 1469.93 Q1303.95 1472.2 1303.95 1475.53 Q1303.95 1480.65 1300.43 1483.45 Q1296.91 1486.25 1290.43 1486.25 Q1288.26 1486.25 1285.94 1485.81 Q1283.65 1485.39 1281.2 1484.54 L1281.2 1480.02 Q1283.14 1481.16 1285.45 1481.74 Q1287.77 1482.32 1290.29 1482.32 Q1294.69 1482.32 1296.98 1480.58 Q1299.3 1478.84 1299.3 1475.53 Q1299.3 1472.48 1297.14 1470.77 Q1295.01 1469.03 1291.2 1469.03 L1287.17 1469.03 L1287.17 1465.19 L1291.38 1465.19 Q1294.83 1465.19 1296.66 1463.82 Q1298.49 1462.43 1298.49 1459.84 Q1298.49 1457.18 1296.59 1455.77 Q1294.71 1454.33 1291.2 1454.33 Q1289.27 1454.33 1287.07 1454.75 Q1284.88 1455.16 1282.24 1456.04 L1282.24 1451.88 Q1284.9 1451.14 1287.21 1450.77 Q1289.55 1450.39 1291.61 1450.39 Q1296.94 1450.39 1300.04 1452.83 Q1303.14 1455.23 1303.14 1459.35 Q1303.14 1462.22 1301.5 1464.21 Q1299.85 1466.18 1296.82 1466.95 Z" fill="#000000" fill-rule="nonzero" fill-opacity="1" /><path clip-path="url(#clip700)" d="M1628.97 1455.09 L1617.17 1473.54 L1628.97 1473.54 L1628.97 1455.09 M1627.75 1451.02 L1633.63 1451.02 L1633.63 1473.54 L1638.56 1473.54 L1638.56 1477.43 L1633.63 1477.43 L1633.63 1485.58 L1628.97 1485.58 L1628.97 1477.43 L1613.37 1477.43 L1613.37 1472.92 L1627.75 1451.02 Z" fill="#000000" fill-rule="nonzero" fill-opacity="1" /><path clip-path="url(#clip700)" d="M1949.63 1451.02 L1967.99 1451.02 L1967.99 1454.96 L1953.91 1454.96 L1953.91 1463.43 Q1954.93 1463.08 1955.95 1462.92 Q1956.97 1462.73 1957.99 1462.73 Q1963.78 1462.73 1967.16 1465.9 Q1970.54 1469.08 1970.54 1474.49 Q1970.54 1480.07 1967.06 1483.17 Q1963.59 1486.25 1957.27 1486.25 Q1955.1 1486.25 1952.83 1485.88 Q1950.58 1485.51 1948.17 1484.77 L1948.17 1480.07 Q1950.26 1481.2 1952.48 1481.76 Q1954.7 1482.32 1957.18 1482.32 Q1961.18 1482.32 1963.52 1480.21 Q1965.86 1478.1 1965.86 1474.49 Q1965.86 1470.88 1963.52 1468.77 Q1961.18 1466.67 1957.18 1466.67 Q1955.3 1466.67 1953.43 1467.08 Q1951.58 1467.5 1949.63 1468.38 L1949.63 1451.02 Z" fill="#000000" fill-rule="nonzero" fill-opacity="1" /><path clip-path="url(#clip700)" d="M2293.15 1466.44 Q2290 1466.44 2288.15 1468.59 Q2286.32 1470.74 2286.32 1474.49 Q2286.32 1478.22 2288.15 1480.39 Q2290 1482.55 2293.15 1482.55 Q2296.3 1482.55 2298.13 1480.39 Q2299.98 1478.22 2299.98 1474.49 Q2299.98 1470.74 2298.13 1468.59 Q2296.3 1466.44 2293.15 1466.44 M2302.43 1451.78 L2302.43 1456.04 Q2300.67 1455.21 2298.87 1454.77 Q2297.09 1454.33 2295.33 1454.33 Q2290.7 1454.33 2288.24 1457.45 Q2285.81 1460.58 2285.47 1466.9 Q2286.83 1464.89 2288.89 1463.82 Q2290.95 1462.73 2293.43 1462.73 Q2298.64 1462.73 2301.65 1465.9 Q2304.68 1469.05 2304.68 1474.49 Q2304.68 1479.82 2301.53 1483.03 Q2298.38 1486.25 2293.15 1486.25 Q2287.16 1486.25 2283.98 1481.67 Q2280.81 1477.06 2280.81 1468.33 Q2280.81 1460.14 2284.7 1455.28 Q2288.59 1450.39 2295.14 1450.39 Q2296.9 1450.39 2298.68 1450.74 Q2300.49 1451.09 2302.43 1451.78 Z" fill="#000000" fill-rule="nonzero" fill-opacity="1" /><path clip-path="url(#clip700)" d="M1162.74 1520.52 L1202.94 1520.52 L1202.94 1525.93 L1186.07 1525.93 L1186.07 1568.04 L1179.61 1568.04 L1179.61 1525.93 L1162.74 1525.93 L1162.74 1520.52 Z" fill="#000000" fill-rule="nonzero" fill-opacity="1" /><path clip-path="url(#clip700)" d="M1206.89 1532.4 L1212.75 1532.4 L1212.75 1568.04 L1206.89 1568.04 L1206.89 1532.4 M1206.89 1518.52 L1212.75 1518.52 L1212.75 1525.93 L1206.89 1525.93 L1206.89 1518.52 Z" fill="#000000" fill-rule="nonzero" fill-opacity="1" /><path clip-path="url(#clip700)" d="M1252.76 1539.24 Q1254.95 1535.29 1258.01 1533.41 Q1261.06 1531.54 1265.2 1531.54 Q1270.77 1531.54 1273.79 1535.45 Q1276.82 1539.33 1276.82 1546.53 L1276.82 1568.04 L1270.93 1568.04 L1270.93 1546.72 Q1270.93 1541.59 1269.11 1539.11 Q1267.3 1536.63 1263.58 1536.63 Q1259.03 1536.63 1256.38 1539.65 Q1253.74 1542.68 1253.74 1547.9 L1253.74 1568.04 L1247.85 1568.04 L1247.85 1546.72 Q1247.85 1541.56 1246.04 1539.11 Q1244.23 1536.63 1240.44 1536.63 Q1235.95 1536.63 1233.31 1539.68 Q1230.67 1542.71 1230.67 1547.9 L1230.67 1568.04 L1224.78 1568.04 L1224.78 1532.4 L1230.67 1532.4 L1230.67 1537.93 Q1232.67 1534.66 1235.47 1533.1 Q1238.27 1531.54 1242.12 1531.54 Q1246.01 1531.54 1248.71 1533.51 Q1251.45 1535.48 1252.76 1539.24 Z" fill="#000000" fill-rule="nonzero" fill-opacity="1" /><path clip-path="url(#clip700)" d="M1318.99 1548.76 L1318.99 1551.62 L1292.06 1551.62 Q1292.45 1557.67 1295.69 1560.85 Q1298.97 1564 1304.79 1564 Q1308.17 1564 1311.32 1563.17 Q1314.5 1562.35 1317.62 1560.69 L1317.62 1566.23 Q1314.47 1567.57 1311.16 1568.27 Q1307.85 1568.97 1304.44 1568.97 Q1295.91 1568.97 1290.92 1564 Q1285.95 1559.04 1285.95 1550.57 Q1285.95 1541.82 1290.66 1536.69 Q1295.41 1531.54 1303.43 1531.54 Q1310.62 1531.54 1314.79 1536.18 Q1318.99 1540.8 1318.99 1548.76 M1313.13 1547.04 Q1313.07 1542.23 1310.43 1539.37 Q1307.82 1536.5 1303.49 1536.5 Q1298.59 1536.5 1295.63 1539.27 Q1292.7 1542.04 1292.25 1547.07 L1313.13 1547.04 Z" fill="#000000" fill-rule="nonzero" fill-opacity="1" /><path clip-path="url(#clip700)" d="M1363.39 1518.58 Q1359.13 1525.9 1357.06 1533.06 Q1354.99 1540.23 1354.99 1547.58 Q1354.99 1554.93 1357.06 1562.16 Q1359.16 1569.35 1363.39 1576.64 L1358.3 1576.64 Q1353.52 1569.16 1351.14 1561.93 Q1348.78 1554.71 1348.78 1547.58 Q1348.78 1540.48 1351.14 1533.29 Q1353.49 1526.09 1358.3 1518.58 L1363.39 1518.58 Z" fill="#000000" fill-rule="nonzero" fill-opacity="1" /><path clip-path="url(#clip700)" d="M1397.48 1533.45 L1397.48 1538.98 Q1395 1537.71 1392.32 1537.07 Q1389.65 1536.44 1386.79 1536.44 Q1382.42 1536.44 1380.23 1537.77 Q1378.06 1539.11 1378.06 1541.79 Q1378.06 1543.82 1379.62 1545 Q1381.18 1546.15 1385.89 1547.2 L1387.9 1547.64 Q1394.14 1548.98 1396.75 1551.43 Q1399.39 1553.85 1399.39 1558.21 Q1399.39 1563.17 1395.44 1566.07 Q1391.53 1568.97 1384.65 1568.97 Q1381.79 1568.97 1378.67 1568.39 Q1375.58 1567.85 1372.14 1566.74 L1372.14 1560.69 Q1375.39 1562.38 1378.54 1563.24 Q1381.69 1564.07 1384.78 1564.07 Q1388.92 1564.07 1391.15 1562.66 Q1393.37 1561.23 1393.37 1558.65 Q1393.37 1556.27 1391.75 1554.99 Q1390.16 1553.72 1384.72 1552.54 L1382.68 1552.07 Q1377.24 1550.92 1374.82 1548.56 Q1372.4 1546.18 1372.4 1542.04 Q1372.4 1537.01 1375.96 1534.27 Q1379.53 1531.54 1386.08 1531.54 Q1389.33 1531.54 1392.2 1532.01 Q1395.06 1532.49 1397.48 1533.45 Z" fill="#000000" fill-rule="nonzero" fill-opacity="1" /><path clip-path="url(#clip700)" d="M1407.79 1518.58 L1412.88 1518.58 Q1417.66 1526.09 1420.01 1533.29 Q1422.4 1540.48 1422.4 1547.58 Q1422.4 1554.71 1420.01 1561.93 Q1417.66 1569.16 1412.88 1576.64 L1407.79 1576.64 Q1412.03 1569.35 1414.09 1562.16 Q1416.19 1554.93 1416.19 1547.58 Q1416.19 1540.23 1414.09 1533.06 Q1412.03 1525.9 1407.79 1518.58 Z" fill="#000000" fill-rule="nonzero" fill-opacity="1" /><polyline clip-path="url(#clip700)" style="stroke:#000000; stroke-linecap:round; stroke-linejoin:round; stroke-width:4; stroke-opacity:1; fill:none" points="232.389,1423.18 232.389,47.2441 "/>
<polyline clip-path="url(#clip700)" style="stroke:#000000; stroke-linecap:round; stroke-linejoin:round; stroke-width:4; stroke-opacity:1; fill:none" points="232.389,1384.24 251.287,1384.24 "/>
<polyline clip-path="url(#clip700)" style="stroke:#000000; stroke-linecap:round; stroke-linejoin:round; stroke-width:4; stroke-opacity:1; fill:none" points="232.389,1073.27 251.287,1073.27 "/>
<polyline clip-path="url(#clip700)" style="stroke:#000000; stroke-linecap:round; stroke-linejoin:round; stroke-width:4; stroke-opacity:1; fill:none" points="232.389,762.305 251.287,762.305 "/>
<polyline clip-path="url(#clip700)" style="stroke:#000000; stroke-linecap:round; stroke-linejoin:round; stroke-width:4; stroke-opacity:1; fill:none" points="232.389,451.339 251.287,451.339 "/>
<polyline clip-path="url(#clip700)" style="stroke:#000000; stroke-linecap:round; stroke-linejoin:round; stroke-width:4; stroke-opacity:1; fill:none" points="232.389,140.372 251.287,140.372 "/>
<path clip-path="url(#clip700)" d="M184.445 1370.04 Q180.834 1370.04 179.005 1373.6 Q177.2 1377.14 177.2 1384.27 Q177.2 1391.38 179.005 1394.94 Q180.834 1398.49 184.445 1398.49 Q188.079 1398.49 189.885 1394.94 Q191.713 1391.38 191.713 1384.27 Q191.713 1377.14 189.885 1373.6 Q188.079 1370.04 184.445 1370.04 M184.445 1366.33 Q190.255 1366.33 193.311 1370.94 Q196.389 1375.52 196.389 1384.27 Q196.389 1393 193.311 1397.61 Q190.255 1402.19 184.445 1402.19 Q178.635 1402.19 175.556 1397.61 Q172.501 1393 172.501 1384.27 Q172.501 1375.52 175.556 1370.94 Q178.635 1366.33 184.445 1366.33 Z" fill="#000000" fill-rule="nonzero" fill-opacity="1" /><path clip-path="url(#clip700)" d="M149.306 1086.62 L165.626 1086.62 L165.626 1090.55 L143.681 1090.55 L143.681 1086.62 Q146.343 1083.86 150.927 1079.23 Q155.533 1074.58 156.714 1073.24 Q158.959 1070.71 159.839 1068.98 Q160.741 1067.22 160.741 1065.53 Q160.741 1062.77 158.797 1061.04 Q156.876 1059.3 153.774 1059.3 Q151.575 1059.3 149.121 1060.07 Q146.691 1060.83 143.913 1062.38 L143.913 1057.66 Q146.737 1056.52 149.191 1055.95 Q151.644 1055.37 153.681 1055.37 Q159.052 1055.37 162.246 1058.05 Q165.44 1060.74 165.44 1065.23 Q165.44 1067.36 164.63 1069.28 Q163.843 1071.18 161.737 1073.77 Q161.158 1074.44 158.056 1077.66 Q154.954 1080.85 149.306 1086.62 Z" fill="#000000" fill-rule="nonzero" fill-opacity="1" /><path clip-path="url(#clip700)" d="M175.487 1055.99 L193.843 1055.99 L193.843 1059.93 L179.769 1059.93 L179.769 1068.4 Q180.788 1068.05 181.806 1067.89 Q182.825 1067.7 183.843 1067.7 Q189.63 1067.7 193.01 1070.88 Q196.389 1074.05 196.389 1079.46 Q196.389 1085.04 192.917 1088.14 Q189.445 1091.22 183.126 1091.22 Q180.95 1091.22 178.681 1090.85 Q176.436 1090.48 174.028 1089.74 L174.028 1085.04 Q176.112 1086.18 178.334 1086.73 Q180.556 1087.29 183.033 1087.29 Q187.038 1087.29 189.375 1085.18 Q191.713 1083.07 191.713 1079.46 Q191.713 1075.85 189.375 1073.75 Q187.038 1071.64 183.033 1071.64 Q181.158 1071.64 179.283 1072.06 Q177.431 1072.47 175.487 1073.35 L175.487 1055.99 Z" fill="#000000" fill-rule="nonzero" fill-opacity="1" /><path clip-path="url(#clip700)" d="M144.329 745.025 L162.686 745.025 L162.686 748.96 L148.612 748.96 L148.612 757.433 Q149.63 757.085 150.649 756.923 Q151.667 756.738 152.686 756.738 Q158.473 756.738 161.852 759.909 Q165.232 763.081 165.232 768.497 Q165.232 774.076 161.76 777.178 Q158.288 780.256 151.968 780.256 Q149.792 780.256 147.524 779.886 Q145.279 779.516 142.871 778.775 L142.871 774.076 Q144.954 775.21 147.177 775.766 Q149.399 776.321 151.876 776.321 Q155.88 776.321 158.218 774.215 Q160.556 772.108 160.556 768.497 Q160.556 764.886 158.218 762.78 Q155.88 760.673 151.876 760.673 Q150.001 760.673 148.126 761.09 Q146.274 761.507 144.329 762.386 L144.329 745.025 Z" fill="#000000" fill-rule="nonzero" fill-opacity="1" /><path clip-path="url(#clip700)" d="M184.445 748.104 Q180.834 748.104 179.005 751.669 Q177.2 755.21 177.2 762.34 Q177.2 769.446 179.005 773.011 Q180.834 776.553 184.445 776.553 Q188.079 776.553 189.885 773.011 Q191.713 769.446 191.713 762.34 Q191.713 755.21 189.885 751.669 Q188.079 748.104 184.445 748.104 M184.445 744.4 Q190.255 744.4 193.311 749.007 Q196.389 753.59 196.389 762.34 Q196.389 771.067 193.311 775.673 Q190.255 780.256 184.445 780.256 Q178.635 780.256 175.556 775.673 Q172.501 771.067 172.501 762.34 Q172.501 753.59 175.556 749.007 Q178.635 744.4 184.445 744.4 Z" fill="#000000" fill-rule="nonzero" fill-opacity="1" /><path clip-path="url(#clip700)" d="M144.098 434.059 L166.32 434.059 L166.32 436.049 L153.774 468.619 L148.89 468.619 L160.695 437.994 L144.098 437.994 L144.098 434.059 Z" fill="#000000" fill-rule="nonzero" fill-opacity="1" /><path clip-path="url(#clip700)" d="M175.487 434.059 L193.843 434.059 L193.843 437.994 L179.769 437.994 L179.769 446.466 Q180.788 446.119 181.806 445.957 Q182.825 445.772 183.843 445.772 Q189.63 445.772 193.01 448.943 Q196.389 452.114 196.389 457.531 Q196.389 463.109 192.917 466.211 Q189.445 469.29 183.126 469.29 Q180.95 469.29 178.681 468.92 Q176.436 468.549 174.028 467.808 L174.028 463.109 Q176.112 464.244 178.334 464.799 Q180.556 465.355 183.033 465.355 Q187.038 465.355 189.375 463.248 Q191.713 461.142 191.713 457.531 Q191.713 453.92 189.375 451.813 Q187.038 449.707 183.033 449.707 Q181.158 449.707 179.283 450.123 Q177.431 450.54 175.487 451.42 L175.487 434.059 Z" fill="#000000" fill-rule="nonzero" fill-opacity="1" /><path clip-path="url(#clip700)" d="M114.931 153.717 L122.57 153.717 L122.57 127.351 L114.26 129.018 L114.26 124.759 L122.524 123.092 L127.2 123.092 L127.2 153.717 L134.839 153.717 L134.839 157.652 L114.931 157.652 L114.931 153.717 Z" fill="#000000" fill-rule="nonzero" fill-opacity="1" /><path clip-path="url(#clip700)" d="M154.283 126.171 Q150.672 126.171 148.843 129.736 Q147.038 133.277 147.038 140.407 Q147.038 147.513 148.843 151.078 Q150.672 154.62 154.283 154.62 Q157.917 154.62 159.723 151.078 Q161.552 147.513 161.552 140.407 Q161.552 133.277 159.723 129.736 Q157.917 126.171 154.283 126.171 M154.283 122.467 Q160.093 122.467 163.149 127.074 Q166.227 131.657 166.227 140.407 Q166.227 149.134 163.149 153.74 Q160.093 158.323 154.283 158.323 Q148.473 158.323 145.394 153.74 Q142.339 149.134 142.339 140.407 Q142.339 131.657 145.394 127.074 Q148.473 122.467 154.283 122.467 Z" fill="#000000" fill-rule="nonzero" fill-opacity="1" /><path clip-path="url(#clip700)" d="M184.445 126.171 Q180.834 126.171 179.005 129.736 Q177.2 133.277 177.2 140.407 Q177.2 147.513 179.005 151.078 Q180.834 154.62 184.445 154.62 Q188.079 154.62 189.885 151.078 Q191.713 147.513 191.713 140.407 Q191.713 133.277 189.885 129.736 Q188.079 126.171 184.445 126.171 M184.445 122.467 Q190.255 122.467 193.311 127.074 Q196.389 131.657 196.389 140.407 Q196.389 149.134 193.311 153.74 Q190.255 158.323 184.445 158.323 Q178.635 158.323 175.556 153.74 Q172.501 149.134 172.501 140.407 Q172.501 131.657 175.556 127.074 Q178.635 122.467 184.445 122.467 Z" fill="#000000" fill-rule="nonzero" fill-opacity="1" /><path clip-path="url(#clip700)" d="M67.3143 733.525 Q73.68 736.008 75.6216 738.363 Q77.5631 740.718 77.5631 744.665 L77.5631 749.344 L72.6615 749.344 L72.6615 745.906 Q72.6615 743.487 71.5157 742.151 Q70.3699 740.814 66.1048 739.191 L63.4312 738.14 L28.3562 752.559 L28.3562 746.352 L56.238 735.212 L28.3562 724.072 L28.3562 717.865 L67.3143 733.525 Z" fill="#000000" fill-rule="nonzero" fill-opacity="1" /><polyline clip-path="url(#clip702)" style="stroke:#009af9; stroke-linecap:round; stroke-linejoin:round; stroke-width:4; stroke-opacity:1; fill:none" points="292.4,1384.24 302.401,1347.48 312.403,1311.8 322.405,1277.18 332.407,1243.58 342.408,1210.98 352.41,1179.34 362.412,1148.63 372.414,1118.83 382.415,1089.91 392.417,1061.85 402.419,1034.62 412.42,1008.19 422.422,982.54 432.424,957.65 442.426,933.496 452.427,910.056 462.429,887.308 472.431,865.233 482.433,843.81 492.434,823.02 502.436,802.845 512.438,783.266 522.439,764.266 532.441,745.827 542.443,727.933 552.445,710.568 562.446,693.716 572.448,677.362 582.45,661.492 592.452,646.09 602.453,631.144 612.455,616.64 622.457,602.564 632.459,588.904 642.46,575.648 652.462,562.783 662.464,550.299 672.465,538.184 682.467,526.427 692.469,515.017 702.471,503.945 712.472,493.2 722.474,482.772 732.476,472.653 742.478,462.832 752.479,453.302 762.481,444.054 772.483,435.078 782.484,426.369 792.486,417.916 802.488,409.713 812.49,401.753 822.491,394.028 832.493,386.532 842.495,379.256 852.497,372.196 862.498,365.345 872.5,358.696 882.502,352.244 892.503,345.982 902.505,339.905 912.507,334.008 922.509,328.285 932.51,322.732 942.512,317.342 952.514,312.112 962.516,307.036 972.517,302.11 982.519,297.33 992.521,292.691 1002.52,288.19 1012.52,283.821 1022.53,279.582 1032.53,275.467 1042.53,271.475 1052.53,267.6 1062.53,263.84 1072.53,260.191 1082.54,256.65 1092.54,253.213 1102.54,249.878 1112.54,246.642 1122.54,243.501 1132.54,240.453 1142.55,237.495 1152.55,234.625 1162.55,231.839 1172.55,229.136 1182.55,226.513 1192.56,223.967 1202.56,221.496 1212.56,219.099 1222.56,216.772 1232.56,214.514 1242.56,212.323 1252.57,210.196 1262.57,208.133 1272.57,206.13 1282.57,204.187 1292.57,202.301 1302.57,200.47 1312.58,198.694 1322.58,196.97 1332.58,195.298 1342.58,193.674 1352.58,192.099 1362.58,190.57 1372.59,189.087 1382.59,187.647 1392.59,186.25 1402.59,184.894 1412.59,183.578 1422.6,182.301 1432.6,181.062 1442.6,179.859 1452.6,178.692 1462.6,177.56 1472.6,176.461 1482.61,175.394 1492.61,174.359 1502.61,173.355 1512.61,172.38 1522.61,171.434 1532.61,170.516 1542.62,169.625 1552.62,168.76 1562.62,167.921 1572.62,167.107 1582.62,166.317 1592.62,165.55 1602.63,164.806 1612.63,164.084 1622.63,163.383 1632.63,162.703 1642.63,162.043 1652.63,161.403 1662.64,160.781 1672.64,160.178 1682.64,159.593 1692.64,159.025 1702.64,158.473 1712.65,157.938 1722.65,157.419 1732.65,156.915 1742.65,156.426 1752.65,155.952 1762.65,155.491 1772.66,155.045 1782.66,154.611 1792.66,154.19 1802.66,153.782 1812.66,153.385 1822.66,153.001 1832.67,152.628 1842.67,152.265 1852.67,151.914 1862.67,151.573 1872.67,151.242 1882.67,150.921 1892.68,150.609 1902.68,150.306 1912.68,150.013 1922.68,149.728 1932.68,149.451 1942.69,149.183 1952.69,148.922 1962.69,148.67 1972.69,148.425 1982.69,148.187 1992.69,147.956 2002.7,147.731 2012.7,147.514 2022.7,147.303 2032.7,147.098 2042.7,146.899 2052.7,146.706 2062.71,146.519 2072.71,146.337 2082.71,146.161 2092.71,145.99 2102.71,145.824 2112.71,145.663 2122.72,145.507 2132.72,145.355 2142.72,145.208 2152.72,145.065 2162.72,144.926 2172.72,144.791 2182.73,144.661 2192.73,144.534 2202.73,144.411 2212.73,144.292 2222.73,144.176 2232.74,144.063 2242.74,143.954 2252.74,143.848 2262.74,143.746 2272.74,143.646 2282.74,143.549 2292.75,143.455 "/>
<polyline clip-path="url(#clip702)" style="stroke:#e26f46; stroke-linecap:round; stroke-linejoin:round; stroke-width:4; stroke-opacity:1; fill:none" points="292.4,1384.24 293.1,1384.24 293.8,1384.22 294.5,1384.17 295.2,1384.07 295.9,1383.93 296.6,1383.72 297.301,1383.45 298.001,1383.11 298.701,1382.69 299.401,1382.2 300.101,1381.62 300.801,1380.97 301.501,1380.24 302.201,1379.43 302.902,1378.54 303.602,1377.58 304.302,1376.54 305.002,1375.43 305.702,1374.25 306.402,1373 307.102,1371.68 307.802,1370.3 308.503,1368.86 309.203,1367.36 309.903,1365.81 310.603,1364.2 311.303,1362.54 312.003,1360.84 312.703,1359.08 313.403,1357.29 314.103,1355.45 314.804,1353.58 315.504,1351.67 316.204,1349.72 316.904,1347.75 317.604,1345.74 318.304,1343.71 319.004,1341.65 319.704,1339.56 320.405,1337.46 321.105,1335.33 321.805,1333.18 322.505,1331.01 323.205,1328.83 323.905,1326.63 324.605,1324.42 325.305,1322.19 326.006,1319.95 326.706,1317.7 327.406,1315.44 328.106,1313.18 328.806,1310.9 329.506,1308.62 330.206,1306.32 330.906,1304.03 331.606,1301.73 332.307,1299.42 333.007,1297.11 333.707,1294.8 334.407,1292.48 335.107,1290.16 335.807,1287.84 336.507,1285.52 337.207,1283.2 337.908,1280.88 338.608,1278.55 339.308,1276.23 340.008,1273.91 340.708,1271.58 341.408,1269.26 342.108,1266.94 342.808,1264.63 343.509,1262.31 344.209,1259.99 344.909,1257.68 345.609,1255.37 346.309,1253.06 347.009,1250.76 347.709,1248.46 348.409,1246.16 349.11,1243.86 349.81,1241.57 350.51,1239.28 351.21,1236.99 351.91,1234.71 352.61,1232.43 353.31,1230.15 354.01,1227.88 354.71,1225.61 355.411,1223.35 356.111,1221.09 356.811,1218.83 357.511,1216.58 358.211,1214.33 358.911,1212.08 359.611,1209.84 360.311,1207.61 361.012,1205.38 361.712,1203.15 362.412,1200.92 363.112,1198.7 363.812,1196.49 364.512,1194.28 365.212,1192.07 365.912,1189.87 366.613,1187.67 367.313,1185.48 368.013,1183.29 368.713,1181.1 369.413,1178.92 370.113,1176.75 370.813,1174.58 371.513,1172.41 372.214,1170.24 372.914,1168.09 373.614,1165.93 374.314,1163.78 375.014,1161.64 375.714,1159.5 376.414,1157.36 377.114,1155.23 377.814,1153.1 378.515,1150.98 379.215,1148.86 379.915,1146.74 380.615,1144.63 381.315,1142.53 382.015,1140.42 382.715,1138.33 383.415,1136.23 384.116,1134.14 384.816,1132.06 385.516,1129.98 386.216,1127.9 386.916,1125.83 387.616,1123.77 388.316,1121.7 389.016,1119.65 389.717,1117.59 390.417,1115.54 391.117,1113.5 391.817,1111.46 392.517,1109.42 393.217,1107.39 393.917,1105.36 394.617,1103.33 395.318,1101.31 396.018,1099.3 396.718,1097.29 397.418,1095.28 398.118,1093.28 398.818,1091.28 399.518,1089.28 400.218,1087.29 400.918,1085.31 401.619,1083.32 402.319,1081.34 403.019,1079.37 403.719,1077.4 404.419,1075.44 405.119,1073.47 405.819,1071.52 406.519,1069.56 407.22,1067.61 407.92,1065.67 408.62,1063.73 409.32,1061.79 410.02,1059.86 410.72,1057.93 411.42,1056 412.12,1054.08 412.821,1052.17 413.521,1050.25 414.221,1048.35 414.921,1046.44 415.621,1044.54 416.321,1042.64 417.021,1040.75 417.721,1038.86 418.422,1036.98 419.122,1035.1 419.822,1033.22 420.522,1031.35 421.222,1029.48 421.922,1027.61 422.622,1025.75 423.322,1023.89 424.022,1022.04 424.723,1020.19 425.423,1018.34 426.123,1016.5 426.823,1014.66 427.523,1012.83 428.223,1011 428.923,1009.17 429.623,1007.35 430.324,1005.53 431.024,1003.72 431.724,1001.91 432.424,1000.1 433.124,998.296 433.824,996.496 434.524,994.7 435.224,992.908 435.925,991.12 436.625,989.335 437.325,987.554 438.025,985.777 438.725,984.003 439.425,982.233 440.125,980.467 440.825,978.705 441.526,976.946 442.226,975.191 442.926,973.44 443.626,971.692 444.326,969.949 445.026,968.208 445.726,966.472 446.426,964.739 447.126,963.009 447.827,961.284 448.527,959.561 449.227,957.843 449.927,956.128 450.627,954.417 451.327,952.709 452.027,951.005 452.727,949.304 453.428,947.607 454.128,945.914 454.828,944.224 455.528,942.538 456.228,940.855 456.928,939.176 457.628,937.5 458.328,935.828 459.029,934.159 459.729,932.494 460.429,930.832 461.129,929.174 461.829,927.519 462.529,925.868 463.229,924.22 463.929,922.576 464.629,920.935 465.33,919.298 466.03,917.663 466.73,916.033 467.43,914.406 468.13,912.782 468.83,911.162 469.53,909.545 470.23,907.931 470.931,906.321 471.631,904.714 472.331,903.111 473.031,901.511 473.731,899.914 474.431,898.32 475.131,896.73 475.831,895.144 476.532,893.56 477.232,891.98 477.932,890.404 478.632,888.83 479.332,887.26 480.032,885.693 480.732,884.13 481.432,882.57 482.133,881.013 482.833,879.459 483.533,877.908 484.233,876.361 484.933,874.817 485.633,873.277 486.333,871.739 487.033,870.205 487.733,868.674 488.434,867.146 489.134,865.621 489.834,864.1 490.534,862.582 491.234,861.067 491.934,859.555 492.634,858.046 493.334,856.54 494.035,855.038 494.735,853.539 495.435,852.043 496.135,850.55 496.835,849.06 497.535,847.573 498.235,846.09 498.935,844.609 499.636,843.132 500.336,841.658 501.036,840.187 501.736,838.719 502.436,837.254 503.136,835.792 503.836,834.333 504.536,832.877 505.237,831.424 505.937,829.975 506.637,828.528 507.337,827.084 508.037,825.644 508.737,824.206 509.437,822.772 510.137,821.34 510.837,819.912 511.538,818.486 512.238,817.063 512.938,815.644 513.638,814.227 514.338,812.814 515.038,811.403 515.738,809.995 516.438,808.591 517.139,807.189 517.839,805.79 518.539,804.394 519.239,803.001 519.939,801.611 520.639,800.224 521.339,798.84 522.039,797.458 522.74,796.08 523.44,794.704 524.14,793.332 524.84,791.962 525.54,790.595 526.24,789.231 526.94,787.87 527.64,786.512 528.341,785.156 529.041,783.803 529.741,782.454 530.441,781.107 531.141,779.763 531.841,778.421 532.541,777.083 533.241,775.747 533.941,774.414 534.642,773.084 535.342,771.757 536.042,770.432 536.742,769.11 537.442,767.792 538.142,766.475 538.842,765.162 539.542,763.851 540.243,762.543 540.943,761.238 541.643,759.936 542.343,758.636 543.043,757.339 543.743,756.045 544.443,754.753 545.143,753.464 545.844,752.178 546.544,750.895 547.244,749.614 547.944,748.336 548.644,747.06 549.344,745.788 550.044,744.518 550.744,743.25 551.445,741.986 552.145,740.724 552.845,739.464 553.545,738.207 554.245,736.953 554.945,735.702 555.645,734.453 556.345,733.207 557.045,731.963 557.746,730.722 558.446,729.483 559.146,728.248 559.846,727.014 560.546,725.784 561.246,724.556 561.946,723.33 562.646,722.107 563.347,720.887 564.047,719.669 564.747,718.454 565.447,717.241 566.147,716.031 566.847,714.823 567.547,713.618 568.247,712.416 568.948,711.216 569.648,710.018 570.348,708.823 571.048,707.631 571.748,706.441 572.448,705.253 573.148,704.068 573.848,702.886 574.548,701.706 575.249,700.528 575.949,699.353 576.649,698.18 577.349,697.01 578.049,695.842 578.749,694.677 579.449,693.514 580.149,692.354 580.85,691.196 581.55,690.041 582.25,688.887 582.95,687.737 583.65,686.589 584.35,685.443 585.05,684.299 585.75,683.158 586.451,682.02 587.151,680.883 587.851,679.749 588.551,678.618 589.251,677.489 589.951,676.362 590.651,675.238 591.351,674.116 592.052,672.996 592.752,671.879 593.452,670.764 594.152,669.651 594.852,668.541 595.552,667.433 596.252,666.327 596.952,665.224 597.652,664.123 598.353,663.024 599.053,661.927 599.753,660.833 600.453,659.741 601.153,658.652 601.853,657.565 602.553,656.48 603.253,655.397 603.954,654.317 604.654,653.238 605.354,652.163 606.054,651.089 606.754,650.018 607.454,648.948 608.154,647.882 608.854,646.817 609.555,645.754 610.255,644.694 610.955,643.636 611.655,642.581 612.355,641.527 613.055,640.476 613.755,639.427 614.455,638.38 615.156,637.335 615.856,636.292 616.556,635.252 617.256,634.214 617.956,633.178 618.656,632.144 619.356,631.112 620.056,630.083 620.756,629.056 621.457,628.031 622.157,627.008 622.857,625.987 623.557,624.968 624.257,623.951 624.957,622.937 625.657,621.925 626.357,620.914 627.058,619.906 627.758,618.9 628.458,617.896 629.158,616.895 629.858,615.895 630.558,614.898 631.258,613.902 631.958,612.909 632.659,611.917 633.359,610.928 634.059,609.941 634.759,608.956 635.459,607.973 636.159,606.992 636.859,606.013 637.559,605.036 638.26,604.062 638.96,603.089 639.66,602.118 640.36,601.15 641.06,600.183 641.76,599.218 642.46,598.256 643.16,597.295 643.86,596.337 644.561,595.38 645.261,594.426 645.961,593.473 646.661,592.523 647.361,591.574 648.061,590.628 648.761,589.683 649.461,588.741 650.162,587.8 650.862,586.861 651.562,585.925 652.262,584.99 652.962,584.057 653.662,583.127 654.362,582.198 655.062,581.271 655.763,580.346 656.463,579.423 657.163,578.502 657.863,577.583 658.563,576.666 659.263,575.75 659.963,574.837 660.663,573.926 661.364,573.016 662.064,572.109 662.764,571.203 663.464,570.299 664.164,569.397 664.864,568.497 665.564,567.599 666.264,566.703 666.964,565.808 667.665,564.916 668.365,564.025 669.065,563.137 669.765,562.25 670.465,561.365 671.165,560.482 671.865,559.6 672.565,558.721 673.266,557.843 673.966,556.967 674.666,556.093 675.366,555.221 676.066,554.351 676.766,553.483 677.466,552.616 678.166,551.751 678.867,550.888 679.567,550.027 680.267,549.168 680.967,548.31 681.667,547.454 682.367,546.6 683.067,545.748 683.767,544.898 684.468,544.049 685.168,543.202 685.868,542.357 686.568,541.514 687.268,540.672 687.968,539.833 688.668,538.995 689.368,538.159 690.068,537.324 690.769,536.491 691.469,535.66 692.169,534.831 692.869,534.004 693.569,533.178 694.269,532.354 694.969,531.532 695.669,530.711 696.37,529.892 697.07,529.075 697.77,528.26 698.47,527.446 699.17,526.634 699.87,525.824 700.57,525.015 701.27,524.208 701.971,523.403 702.671,522.599 703.371,521.797 704.071,520.997 704.771,520.199 705.471,519.402 706.171,518.607 706.871,517.813 707.571,517.022 708.272,516.232 708.972,515.443 709.672,514.656 710.372,513.871 711.072,513.088 711.772,512.306 712.472,511.525 713.172,510.747 713.873,509.97 714.573,509.194 715.273,508.421 715.973,507.649 716.673,506.878 717.373,506.109 718.073,505.342 718.773,504.576 719.474,503.812 720.174,503.05 720.874,502.289 721.574,501.53 722.274,500.772 722.974,500.016 723.674,499.262 724.374,498.509 725.075,497.758 725.775,497.008 726.475,496.26 727.175,495.513 727.875,494.768 728.575,494.025 729.275,493.283 729.975,492.543 730.675,491.804 731.376,491.067 732.076,490.331 732.776,489.597 733.476,488.864 734.176,488.133 734.876,487.403 735.576,486.675 736.276,485.949 736.977,485.224 737.677,484.501 738.377,483.779 739.077,483.058 739.777,482.339 740.477,481.622 741.177,480.906 741.877,480.192 742.578,479.479 743.278,478.768 743.978,478.058 744.678,477.349 745.378,476.642 746.078,475.937 746.778,475.233 747.478,474.531 748.179,473.83 748.879,473.13 749.579,472.432 750.279,471.735 750.979,471.04 751.679,470.347 752.379,469.654 753.079,468.964 753.779,468.274 754.48,467.586 755.18,466.9 755.88,466.215 756.58,465.531 757.28,464.849 757.98,464.169 758.68,463.489 759.38,462.811 760.081,462.135 760.781,461.46 761.481,460.787 762.181,460.114 762.881,459.444 763.581,458.774 764.281,458.106 764.981,457.44 765.682,456.775 766.382,456.111 767.082,455.449 767.782,454.788 768.482,454.128 769.182,453.47 769.882,452.813 770.582,452.158 771.283,451.503 771.983,450.851 772.683,450.199 773.383,449.549 774.083,448.901 774.783,448.254 775.483,447.608 776.183,446.963 776.883,446.32 777.584,445.678 778.284,445.038 778.984,444.399 779.684,443.761 780.384,443.124 781.084,442.489 781.784,441.856 782.484,441.223 783.185,440.592 783.885,439.962 784.585,439.334 785.285,438.707 785.985,438.081 786.685,437.456 787.385,436.833 788.085,436.211 788.786,435.59 789.486,434.971 790.186,434.353 790.886,433.736 791.586,433.121 792.286,432.507 792.986,431.894 793.686,431.282 794.387,430.672 795.087,430.063 795.787,429.455 796.487,428.849 797.187,428.244 797.887,427.64 798.587,427.037 799.287,426.436 799.987,425.836 800.688,425.237 801.388,424.639 802.088,424.043 802.788,423.448 803.488,422.854 804.188,422.262 804.888,421.67 805.588,421.08 806.289,420.491 806.989,419.904 807.689,419.317 808.389,418.732 809.089,418.148 809.789,417.565 810.489,416.984 811.189,416.404 811.89,415.825 812.59,415.247 813.29,414.67 813.99,414.095 814.69,413.52 815.39,412.947 816.09,412.376 816.79,411.805 817.49,411.236 818.191,410.667 818.891,410.1 819.591,409.535 820.291,408.97 820.991,408.406 821.691,407.844 822.391,407.283 823.091,406.723 823.792,406.164 824.492,405.607 825.192,405.05 825.892,404.495 826.592,403.941 827.292,403.388 827.992,402.836 828.692,402.286 829.393,401.736 830.093,401.188 830.793,400.641 831.493,400.095 832.193,399.55 832.893,399.006 833.593,398.464 834.293,397.922 834.994,397.382 835.694,396.843 836.394,396.305 837.094,395.768 837.794,395.232 838.494,394.698 839.194,394.164 839.894,393.632 840.594,393.1 841.295,392.57 841.995,392.041 842.695,391.513 843.395,390.986 844.095,390.461 844.795,389.936 845.495,389.413 846.195,388.89 846.896,388.369 847.596,387.848 848.296,387.329 848.996,386.811 849.696,386.294 850.396,385.778 851.096,385.264 851.796,384.75 852.497,384.237 853.197,383.726 853.897,383.215 854.597,382.706 855.297,382.197 855.997,381.69 856.697,381.184 857.397,380.679 858.098,380.174 858.798,379.671 859.498,379.169 860.198,378.668 860.898,378.169 861.598,377.67 862.298,377.172 862.998,376.675 863.698,376.179 864.399,375.685 865.099,375.191 865.799,374.699 866.499,374.207 867.199,373.716 867.899,373.227 868.599,372.738 869.299,372.251 870,371.765 870.7,371.279 871.4,370.795 872.1,370.311 872.8,369.829 873.5,369.348 874.2,368.867 874.9,368.388 875.601,367.91 876.301,367.432 877.001,366.956 877.701,366.481 878.401,366.006 879.101,365.533 879.801,365.061 880.501,364.589 881.202,364.119 881.902,363.65 882.602,363.181 883.302,362.714 884.002,362.247 884.702,361.782 885.402,361.317 886.102,360.854 886.802,360.391 887.503,359.93 888.203,359.469 888.903,359.01 889.603,358.551 890.303,358.093 891.003,357.637 891.703,357.181 892.403,356.726 893.104,356.272 893.804,355.819 894.504,355.367 895.204,354.916 895.904,354.466 896.604,354.017 897.304,353.569 898.004,353.122 898.705,352.675 899.405,352.23 900.105,351.785 900.805,351.342 901.505,350.899 902.205,350.458 902.905,350.017 903.605,349.577 904.306,349.138 905.006,348.7 905.706,348.263 906.406,347.827 907.106,347.392 907.806,346.958 908.506,346.524 909.206,346.092 909.906,345.66 910.607,345.23 911.307,344.8 912.007,344.371 912.707,343.943 913.407,343.516 914.107,343.09 914.807,342.665 915.507,342.24 916.208,341.817 916.908,341.394 917.608,340.973 918.308,340.552 919.008,340.132 919.708,339.713 920.408,339.295 921.108,338.877 921.809,338.461 922.509,338.045 923.209,337.631 923.909,337.217 924.609,336.804 925.309,336.392 926.009,335.981 926.709,335.57 927.409,335.161 928.11,334.752 928.81,334.344 929.51,333.937 930.21,333.531 930.91,333.126 931.61,332.722 932.31,332.318 933.01,331.916 933.711,331.514 934.411,331.113 935.111,330.713 935.811,330.313 936.511,329.915 937.211,329.517 937.911,329.121 938.611,328.725 939.312,328.329 940.012,327.935 940.712,327.542 941.412,327.149 942.112,326.757 942.812,326.366 943.512,325.976 944.212,325.587 944.913,325.198 945.613,324.81 946.313,324.424 947.013,324.037 947.713,323.652 948.413,323.268 949.113,322.884 949.813,322.501 950.513,322.119 951.214,321.738 951.914,321.357 952.614,320.978 953.314,320.599 954.014,320.221 954.714,319.843 955.414,319.467 956.114,319.091 956.815,318.716 957.515,318.342 958.215,317.969 958.915,317.596 959.615,317.224 960.315,316.853 961.015,316.483 961.715,316.114 962.416,315.745 963.116,315.377 963.816,315.01 964.516,314.644 965.216,314.278 965.916,313.913 966.616,313.549 967.316,313.186 968.017,312.823 968.717,312.462 969.417,312.101 970.117,311.74 970.817,311.381 971.517,311.022 972.217,310.664 972.917,310.307 973.617,309.95 974.318,309.595 975.018,309.24 975.718,308.885 976.418,308.532 977.118,308.179 977.818,307.827 978.518,307.476 979.218,307.125 979.919,306.776 980.619,306.426 981.319,306.078 982.019,305.73 982.719,305.384 983.419,305.037 984.119,304.692 984.819,304.347 985.52,304.003 986.22,303.66 986.92,303.317 987.62,302.976 988.32,302.635 989.02,302.294 989.72,301.954 990.42,301.616 991.121,301.277 991.821,300.94 992.521,300.603 993.221,300.267 993.921,299.931 994.621,299.597 995.321,299.263 996.021,298.929 996.721,298.597 997.422,298.265 998.122,297.933 998.822,297.603 999.522,297.273 1000.22,296.944 1000.92,296.616 1001.62,296.288 1002.32,295.961 1003.02,295.634 1003.72,295.309 1004.42,294.984 1005.12,294.659 1005.82,294.336 1006.52,294.013 1007.22,293.69 1007.92,293.369 1008.62,293.048 1009.32,292.727 1010.02,292.408 1010.72,292.089 1011.42,291.771 1012.12,291.453 1012.82,291.136 1013.52,290.82 1014.22,290.504 1014.92,290.189 1015.62,289.875 1016.32,289.561 1017.02,289.248 1017.73,288.936 1018.43,288.624 1019.13,288.313 1019.83,288.003 1020.53,287.693 1021.23,287.384 1021.93,287.076 1022.63,286.768 1023.33,286.461 1024.03,286.154 1024.73,285.849 1025.43,285.543 1026.13,285.239 1026.83,284.935 1027.53,284.632 1028.23,284.329 1028.93,284.027 1029.63,283.726 1030.33,283.425 1031.03,283.125 1031.73,282.826 1032.43,282.527 1033.13,282.228 1033.83,281.931 1034.53,281.634 1035.23,281.338 1035.93,281.042 1036.63,280.747 1037.33,280.452 1038.03,280.158 1038.73,279.865 1039.43,279.573 1040.13,279.281 1040.83,278.989 1041.53,278.698 1042.23,278.408 1042.93,278.119 1043.63,277.83 1044.33,277.541 1045.03,277.254 1045.73,276.966 1046.43,276.68 1047.13,276.394 1047.83,276.109 1048.53,275.824 1049.23,275.54 1049.93,275.256 1050.63,274.973 1051.33,274.691 1052.03,274.409 1052.73,274.128 1053.43,273.847 1054.13,273.567 1054.83,273.288 1055.53,273.009 1056.23,272.731 1056.93,272.453 1057.63,272.176 1058.33,271.899 1059.03,271.624 1059.73,271.348 1060.43,271.073 1061.13,270.799 1061.83,270.526 1062.53,270.253 1063.23,269.98 1063.93,269.708 1064.63,269.437 1065.33,269.166 1066.03,268.896 1066.73,268.626 1067.43,268.357 1068.13,268.089 1068.83,267.821 1069.53,267.554 1070.23,267.287 1070.93,267.021 1071.63,266.755 1072.33,266.49 1073.03,266.225 1073.73,265.961 1074.43,265.698 1075.14,265.435 1075.84,265.172 1076.54,264.911 1077.24,264.649 1077.94,264.389 1078.64,264.128 1079.34,263.869 1080.04,263.61 1080.74,263.351 1081.44,263.093 1082.14,262.836 1082.84,262.579 1083.54,262.323 1084.24,262.067 1084.94,261.811 1085.64,261.557 1086.34,261.302 1087.04,261.049 1087.74,260.796 1088.44,260.543 1089.14,260.291 1089.84,260.039 1090.54,259.788 1091.24,259.538 1091.94,259.288 1092.64,259.038 1093.34,258.789 1094.04,258.541 1094.74,258.293 1095.44,258.046 1096.14,257.799 1096.84,257.553 1097.54,257.307 1098.24,257.061 1098.94,256.817 1099.64,256.572 1100.34,256.329 1101.04,256.085 1101.74,255.843 1102.44,255.6 1103.14,255.359 1103.84,255.117 1104.54,254.877 1105.24,254.636 1105.94,254.397 1106.64,254.158 1107.34,253.919 1108.04,253.681 1108.74,253.443 1109.44,253.206 1110.14,252.969 1110.84,252.733 1111.54,252.497 1112.24,252.262 1112.94,252.027 1113.64,251.793 1114.34,251.559 1115.04,251.326 1115.74,251.093 1116.44,250.861 1117.14,250.629 1117.84,250.398 1118.54,250.167 1119.24,249.937 1119.94,249.707 1120.64,249.478 1121.34,249.249 1122.04,249.02 1122.74,248.792 1123.44,248.565 1124.14,248.338 1124.84,248.111 1125.54,247.885 1126.24,247.66 1126.94,247.435 1127.64,247.21 1128.34,246.986 1129.04,246.762 1129.74,246.539 1130.44,246.317 1131.14,246.094 1131.84,245.873 1132.54,245.651 1133.25,245.43 1133.95,245.21 1134.65,244.99 1135.35,244.771 1136.05,244.552 1136.75,244.333 1137.45,244.115 1138.15,243.897 1138.85,243.68 1139.55,243.463 1140.25,243.247 1140.95,243.031 1141.65,242.816 1142.35,242.601 1143.05,242.387 1143.75,242.173 1144.45,241.959 1145.15,241.746 1145.85,241.533 1146.55,241.321 1147.25,241.109 1147.95,240.898 1148.65,240.687 1149.35,240.477 1150.05,240.267 1150.75,240.057 1151.45,239.848 1152.15,239.639 1152.85,239.431 1153.55,239.223 1154.25,239.016 1154.95,238.809 1155.65,238.602 1156.35,238.396 1157.05,238.191 1157.75,237.986 1158.45,237.781 1159.15,237.576 1159.85,237.372 1160.55,237.169 1161.25,236.966 1161.95,236.763 1162.65,236.561 1163.35,236.359 1164.05,236.158 1164.75,235.957 1165.45,235.756 1166.15,235.556 1166.85,235.357 1167.55,235.157 1168.25,234.959 1168.95,234.76 1169.65,234.562 1170.35,234.365 1171.05,234.167 1171.75,233.971 1172.45,233.774 1173.15,233.578 1173.85,233.383 1174.55,233.188 1175.25,232.993 1175.95,232.799 1176.65,232.605 1177.35,232.411 1178.05,232.218 1178.75,232.026 1179.45,231.833 1180.15,231.641 1180.85,231.45 1181.55,231.259 1182.25,231.068 1182.95,230.878 1183.65,230.688 1184.35,230.499 1185.05,230.31 1185.75,230.121 1186.45,229.933 1187.15,229.745 1187.85,229.557 1188.55,229.37 1189.25,229.183 1189.95,228.997 1190.66,228.811 1191.36,228.626 1192.06,228.441 1192.76,228.256 1193.46,228.071 1194.16,227.888 1194.86,227.704 1195.56,227.521 1196.26,227.338 1196.96,227.155 1197.66,226.973 1198.36,226.792 1199.06,226.61 1199.76,226.43 1200.46,226.249 1201.16,226.069 1201.86,225.889 1202.56,225.71 1203.26,225.531 1203.96,225.352 1204.66,225.174 1205.36,224.996 1206.06,224.818 1206.76,224.641 1207.46,224.464 1208.16,224.288 1208.86,224.112 1209.56,223.936 1210.26,223.761 1210.96,223.586 1211.66,223.411 1212.36,223.237 1213.06,223.063 1213.76,222.89 1214.46,222.717 1215.16,222.544 1215.86,222.372 1216.56,222.2 1217.26,222.028 1217.96,221.857 1218.66,221.686 1219.36,221.515 1220.06,221.345 1220.76,221.175 1221.46,221.006 1222.16,220.837 1222.86,220.668 1223.56,220.499 1224.26,220.331 1224.96,220.163 1225.66,219.996 1226.36,219.829 1227.06,219.662 1227.76,219.496 1228.46,219.33 1229.16,219.164 1229.86,218.999 1230.56,218.834 1231.26,218.67 1231.96,218.505 1232.66,218.341 1233.36,218.178 1234.06,218.015 1234.76,217.852 1235.46,217.689 1236.16,217.527 1236.86,217.365 1237.56,217.204 1238.26,217.042 1238.96,216.882 1239.66,216.721 1240.36,216.561 1241.06,216.401 1241.76,216.242 1242.46,216.082 1243.16,215.924 1243.86,215.765 1244.56,215.607 1245.26,215.449 1245.96,215.292 1246.66,215.134 1247.36,214.978 1248.06,214.821 1248.77,214.665 1249.47,214.509 1250.17,214.354 1250.87,214.198 1251.57,214.044 1252.27,213.889 1252.97,213.735 1253.67,213.581 1254.37,213.427 1255.07,213.274 1255.77,213.121 1256.47,212.968 1257.17,212.816 1257.87,212.664 1258.57,212.513 1259.27,212.361 1259.97,212.21 1260.67,212.059 1261.37,211.909 1262.07,211.759 1262.77,211.609 1263.47,211.46 1264.17,211.311 1264.87,211.162 1265.57,211.013 1266.27,210.865 1266.97,210.717 1267.67,210.57 1268.37,210.422 1269.07,210.276 1269.77,210.129 1270.47,209.983 1271.17,209.837 1271.87,209.691 1272.57,209.545 1273.27,209.4 1273.97,209.255 1274.67,209.111 1275.37,208.967 1276.07,208.823 1276.77,208.679 1277.47,208.536 1278.17,208.393 1278.87,208.25 1279.57,208.108 1280.27,207.966 1280.97,207.824 1281.67,207.683 1282.37,207.541 1283.07,207.4 1283.77,207.26 1284.47,207.119 1285.17,206.979 1285.87,206.84 1286.57,206.7 1287.27,206.561 1287.97,206.422 1288.67,206.284 1289.37,206.145 1290.07,206.007 1290.77,205.87 1291.47,205.732 1292.17,205.595 1292.87,205.458 1293.57,205.322 1294.27,205.186 1294.97,205.05 1295.67,204.914 1296.37,204.779 1297.07,204.643 1297.77,204.509 1298.47,204.374 1299.17,204.24 1299.87,204.106 1300.57,203.972 1301.27,203.839 1301.97,203.706 1302.67,203.573 1303.37,203.44 1304.07,203.308 1304.77,203.176 1305.47,203.044 1306.17,202.913 1306.88,202.781 1307.58,202.651 1308.28,202.52 1308.98,202.389 1309.68,202.259 1310.38,202.13 1311.08,202 1311.78,201.871 1312.48,201.742 1313.18,201.613 1313.88,201.484 1314.58,201.356 1315.28,201.228 1315.98,201.101 1316.68,200.973 1317.38,200.846 1318.08,200.719 1318.78,200.593 1319.48,200.466 1320.18,200.34 1320.88,200.215 1321.58,200.089 1322.28,199.964 1322.98,199.839 1323.68,199.714 1324.38,199.589 1325.08,199.465 1325.78,199.341 1326.48,199.218 1327.18,199.094 1327.88,198.971 1328.58,198.848 1329.28,198.725 1329.98,198.603 1330.68,198.481 1331.38,198.359 1332.08,198.237 1332.78,198.116 1333.48,197.995 1334.18,197.874 1334.88,197.753 1335.58,197.633 1336.28,197.513 1336.98,197.393 1337.68,197.273 1338.38,197.154 1339.08,197.035 1339.78,196.916 1340.48,196.797 1341.18,196.679 1341.88,196.561 1342.58,196.443 1343.28,196.325 1343.98,196.208 1344.68,196.091 1345.38,195.974 1346.08,195.857 1346.78,195.741 1347.48,195.625 1348.18,195.509 1348.88,195.393 1349.58,195.278 1350.28,195.162 1350.98,195.048 1351.68,194.933 1352.38,194.818 1353.08,194.704 1353.78,194.59 1354.48,194.476 1355.18,194.363 1355.88,194.25 1356.58,194.137 1357.28,194.024 1357.98,193.911 1358.68,193.799 1359.38,193.687 1360.08,193.575 1360.78,193.463 1361.48,193.352 1362.18,193.241 1362.88,193.13 1363.58,193.019 1364.29,192.909 1364.99,192.799 1365.69,192.689 1366.39,192.579 1367.09,192.469 1367.79,192.36 1368.49,192.251 1369.19,192.142 1369.89,192.034 1370.59,191.925 1371.29,191.817 1371.99,191.709 1372.69,191.602 1373.39,191.494 1374.09,191.387 1374.79,191.28 1375.49,191.173 1376.19,191.066 1376.89,190.96 1377.59,190.854 1378.29,190.748 1378.99,190.642 1379.69,190.537 1380.39,190.432 1381.09,190.327 1381.79,190.222 1382.49,190.117 1383.19,190.013 1383.89,189.909 1384.59,189.805 1385.29,189.701 1385.99,189.598 1386.69,189.494 1387.39,189.391 1388.09,189.289 1388.79,189.186 1389.49,189.084 1390.19,188.981 1390.89,188.879 1391.59,188.778 1392.29,188.676 1392.99,188.575 1393.69,188.474 1394.39,188.373 1395.09,188.272 1395.79,188.172 1396.49,188.071 1397.19,187.971 1397.89,187.871 1398.59,187.772 1399.29,187.672 1399.99,187.573 1400.69,187.474 1401.39,187.375 1402.09,187.277 1402.79,187.178 1403.49,187.08 1404.19,186.982 1404.89,186.884 1405.59,186.787 1406.29,186.689 1406.99,186.592 1407.69,186.495 1408.39,186.398 1409.09,186.302 1409.79,186.206 1410.49,186.109 1411.19,186.013 1411.89,185.918 1412.59,185.822 1413.29,185.727 1413.99,185.632 1414.69,185.537 1415.39,185.442 1416.09,185.347 1416.79,185.253 1417.49,185.159 1418.19,185.065 1418.89,184.971 1419.59,184.878 1420.29,184.784 1420.99,184.691 1421.69,184.598 1422.4,184.505 1423.1,184.413 1423.8,184.32 1424.5,184.228 1425.2,184.136 1425.9,184.044 1426.6,183.953 1427.3,183.861 1428,183.77 1428.7,183.679 1429.4,183.588 1430.1,183.498 1430.8,183.407 1431.5,183.317 1432.2,183.227 1432.9,183.137 1433.6,183.047 1434.3,182.958 1435,182.868 1435.7,182.779 1436.4,182.69 1437.1,182.601 1437.8,182.513 1438.5,182.424 1439.2,182.336 1439.9,182.248 1440.6,182.16 1441.3,182.073 1442,181.985 1442.7,181.898 1443.4,181.811 1444.1,181.724 1444.8,181.637 1445.5,181.551 1446.2,181.464 1446.9,181.378 1447.6,181.292 1448.3,181.206 1449,181.12 1449.7,181.035 1450.4,180.95 1451.1,180.865 1451.8,180.78 1452.5,180.695 1453.2,180.61 1453.9,180.526 1454.6,180.442 1455.3,180.357 1456,180.274 1456.7,180.19 1457.4,180.106 1458.1,180.023 1458.8,179.94 1459.5,179.857 1460.2,179.774 1460.9,179.691 1461.6,179.609 1462.3,179.527 1463,179.444 1463.7,179.362 1464.4,179.281 1465.1,179.199 1465.8,179.118 1466.5,179.036 1467.2,178.955 1467.9,178.874 1468.6,178.793 1469.3,178.713 1470,178.632 1470.7,178.552 1471.4,178.472 1472.1,178.392 1472.8,178.312 1473.5,178.233 1474.2,178.153 1474.9,178.074 1475.6,177.995 1476.3,177.916 1477,177.837 1477.7,177.759 1478.4,177.68 1479.1,177.602 1479.8,177.524 1480.51,177.446 1481.21,177.368 1481.91,177.291 1482.61,177.213 1483.31,177.136 1484.01,177.059 1484.71,176.982 1485.41,176.905 1486.11,176.828 1486.81,176.752 1487.51,176.676 1488.21,176.599 1488.91,176.523 1489.61,176.448 1490.31,176.372 1491.01,176.296 1491.71,176.221 1492.41,176.146 1493.11,176.071 1493.81,175.996 1494.51,175.921 1495.21,175.847 1495.91,175.772 1496.61,175.698 1497.31,175.624 1498.01,175.55 1498.71,175.476 1499.41,175.402 1500.11,175.329 1500.81,175.256 1501.51,175.182 1502.21,175.109 1502.91,175.037 1503.61,174.964 1504.31,174.891 1505.01,174.819 1505.71,174.747 1506.41,174.674 1507.11,174.603 1507.81,174.531 1508.51,174.459 1509.21,174.388 1509.91,174.316 1510.61,174.245 1511.31,174.174 1512.01,174.103 1512.71,174.032 1513.41,173.962 1514.11,173.891 1514.81,173.821 1515.51,173.751 1516.21,173.681 1516.91,173.611 1517.61,173.541 1518.31,173.471 1519.01,173.402 1519.71,173.333 1520.41,173.264 1521.11,173.195 1521.81,173.126 1522.51,173.057 1523.21,172.988 1523.91,172.92 1524.61,172.852 1525.31,172.784 1526.01,172.716 1526.71,172.648 1527.41,172.58 1528.11,172.513 1528.81,172.445 1529.51,172.378 1530.21,172.311 1530.91,172.244 1531.61,172.177 1532.31,172.11 1533.01,172.044 1533.71,171.977 1534.41,171.911 1535.11,171.845 1535.81,171.779 1536.51,171.713 1537.21,171.647 1537.92,171.581 1538.62,171.516 1539.32,171.451 1540.02,171.385 1540.72,171.32 1541.42,171.255 1542.12,171.191 1542.82,171.126 1543.52,171.061 1544.22,170.997 1544.92,170.933 1545.62,170.869 1546.32,170.805 1547.02,170.741 1547.72,170.677 1548.42,170.614 1549.12,170.55 1549.82,170.487 1550.52,170.424 1551.22,170.361 1551.92,170.298 1552.62,170.235 1553.32,170.172 1554.02,170.11 1554.72,170.047 1555.42,169.985 1556.12,169.923 1556.82,169.861 1557.52,169.799 1558.22,169.737 1558.92,169.676 1559.62,169.614 1560.32,169.553 1561.02,169.492 1561.72,169.431 1562.42,169.37 1563.12,169.309 1563.82,169.248 1564.52,169.188 1565.22,169.127 1565.92,169.067 1566.62,169.007 1567.32,168.947 1568.02,168.887 1568.72,168.827 1569.42,168.767 1570.12,168.708 1570.82,168.648 1571.52,168.589 1572.22,168.53 1572.92,168.471 1573.62,168.412 1574.32,168.353 1575.02,168.294 1575.72,168.235 1576.42,168.177 1577.12,168.119 1577.82,168.061 1578.52,168.002 1579.22,167.944 1579.92,167.887 1580.62,167.829 1581.32,167.771 1582.02,167.714 1582.72,167.656 1583.42,167.599 1584.12,167.542 1584.82,167.485 1585.52,167.428 1586.22,167.371 1586.92,167.315 1587.62,167.258 1588.32,167.202 1589.02,167.146 1589.72,167.089 1590.42,167.033 1591.12,166.977 1591.82,166.922 1592.52,166.866 1593.22,166.81 1593.92,166.755 1594.62,166.7 1595.32,166.644 1596.03,166.589 1596.73,166.534 1597.43,166.479 1598.13,166.425 1598.83,166.37 1599.53,166.315 1600.23,166.261 1600.93,166.207 1601.63,166.152 1602.33,166.098 1603.03,166.044 1603.73,165.991 1604.43,165.937 1605.13,165.883 1605.83,165.83 1606.53,165.776 1607.23,165.723 1607.93,165.67 1608.63,165.617 1609.33,165.564 1610.03,165.511 1610.73,165.458 1611.43,165.406 1612.13,165.353 1612.83,165.301 1613.53,165.248 1614.23,165.196 1614.93,165.144 1615.63,165.092 1616.33,165.04 1617.03,164.989 1617.73,164.937 1618.43,164.885 1619.13,164.834 1619.83,164.783 1620.53,164.731 1621.23,164.68 1621.93,164.629 1622.63,164.578 1623.33,164.528 1624.03,164.477 1624.73,164.426 1625.43,164.376 1626.13,164.326 1626.83,164.275 1627.53,164.225 1628.23,164.175 1628.93,164.125 1629.63,164.075 1630.33,164.026 1631.03,163.976 1631.73,163.927 1632.43,163.877 1633.13,163.828 1633.83,163.779 1634.53,163.729 1635.23,163.68 1635.93,163.632 1636.63,163.583 1637.33,163.534 1638.03,163.486 1638.73,163.437 1639.43,163.389 1640.13,163.34 1640.83,163.292 1641.53,163.244 1642.23,163.196 1642.93,163.148 1643.63,163.1 1644.33,163.053 1645.03,163.005 1645.73,162.958 1646.43,162.91 1647.13,162.863 1647.83,162.816 1648.53,162.769 1649.23,162.722 1649.93,162.675 1650.63,162.628 1651.33,162.581 1652.03,162.535 1652.73,162.488 1653.44,162.442 1654.14,162.396 1654.84,162.349 1655.54,162.303 1656.24,162.257 1656.94,162.211 1657.64,162.166 1658.34,162.12 1659.04,162.074 1659.74,162.029 1660.44,161.983 1661.14,161.938 1661.84,161.893 1662.54,161.848 1663.24,161.803 1663.94,161.758 1664.64,161.713 1665.34,161.668 1666.04,161.623 1666.74,161.579 1667.44,161.534 1668.14,161.49 1668.84,161.446 1669.54,161.401 1670.24,161.357 1670.94,161.313 1671.64,161.269 1672.34,161.225 1673.04,161.182 1673.74,161.138 1674.44,161.094 1675.14,161.051 1675.84,161.008 1676.54,160.964 1677.24,160.921 1677.94,160.878 1678.64,160.835 1679.34,160.792 1680.04,160.749 1680.74,160.706 1681.44,160.664 1682.14,160.621 1682.84,160.579 1683.54,160.536 1684.24,160.494 1684.94,160.452 1685.64,160.41 1686.34,160.368 1687.04,160.326 1687.74,160.284 1688.44,160.242 1689.14,160.2 1689.84,160.159 1690.54,160.117 1691.24,160.076 1691.94,160.035 1692.64,159.993 1693.34,159.952 1694.04,159.911 1694.74,159.87 1695.44,159.829 1696.14,159.788 1696.84,159.748 1697.54,159.707 1698.24,159.666 1698.94,159.626 1699.64,159.586 1700.34,159.545 1701.04,159.505 1701.74,159.465 1702.44,159.425 1703.14,159.385 1703.84,159.345 1704.54,159.305 1705.24,159.266 1705.94,159.226 1706.64,159.186 1707.34,159.147 1708.04,159.107 1708.74,159.068 1709.44,159.029 1710.14,158.99 1710.84,158.951 1711.55,158.912 1712.25,158.873 1712.95,158.834 1713.65,158.795 1714.35,158.757 1715.05,158.718 1715.75,158.68 1716.45,158.641 1717.15,158.603 1717.85,158.565 1718.55,158.527 1719.25,158.488 1719.95,158.45 1720.65,158.412 1721.35,158.375 1722.05,158.337 1722.75,158.299 1723.45,158.262 1724.15,158.224 1724.85,158.187 1725.55,158.149 1726.25,158.112 1726.95,158.075 1727.65,158.038 1728.35,158.001 1729.05,157.964 1729.75,157.927 1730.45,157.89 1731.15,157.853 1731.85,157.816 1732.55,157.78 1733.25,157.743 1733.95,157.707 1734.65,157.67 1735.35,157.634 1736.05,157.598 1736.75,157.562 1737.45,157.526 1738.15,157.49 1738.85,157.454 1739.55,157.418 1740.25,157.382 1740.95,157.347 1741.65,157.311 1742.35,157.275 1743.05,157.24 1743.75,157.205 1744.45,157.169 1745.15,157.134 1745.85,157.099 1746.55,157.064 1747.25,157.029 1747.95,156.994 1748.65,156.959 1749.35,156.924 1750.05,156.889 1750.75,156.855 1751.45,156.82 1752.15,156.786 1752.85,156.751 1753.55,156.717 1754.25,156.683 1754.95,156.648 1755.65,156.614 1756.35,156.58 1757.05,156.546 1757.75,156.512 1758.45,156.478 1759.15,156.445 1759.85,156.411 1760.55,156.377 1761.25,156.344 1761.95,156.31 1762.65,156.277 1763.35,156.243 1764.05,156.21 1764.75,156.177 1765.45,156.144 1766.15,156.111 1766.85,156.078 1767.55,156.045 1768.25,156.012 1768.95,155.979 1769.66,155.946 1770.36,155.914 1771.06,155.881 1771.76,155.848 1772.46,155.816 1773.16,155.784 1773.86,155.751 1774.56,155.719 1775.26,155.687 1775.96,155.655 1776.66,155.623 1777.36,155.591 1778.06,155.559 1778.76,155.527 1779.46,155.495 1780.16,155.463 1780.86,155.432 1781.56,155.4 1782.26,155.369 1782.96,155.337 1783.66,155.306 1784.36,155.274 1785.06,155.243 1785.76,155.212 1786.46,155.181 1787.16,155.15 1787.86,155.119 1788.56,155.088 1789.26,155.057 1789.96,155.026 1790.66,154.995 1791.36,154.965 1792.06,154.934 1792.76,154.904 1793.46,154.873 1794.16,154.843 1794.86,154.812 1795.56,154.782 1796.26,154.752 1796.96,154.722 1797.66,154.691 1798.36,154.661 1799.06,154.631 1799.76,154.602 1800.46,154.572 1801.16,154.542 1801.86,154.512 1802.56,154.483 1803.26,154.453 1803.96,154.423 1804.66,154.394 1805.36,154.364 1806.06,154.335 1806.76,154.306 1807.46,154.277 1808.16,154.247 1808.86,154.218 1809.56,154.189 1810.26,154.16 1810.96,154.131 1811.66,154.103 1812.36,154.074 1813.06,154.045 1813.76,154.016 1814.46,153.988 1815.16,153.959 1815.86,153.931 1816.56,153.902 1817.26,153.874 1817.96,153.845 1818.66,153.817 1819.36,153.789 1820.06,153.761 1820.76,153.733 1821.46,153.705 1822.16,153.677 1822.86,153.649 1823.56,153.621 1824.26,153.593 1824.96,153.565 1825.66,153.538 1826.36,153.51 1827.07,153.483 1827.77,153.455 1828.47,153.428 1829.17,153.4 1829.87,153.373 1830.57,153.346 1831.27,153.318 1831.97,153.291 1832.67,153.264 1833.37,153.237 1834.07,153.21 1834.77,153.183 1835.47,153.156 1836.17,153.13 1836.87,153.103 1837.57,153.076 1838.27,153.049 1838.97,153.023 1839.67,152.996 1840.37,152.97 1841.07,152.943 1841.77,152.917 1842.47,152.891 1843.17,152.864 1843.87,152.838 1844.57,152.812 1845.27,152.786 1845.97,152.76 1846.67,152.734 1847.37,152.708 1848.07,152.682 1848.77,152.656 1849.47,152.631 1850.17,152.605 1850.87,152.579 1851.57,152.554 1852.27,152.528 1852.97,152.502 1853.67,152.477 1854.37,152.452 1855.07,152.426 1855.77,152.401 1856.47,152.376 1857.17,152.351 1857.87,152.325 1858.57,152.3 1859.27,152.275 1859.97,152.25 1860.67,152.225 1861.37,152.201 1862.07,152.176 1862.77,152.151 1863.47,152.126 1864.17,152.102 1864.87,152.077 1865.57,152.052 1866.27,152.028 1866.97,152.004 1867.67,151.979 1868.37,151.955 1869.07,151.93 1869.77,151.906 1870.47,151.882 1871.17,151.858 1871.87,151.834 1872.57,151.81 1873.27,151.786 1873.97,151.762 1874.67,151.738 1875.37,151.714 1876.07,151.69 1876.77,151.667 1877.47,151.643 1878.17,151.619 1878.87,151.596 1879.57,151.572 1880.27,151.549 1880.97,151.525 1881.67,151.502 1882.37,151.478 1883.07,151.455 1883.77,151.432 1884.47,151.409 1885.18,151.385 1885.88,151.362 1886.58,151.339 1887.28,151.316 1887.98,151.293 1888.68,151.27 1889.38,151.248 1890.08,151.225 1890.78,151.202 1891.48,151.179 1892.18,151.157 1892.88,151.134 1893.58,151.111 1894.28,151.089 1894.98,151.066 1895.68,151.044 1896.38,151.022 1897.08,150.999 1897.78,150.977 1898.48,150.955 1899.18,150.933 1899.88,150.91 1900.58,150.888 1901.28,150.866 1901.98,150.844 1902.68,150.822 1903.38,150.8 1904.08,150.778 1904.78,150.757 1905.48,150.735 1906.18,150.713 1906.88,150.691 1907.58,150.67 1908.28,150.648 1908.98,150.627 1909.68,150.605 1910.38,150.584 1911.08,150.562 1911.78,150.541 1912.48,150.519 1913.18,150.498 1913.88,150.477 1914.58,150.456 1915.28,150.435 1915.98,150.413 1916.68,150.392 1917.38,150.371 1918.08,150.35 1918.78,150.329 1919.48,150.309 1920.18,150.288 1920.88,150.267 1921.58,150.246 1922.28,150.225 1922.98,150.205 1923.68,150.184 1924.38,150.164 1925.08,150.143 1925.78,150.123 1926.48,150.102 1927.18,150.082 1927.88,150.061 1928.58,150.041 1929.28,150.021 1929.98,150 1930.68,149.98 1931.38,149.96 1932.08,149.94 1932.78,149.92 1933.48,149.9 1934.18,149.88 1934.88,149.86 1935.58,149.84 1936.28,149.82 1936.98,149.8 1937.68,149.781 1938.38,149.761 1939.08,149.741 1939.78,149.721 1940.48,149.702 1941.18,149.682 1941.88,149.663 1942.58,149.643 1943.29,149.624 1943.99,149.604 1944.69,149.585 1945.39,149.566 1946.09,149.546 1946.79,149.527 1947.49,149.508 1948.19,149.489 1948.89,149.47 1949.59,149.451 1950.29,149.432 1950.99,149.413 1951.69,149.394 1952.39,149.375 1953.09,149.356 1953.79,149.337 1954.49,149.318 1955.19,149.299 1955.89,149.281 1956.59,149.262 1957.29,149.243 1957.99,149.225 1958.69,149.206 1959.39,149.188 1960.09,149.169 1960.79,149.151 1961.49,149.132 1962.19,149.114 1962.89,149.096 1963.59,149.077 1964.29,149.059 1964.99,149.041 1965.69,149.023 1966.39,149.004 1967.09,148.986 1967.79,148.968 1968.49,148.95 1969.19,148.932 1969.89,148.914 1970.59,148.896 1971.29,148.878 1971.99,148.861 1972.69,148.843 1973.39,148.825 1974.09,148.807 1974.79,148.79 1975.49,148.772 1976.19,148.754 1976.89,148.737 1977.59,148.719 1978.29,148.702 1978.99,148.684 1979.69,148.667 1980.39,148.649 1981.09,148.632 1981.79,148.615 1982.49,148.597 1983.19,148.58 1983.89,148.563 1984.59,148.546 1985.29,148.529 1985.99,148.511 1986.69,148.494 1987.39,148.477 1988.09,148.46 1988.79,148.443 1989.49,148.426 1990.19,148.41 1990.89,148.393 1991.59,148.376 1992.29,148.359 1992.99,148.342 1993.69,148.326 1994.39,148.309 1995.09,148.292 1995.79,148.276 1996.49,148.259 1997.19,148.243 1997.89,148.226 1998.59,148.21 1999.29,148.193 1999.99,148.177 2000.7,148.16 2001.4,148.144 2002.1,148.128 2002.8,148.111 2003.5,148.095 2004.2,148.079 2004.9,148.063 2005.6,148.047 2006.3,148.031 2007,148.014 2007.7,147.998 2008.4,147.982 2009.1,147.966 2009.8,147.951 2010.5,147.935 2011.2,147.919 2011.9,147.903 2012.6,147.887 2013.3,147.871 2014,147.856 2014.7,147.84 2015.4,147.824 2016.1,147.809 2016.8,147.793 2017.5,147.778 2018.2,147.762 2018.9,147.746 2019.6,147.731 2020.3,147.716 2021,147.7 2021.7,147.685 2022.4,147.669 2023.1,147.654 2023.8,147.639 2024.5,147.624 2025.2,147.608 2025.9,147.593 2026.6,147.578 2027.3,147.563 2028,147.548 2028.7,147.533 2029.4,147.518 2030.1,147.503 2030.8,147.488 2031.5,147.473 2032.2,147.458 2032.9,147.443 2033.6,147.428 2034.3,147.414 2035,147.399 2035.7,147.384 2036.4,147.369 2037.1,147.355 2037.8,147.34 2038.5,147.325 2039.2,147.311 2039.9,147.296 2040.6,147.282 2041.3,147.267 2042,147.253 2042.7,147.238 2043.4,147.224 2044.1,147.21 2044.8,147.195 2045.5,147.181 2046.2,147.167 2046.9,147.152 2047.6,147.138 2048.3,147.124 2049,147.11 2049.7,147.096 2050.4,147.082 2051.1,147.067 2051.8,147.053 2052.5,147.039 2053.2,147.025 2053.9,147.011 2054.6,146.997 2055.3,146.984 2056,146.97 2056.7,146.956 2057.4,146.942 2058.1,146.928 2058.81,146.915 2059.51,146.901 2060.21,146.887 2060.91,146.873 2061.61,146.86 2062.31,146.846 2063.01,146.833 2063.71,146.819 2064.41,146.806 2065.11,146.792 2065.81,146.779 2066.51,146.765 2067.21,146.752 2067.91,146.738 2068.61,146.725 2069.31,146.712 2070.01,146.698 2070.71,146.685 2071.41,146.672 2072.11,146.659 2072.81,146.645 2073.51,146.632 2074.21,146.619 2074.91,146.606 2075.61,146.593 2076.31,146.58 2077.01,146.567 2077.71,146.554 2078.41,146.541 2079.11,146.528 2079.81,146.515 2080.51,146.502 2081.21,146.489 2081.91,146.476 2082.61,146.464 2083.31,146.451 2084.01,146.438 2084.71,146.425 2085.41,146.413 2086.11,146.4 2086.81,146.387 2087.51,146.375 2088.21,146.362 2088.91,146.35 2089.61,146.337 2090.31,146.325 2091.01,146.312 2091.71,146.3 2092.41,146.287 2093.11,146.275 2093.81,146.262 2094.51,146.25 2095.21,146.238 2095.91,146.225 2096.61,146.213 2097.31,146.201 2098.01,146.189 2098.71,146.176 2099.41,146.164 2100.11,146.152 2100.81,146.14 2101.51,146.128 2102.21,146.116 2102.91,146.104 2103.61,146.092 2104.31,146.08 2105.01,146.068 2105.71,146.056 2106.41,146.044 2107.11,146.032 2107.81,146.02 2108.51,146.008 2109.21,145.996 2109.91,145.985 2110.61,145.973 2111.31,145.961 2112.01,145.949 2112.71,145.938 2113.41,145.926 2114.11,145.914 2114.81,145.903 2115.51,145.891 2116.22,145.88 2116.92,145.868 2117.62,145.857 2118.32,145.845 2119.02,145.834 2119.72,145.822 2120.42,145.811 2121.12,145.799 2121.82,145.788 2122.52,145.776 2123.22,145.765 2123.92,145.754 2124.62,145.743 2125.32,145.731 2126.02,145.72 2126.72,145.709 2127.42,145.698 2128.12,145.686 2128.82,145.675 2129.52,145.664 2130.22,145.653 2130.92,145.642 2131.62,145.631 2132.32,145.62 2133.02,145.609 2133.72,145.598 2134.42,145.587 2135.12,145.576 2135.82,145.565 2136.52,145.554 2137.22,145.543 2137.92,145.532 2138.62,145.522 2139.32,145.511 2140.02,145.5 2140.72,145.489 2141.42,145.479 2142.12,145.468 2142.82,145.457 2143.52,145.446 2144.22,145.436 2144.92,145.425 2145.62,145.415 2146.32,145.404 2147.02,145.393 2147.72,145.383 2148.42,145.372 2149.12,145.362 2149.82,145.351 2150.52,145.341 2151.22,145.331 2151.92,145.32 2152.62,145.31 2153.32,145.299 2154.02,145.289 2154.72,145.279 2155.42,145.269 2156.12,145.258 2156.82,145.248 2157.52,145.238 2158.22,145.228 2158.92,145.217 2159.62,145.207 2160.32,145.197 2161.02,145.187 2161.72,145.177 2162.42,145.167 2163.12,145.157 2163.82,145.147 2164.52,145.137 2165.22,145.127 2165.92,145.117 2166.62,145.107 2167.32,145.097 2168.02,145.087 2168.72,145.077 2169.42,145.067 2170.12,145.057 2170.82,145.047 2171.52,145.038 2172.22,145.028 2172.92,145.018 2173.62,145.008 2174.33,144.999 2175.03,144.989 2175.73,144.979 2176.43,144.97 2177.13,144.96 2177.83,144.95 2178.53,144.941 2179.23,144.931 2179.93,144.922 2180.63,144.912 2181.33,144.902 2182.03,144.893 2182.73,144.883 2183.43,144.874 2184.13,144.865 2184.83,144.855 2185.53,144.846 2186.23,144.836 2186.93,144.827 2187.63,144.818 2188.33,144.808 2189.03,144.799 2189.73,144.79 2190.43,144.78 2191.13,144.771 2191.83,144.762 2192.53,144.753 2193.23,144.744 2193.93,144.734 2194.63,144.725 2195.33,144.716 2196.03,144.707 2196.73,144.698 2197.43,144.689 2198.13,144.68 2198.83,144.671 2199.53,144.662 2200.23,144.653 2200.93,144.644 2201.63,144.635 2202.33,144.626 2203.03,144.617 2203.73,144.608 2204.43,144.599 2205.13,144.59 2205.83,144.581 2206.53,144.573 2207.23,144.564 2207.93,144.555 2208.63,144.546 2209.33,144.537 2210.03,144.529 2210.73,144.52 2211.43,144.511 2212.13,144.503 2212.83,144.494 2213.53,144.485 2214.23,144.477 2214.93,144.468 2215.63,144.459 2216.33,144.451 2217.03,144.442 2217.73,144.434 2218.43,144.425 2219.13,144.417 2219.83,144.408 2220.53,144.4 2221.23,144.391 2221.93,144.383 2222.63,144.375 2223.33,144.366 2224.03,144.358 2224.73,144.349 2225.43,144.341 2226.13,144.333 2226.83,144.324 2227.53,144.316 2228.23,144.308 2228.93,144.3 2229.63,144.291 2230.33,144.283 2231.03,144.275 2231.73,144.267 2232.44,144.259 2233.14,144.25 2233.84,144.242 2234.54,144.234 2235.24,144.226 2235.94,144.218 2236.64,144.21 2237.34,144.202 2238.04,144.194 2238.74,144.186 2239.44,144.178 2240.14,144.17 2240.84,144.162 2241.54,144.154 2242.24,144.146 2242.94,144.138 2243.64,144.13 2244.34,144.122 2245.04,144.114 2245.74,144.107 2246.44,144.099 2247.14,144.091 2247.84,144.083 2248.54,144.075 2249.24,144.068 2249.94,144.06 2250.64,144.052 2251.34,144.044 2252.04,144.037 2252.74,144.029 2253.44,144.021 2254.14,144.014 2254.84,144.006 2255.54,143.998 2256.24,143.991 2256.94,143.983 2257.64,143.976 2258.34,143.968 2259.04,143.96 2259.74,143.953 2260.44,143.945 2261.14,143.938 2261.84,143.93 2262.54,143.923 2263.24,143.916 2263.94,143.908 2264.64,143.901 2265.34,143.893 2266.04,143.886 2266.74,143.879 2267.44,143.871 2268.14,143.864 2268.84,143.857 2269.54,143.849 2270.24,143.842 2270.94,143.835 2271.64,143.827 2272.34,143.82 2273.04,143.813 2273.74,143.806 2274.44,143.798 2275.14,143.791 2275.84,143.784 2276.54,143.777 2277.24,143.77 2277.94,143.763 2278.64,143.756 2279.34,143.748 2280.04,143.741 2280.74,143.734 2281.44,143.727 2282.14,143.72 2282.84,143.713 2283.54,143.706 2284.24,143.699 2284.94,143.692 2285.64,143.685 2286.34,143.678 2287.04,143.671 2287.74,143.664 2288.44,143.658 2289.14,143.651 2289.85,143.644 2290.55,143.637 2291.25,143.63 2291.95,143.623 2292.65,143.616 "/>
<circle clip-path="url(#clip702)" cx="292.4" cy="1358.58" r="14.4" fill="#3da44d" fill-rule="evenodd" fill-opacity="1" stroke="#000000" stroke-opacity="1" stroke-width="3.2"/>
<circle clip-path="url(#clip702)" cx="325.739" cy="1271.79" r="14.4" fill="#3da44d" fill-rule="evenodd" fill-opacity="1" stroke="#000000" stroke-opacity="1" stroke-width="3.2"/>
<circle clip-path="url(#clip702)" cx="359.078" cy="1092.76" r="14.4" fill="#3da44d" fill-rule="evenodd" fill-opacity="1" stroke="#000000" stroke-opacity="1" stroke-width="3.2"/>
<circle clip-path="url(#clip702)" cx="392.417" cy="1092.26" r="14.4" fill="#3da44d" fill-rule="evenodd" fill-opacity="1" stroke="#000000" stroke-opacity="1" stroke-width="3.2"/>
<circle clip-path="url(#clip702)" cx="425.756" cy="947.984" r="14.4" fill="#3da44d" fill-rule="evenodd" fill-opacity="1" stroke="#000000" stroke-opacity="1" stroke-width="3.2"/>
<circle clip-path="url(#clip702)" cx="459.095" cy="900.446" r="14.4" fill="#3da44d" fill-rule="evenodd" fill-opacity="1" stroke="#000000" stroke-opacity="1" stroke-width="3.2"/>
<circle clip-path="url(#clip702)" cx="492.434" cy="803.863" r="14.4" fill="#3da44d" fill-rule="evenodd" fill-opacity="1" stroke="#000000" stroke-opacity="1" stroke-width="3.2"/>
<circle clip-path="url(#clip702)" cx="525.773" cy="776.68" r="14.4" fill="#3da44d" fill-rule="evenodd" fill-opacity="1" stroke="#000000" stroke-opacity="1" stroke-width="3.2"/>
<circle clip-path="url(#clip702)" cx="559.112" cy="689.538" r="14.4" fill="#3da44d" fill-rule="evenodd" fill-opacity="1" stroke="#000000" stroke-opacity="1" stroke-width="3.2"/>
<circle clip-path="url(#clip702)" cx="592.452" cy="653.007" r="14.4" fill="#3da44d" fill-rule="evenodd" fill-opacity="1" stroke="#000000" stroke-opacity="1" stroke-width="3.2"/>
<circle clip-path="url(#clip702)" cx="625.791" cy="603.716" r="14.4" fill="#3da44d" fill-rule="evenodd" fill-opacity="1" stroke="#000000" stroke-opacity="1" stroke-width="3.2"/>
<circle clip-path="url(#clip702)" cx="659.13" cy="561.671" r="14.4" fill="#3da44d" fill-rule="evenodd" fill-opacity="1" stroke="#000000" stroke-opacity="1" stroke-width="3.2"/>
<circle clip-path="url(#clip702)" cx="692.469" cy="475.892" r="14.4" fill="#3da44d" fill-rule="evenodd" fill-opacity="1" stroke="#000000" stroke-opacity="1" stroke-width="3.2"/>
<circle clip-path="url(#clip702)" cx="725.808" cy="469.309" r="14.4" fill="#3da44d" fill-rule="evenodd" fill-opacity="1" stroke="#000000" stroke-opacity="1" stroke-width="3.2"/>
<circle clip-path="url(#clip702)" cx="759.147" cy="419.638" r="14.4" fill="#3da44d" fill-rule="evenodd" fill-opacity="1" stroke="#000000" stroke-opacity="1" stroke-width="3.2"/>
<circle clip-path="url(#clip702)" cx="792.486" cy="427.937" r="14.4" fill="#3da44d" fill-rule="evenodd" fill-opacity="1" stroke="#000000" stroke-opacity="1" stroke-width="3.2"/>
<circle clip-path="url(#clip702)" cx="825.825" cy="414.17" r="14.4" fill="#3da44d" fill-rule="evenodd" fill-opacity="1" stroke="#000000" stroke-opacity="1" stroke-width="3.2"/>
<circle clip-path="url(#clip702)" cx="859.164" cy="327.633" r="14.4" fill="#3da44d" fill-rule="evenodd" fill-opacity="1" stroke="#000000" stroke-opacity="1" stroke-width="3.2"/>
<circle clip-path="url(#clip702)" cx="892.503" cy="347.674" r="14.4" fill="#3da44d" fill-rule="evenodd" fill-opacity="1" stroke="#000000" stroke-opacity="1" stroke-width="3.2"/>
<circle clip-path="url(#clip702)" cx="925.843" cy="338.711" r="14.4" fill="#3da44d" fill-rule="evenodd" fill-opacity="1" stroke="#000000" stroke-opacity="1" stroke-width="3.2"/>
<circle clip-path="url(#clip702)" cx="959.182" cy="303.722" r="14.4" fill="#3da44d" fill-rule="evenodd" fill-opacity="1" stroke="#000000" stroke-opacity="1" stroke-width="3.2"/>
<circle clip-path="url(#clip702)" cx="992.521" cy="273.532" r="14.4" fill="#3da44d" fill-rule="evenodd" fill-opacity="1" stroke="#000000" stroke-opacity="1" stroke-width="3.2"/>
<circle clip-path="url(#clip702)" cx="1025.86" cy="250.113" r="14.4" fill="#3da44d" fill-rule="evenodd" fill-opacity="1" stroke="#000000" stroke-opacity="1" stroke-width="3.2"/>
<circle clip-path="url(#clip702)" cx="1059.2" cy="257.859" r="14.4" fill="#3da44d" fill-rule="evenodd" fill-opacity="1" stroke="#000000" stroke-opacity="1" stroke-width="3.2"/>
<circle clip-path="url(#clip702)" cx="1092.54" cy="277.71" r="14.4" fill="#3da44d" fill-rule="evenodd" fill-opacity="1" stroke="#000000" stroke-opacity="1" stroke-width="3.2"/>
<circle clip-path="url(#clip702)" cx="1125.88" cy="170.146" r="14.4" fill="#3da44d" fill-rule="evenodd" fill-opacity="1" stroke="#000000" stroke-opacity="1" stroke-width="3.2"/>
<circle clip-path="url(#clip702)" cx="1159.22" cy="232.06" r="14.4" fill="#3da44d" fill-rule="evenodd" fill-opacity="1" stroke="#000000" stroke-opacity="1" stroke-width="3.2"/>
<circle clip-path="url(#clip702)" cx="1192.56" cy="169.254" r="14.4" fill="#3da44d" fill-rule="evenodd" fill-opacity="1" stroke="#000000" stroke-opacity="1" stroke-width="3.2"/>
<circle clip-path="url(#clip702)" cx="1225.89" cy="202.201" r="14.4" fill="#3da44d" fill-rule="evenodd" fill-opacity="1" stroke="#000000" stroke-opacity="1" stroke-width="3.2"/>
<circle clip-path="url(#clip702)" cx="1259.23" cy="215.662" r="14.4" fill="#3da44d" fill-rule="evenodd" fill-opacity="1" stroke="#000000" stroke-opacity="1" stroke-width="3.2"/>
<circle clip-path="url(#clip702)" cx="1292.57" cy="234.182" r="14.4" fill="#3da44d" fill-rule="evenodd" fill-opacity="1" stroke="#000000" stroke-opacity="1" stroke-width="3.2"/>
<circle clip-path="url(#clip702)" cx="1325.91" cy="208.232" r="14.4" fill="#3da44d" fill-rule="evenodd" fill-opacity="1" stroke="#000000" stroke-opacity="1" stroke-width="3.2"/>
<circle clip-path="url(#clip702)" cx="1359.25" cy="152.938" r="14.4" fill="#3da44d" fill-rule="evenodd" fill-opacity="1" stroke="#000000" stroke-opacity="1" stroke-width="3.2"/>
<circle clip-path="url(#clip702)" cx="1392.59" cy="175.007" r="14.4" fill="#3da44d" fill-rule="evenodd" fill-opacity="1" stroke="#000000" stroke-opacity="1" stroke-width="3.2"/>
<circle clip-path="url(#clip702)" cx="1425.93" cy="157.489" r="14.4" fill="#3da44d" fill-rule="evenodd" fill-opacity="1" stroke="#000000" stroke-opacity="1" stroke-width="3.2"/>
<circle clip-path="url(#clip702)" cx="1459.27" cy="201.682" r="14.4" fill="#3da44d" fill-rule="evenodd" fill-opacity="1" stroke="#000000" stroke-opacity="1" stroke-width="3.2"/>
<circle clip-path="url(#clip702)" cx="1492.61" cy="225.257" r="14.4" fill="#3da44d" fill-rule="evenodd" fill-opacity="1" stroke="#000000" stroke-opacity="1" stroke-width="3.2"/>
<circle clip-path="url(#clip702)" cx="1525.95" cy="140.848" r="14.4" fill="#3da44d" fill-rule="evenodd" fill-opacity="1" stroke="#000000" stroke-opacity="1" stroke-width="3.2"/>
<circle clip-path="url(#clip702)" cx="1559.29" cy="147.215" r="14.4" fill="#3da44d" fill-rule="evenodd" fill-opacity="1" stroke="#000000" stroke-opacity="1" stroke-width="3.2"/>
<circle clip-path="url(#clip702)" cx="1592.62" cy="178.85" r="14.4" fill="#3da44d" fill-rule="evenodd" fill-opacity="1" stroke="#000000" stroke-opacity="1" stroke-width="3.2"/>
<circle clip-path="url(#clip702)" cx="1625.96" cy="175.247" r="14.4" fill="#3da44d" fill-rule="evenodd" fill-opacity="1" stroke="#000000" stroke-opacity="1" stroke-width="3.2"/>
<circle clip-path="url(#clip702)" cx="1659.3" cy="186.488" r="14.4" fill="#3da44d" fill-rule="evenodd" fill-opacity="1" stroke="#000000" stroke-opacity="1" stroke-width="3.2"/>
<circle clip-path="url(#clip702)" cx="1692.64" cy="168.079" r="14.4" fill="#3da44d" fill-rule="evenodd" fill-opacity="1" stroke="#000000" stroke-opacity="1" stroke-width="3.2"/>
<circle clip-path="url(#clip702)" cx="1725.98" cy="210.726" r="14.4" fill="#3da44d" fill-rule="evenodd" fill-opacity="1" stroke="#000000" stroke-opacity="1" stroke-width="3.2"/>
<circle clip-path="url(#clip702)" cx="1759.32" cy="187.066" r="14.4" fill="#3da44d" fill-rule="evenodd" fill-opacity="1" stroke="#000000" stroke-opacity="1" stroke-width="3.2"/>
<circle clip-path="url(#clip702)" cx="1792.66" cy="149.872" r="14.4" fill="#3da44d" fill-rule="evenodd" fill-opacity="1" stroke="#000000" stroke-opacity="1" stroke-width="3.2"/>
<circle clip-path="url(#clip702)" cx="1826" cy="94.3054" r="14.4" fill="#3da44d" fill-rule="evenodd" fill-opacity="1" stroke="#000000" stroke-opacity="1" stroke-width="3.2"/>
<circle clip-path="url(#clip702)" cx="1859.34" cy="123.135" r="14.4" fill="#3da44d" fill-rule="evenodd" fill-opacity="1" stroke="#000000" stroke-opacity="1" stroke-width="3.2"/>
<circle clip-path="url(#clip702)" cx="1892.68" cy="118.426" r="14.4" fill="#3da44d" fill-rule="evenodd" fill-opacity="1" stroke="#000000" stroke-opacity="1" stroke-width="3.2"/>
<circle clip-path="url(#clip702)" cx="1926.02" cy="174.147" r="14.4" fill="#3da44d" fill-rule="evenodd" fill-opacity="1" stroke="#000000" stroke-opacity="1" stroke-width="3.2"/>
<circle clip-path="url(#clip702)" cx="1959.35" cy="115.118" r="14.4" fill="#3da44d" fill-rule="evenodd" fill-opacity="1" stroke="#000000" stroke-opacity="1" stroke-width="3.2"/>
<circle clip-path="url(#clip702)" cx="1992.69" cy="160.991" r="14.4" fill="#3da44d" fill-rule="evenodd" fill-opacity="1" stroke="#000000" stroke-opacity="1" stroke-width="3.2"/>
<circle clip-path="url(#clip702)" cx="2026.03" cy="138.514" r="14.4" fill="#3da44d" fill-rule="evenodd" fill-opacity="1" stroke="#000000" stroke-opacity="1" stroke-width="3.2"/>
<circle clip-path="url(#clip702)" cx="2059.37" cy="131.884" r="14.4" fill="#3da44d" fill-rule="evenodd" fill-opacity="1" stroke="#000000" stroke-opacity="1" stroke-width="3.2"/>
<circle clip-path="url(#clip702)" cx="2092.71" cy="138.812" r="14.4" fill="#3da44d" fill-rule="evenodd" fill-opacity="1" stroke="#000000" stroke-opacity="1" stroke-width="3.2"/>
<circle clip-path="url(#clip702)" cx="2126.05" cy="165.489" r="14.4" fill="#3da44d" fill-rule="evenodd" fill-opacity="1" stroke="#000000" stroke-opacity="1" stroke-width="3.2"/>
<circle clip-path="url(#clip702)" cx="2159.39" cy="145.998" r="14.4" fill="#3da44d" fill-rule="evenodd" fill-opacity="1" stroke="#000000" stroke-opacity="1" stroke-width="3.2"/>
<circle clip-path="url(#clip702)" cx="2192.73" cy="171.411" r="14.4" fill="#3da44d" fill-rule="evenodd" fill-opacity="1" stroke="#000000" stroke-opacity="1" stroke-width="3.2"/>
<circle clip-path="url(#clip702)" cx="2226.07" cy="86.1857" r="14.4" fill="#3da44d" fill-rule="evenodd" fill-opacity="1" stroke="#000000" stroke-opacity="1" stroke-width="3.2"/>
<circle clip-path="url(#clip702)" cx="2259.41" cy="132.677" r="14.4" fill="#3da44d" fill-rule="evenodd" fill-opacity="1" stroke="#000000" stroke-opacity="1" stroke-width="3.2"/>
<circle clip-path="url(#clip702)" cx="2292.75" cy="141.58" r="14.4" fill="#3da44d" fill-rule="evenodd" fill-opacity="1" stroke="#000000" stroke-opacity="1" stroke-width="3.2"/>
<path clip-path="url(#clip700)" d="M303.068 300.469 L993.227 300.469 L993.227 93.1086 L303.068 93.1086  Z" fill="#ffffff" fill-rule="evenodd" fill-opacity="1"/>
<polyline clip-path="url(#clip700)" style="stroke:#000000; stroke-linecap:round; stroke-linejoin:round; stroke-width:4; stroke-opacity:1; fill:none" points="303.068,300.469 993.227,300.469 993.227,93.1086 303.068,93.1086 303.068,300.469 "/>
<polyline clip-path="url(#clip700)" style="stroke:#009af9; stroke-linecap:round; stroke-linejoin:round; stroke-width:4; stroke-opacity:1; fill:none" points="326.628,144.949 467.986,144.949 "/>
<path clip-path="url(#clip700)" d="M496.221 131.511 L496.221 144.497 L502.101 144.497 Q505.365 144.497 507.147 142.807 Q508.929 141.118 508.929 137.993 Q508.929 134.891 507.147 133.201 Q505.365 131.511 502.101 131.511 L496.221 131.511 M491.545 127.669 L502.101 127.669 Q507.911 127.669 510.874 130.307 Q513.86 132.923 513.86 137.993 Q513.86 143.108 510.874 145.724 Q507.911 148.34 502.101 148.34 L496.221 148.34 L496.221 162.229 L491.545 162.229 L491.545 127.669 Z" fill="#000000" fill-rule="nonzero" fill-opacity="1" /><path clip-path="url(#clip700)" d="M521.36 158.293 L528.999 158.293 L528.999 131.928 L520.689 133.595 L520.689 129.335 L528.952 127.669 L533.628 127.669 L533.628 158.293 L541.267 158.293 L541.267 162.229 L521.36 162.229 L521.36 158.293 Z" fill="#000000" fill-rule="nonzero" fill-opacity="1" /><polyline clip-path="url(#clip700)" style="stroke:#e26f46; stroke-linecap:round; stroke-linejoin:round; stroke-width:4; stroke-opacity:1; fill:none" points="326.628,196.789 467.986,196.789 "/>
<path clip-path="url(#clip700)" d="M496.221 183.351 L496.221 196.337 L502.101 196.337 Q505.365 196.337 507.147 194.647 Q508.929 192.958 508.929 189.833 Q508.929 186.731 507.147 185.041 Q505.365 183.351 502.101 183.351 L496.221 183.351 M491.545 179.509 L502.101 179.509 Q507.911 179.509 510.874 182.147 Q513.86 184.763 513.86 189.833 Q513.86 194.948 510.874 197.564 Q507.911 200.18 502.101 200.18 L496.221 200.18 L496.221 214.069 L491.545 214.069 L491.545 179.509 Z" fill="#000000" fill-rule="nonzero" fill-opacity="1" /><path clip-path="url(#clip700)" d="M524.577 210.133 L540.897 210.133 L540.897 214.069 L518.953 214.069 L518.953 210.133 Q521.615 207.379 526.198 202.749 Q530.804 198.096 531.985 196.754 Q534.23 194.231 535.11 192.495 Q536.013 190.735 536.013 189.046 Q536.013 186.291 534.068 184.555 Q532.147 182.819 529.045 182.819 Q526.846 182.819 524.392 183.583 Q521.962 184.347 519.184 185.897 L519.184 181.175 Q522.008 180.041 524.462 179.462 Q526.915 178.884 528.952 178.884 Q534.323 178.884 537.517 181.569 Q540.712 184.254 540.712 188.745 Q540.712 190.874 539.901 192.796 Q539.114 194.694 537.008 197.286 Q536.429 197.958 533.327 201.175 Q530.226 204.37 524.577 210.133 Z" fill="#000000" fill-rule="nonzero" fill-opacity="1" /><circle clip-path="url(#clip700)" cx="397.307" cy="248.629" r="20.48" fill="#3da44d" fill-rule="evenodd" fill-opacity="1" stroke="#000000" stroke-opacity="1" stroke-width="4.55111"/>
<path clip-path="url(#clip700)" d="M491.545 231.349 L497.842 231.349 L513.166 260.261 L513.166 231.349 L517.703 231.349 L517.703 265.909 L511.406 265.909 L496.082 236.997 L496.082 265.909 L491.545 265.909 L491.545 231.349 Z" fill="#000000" fill-rule="nonzero" fill-opacity="1" /><path clip-path="url(#clip700)" d="M536.869 242.969 Q533.443 242.969 531.452 245.654 Q529.462 248.316 529.462 252.969 Q529.462 257.622 531.429 260.307 Q533.42 262.969 536.869 262.969 Q540.272 262.969 542.263 260.284 Q544.253 257.598 544.253 252.969 Q544.253 248.362 542.263 245.677 Q540.272 242.969 536.869 242.969 M536.869 239.358 Q542.425 239.358 545.596 242.969 Q548.767 246.58 548.767 252.969 Q548.767 259.335 545.596 262.969 Q542.425 266.58 536.869 266.58 Q531.29 266.58 528.119 262.969 Q524.971 259.335 524.971 252.969 Q524.971 246.58 528.119 242.969 Q531.29 239.358 536.869 239.358 Z" fill="#000000" fill-rule="nonzero" fill-opacity="1" /><path clip-path="url(#clip700)" d="M555.827 239.983 L560.087 239.983 L560.087 265.909 L555.827 265.909 L555.827 239.983 M555.827 229.89 L560.087 229.89 L560.087 235.284 L555.827 235.284 L555.827 229.89 Z" fill="#000000" fill-rule="nonzero" fill-opacity="1" /><path clip-path="url(#clip700)" d="M585.526 240.747 L585.526 244.774 Q583.721 243.849 581.776 243.386 Q579.832 242.923 577.749 242.923 Q574.577 242.923 572.98 243.895 Q571.406 244.867 571.406 246.811 Q571.406 248.293 572.54 249.149 Q573.674 249.983 577.1 250.747 L578.559 251.071 Q583.096 252.043 584.994 253.825 Q586.915 255.585 586.915 258.756 Q586.915 262.367 584.045 264.473 Q581.198 266.58 576.198 266.58 Q574.114 266.58 571.846 266.163 Q569.6 265.77 567.1 264.96 L567.1 260.561 Q569.462 261.788 571.753 262.413 Q574.045 263.015 576.29 263.015 Q579.299 263.015 580.92 261.997 Q582.54 260.955 582.54 259.08 Q582.54 257.344 581.36 256.418 Q580.202 255.492 576.244 254.636 L574.762 254.288 Q570.804 253.455 569.045 251.742 Q567.286 250.006 567.286 246.997 Q567.286 243.339 569.878 241.349 Q572.471 239.358 577.239 239.358 Q579.6 239.358 581.684 239.705 Q583.767 240.052 585.526 240.747 Z" fill="#000000" fill-rule="nonzero" fill-opacity="1" /><path clip-path="url(#clip700)" d="M604.484 268.316 Q602.679 272.946 600.966 274.358 Q599.253 275.77 596.383 275.77 L592.98 275.77 L592.98 272.205 L595.48 272.205 Q597.239 272.205 598.211 271.372 Q599.184 270.538 600.364 267.436 L601.128 265.492 L590.642 239.983 L595.156 239.983 L603.258 260.261 L611.359 239.983 L615.873 239.983 L604.484 268.316 Z" fill="#000000" fill-rule="nonzero" fill-opacity="1" /><path clip-path="url(#clip700)" d="M646.869 242.969 Q643.443 242.969 641.452 245.654 Q639.461 248.316 639.461 252.969 Q639.461 257.622 641.429 260.307 Q643.419 262.969 646.869 262.969 Q650.271 262.969 652.262 260.284 Q654.253 257.598 654.253 252.969 Q654.253 248.362 652.262 245.677 Q650.271 242.969 646.869 242.969 M646.869 239.358 Q652.424 239.358 655.595 242.969 Q658.767 246.58 658.767 252.969 Q658.767 259.335 655.595 262.969 Q652.424 266.58 646.869 266.58 Q641.29 266.58 638.119 262.969 Q634.97 259.335 634.97 252.969 Q634.97 246.58 638.119 242.969 Q641.29 239.358 646.869 239.358 Z" fill="#000000" fill-rule="nonzero" fill-opacity="1" /><path clip-path="url(#clip700)" d="M684.438 252.969 Q684.438 248.27 682.493 245.608 Q680.572 242.923 677.192 242.923 Q673.813 242.923 671.868 245.608 Q669.947 248.27 669.947 252.969 Q669.947 257.668 671.868 260.353 Q673.813 263.015 677.192 263.015 Q680.572 263.015 682.493 260.353 Q684.438 257.668 684.438 252.969 M669.947 243.918 Q671.29 241.603 673.327 240.492 Q675.387 239.358 678.234 239.358 Q682.956 239.358 685.896 243.108 Q688.859 246.858 688.859 252.969 Q688.859 259.08 685.896 262.83 Q682.956 266.58 678.234 266.58 Q675.387 266.58 673.327 265.469 Q671.29 264.335 669.947 262.02 L669.947 265.909 L665.665 265.909 L665.665 229.89 L669.947 229.89 L669.947 243.918 Z" fill="#000000" fill-rule="nonzero" fill-opacity="1" /><path clip-path="url(#clip700)" d="M712.447 240.747 L712.447 244.774 Q710.641 243.849 708.697 243.386 Q706.752 242.923 704.669 242.923 Q701.498 242.923 699.901 243.895 Q698.327 244.867 698.327 246.811 Q698.327 248.293 699.461 249.149 Q700.595 249.983 704.021 250.747 L705.479 251.071 Q710.016 252.043 711.914 253.825 Q713.836 255.585 713.836 258.756 Q713.836 262.367 710.965 264.473 Q708.118 266.58 703.118 266.58 Q701.035 266.58 698.766 266.163 Q696.521 265.77 694.021 264.96 L694.021 260.561 Q696.382 261.788 698.674 262.413 Q700.965 263.015 703.211 263.015 Q706.22 263.015 707.84 261.997 Q709.461 260.955 709.461 259.08 Q709.461 257.344 708.28 256.418 Q707.123 255.492 703.164 254.636 L701.683 254.288 Q697.725 253.455 695.965 251.742 Q694.206 250.006 694.206 246.997 Q694.206 243.339 696.799 241.349 Q699.391 239.358 704.16 239.358 Q706.521 239.358 708.604 239.705 Q710.688 240.052 712.447 240.747 Z" fill="#000000" fill-rule="nonzero" fill-opacity="1" /><path clip-path="url(#clip700)" d="M742.794 251.881 L742.794 253.964 L723.211 253.964 Q723.488 258.362 725.85 260.677 Q728.234 262.969 732.47 262.969 Q734.924 262.969 737.215 262.367 Q739.53 261.765 741.799 260.561 L741.799 264.589 Q739.507 265.561 737.099 266.071 Q734.692 266.58 732.215 266.58 Q726.012 266.58 722.377 262.969 Q718.766 259.358 718.766 253.2 Q718.766 246.835 722.192 243.108 Q725.641 239.358 731.475 239.358 Q736.706 239.358 739.738 242.737 Q742.794 246.094 742.794 251.881 M738.535 250.631 Q738.488 247.136 736.567 245.052 Q734.669 242.969 731.521 242.969 Q727.956 242.969 725.803 244.983 Q723.674 246.997 723.35 250.654 L738.535 250.631 Z" fill="#000000" fill-rule="nonzero" fill-opacity="1" /><path clip-path="url(#clip700)" d="M764.808 243.964 Q764.09 243.548 763.234 243.362 Q762.4 243.154 761.382 243.154 Q757.771 243.154 755.826 245.515 Q753.905 247.853 753.905 252.251 L753.905 265.909 L749.623 265.909 L749.623 239.983 L753.905 239.983 L753.905 244.011 Q755.248 241.649 757.4 240.515 Q759.553 239.358 762.632 239.358 Q763.072 239.358 763.604 239.427 Q764.136 239.474 764.785 239.589 L764.808 243.964 Z" fill="#000000" fill-rule="nonzero" fill-opacity="1" /><path clip-path="url(#clip700)" d="M766.22 239.983 L770.734 239.983 L778.835 261.742 L786.937 239.983 L791.451 239.983 L781.729 265.909 L775.942 265.909 L766.22 239.983 Z" fill="#000000" fill-rule="nonzero" fill-opacity="1" /><path clip-path="url(#clip700)" d="M819.506 251.881 L819.506 253.964 L799.923 253.964 Q800.201 258.362 802.562 260.677 Q804.946 262.969 809.182 262.969 Q811.636 262.969 813.928 262.367 Q816.243 261.765 818.511 260.561 L818.511 264.589 Q816.219 265.561 813.812 266.071 Q811.405 266.58 808.928 266.58 Q802.724 266.58 799.09 262.969 Q795.479 259.358 795.479 253.2 Q795.479 246.835 798.905 243.108 Q802.354 239.358 808.187 239.358 Q813.419 239.358 816.451 242.737 Q819.506 246.094 819.506 251.881 M815.247 250.631 Q815.201 247.136 813.28 245.052 Q811.382 242.969 808.233 242.969 Q804.669 242.969 802.516 244.983 Q800.386 246.997 800.062 250.654 L815.247 250.631 Z" fill="#000000" fill-rule="nonzero" fill-opacity="1" /><path clip-path="url(#clip700)" d="M843.557 243.918 L843.557 229.89 L847.816 229.89 L847.816 265.909 L843.557 265.909 L843.557 262.02 Q842.215 264.335 840.155 265.469 Q838.117 266.58 835.247 266.58 Q830.548 266.58 827.585 262.83 Q824.645 259.08 824.645 252.969 Q824.645 246.858 827.585 243.108 Q830.548 239.358 835.247 239.358 Q838.117 239.358 840.155 240.492 Q842.215 241.603 843.557 243.918 M829.043 252.969 Q829.043 257.668 830.965 260.353 Q832.909 263.015 836.289 263.015 Q839.668 263.015 841.613 260.353 Q843.557 257.668 843.557 252.969 Q843.557 248.27 841.613 245.608 Q839.668 242.923 836.289 242.923 Q832.909 242.923 830.965 245.608 Q829.043 248.27 829.043 252.969 Z" fill="#000000" fill-rule="nonzero" fill-opacity="1" /><path clip-path="url(#clip700)" d="M888.719 243.918 L888.719 229.89 L892.978 229.89 L892.978 265.909 L888.719 265.909 L888.719 262.02 Q887.376 264.335 885.316 265.469 Q883.279 266.58 880.409 266.58 Q875.71 266.58 872.747 262.83 Q869.807 259.08 869.807 252.969 Q869.807 246.858 872.747 243.108 Q875.71 239.358 880.409 239.358 Q883.279 239.358 885.316 240.492 Q887.376 241.603 888.719 243.918 M874.205 252.969 Q874.205 257.668 876.127 260.353 Q878.071 263.015 881.451 263.015 Q884.83 263.015 886.775 260.353 Q888.719 257.668 888.719 252.969 Q888.719 248.27 886.775 245.608 Q884.83 242.923 881.451 242.923 Q878.071 242.923 876.127 245.608 Q874.205 248.27 874.205 252.969 Z" fill="#000000" fill-rule="nonzero" fill-opacity="1" /><path clip-path="url(#clip700)" d="M913.534 252.876 Q908.372 252.876 906.381 254.057 Q904.39 255.237 904.39 258.085 Q904.39 260.353 905.872 261.696 Q907.376 263.015 909.946 263.015 Q913.487 263.015 915.617 260.515 Q917.77 257.992 917.77 253.825 L917.77 252.876 L913.534 252.876 M922.029 251.117 L922.029 265.909 L917.77 265.909 L917.77 261.973 Q916.312 264.335 914.136 265.469 Q911.96 266.58 908.812 266.58 Q904.83 266.58 902.469 264.358 Q900.131 262.112 900.131 258.362 Q900.131 253.987 903.048 251.765 Q905.987 249.543 911.798 249.543 L917.77 249.543 L917.77 249.126 Q917.77 246.187 915.825 244.589 Q913.904 242.969 910.409 242.969 Q908.187 242.969 906.08 243.501 Q903.974 244.034 902.029 245.099 L902.029 241.163 Q904.367 240.261 906.566 239.821 Q908.765 239.358 910.849 239.358 Q916.474 239.358 919.251 242.274 Q922.029 245.191 922.029 251.117 Z" fill="#000000" fill-rule="nonzero" fill-opacity="1" /><path clip-path="url(#clip700)" d="M935.015 232.622 L935.015 239.983 L943.788 239.983 L943.788 243.293 L935.015 243.293 L935.015 257.367 Q935.015 260.538 935.872 261.441 Q936.751 262.344 939.413 262.344 L943.788 262.344 L943.788 265.909 L939.413 265.909 Q934.483 265.909 932.608 264.08 Q930.733 262.228 930.733 257.367 L930.733 243.293 L927.608 243.293 L927.608 239.983 L930.733 239.983 L930.733 232.622 L935.015 232.622 Z" fill="#000000" fill-rule="nonzero" fill-opacity="1" /><path clip-path="url(#clip700)" d="M961.172 252.876 Q956.01 252.876 954.02 254.057 Q952.029 255.237 952.029 258.085 Q952.029 260.353 953.51 261.696 Q955.015 263.015 957.584 263.015 Q961.126 263.015 963.256 260.515 Q965.408 257.992 965.408 253.825 L965.408 252.876 L961.172 252.876 M969.668 251.117 L969.668 265.909 L965.408 265.909 L965.408 261.973 Q963.95 264.335 961.774 265.469 Q959.598 266.58 956.45 266.58 Q952.469 266.58 950.108 264.358 Q947.77 262.112 947.77 258.362 Q947.77 253.987 950.686 251.765 Q953.626 249.543 959.436 249.543 L965.408 249.543 L965.408 249.126 Q965.408 246.187 963.464 244.589 Q961.543 242.969 958.047 242.969 Q955.825 242.969 953.719 243.501 Q951.612 244.034 949.668 245.099 L949.668 241.163 Q952.006 240.261 954.205 239.821 Q956.404 239.358 958.487 239.358 Q964.112 239.358 966.89 242.274 Q969.668 245.191 969.668 251.117 Z" fill="#000000" fill-rule="nonzero" fill-opacity="1" /></svg>
